{
  "asset": {
    "version": "2.0",
    "generator": "COLLADA2GLTF"
  },
  "accessors": [
    {
      "bufferView": 0,
      "byteOffset": 0,
      "componentType": 5123,
      "count": 2280,
      "min": [
        0
      ],
      "max": [
        818
      ],
      "type": "SCALAR"
    },
    {
      "bufferView": 1,
      "byteOffset": 0,
      "componentType": 5126,
      "count": 819,
      "max": [
        558.5285034179688,
        7.5,
        314.9102478027344
      ],
      "min": [
        85.71199798583984,
        0,
        0
      ],
      "type": "VEC3"
    },
    {
      "bufferView": 2,
      "byteOffset": 0,
      "componentType": 5126,
      "count": 819,
      "max": [
        0.8344765305519104,
        1,
        0.8323752880096436
      ],
      "min": [
        -0.8330917954444885,
        0,
        -0.8326425552368164
      ],
      "type": "VEC3"
    },
    {
      "bufferView": 3,
      "byteOffset": 0,
      "componentType": 5126,
      "count": 819,
      "max": [
        0.999786376953125,
        1,
        1
      ],
      "min": [
        0,
        0.00003051804378628731,
        0
      ],
      "type": "VEC3"
    }
  ],
  "buffers": [
    {
      "byteLength": 4560,
      "uri": "data:application/octet-stream;base64,"
    },
    {
      "byteLength": 9828,
      "uri": "data:application/octet-stream;base64,"
    },
    {
      "byteLength": 9828,
      "uri": "data:application/octet-stream;base64,"
    },
    {
      "byteLength": 9828,
      "uri": "data:application/octet-stream;base64,"
    }
  ],
  "bufferViews": [
    {
      "buffer": 0,
      "byteOffset": 0,
      "byteLength": 4560
    },
    {
      "buffer": 1,
      "byteOffset": 0,
      "byteLength": 9828
    },
    {
      "buffer": 2,
      "byteOffset": 0,
      "byteLength": 9828
    },
    {
      "buffer": 3,
      "byteOffset": 0,
      "byteLength": 9828
    }
  ],
  "meshes": [
    {
      "primitives": [
        {
          "mode": 4,
          "indices": 0,
          "attributes": {
            "POSITION": 1,
            "NORMAL": 2,
            "COLOR_0": 3
          }
        }
      ]
    }
  ],
  "nodes": [
    {
      "children": [
        1
      ]
    },
    {
      "mesh": 0
    }
  ],
  "scenes": [
    {
      "nodes": [
        0
      ]
    }
  ],
  "scene": 0
}