{
  "asset": {
    "version": "2.0",
    "generator": "COLLADA2GLTF"
  },
  "accessors": [
    {
      "bufferView": 0,
      "byteOffset": 0,
      "componentType": 5123,
      "count": 2916,
      "min": [
        0
      ],
      "max": [
        1111
      ],
      "type": "SCALAR"
    },
    {
      "bufferView": 1,
      "byteOffset": 0,
      "componentType": 5126,
      "count": 1112,
      "max": [
        420,
        0,
        -30
      ],
      "min": [
        -140.3817596435547,
        0,
        -694.88525390625
      ],
      "type": "VEC3"
    },
    {
      "bufferView": 2,
      "byteOffset": 0,
      "componentType": 5126,
      "count": 1112,
      "max": [
        0.8610559701919556,
        1,
        0
      ],
      "min": [
        -0.4881229102611542,
        0,
        -0.8727748990058899
      ],
      "type": "VEC3"
    },
    {
      "bufferView": 3,
      "byteOffset": 0,
      "componentType": 5126,
      "count": 1112,
      "max": [
        0.999786376953125,
        1,
        0.26330968737602234
      ],
      "min": [
        0.000015259021893143654,
        0.07324330508708954,
        0.00004577706567943096
      ],
      "type": "VEC3"
    }
  ],
  "buffers": [
    {
      "byteLength": 5832,
      "uri": "data:application/octet-stream;base64,"
    },
    {
      "byteLength": 13344,
      "uri": "data:application/octet-stream;base64,"
    },
    {
      "byteLength": 13344,
      "uri": "data:application/octet-stream;base64,"
    },
    {
      "byteLength": 13344,
      "uri": "data:application/octet-stream;base64,"
    }
  ],
  "bufferViews": [
    {
      "buffer": 0,
      "byteOffset": 0,
      "byteLength": 5832
    },
    {
      "buffer": 1,
      "byteOffset": 0,
      "byteLength": 13344
    },
    {
      "buffer": 2,
      "byteOffset": 0,
      "byteLength": 13344
    },
    {
      "buffer": 3,
      "byteOffset": 0,
      "byteLength": 13344
    }
  ],
  "meshes": [
    {
      "primitives": [
        {
          "mode": 4,
          "indices": 0,
          "attributes": {
            "POSITION": 1,
            "NORMAL": 2,
            "COLOR_0": 3
          }
        }
      ]
    }
  ],
  "nodes": [
    {
      "children": [
        1
      ]
    },
    {
      "mesh": 0
    }
  ],
  "scenes": [
    {
      "nodes": [
        0
      ]
    }
  ],
  "scene": 0
}