{
  "asset": {
    "version": "2.0",
    "generator": "COLLADA2GLTF"
  },
  "accessors": [
    {
      "bufferView": 0,
      "byteOffset": 0,
      "componentType": 5123,
      "count": 1326,
      "min": [
        0
      ],
      "max": [
        589
      ],
      "type": "SCALAR"
    },
    {
      "bufferView": 1,
      "byteOffset": 0,
      "componentType": 5126,
      "count": 590,
      "max": [
        252.52528381347656,
        7.5,
        265.54803466796875
      ],
      "min": [
        -150,
        0,
        -30.81545639038086
      ],
      "type": "VEC3"
    },
    {
      "bufferView": 2,
      "byteOffset": 0,
      "componentType": 5126,
      "count": 590,
      "max": [
        0.8987714052200317,
        1,
        0.888473629951477
      ],
      "min": [
        -0.8889653086662292,
        0,
        -0.8905543684959412
      ],
      "type": "VEC3"
    },
    {
      "bufferView": 3,
      "byteOffset": 0,
      "componentType": 5126,
      "count": 590,
      "max": [
        0.999786376953125,
        1,
        0.7875028848648071
      ],
      "min": [
        0.000015259021893143654,
        0.07324330508708954,
        0.00004577706567943096
      ],
      "type": "VEC3"
    }
  ],
  "buffers": [
    {
      "byteLength": 2652,
      "uri": "data:application/octet-stream;base64,"
    },
    {
      "byteLength": 7080,
      "uri": "data:application/octet-stream;base64,"
    },
    {
      "byteLength": 7080,
      "uri": "data:application/octet-stream;base64,"
    },
    {
      "byteLength": 7080,
      "uri": "data:application/octet-stream;base64,"
    }
  ],
  "bufferViews": [
    {
      "buffer": 0,
      "byteOffset": 0,
      "byteLength": 2652
    },
    {
      "buffer": 1,
      "byteOffset": 0,
      "byteLength": 7080
    },
    {
      "buffer": 2,
      "byteOffset": 0,
      "byteLength": 7080
    },
    {
      "buffer": 3,
      "byteOffset": 0,
      "byteLength": 7080
    }
  ],
  "meshes": [
    {
      "primitives": [
        {
          "mode": 4,
          "indices": 0,
          "attributes": {
            "POSITION": 1,
            "NORMAL": 2,
            "COLOR_0": 3
          }
        }
      ]
    }
  ],
  "nodes": [
    {
      "children": [
        1
      ]
    },
    {
      "mesh": 0
    }
  ],
  "scenes": [
    {
      "nodes": [
        0
      ]
    }
  ],
  "scene": 0
}