{
  "asset": {
    "version": "2.0",
    "generator": "COLLADA2GLTF"
  },
  "accessors": [
    {
      "bufferView": 0,
      "byteOffset": 0,
      "componentType": 5123,
      "count": 2814,
      "min": [
        0
      ],
      "max": [
        1112
      ],
      "type": "SCALAR"
    },
    {
      "bufferView": 1,
      "byteOffset": 0,
      "componentType": 5126,
      "count": 1113,
      "max": [
        240,
        12.5,
        105.97975158691406
      ],
      "min": [
        -111.01371002197266,
        0,
        -150
      ],
      "type": "VEC3"
    },
    {
      "bufferView": 2,
      "byteOffset": 0,
      "componentType": 5126,
      "count": 1113,
      "max": [
        0.9155136942863464,
        1,
        0.9172795414924622
      ],
      "min": [
        -0.9191246032714844,
        0,
        -0.8918335437774658
      ],
      "type": "VEC3"
    },
    {
      "bufferView": 3,
      "byteOffset": 0,
      "componentType": 5126,
      "count": 1113,
      "max": [
        0.999786376953125,
        1,
        0.26330968737602234
      ],
      "min": [
        0.000015259021893143654,
        0.00003051804378628731,
        0
      ],
      "type": "VEC3"
    }
  ],
  "buffers": [
    {
      "byteLength": 5628,
      "uri": "data:application/octet-stream;base64,"
    },
    {
      "byteLength": 13356,
      "uri": "data:application/octet-stream;base64,"
    },
    {
      "byteLength": 13356,
      "uri": "data:application/octet-stream;base64,"
    },
    {
      "byteLength": 13356,
      "uri": "data:application/octet-stream;base64,"
    }
  ],
  "bufferViews": [
    {
      "buffer": 0,
      "byteOffset": 0,
      "byteLength": 5628
    },
    {
      "buffer": 1,
      "byteOffset": 0,
      "byteLength": 13356
    },
    {
      "buffer": 2,
      "byteOffset": 0,
      "byteLength": 13356
    },
    {
      "buffer": 3,
      "byteOffset": 0,
      "byteLength": 13356
    }
  ],
  "meshes": [
    {
      "primitives": [
        {
          "mode": 4,
          "indices": 0,
          "attributes": {
            "POSITION": 1,
            "NORMAL": 2,
            "COLOR_0": 3
          }
        }
      ]
    }
  ],
  "nodes": [
    {
      "children": [
        1
      ]
    },
    {
      "mesh": 0
    }
  ],
  "scenes": [
    {
      "nodes": [
        0
      ]
    }
  ],
  "scene": 0
}