{
  "asset": {
    "version": "2.0",
    "generator": "COLLADA2GLTF"
  },
  "accessors": [
    {
      "bufferView": 0,
      "byteOffset": 0,
      "componentType": 5123,
      "count": 2940,
      "min": [
        0
      ],
      "max": [
        1160
      ],
      "type": "SCALAR"
    },
    {
      "bufferView": 1,
      "byteOffset": 0,
      "componentType": 5126,
      "count": 1161,
      "max": [
        0,
        0.0010000000474974513,
        270.01263427734375
      ],
      "min": [
        -450,
        0,
        0
      ],
      "type": "VEC3"
    },
    {
      "bufferView": 2,
      "byteOffset": 0,
      "componentType": 5126,
      "count": 1161,
      "max": [
        0,
        1,
        0
      ],
      "min": [
        0,
        1,
        0
      ],
      "type": "VEC3"
    },
    {
      "bufferView": 3,
      "byteOffset": 0,
      "componentType": 5126,
      "count": 1161,
      "max": [
        0.7872740030288696,
        1,
        0.7875028848648071
      ],
      "min": [
        0.000015259021893143654,
        0.07324330508708954,
        0.00004577706567943096
      ],
      "type": "VEC3"
    }
  ],
  "buffers": [
    {
      "byteLength": 5880,
      "uri": "data:application/octet-stream;base64,"
    },
    {
      "byteLength": 13932,
      "uri": "data:application/octet-stream;base64,"
    },
    {
      "byteLength": 13932,
      "uri": "data:application/octet-stream;base64,"
    },
    {
      "byteLength": 13932,
      "uri": "data:application/octet-stream;base64,"
    }
  ],
  "bufferViews": [
    {
      "buffer": 0,
      "byteOffset": 0,
      "byteLength": 5880
    },
    {
      "buffer": 1,
      "byteOffset": 0,
      "byteLength": 13932
    },
    {
      "buffer": 2,
      "byteOffset": 0,
      "byteLength": 13932
    },
    {
      "buffer": 3,
      "byteOffset": 0,
      "byteLength": 13932
    }
  ],
  "meshes": [
    {
      "primitives": [
        {
          "mode": 4,
          "indices": 0,
          "attributes": {
            "POSITION": 1,
            "NORMAL": 2,
            "COLOR_0": 3
          }
        }
      ]
    }
  ],
  "nodes": [
    {
      "children": [
        1
      ]
    },
    {
      "mesh": 0
    }
  ],
  "scenes": [
    {
      "nodes": [
        0
      ]
    }
  ],
  "scene": 0
}