{
  "asset": {
    "version": "2.0",
    "generator": "COLLADA2GLTF"
  },
  "accessors": [
    {
      "bufferView": 0,
      "byteOffset": 0,
      "componentType": 5123,
      "count": 1623,
      "min": [
        0
      ],
      "max": [
        669
      ],
      "type": "SCALAR"
    },
    {
      "bufferView": 1,
      "byteOffset": 0,
      "componentType": 5126,
      "count": 670,
      "max": [
        -180,
        0,
        270
      ],
      "min": [
        -611.6869506835938,
        0,
        -32.53095626831055
      ],
      "type": "VEC3"
    },
    {
      "bufferView": 2,
      "byteOffset": 0,
      "componentType": 5126,
      "count": 670,
      "max": [
        0,
        1,
        0
      ],
      "min": [
        0,
        1,
        0
      ],
      "type": "VEC3"
    },
    {
      "bufferView": 3,
      "byteOffset": 0,
      "componentType": 5126,
      "count": 670,
      "max": [
        0.26324865221977234,
        1,
        0.26329442858695984
      ],
      "min": [
        0.000015259021893143654,
        0.07324330508708954,
        0.00004577706567943096
      ],
      "type": "VEC3"
    }
  ],
  "buffers": [
    {
      "byteLength": 3246,
      "uri": "data:application/octet-stream;base64,"
    },
    {
      "byteLength": 8040,
      "uri": "data:application/octet-stream;base64,"
    },
    {
      "byteLength": 8040,
      "uri": "data:application/octet-stream;base64,"
    },
    {
      "byteLength": 8040,
      "uri": "data:application/octet-stream;base64,"
    }
  ],
  "bufferViews": [
    {
      "buffer": 0,
      "byteOffset": 0,
      "byteLength": 3246
    },
    {
      "buffer": 1,
      "byteOffset": 0,
      "byteLength": 8040
    },
    {
      "buffer": 2,
      "byteOffset": 0,
      "byteLength": 8040
    },
    {
      "buffer": 3,
      "byteOffset": 0,
      "byteLength": 8040
    }
  ],
  "meshes": [
    {
      "primitives": [
        {
          "mode": 4,
          "indices": 0,
          "attributes": {
            "POSITION": 1,
            "NORMAL": 2,
            "COLOR_0": 3
          }
        }
      ]
    }
  ],
  "nodes": [
    {
      "children": [
        1
      ]
    },
    {
      "mesh": 0
    }
  ],
  "scenes": [
    {
      "nodes": [
        0
      ]
    }
  ],
  "scene": 0
}