{
  "asset": {
    "version": "2.0",
    "generator": "COLLADA2GLTF"
  },
  "accessors": [
    {
      "bufferView": 0,
      "byteOffset": 0,
      "componentType": 5123,
      "count": 12,
      "min": [
        0
      ],
      "max": [
        11
      ],
      "type": "SCALAR"
    },
    {
      "bufferView": 1,
      "byteOffset": 0,
      "componentType": 5126,
      "count": 12,
      "max": [
        -5.603000164031982,
        37.5,
        105.47544860839844
      ],
      "min": [
        -20.976896286010742,
        0,
        97.19212341308594
      ],
      "type": "VEC3"
    },
    {
      "bufferView": 2,
      "byteOffset": 0,
      "componentType": 5126,
      "count": 12,
      "max": [
        -0.47428762912750244,
        0,
        0.4450903832912445
      ],
      "min": [
        -0.8954856395721436,
        0,
        -0.8803699612617493
      ],
      "type": "VEC3"
    },
    {
      "bufferView": 3,
      "byteOffset": 0,
      "componentType": 5126,
      "count": 12,
      "max": [
        0.999786376953125,
        0.7875181436538696,
        0.26330968737602234
      ],
      "min": [
        0.999786376953125,
        0.7875181436538696,
        0.26330968737602234
      ],
      "type": "VEC3"
    }
  ],
  "buffers": [
    {
      "byteLength": 24,
      "uri": "data:application/octet-stream;base64,"
    },
    {
      "byteLength": 144,
      "uri": "data:application/octet-stream;base64,"
    },
    {
      "byteLength": 144,
      "uri": "data:application/octet-stream;base64,"
    },
    {
      "byteLength": 144,
      "uri": "data:application/octet-stream;base64,"
    }
  ],
  "bufferViews": [
    {
      "buffer": 0,
      "byteOffset": 0,
      "byteLength": 24
    },
    {
      "buffer": 1,
      "byteOffset": 0,
      "byteLength": 144
    },
    {
      "buffer": 2,
      "byteOffset": 0,
      "byteLength": 144
    },
    {
      "buffer": 3,
      "byteOffset": 0,
      "byteLength": 144
    }
  ],
  "meshes": [
    {
      "primitives": [
        {
          "mode": 4,
          "indices": 0,
          "attributes": {
            "POSITION": 1,
            "NORMAL": 2,
            "COLOR_0": 3
          }
        }
      ]
    }
  ],
  "nodes": [
    {
      "children": [
        1
      ]
    },
    {
      "mesh": 0
    }
  ],
  "scenes": [
    {
      "nodes": [
        0
      ]
    }
  ],
  "scene": 0
}