{
  "asset": {
    "version": "2.0",
    "generator": "COLLADA2GLTF"
  },
  "accessors": [
    {
      "bufferView": 0,
      "byteOffset": 0,
      "componentType": 5123,
      "count": 3864,
      "min": [
        0
      ],
      "max": [
        1561
      ],
      "type": "SCALAR"
    },
    {
      "bufferView": 1,
      "byteOffset": 0,
      "componentType": 5126,
      "count": 1562,
      "max": [
        120,
        0,
        270
      ],
      "min": [
        -450,
        0,
        -31.545509338378906
      ],
      "type": "VEC3"
    },
    {
      "bufferView": 2,
      "byteOffset": 0,
      "componentType": 5126,
      "count": 1562,
      "max": [
        0.9000838398933411,
        1,
        0.8917083144187927
      ],
      "min": [
        -0.8990903496742249,
        0,
        -0.8994479179382324
      ],
      "type": "VEC3"
    },
    {
      "bufferView": 3,
      "byteOffset": 0,
      "componentType": 5126,
      "count": 1562,
      "max": [
        0.999786376953125,
        1,
        0.26330968737602234
      ],
      "min": [
        0.000015259021893143654,
        0.07324330508708954,
        0.00004577706567943096
      ],
      "type": "VEC3"
    }
  ],
  "buffers": [
    {
      "byteLength": 7728,
      "uri": "data:application/octet-stream;base64,"
    },
    {
      "byteLength": 18744,
      "uri": "data:application/octet-stream;base64,"
    },
    {
      "byteLength": 18744,
      "uri": "data:application/octet-stream;base64,"
    },
    {
      "byteLength": 18744,
      "uri": "data:application/octet-stream;base64,"
    }
  ],
  "bufferViews": [
    {
      "buffer": 0,
      "byteOffset": 0,
      "byteLength": 7728
    },
    {
      "buffer": 1,
      "byteOffset": 0,
      "byteLength": 18744
    },
    {
      "buffer": 2,
      "byteOffset": 0,
      "byteLength": 18744
    },
    {
      "buffer": 3,
      "byteOffset": 0,
      "byteLength": 18744
    }
  ],
  "meshes": [
    {
      "primitives": [
        {
          "mode": 4,
          "indices": 0,
          "attributes": {
            "POSITION": 1,
            "NORMAL": 2,
            "COLOR_0": 3
          }
        }
      ]
    }
  ],
  "nodes": [
    {
      "children": [
        1
      ]
    },
    {
      "mesh": 0
    }
  ],
  "scenes": [
    {
      "nodes": [
        0
      ]
    }
  ],
  "scene": 0
}