{
  "asset": {
    "version": "2.0",
    "generator": "COLLADA2GLTF"
  },
  "accessors": [
    {
      "bufferView": 0,
      "byteOffset": 0,
      "componentType": 5123,
      "count": 315,
      "min": [
        0
      ],
      "max": [
        144
      ],
      "type": "SCALAR"
    },
    {
      "bufferView": 1,
      "byteOffset": 0,
      "componentType": 5126,
      "count": 145,
      "max": [
        60.64146041870117,
        37.5,
        138.39288330078125
      ],
      "min": [
        -74.78800201416016,
        0,
        -16.665874481201172
      ],
      "type": "VEC3"
    },
    {
      "bufferView": 2,
      "byteOffset": 0,
      "componentType": 5126,
      "count": 145,
      "max": [
        0.8953328728675842,
        1,
        0.888473629951477
      ],
      "min": [
        -0.9191246032714844,
        0,
        -0.8893028497695923
      ],
      "type": "VEC3"
    },
    {
      "bufferView": 3,
      "byteOffset": 0,
      "componentType": 5126,
      "count": 145,
      "max": [
        0.999786376953125,
        0.7875181436538696,
        0.26330968737602234
      ],
      "min": [
        0.6036774516105652,
        0.00003051804378628731,
        0
      ],
      "type": "VEC3"
    }
  ],
  "buffers": [
    {
      "byteLength": 630,
      "uri": "data:application/octet-stream;base64,"
    },
    {
      "byteLength": 1740,
      "uri": "data:application/octet-stream;base64,"
    },
    {
      "byteLength": 1740,
      "uri": "data:application/octet-stream;base64,"
    },
    {
      "byteLength": 1740,
      "uri": "data:application/octet-stream;base64,"
    }
  ],
  "bufferViews": [
    {
      "buffer": 0,
      "byteOffset": 0,
      "byteLength": 630
    },
    {
      "buffer": 1,
      "byteOffset": 0,
      "byteLength": 1740
    },
    {
      "buffer": 2,
      "byteOffset": 0,
      "byteLength": 1740
    },
    {
      "buffer": 3,
      "byteOffset": 0,
      "byteLength": 1740
    }
  ],
  "meshes": [
    {
      "primitives": [
        {
          "mode": 4,
          "indices": 0,
          "attributes": {
            "POSITION": 1,
            "NORMAL": 2,
            "COLOR_0": 3
          }
        }
      ]
    }
  ],
  "nodes": [
    {
      "children": [
        1
      ]
    },
    {
      "mesh": 0
    }
  ],
  "scenes": [
    {
      "nodes": [
        0
      ]
    }
  ],
  "scene": 0
}