{
  "asset": {
    "version": "2.0",
    "generator": "COLLADA2GLTF"
  },
  "accessors": [
    {
      "bufferView": 0,
      "byteOffset": 0,
      "componentType": 5123,
      "count": 663,
      "min": [
        0
      ],
      "max": [
        260
      ],
      "type": "SCALAR"
    },
    {
      "bufferView": 1,
      "byteOffset": 0,
      "componentType": 5126,
      "count": 261,
      "max": [
        383.31854248046875,
        7.5,
        90
      ],
      "min": [
        188.24627685546875,
        0,
        -150.44949340820312
      ],
      "type": "VEC3"
    },
    {
      "bufferView": 2,
      "byteOffset": 0,
      "componentType": 5126,
      "count": 261,
      "max": [
        0.8718832731246948,
        1,
        0.873006284236908
      ],
      "min": [
        -0.8850950002670288,
        0,
        -0.48971372842788696
      ],
      "type": "VEC3"
    },
    {
      "bufferView": 3,
      "byteOffset": 0,
      "componentType": 5126,
      "count": 261,
      "max": [
        0.999786376953125,
        1,
        0.26330968737602234
      ],
      "min": [
        0.000015259021893143654,
        0.00003051804378628731,
        0
      ],
      "type": "VEC3"
    }
  ],
  "buffers": [
    {
      "byteLength": 1326,
      "uri": "data:application/octet-stream;base64,"
    },
    {
      "byteLength": 3132,
      "uri": "data:application/octet-stream;base64,"
    },
    {
      "byteLength": 3132,
      "uri": "data:application/octet-stream;base64,"
    },
    {
      "byteLength": 3132,
      "uri": "data:application/octet-stream;base64,"
    }
  ],
  "bufferViews": [
    {
      "buffer": 0,
      "byteOffset": 0,
      "byteLength": 1326
    },
    {
      "buffer": 1,
      "byteOffset": 0,
      "byteLength": 3132
    },
    {
      "buffer": 2,
      "byteOffset": 0,
      "byteLength": 3132
    },
    {
      "buffer": 3,
      "byteOffset": 0,
      "byteLength": 3132
    }
  ],
  "meshes": [
    {
      "primitives": [
        {
          "mode": 4,
          "indices": 0,
          "attributes": {
            "POSITION": 1,
            "NORMAL": 2,
            "COLOR_0": 3
          }
        }
      ]
    }
  ],
  "nodes": [
    {
      "children": [
        1
      ]
    },
    {
      "mesh": 0
    }
  ],
  "scenes": [
    {
      "nodes": [
        0
      ]
    }
  ],
  "scene": 0
}