{
  "asset": {
    "version": "2.0",
    "generator": "COLLADA2GLTF"
  },
  "accessors": [
    {
      "bufferView": 0,
      "byteOffset": 0,
      "componentType": 5123,
      "count": 297,
      "min": [
        0
      ],
      "max": [
        178
      ],
      "type": "SCALAR"
    },
    {
      "bufferView": 1,
      "byteOffset": 0,
      "componentType": 5126,
      "count": 179,
      "max": [
        -5.872267723083496,
        12.5,
        111.18687438964844
      ],
      "min": [
        -122.38345336914062,
        0,
        23.264999389648438
      ],
      "type": "VEC3"
    },
    {
      "bufferView": 2,
      "byteOffset": 0,
      "componentType": 5126,
      "count": 179,
      "max": [
        0.8718879222869873,
        1,
        1
      ],
      "min": [
        -0.894390881061554,
        0,
        -0.9999788403511047
      ],
      "type": "VEC3"
    },
    {
      "bufferView": 3,
      "byteOffset": 0,
      "componentType": 5126,
      "count": 179,
      "max": [
        0.999786376953125,
        0.7875181436538696,
        0.26330968737602234
      ],
      "min": [
        0.6036774516105652,
        0.00003051804378628731,
        0
      ],
      "type": "VEC3"
    }
  ],
  "buffers": [
    {
      "byteLength": 594,
      "uri": "data:application/octet-stream;base64,"
    },
    {
      "byteLength": 2148,
      "uri": "data:application/octet-stream;base64,"
    },
    {
      "byteLength": 2148,
      "uri": "data:application/octet-stream;base64,"
    },
    {
      "byteLength": 2148,
      "uri": "data:application/octet-stream;base64,"
    }
  ],
  "bufferViews": [
    {
      "buffer": 0,
      "byteOffset": 0,
      "byteLength": 594
    },
    {
      "buffer": 1,
      "byteOffset": 0,
      "byteLength": 2148
    },
    {
      "buffer": 2,
      "byteOffset": 0,
      "byteLength": 2148
    },
    {
      "buffer": 3,
      "byteOffset": 0,
      "byteLength": 2148
    }
  ],
  "meshes": [
    {
      "primitives": [
        {
          "mode": 4,
          "indices": 0,
          "attributes": {
            "POSITION": 1,
            "NORMAL": 2,
            "COLOR_0": 3
          }
        }
      ]
    }
  ],
  "nodes": [
    {
      "children": [
        1
      ]
    },
    {
      "mesh": 0
    }
  ],
  "scenes": [
    {
      "nodes": [
        0
      ]
    }
  ],
  "scene": 0
}