{
  "asset": {
    "version": "2.0",
    "generator": "COLLADA2GLTF"
  },
  "accessors": [
    {
      "bufferView": 0,
      "byteOffset": 0,
      "componentType": 5123,
      "count": 264,
      "min": [
        0
      ],
      "max": [
        173
      ],
      "type": "SCALAR"
    },
    {
      "bufferView": 1,
      "byteOffset": 0,
      "componentType": 5126,
      "count": 174,
      "max": [
        303.21588134765625,
        20,
        -13.49112319946289
      ],
      "min": [
        167.39051818847656,
        0,
        -104.37389373779297
      ],
      "type": "VEC3"
    },
    {
      "bufferView": 2,
      "byteOffset": 0,
      "componentType": 5126,
      "count": 174,
      "max": [
        0.878955602645874,
        0,
        1
      ],
      "min": [
        -0.856981098651886,
        0,
        -0.9999788403511047
      ],
      "type": "VEC3"
    },
    {
      "bufferView": 3,
      "byteOffset": 0,
      "componentType": 5126,
      "count": 174,
      "max": [
        0.999786376953125,
        0.7875181436538696,
        0.26330968737602234
      ],
      "min": [
        0.999786376953125,
        0.7875181436538696,
        0.26330968737602234
      ],
      "type": "VEC3"
    }
  ],
  "buffers": [
    {
      "byteLength": 528,
      "uri": "data:application/octet-stream;base64,"
    },
    {
      "byteLength": 2088,
      "uri": "data:application/octet-stream;base64,"
    },
    {
      "byteLength": 2088,
      "uri": "data:application/octet-stream;base64,"
    },
    {
      "byteLength": 2088,
      "uri": "data:application/octet-stream;base64,"
    }
  ],
  "bufferViews": [
    {
      "buffer": 0,
      "byteOffset": 0,
      "byteLength": 528
    },
    {
      "buffer": 1,
      "byteOffset": 0,
      "byteLength": 2088
    },
    {
      "buffer": 2,
      "byteOffset": 0,
      "byteLength": 2088
    },
    {
      "buffer": 3,
      "byteOffset": 0,
      "byteLength": 2088
    }
  ],
  "meshes": [
    {
      "primitives": [
        {
          "mode": 4,
          "indices": 0,
          "attributes": {
            "POSITION": 1,
            "NORMAL": 2,
            "COLOR_0": 3
          }
        }
      ]
    }
  ],
  "nodes": [
    {
      "children": [
        1
      ]
    },
    {
      "mesh": 0
    }
  ],
  "scenes": [
    {
      "nodes": [
        0
      ]
    }
  ],
  "scene": 0
}