{
  "asset": {
    "version": "2.0",
    "generator": "COLLADA2GLTF"
  },
  "accessors": [
    {
      "bufferView": 0,
      "byteOffset": 0,
      "componentType": 5123,
      "count": 1836,
      "min": [
        0
      ],
      "max": [
        777
      ],
      "type": "SCALAR"
    },
    {
      "bufferView": 1,
      "byteOffset": 0,
      "componentType": 5126,
      "count": 778,
      "max": [
        750.4697265625,
        37.5,
        -13.49112319946289
      ],
      "min": [
        -60.111488342285156,
        0,
        -227.64785766601562
      ],
      "type": "VEC3"
    },
    {
      "bufferView": 2,
      "byteOffset": 0,
      "componentType": 5126,
      "count": 778,
      "max": [
        0.9155136942863464,
        1,
        1
      ],
      "min": [
        -0.894390881061554,
        0,
        -0.9999788403511047
      ],
      "type": "VEC3"
    },
    {
      "bufferView": 3,
      "byteOffset": 0,
      "componentType": 5126,
      "count": 778,
      "max": [
        0.999786376953125,
        0.7875181436538696,
        0.7875028848648071
      ],
      "min": [
        0.6036774516105652,
        0.00003051804378628731,
        0
      ],
      "type": "VEC3"
    }
  ],
  "buffers": [
    {
      "byteLength": 3672,
      "uri": "data:application/octet-stream;base64,"
    },
    {
      "byteLength": 9336,
      "uri": "data:application/octet-stream;base64,"
    },
    {
      "byteLength": 9336,
      "uri": "data:application/octet-stream;base64,"
    },
    {
      "byteLength": 9336,
      "uri": "data:application/octet-stream;base64,"
    }
  ],
  "bufferViews": [
    {
      "buffer": 0,
      "byteOffset": 0,
      "byteLength": 3672
    },
    {
      "buffer": 1,
      "byteOffset": 0,
      "byteLength": 9336
    },
    {
      "buffer": 2,
      "byteOffset": 0,
      "byteLength": 9336
    },
    {
      "buffer": 3,
      "byteOffset": 0,
      "byteLength": 9336
    }
  ],
  "meshes": [
    {
      "primitives": [
        {
          "mode": 4,
          "indices": 0,
          "attributes": {
            "POSITION": 1,
            "NORMAL": 2,
            "COLOR_0": 3
          }
        }
      ]
    }
  ],
  "nodes": [
    {
      "children": [
        1
      ]
    },
    {
      "mesh": 0
    }
  ],
  "scenes": [
    {
      "nodes": [
        0
      ]
    }
  ],
  "scene": 0
}