{
  "asset": {
    "version": "2.0",
    "generator": "COLLADA2GLTF"
  },
  "accessors": [
    {
      "bufferView": 0,
      "byteOffset": 0,
      "componentType": 5123,
      "count": 489,
      "min": [
        0
      ],
      "max": [
        202
      ],
      "type": "SCALAR"
    },
    {
      "bufferView": 1,
      "byteOffset": 0,
      "componentType": 5126,
      "count": 203,
      "max": [
        287.3940124511719,
        0.0010000000474974513,
        369.9267883300781
      ],
      "min": [
        -117.22730255126953,
        -1,
        232.2220001220703
      ],
      "type": "VEC3"
    },
    {
      "bufferView": 2,
      "byteOffset": 0,
      "componentType": 5126,
      "count": 203,
      "max": [
        0.4471326768398285,
        1,
        0.6637169122695923
      ],
      "min": [
        -0.4469663202762604,
        0.5996267795562744,
        -0.6634951233863831
      ],
      "type": "VEC3"
    },
    {
      "bufferView": 3,
      "byteOffset": 0,
      "componentType": 5126,
      "count": 203,
      "max": [
        0.7872740030288696,
        1,
        1
      ],
      "min": [
        0,
        0.00003051804378628731,
        0.00004577706567943096
      ],
      "type": "VEC3"
    }
  ],
  "buffers": [
    {
      "byteLength": 978,
      "uri": "data:application/octet-stream;base64,"
    },
    {
      "byteLength": 2436,
      "uri": "data:application/octet-stream;base64,"
    },
    {
      "byteLength": 2436,
      "uri": "data:application/octet-stream;base64,"
    },
    {
      "byteLength": 2436,
      "uri": "data:application/octet-stream;base64,"
    }
  ],
  "bufferViews": [
    {
      "buffer": 0,
      "byteOffset": 0,
      "byteLength": 978
    },
    {
      "buffer": 1,
      "byteOffset": 0,
      "byteLength": 2436
    },
    {
      "buffer": 2,
      "byteOffset": 0,
      "byteLength": 2436
    },
    {
      "buffer": 3,
      "byteOffset": 0,
      "byteLength": 2436
    }
  ],
  "meshes": [
    {
      "primitives": [
        {
          "mode": 4,
          "indices": 0,
          "attributes": {
            "POSITION": 1,
            "NORMAL": 2,
            "COLOR_0": 3
          }
        }
      ]
    }
  ],
  "nodes": [
    {
      "children": [
        1
      ]
    },
    {
      "mesh": 0
    }
  ],
  "scenes": [
    {
      "nodes": [
        0
      ]
    }
  ],
  "scene": 0
}