{
  "asset": {
    "version": "2.0",
    "generator": "COLLADA2GLTF"
  },
  "accessors": [
    {
      "bufferView": 0,
      "byteOffset": 0,
      "componentType": 5123,
      "count": 825,
      "min": [
        0
      ],
      "max": [
        280
      ],
      "type": "SCALAR"
    },
    {
      "bufferView": 1,
      "byteOffset": 0,
      "componentType": 5126,
      "count": 281,
      "max": [
        -1177.39501953125,
        0,
        1186.39111328125
      ],
      "min": [
        -1361.5078125,
        -3,
        1044.7156982421875
      ],
      "type": "VEC3"
    },
    {
      "bufferView": 2,
      "byteOffset": 0,
      "componentType": 5126,
      "count": 281,
      "max": [
        0.8039550185203552,
        1,
        0.8039550185203552
      ],
      "min": [
        -0.8039550185203552,
        -1,
        -0.8039552569389343
      ],
      "type": "VEC3"
    },
    {
      "bufferView": 3,
      "byteOffset": 0,
      "componentType": 5126,
      "count": 281,
      "max": [
        0.21585412323474884,
        0.21585412323474884,
        0.21589989960193634
      ],
      "min": [
        0.21585412323474884,
        0.21585412323474884,
        0.21589989960193634
      ],
      "type": "VEC3"
    }
  ],
  "buffers": [
    {
      "byteLength": 1650,
      "uri": "data:application/octet-stream;base64,"
    },
    {
      "byteLength": 3372,
      "uri": "data:application/octet-stream;base64,"
    },
    {
      "byteLength": 3372,
      "uri": "data:application/octet-stream;base64,"
    },
    {
      "byteLength": 3372,
      "uri": "data:application/octet-stream;base64,"
    }
  ],
  "bufferViews": [
    {
      "buffer": 0,
      "byteOffset": 0,
      "byteLength": 1650
    },
    {
      "buffer": 1,
      "byteOffset": 0,
      "byteLength": 3372
    },
    {
      "buffer": 2,
      "byteOffset": 0,
      "byteLength": 3372
    },
    {
      "buffer": 3,
      "byteOffset": 0,
      "byteLength": 3372
    }
  ],
  "meshes": [
    {
      "primitives": [
        {
          "mode": 4,
          "indices": 0,
          "attributes": {
            "POSITION": 1,
            "NORMAL": 2,
            "COLOR_0": 3
          }
        }
      ]
    }
  ],
  "nodes": [
    {
      "children": [
        1
      ]
    },
    {
      "mesh": 0
    }
  ],
  "scenes": [
    {
      "nodes": [
        0
      ]
    }
  ],
  "scene": 0
}