{
  "asset": {
    "version": "2.0",
    "generator": "COLLADA2GLTF"
  },
  "accessors": [
    {
      "bufferView": 0,
      "byteOffset": 0,
      "componentType": 5123,
      "count": 4956,
      "min": [
        0
      ],
      "max": [
        2018
      ],
      "type": "SCALAR"
    },
    {
      "bufferView": 1,
      "byteOffset": 0,
      "componentType": 5126,
      "count": 2019,
      "max": [
        680.0609741210938,
        7.5,
        2716.30810546875
      ],
      "min": [
        -1313.73095703125,
        0,
        -3832.10400390625
      ],
      "type": "VEC3"
    },
    {
      "bufferView": 2,
      "byteOffset": 0,
      "componentType": 5126,
      "count": 2019,
      "max": [
        1,
        1,
        1
      ],
      "min": [
        -1,
        -1,
        -1
      ],
      "type": "VEC3"
    },
    {
      "bufferView": 3,
      "byteOffset": 0,
      "componentType": 5126,
      "count": 2019,
      "max": [
        0.999786376953125,
        1,
        1
      ],
      "min": [
        0,
        0.00003051804378628731,
        0.00004577706567943096
      ],
      "type": "VEC3"
    }
  ],
  "buffers": [
    {
      "byteLength": 9912,
      "uri": "data:application/octet-stream;base64,"
    },
    {
      "byteLength": 24228,
      "uri": "data:application/octet-stream;base64,"
    },
    {
      "byteLength": 24228,
      "uri": "data:application/octet-stream;base64,"
    },
    {
      "byteLength": 24228,
      "uri": "data:application/octet-stream;base64,"
    }
  ],
  "bufferViews": [
    {
      "buffer": 0,
      "byteOffset": 0,
      "byteLength": 9912
    },
    {
      "buffer": 1,
      "byteOffset": 0,
      "byteLength": 24228
    },
    {
      "buffer": 2,
      "byteOffset": 0,
      "byteLength": 24228
    },
    {
      "buffer": 3,
      "byteOffset": 0,
      "byteLength": 24228
    }
  ],
  "meshes": [
    {
      "primitives": [
        {
          "mode": 4,
          "indices": 0,
          "attributes": {
            "POSITION": 1,
            "NORMAL": 2,
            "COLOR_0": 3
          }
        }
      ]
    }
  ],
  "nodes": [
    {
      "children": [
        1
      ]
    },
    {
      "mesh": 0
    }
  ],
  "scenes": [
    {
      "nodes": [
        0
      ]
    }
  ],
  "scene": 0
}