{
  "asset": {
    "version": "2.0",
    "generator": "COLLADA2GLTF"
  },
  "accessors": [
    {
      "bufferView": 0,
      "byteOffset": 0,
      "componentType": 5123,
      "count": 1290,
      "min": [
        0
      ],
      "max": [
        469
      ],
      "type": "SCALAR"
    },
    {
      "bufferView": 1,
      "byteOffset": 0,
      "componentType": 5126,
      "count": 470,
      "max": [
        412.753662109375,
        0.10000000149011612,
        17.39681053161621
      ],
      "min": [
        342.8705749511719,
        0,
        -67.76920318603516
      ],
      "type": "VEC3"
    },
    {
      "bufferView": 2,
      "byteOffset": 0,
      "componentType": 5126,
      "count": 470,
      "max": [
        0.9894222021102905,
        1,
        0.3097796142101288
      ],
      "min": [
        -0.9894222021102905,
        -1,
        -0.9894222021102905
      ],
      "type": "VEC3"
    },
    {
      "bufferView": 3,
      "byteOffset": 0,
      "componentType": 5126,
      "count": 470,
      "max": [
        0.7872740030288696,
        0.7875028848648071,
        0.7875028848648071
      ],
      "min": [
        0,
        0.07324330508708954,
        0.000015259021893143654
      ],
      "type": "VEC3"
    }
  ],
  "buffers": [
    {
      "byteLength": 2580,
      "uri": "data:application/octet-stream;base64,"
    },
    {
      "byteLength": 5640,
      "uri": "data:application/octet-stream;base64,"
    },
    {
      "byteLength": 5640,
      "uri": "data:application/octet-stream;base64,"
    },
    {
      "byteLength": 5640,
      "uri": "data:application/octet-stream;base64,"
    }
  ],
  "bufferViews": [
    {
      "buffer": 0,
      "byteOffset": 0,
      "byteLength": 2580
    },
    {
      "buffer": 1,
      "byteOffset": 0,
      "byteLength": 5640
    },
    {
      "buffer": 2,
      "byteOffset": 0,
      "byteLength": 5640
    },
    {
      "buffer": 3,
      "byteOffset": 0,
      "byteLength": 5640
    }
  ],
  "meshes": [
    {
      "primitives": [
        {
          "mode": 4,
          "indices": 0,
          "attributes": {
            "POSITION": 1,
            "NORMAL": 2,
            "COLOR_0": 3
          }
        }
      ]
    }
  ],
  "nodes": [
    {
      "children": [
        1
      ]
    },
    {
      "mesh": 0
    }
  ],
  "scenes": [
    {
      "nodes": [
        0
      ]
    }
  ],
  "scene": 0
}