{
  "asset": {
    "version": "2.0",
    "generator": "COLLADA2GLTF"
  },
  "accessors": [
    {
      "bufferView": 0,
      "byteOffset": 0,
      "componentType": 5123,
      "count": 5928,
      "min": [
        0
      ],
      "max": [
        4946
      ],
      "type": "SCALAR"
    },
    {
      "bufferView": 1,
      "byteOffset": 0,
      "componentType": 5126,
      "count": 4947,
      "max": [
        747.573974609375,
        7.5,
        -289.2439880371094
      ],
      "min": [
        415.2019958496094,
        0,
        -523.0089721679688
      ],
      "type": "VEC3"
    },
    {
      "bufferView": 2,
      "byteOffset": 0,
      "componentType": 5126,
      "count": 4947,
      "max": [
        1,
        0,
        1
      ],
      "min": [
        -1,
        0,
        -1
      ],
      "type": "VEC3"
    },
    {
      "bufferView": 3,
      "byteOffset": 0,
      "componentType": 5126,
      "count": 4947,
      "max": [
        0.999786376953125,
        0.7875181436538696,
        0.26330968737602234
      ],
      "min": [
        0.999786376953125,
        0.7875181436538696,
        0.26330968737602234
      ],
      "type": "VEC3"
    }
  ],
  "buffers": [
    {
      "byteLength": 11856,
      "uri": "data:application/octet-stream;base64,"
    },
    {
      "byteLength": 59364,
      "uri": "data:application/octet-stream;base64,"
    },
    {
      "byteLength": 59364,
      "uri": "data:application/octet-stream;base64,"
    },
    {
      "byteLength": 59364,
      "uri": "data:application/octet-stream;base64,"
    }
  ],
  "bufferViews": [
    {
      "buffer": 0,
      "byteOffset": 0,
      "byteLength": 11856
    },
    {
      "buffer": 1,
      "byteOffset": 0,
      "byteLength": 59364
    },
    {
      "buffer": 2,
      "byteOffset": 0,
      "byteLength": 59364
    },
    {
      "buffer": 3,
      "byteOffset": 0,
      "byteLength": 59364
    }
  ],
  "meshes": [
    {
      "primitives": [
        {
          "mode": 4,
          "indices": 0,
          "attributes": {
            "POSITION": 1,
            "NORMAL": 2,
            "COLOR_0": 3
          }
        }
      ]
    }
  ],
  "nodes": [
    {
      "children": [
        1
      ]
    },
    {
      "mesh": 0
    }
  ],
  "scenes": [
    {
      "nodes": [
        0
      ]
    }
  ],
  "scene": 0
}