{
  "asset": {
    "version": "2.0",
    "generator": "COLLADA2GLTF"
  },
  "accessors": [
    {
      "bufferView": 0,
      "byteOffset": 0,
      "componentType": 5123,
      "count": 2685,
      "min": [
        0
      ],
      "max": [
        919
      ],
      "type": "SCALAR"
    },
    {
      "bufferView": 1,
      "byteOffset": 0,
      "componentType": 5126,
      "count": 920,
      "max": [
        -9783.6123046875,
        12,
        -2504.392822265625
      ],
      "min": [
        -10081.5,
        7,
        -2629.444091796875
      ],
      "type": "VEC3"
    },
    {
      "bufferView": 2,
      "byteOffset": 0,
      "componentType": 5126,
      "count": 920,
      "max": [
        0.9424117207527161,
        0.7070929408073425,
        0.9424117207527161
      ],
      "min": [
        -0.9424117207527161,
        -0.7070929408073425,
        -0.9424117207527161
      ],
      "type": "VEC3"
    },
    {
      "bufferView": 3,
      "byteOffset": 0,
      "componentType": 5126,
      "count": 920,
      "max": [
        0.4480048716068268,
        0.4480048716068268,
        0.4480659067630768
      ],
      "min": [
        0,
        0,
        0
      ],
      "type": "VEC3"
    }
  ],
  "buffers": [
    {
      "byteLength": 5370,
      "uri": "data:application/octet-stream;base64,"
    },
    {
      "byteLength": 11040,
      "uri": "data:application/octet-stream;base64,"
    },
    {
      "byteLength": 11040,
      "uri": "data:application/octet-stream;base64,"
    },
    {
      "byteLength": 11040,
      "uri": "data:application/octet-stream;base64,"
    }
  ],
  "bufferViews": [
    {
      "buffer": 0,
      "byteOffset": 0,
      "byteLength": 5370
    },
    {
      "buffer": 1,
      "byteOffset": 0,
      "byteLength": 11040
    },
    {
      "buffer": 2,
      "byteOffset": 0,
      "byteLength": 11040
    },
    {
      "buffer": 3,
      "byteOffset": 0,
      "byteLength": 11040
    }
  ],
  "meshes": [
    {
      "primitives": [
        {
          "mode": 4,
          "indices": 0,
          "attributes": {
            "POSITION": 1,
            "NORMAL": 2,
            "COLOR_0": 3
          }
        }
      ]
    }
  ],
  "nodes": [
    {
      "children": [
        1
      ]
    },
    {
      "mesh": 0
    }
  ],
  "scenes": [
    {
      "nodes": [
        0
      ]
    }
  ],
  "scene": 0
}