{
  "asset": {
    "version": "2.0",
    "generator": "COLLADA2GLTF"
  },
  "accessors": [
    {
      "bufferView": 0,
      "byteOffset": 0,
      "componentType": 5123,
      "count": 4443,
      "min": [
        0
      ],
      "max": [
        1488
      ],
      "type": "SCALAR"
    },
    {
      "bufferView": 1,
      "byteOffset": 0,
      "componentType": 5126,
      "count": 1489,
      "max": [
        1753.3624267578125,
        0.06400000303983688,
        3193.62255859375
      ],
      "min": [
        1069.150146484375,
        0,
        2963.61279296875
      ],
      "type": "VEC3"
    },
    {
      "bufferView": 2,
      "byteOffset": 0,
      "componentType": 5126,
      "count": 1489,
      "max": [
        0.9474396705627441,
        1,
        0.9474396705627441
      ],
      "min": [
        -0.9474396705627441,
        0,
        -0.9474396705627441
      ],
      "type": "VEC3"
    },
    {
      "bufferView": 3,
      "byteOffset": 0,
      "componentType": 5126,
      "count": 1489,
      "max": [
        0.5774929523468018,
        0.5776150226593018,
        0.5776455402374268
      ],
      "min": [
        0.07322804629802704,
        0.03309682011604309,
        0.03311207890510559
      ],
      "type": "VEC3"
    }
  ],
  "buffers": [
    {
      "byteLength": 8886,
      "uri": "data:application/octet-stream;base64,"
    },
    {
      "byteLength": 17868,
      "uri": "data:application/octet-stream;base64,"
    },
    {
      "byteLength": 17868,
      "uri": "data:application/octet-stream;base64,"
    },
    {
      "byteLength": 17868,
      "uri": "data:application/octet-stream;base64,"
    }
  ],
  "bufferViews": [
    {
      "buffer": 0,
      "byteOffset": 0,
      "byteLength": 8886
    },
    {
      "buffer": 1,
      "byteOffset": 0,
      "byteLength": 17868
    },
    {
      "buffer": 2,
      "byteOffset": 0,
      "byteLength": 17868
    },
    {
      "buffer": 3,
      "byteOffset": 0,
      "byteLength": 17868
    }
  ],
  "meshes": [
    {
      "primitives": [
        {
          "mode": 4,
          "indices": 0,
          "attributes": {
            "POSITION": 1,
            "NORMAL": 2,
            "COLOR_0": 3
          }
        }
      ]
    }
  ],
  "nodes": [
    {
      "children": [
        1
      ]
    },
    {
      "mesh": 0
    }
  ],
  "scenes": [
    {
      "nodes": [
        0
      ]
    }
  ],
  "scene": 0
}