{
  "asset": {
    "version": "2.0",
    "generator": "COLLADA2GLTF"
  },
  "accessors": [
    {
      "bufferView": 0,
      "byteOffset": 0,
      "componentType": 5123,
      "count": 4518,
      "min": [
        0
      ],
      "max": [
        1515
      ],
      "type": "SCALAR"
    },
    {
      "bufferView": 1,
      "byteOffset": 0,
      "componentType": 5126,
      "count": 1516,
      "max": [
        2645.343994140625,
        0.06400000303983688,
        3564.787841796875
      ],
      "min": [
        2603.826171875,
        0,
        3545.1328125
      ],
      "type": "VEC3"
    },
    {
      "bufferView": 2,
      "byteOffset": 0,
      "componentType": 5126,
      "count": 1516,
      "max": [
        0.9148479104042053,
        1,
        0.9148479104042053
      ],
      "min": [
        -0.9148479104042053,
        0,
        -0.9148479104042053
      ],
      "type": "VEC3"
    },
    {
      "bufferView": 3,
      "byteOffset": 0,
      "componentType": 5126,
      "count": 1516,
      "max": [
        0.07322804629802704,
        0.03309682011604309,
        0.03311207890510559
      ],
      "min": [
        0.07322804629802704,
        0.03309682011604309,
        0.03311207890510559
      ],
      "type": "VEC3"
    }
  ],
  "buffers": [
    {
      "byteLength": 9036,
      "uri": "data:application/octet-stream;base64,"
    },
    {
      "byteLength": 18192,
      "uri": "data:application/octet-stream;base64,"
    },
    {
      "byteLength": 18192,
      "uri": "data:application/octet-stream;base64,"
    },
    {
      "byteLength": 18192,
      "uri": "data:application/octet-stream;base64,"
    }
  ],
  "bufferViews": [
    {
      "buffer": 0,
      "byteOffset": 0,
      "byteLength": 9036
    },
    {
      "buffer": 1,
      "byteOffset": 0,
      "byteLength": 18192
    },
    {
      "buffer": 2,
      "byteOffset": 0,
      "byteLength": 18192
    },
    {
      "buffer": 3,
      "byteOffset": 0,
      "byteLength": 18192
    }
  ],
  "meshes": [
    {
      "primitives": [
        {
          "mode": 4,
          "indices": 0,
          "attributes": {
            "POSITION": 1,
            "NORMAL": 2,
            "COLOR_0": 3
          }
        }
      ]
    }
  ],
  "nodes": [
    {
      "children": [
        1
      ]
    },
    {
      "mesh": 0
    }
  ],
  "scenes": [
    {
      "nodes": [
        0
      ]
    }
  ],
  "scene": 0
}