{
  "asset": {
    "version": "2.0",
    "generator": "COLLADA2GLTF"
  },
  "accessors": [
    {
      "bufferView": 0,
      "byteOffset": 0,
      "componentType": 5123,
      "count": 1392,
      "min": [
        0
      ],
      "max": [
        1187
      ],
      "type": "SCALAR"
    },
    {
      "bufferView": 1,
      "byteOffset": 0,
      "componentType": 5126,
      "count": 1188,
      "max": [
        259.8739929199219,
        7.5,
        56.58399963378906
      ],
      "min": [
        90.76200103759766,
        0,
        -114.71499633789062
      ],
      "type": "VEC3"
    },
    {
      "bufferView": 2,
      "byteOffset": 0,
      "componentType": 5126,
      "count": 1188,
      "max": [
        0.9999387264251709,
        0,
        0.9999547600746155
      ],
      "min": [
        -0.9999382495880127,
        0,
        -0.9999420642852783
      ],
      "type": "VEC3"
    },
    {
      "bufferView": 3,
      "byteOffset": 0,
      "componentType": 5126,
      "count": 1188,
      "max": [
        0.999786376953125,
        0.7875181436538696,
        0.26330968737602234
      ],
      "min": [
        0.999786376953125,
        0.7875181436538696,
        0.26330968737602234
      ],
      "type": "VEC3"
    }
  ],
  "buffers": [
    {
      "byteLength": 2784,
      "uri": "data:application/octet-stream;base64,"
    },
    {
      "byteLength": 14256,
      "uri": "data:application/octet-stream;base64,"
    },
    {
      "byteLength": 14256,
      "uri": "data:application/octet-stream;base64,"
    },
    {
      "byteLength": 14256,
      "uri": "data:application/octet-stream;base64,"
    }
  ],
  "bufferViews": [
    {
      "buffer": 0,
      "byteOffset": 0,
      "byteLength": 2784
    },
    {
      "buffer": 1,
      "byteOffset": 0,
      "byteLength": 14256
    },
    {
      "buffer": 2,
      "byteOffset": 0,
      "byteLength": 14256
    },
    {
      "buffer": 3,
      "byteOffset": 0,
      "byteLength": 14256
    }
  ],
  "meshes": [
    {
      "primitives": [
        {
          "mode": 4,
          "indices": 0,
          "attributes": {
            "POSITION": 1,
            "NORMAL": 2,
            "COLOR_0": 3
          }
        }
      ]
    }
  ],
  "nodes": [
    {
      "children": [
        1
      ]
    },
    {
      "mesh": 0
    }
  ],
  "scenes": [
    {
      "nodes": [
        0
      ]
    }
  ],
  "scene": 0
}