{
  "asset": {
    "version": "2.0",
    "generator": "COLLADA2GLTF"
  },
  "accessors": [
    {
      "bufferView": 0,
      "byteOffset": 0,
      "componentType": 5123,
      "count": 3768,
      "min": [
        0
      ],
      "max": [
        1323
      ],
      "type": "SCALAR"
    },
    {
      "bufferView": 1,
      "byteOffset": 0,
      "componentType": 5126,
      "count": 1324,
      "max": [
        203.1255340576172,
        7.5,
        -1018.4520263671875
      ],
      "min": [
        -120.77535247802734,
        -3,
        -1527.205322265625
      ],
      "type": "VEC3"
    },
    {
      "bufferView": 2,
      "byteOffset": 0,
      "componentType": 5126,
      "count": 1324,
      "max": [
        0.8015924692153931,
        1,
        0.7965571284294128
      ],
      "min": [
        -0.7965574860572815,
        -1,
        -0.7965571284294128
      ],
      "type": "VEC3"
    },
    {
      "bufferView": 3,
      "byteOffset": 0,
      "componentType": 5126,
      "count": 1324,
      "max": [
        0.999786376953125,
        0.7875181436538696,
        0.7875028848648071
      ],
      "min": [
        0.07322804629802704,
        0.07324330508708954,
        0.07325856387615204
      ],
      "type": "VEC3"
    }
  ],
  "buffers": [
    {
      "byteLength": 7536,
      "uri": "data:application/octet-stream;base64,"
    },
    {
      "byteLength": 15888,
      "uri": "data:application/octet-stream;base64,"
    },
    {
      "byteLength": 15888,
      "uri": "data:application/octet-stream;base64,"
    },
    {
      "byteLength": 15888,
      "uri": "data:application/octet-stream;base64,"
    }
  ],
  "bufferViews": [
    {
      "buffer": 0,
      "byteOffset": 0,
      "byteLength": 7536
    },
    {
      "buffer": 1,
      "byteOffset": 0,
      "byteLength": 15888
    },
    {
      "buffer": 2,
      "byteOffset": 0,
      "byteLength": 15888
    },
    {
      "buffer": 3,
      "byteOffset": 0,
      "byteLength": 15888
    }
  ],
  "meshes": [
    {
      "primitives": [
        {
          "mode": 4,
          "indices": 0,
          "attributes": {
            "POSITION": 1,
            "NORMAL": 2,
            "COLOR_0": 3
          }
        }
      ]
    }
  ],
  "nodes": [
    {
      "children": [
        1
      ]
    },
    {
      "mesh": 0
    }
  ],
  "scenes": [
    {
      "nodes": [
        0
      ]
    }
  ],
  "scene": 0
}