{
  "asset": {
    "version": "2.0",
    "generator": "COLLADA2GLTF"
  },
  "accessors": [
    {
      "bufferView": 0,
      "byteOffset": 0,
      "componentType": 5123,
      "count": 5511,
      "min": [
        0
      ],
      "max": [
        1912
      ],
      "type": "SCALAR"
    },
    {
      "bufferView": 1,
      "byteOffset": 0,
      "componentType": 5126,
      "count": 1913,
      "max": [
        -8508.5869140625,
        24.524999618530273,
        -2032.3369140625
      ],
      "min": [
        -9721.05078125,
        12.164999961853027,
        -2494.35595703125
      ],
      "type": "VEC3"
    },
    {
      "bufferView": 2,
      "byteOffset": 0,
      "componentType": 5126,
      "count": 1913,
      "max": [
        0.9449870586395264,
        0.7070876955986023,
        0.9449870586395264
      ],
      "min": [
        -0.9449870586395264,
        -0.7070876955986023,
        -0.9449870586395264
      ],
      "type": "VEC3"
    },
    {
      "bufferView": 3,
      "byteOffset": 0,
      "componentType": 5126,
      "count": 1913,
      "max": [
        0.4480048716068268,
        0.4480048716068268,
        0.4480659067630768
      ],
      "min": [
        0,
        0,
        0
      ],
      "type": "VEC3"
    }
  ],
  "buffers": [
    {
      "byteLength": 11022,
      "uri": "data:application/octet-stream;base64,"
    },
    {
      "byteLength": 22956,
      "uri": "data:application/octet-stream;base64,"
    },
    {
      "byteLength": 22956,
      "uri": "data:application/octet-stream;base64,"
    },
    {
      "byteLength": 22956,
      "uri": "data:application/octet-stream;base64,"
    }
  ],
  "bufferViews": [
    {
      "buffer": 0,
      "byteOffset": 0,
      "byteLength": 11022
    },
    {
      "buffer": 1,
      "byteOffset": 0,
      "byteLength": 22956
    },
    {
      "buffer": 2,
      "byteOffset": 0,
      "byteLength": 22956
    },
    {
      "buffer": 3,
      "byteOffset": 0,
      "byteLength": 22956
    }
  ],
  "meshes": [
    {
      "primitives": [
        {
          "mode": 4,
          "indices": 0,
          "attributes": {
            "POSITION": 1,
            "NORMAL": 2,
            "COLOR_0": 3
          }
        }
      ]
    }
  ],
  "nodes": [
    {
      "children": [
        1
      ]
    },
    {
      "mesh": 0
    }
  ],
  "scenes": [
    {
      "nodes": [
        0
      ]
    }
  ],
  "scene": 0
}