{
  "asset": {
    "version": "2.0",
    "generator": "COLLADA2GLTF"
  },
  "accessors": [
    {
      "bufferView": 0,
      "byteOffset": 0,
      "componentType": 5123,
      "count": 2400,
      "min": [
        0
      ],
      "max": [
        1153
      ],
      "type": "SCALAR"
    },
    {
      "bufferView": 1,
      "byteOffset": 0,
      "componentType": 5126,
      "count": 1154,
      "max": [
        1217.9129638671875,
        7.5,
        -712.7830200195312
      ],
      "min": [
        1051.176025390625,
        0,
        -1038.4649658203125
      ],
      "type": "VEC3"
    },
    {
      "bufferView": 2,
      "byteOffset": 0,
      "componentType": 5126,
      "count": 1154,
      "max": [
        0.9803391098976135,
        1,
        0.9700080156326294
      ],
      "min": [
        -0.9111717343330383,
        0,
        -0.9583883881568909
      ],
      "type": "VEC3"
    },
    {
      "bufferView": 3,
      "byteOffset": 0,
      "componentType": 5126,
      "count": 1154,
      "max": [
        0.999786376953125,
        0.7875181436538696,
        0.26330968737602234
      ],
      "min": [
        0.6036774516105652,
        0.00003051804378628731,
        0
      ],
      "type": "VEC3"
    }
  ],
  "buffers": [
    {
      "byteLength": 4800,
      "uri": "data:application/octet-stream;base64,"
    },
    {
      "byteLength": 13848,
      "uri": "data:application/octet-stream;base64,"
    },
    {
      "byteLength": 13848,
      "uri": "data:application/octet-stream;base64,"
    },
    {
      "byteLength": 13848,
      "uri": "data:application/octet-stream;base64,"
    }
  ],
  "bufferViews": [
    {
      "buffer": 0,
      "byteOffset": 0,
      "byteLength": 4800
    },
    {
      "buffer": 1,
      "byteOffset": 0,
      "byteLength": 13848
    },
    {
      "buffer": 2,
      "byteOffset": 0,
      "byteLength": 13848
    },
    {
      "buffer": 3,
      "byteOffset": 0,
      "byteLength": 13848
    }
  ],
  "meshes": [
    {
      "primitives": [
        {
          "mode": 4,
          "indices": 0,
          "attributes": {
            "POSITION": 1,
            "NORMAL": 2,
            "COLOR_0": 3
          }
        }
      ]
    }
  ],
  "nodes": [
    {
      "children": [
        1
      ]
    },
    {
      "mesh": 0
    }
  ],
  "scenes": [
    {
      "nodes": [
        0
      ]
    }
  ],
  "scene": 0
}