{
  "asset": {
    "version": "2.0",
    "generator": "COLLADA2GLTF"
  },
  "accessors": [
    {
      "bufferView": 0,
      "byteOffset": 0,
      "componentType": 5123,
      "count": 3570,
      "min": [
        0
      ],
      "max": [
        1238
      ],
      "type": "SCALAR"
    },
    {
      "bufferView": 1,
      "byteOffset": 0,
      "componentType": 5126,
      "count": 1239,
      "max": [
        -2256.509521484375,
        17.165000915527344,
        3944.5771484375
      ],
      "min": [
        -2364.953125,
        12,
        3595.586181640625
      ],
      "type": "VEC3"
    },
    {
      "bufferView": 2,
      "byteOffset": 0,
      "componentType": 5126,
      "count": 1239,
      "max": [
        0.9954303503036499,
        0.7071011066436768,
        0.9954303503036499
      ],
      "min": [
        -0.9954303503036499,
        -0.7071011066436768,
        -0.9954303503036499
      ],
      "type": "VEC3"
    },
    {
      "bufferView": 3,
      "byteOffset": 0,
      "componentType": 5126,
      "count": 1239,
      "max": [
        0.4480048716068268,
        0.4480048716068268,
        0.4480659067630768
      ],
      "min": [
        0,
        0,
        0
      ],
      "type": "VEC3"
    }
  ],
  "buffers": [
    {
      "byteLength": 7140,
      "uri": "data:application/octet-stream;base64,"
    },
    {
      "byteLength": 14868,
      "uri": "data:application/octet-stream;base64,"
    },
    {
      "byteLength": 14868,
      "uri": "data:application/octet-stream;base64,"
    },
    {
      "byteLength": 14868,
      "uri": "data:application/octet-stream;base64,"
    }
  ],
  "bufferViews": [
    {
      "buffer": 0,
      "byteOffset": 0,
      "byteLength": 7140
    },
    {
      "buffer": 1,
      "byteOffset": 0,
      "byteLength": 14868
    },
    {
      "buffer": 2,
      "byteOffset": 0,
      "byteLength": 14868
    },
    {
      "buffer": 3,
      "byteOffset": 0,
      "byteLength": 14868
    }
  ],
  "meshes": [
    {
      "primitives": [
        {
          "mode": 4,
          "indices": 0,
          "attributes": {
            "POSITION": 1,
            "NORMAL": 2,
            "COLOR_0": 3
          }
        }
      ]
    }
  ],
  "nodes": [
    {
      "children": [
        1
      ]
    },
    {
      "mesh": 0
    }
  ],
  "scenes": [
    {
      "nodes": [
        0
      ]
    }
  ],
  "scene": 0
}