{
  "asset": {
    "version": "2.0",
    "generator": "COLLADA2GLTF"
  },
  "accessors": [
    {
      "bufferView": 0,
      "byteOffset": 0,
      "componentType": 5123,
      "count": 126,
      "min": [
        0
      ],
      "max": [
        61
      ],
      "type": "SCALAR"
    },
    {
      "bufferView": 1,
      "byteOffset": 0,
      "componentType": 5126,
      "count": 62,
      "max": [
        891.7659912109375,
        7.5,
        477.4309997558594
      ],
      "min": [
        835.6790771484375,
        0,
        254.52088928222656
      ],
      "type": "VEC3"
    },
    {
      "bufferView": 2,
      "byteOffset": 0,
      "componentType": 5126,
      "count": 62,
      "max": [
        0.9302477836608887,
        1,
        1
      ],
      "min": [
        -0.9302033185958862,
        0,
        -0.874502420425415
      ],
      "type": "VEC3"
    },
    {
      "bufferView": 3,
      "byteOffset": 0,
      "componentType": 5126,
      "count": 62,
      "max": [
        0.999786376953125,
        0.7875181436538696,
        0.26330968737602234
      ],
      "min": [
        0.6036774516105652,
        0.00003051804378628731,
        0
      ],
      "type": "VEC3"
    }
  ],
  "buffers": [
    {
      "byteLength": 252,
      "uri": "data:application/octet-stream;base64,"
    },
    {
      "byteLength": 744,
      "uri": "data:application/octet-stream;base64,"
    },
    {
      "byteLength": 744,
      "uri": "data:application/octet-stream;base64,"
    },
    {
      "byteLength": 744,
      "uri": "data:application/octet-stream;base64,"
    }
  ],
  "bufferViews": [
    {
      "buffer": 0,
      "byteOffset": 0,
      "byteLength": 252
    },
    {
      "buffer": 1,
      "byteOffset": 0,
      "byteLength": 744
    },
    {
      "buffer": 2,
      "byteOffset": 0,
      "byteLength": 744
    },
    {
      "buffer": 3,
      "byteOffset": 0,
      "byteLength": 744
    }
  ],
  "meshes": [
    {
      "primitives": [
        {
          "mode": 4,
          "indices": 0,
          "attributes": {
            "POSITION": 1,
            "NORMAL": 2,
            "COLOR_0": 3
          }
        }
      ]
    }
  ],
  "nodes": [
    {
      "children": [
        1
      ]
    },
    {
      "mesh": 0
    }
  ],
  "scenes": [
    {
      "nodes": [
        0
      ]
    }
  ],
  "scene": 0
}