{
  "asset": {
    "version": "2.0",
    "generator": "COLLADA2GLTF"
  },
  "accessors": [
    {
      "bufferView": 0,
      "byteOffset": 0,
      "componentType": 5123,
      "count": 1869,
      "min": [
        0
      ],
      "max": [
        790
      ],
      "type": "SCALAR"
    },
    {
      "bufferView": 1,
      "byteOffset": 0,
      "componentType": 5126,
      "count": 791,
      "max": [
        1291.6435546875,
        0,
        -360
      ],
      "min": [
        990,
        0,
        -660
      ],
      "type": "VEC3"
    },
    {
      "bufferView": 2,
      "byteOffset": 0,
      "componentType": 5126,
      "count": 791,
      "max": [
        0.825203001499176,
        1,
        0.8252214789390564
      ],
      "min": [
        -0.8247554302215576,
        0,
        -0.8249865770339966
      ],
      "type": "VEC3"
    },
    {
      "bufferView": 3,
      "byteOffset": 0,
      "componentType": 5126,
      "count": 791,
      "max": [
        0.999786376953125,
        1,
        0.26330968737602234
      ],
      "min": [
        0.000015259021893143654,
        0.07324330508708954,
        0.00004577706567943096
      ],
      "type": "VEC3"
    }
  ],
  "buffers": [
    {
      "byteLength": 3738,
      "uri": "data:application/octet-stream;base64,"
    },
    {
      "byteLength": 9492,
      "uri": "data:application/octet-stream;base64,"
    },
    {
      "byteLength": 9492,
      "uri": "data:application/octet-stream;base64,"
    },
    {
      "byteLength": 9492,
      "uri": "data:application/octet-stream;base64,"
    }
  ],
  "bufferViews": [
    {
      "buffer": 0,
      "byteOffset": 0,
      "byteLength": 3738
    },
    {
      "buffer": 1,
      "byteOffset": 0,
      "byteLength": 9492
    },
    {
      "buffer": 2,
      "byteOffset": 0,
      "byteLength": 9492
    },
    {
      "buffer": 3,
      "byteOffset": 0,
      "byteLength": 9492
    }
  ],
  "meshes": [
    {
      "primitives": [
        {
          "mode": 4,
          "indices": 0,
          "attributes": {
            "POSITION": 1,
            "NORMAL": 2,
            "COLOR_0": 3
          }
        }
      ]
    }
  ],
  "nodes": [
    {
      "children": [
        1
      ]
    },
    {
      "mesh": 0
    }
  ],
  "scenes": [
    {
      "nodes": [
        0
      ]
    }
  ],
  "scene": 0
}