{
  "asset": {
    "version": "2.0",
    "generator": "COLLADA2GLTF"
  },
  "accessors": [
    {
      "bufferView": 0,
      "byteOffset": 0,
      "componentType": 5123,
      "count": 1008,
      "min": [
        0
      ],
      "max": [
        369
      ],
      "type": "SCALAR"
    },
    {
      "bufferView": 1,
      "byteOffset": 0,
      "componentType": 5126,
      "count": 370,
      "max": [
        3253.333984375,
        0,
        -1804.91650390625
      ],
      "min": [
        3041.237548828125,
        -3,
        -2144.2080078125
      ],
      "type": "VEC3"
    },
    {
      "bufferView": 2,
      "byteOffset": 0,
      "componentType": 5126,
      "count": 370,
      "max": [
        0.8271534442901611,
        1,
        0.8271534442901611
      ],
      "min": [
        -0.8271534442901611,
        0,
        -0.8271534442901611
      ],
      "type": "VEC3"
    },
    {
      "bufferView": 3,
      "byteOffset": 0,
      "componentType": 5126,
      "count": 370,
      "max": [
        0.21585412323474884,
        0.21585412323474884,
        0.21589989960193634
      ],
      "min": [
        0.21585412323474884,
        0.21585412323474884,
        0.21589989960193634
      ],
      "type": "VEC3"
    }
  ],
  "buffers": [
    {
      "byteLength": 2016,
      "uri": "data:application/octet-stream;base64,"
    },
    {
      "byteLength": 4440,
      "uri": "data:application/octet-stream;base64,"
    },
    {
      "byteLength": 4440,
      "uri": "data:application/octet-stream;base64,"
    },
    {
      "byteLength": 4440,
      "uri": "data:application/octet-stream;base64,"
    }
  ],
  "bufferViews": [
    {
      "buffer": 0,
      "byteOffset": 0,
      "byteLength": 2016
    },
    {
      "buffer": 1,
      "byteOffset": 0,
      "byteLength": 4440
    },
    {
      "buffer": 2,
      "byteOffset": 0,
      "byteLength": 4440
    },
    {
      "buffer": 3,
      "byteOffset": 0,
      "byteLength": 4440
    }
  ],
  "meshes": [
    {
      "primitives": [
        {
          "mode": 4,
          "indices": 0,
          "attributes": {
            "POSITION": 1,
            "NORMAL": 2,
            "COLOR_0": 3
          }
        }
      ]
    }
  ],
  "nodes": [
    {
      "children": [
        1
      ]
    },
    {
      "mesh": 0
    }
  ],
  "scenes": [
    {
      "nodes": [
        0
      ]
    }
  ],
  "scene": 0
}