{
  "asset": {
    "version": "2.0",
    "generator": "COLLADA2GLTF"
  },
  "accessors": [
    {
      "bufferView": 0,
      "byteOffset": 0,
      "componentType": 5123,
      "count": 4503,
      "min": [
        0
      ],
      "max": [
        1746
      ],
      "type": "SCALAR"
    },
    {
      "bufferView": 1,
      "byteOffset": 0,
      "componentType": 5126,
      "count": 1747,
      "max": [
        752.4850463867188,
        3,
        720
      ],
      "min": [
        390,
        0,
        160.45484924316406
      ],
      "type": "VEC3"
    },
    {
      "bufferView": 2,
      "byteOffset": 0,
      "componentType": 5126,
      "count": 1747,
      "max": [
        1,
        1,
        1
      ],
      "min": [
        -1,
        -1,
        -1
      ],
      "type": "VEC3"
    },
    {
      "bufferView": 3,
      "byteOffset": 0,
      "componentType": 5126,
      "count": 1747,
      "max": [
        0.9549705982208252,
        1,
        0.7875028848648071
      ],
      "min": [
        0.000015259021893143654,
        0.07324330508708954,
        0.00004577706567943096
      ],
      "type": "VEC3"
    }
  ],
  "buffers": [
    {
      "byteLength": 9006,
      "uri": "data:application/octet-stream;base64,"
    },
    {
      "byteLength": 20964,
      "uri": "data:application/octet-stream;base64,"
    },
    {
      "byteLength": 20964,
      "uri": "data:application/octet-stream;base64,"
    },
    {
      "byteLength": 20964,
      "uri": "data:application/octet-stream;base64,"
    }
  ],
  "bufferViews": [
    {
      "buffer": 0,
      "byteOffset": 0,
      "byteLength": 9006
    },
    {
      "buffer": 1,
      "byteOffset": 0,
      "byteLength": 20964
    },
    {
      "buffer": 2,
      "byteOffset": 0,
      "byteLength": 20964
    },
    {
      "buffer": 3,
      "byteOffset": 0,
      "byteLength": 20964
    }
  ],
  "meshes": [
    {
      "primitives": [
        {
          "mode": 4,
          "indices": 0,
          "attributes": {
            "POSITION": 1,
            "NORMAL": 2,
            "COLOR_0": 3
          }
        }
      ]
    }
  ],
  "nodes": [
    {
      "children": [
        1
      ]
    },
    {
      "mesh": 0
    }
  ],
  "scenes": [
    {
      "nodes": [
        0
      ]
    }
  ],
  "scene": 0
}