{
  "asset": {
    "version": "2.0",
    "generator": "COLLADA2GLTF"
  },
  "accessors": [
    {
      "bufferView": 0,
      "byteOffset": 0,
      "componentType": 5123,
      "count": 450,
      "min": [
        0
      ],
      "max": [
        190
      ],
      "type": "SCALAR"
    },
    {
      "bufferView": 1,
      "byteOffset": 0,
      "componentType": 5126,
      "count": 191,
      "max": [
        777.6567993164062,
        0,
        2925.60791015625
      ],
      "min": [
        249.63699340820312,
        0,
        1547.078857421875
      ],
      "type": "VEC3"
    },
    {
      "bufferView": 2,
      "byteOffset": 0,
      "componentType": 5126,
      "count": 191,
      "max": [
        0,
        1,
        0
      ],
      "min": [
        0,
        1,
        0
      ],
      "type": "VEC3"
    },
    {
      "bufferView": 3,
      "byteOffset": 0,
      "componentType": 5126,
      "count": 191,
      "max": [
        0.07322804629802704,
        0.07324330508708954,
        1
      ],
      "min": [
        0,
        0.00003051804378628731,
        0.07325856387615204
      ],
      "type": "VEC3"
    }
  ],
  "buffers": [
    {
      "byteLength": 900,
      "uri": "data:application/octet-stream;base64,"
    },
    {
      "byteLength": 2292,
      "uri": "data:application/octet-stream;base64,"
    },
    {
      "byteLength": 2292,
      "uri": "data:application/octet-stream;base64,"
    },
    {
      "byteLength": 2292,
      "uri": "data:application/octet-stream;base64,"
    }
  ],
  "bufferViews": [
    {
      "buffer": 0,
      "byteOffset": 0,
      "byteLength": 900
    },
    {
      "buffer": 1,
      "byteOffset": 0,
      "byteLength": 2292
    },
    {
      "buffer": 2,
      "byteOffset": 0,
      "byteLength": 2292
    },
    {
      "buffer": 3,
      "byteOffset": 0,
      "byteLength": 2292
    }
  ],
  "meshes": [
    {
      "primitives": [
        {
          "mode": 4,
          "indices": 0,
          "attributes": {
            "POSITION": 1,
            "NORMAL": 2,
            "COLOR_0": 3
          }
        }
      ]
    }
  ],
  "nodes": [
    {
      "children": [
        1
      ]
    },
    {
      "mesh": 0
    }
  ],
  "scenes": [
    {
      "nodes": [
        0
      ]
    }
  ],
  "scene": 0
}