{
  "asset": {
    "version": "2.0",
    "generator": "COLLADA2GLTF"
  },
  "accessors": [
    {
      "bufferView": 0,
      "byteOffset": 0,
      "componentType": 5123,
      "count": 2160,
      "min": [
        0
      ],
      "max": [
        780
      ],
      "type": "SCALAR"
    },
    {
      "bufferView": 1,
      "byteOffset": 0,
      "componentType": 5126,
      "count": 781,
      "max": [
        1465.9349365234375,
        0.14777499437332153,
        3097.47412109375
      ],
      "min": [
        1069.1573486328125,
        0,
        2962.50927734375
      ],
      "type": "VEC3"
    },
    {
      "bufferView": 2,
      "byteOffset": 0,
      "componentType": 5126,
      "count": 781,
      "max": [
        0.9474396705627441,
        1,
        0.9474396705627441
      ],
      "min": [
        -0.9474396705627441,
        -0.9486833214759827,
        -0.9474396705627441
      ],
      "type": "VEC3"
    },
    {
      "bufferView": 3,
      "byteOffset": 0,
      "componentType": 5126,
      "count": 781,
      "max": [
        0.5774929523468018,
        0.5776150226593018,
        0.5776455402374268
      ],
      "min": [
        0.07322804629802704,
        0.03309682011604309,
        0.03311207890510559
      ],
      "type": "VEC3"
    }
  ],
  "buffers": [
    {
      "byteLength": 4320,
      "uri": "data:application/octet-stream;base64,"
    },
    {
      "byteLength": 9372,
      "uri": "data:application/octet-stream;base64,"
    },
    {
      "byteLength": 9372,
      "uri": "data:application/octet-stream;base64,"
    },
    {
      "byteLength": 9372,
      "uri": "data:application/octet-stream;base64,"
    }
  ],
  "bufferViews": [
    {
      "buffer": 0,
      "byteOffset": 0,
      "byteLength": 4320
    },
    {
      "buffer": 1,
      "byteOffset": 0,
      "byteLength": 9372
    },
    {
      "buffer": 2,
      "byteOffset": 0,
      "byteLength": 9372
    },
    {
      "buffer": 3,
      "byteOffset": 0,
      "byteLength": 9372
    }
  ],
  "meshes": [
    {
      "primitives": [
        {
          "mode": 4,
          "indices": 0,
          "attributes": {
            "POSITION": 1,
            "NORMAL": 2,
            "COLOR_0": 3
          }
        }
      ]
    }
  ],
  "nodes": [
    {
      "children": [
        1
      ]
    },
    {
      "mesh": 0
    }
  ],
  "scenes": [
    {
      "nodes": [
        0
      ]
    }
  ],
  "scene": 0
}