{
  "asset": {
    "version": "2.0",
    "generator": "COLLADA2GLTF"
  },
  "accessors": [
    {
      "bufferView": 0,
      "byteOffset": 0,
      "componentType": 5123,
      "count": 633,
      "min": [
        0
      ],
      "max": [
        293
      ],
      "type": "SCALAR"
    },
    {
      "bufferView": 1,
      "byteOffset": 0,
      "componentType": 5126,
      "count": 294,
      "max": [
        -54.15708541870117,
        10.484999656677246,
        -1402.173095703125
      ],
      "min": [
        -179.2767791748047,
        8.539999961853027,
        -1474.09765625
      ],
      "type": "VEC3"
    },
    {
      "bufferView": 2,
      "byteOffset": 0,
      "componentType": 5126,
      "count": 294,
      "max": [
        0.34146082401275635,
        0.706902265548706,
        0.6546480655670166
      ],
      "min": [
        -0.34146082401275635,
        -0.7065390348434448,
        -0.6609438061714172
      ],
      "type": "VEC3"
    },
    {
      "bufferView": 3,
      "byteOffset": 0,
      "componentType": 5126,
      "count": 294,
      "max": [
        0,
        0,
        0
      ],
      "min": [
        0,
        0,
        0
      ],
      "type": "VEC3"
    }
  ],
  "buffers": [
    {
      "byteLength": 1266,
      "uri": "data:application/octet-stream;base64,"
    },
    {
      "byteLength": 3528,
      "uri": "data:application/octet-stream;base64,"
    },
    {
      "byteLength": 3528,
      "uri": "data:application/octet-stream;base64,"
    },
    {
      "byteLength": 3528,
      "uri": "data:application/octet-stream;base64,"
    }
  ],
  "bufferViews": [
    {
      "buffer": 0,
      "byteOffset": 0,
      "byteLength": 1266
    },
    {
      "buffer": 1,
      "byteOffset": 0,
      "byteLength": 3528
    },
    {
      "buffer": 2,
      "byteOffset": 0,
      "byteLength": 3528
    },
    {
      "buffer": 3,
      "byteOffset": 0,
      "byteLength": 3528
    }
  ],
  "meshes": [
    {
      "primitives": [
        {
          "mode": 4,
          "indices": 0,
          "attributes": {
            "POSITION": 1,
            "NORMAL": 2,
            "COLOR_0": 3
          }
        }
      ]
    }
  ],
  "nodes": [
    {
      "children": [
        1
      ]
    },
    {
      "mesh": 0
    }
  ],
  "scenes": [
    {
      "nodes": [
        0
      ]
    }
  ],
  "scene": 0
}