{
  "asset": {
    "version": "2.0",
    "generator": "COLLADA2GLTF"
  },
  "accessors": [
    {
      "bufferView": 0,
      "byteOffset": 0,
      "componentType": 5123,
      "count": 3342,
      "min": [
        0
      ],
      "max": [
        1381
      ],
      "type": "SCALAR"
    },
    {
      "bufferView": 1,
      "byteOffset": 0,
      "componentType": 5126,
      "count": 1382,
      "max": [
        1797.7080078125,
        7.5,
        1019.1854858398438
      ],
      "min": [
        1530,
        0,
        480
      ],
      "type": "VEC3"
    },
    {
      "bufferView": 2,
      "byteOffset": 0,
      "componentType": 5126,
      "count": 1382,
      "max": [
        0.9896309971809387,
        1,
        0.9868730902671814
      ],
      "min": [
        -0.9868691563606262,
        0,
        -0.9872762560844421
      ],
      "type": "VEC3"
    },
    {
      "bufferView": 3,
      "byteOffset": 0,
      "componentType": 5126,
      "count": 1382,
      "max": [
        0.999847412109375,
        1,
        1
      ],
      "min": [
        0,
        0.00003051804378628731,
        0
      ],
      "type": "VEC3"
    }
  ],
  "buffers": [
    {
      "byteLength": 6684,
      "uri": "data:application/octet-stream;base64,"
    },
    {
      "byteLength": 16584,
      "uri": "data:application/octet-stream;base64,"
    },
    {
      "byteLength": 16584,
      "uri": "data:application/octet-stream;base64,"
    },
    {
      "byteLength": 16584,
      "uri": "data:application/octet-stream;base64,"
    }
  ],
  "bufferViews": [
    {
      "buffer": 0,
      "byteOffset": 0,
      "byteLength": 6684
    },
    {
      "buffer": 1,
      "byteOffset": 0,
      "byteLength": 16584
    },
    {
      "buffer": 2,
      "byteOffset": 0,
      "byteLength": 16584
    },
    {
      "buffer": 3,
      "byteOffset": 0,
      "byteLength": 16584
    }
  ],
  "meshes": [
    {
      "primitives": [
        {
          "mode": 4,
          "indices": 0,
          "attributes": {
            "POSITION": 1,
            "NORMAL": 2,
            "COLOR_0": 3
          }
        }
      ]
    }
  ],
  "nodes": [
    {
      "children": [
        1
      ]
    },
    {
      "mesh": 0
    }
  ],
  "scenes": [
    {
      "nodes": [
        0
      ]
    }
  ],
  "scene": 0
}