{
  "asset": {
    "version": "2.0",
    "generator": "COLLADA2GLTF"
  },
  "accessors": [
    {
      "bufferView": 0,
      "byteOffset": 0,
      "componentType": 5123,
      "count": 318,
      "min": [
        0
      ],
      "max": [
        161
      ],
      "type": "SCALAR"
    },
    {
      "bufferView": 1,
      "byteOffset": 0,
      "componentType": 5126,
      "count": 162,
      "max": [
        -3076.903076171875,
        0,
        1312.4384765625
      ],
      "min": [
        -3325.266357421875,
        -0.20000000298023224,
        1116.928955078125
      ],
      "type": "VEC3"
    },
    {
      "bufferView": 2,
      "byteOffset": 0,
      "componentType": 5126,
      "count": 162,
      "max": [
        0.8521347045898438,
        1,
        0.8546193838119507
      ],
      "min": [
        -0.5233227014541626,
        -1,
        -0.8546193838119507
      ],
      "type": "VEC3"
    },
    {
      "bufferView": 3,
      "byteOffset": 0,
      "componentType": 5126,
      "count": 162,
      "max": [
        0.21585412323474884,
        1,
        0.21589989960193634
      ],
      "min": [
        0.000015259021893143654,
        0.07324330508708954,
        0.00004577706567943096
      ],
      "type": "VEC3"
    }
  ],
  "buffers": [
    {
      "byteLength": 636,
      "uri": "data:application/octet-stream;base64,"
    },
    {
      "byteLength": 1944,
      "uri": "data:application/octet-stream;base64,"
    },
    {
      "byteLength": 1944,
      "uri": "data:application/octet-stream;base64,"
    },
    {
      "byteLength": 1944,
      "uri": "data:application/octet-stream;base64,"
    }
  ],
  "bufferViews": [
    {
      "buffer": 0,
      "byteOffset": 0,
      "byteLength": 636
    },
    {
      "buffer": 1,
      "byteOffset": 0,
      "byteLength": 1944
    },
    {
      "buffer": 2,
      "byteOffset": 0,
      "byteLength": 1944
    },
    {
      "buffer": 3,
      "byteOffset": 0,
      "byteLength": 1944
    }
  ],
  "meshes": [
    {
      "primitives": [
        {
          "mode": 4,
          "indices": 0,
          "attributes": {
            "POSITION": 1,
            "NORMAL": 2,
            "COLOR_0": 3
          }
        }
      ]
    }
  ],
  "nodes": [
    {
      "children": [
        1
      ]
    },
    {
      "mesh": 0
    }
  ],
  "scenes": [
    {
      "nodes": [
        0
      ]
    }
  ],
  "scene": 0
}