{
  "asset": {
    "version": "2.0",
    "generator": "COLLADA2GLTF"
  },
  "accessors": [
    {
      "bufferView": 0,
      "byteOffset": 0,
      "componentType": 5123,
      "count": 1149,
      "min": [
        0
      ],
      "max": [
        504
      ],
      "type": "SCALAR"
    },
    {
      "bufferView": 1,
      "byteOffset": 0,
      "componentType": 5126,
      "count": 505,
      "max": [
        0,
        0.0010000000474974513,
        -375.8691711425781
      ],
      "min": [
        -81.20010375976562,
        -0.20000000298023224,
        -510
      ],
      "type": "VEC3"
    },
    {
      "bufferView": 2,
      "byteOffset": 0,
      "componentType": 5126,
      "count": 505,
      "max": [
        0.8791945576667786,
        1,
        0.8595172166824341
      ],
      "min": [
        -0.8748856782913208,
        -1,
        -0.887342095375061
      ],
      "type": "VEC3"
    },
    {
      "bufferView": 3,
      "byteOffset": 0,
      "componentType": 5126,
      "count": 505,
      "max": [
        0.999786376953125,
        1,
        0.7875028848648071
      ],
      "min": [
        0.000015259021893143654,
        0.07324330508708954,
        0.00004577706567943096
      ],
      "type": "VEC3"
    }
  ],
  "buffers": [
    {
      "byteLength": 2298,
      "uri": "data:application/octet-stream;base64,"
    },
    {
      "byteLength": 6060,
      "uri": "data:application/octet-stream;base64,"
    },
    {
      "byteLength": 6060,
      "uri": "data:application/octet-stream;base64,"
    },
    {
      "byteLength": 6060,
      "uri": "data:application/octet-stream;base64,"
    }
  ],
  "bufferViews": [
    {
      "buffer": 0,
      "byteOffset": 0,
      "byteLength": 2298
    },
    {
      "buffer": 1,
      "byteOffset": 0,
      "byteLength": 6060
    },
    {
      "buffer": 2,
      "byteOffset": 0,
      "byteLength": 6060
    },
    {
      "buffer": 3,
      "byteOffset": 0,
      "byteLength": 6060
    }
  ],
  "meshes": [
    {
      "primitives": [
        {
          "mode": 4,
          "indices": 0,
          "attributes": {
            "POSITION": 1,
            "NORMAL": 2,
            "COLOR_0": 3
          }
        }
      ]
    }
  ],
  "nodes": [
    {
      "children": [
        1
      ]
    },
    {
      "mesh": 0
    }
  ],
  "scenes": [
    {
      "nodes": [
        0
      ]
    }
  ],
  "scene": 0
}