{
  "asset": {
    "version": "2.0",
    "generator": "COLLADA2GLTF"
  },
  "accessors": [
    {
      "bufferView": 0,
      "byteOffset": 0,
      "componentType": 5123,
      "count": 3729,
      "min": [
        0
      ],
      "max": [
        1261
      ],
      "type": "SCALAR"
    },
    {
      "bufferView": 1,
      "byteOffset": 0,
      "componentType": 5126,
      "count": 1262,
      "max": [
        -2876.743896484375,
        0.06400000303983688,
        1385.94677734375
      ],
      "min": [
        -3095.916259765625,
        0,
        1240.7410888671875
      ],
      "type": "VEC3"
    },
    {
      "bufferView": 2,
      "byteOffset": 0,
      "componentType": 5126,
      "count": 1262,
      "max": [
        0.8316106200218201,
        1,
        0.8316106200218201
      ],
      "min": [
        -0.8316106200218201,
        0,
        -0.8316106200218201
      ],
      "type": "VEC3"
    },
    {
      "bufferView": 3,
      "byteOffset": 0,
      "componentType": 5126,
      "count": 1262,
      "max": [
        0.5774929523468018,
        0.5776150226593018,
        0.5776455402374268
      ],
      "min": [
        0.07322804629802704,
        0.03309682011604309,
        0.03311207890510559
      ],
      "type": "VEC3"
    }
  ],
  "buffers": [
    {
      "byteLength": 7458,
      "uri": "data:application/octet-stream;base64,"
    },
    {
      "byteLength": 15144,
      "uri": "data:application/octet-stream;base64,"
    },
    {
      "byteLength": 15144,
      "uri": "data:application/octet-stream;base64,"
    },
    {
      "byteLength": 15144,
      "uri": "data:application/octet-stream;base64,"
    }
  ],
  "bufferViews": [
    {
      "buffer": 0,
      "byteOffset": 0,
      "byteLength": 7458
    },
    {
      "buffer": 1,
      "byteOffset": 0,
      "byteLength": 15144
    },
    {
      "buffer": 2,
      "byteOffset": 0,
      "byteLength": 15144
    },
    {
      "buffer": 3,
      "byteOffset": 0,
      "byteLength": 15144
    }
  ],
  "meshes": [
    {
      "primitives": [
        {
          "mode": 4,
          "indices": 0,
          "attributes": {
            "POSITION": 1,
            "NORMAL": 2,
            "COLOR_0": 3
          }
        }
      ]
    }
  ],
  "nodes": [
    {
      "children": [
        1
      ]
    },
    {
      "mesh": 0
    }
  ],
  "scenes": [
    {
      "nodes": [
        0
      ]
    }
  ],
  "scene": 0
}