{
  "asset": {
    "version": "2.0",
    "generator": "COLLADA2GLTF"
  },
  "accessors": [
    {
      "bufferView": 0,
      "byteOffset": 0,
      "componentType": 5123,
      "count": 354,
      "min": [
        0
      ],
      "max": [
        149
      ],
      "type": "SCALAR"
    },
    {
      "bufferView": 1,
      "byteOffset": 0,
      "componentType": 5126,
      "count": 150,
      "max": [
        -1920,
        0,
        2157.68310546875
      ],
      "min": [
        -2066.01220703125,
        0,
        2032.4774169921875
      ],
      "type": "VEC3"
    },
    {
      "bufferView": 2,
      "byteOffset": 0,
      "componentType": 5126,
      "count": 150,
      "max": [
        0,
        1,
        0
      ],
      "min": [
        0,
        1,
        0
      ],
      "type": "VEC3"
    },
    {
      "bufferView": 3,
      "byteOffset": 0,
      "componentType": 5126,
      "count": 150,
      "max": [
        0.07322804629802704,
        1,
        0.07325856387615204
      ],
      "min": [
        0.000015259021893143654,
        0.07324330508708954,
        0.00004577706567943096
      ],
      "type": "VEC3"
    }
  ],
  "buffers": [
    {
      "byteLength": 708,
      "uri": "data:application/octet-stream;base64,"
    },
    {
      "byteLength": 1800,
      "uri": "data:application/octet-stream;base64,"
    },
    {
      "byteLength": 1800,
      "uri": "data:application/octet-stream;base64,"
    },
    {
      "byteLength": 1800,
      "uri": "data:application/octet-stream;base64,"
    }
  ],
  "bufferViews": [
    {
      "buffer": 0,
      "byteOffset": 0,
      "byteLength": 708
    },
    {
      "buffer": 1,
      "byteOffset": 0,
      "byteLength": 1800
    },
    {
      "buffer": 2,
      "byteOffset": 0,
      "byteLength": 1800
    },
    {
      "buffer": 3,
      "byteOffset": 0,
      "byteLength": 1800
    }
  ],
  "meshes": [
    {
      "primitives": [
        {
          "mode": 4,
          "indices": 0,
          "attributes": {
            "POSITION": 1,
            "NORMAL": 2,
            "COLOR_0": 3
          }
        }
      ]
    }
  ],
  "nodes": [
    {
      "children": [
        1
      ]
    },
    {
      "mesh": 0
    }
  ],
  "scenes": [
    {
      "nodes": [
        0
      ]
    }
  ],
  "scene": 0
}