{
  "asset": {
    "version": "2.0",
    "generator": "COLLADA2GLTF"
  },
  "accessors": [
    {
      "bufferView": 0,
      "byteOffset": 0,
      "componentType": 5123,
      "count": 9000,
      "min": [
        0
      ],
      "max": [
        3462
      ],
      "type": "SCALAR"
    },
    {
      "bufferView": 1,
      "byteOffset": 0,
      "componentType": 5126,
      "count": 3463,
      "max": [
        -18.820999145507812,
        7.5,
        224.78599548339844
      ],
      "min": [
        -1295.3260498046875,
        -3,
        -1416.8349609375
      ],
      "type": "VEC3"
    },
    {
      "bufferView": 2,
      "byteOffset": 0,
      "componentType": 5126,
      "count": 3463,
      "max": [
        1,
        1,
        1
      ],
      "min": [
        -1,
        -1,
        -1
      ],
      "type": "VEC3"
    },
    {
      "bufferView": 3,
      "byteOffset": 0,
      "componentType": 5126,
      "count": 3463,
      "max": [
        0.999786376953125,
        1,
        1
      ],
      "min": [
        0,
        0.00003051804378628731,
        0.00004577706567943096
      ],
      "type": "VEC3"
    }
  ],
  "buffers": [
    {
      "byteLength": 18000,
      "uri": "data:application/octet-stream;base64,"
    },
    {
      "byteLength": 41556,
      "uri": "data:application/octet-stream;base64,"
    },
    {
      "byteLength": 41556,
      "uri": "data:application/octet-stream;base64,"
    },
    {
      "byteLength": 41556,
      "uri": "data:application/octet-stream;base64,"
    }
  ],
  "bufferViews": [
    {
      "buffer": 0,
      "byteOffset": 0,
      "byteLength": 18000
    },
    {
      "buffer": 1,
      "byteOffset": 0,
      "byteLength": 41556
    },
    {
      "buffer": 2,
      "byteOffset": 0,
      "byteLength": 41556
    },
    {
      "buffer": 3,
      "byteOffset": 0,
      "byteLength": 41556
    }
  ],
  "meshes": [
    {
      "primitives": [
        {
          "mode": 4,
          "indices": 0,
          "attributes": {
            "POSITION": 1,
            "NORMAL": 2,
            "COLOR_0": 3
          }
        }
      ]
    }
  ],
  "nodes": [
    {
      "children": [
        1
      ]
    },
    {
      "mesh": 0
    }
  ],
  "scenes": [
    {
      "nodes": [
        0
      ]
    }
  ],
  "scene": 0
}