{
  "asset": {
    "version": "2.0",
    "generator": "COLLADA2GLTF"
  },
  "accessors": [
    {
      "bufferView": 0,
      "byteOffset": 0,
      "componentType": 5123,
      "count": 1767,
      "min": [
        0
      ],
      "max": [
        723
      ],
      "type": "SCALAR"
    },
    {
      "bufferView": 1,
      "byteOffset": 0,
      "componentType": 5126,
      "count": 724,
      "max": [
        3594.56591796875,
        0.0010000000474974513,
        2084.3603515625
      ],
      "min": [
        3344.917724609375,
        -0.20000000298023224,
        1692.114990234375
      ],
      "type": "VEC3"
    },
    {
      "bufferView": 2,
      "byteOffset": 0,
      "componentType": 5126,
      "count": 724,
      "max": [
        0.8407574892044067,
        1,
        0.840691089630127
      ],
      "min": [
        -0.8411102294921875,
        -1,
        -0.8413653373718262
      ],
      "type": "VEC3"
    },
    {
      "bufferView": 3,
      "byteOffset": 0,
      "componentType": 5126,
      "count": 724,
      "max": [
        0.999786376953125,
        1,
        1
      ],
      "min": [
        0,
        0.00003051804378628731,
        0.00004577706567943096
      ],
      "type": "VEC3"
    }
  ],
  "buffers": [
    {
      "byteLength": 3534,
      "uri": "data:application/octet-stream;base64,"
    },
    {
      "byteLength": 8688,
      "uri": "data:application/octet-stream;base64,"
    },
    {
      "byteLength": 8688,
      "uri": "data:application/octet-stream;base64,"
    },
    {
      "byteLength": 8688,
      "uri": "data:application/octet-stream;base64,"
    }
  ],
  "bufferViews": [
    {
      "buffer": 0,
      "byteOffset": 0,
      "byteLength": 3534
    },
    {
      "buffer": 1,
      "byteOffset": 0,
      "byteLength": 8688
    },
    {
      "buffer": 2,
      "byteOffset": 0,
      "byteLength": 8688
    },
    {
      "buffer": 3,
      "byteOffset": 0,
      "byteLength": 8688
    }
  ],
  "meshes": [
    {
      "primitives": [
        {
          "mode": 4,
          "indices": 0,
          "attributes": {
            "POSITION": 1,
            "NORMAL": 2,
            "COLOR_0": 3
          }
        }
      ]
    }
  ],
  "nodes": [
    {
      "children": [
        1
      ]
    },
    {
      "mesh": 0
    }
  ],
  "scenes": [
    {
      "nodes": [
        0
      ]
    }
  ],
  "scene": 0
}