{
  "asset": {
    "version": "2.0",
    "generator": "COLLADA2GLTF"
  },
  "accessors": [
    {
      "bufferView": 0,
      "byteOffset": 0,
      "componentType": 5123,
      "count": 2622,
      "min": [
        0
      ],
      "max": [
        914
      ],
      "type": "SCALAR"
    },
    {
      "bufferView": 1,
      "byteOffset": 0,
      "componentType": 5126,
      "count": 915,
      "max": [
        -7241.087890625,
        12,
        -1483.419677734375
      ],
      "min": [
        -7562.619140625,
        7,
        -1617.4036865234375
      ],
      "type": "VEC3"
    },
    {
      "bufferView": 2,
      "byteOffset": 0,
      "componentType": 5126,
      "count": 915,
      "max": [
        0.9197788834571838,
        0.7070885896682739,
        0.9197788834571838
      ],
      "min": [
        -0.9197788834571838,
        -0.7070885896682739,
        -0.9197788834571838
      ],
      "type": "VEC3"
    },
    {
      "bufferView": 3,
      "byteOffset": 0,
      "componentType": 5126,
      "count": 915,
      "max": [
        0.4480048716068268,
        0.4480048716068268,
        0.4480659067630768
      ],
      "min": [
        0,
        0,
        0
      ],
      "type": "VEC3"
    }
  ],
  "buffers": [
    {
      "byteLength": 5244,
      "uri": "data:application/octet-stream;base64,"
    },
    {
      "byteLength": 10980,
      "uri": "data:application/octet-stream;base64,"
    },
    {
      "byteLength": 10980,
      "uri": "data:application/octet-stream;base64,"
    },
    {
      "byteLength": 10980,
      "uri": "data:application/octet-stream;base64,"
    }
  ],
  "bufferViews": [
    {
      "buffer": 0,
      "byteOffset": 0,
      "byteLength": 5244
    },
    {
      "buffer": 1,
      "byteOffset": 0,
      "byteLength": 10980
    },
    {
      "buffer": 2,
      "byteOffset": 0,
      "byteLength": 10980
    },
    {
      "buffer": 3,
      "byteOffset": 0,
      "byteLength": 10980
    }
  ],
  "meshes": [
    {
      "primitives": [
        {
          "mode": 4,
          "indices": 0,
          "attributes": {
            "POSITION": 1,
            "NORMAL": 2,
            "COLOR_0": 3
          }
        }
      ]
    }
  ],
  "nodes": [
    {
      "children": [
        1
      ]
    },
    {
      "mesh": 0
    }
  ],
  "scenes": [
    {
      "nodes": [
        0
      ]
    }
  ],
  "scene": 0
}