{
  "asset": {
    "version": "2.0",
    "generator": "COLLADA2GLTF"
  },
  "accessors": [
    {
      "bufferView": 0,
      "byteOffset": 0,
      "componentType": 5123,
      "count": 3528,
      "min": [
        0
      ],
      "max": [
        1305
      ],
      "type": "SCALAR"
    },
    {
      "bufferView": 1,
      "byteOffset": 0,
      "componentType": 5126,
      "count": 1306,
      "max": [
        48.1775016784668,
        0.10000000149011612,
        -291.5929870605469
      ],
      "min": [
        -5.660534858703613,
        -0.20000000298023224,
        -392.6947937011719
      ],
      "type": "VEC3"
    },
    {
      "bufferView": 2,
      "byteOffset": 0,
      "componentType": 5126,
      "count": 1306,
      "max": [
        0.9017295241355896,
        1,
        0.8689960837364197
      ],
      "min": [
        -0.9016775488853455,
        -1,
        -0.9016775488853455
      ],
      "type": "VEC3"
    },
    {
      "bufferView": 3,
      "byteOffset": 0,
      "componentType": 5126,
      "count": 1306,
      "max": [
        0.7872740030288696,
        1,
        0.7875028848648071
      ],
      "min": [
        0.000015259021893143654,
        0.07324330508708954,
        0.00004577706567943096
      ],
      "type": "VEC3"
    }
  ],
  "buffers": [
    {
      "byteLength": 7056,
      "uri": "data:application/octet-stream;base64,"
    },
    {
      "byteLength": 15672,
      "uri": "data:application/octet-stream;base64,"
    },
    {
      "byteLength": 15672,
      "uri": "data:application/octet-stream;base64,"
    },
    {
      "byteLength": 15672,
      "uri": "data:application/octet-stream;base64,"
    }
  ],
  "bufferViews": [
    {
      "buffer": 0,
      "byteOffset": 0,
      "byteLength": 7056
    },
    {
      "buffer": 1,
      "byteOffset": 0,
      "byteLength": 15672
    },
    {
      "buffer": 2,
      "byteOffset": 0,
      "byteLength": 15672
    },
    {
      "buffer": 3,
      "byteOffset": 0,
      "byteLength": 15672
    }
  ],
  "meshes": [
    {
      "primitives": [
        {
          "mode": 4,
          "indices": 0,
          "attributes": {
            "POSITION": 1,
            "NORMAL": 2,
            "COLOR_0": 3
          }
        }
      ]
    }
  ],
  "nodes": [
    {
      "children": [
        1
      ]
    },
    {
      "mesh": 0
    }
  ],
  "scenes": [
    {
      "nodes": [
        0
      ]
    }
  ],
  "scene": 0
}