{
  "asset": {
    "version": "2.0",
    "generator": "COLLADA2GLTF"
  },
  "accessors": [
    {
      "bufferView": 0,
      "byteOffset": 0,
      "componentType": 5123,
      "count": 5403,
      "min": [
        0
      ],
      "max": [
        1960
      ],
      "type": "SCALAR"
    },
    {
      "bufferView": 1,
      "byteOffset": 0,
      "componentType": 5126,
      "count": 1961,
      "max": [
        -1395.3018798828125,
        19.5,
        4524.09033203125
      ],
      "min": [
        -2111.88037109375,
        12,
        4122.6689453125
      ],
      "type": "VEC3"
    },
    {
      "bufferView": 2,
      "byteOffset": 0,
      "componentType": 5126,
      "count": 1961,
      "max": [
        0.8777109384536743,
        0.7071021199226379,
        0.8777109384536743
      ],
      "min": [
        -0.8777109384536743,
        -0.7071021199226379,
        -0.8777109384536743
      ],
      "type": "VEC3"
    },
    {
      "bufferView": 3,
      "byteOffset": 0,
      "componentType": 5126,
      "count": 1961,
      "max": [
        0.4480048716068268,
        0.4480048716068268,
        0.4480659067630768
      ],
      "min": [
        0,
        0,
        0
      ],
      "type": "VEC3"
    }
  ],
  "buffers": [
    {
      "byteLength": 10806,
      "uri": "data:application/octet-stream;base64,"
    },
    {
      "byteLength": 23532,
      "uri": "data:application/octet-stream;base64,"
    },
    {
      "byteLength": 23532,
      "uri": "data:application/octet-stream;base64,"
    },
    {
      "byteLength": 23532,
      "uri": "data:application/octet-stream;base64,"
    }
  ],
  "bufferViews": [
    {
      "buffer": 0,
      "byteOffset": 0,
      "byteLength": 10806
    },
    {
      "buffer": 1,
      "byteOffset": 0,
      "byteLength": 23532
    },
    {
      "buffer": 2,
      "byteOffset": 0,
      "byteLength": 23532
    },
    {
      "buffer": 3,
      "byteOffset": 0,
      "byteLength": 23532
    }
  ],
  "meshes": [
    {
      "primitives": [
        {
          "mode": 4,
          "indices": 0,
          "attributes": {
            "POSITION": 1,
            "NORMAL": 2,
            "COLOR_0": 3
          }
        }
      ]
    }
  ],
  "nodes": [
    {
      "children": [
        1
      ]
    },
    {
      "mesh": 0
    }
  ],
  "scenes": [
    {
      "nodes": [
        0
      ]
    }
  ],
  "scene": 0
}