{
  "asset": {
    "version": "2.0",
    "generator": "COLLADA2GLTF"
  },
  "accessors": [
    {
      "bufferView": 0,
      "byteOffset": 0,
      "componentType": 5123,
      "count": 504,
      "min": [
        0
      ],
      "max": [
        246
      ],
      "type": "SCALAR"
    },
    {
      "bufferView": 1,
      "byteOffset": 0,
      "componentType": 5126,
      "count": 247,
      "max": [
        -2880,
        0,
        1260
      ],
      "min": [
        -3011.280517578125,
        0,
        1140
      ],
      "type": "VEC3"
    },
    {
      "bufferView": 2,
      "byteOffset": 0,
      "componentType": 5126,
      "count": 247,
      "max": [
        0.9872336387634277,
        1,
        0.5678131580352783
      ],
      "min": [
        -0.8141425848007202,
        0,
        -0.9882264733314514
      ],
      "type": "VEC3"
    },
    {
      "bufferView": 3,
      "byteOffset": 0,
      "componentType": 5126,
      "count": 247,
      "max": [
        0.999786376953125,
        1,
        0.26330968737602234
      ],
      "min": [
        0.000015259021893143654,
        0.07324330508708954,
        0.00004577706567943096
      ],
      "type": "VEC3"
    }
  ],
  "buffers": [
    {
      "byteLength": 1008,
      "uri": "data:application/octet-stream;base64,"
    },
    {
      "byteLength": 2964,
      "uri": "data:application/octet-stream;base64,"
    },
    {
      "byteLength": 2964,
      "uri": "data:application/octet-stream;base64,"
    },
    {
      "byteLength": 2964,
      "uri": "data:application/octet-stream;base64,"
    }
  ],
  "bufferViews": [
    {
      "buffer": 0,
      "byteOffset": 0,
      "byteLength": 1008
    },
    {
      "buffer": 1,
      "byteOffset": 0,
      "byteLength": 2964
    },
    {
      "buffer": 2,
      "byteOffset": 0,
      "byteLength": 2964
    },
    {
      "buffer": 3,
      "byteOffset": 0,
      "byteLength": 2964
    }
  ],
  "meshes": [
    {
      "primitives": [
        {
          "mode": 4,
          "indices": 0,
          "attributes": {
            "POSITION": 1,
            "NORMAL": 2,
            "COLOR_0": 3
          }
        }
      ]
    }
  ],
  "nodes": [
    {
      "children": [
        1
      ]
    },
    {
      "mesh": 0
    }
  ],
  "scenes": [
    {
      "nodes": [
        0
      ]
    }
  ],
  "scene": 0
}