{
  "asset": {
    "version": "2.0",
    "generator": "COLLADA2GLTF"
  },
  "accessors": [
    {
      "bufferView": 0,
      "byteOffset": 0,
      "componentType": 5123,
      "count": 162,
      "min": [
        0
      ],
      "max": [
        99
      ],
      "type": "SCALAR"
    },
    {
      "bufferView": 1,
      "byteOffset": 0,
      "componentType": 5126,
      "count": 100,
      "max": [
        240,
        0,
        3.74135422706604
      ],
      "min": [
        60,
        0,
        -150
      ],
      "type": "VEC3"
    },
    {
      "bufferView": 2,
      "byteOffset": 0,
      "componentType": 5126,
      "count": 100,
      "max": [
        0.9991457462310791,
        1,
        0
      ],
      "min": [
        0,
        0,
        -0.04132485017180443
      ],
      "type": "VEC3"
    }
  ],
  "buffers": [
    {
      "byteLength": 324,
      "uri": "data:application/octet-stream;base64,"
    },
    {
      "byteLength": 1200,
      "uri": "data:application/octet-stream;base64,"
    },
    {
      "byteLength": 1200,
      "uri": "data:application/octet-stream;base64,"
    }
  ],
  "bufferViews": [
    {
      "buffer": 0,
      "byteOffset": 0,
      "byteLength": 324
    },
    {
      "buffer": 1,
      "byteOffset": 0,
      "byteLength": 1200
    },
    {
      "buffer": 2,
      "byteOffset": 0,
      "byteLength": 1200
    }
  ],
  "meshes": [
    {
      "primitives": [
        {
          "mode": 4,
          "indices": 0,
          "attributes": {
            "POSITION": 1,
            "NORMAL": 2
          }
        }
      ]
    }
  ],
  "nodes": [
    {
      "children": [
        1
      ]
    },
    {
      "mesh": 0
    }
  ],
  "scenes": [
    {
      "nodes": [
        0
      ]
    }
  ],
  "scene": 0
}