{
  "asset": {
    "version": "2.0",
    "generator": "COLLADA2GLTF"
  },
  "accessors": [
    {
      "bufferView": 0,
      "byteOffset": 0,
      "componentType": 5123,
      "count": 1905,
      "min": [
        0
      ],
      "max": [
        817
      ],
      "type": "SCALAR"
    },
    {
      "bufferView": 1,
      "byteOffset": 0,
      "componentType": 5126,
      "count": 818,
      "max": [
        -4901.90625,
        14.5,
        -484.1694641113281
      ],
      "min": [
        -5323.412109375,
        9.28499984741211,
        -684.89501953125
      ],
      "type": "VEC3"
    },
    {
      "bufferView": 2,
      "byteOffset": 0,
      "componentType": 5126,
      "count": 818,
      "max": [
        0.9191538691520691,
        0.7066951990127563,
        0.9191538691520691
      ],
      "min": [
        -0.9191538691520691,
        -0.706301212310791,
        -0.9191538691520691
      ],
      "type": "VEC3"
    },
    {
      "bufferView": 3,
      "byteOffset": 0,
      "componentType": 5126,
      "count": 818,
      "max": [
        0.4480048716068268,
        0.4480048716068268,
        0.4480659067630768
      ],
      "min": [
        0,
        0,
        0
      ],
      "type": "VEC3"
    }
  ],
  "buffers": [
    {
      "byteLength": 3810,
      "uri": "data:application/octet-stream;base64,"
    },
    {
      "byteLength": 9816,
      "uri": "data:application/octet-stream;base64,"
    },
    {
      "byteLength": 9816,
      "uri": "data:application/octet-stream;base64,"
    },
    {
      "byteLength": 9816,
      "uri": "data:application/octet-stream;base64,"
    }
  ],
  "bufferViews": [
    {
      "buffer": 0,
      "byteOffset": 0,
      "byteLength": 3810
    },
    {
      "buffer": 1,
      "byteOffset": 0,
      "byteLength": 9816
    },
    {
      "buffer": 2,
      "byteOffset": 0,
      "byteLength": 9816
    },
    {
      "buffer": 3,
      "byteOffset": 0,
      "byteLength": 9816
    }
  ],
  "meshes": [
    {
      "primitives": [
        {
          "mode": 4,
          "indices": 0,
          "attributes": {
            "POSITION": 1,
            "NORMAL": 2,
            "COLOR_0": 3
          }
        }
      ]
    }
  ],
  "nodes": [
    {
      "children": [
        1
      ]
    },
    {
      "mesh": 0
    }
  ],
  "scenes": [
    {
      "nodes": [
        0
      ]
    }
  ],
  "scene": 0
}