{
  "asset": {
    "version": "2.0",
    "generator": "COLLADA2GLTF"
  },
  "accessors": [
    {
      "bufferView": 0,
      "byteOffset": 0,
      "componentType": 5123,
      "count": 861,
      "min": [
        0
      ],
      "max": [
        362
      ],
      "type": "SCALAR"
    },
    {
      "bufferView": 1,
      "byteOffset": 0,
      "componentType": 5126,
      "count": 363,
      "max": [
        3017.669921875,
        10,
        1407.10888671875
      ],
      "min": [
        2459.717041015625,
        0,
        1038.501953125
      ],
      "type": "VEC3"
    },
    {
      "bufferView": 2,
      "byteOffset": 0,
      "componentType": 5126,
      "count": 363,
      "max": [
        1,
        1,
        1
      ],
      "min": [
        -1,
        0,
        -1
      ],
      "type": "VEC3"
    },
    {
      "bufferView": 3,
      "byteOffset": 0,
      "componentType": 5126,
      "count": 363,
      "max": [
        0.999786376953125,
        0.7875181436538696,
        0.26330968737602234
      ],
      "min": [
        0.6036774516105652,
        0.00003051804378628731,
        0
      ],
      "type": "VEC3"
    }
  ],
  "buffers": [
    {
      "byteLength": 1722,
      "uri": "data:application/octet-stream;base64,"
    },
    {
      "byteLength": 4356,
      "uri": "data:application/octet-stream;base64,"
    },
    {
      "byteLength": 4356,
      "uri": "data:application/octet-stream;base64,"
    },
    {
      "byteLength": 4356,
      "uri": "data:application/octet-stream;base64,"
    }
  ],
  "bufferViews": [
    {
      "buffer": 0,
      "byteOffset": 0,
      "byteLength": 1722
    },
    {
      "buffer": 1,
      "byteOffset": 0,
      "byteLength": 4356
    },
    {
      "buffer": 2,
      "byteOffset": 0,
      "byteLength": 4356
    },
    {
      "buffer": 3,
      "byteOffset": 0,
      "byteLength": 4356
    }
  ],
  "meshes": [
    {
      "primitives": [
        {
          "mode": 4,
          "indices": 0,
          "attributes": {
            "POSITION": 1,
            "NORMAL": 2,
            "COLOR_0": 3
          }
        }
      ]
    }
  ],
  "nodes": [
    {
      "children": [
        1
      ]
    },
    {
      "mesh": 0
    }
  ],
  "scenes": [
    {
      "nodes": [
        0
      ]
    }
  ],
  "scene": 0
}