{
  "asset": {
    "version": "2.0",
    "generator": "COLLADA2GLTF"
  },
  "accessors": [
    {
      "bufferView": 0,
      "byteOffset": 0,
      "componentType": 5123,
      "count": 5391,
      "min": [
        0
      ],
      "max": [
        2045
      ],
      "type": "SCALAR"
    },
    {
      "bufferView": 1,
      "byteOffset": 0,
      "componentType": 5126,
      "count": 2046,
      "max": [
        523.4348754882812,
        2.299999952316284,
        540
      ],
      "min": [
        90,
        0,
        -8.42441177368164
      ],
      "type": "VEC3"
    },
    {
      "bufferView": 2,
      "byteOffset": 0,
      "componentType": 5126,
      "count": 2046,
      "max": [
        0.9898214340209961,
        1,
        1
      ],
      "min": [
        -0.9992275834083557,
        -1,
        -0.9594929814338684
      ],
      "type": "VEC3"
    },
    {
      "bufferView": 3,
      "byteOffset": 0,
      "componentType": 5126,
      "count": 2046,
      "max": [
        0.999786376953125,
        1,
        1
      ],
      "min": [
        0,
        0.00003051804378628731,
        0.000015259021893143654
      ],
      "type": "VEC3"
    }
  ],
  "buffers": [
    {
      "byteLength": 10782,
      "uri": "data:application/octet-stream;base64,"
    },
    {
      "byteLength": 24552,
      "uri": "data:application/octet-stream;base64,"
    },
    {
      "byteLength": 24552,
      "uri": "data:application/octet-stream;base64,"
    },
    {
      "byteLength": 24552,
      "uri": "data:application/octet-stream;base64,"
    }
  ],
  "bufferViews": [
    {
      "buffer": 0,
      "byteOffset": 0,
      "byteLength": 10782
    },
    {
      "buffer": 1,
      "byteOffset": 0,
      "byteLength": 24552
    },
    {
      "buffer": 2,
      "byteOffset": 0,
      "byteLength": 24552
    },
    {
      "buffer": 3,
      "byteOffset": 0,
      "byteLength": 24552
    }
  ],
  "meshes": [
    {
      "primitives": [
        {
          "mode": 4,
          "indices": 0,
          "attributes": {
            "POSITION": 1,
            "NORMAL": 2,
            "COLOR_0": 3
          }
        }
      ]
    }
  ],
  "nodes": [
    {
      "children": [
        1
      ]
    },
    {
      "mesh": 0
    }
  ],
  "scenes": [
    {
      "nodes": [
        0
      ]
    }
  ],
  "scene": 0
}