{
  "asset": {
    "version": "2.0",
    "generator": "COLLADA2GLTF"
  },
  "accessors": [
    {
      "bufferView": 0,
      "byteOffset": 0,
      "componentType": 5123,
      "count": 12,
      "min": [
        0
      ],
      "max": [
        10
      ],
      "type": "SCALAR"
    },
    {
      "bufferView": 1,
      "byteOffset": 0,
      "componentType": 5126,
      "count": 11,
      "max": [
        -1036.470947265625,
        7.5,
        814.5269775390625
      ],
      "min": [
        -1056.7459716796875,
        0,
        783.27001953125
      ],
      "type": "VEC3"
    },
    {
      "bufferView": 2,
      "byteOffset": 0,
      "componentType": 5126,
      "count": 11,
      "max": [
        0.5824019312858582,
        0,
        0.812900960445404
      ],
      "min": [
        -0.8125627636909485,
        0,
        -0.8126732110977173
      ],
      "type": "VEC3"
    },
    {
      "bufferView": 3,
      "byteOffset": 0,
      "componentType": 5126,
      "count": 11,
      "max": [
        0.999786376953125,
        0.7875181436538696,
        0.26330968737602234
      ],
      "min": [
        0.999786376953125,
        0.7875181436538696,
        0.26330968737602234
      ],
      "type": "VEC3"
    }
  ],
  "buffers": [
    {
      "byteLength": 24,
      "uri": "data:application/octet-stream;base64,"
    },
    {
      "byteLength": 132,
      "uri": "data:application/octet-stream;base64,"
    },
    {
      "byteLength": 132,
      "uri": "data:application/octet-stream;base64,"
    },
    {
      "byteLength": 132,
      "uri": "data:application/octet-stream;base64,"
    }
  ],
  "bufferViews": [
    {
      "buffer": 0,
      "byteOffset": 0,
      "byteLength": 24
    },
    {
      "buffer": 1,
      "byteOffset": 0,
      "byteLength": 132
    },
    {
      "buffer": 2,
      "byteOffset": 0,
      "byteLength": 132
    },
    {
      "buffer": 3,
      "byteOffset": 0,
      "byteLength": 132
    }
  ],
  "meshes": [
    {
      "primitives": [
        {
          "mode": 4,
          "indices": 0,
          "attributes": {
            "POSITION": 1,
            "NORMAL": 2,
            "COLOR_0": 3
          }
        }
      ]
    }
  ],
  "nodes": [
    {
      "children": [
        1
      ]
    },
    {
      "mesh": 0
    }
  ],
  "scenes": [
    {
      "nodes": [
        0
      ]
    }
  ],
  "scene": 0
}