{
  "asset": {
    "version": "2.0",
    "generator": "COLLADA2GLTF"
  },
  "accessors": [
    {
      "bufferView": 0,
      "byteOffset": 0,
      "componentType": 5123,
      "count": 3525,
      "min": [
        0
      ],
      "max": [
        1425
      ],
      "type": "SCALAR"
    },
    {
      "bufferView": 1,
      "byteOffset": 0,
      "componentType": 5126,
      "count": 1426,
      "max": [
        -2010,
        0.0010000000474974513,
        -1560
      ],
      "min": [
        -2460,
        0,
        -1945.292236328125
      ],
      "type": "VEC3"
    },
    {
      "bufferView": 2,
      "byteOffset": 0,
      "componentType": 5126,
      "count": 1426,
      "max": [
        0.7681822180747986,
        1,
        0.9726852178573608
      ],
      "min": [
        -0.7771196365356445,
        0,
        -0.7647088766098022
      ],
      "type": "VEC3"
    },
    {
      "bufferView": 3,
      "byteOffset": 0,
      "componentType": 5126,
      "count": 1426,
      "max": [
        0.999786376953125,
        1,
        0.7875028848648071
      ],
      "min": [
        0,
        0.000015259021893143654,
        0
      ],
      "type": "VEC3"
    }
  ],
  "buffers": [
    {
      "byteLength": 7050,
      "uri": "data:application/octet-stream;base64,"
    },
    {
      "byteLength": 17112,
      "uri": "data:application/octet-stream;base64,"
    },
    {
      "byteLength": 17112,
      "uri": "data:application/octet-stream;base64,"
    },
    {
      "byteLength": 17112,
      "uri": "data:application/octet-stream;base64,"
    }
  ],
  "bufferViews": [
    {
      "buffer": 0,
      "byteOffset": 0,
      "byteLength": 7050
    },
    {
      "buffer": 1,
      "byteOffset": 0,
      "byteLength": 17112
    },
    {
      "buffer": 2,
      "byteOffset": 0,
      "byteLength": 17112
    },
    {
      "buffer": 3,
      "byteOffset": 0,
      "byteLength": 17112
    }
  ],
  "meshes": [
    {
      "primitives": [
        {
          "mode": 4,
          "indices": 0,
          "attributes": {
            "POSITION": 1,
            "NORMAL": 2,
            "COLOR_0": 3
          }
        }
      ]
    }
  ],
  "nodes": [
    {
      "children": [
        1
      ]
    },
    {
      "mesh": 0
    }
  ],
  "scenes": [
    {
      "nodes": [
        0
      ]
    }
  ],
  "scene": 0
}