{
  "asset": {
    "version": "2.0",
    "generator": "COLLADA2GLTF"
  },
  "accessors": [
    {
      "bufferView": 0,
      "byteOffset": 0,
      "componentType": 5123,
      "count": 2502,
      "min": [
        0
      ],
      "max": [
        1269
      ],
      "type": "SCALAR"
    },
    {
      "bufferView": 1,
      "byteOffset": 0,
      "componentType": 5126,
      "count": 1270,
      "max": [
        637.3350219726562,
        7.5,
        499.8169860839844
      ],
      "min": [
        535.77001953125,
        0,
        343.2449951171875
      ],
      "type": "VEC3"
    },
    {
      "bufferView": 2,
      "byteOffset": 0,
      "componentType": 5126,
      "count": 1270,
      "max": [
        1,
        1,
        1
      ],
      "min": [
        -0.9994803667068481,
        -1,
        -1
      ],
      "type": "VEC3"
    },
    {
      "bufferView": 3,
      "byteOffset": 0,
      "componentType": 5126,
      "count": 1270,
      "max": [
        0.999786376953125,
        0.7875181436538696,
        0.5776455402374268
      ],
      "min": [
        0.5774929523468018,
        0.5776150226593018,
        0.003997863736003637
      ],
      "type": "VEC3"
    }
  ],
  "buffers": [
    {
      "byteLength": 5004,
      "uri": "data:application/octet-stream;base64,"
    },
    {
      "byteLength": 15240,
      "uri": "data:application/octet-stream;base64,"
    },
    {
      "byteLength": 15240,
      "uri": "data:application/octet-stream;base64,"
    },
    {
      "byteLength": 15240,
      "uri": "data:application/octet-stream;base64,"
    }
  ],
  "bufferViews": [
    {
      "buffer": 0,
      "byteOffset": 0,
      "byteLength": 5004
    },
    {
      "buffer": 1,
      "byteOffset": 0,
      "byteLength": 15240
    },
    {
      "buffer": 2,
      "byteOffset": 0,
      "byteLength": 15240
    },
    {
      "buffer": 3,
      "byteOffset": 0,
      "byteLength": 15240
    }
  ],
  "meshes": [
    {
      "primitives": [
        {
          "mode": 4,
          "indices": 0,
          "attributes": {
            "POSITION": 1,
            "NORMAL": 2,
            "COLOR_0": 3
          }
        }
      ]
    }
  ],
  "nodes": [
    {
      "children": [
        1
      ]
    },
    {
      "mesh": 0
    }
  ],
  "scenes": [
    {
      "nodes": [
        0
      ]
    }
  ],
  "scene": 0
}