{
  "asset": {
    "version": "2.0",
    "generator": "COLLADA2GLTF"
  },
  "accessors": [
    {
      "bufferView": 0,
      "byteOffset": 0,
      "componentType": 5123,
      "count": 3183,
      "min": [
        0
      ],
      "max": [
        1277
      ],
      "type": "SCALAR"
    },
    {
      "bufferView": 1,
      "byteOffset": 0,
      "componentType": 5126,
      "count": 1278,
      "max": [
        2188.82177734375,
        0.0010000000474974513,
        -360
      ],
      "min": [
        1620,
        -0.20000000298023224,
        -836.8877563476562
      ],
      "type": "VEC3"
    },
    {
      "bufferView": 2,
      "byteOffset": 0,
      "componentType": 5126,
      "count": 1278,
      "max": [
        0.5957448482513428,
        1,
        0.8031737804412842
      ],
      "min": [
        -0.8035705089569092,
        -1,
        -0.8035705089569092
      ],
      "type": "VEC3"
    },
    {
      "bufferView": 3,
      "byteOffset": 0,
      "componentType": 5126,
      "count": 1278,
      "max": [
        0.7872740030288696,
        1,
        1
      ],
      "min": [
        0,
        0.00003051804378628731,
        0.00004577706567943096
      ],
      "type": "VEC3"
    }
  ],
  "buffers": [
    {
      "byteLength": 6366,
      "uri": "data:application/octet-stream;base64,"
    },
    {
      "byteLength": 15336,
      "uri": "data:application/octet-stream;base64,"
    },
    {
      "byteLength": 15336,
      "uri": "data:application/octet-stream;base64,"
    },
    {
      "byteLength": 15336,
      "uri": "data:application/octet-stream;base64,"
    }
  ],
  "bufferViews": [
    {
      "buffer": 0,
      "byteOffset": 0,
      "byteLength": 6366
    },
    {
      "buffer": 1,
      "byteOffset": 0,
      "byteLength": 15336
    },
    {
      "buffer": 2,
      "byteOffset": 0,
      "byteLength": 15336
    },
    {
      "buffer": 3,
      "byteOffset": 0,
      "byteLength": 15336
    }
  ],
  "meshes": [
    {
      "primitives": [
        {
          "mode": 4,
          "indices": 0,
          "attributes": {
            "POSITION": 1,
            "NORMAL": 2,
            "COLOR_0": 3
          }
        }
      ]
    }
  ],
  "nodes": [
    {
      "children": [
        1
      ]
    },
    {
      "mesh": 0
    }
  ],
  "scenes": [
    {
      "nodes": [
        0
      ]
    }
  ],
  "scene": 0
}