{
  "asset": {
    "version": "2.0",
    "generator": "COLLADA2GLTF"
  },
  "accessors": [
    {
      "bufferView": 0,
      "byteOffset": 0,
      "componentType": 5123,
      "count": 942,
      "min": [
        0
      ],
      "max": [
        347
      ],
      "type": "SCALAR"
    },
    {
      "bufferView": 1,
      "byteOffset": 0,
      "componentType": 5126,
      "count": 348,
      "max": [
        343.53369140625,
        0.0010000000474974513,
        -678.145263671875
      ],
      "min": [
        221.31228637695312,
        0,
        -848.2627563476562
      ],
      "type": "VEC3"
    },
    {
      "bufferView": 2,
      "byteOffset": 0,
      "componentType": 5126,
      "count": 348,
      "max": [
        0,
        1,
        0
      ],
      "min": [
        0,
        1,
        0
      ],
      "type": "VEC3"
    },
    {
      "bufferView": 3,
      "byteOffset": 0,
      "componentType": 5126,
      "count": 348,
      "max": [
        0.7872740030288696,
        0.7875028848648071,
        0.7875028848648071
      ],
      "min": [
        0.07322804629802704,
        0.07324330508708954,
        0.07325856387615204
      ],
      "type": "VEC3"
    }
  ],
  "buffers": [
    {
      "byteLength": 1884,
      "uri": "data:application/octet-stream;base64,"
    },
    {
      "byteLength": 4176,
      "uri": "data:application/octet-stream;base64,"
    },
    {
      "byteLength": 4176,
      "uri": "data:application/octet-stream;base64,"
    },
    {
      "byteLength": 4176,
      "uri": "data:application/octet-stream;base64,"
    }
  ],
  "bufferViews": [
    {
      "buffer": 0,
      "byteOffset": 0,
      "byteLength": 1884
    },
    {
      "buffer": 1,
      "byteOffset": 0,
      "byteLength": 4176
    },
    {
      "buffer": 2,
      "byteOffset": 0,
      "byteLength": 4176
    },
    {
      "buffer": 3,
      "byteOffset": 0,
      "byteLength": 4176
    }
  ],
  "meshes": [
    {
      "primitives": [
        {
          "mode": 4,
          "indices": 0,
          "attributes": {
            "POSITION": 1,
            "NORMAL": 2,
            "COLOR_0": 3
          }
        }
      ]
    }
  ],
  "nodes": [
    {
      "children": [
        1
      ]
    },
    {
      "mesh": 0
    }
  ],
  "scenes": [
    {
      "nodes": [
        0
      ]
    }
  ],
  "scene": 0
}