{
  "asset": {
    "version": "2.0",
    "generator": "COLLADA2GLTF"
  },
  "accessors": [
    {
      "bufferView": 0,
      "byteOffset": 0,
      "componentType": 5123,
      "count": 849,
      "min": [
        0
      ],
      "max": [
        450
      ],
      "type": "SCALAR"
    },
    {
      "bufferView": 1,
      "byteOffset": 0,
      "componentType": 5126,
      "count": 451,
      "max": [
        -2899.843994140625,
        120,
        1818.605712890625
      ],
      "min": [
        -3629.14990234375,
        0,
        1007.7994384765625
      ],
      "type": "VEC3"
    },
    {
      "bufferView": 2,
      "byteOffset": 0,
      "componentType": 5126,
      "count": 451,
      "max": [
        0.9872336387634277,
        1,
        0.9989743828773499
      ],
      "min": [
        -0.9992043375968933,
        0,
        -0.9957076907157898
      ],
      "type": "VEC3"
    },
    {
      "bufferView": 3,
      "byteOffset": 0,
      "componentType": 5126,
      "count": 451,
      "max": [
        0.999786376953125,
        0.7875181436538696,
        0.26330968737602234
      ],
      "min": [
        0.6036774516105652,
        0.00003051804378628731,
        0
      ],
      "type": "VEC3"
    }
  ],
  "buffers": [
    {
      "byteLength": 1698,
      "uri": "data:application/octet-stream;base64,"
    },
    {
      "byteLength": 5412,
      "uri": "data:application/octet-stream;base64,"
    },
    {
      "byteLength": 5412,
      "uri": "data:application/octet-stream;base64,"
    },
    {
      "byteLength": 5412,
      "uri": "data:application/octet-stream;base64,"
    }
  ],
  "bufferViews": [
    {
      "buffer": 0,
      "byteOffset": 0,
      "byteLength": 1698
    },
    {
      "buffer": 1,
      "byteOffset": 0,
      "byteLength": 5412
    },
    {
      "buffer": 2,
      "byteOffset": 0,
      "byteLength": 5412
    },
    {
      "buffer": 3,
      "byteOffset": 0,
      "byteLength": 5412
    }
  ],
  "meshes": [
    {
      "primitives": [
        {
          "mode": 4,
          "indices": 0,
          "attributes": {
            "POSITION": 1,
            "NORMAL": 2,
            "COLOR_0": 3
          }
        }
      ]
    }
  ],
  "nodes": [
    {
      "children": [
        1
      ]
    },
    {
      "mesh": 0
    }
  ],
  "scenes": [
    {
      "nodes": [
        0
      ]
    }
  ],
  "scene": 0
}