{
  "asset": {
    "version": "2.0",
    "generator": "COLLADA2GLTF"
  },
  "accessors": [
    {
      "bufferView": 0,
      "byteOffset": 0,
      "componentType": 5123,
      "count": 387,
      "min": [
        0
      ],
      "max": [
        141
      ],
      "type": "SCALAR"
    },
    {
      "bufferView": 1,
      "byteOffset": 0,
      "componentType": 5126,
      "count": 142,
      "max": [
        -306.4633483886719,
        0,
        710.1906127929688
      ],
      "min": [
        -350.2685852050781,
        -3,
        657.1983032226562
      ],
      "type": "VEC3"
    },
    {
      "bufferView": 2,
      "byteOffset": 0,
      "componentType": 5126,
      "count": 142,
      "max": [
        0.77869713306427,
        1,
        0.77869713306427
      ],
      "min": [
        -0.7805954217910767,
        -1,
        -0.77869713306427
      ],
      "type": "VEC3"
    },
    {
      "bufferView": 3,
      "byteOffset": 0,
      "componentType": 5126,
      "count": 142,
      "max": [
        0.21585412323474884,
        0.21585412323474884,
        0.21589989960193634
      ],
      "min": [
        0.21585412323474884,
        0.21585412323474884,
        0.21589989960193634
      ],
      "type": "VEC3"
    }
  ],
  "buffers": [
    {
      "byteLength": 774,
      "uri": "data:application/octet-stream;base64,"
    },
    {
      "byteLength": 1704,
      "uri": "data:application/octet-stream;base64,"
    },
    {
      "byteLength": 1704,
      "uri": "data:application/octet-stream;base64,"
    },
    {
      "byteLength": 1704,
      "uri": "data:application/octet-stream;base64,"
    }
  ],
  "bufferViews": [
    {
      "buffer": 0,
      "byteOffset": 0,
      "byteLength": 774
    },
    {
      "buffer": 1,
      "byteOffset": 0,
      "byteLength": 1704
    },
    {
      "buffer": 2,
      "byteOffset": 0,
      "byteLength": 1704
    },
    {
      "buffer": 3,
      "byteOffset": 0,
      "byteLength": 1704
    }
  ],
  "meshes": [
    {
      "primitives": [
        {
          "mode": 4,
          "indices": 0,
          "attributes": {
            "POSITION": 1,
            "NORMAL": 2,
            "COLOR_0": 3
          }
        }
      ]
    }
  ],
  "nodes": [
    {
      "children": [
        1
      ]
    },
    {
      "mesh": 0
    }
  ],
  "scenes": [
    {
      "nodes": [
        0
      ]
    }
  ],
  "scene": 0
}