{
  "asset": {
    "version": "2.0",
    "generator": "COLLADA2GLTF"
  },
  "accessors": [
    {
      "bufferView": 0,
      "byteOffset": 0,
      "componentType": 5123,
      "count": 3291,
      "min": [
        0
      ],
      "max": [
        1226
      ],
      "type": "SCALAR"
    },
    {
      "bufferView": 1,
      "byteOffset": 0,
      "componentType": 5126,
      "count": 1227,
      "max": [
        -556.5995483398438,
        0.10000000149011612,
        458.6922607421875
      ],
      "min": [
        -663.3798217773438,
        -0.20000000298023224,
        270
      ],
      "type": "VEC3"
    },
    {
      "bufferView": 2,
      "byteOffset": 0,
      "componentType": 5126,
      "count": 1227,
      "max": [
        0.8122538924217224,
        1,
        0.811278223991394
      ],
      "min": [
        -0.8300881385803223,
        -1,
        -0.811809778213501
      ],
      "type": "VEC3"
    },
    {
      "bufferView": 3,
      "byteOffset": 0,
      "componentType": 5126,
      "count": 1227,
      "max": [
        0.999786376953125,
        1,
        0.7875028848648071
      ],
      "min": [
        0.000015259021893143654,
        0.07324330508708954,
        0.00004577706567943096
      ],
      "type": "VEC3"
    }
  ],
  "buffers": [
    {
      "byteLength": 6582,
      "uri": "data:application/octet-stream;base64,"
    },
    {
      "byteLength": 14724,
      "uri": "data:application/octet-stream;base64,"
    },
    {
      "byteLength": 14724,
      "uri": "data:application/octet-stream;base64,"
    },
    {
      "byteLength": 14724,
      "uri": "data:application/octet-stream;base64,"
    }
  ],
  "bufferViews": [
    {
      "buffer": 0,
      "byteOffset": 0,
      "byteLength": 6582
    },
    {
      "buffer": 1,
      "byteOffset": 0,
      "byteLength": 14724
    },
    {
      "buffer": 2,
      "byteOffset": 0,
      "byteLength": 14724
    },
    {
      "buffer": 3,
      "byteOffset": 0,
      "byteLength": 14724
    }
  ],
  "meshes": [
    {
      "primitives": [
        {
          "mode": 4,
          "indices": 0,
          "attributes": {
            "POSITION": 1,
            "NORMAL": 2,
            "COLOR_0": 3
          }
        }
      ]
    }
  ],
  "nodes": [
    {
      "children": [
        1
      ]
    },
    {
      "mesh": 0
    }
  ],
  "scenes": [
    {
      "nodes": [
        0
      ]
    }
  ],
  "scene": 0
}