{
  "asset": {
    "version": "2.0",
    "generator": "COLLADA2GLTF"
  },
  "accessors": [
    {
      "bufferView": 0,
      "byteOffset": 0,
      "componentType": 5123,
      "count": 2115,
      "min": [
        0
      ],
      "max": [
        841
      ],
      "type": "SCALAR"
    },
    {
      "bufferView": 1,
      "byteOffset": 0,
      "componentType": 5126,
      "count": 842,
      "max": [
        2404.0029296875,
        7.5,
        -762.5889892578125
      ],
      "min": [
        1764.343017578125,
        0,
        -1324.5770263671875
      ],
      "type": "VEC3"
    },
    {
      "bufferView": 2,
      "byteOffset": 0,
      "componentType": 5126,
      "count": 842,
      "max": [
        0.9806689620018005,
        1,
        0.9806705117225647
      ],
      "min": [
        -0.980609655380249,
        0,
        -0.9806060194969177
      ],
      "type": "VEC3"
    },
    {
      "bufferView": 3,
      "byteOffset": 0,
      "componentType": 5126,
      "count": 842,
      "max": [
        0.999786376953125,
        0.7875181436538696,
        0.26330968737602234
      ],
      "min": [
        0.6036774516105652,
        0.00003051804378628731,
        0
      ],
      "type": "VEC3"
    }
  ],
  "buffers": [
    {
      "byteLength": 4230,
      "uri": "data:application/octet-stream;base64,"
    },
    {
      "byteLength": 10104,
      "uri": "data:application/octet-stream;base64,"
    },
    {
      "byteLength": 10104,
      "uri": "data:application/octet-stream;base64,"
    },
    {
      "byteLength": 10104,
      "uri": "data:application/octet-stream;base64,"
    }
  ],
  "bufferViews": [
    {
      "buffer": 0,
      "byteOffset": 0,
      "byteLength": 4230
    },
    {
      "buffer": 1,
      "byteOffset": 0,
      "byteLength": 10104
    },
    {
      "buffer": 2,
      "byteOffset": 0,
      "byteLength": 10104
    },
    {
      "buffer": 3,
      "byteOffset": 0,
      "byteLength": 10104
    }
  ],
  "meshes": [
    {
      "primitives": [
        {
          "mode": 4,
          "indices": 0,
          "attributes": {
            "POSITION": 1,
            "NORMAL": 2,
            "COLOR_0": 3
          }
        }
      ]
    }
  ],
  "nodes": [
    {
      "children": [
        1
      ]
    },
    {
      "mesh": 0
    }
  ],
  "scenes": [
    {
      "nodes": [
        0
      ]
    }
  ],
  "scene": 0
}