{
  "asset": {
    "version": "2.0",
    "generator": "COLLADA2GLTF"
  },
  "accessors": [
    {
      "bufferView": 0,
      "byteOffset": 0,
      "componentType": 5123,
      "count": 1575,
      "min": [
        0
      ],
      "max": [
        550
      ],
      "type": "SCALAR"
    },
    {
      "bufferView": 1,
      "byteOffset": 0,
      "componentType": 5126,
      "count": 551,
      "max": [
        -4075.9052734375,
        24.524999618530273,
        -144.0518035888672
      ],
      "min": [
        -4682.041015625,
        12.164999961853027,
        -400.53680419921875
      ],
      "type": "VEC3"
    },
    {
      "bufferView": 2,
      "byteOffset": 0,
      "componentType": 5126,
      "count": 551,
      "max": [
        0.9182780385017395,
        0.707099437713623,
        0.9182780385017395
      ],
      "min": [
        -0.9182780385017395,
        -0.707099437713623,
        -0.9182780385017395
      ],
      "type": "VEC3"
    },
    {
      "bufferView": 3,
      "byteOffset": 0,
      "componentType": 5126,
      "count": 551,
      "max": [
        0.4480048716068268,
        0.4480048716068268,
        0.4480659067630768
      ],
      "min": [
        0,
        0,
        0
      ],
      "type": "VEC3"
    }
  ],
  "buffers": [
    {
      "byteLength": 3150,
      "uri": "data:application/octet-stream;base64,"
    },
    {
      "byteLength": 6612,
      "uri": "data:application/octet-stream;base64,"
    },
    {
      "byteLength": 6612,
      "uri": "data:application/octet-stream;base64,"
    },
    {
      "byteLength": 6612,
      "uri": "data:application/octet-stream;base64,"
    }
  ],
  "bufferViews": [
    {
      "buffer": 0,
      "byteOffset": 0,
      "byteLength": 3150
    },
    {
      "buffer": 1,
      "byteOffset": 0,
      "byteLength": 6612
    },
    {
      "buffer": 2,
      "byteOffset": 0,
      "byteLength": 6612
    },
    {
      "buffer": 3,
      "byteOffset": 0,
      "byteLength": 6612
    }
  ],
  "meshes": [
    {
      "primitives": [
        {
          "mode": 4,
          "indices": 0,
          "attributes": {
            "POSITION": 1,
            "NORMAL": 2,
            "COLOR_0": 3
          }
        }
      ]
    }
  ],
  "nodes": [
    {
      "children": [
        1
      ]
    },
    {
      "mesh": 0
    }
  ],
  "scenes": [
    {
      "nodes": [
        0
      ]
    }
  ],
  "scene": 0
}