{
  "asset": {
    "version": "2.0",
    "generator": "COLLADA2GLTF"
  },
  "accessors": [
    {
      "bufferView": 0,
      "byteOffset": 0,
      "componentType": 5123,
      "count": 3573,
      "min": [
        0
      ],
      "max": [
        1484
      ],
      "type": "SCALAR"
    },
    {
      "bufferView": 1,
      "byteOffset": 0,
      "componentType": 5126,
      "count": 1485,
      "max": [
        -1590,
        7.5,
        300
      ],
      "min": [
        -1851.7244873046875,
        0,
        -170.91061401367188
      ],
      "type": "VEC3"
    },
    {
      "bufferView": 2,
      "byteOffset": 0,
      "componentType": 5126,
      "count": 1485,
      "max": [
        0.9600657820701599,
        1,
        0.9995473623275757
      ],
      "min": [
        -0.9895319938659668,
        0,
        -0.9910194873809814
      ],
      "type": "VEC3"
    },
    {
      "bufferView": 3,
      "byteOffset": 0,
      "componentType": 5126,
      "count": 1485,
      "max": [
        0.999786376953125,
        1,
        0.7875028848648071
      ],
      "min": [
        0.000015259021893143654,
        0.000015259021893143654,
        0
      ],
      "type": "VEC3"
    }
  ],
  "buffers": [
    {
      "byteLength": 7146,
      "uri": "data:application/octet-stream;base64,"
    },
    {
      "byteLength": 17820,
      "uri": "data:application/octet-stream;base64,"
    },
    {
      "byteLength": 17820,
      "uri": "data:application/octet-stream;base64,"
    },
    {
      "byteLength": 17820,
      "uri": "data:application/octet-stream;base64,"
    }
  ],
  "bufferViews": [
    {
      "buffer": 0,
      "byteOffset": 0,
      "byteLength": 7146
    },
    {
      "buffer": 1,
      "byteOffset": 0,
      "byteLength": 17820
    },
    {
      "buffer": 2,
      "byteOffset": 0,
      "byteLength": 17820
    },
    {
      "buffer": 3,
      "byteOffset": 0,
      "byteLength": 17820
    }
  ],
  "meshes": [
    {
      "primitives": [
        {
          "mode": 4,
          "indices": 0,
          "attributes": {
            "POSITION": 1,
            "NORMAL": 2,
            "COLOR_0": 3
          }
        }
      ]
    }
  ],
  "nodes": [
    {
      "children": [
        1
      ]
    },
    {
      "mesh": 0
    }
  ],
  "scenes": [
    {
      "nodes": [
        0
      ]
    }
  ],
  "scene": 0
}