{
  "asset": {
    "version": "2.0",
    "generator": "COLLADA2GLTF"
  },
  "accessors": [
    {
      "bufferView": 0,
      "byteOffset": 0,
      "componentType": 5123,
      "count": 90,
      "min": [
        0
      ],
      "max": [
        75
      ],
      "type": "SCALAR"
    },
    {
      "bufferView": 1,
      "byteOffset": 0,
      "componentType": 5126,
      "count": 76,
      "max": [
        -886.4133911132812,
        52.5,
        -698.18798828125
      ],
      "min": [
        -1098.7220458984375,
        0,
        -1032.1988525390625
      ],
      "type": "VEC3"
    },
    {
      "bufferView": 2,
      "byteOffset": 0,
      "componentType": 5126,
      "count": 76,
      "max": [
        0.8177347779273987,
        0,
        0.818349301815033
      ],
      "min": [
        -0.8169324398040771,
        0,
        -0.8171573877334595
      ],
      "type": "VEC3"
    },
    {
      "bufferView": 3,
      "byteOffset": 0,
      "componentType": 5126,
      "count": 76,
      "max": [
        0.999786376953125,
        0.7875181436538696,
        0.7875028848648071
      ],
      "min": [
        0.7872740030288696,
        0.7875028848648071,
        0.26330968737602234
      ],
      "type": "VEC3"
    }
  ],
  "buffers": [
    {
      "byteLength": 180,
      "uri": "data:application/octet-stream;base64,"
    },
    {
      "byteLength": 912,
      "uri": "data:application/octet-stream;base64,"
    },
    {
      "byteLength": 912,
      "uri": "data:application/octet-stream;base64,"
    },
    {
      "byteLength": 912,
      "uri": "data:application/octet-stream;base64,"
    }
  ],
  "bufferViews": [
    {
      "buffer": 0,
      "byteOffset": 0,
      "byteLength": 180
    },
    {
      "buffer": 1,
      "byteOffset": 0,
      "byteLength": 912
    },
    {
      "buffer": 2,
      "byteOffset": 0,
      "byteLength": 912
    },
    {
      "buffer": 3,
      "byteOffset": 0,
      "byteLength": 912
    }
  ],
  "meshes": [
    {
      "primitives": [
        {
          "mode": 4,
          "indices": 0,
          "attributes": {
            "POSITION": 1,
            "NORMAL": 2,
            "COLOR_0": 3
          }
        }
      ]
    }
  ],
  "nodes": [
    {
      "children": [
        1
      ]
    },
    {
      "mesh": 0
    }
  ],
  "scenes": [
    {
      "nodes": [
        0
      ]
    }
  ],
  "scene": 0
}