{
  "asset": {
    "version": "2.0",
    "generator": "COLLADA2GLTF"
  },
  "accessors": [
    {
      "bufferView": 0,
      "byteOffset": 0,
      "componentType": 5123,
      "count": 75,
      "min": [
        0
      ],
      "max": [
        28
      ],
      "type": "SCALAR"
    },
    {
      "bufferView": 1,
      "byteOffset": 0,
      "componentType": 5126,
      "count": 29,
      "max": [
        399.9034423828125,
        0,
        -35.69983673095703
      ],
      "min": [
        295.7948913574219,
        -3,
        -112.10860443115234
      ],
      "type": "VEC3"
    },
    {
      "bufferView": 2,
      "byteOffset": 0,
      "componentType": 5126,
      "count": 29,
      "max": [
        0.786666214466095,
        1,
        0.786666214466095
      ],
      "min": [
        -0.786666214466095,
        0,
        -0.786666214466095
      ],
      "type": "VEC3"
    },
    {
      "bufferView": 3,
      "byteOffset": 0,
      "componentType": 5126,
      "count": 29,
      "max": [
        0.21585412323474884,
        0.21585412323474884,
        0.21589989960193634
      ],
      "min": [
        0.21585412323474884,
        0.21585412323474884,
        0.21589989960193634
      ],
      "type": "VEC3"
    }
  ],
  "buffers": [
    {
      "byteLength": 150,
      "uri": "data:application/octet-stream;base64,"
    },
    {
      "byteLength": 348,
      "uri": "data:application/octet-stream;base64,"
    },
    {
      "byteLength": 348,
      "uri": "data:application/octet-stream;base64,"
    },
    {
      "byteLength": 348,
      "uri": "data:application/octet-stream;base64,"
    }
  ],
  "bufferViews": [
    {
      "buffer": 0,
      "byteOffset": 0,
      "byteLength": 150
    },
    {
      "buffer": 1,
      "byteOffset": 0,
      "byteLength": 348
    },
    {
      "buffer": 2,
      "byteOffset": 0,
      "byteLength": 348
    },
    {
      "buffer": 3,
      "byteOffset": 0,
      "byteLength": 348
    }
  ],
  "meshes": [
    {
      "primitives": [
        {
          "mode": 4,
          "indices": 0,
          "attributes": {
            "POSITION": 1,
            "NORMAL": 2,
            "COLOR_0": 3
          }
        }
      ]
    }
  ],
  "nodes": [
    {
      "children": [
        1
      ]
    },
    {
      "mesh": 0
    }
  ],
  "scenes": [
    {
      "nodes": [
        0
      ]
    }
  ],
  "scene": 0
}