{
  "asset": {
    "version": "2.0",
    "generator": "COLLADA2GLTF"
  },
  "accessors": [
    {
      "bufferView": 0,
      "byteOffset": 0,
      "componentType": 5123,
      "count": 5385,
      "min": [
        0
      ],
      "max": [
        2070
      ],
      "type": "SCALAR"
    },
    {
      "bufferView": 1,
      "byteOffset": 0,
      "componentType": 5126,
      "count": 2071,
      "max": [
        -803.7044677734375,
        0.0010000000474974513,
        -360
      ],
      "min": [
        -1161.1455078125,
        0,
        -848.5579833984375
      ],
      "type": "VEC3"
    },
    {
      "bufferView": 2,
      "byteOffset": 0,
      "componentType": 5126,
      "count": 2071,
      "max": [
        0.9999812245368958,
        1,
        0.9998186826705933
      ],
      "min": [
        -0.9996978044509888,
        0,
        -0.9998102188110352
      ],
      "type": "VEC3"
    },
    {
      "bufferView": 3,
      "byteOffset": 0,
      "componentType": 5126,
      "count": 2071,
      "max": [
        0.999786376953125,
        1,
        0.7875028848648071
      ],
      "min": [
        0.000015259021893143654,
        0.07324330508708954,
        0.00004577706567943096
      ],
      "type": "VEC3"
    }
  ],
  "buffers": [
    {
      "byteLength": 10770,
      "uri": "data:application/octet-stream;base64,"
    },
    {
      "byteLength": 24852,
      "uri": "data:application/octet-stream;base64,"
    },
    {
      "byteLength": 24852,
      "uri": "data:application/octet-stream;base64,"
    },
    {
      "byteLength": 24852,
      "uri": "data:application/octet-stream;base64,"
    }
  ],
  "bufferViews": [
    {
      "buffer": 0,
      "byteOffset": 0,
      "byteLength": 10770
    },
    {
      "buffer": 1,
      "byteOffset": 0,
      "byteLength": 24852
    },
    {
      "buffer": 2,
      "byteOffset": 0,
      "byteLength": 24852
    },
    {
      "buffer": 3,
      "byteOffset": 0,
      "byteLength": 24852
    }
  ],
  "meshes": [
    {
      "primitives": [
        {
          "mode": 4,
          "indices": 0,
          "attributes": {
            "POSITION": 1,
            "NORMAL": 2,
            "COLOR_0": 3
          }
        }
      ]
    }
  ],
  "nodes": [
    {
      "children": [
        1
      ]
    },
    {
      "mesh": 0
    }
  ],
  "scenes": [
    {
      "nodes": [
        0
      ]
    }
  ],
  "scene": 0
}