{
  "asset": {
    "version": "2.0",
    "generator": "COLLADA2GLTF"
  },
  "accessors": [
    {
      "bufferView": 0,
      "byteOffset": 0,
      "componentType": 5123,
      "count": 5883,
      "min": [
        0
      ],
      "max": [
        2327
      ],
      "type": "SCALAR"
    },
    {
      "bufferView": 1,
      "byteOffset": 0,
      "componentType": 5126,
      "count": 2328,
      "max": [
        -444.3876647949219,
        2.299999952316284,
        -1260
      ],
      "min": [
        -810.9657592773438,
        0,
        -1626.6612548828125
      ],
      "type": "VEC3"
    },
    {
      "bufferView": 2,
      "byteOffset": 0,
      "componentType": 5126,
      "count": 2328,
      "max": [
        0.9898214340209961,
        1,
        1
      ],
      "min": [
        -0.9898214340209961,
        -1,
        -0.9594929814338684
      ],
      "type": "VEC3"
    },
    {
      "bufferView": 3,
      "byteOffset": 0,
      "componentType": 5126,
      "count": 2328,
      "max": [
        0.999786376953125,
        1,
        0.7875028848648071
      ],
      "min": [
        0.000015259021893143654,
        0.07324330508708954,
        0.00004577706567943096
      ],
      "type": "VEC3"
    }
  ],
  "buffers": [
    {
      "byteLength": 11766,
      "uri": "data:application/octet-stream;base64,"
    },
    {
      "byteLength": 27936,
      "uri": "data:application/octet-stream;base64,"
    },
    {
      "byteLength": 27936,
      "uri": "data:application/octet-stream;base64,"
    },
    {
      "byteLength": 27936,
      "uri": "data:application/octet-stream;base64,"
    }
  ],
  "bufferViews": [
    {
      "buffer": 0,
      "byteOffset": 0,
      "byteLength": 11766
    },
    {
      "buffer": 1,
      "byteOffset": 0,
      "byteLength": 27936
    },
    {
      "buffer": 2,
      "byteOffset": 0,
      "byteLength": 27936
    },
    {
      "buffer": 3,
      "byteOffset": 0,
      "byteLength": 27936
    }
  ],
  "meshes": [
    {
      "primitives": [
        {
          "mode": 4,
          "indices": 0,
          "attributes": {
            "POSITION": 1,
            "NORMAL": 2,
            "COLOR_0": 3
          }
        }
      ]
    }
  ],
  "nodes": [
    {
      "children": [
        1
      ]
    },
    {
      "mesh": 0
    }
  ],
  "scenes": [
    {
      "nodes": [
        0
      ]
    }
  ],
  "scene": 0
}