{
  "asset": {
    "version": "2.0",
    "generator": "COLLADA2GLTF"
  },
  "accessors": [
    {
      "bufferView": 0,
      "byteOffset": 0,
      "componentType": 5123,
      "count": 915,
      "min": [
        0
      ],
      "max": [
        448
      ],
      "type": "SCALAR"
    },
    {
      "bufferView": 1,
      "byteOffset": 0,
      "componentType": 5126,
      "count": 449,
      "max": [
        -2910.97705078125,
        0,
        1320
      ],
      "min": [
        -3120.708251953125,
        0,
        1140
      ],
      "type": "VEC3"
    },
    {
      "bufferView": 2,
      "byteOffset": 0,
      "componentType": 5126,
      "count": 449,
      "max": [
        0.8339829444885254,
        1,
        0.8379174470901489
      ],
      "min": [
        -0.9861682653427124,
        0,
        -0.8336619138717651
      ],
      "type": "VEC3"
    },
    {
      "bufferView": 3,
      "byteOffset": 0,
      "componentType": 5126,
      "count": 449,
      "max": [
        0.999786376953125,
        1,
        0.26330968737602234
      ],
      "min": [
        0.000015259021893143654,
        0.07324330508708954,
        0.00004577706567943096
      ],
      "type": "VEC3"
    }
  ],
  "buffers": [
    {
      "byteLength": 1830,
      "uri": "data:application/octet-stream;base64,"
    },
    {
      "byteLength": 5388,
      "uri": "data:application/octet-stream;base64,"
    },
    {
      "byteLength": 5388,
      "uri": "data:application/octet-stream;base64,"
    },
    {
      "byteLength": 5388,
      "uri": "data:application/octet-stream;base64,"
    }
  ],
  "bufferViews": [
    {
      "buffer": 0,
      "byteOffset": 0,
      "byteLength": 1830
    },
    {
      "buffer": 1,
      "byteOffset": 0,
      "byteLength": 5388
    },
    {
      "buffer": 2,
      "byteOffset": 0,
      "byteLength": 5388
    },
    {
      "buffer": 3,
      "byteOffset": 0,
      "byteLength": 5388
    }
  ],
  "meshes": [
    {
      "primitives": [
        {
          "mode": 4,
          "indices": 0,
          "attributes": {
            "POSITION": 1,
            "NORMAL": 2,
            "COLOR_0": 3
          }
        }
      ]
    }
  ],
  "nodes": [
    {
      "children": [
        1
      ]
    },
    {
      "mesh": 0
    }
  ],
  "scenes": [
    {
      "nodes": [
        0
      ]
    }
  ],
  "scene": 0
}