{
  "asset": {
    "version": "2.0",
    "generator": "COLLADA2GLTF"
  },
  "accessors": [
    {
      "bufferView": 0,
      "byteOffset": 0,
      "componentType": 5123,
      "count": 3516,
      "min": [
        0
      ],
      "max": [
        1269
      ],
      "type": "SCALAR"
    },
    {
      "bufferView": 1,
      "byteOffset": 0,
      "componentType": 5126,
      "count": 1270,
      "max": [
        2076.897216796875,
        0,
        -1341.1376953125
      ],
      "min": [
        1763.3055419921875,
        -3,
        -1584.948974609375
      ],
      "type": "VEC3"
    },
    {
      "bufferView": 2,
      "byteOffset": 0,
      "componentType": 5126,
      "count": 1270,
      "max": [
        0.8494776487350464,
        1,
        0.8494776487350464
      ],
      "min": [
        -0.8494776487350464,
        0,
        -0.8494776487350464
      ],
      "type": "VEC3"
    },
    {
      "bufferView": 3,
      "byteOffset": 0,
      "componentType": 5126,
      "count": 1270,
      "max": [
        0.21585412323474884,
        0.21585412323474884,
        0.21589989960193634
      ],
      "min": [
        0.21585412323474884,
        0.21585412323474884,
        0.21589989960193634
      ],
      "type": "VEC3"
    }
  ],
  "buffers": [
    {
      "byteLength": 7032,
      "uri": "data:application/octet-stream;base64,"
    },
    {
      "byteLength": 15240,
      "uri": "data:application/octet-stream;base64,"
    },
    {
      "byteLength": 15240,
      "uri": "data:application/octet-stream;base64,"
    },
    {
      "byteLength": 15240,
      "uri": "data:application/octet-stream;base64,"
    }
  ],
  "bufferViews": [
    {
      "buffer": 0,
      "byteOffset": 0,
      "byteLength": 7032
    },
    {
      "buffer": 1,
      "byteOffset": 0,
      "byteLength": 15240
    },
    {
      "buffer": 2,
      "byteOffset": 0,
      "byteLength": 15240
    },
    {
      "buffer": 3,
      "byteOffset": 0,
      "byteLength": 15240
    }
  ],
  "meshes": [
    {
      "primitives": [
        {
          "mode": 4,
          "indices": 0,
          "attributes": {
            "POSITION": 1,
            "NORMAL": 2,
            "COLOR_0": 3
          }
        }
      ]
    }
  ],
  "nodes": [
    {
      "children": [
        1
      ]
    },
    {
      "mesh": 0
    }
  ],
  "scenes": [
    {
      "nodes": [
        0
      ]
    }
  ],
  "scene": 0
}