{
  "asset": {
    "version": "2.0",
    "generator": "COLLADA2GLTF"
  },
  "accessors": [
    {
      "bufferView": 0,
      "byteOffset": 0,
      "componentType": 5123,
      "count": 42,
      "min": [
        0
      ],
      "max": [
        35
      ],
      "type": "SCALAR"
    },
    {
      "bufferView": 1,
      "byteOffset": 0,
      "componentType": 5126,
      "count": 36,
      "max": [
        -252.88812255859375,
        20,
        -339.1820983886719
      ],
      "min": [
        -309.4678649902344,
        0,
        -387.6868896484375
      ],
      "type": "VEC3"
    },
    {
      "bufferView": 2,
      "byteOffset": 0,
      "componentType": 5126,
      "count": 36,
      "max": [
        0.8789628744125366,
        0,
        0.8873778581619263
      ],
      "min": [
        -0.856981098651886,
        0,
        -0.8901371359825134
      ],
      "type": "VEC3"
    },
    {
      "bufferView": 3,
      "byteOffset": 0,
      "componentType": 5126,
      "count": 36,
      "max": [
        0.999786376953125,
        0.7875181436538696,
        0.26330968737602234
      ],
      "min": [
        0.999786376953125,
        0.7875181436538696,
        0.26330968737602234
      ],
      "type": "VEC3"
    }
  ],
  "buffers": [
    {
      "byteLength": 84,
      "uri": "data:application/octet-stream;base64,"
    },
    {
      "byteLength": 432,
      "uri": "data:application/octet-stream;base64,"
    },
    {
      "byteLength": 432,
      "uri": "data:application/octet-stream;base64,"
    },
    {
      "byteLength": 432,
      "uri": "data:application/octet-stream;base64,"
    }
  ],
  "bufferViews": [
    {
      "buffer": 0,
      "byteOffset": 0,
      "byteLength": 84
    },
    {
      "buffer": 1,
      "byteOffset": 0,
      "byteLength": 432
    },
    {
      "buffer": 2,
      "byteOffset": 0,
      "byteLength": 432
    },
    {
      "buffer": 3,
      "byteOffset": 0,
      "byteLength": 432
    }
  ],
  "meshes": [
    {
      "primitives": [
        {
          "mode": 4,
          "indices": 0,
          "attributes": {
            "POSITION": 1,
            "NORMAL": 2,
            "COLOR_0": 3
          }
        }
      ]
    }
  ],
  "nodes": [
    {
      "children": [
        1
      ]
    },
    {
      "mesh": 0
    }
  ],
  "scenes": [
    {
      "nodes": [
        0
      ]
    }
  ],
  "scene": 0
}