{
  "asset": {
    "version": "2.0",
    "generator": "COLLADA2GLTF"
  },
  "accessors": [
    {
      "bufferView": 0,
      "byteOffset": 0,
      "componentType": 5123,
      "count": 3177,
      "min": [
        0
      ],
      "max": [
        1546
      ],
      "type": "SCALAR"
    },
    {
      "bufferView": 1,
      "byteOffset": 0,
      "componentType": 5126,
      "count": 1547,
      "max": [
        -1180.3958740234375,
        7.5,
        702.1468505859375
      ],
      "min": [
        -1470,
        0,
        121.41742706298828
      ],
      "type": "VEC3"
    },
    {
      "bufferView": 2,
      "byteOffset": 0,
      "componentType": 5126,
      "count": 1547,
      "max": [
        0.8344159126281738,
        1,
        0.8344379663467407
      ],
      "min": [
        -0.8348797559738159,
        0,
        -0.8348232507705688
      ],
      "type": "VEC3"
    },
    {
      "bufferView": 3,
      "byteOffset": 0,
      "componentType": 5126,
      "count": 1547,
      "max": [
        0.999786376953125,
        1,
        0.7875028848648071
      ],
      "min": [
        0.000015259021893143654,
        0.07324330508708954,
        0.00004577706567943096
      ],
      "type": "VEC3"
    }
  ],
  "buffers": [
    {
      "byteLength": 6354,
      "uri": "data:application/octet-stream;base64,"
    },
    {
      "byteLength": 18564,
      "uri": "data:application/octet-stream;base64,"
    },
    {
      "byteLength": 18564,
      "uri": "data:application/octet-stream;base64,"
    },
    {
      "byteLength": 18564,
      "uri": "data:application/octet-stream;base64,"
    }
  ],
  "bufferViews": [
    {
      "buffer": 0,
      "byteOffset": 0,
      "byteLength": 6354
    },
    {
      "buffer": 1,
      "byteOffset": 0,
      "byteLength": 18564
    },
    {
      "buffer": 2,
      "byteOffset": 0,
      "byteLength": 18564
    },
    {
      "buffer": 3,
      "byteOffset": 0,
      "byteLength": 18564
    }
  ],
  "meshes": [
    {
      "primitives": [
        {
          "mode": 4,
          "indices": 0,
          "attributes": {
            "POSITION": 1,
            "NORMAL": 2,
            "COLOR_0": 3
          }
        }
      ]
    }
  ],
  "nodes": [
    {
      "children": [
        1
      ]
    },
    {
      "mesh": 0
    }
  ],
  "scenes": [
    {
      "nodes": [
        0
      ]
    }
  ],
  "scene": 0
}