{
  "asset": {
    "version": "2.0",
    "generator": "COLLADA2GLTF"
  },
  "accessors": [
    {
      "bufferView": 0,
      "byteOffset": 0,
      "componentType": 5123,
      "count": 423,
      "min": [
        0
      ],
      "max": [
        152
      ],
      "type": "SCALAR"
    },
    {
      "bufferView": 1,
      "byteOffset": 0,
      "componentType": 5126,
      "count": 153,
      "max": [
        794.6715698242188,
        0,
        -380.04669189453125
      ],
      "min": [
        620.4801025390625,
        -3,
        -516.9378662109375
      ],
      "type": "VEC3"
    },
    {
      "bufferView": 2,
      "byteOffset": 0,
      "componentType": 5126,
      "count": 153,
      "max": [
        0.7787037491798401,
        1,
        0.7787037491798401
      ],
      "min": [
        -0.7787037491798401,
        0,
        -0.7787037491798401
      ],
      "type": "VEC3"
    },
    {
      "bufferView": 3,
      "byteOffset": 0,
      "componentType": 5126,
      "count": 153,
      "max": [
        0.21585412323474884,
        0.21585412323474884,
        0.21589989960193634
      ],
      "min": [
        0.21585412323474884,
        0.21585412323474884,
        0.21589989960193634
      ],
      "type": "VEC3"
    }
  ],
  "buffers": [
    {
      "byteLength": 846,
      "uri": "data:application/octet-stream;base64,"
    },
    {
      "byteLength": 1836,
      "uri": "data:application/octet-stream;base64,"
    },
    {
      "byteLength": 1836,
      "uri": "data:application/octet-stream;base64,"
    },
    {
      "byteLength": 1836,
      "uri": "data:application/octet-stream;base64,"
    }
  ],
  "bufferViews": [
    {
      "buffer": 0,
      "byteOffset": 0,
      "byteLength": 846
    },
    {
      "buffer": 1,
      "byteOffset": 0,
      "byteLength": 1836
    },
    {
      "buffer": 2,
      "byteOffset": 0,
      "byteLength": 1836
    },
    {
      "buffer": 3,
      "byteOffset": 0,
      "byteLength": 1836
    }
  ],
  "meshes": [
    {
      "primitives": [
        {
          "mode": 4,
          "indices": 0,
          "attributes": {
            "POSITION": 1,
            "NORMAL": 2,
            "COLOR_0": 3
          }
        }
      ]
    }
  ],
  "nodes": [
    {
      "children": [
        1
      ]
    },
    {
      "mesh": 0
    }
  ],
  "scenes": [
    {
      "nodes": [
        0
      ]
    }
  ],
  "scene": 0
}