{
  "asset": {
    "version": "2.0",
    "generator": "COLLADA2GLTF"
  },
  "accessors": [
    {
      "bufferView": 0,
      "byteOffset": 0,
      "componentType": 5123,
      "count": 3246,
      "min": [
        0
      ],
      "max": [
        1853
      ],
      "type": "SCALAR"
    },
    {
      "bufferView": 1,
      "byteOffset": 0,
      "componentType": 5126,
      "count": 1854,
      "max": [
        2712.48388671875,
        145,
        1537.708740234375
      ],
      "min": [
        -1095.1405029296875,
        0,
        997.6929931640625
      ],
      "type": "VEC3"
    },
    {
      "bufferView": 2,
      "byteOffset": 0,
      "componentType": 5126,
      "count": 1854,
      "max": [
        0.992046058177948,
        1,
        0.9940211772918701
      ],
      "min": [
        -0.998901903629303,
        0,
        -0.9986026287078857
      ],
      "type": "VEC3"
    },
    {
      "bufferView": 3,
      "byteOffset": 0,
      "componentType": 5126,
      "count": 1854,
      "max": [
        0.999786376953125,
        0.7875181436538696,
        0.7875028848648071
      ],
      "min": [
        0.6036774516105652,
        0.00003051804378628731,
        0
      ],
      "type": "VEC3"
    }
  ],
  "buffers": [
    {
      "byteLength": 6492,
      "uri": "data:application/octet-stream;base64,"
    },
    {
      "byteLength": 22248,
      "uri": "data:application/octet-stream;base64,"
    },
    {
      "byteLength": 22248,
      "uri": "data:application/octet-stream;base64,"
    },
    {
      "byteLength": 22248,
      "uri": "data:application/octet-stream;base64,"
    }
  ],
  "bufferViews": [
    {
      "buffer": 0,
      "byteOffset": 0,
      "byteLength": 6492
    },
    {
      "buffer": 1,
      "byteOffset": 0,
      "byteLength": 22248
    },
    {
      "buffer": 2,
      "byteOffset": 0,
      "byteLength": 22248
    },
    {
      "buffer": 3,
      "byteOffset": 0,
      "byteLength": 22248
    }
  ],
  "meshes": [
    {
      "primitives": [
        {
          "mode": 4,
          "indices": 0,
          "attributes": {
            "POSITION": 1,
            "NORMAL": 2,
            "COLOR_0": 3
          }
        }
      ]
    }
  ],
  "nodes": [
    {
      "children": [
        1
      ]
    },
    {
      "mesh": 0
    }
  ],
  "scenes": [
    {
      "nodes": [
        0
      ]
    }
  ],
  "scene": 0
}