{
  "asset": {
    "version": "2.0",
    "generator": "COLLADA2GLTF"
  },
  "accessors": [
    {
      "bufferView": 0,
      "byteOffset": 0,
      "componentType": 5123,
      "count": 291,
      "min": [
        0
      ],
      "max": [
        104
      ],
      "type": "SCALAR"
    },
    {
      "bufferView": 1,
      "byteOffset": 0,
      "componentType": 5126,
      "count": 105,
      "max": [
        -4635.4287109375,
        14.324999809265137,
        -368.0232849121094
      ],
      "min": [
        -4712.2138671875,
        9.28499984741211,
        -422.17681884765625
      ],
      "type": "VEC3"
    },
    {
      "bufferView": 2,
      "byteOffset": 0,
      "componentType": 5126,
      "count": 105,
      "max": [
        0.3155057728290558,
        0.706777811050415,
        0.6669110655784607
      ],
      "min": [
        -0.32653531432151794,
        -0.7064625024795532,
        -0.6669110655784607
      ],
      "type": "VEC3"
    },
    {
      "bufferView": 3,
      "byteOffset": 0,
      "componentType": 5126,
      "count": 105,
      "max": [
        0,
        0,
        0
      ],
      "min": [
        0,
        0,
        0
      ],
      "type": "VEC3"
    }
  ],
  "buffers": [
    {
      "byteLength": 582,
      "uri": "data:application/octet-stream;base64,"
    },
    {
      "byteLength": 1260,
      "uri": "data:application/octet-stream;base64,"
    },
    {
      "byteLength": 1260,
      "uri": "data:application/octet-stream;base64,"
    },
    {
      "byteLength": 1260,
      "uri": "data:application/octet-stream;base64,"
    }
  ],
  "bufferViews": [
    {
      "buffer": 0,
      "byteOffset": 0,
      "byteLength": 582
    },
    {
      "buffer": 1,
      "byteOffset": 0,
      "byteLength": 1260
    },
    {
      "buffer": 2,
      "byteOffset": 0,
      "byteLength": 1260
    },
    {
      "buffer": 3,
      "byteOffset": 0,
      "byteLength": 1260
    }
  ],
  "meshes": [
    {
      "primitives": [
        {
          "mode": 4,
          "indices": 0,
          "attributes": {
            "POSITION": 1,
            "NORMAL": 2,
            "COLOR_0": 3
          }
        }
      ]
    }
  ],
  "nodes": [
    {
      "children": [
        1
      ]
    },
    {
      "mesh": 0
    }
  ],
  "scenes": [
    {
      "nodes": [
        0
      ]
    }
  ],
  "scene": 0
}