{
  "asset": {
    "version": "2.0",
    "generator": "COLLADA2GLTF"
  },
  "accessors": [
    {
      "bufferView": 0,
      "byteOffset": 0,
      "componentType": 5123,
      "count": 5871,
      "min": [
        0
      ],
      "max": [
        2253
      ],
      "type": "SCALAR"
    },
    {
      "bufferView": 1,
      "byteOffset": 0,
      "componentType": 5126,
      "count": 2254,
      "max": [
        -798.919677734375,
        0.0010000000474974513,
        540
      ],
      "min": [
        -1140,
        0,
        -60
      ],
      "type": "VEC3"
    },
    {
      "bufferView": 2,
      "byteOffset": 0,
      "componentType": 5126,
      "count": 2254,
      "max": [
        0.970108151435852,
        1,
        0.970039427280426
      ],
      "min": [
        -0.9700531363487244,
        0,
        -0.9700210094451904
      ],
      "type": "VEC3"
    },
    {
      "bufferView": 3,
      "byteOffset": 0,
      "componentType": 5126,
      "count": 2254,
      "max": [
        0.999786376953125,
        1,
        0.7875028848648071
      ],
      "min": [
        0.000015259021893143654,
        0.07324330508708954,
        0.00004577706567943096
      ],
      "type": "VEC3"
    }
  ],
  "buffers": [
    {
      "byteLength": 11742,
      "uri": "data:application/octet-stream;base64,"
    },
    {
      "byteLength": 27048,
      "uri": "data:application/octet-stream;base64,"
    },
    {
      "byteLength": 27048,
      "uri": "data:application/octet-stream;base64,"
    },
    {
      "byteLength": 27048,
      "uri": "data:application/octet-stream;base64,"
    }
  ],
  "bufferViews": [
    {
      "buffer": 0,
      "byteOffset": 0,
      "byteLength": 11742
    },
    {
      "buffer": 1,
      "byteOffset": 0,
      "byteLength": 27048
    },
    {
      "buffer": 2,
      "byteOffset": 0,
      "byteLength": 27048
    },
    {
      "buffer": 3,
      "byteOffset": 0,
      "byteLength": 27048
    }
  ],
  "meshes": [
    {
      "primitives": [
        {
          "mode": 4,
          "indices": 0,
          "attributes": {
            "POSITION": 1,
            "NORMAL": 2,
            "COLOR_0": 3
          }
        }
      ]
    }
  ],
  "nodes": [
    {
      "children": [
        1
      ]
    },
    {
      "mesh": 0
    }
  ],
  "scenes": [
    {
      "nodes": [
        0
      ]
    }
  ],
  "scene": 0
}