{
  "asset": {
    "version": "2.0",
    "generator": "COLLADA2GLTF"
  },
  "accessors": [
    {
      "bufferView": 0,
      "byteOffset": 0,
      "componentType": 5123,
      "count": 75,
      "min": [
        0
      ],
      "max": [
        48
      ],
      "type": "SCALAR"
    },
    {
      "bufferView": 1,
      "byteOffset": 0,
      "componentType": 5126,
      "count": 49,
      "max": [
        1628.7889404296875,
        7.5,
        733.1010131835938
      ],
      "min": [
        1558.7850341796875,
        0,
        609.530029296875
      ],
      "type": "VEC3"
    },
    {
      "bufferView": 2,
      "byteOffset": 0,
      "componentType": 5126,
      "count": 49,
      "max": [
        0.9889529943466187,
        1,
        0.9889244437217712
      ],
      "min": [
        -0.9889523386955261,
        0,
        -0.988929033279419
      ],
      "type": "VEC3"
    },
    {
      "bufferView": 3,
      "byteOffset": 0,
      "componentType": 5126,
      "count": 49,
      "max": [
        0.999786376953125,
        0.7875181436538696,
        0.26330968737602234
      ],
      "min": [
        0.6036774516105652,
        0.00003051804378628731,
        0
      ],
      "type": "VEC3"
    }
  ],
  "buffers": [
    {
      "byteLength": 150,
      "uri": "data:application/octet-stream;base64,"
    },
    {
      "byteLength": 588,
      "uri": "data:application/octet-stream;base64,"
    },
    {
      "byteLength": 588,
      "uri": "data:application/octet-stream;base64,"
    },
    {
      "byteLength": 588,
      "uri": "data:application/octet-stream;base64,"
    }
  ],
  "bufferViews": [
    {
      "buffer": 0,
      "byteOffset": 0,
      "byteLength": 150
    },
    {
      "buffer": 1,
      "byteOffset": 0,
      "byteLength": 588
    },
    {
      "buffer": 2,
      "byteOffset": 0,
      "byteLength": 588
    },
    {
      "buffer": 3,
      "byteOffset": 0,
      "byteLength": 588
    }
  ],
  "meshes": [
    {
      "primitives": [
        {
          "mode": 4,
          "indices": 0,
          "attributes": {
            "POSITION": 1,
            "NORMAL": 2,
            "COLOR_0": 3
          }
        }
      ]
    }
  ],
  "nodes": [
    {
      "children": [
        1
      ]
    },
    {
      "mesh": 0
    }
  ],
  "scenes": [
    {
      "nodes": [
        0
      ]
    }
  ],
  "scene": 0
}