{
  "asset": {
    "version": "2.0",
    "generator": "COLLADA2GLTF"
  },
  "accessors": [
    {
      "bufferView": 0,
      "byteOffset": 0,
      "componentType": 5123,
      "count": 435,
      "min": [
        0
      ],
      "max": [
        178
      ],
      "type": "SCALAR"
    },
    {
      "bufferView": 1,
      "byteOffset": 0,
      "componentType": 5126,
      "count": 179,
      "max": [
        1873.19384765625,
        0.0010000000474974513,
        1591.6728515625
      ],
      "min": [
        1697.1090087890625,
        0,
        773.5322265625
      ],
      "type": "VEC3"
    },
    {
      "bufferView": 2,
      "byteOffset": 0,
      "componentType": 5126,
      "count": 179,
      "max": [
        0,
        1,
        0
      ],
      "min": [
        0,
        1,
        0
      ],
      "type": "VEC3"
    },
    {
      "bufferView": 3,
      "byteOffset": 0,
      "componentType": 5126,
      "count": 179,
      "max": [
        0.13284504413604736,
        1,
        1
      ],
      "min": [
        0,
        0.00003051804378628731,
        0.00004577706567943096
      ],
      "type": "VEC3"
    }
  ],
  "buffers": [
    {
      "byteLength": 870,
      "uri": "data:application/octet-stream;base64,"
    },
    {
      "byteLength": 2148,
      "uri": "data:application/octet-stream;base64,"
    },
    {
      "byteLength": 2148,
      "uri": "data:application/octet-stream;base64,"
    },
    {
      "byteLength": 2148,
      "uri": "data:application/octet-stream;base64,"
    }
  ],
  "bufferViews": [
    {
      "buffer": 0,
      "byteOffset": 0,
      "byteLength": 870
    },
    {
      "buffer": 1,
      "byteOffset": 0,
      "byteLength": 2148
    },
    {
      "buffer": 2,
      "byteOffset": 0,
      "byteLength": 2148
    },
    {
      "buffer": 3,
      "byteOffset": 0,
      "byteLength": 2148
    }
  ],
  "meshes": [
    {
      "primitives": [
        {
          "mode": 4,
          "indices": 0,
          "attributes": {
            "POSITION": 1,
            "NORMAL": 2,
            "COLOR_0": 3
          }
        }
      ]
    }
  ],
  "nodes": [
    {
      "children": [
        1
      ]
    },
    {
      "mesh": 0
    }
  ],
  "scenes": [
    {
      "nodes": [
        0
      ]
    }
  ],
  "scene": 0
}