{
  "asset": {
    "version": "2.0",
    "generator": "COLLADA2GLTF"
  },
  "accessors": [
    {
      "bufferView": 0,
      "byteOffset": 0,
      "componentType": 5123,
      "count": 465,
      "min": [
        0
      ],
      "max": [
        185
      ],
      "type": "SCALAR"
    },
    {
      "bufferView": 1,
      "byteOffset": 0,
      "componentType": 5126,
      "count": 186,
      "max": [
        4418.2353515625,
        14.28499984741211,
        7452.96142578125
      ],
      "min": [
        4295.7197265625,
        13.274999618530273,
        7354.5087890625
      ],
      "type": "VEC3"
    },
    {
      "bufferView": 2,
      "byteOffset": 0,
      "componentType": 5126,
      "count": 186,
      "max": [
        0.4424484968185425,
        0.707101583480835,
        0.565743625164032
      ],
      "min": [
        -0.4424484968185425,
        -0.707101583480835,
        -0.565743625164032
      ],
      "type": "VEC3"
    },
    {
      "bufferView": 3,
      "byteOffset": 0,
      "componentType": 5126,
      "count": 186,
      "max": [
        0,
        0,
        0
      ],
      "min": [
        0,
        0,
        0
      ],
      "type": "VEC3"
    }
  ],
  "buffers": [
    {
      "byteLength": 930,
      "uri": "data:application/octet-stream;base64,"
    },
    {
      "byteLength": 2232,
      "uri": "data:application/octet-stream;base64,"
    },
    {
      "byteLength": 2232,
      "uri": "data:application/octet-stream;base64,"
    },
    {
      "byteLength": 2232,
      "uri": "data:application/octet-stream;base64,"
    }
  ],
  "bufferViews": [
    {
      "buffer": 0,
      "byteOffset": 0,
      "byteLength": 930
    },
    {
      "buffer": 1,
      "byteOffset": 0,
      "byteLength": 2232
    },
    {
      "buffer": 2,
      "byteOffset": 0,
      "byteLength": 2232
    },
    {
      "buffer": 3,
      "byteOffset": 0,
      "byteLength": 2232
    }
  ],
  "meshes": [
    {
      "primitives": [
        {
          "mode": 4,
          "indices": 0,
          "attributes": {
            "POSITION": 1,
            "NORMAL": 2,
            "COLOR_0": 3
          }
        }
      ]
    }
  ],
  "nodes": [
    {
      "children": [
        1
      ]
    },
    {
      "mesh": 0
    }
  ],
  "scenes": [
    {
      "nodes": [
        0
      ]
    }
  ],
  "scene": 0
}