{
  "asset": {
    "version": "2.0",
    "generator": "COLLADA2GLTF"
  },
  "accessors": [
    {
      "bufferView": 0,
      "byteOffset": 0,
      "componentType": 5123,
      "count": 4290,
      "min": [
        0
      ],
      "max": [
        1577
      ],
      "type": "SCALAR"
    },
    {
      "bufferView": 1,
      "byteOffset": 0,
      "componentType": 5126,
      "count": 1578,
      "max": [
        425.18292236328125,
        0.10000000149011612,
        -30.09016227722168
      ],
      "min": [
        295.7948913574219,
        -0.20000000298023224,
        -136.23890686035156
      ],
      "type": "VEC3"
    },
    {
      "bufferView": 2,
      "byteOffset": 0,
      "componentType": 5126,
      "count": 1578,
      "max": [
        0.786666214466095,
        1,
        0.9736360907554626
      ],
      "min": [
        -0.9698564410209656,
        -1,
        -0.9736360907554626
      ],
      "type": "VEC3"
    },
    {
      "bufferView": 3,
      "byteOffset": 0,
      "componentType": 5126,
      "count": 1578,
      "max": [
        0.7872740030288696,
        1,
        0.7875028848648071
      ],
      "min": [
        0,
        0.07324330508708954,
        0.000015259021893143654
      ],
      "type": "VEC3"
    }
  ],
  "buffers": [
    {
      "byteLength": 8580,
      "uri": "data:application/octet-stream;base64,"
    },
    {
      "byteLength": 18936,
      "uri": "data:application/octet-stream;base64,"
    },
    {
      "byteLength": 18936,
      "uri": "data:application/octet-stream;base64,"
    },
    {
      "byteLength": 18936,
      "uri": "data:application/octet-stream;base64,"
    }
  ],
  "bufferViews": [
    {
      "buffer": 0,
      "byteOffset": 0,
      "byteLength": 8580
    },
    {
      "buffer": 1,
      "byteOffset": 0,
      "byteLength": 18936
    },
    {
      "buffer": 2,
      "byteOffset": 0,
      "byteLength": 18936
    },
    {
      "buffer": 3,
      "byteOffset": 0,
      "byteLength": 18936
    }
  ],
  "meshes": [
    {
      "primitives": [
        {
          "mode": 4,
          "indices": 0,
          "attributes": {
            "POSITION": 1,
            "NORMAL": 2,
            "COLOR_0": 3
          }
        }
      ]
    }
  ],
  "nodes": [
    {
      "children": [
        1
      ]
    },
    {
      "mesh": 0
    }
  ],
  "scenes": [
    {
      "nodes": [
        0
      ]
    }
  ],
  "scene": 0
}