{
  "asset": {
    "version": "2.0",
    "generator": "COLLADA2GLTF"
  },
  "accessors": [
    {
      "bufferView": 0,
      "byteOffset": 0,
      "componentType": 5123,
      "count": 2703,
      "min": [
        0
      ],
      "max": [
        975
      ],
      "type": "SCALAR"
    },
    {
      "bufferView": 1,
      "byteOffset": 0,
      "componentType": 5126,
      "count": 976,
      "max": [
        294.8132629394531,
        0.10000000149011612,
        -10.48863410949707
      ],
      "min": [
        246.50308227539062,
        0,
        -84.80934143066406
      ],
      "type": "VEC3"
    },
    {
      "bufferView": 2,
      "byteOffset": 0,
      "componentType": 5126,
      "count": 976,
      "max": [
        0.9852394461631775,
        1,
        0.9852394461631775
      ],
      "min": [
        -0.8071895241737366,
        -1,
        -0.9852394461631775
      ],
      "type": "VEC3"
    },
    {
      "bufferView": 3,
      "byteOffset": 0,
      "componentType": 5126,
      "count": 976,
      "max": [
        0.7872740030288696,
        1,
        0.7875028848648071
      ],
      "min": [
        0.000015259021893143654,
        0.07324330508708954,
        0.00004577706567943096
      ],
      "type": "VEC3"
    }
  ],
  "buffers": [
    {
      "byteLength": 5406,
      "uri": "data:application/octet-stream;base64,"
    },
    {
      "byteLength": 11712,
      "uri": "data:application/octet-stream;base64,"
    },
    {
      "byteLength": 11712,
      "uri": "data:application/octet-stream;base64,"
    },
    {
      "byteLength": 11712,
      "uri": "data:application/octet-stream;base64,"
    }
  ],
  "bufferViews": [
    {
      "buffer": 0,
      "byteOffset": 0,
      "byteLength": 5406
    },
    {
      "buffer": 1,
      "byteOffset": 0,
      "byteLength": 11712
    },
    {
      "buffer": 2,
      "byteOffset": 0,
      "byteLength": 11712
    },
    {
      "buffer": 3,
      "byteOffset": 0,
      "byteLength": 11712
    }
  ],
  "meshes": [
    {
      "primitives": [
        {
          "mode": 4,
          "indices": 0,
          "attributes": {
            "POSITION": 1,
            "NORMAL": 2,
            "COLOR_0": 3
          }
        }
      ]
    }
  ],
  "nodes": [
    {
      "children": [
        1
      ]
    },
    {
      "mesh": 0
    }
  ],
  "scenes": [
    {
      "nodes": [
        0
      ]
    }
  ],
  "scene": 0
}