{
  "asset": {
    "version": "2.0",
    "generator": "COLLADA2GLTF"
  },
  "accessors": [
    {
      "bufferView": 0,
      "byteOffset": 0,
      "componentType": 5123,
      "count": 1521,
      "min": [
        0
      ],
      "max": [
        644
      ],
      "type": "SCALAR"
    },
    {
      "bufferView": 1,
      "byteOffset": 0,
      "componentType": 5126,
      "count": 645,
      "max": [
        723.0859985351562,
        0.0010000000474974513,
        4810.85498046875
      ],
      "min": [
        -2097.998046875,
        0,
        -4791.05810546875
      ],
      "type": "VEC3"
    },
    {
      "bufferView": 2,
      "byteOffset": 0,
      "componentType": 5126,
      "count": 645,
      "max": [
        0,
        1,
        0
      ],
      "min": [
        0,
        1,
        0
      ],
      "type": "VEC3"
    },
    {
      "bufferView": 3,
      "byteOffset": 0,
      "componentType": 5126,
      "count": 645,
      "max": [
        0.7872740030288696,
        0.7875028848648071,
        1
      ],
      "min": [
        0,
        0.00003051804378628731,
        0.07325856387615204
      ],
      "type": "VEC3"
    }
  ],
  "buffers": [
    {
      "byteLength": 3042,
      "uri": "data:application/octet-stream;base64,"
    },
    {
      "byteLength": 7740,
      "uri": "data:application/octet-stream;base64,"
    },
    {
      "byteLength": 7740,
      "uri": "data:application/octet-stream;base64,"
    },
    {
      "byteLength": 7740,
      "uri": "data:application/octet-stream;base64,"
    }
  ],
  "bufferViews": [
    {
      "buffer": 0,
      "byteOffset": 0,
      "byteLength": 3042
    },
    {
      "buffer": 1,
      "byteOffset": 0,
      "byteLength": 7740
    },
    {
      "buffer": 2,
      "byteOffset": 0,
      "byteLength": 7740
    },
    {
      "buffer": 3,
      "byteOffset": 0,
      "byteLength": 7740
    }
  ],
  "meshes": [
    {
      "primitives": [
        {
          "mode": 4,
          "indices": 0,
          "attributes": {
            "POSITION": 1,
            "NORMAL": 2,
            "COLOR_0": 3
          }
        }
      ]
    }
  ],
  "nodes": [
    {
      "children": [
        1
      ]
    },
    {
      "mesh": 0
    }
  ],
  "scenes": [
    {
      "nodes": [
        0
      ]
    }
  ],
  "scene": 0
}