{
  "asset": {
    "version": "2.0",
    "generator": "COLLADA2GLTF"
  },
  "accessors": [
    {
      "bufferView": 0,
      "byteOffset": 0,
      "componentType": 5123,
      "count": 3645,
      "min": [
        0
      ],
      "max": [
        1432
      ],
      "type": "SCALAR"
    },
    {
      "bufferView": 1,
      "byteOffset": 0,
      "componentType": 5126,
      "count": 1433,
      "max": [
        -467.9136962890625,
        0.0010000000474974513,
        1737.1683349609375
      ],
      "min": [
        -711.3413696289062,
        0,
        1427.6187744140625
      ],
      "type": "VEC3"
    },
    {
      "bufferView": 2,
      "byteOffset": 0,
      "componentType": 5126,
      "count": 1433,
      "max": [
        0.7149119973182678,
        1,
        0.7792618870735168
      ],
      "min": [
        -0.998901903629303,
        0,
        -0.7739265561103821
      ],
      "type": "VEC3"
    },
    {
      "bufferView": 3,
      "byteOffset": 0,
      "componentType": 5126,
      "count": 1433,
      "max": [
        0.999786376953125,
        1,
        0.7875028848648071
      ],
      "min": [
        0.000015259021893143654,
        0.07324330508708954,
        0.00004577706567943096
      ],
      "type": "VEC3"
    }
  ],
  "buffers": [
    {
      "byteLength": 7290,
      "uri": "data:application/octet-stream;base64,"
    },
    {
      "byteLength": 17196,
      "uri": "data:application/octet-stream;base64,"
    },
    {
      "byteLength": 17196,
      "uri": "data:application/octet-stream;base64,"
    },
    {
      "byteLength": 17196,
      "uri": "data:application/octet-stream;base64,"
    }
  ],
  "bufferViews": [
    {
      "buffer": 0,
      "byteOffset": 0,
      "byteLength": 7290
    },
    {
      "buffer": 1,
      "byteOffset": 0,
      "byteLength": 17196
    },
    {
      "buffer": 2,
      "byteOffset": 0,
      "byteLength": 17196
    },
    {
      "buffer": 3,
      "byteOffset": 0,
      "byteLength": 17196
    }
  ],
  "meshes": [
    {
      "primitives": [
        {
          "mode": 4,
          "indices": 0,
          "attributes": {
            "POSITION": 1,
            "NORMAL": 2,
            "COLOR_0": 3
          }
        }
      ]
    }
  ],
  "nodes": [
    {
      "children": [
        1
      ]
    },
    {
      "mesh": 0
    }
  ],
  "scenes": [
    {
      "nodes": [
        0
      ]
    }
  ],
  "scene": 0
}