{
  "asset": {
    "version": "2.0",
    "generator": "COLLADA2GLTF"
  },
  "accessors": [
    {
      "bufferView": 0,
      "byteOffset": 0,
      "componentType": 5123,
      "count": 822,
      "min": [
        0
      ],
      "max": [
        433
      ],
      "type": "SCALAR"
    },
    {
      "bufferView": 1,
      "byteOffset": 0,
      "componentType": 5126,
      "count": 434,
      "max": [
        2981.75390625,
        7.5,
        -1374.072998046875
      ],
      "min": [
        2721.951904296875,
        0,
        -1614.4000244140625
      ],
      "type": "VEC3"
    },
    {
      "bufferView": 2,
      "byteOffset": 0,
      "componentType": 5126,
      "count": 434,
      "max": [
        1,
        0,
        1
      ],
      "min": [
        -1,
        0,
        -1
      ],
      "type": "VEC3"
    },
    {
      "bufferView": 3,
      "byteOffset": 0,
      "componentType": 5126,
      "count": 434,
      "max": [
        0.999786376953125,
        0.7875181436538696,
        0.26330968737602234
      ],
      "min": [
        0.999786376953125,
        0.7875181436538696,
        0.26330968737602234
      ],
      "type": "VEC3"
    }
  ],
  "buffers": [
    {
      "byteLength": 1644,
      "uri": "data:application/octet-stream;base64,"
    },
    {
      "byteLength": 5208,
      "uri": "data:application/octet-stream;base64,"
    },
    {
      "byteLength": 5208,
      "uri": "data:application/octet-stream;base64,"
    },
    {
      "byteLength": 5208,
      "uri": "data:application/octet-stream;base64,"
    }
  ],
  "bufferViews": [
    {
      "buffer": 0,
      "byteOffset": 0,
      "byteLength": 1644
    },
    {
      "buffer": 1,
      "byteOffset": 0,
      "byteLength": 5208
    },
    {
      "buffer": 2,
      "byteOffset": 0,
      "byteLength": 5208
    },
    {
      "buffer": 3,
      "byteOffset": 0,
      "byteLength": 5208
    }
  ],
  "meshes": [
    {
      "primitives": [
        {
          "mode": 4,
          "indices": 0,
          "attributes": {
            "POSITION": 1,
            "NORMAL": 2,
            "COLOR_0": 3
          }
        }
      ]
    }
  ],
  "nodes": [
    {
      "children": [
        1
      ]
    },
    {
      "mesh": 0
    }
  ],
  "scenes": [
    {
      "nodes": [
        0
      ]
    }
  ],
  "scene": 0
}