{
  "asset": {
    "version": "2.0",
    "generator": "COLLADA2GLTF"
  },
  "accessors": [
    {
      "bufferView": 0,
      "byteOffset": 0,
      "componentType": 5123,
      "count": 3111,
      "min": [
        0
      ],
      "max": [
        1193
      ],
      "type": "SCALAR"
    },
    {
      "bufferView": 1,
      "byteOffset": 0,
      "componentType": 5126,
      "count": 1194,
      "max": [
        198.47096252441406,
        0.11999999731779099,
        475.2917175292969
      ],
      "min": [
        53.71186447143555,
        0,
        125.18900299072266
      ],
      "type": "VEC3"
    },
    {
      "bufferView": 2,
      "byteOffset": 0,
      "componentType": 5126,
      "count": 1194,
      "max": [
        0.9986621141433716,
        1,
        0.8936370611190796
      ],
      "min": [
        -0.9999532699584961,
        0,
        -0.7342352271080017
      ],
      "type": "VEC3"
    },
    {
      "bufferView": 3,
      "byteOffset": 0,
      "componentType": 5126,
      "count": 1194,
      "max": [
        0.7872740030288696,
        1,
        1
      ],
      "min": [
        0,
        0.00003051804378628731,
        0.00004577706567943096
      ],
      "type": "VEC3"
    }
  ],
  "buffers": [
    {
      "byteLength": 6222,
      "uri": "data:application/octet-stream;base64,"
    },
    {
      "byteLength": 14328,
      "uri": "data:application/octet-stream;base64,"
    },
    {
      "byteLength": 14328,
      "uri": "data:application/octet-stream;base64,"
    },
    {
      "byteLength": 14328,
      "uri": "data:application/octet-stream;base64,"
    }
  ],
  "bufferViews": [
    {
      "buffer": 0,
      "byteOffset": 0,
      "byteLength": 6222
    },
    {
      "buffer": 1,
      "byteOffset": 0,
      "byteLength": 14328
    },
    {
      "buffer": 2,
      "byteOffset": 0,
      "byteLength": 14328
    },
    {
      "buffer": 3,
      "byteOffset": 0,
      "byteLength": 14328
    }
  ],
  "meshes": [
    {
      "primitives": [
        {
          "mode": 4,
          "indices": 0,
          "attributes": {
            "POSITION": 1,
            "NORMAL": 2,
            "COLOR_0": 3
          }
        }
      ]
    }
  ],
  "nodes": [
    {
      "children": [
        1
      ]
    },
    {
      "mesh": 0
    }
  ],
  "scenes": [
    {
      "nodes": [
        0
      ]
    }
  ],
  "scene": 0
}