{
  "asset": {
    "version": "2.0",
    "generator": "COLLADA2GLTF"
  },
  "accessors": [
    {
      "bufferView": 0,
      "byteOffset": 0,
      "componentType": 5123,
      "count": 2601,
      "min": [
        0
      ],
      "max": [
        964
      ],
      "type": "SCALAR"
    },
    {
      "bufferView": 1,
      "byteOffset": 0,
      "componentType": 5126,
      "count": 965,
      "max": [
        -2128.677734375,
        17.165000915527344,
        2507.45751953125
      ],
      "min": [
        -2223.71142578125,
        12,
        2163.096435546875
      ],
      "type": "VEC3"
    },
    {
      "bufferView": 2,
      "byteOffset": 0,
      "componentType": 5126,
      "count": 965,
      "max": [
        0.9934647679328918,
        0.7071007490158081,
        0.9934647679328918
      ],
      "min": [
        -0.9934647679328918,
        -0.7071007490158081,
        -0.9934647679328918
      ],
      "type": "VEC3"
    },
    {
      "bufferView": 3,
      "byteOffset": 0,
      "componentType": 5126,
      "count": 965,
      "max": [
        0.4480048716068268,
        0.4480048716068268,
        0.4480659067630768
      ],
      "min": [
        0,
        0,
        0
      ],
      "type": "VEC3"
    }
  ],
  "buffers": [
    {
      "byteLength": 5202,
      "uri": "data:application/octet-stream;base64,"
    },
    {
      "byteLength": 11580,
      "uri": "data:application/octet-stream;base64,"
    },
    {
      "byteLength": 11580,
      "uri": "data:application/octet-stream;base64,"
    },
    {
      "byteLength": 11580,
      "uri": "data:application/octet-stream;base64,"
    }
  ],
  "bufferViews": [
    {
      "buffer": 0,
      "byteOffset": 0,
      "byteLength": 5202
    },
    {
      "buffer": 1,
      "byteOffset": 0,
      "byteLength": 11580
    },
    {
      "buffer": 2,
      "byteOffset": 0,
      "byteLength": 11580
    },
    {
      "buffer": 3,
      "byteOffset": 0,
      "byteLength": 11580
    }
  ],
  "meshes": [
    {
      "primitives": [
        {
          "mode": 4,
          "indices": 0,
          "attributes": {
            "POSITION": 1,
            "NORMAL": 2,
            "COLOR_0": 3
          }
        }
      ]
    }
  ],
  "nodes": [
    {
      "children": [
        1
      ]
    },
    {
      "mesh": 0
    }
  ],
  "scenes": [
    {
      "nodes": [
        0
      ]
    }
  ],
  "scene": 0
}