{
  "asset": {
    "version": "2.0",
    "generator": "COLLADA2GLTF"
  },
  "accessors": [
    {
      "bufferView": 0,
      "byteOffset": 0,
      "componentType": 5123,
      "count": 4437,
      "min": [
        0
      ],
      "max": [
        1486
      ],
      "type": "SCALAR"
    },
    {
      "bufferView": 1,
      "byteOffset": 0,
      "componentType": 5126,
      "count": 1487,
      "max": [
        -645.6828002929688,
        0.06400000303983688,
        2361.3466796875
      ],
      "min": [
        -687.0029907226562,
        0,
        2345.421142578125
      ],
      "type": "VEC3"
    },
    {
      "bufferView": 2,
      "byteOffset": 0,
      "componentType": 5126,
      "count": 1487,
      "max": [
        0.9446572661399841,
        1,
        0.9446572661399841
      ],
      "min": [
        -0.9446572661399841,
        0,
        -0.9446572661399841
      ],
      "type": "VEC3"
    },
    {
      "bufferView": 3,
      "byteOffset": 0,
      "componentType": 5126,
      "count": 1487,
      "max": [
        0.07322804629802704,
        0.03309682011604309,
        0.03311207890510559
      ],
      "min": [
        0.07322804629802704,
        0.03309682011604309,
        0.03311207890510559
      ],
      "type": "VEC3"
    }
  ],
  "buffers": [
    {
      "byteLength": 8874,
      "uri": "data:application/octet-stream;base64,"
    },
    {
      "byteLength": 17844,
      "uri": "data:application/octet-stream;base64,"
    },
    {
      "byteLength": 17844,
      "uri": "data:application/octet-stream;base64,"
    },
    {
      "byteLength": 17844,
      "uri": "data:application/octet-stream;base64,"
    }
  ],
  "bufferViews": [
    {
      "buffer": 0,
      "byteOffset": 0,
      "byteLength": 8874
    },
    {
      "buffer": 1,
      "byteOffset": 0,
      "byteLength": 17844
    },
    {
      "buffer": 2,
      "byteOffset": 0,
      "byteLength": 17844
    },
    {
      "buffer": 3,
      "byteOffset": 0,
      "byteLength": 17844
    }
  ],
  "meshes": [
    {
      "primitives": [
        {
          "mode": 4,
          "indices": 0,
          "attributes": {
            "POSITION": 1,
            "NORMAL": 2,
            "COLOR_0": 3
          }
        }
      ]
    }
  ],
  "nodes": [
    {
      "children": [
        1
      ]
    },
    {
      "mesh": 0
    }
  ],
  "scenes": [
    {
      "nodes": [
        0
      ]
    }
  ],
  "scene": 0
}