{
  "asset": {
    "version": "2.0",
    "generator": "COLLADA2GLTF"
  },
  "accessors": [
    {
      "bufferView": 0,
      "byteOffset": 0,
      "componentType": 5123,
      "count": 513,
      "min": [
        0
      ],
      "max": [
        247
      ],
      "type": "SCALAR"
    },
    {
      "bufferView": 1,
      "byteOffset": 0,
      "componentType": 5126,
      "count": 248,
      "max": [
        -615.7889404296875,
        0,
        420.3272705078125
      ],
      "min": [
        -846.2887573242188,
        0,
        210
      ],
      "type": "VEC3"
    },
    {
      "bufferView": 2,
      "byteOffset": 0,
      "componentType": 5126,
      "count": 248,
      "max": [
        0,
        1,
        0
      ],
      "min": [
        0,
        1,
        0
      ],
      "type": "VEC3"
    },
    {
      "bufferView": 3,
      "byteOffset": 0,
      "componentType": 5126,
      "count": 248,
      "max": [
        0.26324865221977234,
        1,
        0.26329442858695984
      ],
      "min": [
        0.000015259021893143654,
        0.07324330508708954,
        0.00004577706567943096
      ],
      "type": "VEC3"
    }
  ],
  "buffers": [
    {
      "byteLength": 1026,
      "uri": "data:application/octet-stream;base64,"
    },
    {
      "byteLength": 2976,
      "uri": "data:application/octet-stream;base64,"
    },
    {
      "byteLength": 2976,
      "uri": "data:application/octet-stream;base64,"
    },
    {
      "byteLength": 2976,
      "uri": "data:application/octet-stream;base64,"
    }
  ],
  "bufferViews": [
    {
      "buffer": 0,
      "byteOffset": 0,
      "byteLength": 1026
    },
    {
      "buffer": 1,
      "byteOffset": 0,
      "byteLength": 2976
    },
    {
      "buffer": 2,
      "byteOffset": 0,
      "byteLength": 2976
    },
    {
      "buffer": 3,
      "byteOffset": 0,
      "byteLength": 2976
    }
  ],
  "meshes": [
    {
      "primitives": [
        {
          "mode": 4,
          "indices": 0,
          "attributes": {
            "POSITION": 1,
            "NORMAL": 2,
            "COLOR_0": 3
          }
        }
      ]
    }
  ],
  "nodes": [
    {
      "children": [
        1
      ]
    },
    {
      "mesh": 0
    }
  ],
  "scenes": [
    {
      "nodes": [
        0
      ]
    }
  ],
  "scene": 0
}