{
  "asset": {
    "version": "2.0",
    "generator": "COLLADA2GLTF"
  },
  "accessors": [
    {
      "bufferView": 0,
      "byteOffset": 0,
      "componentType": 5123,
      "count": 2337,
      "min": [
        0
      ],
      "max": [
        1000
      ],
      "type": "SCALAR"
    },
    {
      "bufferView": 1,
      "byteOffset": 0,
      "componentType": 5126,
      "count": 1001,
      "max": [
        -2098.194091796875,
        24.524999618530273,
        484.78759765625
      ],
      "min": [
        -2317.750732421875,
        12.164999961853027,
        132.6721954345703
      ],
      "type": "VEC3"
    },
    {
      "bufferView": 2,
      "byteOffset": 0,
      "componentType": 5126,
      "count": 1001,
      "max": [
        0.8571977615356445,
        0.7061620950698853,
        0.8571977615356445
      ],
      "min": [
        -0.8571977615356445,
        -0.7052587270736694,
        -0.8571977615356445
      ],
      "type": "VEC3"
    },
    {
      "bufferView": 3,
      "byteOffset": 0,
      "componentType": 5126,
      "count": 1001,
      "max": [
        0.4480048716068268,
        0.4480048716068268,
        0.4480659067630768
      ],
      "min": [
        0,
        0,
        0
      ],
      "type": "VEC3"
    }
  ],
  "buffers": [
    {
      "byteLength": 4674,
      "uri": "data:application/octet-stream;base64,"
    },
    {
      "byteLength": 12012,
      "uri": "data:application/octet-stream;base64,"
    },
    {
      "byteLength": 12012,
      "uri": "data:application/octet-stream;base64,"
    },
    {
      "byteLength": 12012,
      "uri": "data:application/octet-stream;base64,"
    }
  ],
  "bufferViews": [
    {
      "buffer": 0,
      "byteOffset": 0,
      "byteLength": 4674
    },
    {
      "buffer": 1,
      "byteOffset": 0,
      "byteLength": 12012
    },
    {
      "buffer": 2,
      "byteOffset": 0,
      "byteLength": 12012
    },
    {
      "buffer": 3,
      "byteOffset": 0,
      "byteLength": 12012
    }
  ],
  "meshes": [
    {
      "primitives": [
        {
          "mode": 4,
          "indices": 0,
          "attributes": {
            "POSITION": 1,
            "NORMAL": 2,
            "COLOR_0": 3
          }
        }
      ]
    }
  ],
  "nodes": [
    {
      "children": [
        1
      ]
    },
    {
      "mesh": 0
    }
  ],
  "scenes": [
    {
      "nodes": [
        0
      ]
    }
  ],
  "scene": 0
}