{
  "asset": {
    "version": "2.0",
    "generator": "COLLADA2GLTF"
  },
  "accessors": [
    {
      "bufferView": 0,
      "byteOffset": 0,
      "componentType": 5123,
      "count": 1347,
      "min": [
        0
      ],
      "max": [
        559
      ],
      "type": "SCALAR"
    },
    {
      "bufferView": 1,
      "byteOffset": 0,
      "componentType": 5126,
      "count": 560,
      "max": [
        545.572021484375,
        0,
        2006.2288818359375
      ],
      "min": [
        106.34781646728516,
        -0.20000000298023224,
        1440
      ],
      "type": "VEC3"
    },
    {
      "bufferView": 2,
      "byteOffset": 0,
      "componentType": 5126,
      "count": 560,
      "max": [
        0.918201744556427,
        1,
        0.9186915159225464
      ],
      "min": [
        -0.3961130976676941,
        -1,
        -0.9177393913269043
      ],
      "type": "VEC3"
    },
    {
      "bufferView": 3,
      "byteOffset": 0,
      "componentType": 5126,
      "count": 560,
      "max": [
        0.21585412323474884,
        1,
        0.21589989960193634
      ],
      "min": [
        0.000015259021893143654,
        0.07324330508708954,
        0.00004577706567943096
      ],
      "type": "VEC3"
    }
  ],
  "buffers": [
    {
      "byteLength": 2694,
      "uri": "data:application/octet-stream;base64,"
    },
    {
      "byteLength": 6720,
      "uri": "data:application/octet-stream;base64,"
    },
    {
      "byteLength": 6720,
      "uri": "data:application/octet-stream;base64,"
    },
    {
      "byteLength": 6720,
      "uri": "data:application/octet-stream;base64,"
    }
  ],
  "bufferViews": [
    {
      "buffer": 0,
      "byteOffset": 0,
      "byteLength": 2694
    },
    {
      "buffer": 1,
      "byteOffset": 0,
      "byteLength": 6720
    },
    {
      "buffer": 2,
      "byteOffset": 0,
      "byteLength": 6720
    },
    {
      "buffer": 3,
      "byteOffset": 0,
      "byteLength": 6720
    }
  ],
  "meshes": [
    {
      "primitives": [
        {
          "mode": 4,
          "indices": 0,
          "attributes": {
            "POSITION": 1,
            "NORMAL": 2,
            "COLOR_0": 3
          }
        }
      ]
    }
  ],
  "nodes": [
    {
      "children": [
        1
      ]
    },
    {
      "mesh": 0
    }
  ],
  "scenes": [
    {
      "nodes": [
        0
      ]
    }
  ],
  "scene": 0
}