{
  "asset": {
    "version": "2.0",
    "generator": "COLLADA2GLTF"
  },
  "accessors": [
    {
      "bufferView": 0,
      "byteOffset": 0,
      "componentType": 5123,
      "count": 285,
      "min": [
        0
      ],
      "max": [
        136
      ],
      "type": "SCALAR"
    },
    {
      "bufferView": 1,
      "byteOffset": 0,
      "componentType": 5126,
      "count": 137,
      "max": [
        -2556.329345703125,
        0.0010000000474974513,
        1461.2698974609375
      ],
      "min": [
        -2812.0859375,
        0,
        1169.4610595703125
      ],
      "type": "VEC3"
    },
    {
      "bufferView": 2,
      "byteOffset": 0,
      "componentType": 5126,
      "count": 137,
      "max": [
        0,
        1,
        0
      ],
      "min": [
        -0.9145206809043884,
        0,
        -0.40453919768333435
      ],
      "type": "VEC3"
    },
    {
      "bufferView": 3,
      "byteOffset": 0,
      "componentType": 5126,
      "count": 137,
      "max": [
        0.999786376953125,
        1,
        0.7875028848648071
      ],
      "min": [
        0.000015259021893143654,
        0.000015259021893143654,
        0
      ],
      "type": "VEC3"
    }
  ],
  "buffers": [
    {
      "byteLength": 570,
      "uri": "data:application/octet-stream;base64,"
    },
    {
      "byteLength": 1644,
      "uri": "data:application/octet-stream;base64,"
    },
    {
      "byteLength": 1644,
      "uri": "data:application/octet-stream;base64,"
    },
    {
      "byteLength": 1644,
      "uri": "data:application/octet-stream;base64,"
    }
  ],
  "bufferViews": [
    {
      "buffer": 0,
      "byteOffset": 0,
      "byteLength": 570
    },
    {
      "buffer": 1,
      "byteOffset": 0,
      "byteLength": 1644
    },
    {
      "buffer": 2,
      "byteOffset": 0,
      "byteLength": 1644
    },
    {
      "buffer": 3,
      "byteOffset": 0,
      "byteLength": 1644
    }
  ],
  "meshes": [
    {
      "primitives": [
        {
          "mode": 4,
          "indices": 0,
          "attributes": {
            "POSITION": 1,
            "NORMAL": 2,
            "COLOR_0": 3
          }
        }
      ]
    }
  ],
  "nodes": [
    {
      "children": [
        1
      ]
    },
    {
      "mesh": 0
    }
  ],
  "scenes": [
    {
      "nodes": [
        0
      ]
    }
  ],
  "scene": 0
}