{
  "asset": {
    "version": "2.0",
    "generator": "COLLADA2GLTF"
  },
  "accessors": [
    {
      "bufferView": 0,
      "byteOffset": 0,
      "componentType": 5123,
      "count": 2829,
      "min": [
        0
      ],
      "max": [
        1201
      ],
      "type": "SCALAR"
    },
    {
      "bufferView": 1,
      "byteOffset": 0,
      "componentType": 5126,
      "count": 1202,
      "max": [
        600,
        0.0010000000474974513,
        -277.72900390625
      ],
      "min": [
        300,
        0,
        -639.4136962890625
      ],
      "type": "VEC3"
    },
    {
      "bufferView": 2,
      "byteOffset": 0,
      "componentType": 5126,
      "count": 1202,
      "max": [
        0.7931731939315796,
        1,
        0.7908157110214233
      ],
      "min": [
        -0.7935088872909546,
        0,
        -0.7940117120742798
      ],
      "type": "VEC3"
    },
    {
      "bufferView": 3,
      "byteOffset": 0,
      "componentType": 5126,
      "count": 1202,
      "max": [
        0.999786376953125,
        1,
        0.7875028848648071
      ],
      "min": [
        0.000015259021893143654,
        0.07324330508708954,
        0.00004577706567943096
      ],
      "type": "VEC3"
    }
  ],
  "buffers": [
    {
      "byteLength": 5658,
      "uri": "data:application/octet-stream;base64,"
    },
    {
      "byteLength": 14424,
      "uri": "data:application/octet-stream;base64,"
    },
    {
      "byteLength": 14424,
      "uri": "data:application/octet-stream;base64,"
    },
    {
      "byteLength": 14424,
      "uri": "data:application/octet-stream;base64,"
    }
  ],
  "bufferViews": [
    {
      "buffer": 0,
      "byteOffset": 0,
      "byteLength": 5658
    },
    {
      "buffer": 1,
      "byteOffset": 0,
      "byteLength": 14424
    },
    {
      "buffer": 2,
      "byteOffset": 0,
      "byteLength": 14424
    },
    {
      "buffer": 3,
      "byteOffset": 0,
      "byteLength": 14424
    }
  ],
  "meshes": [
    {
      "primitives": [
        {
          "mode": 4,
          "indices": 0,
          "attributes": {
            "POSITION": 1,
            "NORMAL": 2,
            "COLOR_0": 3
          }
        }
      ]
    }
  ],
  "nodes": [
    {
      "children": [
        1
      ]
    },
    {
      "mesh": 0
    }
  ],
  "scenes": [
    {
      "nodes": [
        0
      ]
    }
  ],
  "scene": 0
}