{
  "asset": {
    "version": "2.0",
    "generator": "COLLADA2GLTF"
  },
  "accessors": [
    {
      "bufferView": 0,
      "byteOffset": 0,
      "componentType": 5123,
      "count": 1695,
      "min": [
        0
      ],
      "max": [
        1176
      ],
      "type": "SCALAR"
    },
    {
      "bufferView": 1,
      "byteOffset": 0,
      "componentType": 5126,
      "count": 1177,
      "max": [
        849.8280029296875,
        22.5,
        205.33900451660156
      ],
      "min": [
        618.3267211914062,
        0,
        -312.7879943847656
      ],
      "type": "VEC3"
    },
    {
      "bufferView": 2,
      "byteOffset": 0,
      "componentType": 5126,
      "count": 1177,
      "max": [
        0.9802344441413879,
        1,
        0.9797934889793396
      ],
      "min": [
        -0.9799041152000427,
        0,
        -0.9801461100578308
      ],
      "type": "VEC3"
    },
    {
      "bufferView": 3,
      "byteOffset": 0,
      "componentType": 5126,
      "count": 1177,
      "max": [
        0.999786376953125,
        0.7875181436538696,
        0.26330968737602234
      ],
      "min": [
        0.6036774516105652,
        0.00003051804378628731,
        0
      ],
      "type": "VEC3"
    }
  ],
  "buffers": [
    {
      "byteLength": 3390,
      "uri": "data:application/octet-stream;base64,"
    },
    {
      "byteLength": 14124,
      "uri": "data:application/octet-stream;base64,"
    },
    {
      "byteLength": 14124,
      "uri": "data:application/octet-stream;base64,"
    },
    {
      "byteLength": 14124,
      "uri": "data:application/octet-stream;base64,"
    }
  ],
  "bufferViews": [
    {
      "buffer": 0,
      "byteOffset": 0,
      "byteLength": 3390
    },
    {
      "buffer": 1,
      "byteOffset": 0,
      "byteLength": 14124
    },
    {
      "buffer": 2,
      "byteOffset": 0,
      "byteLength": 14124
    },
    {
      "buffer": 3,
      "byteOffset": 0,
      "byteLength": 14124
    }
  ],
  "meshes": [
    {
      "primitives": [
        {
          "mode": 4,
          "indices": 0,
          "attributes": {
            "POSITION": 1,
            "NORMAL": 2,
            "COLOR_0": 3
          }
        }
      ]
    }
  ],
  "nodes": [
    {
      "children": [
        1
      ]
    },
    {
      "mesh": 0
    }
  ],
  "scenes": [
    {
      "nodes": [
        0
      ]
    }
  ],
  "scene": 0
}