{
  "asset": {
    "version": "2.0",
    "generator": "COLLADA2GLTF"
  },
  "accessors": [
    {
      "bufferView": 0,
      "byteOffset": 0,
      "componentType": 5123,
      "count": 5598,
      "min": [
        0
      ],
      "max": [
        2181
      ],
      "type": "SCALAR"
    },
    {
      "bufferView": 1,
      "byteOffset": 0,
      "componentType": 5126,
      "count": 2182,
      "max": [
        1073.3284912109375,
        7.5,
        440.430908203125
      ],
      "min": [
        696.5230102539062,
        -3,
        -390
      ],
      "type": "VEC3"
    },
    {
      "bufferView": 2,
      "byteOffset": 0,
      "componentType": 5126,
      "count": 2182,
      "max": [
        0.9810542464256287,
        1,
        0.9810542464256287
      ],
      "min": [
        -0.9810542464256287,
        -1,
        -0.9810594320297241
      ],
      "type": "VEC3"
    },
    {
      "bufferView": 3,
      "byteOffset": 0,
      "componentType": 5126,
      "count": 2182,
      "max": [
        0.999786376953125,
        1,
        0.7875028848648071
      ],
      "min": [
        0.000015259021893143654,
        0.07324330508708954,
        0.00004577706567943096
      ],
      "type": "VEC3"
    }
  ],
  "buffers": [
    {
      "byteLength": 11196,
      "uri": "data:application/octet-stream;base64,"
    },
    {
      "byteLength": 26184,
      "uri": "data:application/octet-stream;base64,"
    },
    {
      "byteLength": 26184,
      "uri": "data:application/octet-stream;base64,"
    },
    {
      "byteLength": 26184,
      "uri": "data:application/octet-stream;base64,"
    }
  ],
  "bufferViews": [
    {
      "buffer": 0,
      "byteOffset": 0,
      "byteLength": 11196
    },
    {
      "buffer": 1,
      "byteOffset": 0,
      "byteLength": 26184
    },
    {
      "buffer": 2,
      "byteOffset": 0,
      "byteLength": 26184
    },
    {
      "buffer": 3,
      "byteOffset": 0,
      "byteLength": 26184
    }
  ],
  "meshes": [
    {
      "primitives": [
        {
          "mode": 4,
          "indices": 0,
          "attributes": {
            "POSITION": 1,
            "NORMAL": 2,
            "COLOR_0": 3
          }
        }
      ]
    }
  ],
  "nodes": [
    {
      "children": [
        1
      ]
    },
    {
      "mesh": 0
    }
  ],
  "scenes": [
    {
      "nodes": [
        0
      ]
    }
  ],
  "scene": 0
}