{
  "asset": {
    "version": "2.0",
    "generator": "COLLADA2GLTF"
  },
  "accessors": [
    {
      "bufferView": 0,
      "byteOffset": 0,
      "componentType": 5123,
      "count": 2142,
      "min": [
        0
      ],
      "max": [
        867
      ],
      "type": "SCALAR"
    },
    {
      "bufferView": 1,
      "byteOffset": 0,
      "componentType": 5126,
      "count": 868,
      "max": [
        -805.0386962890625,
        0,
        30
      ],
      "min": [
        -1098.2369384765625,
        0,
        -264.5643005371094
      ],
      "type": "VEC3"
    },
    {
      "bufferView": 2,
      "byteOffset": 0,
      "componentType": 5126,
      "count": 868,
      "max": [
        0,
        1,
        0
      ],
      "min": [
        0,
        1,
        0
      ],
      "type": "VEC3"
    },
    {
      "bufferView": 3,
      "byteOffset": 0,
      "componentType": 5126,
      "count": 868,
      "max": [
        0.26324865221977234,
        1,
        0.26329442858695984
      ],
      "min": [
        0.000015259021893143654,
        0.07324330508708954,
        0.00004577706567943096
      ],
      "type": "VEC3"
    }
  ],
  "buffers": [
    {
      "byteLength": 4284,
      "uri": "data:application/octet-stream;base64,"
    },
    {
      "byteLength": 10416,
      "uri": "data:application/octet-stream;base64,"
    },
    {
      "byteLength": 10416,
      "uri": "data:application/octet-stream;base64,"
    },
    {
      "byteLength": 10416,
      "uri": "data:application/octet-stream;base64,"
    }
  ],
  "bufferViews": [
    {
      "buffer": 0,
      "byteOffset": 0,
      "byteLength": 4284
    },
    {
      "buffer": 1,
      "byteOffset": 0,
      "byteLength": 10416
    },
    {
      "buffer": 2,
      "byteOffset": 0,
      "byteLength": 10416
    },
    {
      "buffer": 3,
      "byteOffset": 0,
      "byteLength": 10416
    }
  ],
  "meshes": [
    {
      "primitives": [
        {
          "mode": 4,
          "indices": 0,
          "attributes": {
            "POSITION": 1,
            "NORMAL": 2,
            "COLOR_0": 3
          }
        }
      ]
    }
  ],
  "nodes": [
    {
      "children": [
        1
      ]
    },
    {
      "mesh": 0
    }
  ],
  "scenes": [
    {
      "nodes": [
        0
      ]
    }
  ],
  "scene": 0
}