{
  "asset": {
    "version": "2.0",
    "generator": "COLLADA2GLTF"
  },
  "accessors": [
    {
      "bufferView": 0,
      "byteOffset": 0,
      "componentType": 5123,
      "count": 4083,
      "min": [
        0
      ],
      "max": [
        1585
      ],
      "type": "SCALAR"
    },
    {
      "bufferView": 1,
      "byteOffset": 0,
      "componentType": 5126,
      "count": 1586,
      "max": [
        913.560302734375,
        2.299999952316284,
        1140
      ],
      "min": [
        390,
        0,
        540
      ],
      "type": "VEC3"
    },
    {
      "bufferView": 2,
      "byteOffset": 0,
      "componentType": 5126,
      "count": 1586,
      "max": [
        0.9898214340209961,
        1,
        1
      ],
      "min": [
        -0.9898214340209961,
        -1,
        -0.9594929814338684
      ],
      "type": "VEC3"
    },
    {
      "bufferView": 3,
      "byteOffset": 0,
      "componentType": 5126,
      "count": 1586,
      "max": [
        0.999786376953125,
        1,
        0.5776455402374268
      ],
      "min": [
        0.000015259021893143654,
        0.07324330508708954,
        0.00004577706567943096
      ],
      "type": "VEC3"
    }
  ],
  "buffers": [
    {
      "byteLength": 8166,
      "uri": "data:application/octet-stream;base64,"
    },
    {
      "byteLength": 19032,
      "uri": "data:application/octet-stream;base64,"
    },
    {
      "byteLength": 19032,
      "uri": "data:application/octet-stream;base64,"
    },
    {
      "byteLength": 19032,
      "uri": "data:application/octet-stream;base64,"
    }
  ],
  "bufferViews": [
    {
      "buffer": 0,
      "byteOffset": 0,
      "byteLength": 8166
    },
    {
      "buffer": 1,
      "byteOffset": 0,
      "byteLength": 19032
    },
    {
      "buffer": 2,
      "byteOffset": 0,
      "byteLength": 19032
    },
    {
      "buffer": 3,
      "byteOffset": 0,
      "byteLength": 19032
    }
  ],
  "meshes": [
    {
      "primitives": [
        {
          "mode": 4,
          "indices": 0,
          "attributes": {
            "POSITION": 1,
            "NORMAL": 2,
            "COLOR_0": 3
          }
        }
      ]
    }
  ],
  "nodes": [
    {
      "children": [
        1
      ]
    },
    {
      "mesh": 0
    }
  ],
  "scenes": [
    {
      "nodes": [
        0
      ]
    }
  ],
  "scene": 0
}