{
  "asset": {
    "version": "2.0",
    "generator": "COLLADA2GLTF"
  },
  "accessors": [
    {
      "bufferView": 0,
      "byteOffset": 0,
      "componentType": 5123,
      "count": 12,
      "min": [
        0
      ],
      "max": [
        9
      ],
      "type": "SCALAR"
    },
    {
      "bufferView": 1,
      "byteOffset": 0,
      "componentType": 5126,
      "count": 10,
      "max": [
        -2723.2822265625,
        24,
        1224.1915283203125
      ],
      "min": [
        -2739.31103515625,
        0,
        1213.460205078125
      ],
      "type": "VEC3"
    },
    {
      "bufferView": 2,
      "byteOffset": 0,
      "componentType": 5126,
      "count": 10,
      "max": [
        0.8345339298248291,
        0,
        0.5509565472602844
      ],
      "min": [
        0.5563023686408997,
        0,
        -0.8309799432754517
      ],
      "type": "VEC3"
    },
    {
      "bufferView": 3,
      "byteOffset": 0,
      "componentType": 5126,
      "count": 10,
      "max": [
        0.999786376953125,
        0.7875181436538696,
        0.26330968737602234
      ],
      "min": [
        0.999786376953125,
        0.7875181436538696,
        0.26330968737602234
      ],
      "type": "VEC3"
    }
  ],
  "buffers": [
    {
      "byteLength": 24,
      "uri": "data:application/octet-stream;base64,"
    },
    {
      "byteLength": 120,
      "uri": "data:application/octet-stream;base64,"
    },
    {
      "byteLength": 120,
      "uri": "data:application/octet-stream;base64,"
    },
    {
      "byteLength": 120,
      "uri": "data:application/octet-stream;base64,"
    }
  ],
  "bufferViews": [
    {
      "buffer": 0,
      "byteOffset": 0,
      "byteLength": 24
    },
    {
      "buffer": 1,
      "byteOffset": 0,
      "byteLength": 120
    },
    {
      "buffer": 2,
      "byteOffset": 0,
      "byteLength": 120
    },
    {
      "buffer": 3,
      "byteOffset": 0,
      "byteLength": 120
    }
  ],
  "meshes": [
    {
      "primitives": [
        {
          "mode": 4,
          "indices": 0,
          "attributes": {
            "POSITION": 1,
            "NORMAL": 2,
            "COLOR_0": 3
          }
        }
      ]
    }
  ],
  "nodes": [
    {
      "children": [
        1
      ]
    },
    {
      "mesh": 0
    }
  ],
  "scenes": [
    {
      "nodes": [
        0
      ]
    }
  ],
  "scene": 0
}