{
  "asset": {
    "version": "2.0",
    "generator": "COLLADA2GLTF"
  },
  "accessors": [
    {
      "bufferView": 0,
      "byteOffset": 0,
      "componentType": 5123,
      "count": 1914,
      "min": [
        0
      ],
      "max": [
        654
      ],
      "type": "SCALAR"
    },
    {
      "bufferView": 1,
      "byteOffset": 0,
      "componentType": 5126,
      "count": 655,
      "max": [
        -1397.808349609375,
        37.025001525878906,
        4513.2685546875
      ],
      "min": [
        -2098.358642578125,
        17.165000915527344,
        4150.00634765625
      ],
      "type": "VEC3"
    },
    {
      "bufferView": 2,
      "byteOffset": 0,
      "componentType": 5126,
      "count": 655,
      "max": [
        0.8999642729759216,
        0.7071020603179932,
        0.9304949641227722
      ],
      "min": [
        -0.8999642729759216,
        -0.7071020603179932,
        -0.8999642729759216
      ],
      "type": "VEC3"
    },
    {
      "bufferView": 3,
      "byteOffset": 0,
      "componentType": 5126,
      "count": 655,
      "max": [
        0.4480048716068268,
        0.4480048716068268,
        0.4480659067630768
      ],
      "min": [
        0,
        0,
        0
      ],
      "type": "VEC3"
    }
  ],
  "buffers": [
    {
      "byteLength": 3828,
      "uri": "data:application/octet-stream;base64,"
    },
    {
      "byteLength": 7860,
      "uri": "data:application/octet-stream;base64,"
    },
    {
      "byteLength": 7860,
      "uri": "data:application/octet-stream;base64,"
    },
    {
      "byteLength": 7860,
      "uri": "data:application/octet-stream;base64,"
    }
  ],
  "bufferViews": [
    {
      "buffer": 0,
      "byteOffset": 0,
      "byteLength": 3828
    },
    {
      "buffer": 1,
      "byteOffset": 0,
      "byteLength": 7860
    },
    {
      "buffer": 2,
      "byteOffset": 0,
      "byteLength": 7860
    },
    {
      "buffer": 3,
      "byteOffset": 0,
      "byteLength": 7860
    }
  ],
  "meshes": [
    {
      "primitives": [
        {
          "mode": 4,
          "indices": 0,
          "attributes": {
            "POSITION": 1,
            "NORMAL": 2,
            "COLOR_0": 3
          }
        }
      ]
    }
  ],
  "nodes": [
    {
      "children": [
        1
      ]
    },
    {
      "mesh": 0
    }
  ],
  "scenes": [
    {
      "nodes": [
        0
      ]
    }
  ],
  "scene": 0
}