{
  "asset": {
    "version": "2.0",
    "generator": "COLLADA2GLTF"
  },
  "accessors": [
    {
      "bufferView": 0,
      "byteOffset": 0,
      "componentType": 5123,
      "count": 4590,
      "min": [
        0
      ],
      "max": [
        1588
      ],
      "type": "SCALAR"
    },
    {
      "bufferView": 1,
      "byteOffset": 0,
      "componentType": 5126,
      "count": 1589,
      "max": [
        -3657.27490234375,
        0.14777499437332153,
        995.4855346679688
      ],
      "min": [
        -3822.93701171875,
        0,
        891.1245727539062
      ],
      "type": "VEC3"
    },
    {
      "bufferView": 2,
      "byteOffset": 0,
      "componentType": 5126,
      "count": 1589,
      "max": [
        0.8377389907836914,
        1,
        0.8377406597137451
      ],
      "min": [
        -0.8377389907836914,
        -0.9486833214759827,
        -0.8377406597137451
      ],
      "type": "VEC3"
    },
    {
      "bufferView": 3,
      "byteOffset": 0,
      "componentType": 5126,
      "count": 1589,
      "max": [
        0.5774929523468018,
        0.5776150226593018,
        0.5776455402374268
      ],
      "min": [
        0.05127031356096268,
        0.03309682011604309,
        0.03311207890510559
      ],
      "type": "VEC3"
    }
  ],
  "buffers": [
    {
      "byteLength": 9180,
      "uri": "data:application/octet-stream;base64,"
    },
    {
      "byteLength": 19068,
      "uri": "data:application/octet-stream;base64,"
    },
    {
      "byteLength": 19068,
      "uri": "data:application/octet-stream;base64,"
    },
    {
      "byteLength": 19068,
      "uri": "data:application/octet-stream;base64,"
    }
  ],
  "bufferViews": [
    {
      "buffer": 0,
      "byteOffset": 0,
      "byteLength": 9180
    },
    {
      "buffer": 1,
      "byteOffset": 0,
      "byteLength": 19068
    },
    {
      "buffer": 2,
      "byteOffset": 0,
      "byteLength": 19068
    },
    {
      "buffer": 3,
      "byteOffset": 0,
      "byteLength": 19068
    }
  ],
  "meshes": [
    {
      "primitives": [
        {
          "mode": 4,
          "indices": 0,
          "attributes": {
            "POSITION": 1,
            "NORMAL": 2,
            "COLOR_0": 3
          }
        }
      ]
    }
  ],
  "nodes": [
    {
      "children": [
        1
      ]
    },
    {
      "mesh": 0
    }
  ],
  "scenes": [
    {
      "nodes": [
        0
      ]
    }
  ],
  "scene": 0
}