{
  "asset": {
    "version": "2.0",
    "generator": "COLLADA2GLTF"
  },
  "accessors": [
    {
      "bufferView": 0,
      "byteOffset": 0,
      "componentType": 5123,
      "count": 3747,
      "min": [
        0
      ],
      "max": [
        1515
      ],
      "type": "SCALAR"
    },
    {
      "bufferView": 1,
      "byteOffset": 0,
      "componentType": 5126,
      "count": 1516,
      "max": [
        -2310,
        5,
        -1560
      ],
      "min": [
        -2910,
        0,
        -1950.7998046875
      ],
      "type": "VEC3"
    },
    {
      "bufferView": 2,
      "byteOffset": 0,
      "componentType": 5126,
      "count": 1516,
      "max": [
        0.9461157917976379,
        1,
        0.9368444681167603
      ],
      "min": [
        -0.9364811182022095,
        0,
        -0.9502924680709839
      ],
      "type": "VEC3"
    },
    {
      "bufferView": 3,
      "byteOffset": 0,
      "componentType": 5126,
      "count": 1516,
      "max": [
        0.999786376953125,
        1,
        0.26330968737602234
      ],
      "min": [
        0.000015259021893143654,
        0.07324330508708954,
        0.00004577706567943096
      ],
      "type": "VEC3"
    }
  ],
  "buffers": [
    {
      "byteLength": 7494,
      "uri": "data:application/octet-stream;base64,"
    },
    {
      "byteLength": 18192,
      "uri": "data:application/octet-stream;base64,"
    },
    {
      "byteLength": 18192,
      "uri": "data:application/octet-stream;base64,"
    },
    {
      "byteLength": 18192,
      "uri": "data:application/octet-stream;base64,"
    }
  ],
  "bufferViews": [
    {
      "buffer": 0,
      "byteOffset": 0,
      "byteLength": 7494
    },
    {
      "buffer": 1,
      "byteOffset": 0,
      "byteLength": 18192
    },
    {
      "buffer": 2,
      "byteOffset": 0,
      "byteLength": 18192
    },
    {
      "buffer": 3,
      "byteOffset": 0,
      "byteLength": 18192
    }
  ],
  "meshes": [
    {
      "primitives": [
        {
          "mode": 4,
          "indices": 0,
          "attributes": {
            "POSITION": 1,
            "NORMAL": 2,
            "COLOR_0": 3
          }
        }
      ]
    }
  ],
  "nodes": [
    {
      "children": [
        1
      ]
    },
    {
      "mesh": 0
    }
  ],
  "scenes": [
    {
      "nodes": [
        0
      ]
    }
  ],
  "scene": 0
}