{
  "asset": {
    "version": "2.0",
    "generator": "COLLADA2GLTF"
  },
  "accessors": [
    {
      "bufferView": 0,
      "byteOffset": 0,
      "componentType": 5123,
      "count": 480,
      "min": [
        0
      ],
      "max": [
        401
      ],
      "type": "SCALAR"
    },
    {
      "bufferView": 1,
      "byteOffset": 0,
      "componentType": 5126,
      "count": 402,
      "max": [
        -1150.7669677734375,
        55,
        259.3280029296875
      ],
      "min": [
        -1444.925048828125,
        0,
        -352.82000732421875
      ],
      "type": "VEC3"
    },
    {
      "bufferView": 2,
      "byteOffset": 0,
      "componentType": 5126,
      "count": 402,
      "max": [
        0.9866924285888672,
        1,
        0.9867512583732605
      ],
      "min": [
        -0.9867737889289856,
        0,
        -0.9867649674415588
      ],
      "type": "VEC3"
    },
    {
      "bufferView": 3,
      "byteOffset": 0,
      "componentType": 5126,
      "count": 402,
      "max": [
        0.999786376953125,
        0.7875181436538696,
        0.26330968737602234
      ],
      "min": [
        0.6036774516105652,
        0.00003051804378628731,
        0
      ],
      "type": "VEC3"
    }
  ],
  "buffers": [
    {
      "byteLength": 960,
      "uri": "data:application/octet-stream;base64,"
    },
    {
      "byteLength": 4824,
      "uri": "data:application/octet-stream;base64,"
    },
    {
      "byteLength": 4824,
      "uri": "data:application/octet-stream;base64,"
    },
    {
      "byteLength": 4824,
      "uri": "data:application/octet-stream;base64,"
    }
  ],
  "bufferViews": [
    {
      "buffer": 0,
      "byteOffset": 0,
      "byteLength": 960
    },
    {
      "buffer": 1,
      "byteOffset": 0,
      "byteLength": 4824
    },
    {
      "buffer": 2,
      "byteOffset": 0,
      "byteLength": 4824
    },
    {
      "buffer": 3,
      "byteOffset": 0,
      "byteLength": 4824
    }
  ],
  "meshes": [
    {
      "primitives": [
        {
          "mode": 4,
          "indices": 0,
          "attributes": {
            "POSITION": 1,
            "NORMAL": 2,
            "COLOR_0": 3
          }
        }
      ]
    }
  ],
  "nodes": [
    {
      "children": [
        1
      ]
    },
    {
      "mesh": 0
    }
  ],
  "scenes": [
    {
      "nodes": [
        0
      ]
    }
  ],
  "scene": 0
}