{
  "asset": {
    "version": "2.0",
    "generator": "COLLADA2GLTF"
  },
  "accessors": [
    {
      "bufferView": 0,
      "byteOffset": 0,
      "componentType": 5123,
      "count": 1497,
      "min": [
        0
      ],
      "max": [
        820
      ],
      "type": "SCALAR"
    },
    {
      "bufferView": 1,
      "byteOffset": 0,
      "componentType": 5126,
      "count": 821,
      "max": [
        748.5650024414062,
        7.5,
        -3.506999969482422
      ],
      "min": [
        631.0989990234375,
        0,
        -277.010009765625
      ],
      "type": "VEC3"
    },
    {
      "bufferView": 2,
      "byteOffset": 0,
      "componentType": 5126,
      "count": 821,
      "max": [
        0.9521687030792236,
        0,
        0.9518235921859741
      ],
      "min": [
        -0.9521644115447998,
        0,
        -0.9517852663993835
      ],
      "type": "VEC3"
    },
    {
      "bufferView": 3,
      "byteOffset": 0,
      "componentType": 5126,
      "count": 821,
      "max": [
        0.999786376953125,
        0.7875181436538696,
        0.26330968737602234
      ],
      "min": [
        0.999786376953125,
        0.7875181436538696,
        0.26330968737602234
      ],
      "type": "VEC3"
    }
  ],
  "buffers": [
    {
      "byteLength": 2994,
      "uri": "data:application/octet-stream;base64,"
    },
    {
      "byteLength": 9852,
      "uri": "data:application/octet-stream;base64,"
    },
    {
      "byteLength": 9852,
      "uri": "data:application/octet-stream;base64,"
    },
    {
      "byteLength": 9852,
      "uri": "data:application/octet-stream;base64,"
    }
  ],
  "bufferViews": [
    {
      "buffer": 0,
      "byteOffset": 0,
      "byteLength": 2994
    },
    {
      "buffer": 1,
      "byteOffset": 0,
      "byteLength": 9852
    },
    {
      "buffer": 2,
      "byteOffset": 0,
      "byteLength": 9852
    },
    {
      "buffer": 3,
      "byteOffset": 0,
      "byteLength": 9852
    }
  ],
  "meshes": [
    {
      "primitives": [
        {
          "mode": 4,
          "indices": 0,
          "attributes": {
            "POSITION": 1,
            "NORMAL": 2,
            "COLOR_0": 3
          }
        }
      ]
    }
  ],
  "nodes": [
    {
      "children": [
        1
      ]
    },
    {
      "mesh": 0
    }
  ],
  "scenes": [
    {
      "nodes": [
        0
      ]
    }
  ],
  "scene": 0
}