{
  "asset": {
    "version": "2.0",
    "generator": "COLLADA2GLTF"
  },
  "accessors": [
    {
      "bufferView": 0,
      "byteOffset": 0,
      "componentType": 5123,
      "count": 810,
      "min": [
        0
      ],
      "max": [
        363
      ],
      "type": "SCALAR"
    },
    {
      "bufferView": 1,
      "byteOffset": 0,
      "componentType": 5126,
      "count": 364,
      "max": [
        297.5525207519531,
        0.0010000000474974513,
        48.61049270629883
      ],
      "min": [
        167.60009765625,
        -0.20000000298023224,
        -90
      ],
      "type": "VEC3"
    },
    {
      "bufferView": 2,
      "byteOffset": 0,
      "componentType": 5126,
      "count": 364,
      "max": [
        0.793499231338501,
        1,
        0.793499231338501
      ],
      "min": [
        -0.6087664365768433,
        0,
        -0.7933495044708252
      ],
      "type": "VEC3"
    },
    {
      "bufferView": 3,
      "byteOffset": 0,
      "componentType": 5126,
      "count": 364,
      "max": [
        0.7872740030288696,
        1,
        0.7875028848648071
      ],
      "min": [
        0.000015259021893143654,
        0.07324330508708954,
        0.00004577706567943096
      ],
      "type": "VEC3"
    }
  ],
  "buffers": [
    {
      "byteLength": 1620,
      "uri": "data:application/octet-stream;base64,"
    },
    {
      "byteLength": 4368,
      "uri": "data:application/octet-stream;base64,"
    },
    {
      "byteLength": 4368,
      "uri": "data:application/octet-stream;base64,"
    },
    {
      "byteLength": 4368,
      "uri": "data:application/octet-stream;base64,"
    }
  ],
  "bufferViews": [
    {
      "buffer": 0,
      "byteOffset": 0,
      "byteLength": 1620
    },
    {
      "buffer": 1,
      "byteOffset": 0,
      "byteLength": 4368
    },
    {
      "buffer": 2,
      "byteOffset": 0,
      "byteLength": 4368
    },
    {
      "buffer": 3,
      "byteOffset": 0,
      "byteLength": 4368
    }
  ],
  "meshes": [
    {
      "primitives": [
        {
          "mode": 4,
          "indices": 0,
          "attributes": {
            "POSITION": 1,
            "NORMAL": 2,
            "COLOR_0": 3
          }
        }
      ]
    }
  ],
  "nodes": [
    {
      "children": [
        1
      ]
    },
    {
      "mesh": 0
    }
  ],
  "scenes": [
    {
      "nodes": [
        0
      ]
    }
  ],
  "scene": 0
}