{
  "asset": {
    "version": "2.0",
    "generator": "COLLADA2GLTF"
  },
  "accessors": [
    {
      "bufferView": 0,
      "byteOffset": 0,
      "componentType": 5123,
      "count": 174,
      "min": [
        0
      ],
      "max": [
        63
      ],
      "type": "SCALAR"
    },
    {
      "bufferView": 1,
      "byteOffset": 0,
      "componentType": 5126,
      "count": 64,
      "max": [
        242.7844696044922,
        20,
        186.168701171875
      ],
      "min": [
        22.24071502685547,
        0,
        47.9119987487793
      ],
      "type": "VEC3"
    },
    {
      "bufferView": 2,
      "byteOffset": 0,
      "componentType": 5126,
      "count": 64,
      "max": [
        0.4610435366630554,
        1,
        0.8873775005340576
      ],
      "min": [
        -0.8569727540016174,
        0,
        0
      ],
      "type": "VEC3"
    },
    {
      "bufferView": 3,
      "byteOffset": 0,
      "componentType": 5126,
      "count": 64,
      "max": [
        0.999786376953125,
        0.7875181436538696,
        0.7875028848648071
      ],
      "min": [
        0.7872740030288696,
        0.7875028848648071,
        0.26330968737602234
      ],
      "type": "VEC3"
    }
  ],
  "buffers": [
    {
      "byteLength": 348,
      "uri": "data:application/octet-stream;base64,"
    },
    {
      "byteLength": 768,
      "uri": "data:application/octet-stream;base64,"
    },
    {
      "byteLength": 768,
      "uri": "data:application/octet-stream;base64,"
    },
    {
      "byteLength": 768,
      "uri": "data:application/octet-stream;base64,"
    }
  ],
  "bufferViews": [
    {
      "buffer": 0,
      "byteOffset": 0,
      "byteLength": 348
    },
    {
      "buffer": 1,
      "byteOffset": 0,
      "byteLength": 768
    },
    {
      "buffer": 2,
      "byteOffset": 0,
      "byteLength": 768
    },
    {
      "buffer": 3,
      "byteOffset": 0,
      "byteLength": 768
    }
  ],
  "meshes": [
    {
      "primitives": [
        {
          "mode": 4,
          "indices": 0,
          "attributes": {
            "POSITION": 1,
            "NORMAL": 2,
            "COLOR_0": 3
          }
        }
      ]
    }
  ],
  "nodes": [
    {
      "children": [
        1
      ]
    },
    {
      "mesh": 0
    }
  ],
  "scenes": [
    {
      "nodes": [
        0
      ]
    }
  ],
  "scene": 0
}