{
  "asset": {
    "version": "2.0",
    "generator": "COLLADA2GLTF"
  },
  "accessors": [
    {
      "bufferView": 0,
      "byteOffset": 0,
      "componentType": 5123,
      "count": 3033,
      "min": [
        0
      ],
      "max": [
        1302
      ],
      "type": "SCALAR"
    },
    {
      "bufferView": 1,
      "byteOffset": 0,
      "componentType": 5126,
      "count": 1303,
      "max": [
        -2610,
        2.299999952316284,
        1127.9757080078125
      ],
      "min": [
        -2910,
        0,
        840
      ],
      "type": "VEC3"
    },
    {
      "bufferView": 2,
      "byteOffset": 0,
      "componentType": 5126,
      "count": 1303,
      "max": [
        0.9898214340209961,
        1,
        1
      ],
      "min": [
        -0.9898214340209961,
        0,
        -0.9963940978050232
      ],
      "type": "VEC3"
    },
    {
      "bufferView": 3,
      "byteOffset": 0,
      "componentType": 5126,
      "count": 1303,
      "max": [
        0.999786376953125,
        1,
        0.5776455402374268
      ],
      "min": [
        0,
        0.07324330508708954,
        0.000015259021893143654
      ],
      "type": "VEC3"
    }
  ],
  "buffers": [
    {
      "byteLength": 6066,
      "uri": "data:application/octet-stream;base64,"
    },
    {
      "byteLength": 15636,
      "uri": "data:application/octet-stream;base64,"
    },
    {
      "byteLength": 15636,
      "uri": "data:application/octet-stream;base64,"
    },
    {
      "byteLength": 15636,
      "uri": "data:application/octet-stream;base64,"
    }
  ],
  "bufferViews": [
    {
      "buffer": 0,
      "byteOffset": 0,
      "byteLength": 6066
    },
    {
      "buffer": 1,
      "byteOffset": 0,
      "byteLength": 15636
    },
    {
      "buffer": 2,
      "byteOffset": 0,
      "byteLength": 15636
    },
    {
      "buffer": 3,
      "byteOffset": 0,
      "byteLength": 15636
    }
  ],
  "meshes": [
    {
      "primitives": [
        {
          "mode": 4,
          "indices": 0,
          "attributes": {
            "POSITION": 1,
            "NORMAL": 2,
            "COLOR_0": 3
          }
        }
      ]
    }
  ],
  "nodes": [
    {
      "children": [
        1
      ]
    },
    {
      "mesh": 0
    }
  ],
  "scenes": [
    {
      "nodes": [
        0
      ]
    }
  ],
  "scene": 0
}