{
  "asset": {
    "version": "2.0",
    "generator": "COLLADA2GLTF"
  },
  "accessors": [
    {
      "bufferView": 0,
      "byteOffset": 0,
      "componentType": 5123,
      "count": 102,
      "min": [
        0
      ],
      "max": [
        45
      ],
      "type": "SCALAR"
    },
    {
      "bufferView": 1,
      "byteOffset": 0,
      "componentType": 5126,
      "count": 46,
      "max": [
        -395.3890075683594,
        3,
        767.9190063476562
      ],
      "min": [
        -471.1340026855469,
        2.299999952316284,
        607.448974609375
      ],
      "type": "VEC3"
    },
    {
      "bufferView": 2,
      "byteOffset": 0,
      "componentType": 5126,
      "count": 46,
      "max": [
        1,
        1,
        1
      ],
      "min": [
        -1,
        0,
        -1
      ],
      "type": "VEC3"
    },
    {
      "bufferView": 3,
      "byteOffset": 0,
      "componentType": 5126,
      "count": 46,
      "max": [
        0.9549705982208252,
        0.7874418497085571,
        0.003997863736003637
      ],
      "min": [
        0.9549705982208252,
        0.7874418497085571,
        0.003997863736003637
      ],
      "type": "VEC3"
    }
  ],
  "buffers": [
    {
      "byteLength": 204,
      "uri": "data:application/octet-stream;base64,"
    },
    {
      "byteLength": 552,
      "uri": "data:application/octet-stream;base64,"
    },
    {
      "byteLength": 552,
      "uri": "data:application/octet-stream;base64,"
    },
    {
      "byteLength": 552,
      "uri": "data:application/octet-stream;base64,"
    }
  ],
  "bufferViews": [
    {
      "buffer": 0,
      "byteOffset": 0,
      "byteLength": 204
    },
    {
      "buffer": 1,
      "byteOffset": 0,
      "byteLength": 552
    },
    {
      "buffer": 2,
      "byteOffset": 0,
      "byteLength": 552
    },
    {
      "buffer": 3,
      "byteOffset": 0,
      "byteLength": 552
    }
  ],
  "meshes": [
    {
      "primitives": [
        {
          "mode": 4,
          "indices": 0,
          "attributes": {
            "POSITION": 1,
            "NORMAL": 2,
            "COLOR_0": 3
          }
        }
      ]
    }
  ],
  "nodes": [
    {
      "children": [
        1
      ]
    },
    {
      "mesh": 0
    }
  ],
  "scenes": [
    {
      "nodes": [
        0
      ]
    }
  ],
  "scene": 0
}