{
  "asset": {
    "version": "2.0",
    "generator": "COLLADA2GLTF"
  },
  "accessors": [
    {
      "bufferView": 0,
      "byteOffset": 0,
      "componentType": 5123,
      "count": 3690,
      "min": [
        0
      ],
      "max": [
        1508
      ],
      "type": "SCALAR"
    },
    {
      "bufferView": 1,
      "byteOffset": 0,
      "componentType": 5126,
      "count": 1509,
      "max": [
        -278.3543701171875,
        0.0010000000474974513,
        -609.4505615234375
      ],
      "min": [
        -570,
        -0.20000000298023224,
        -927.9598388671875
      ],
      "type": "VEC3"
    },
    {
      "bufferView": 2,
      "byteOffset": 0,
      "componentType": 5126,
      "count": 1509,
      "max": [
        0.7662554383277893,
        1,
        0.7662551999092102
      ],
      "min": [
        -0.789871096611023,
        -1,
        -0.7648453116416931
      ],
      "type": "VEC3"
    },
    {
      "bufferView": 3,
      "byteOffset": 0,
      "componentType": 5126,
      "count": 1509,
      "max": [
        0.7872740030288696,
        1,
        1
      ],
      "min": [
        0,
        0.00003051804378628731,
        0.00004577706567943096
      ],
      "type": "VEC3"
    }
  ],
  "buffers": [
    {
      "byteLength": 7380,
      "uri": "data:application/octet-stream;base64,"
    },
    {
      "byteLength": 18108,
      "uri": "data:application/octet-stream;base64,"
    },
    {
      "byteLength": 18108,
      "uri": "data:application/octet-stream;base64,"
    },
    {
      "byteLength": 18108,
      "uri": "data:application/octet-stream;base64,"
    }
  ],
  "bufferViews": [
    {
      "buffer": 0,
      "byteOffset": 0,
      "byteLength": 7380
    },
    {
      "buffer": 1,
      "byteOffset": 0,
      "byteLength": 18108
    },
    {
      "buffer": 2,
      "byteOffset": 0,
      "byteLength": 18108
    },
    {
      "buffer": 3,
      "byteOffset": 0,
      "byteLength": 18108
    }
  ],
  "meshes": [
    {
      "primitives": [
        {
          "mode": 4,
          "indices": 0,
          "attributes": {
            "POSITION": 1,
            "NORMAL": 2,
            "COLOR_0": 3
          }
        }
      ]
    }
  ],
  "nodes": [
    {
      "children": [
        1
      ]
    },
    {
      "mesh": 0
    }
  ],
  "scenes": [
    {
      "nodes": [
        0
      ]
    }
  ],
  "scene": 0
}