{
  "asset": {
    "version": "2.0",
    "generator": "COLLADA2GLTF"
  },
  "accessors": [
    {
      "bufferView": 0,
      "byteOffset": 0,
      "componentType": 5123,
      "count": 4695,
      "min": [
        0
      ],
      "max": [
        1786
      ],
      "type": "SCALAR"
    },
    {
      "bufferView": 1,
      "byteOffset": 0,
      "componentType": 5126,
      "count": 1787,
      "max": [
        -1473.3436279296875,
        0.0010000000474974513,
        840
      ],
      "min": [
        -1816.6636962890625,
        0,
        540
      ],
      "type": "VEC3"
    },
    {
      "bufferView": 2,
      "byteOffset": 0,
      "componentType": 5126,
      "count": 1787,
      "max": [
        0.8364030718803406,
        1,
        0.5481148958206177
      ],
      "min": [
        0,
        0,
        -0.8716089129447937
      ],
      "type": "VEC3"
    },
    {
      "bufferView": 3,
      "byteOffset": 0,
      "componentType": 5126,
      "count": 1787,
      "max": [
        0.999786376953125,
        1,
        0.7875028848648071
      ],
      "min": [
        0.000015259021893143654,
        0.07324330508708954,
        0.00004577706567943096
      ],
      "type": "VEC3"
    }
  ],
  "buffers": [
    {
      "byteLength": 9390,
      "uri": "data:application/octet-stream;base64,"
    },
    {
      "byteLength": 21444,
      "uri": "data:application/octet-stream;base64,"
    },
    {
      "byteLength": 21444,
      "uri": "data:application/octet-stream;base64,"
    },
    {
      "byteLength": 21444,
      "uri": "data:application/octet-stream;base64,"
    }
  ],
  "bufferViews": [
    {
      "buffer": 0,
      "byteOffset": 0,
      "byteLength": 9390
    },
    {
      "buffer": 1,
      "byteOffset": 0,
      "byteLength": 21444
    },
    {
      "buffer": 2,
      "byteOffset": 0,
      "byteLength": 21444
    },
    {
      "buffer": 3,
      "byteOffset": 0,
      "byteLength": 21444
    }
  ],
  "meshes": [
    {
      "primitives": [
        {
          "mode": 4,
          "indices": 0,
          "attributes": {
            "POSITION": 1,
            "NORMAL": 2,
            "COLOR_0": 3
          }
        }
      ]
    }
  ],
  "nodes": [
    {
      "children": [
        1
      ]
    },
    {
      "mesh": 0
    }
  ],
  "scenes": [
    {
      "nodes": [
        0
      ]
    }
  ],
  "scene": 0
}