{
  "asset": {
    "version": "2.0",
    "generator": "COLLADA2GLTF"
  },
  "accessors": [
    {
      "bufferView": 0,
      "byteOffset": 0,
      "componentType": 5123,
      "count": 321,
      "min": [
        0
      ],
      "max": [
        129
      ],
      "type": "SCALAR"
    },
    {
      "bufferView": 1,
      "byteOffset": 0,
      "componentType": 5126,
      "count": 130,
      "max": [
        2730.51513671875,
        0.06400000303983688,
        3601.928955078125
      ],
      "min": [
        2724.1484375,
        0,
        3598.483154296875
      ],
      "type": "VEC3"
    },
    {
      "bufferView": 2,
      "byteOffset": 0,
      "componentType": 5126,
      "count": 130,
      "max": [
        0.9148479104042053,
        1,
        0.4037986397743225
      ],
      "min": [
        -0.9148479104042053,
        0,
        -0.9148479104042053
      ],
      "type": "VEC3"
    },
    {
      "bufferView": 3,
      "byteOffset": 0,
      "componentType": 5126,
      "count": 130,
      "max": [
        0.07322804629802704,
        0.03309682011604309,
        0.03311207890510559
      ],
      "min": [
        0.07322804629802704,
        0.03309682011604309,
        0.03311207890510559
      ],
      "type": "VEC3"
    }
  ],
  "buffers": [
    {
      "byteLength": 642,
      "uri": "data:application/octet-stream;base64,"
    },
    {
      "byteLength": 1560,
      "uri": "data:application/octet-stream;base64,"
    },
    {
      "byteLength": 1560,
      "uri": "data:application/octet-stream;base64,"
    },
    {
      "byteLength": 1560,
      "uri": "data:application/octet-stream;base64,"
    }
  ],
  "bufferViews": [
    {
      "buffer": 0,
      "byteOffset": 0,
      "byteLength": 642
    },
    {
      "buffer": 1,
      "byteOffset": 0,
      "byteLength": 1560
    },
    {
      "buffer": 2,
      "byteOffset": 0,
      "byteLength": 1560
    },
    {
      "buffer": 3,
      "byteOffset": 0,
      "byteLength": 1560
    }
  ],
  "meshes": [
    {
      "primitives": [
        {
          "mode": 4,
          "indices": 0,
          "attributes": {
            "POSITION": 1,
            "NORMAL": 2,
            "COLOR_0": 3
          }
        }
      ]
    }
  ],
  "nodes": [
    {
      "children": [
        1
      ]
    },
    {
      "mesh": 0
    }
  ],
  "scenes": [
    {
      "nodes": [
        0
      ]
    }
  ],
  "scene": 0
}