{
  "asset": {
    "version": "2.0",
    "generator": "COLLADA2GLTF"
  },
  "accessors": [
    {
      "bufferView": 0,
      "byteOffset": 0,
      "componentType": 5123,
      "count": 585,
      "min": [
        0
      ],
      "max": [
        315
      ],
      "type": "SCALAR"
    },
    {
      "bufferView": 1,
      "byteOffset": 0,
      "componentType": 5126,
      "count": 316,
      "max": [
        -479.4739990234375,
        7.5,
        17.95599937438965
      ],
      "min": [
        -584.14697265625,
        0,
        -290.27899169921875
      ],
      "type": "VEC3"
    },
    {
      "bufferView": 2,
      "byteOffset": 0,
      "componentType": 5126,
      "count": 316,
      "max": [
        0.9999503493309021,
        0,
        0.9999581575393677
      ],
      "min": [
        -0.9999548196792603,
        0,
        -0.9999572038650513
      ],
      "type": "VEC3"
    },
    {
      "bufferView": 3,
      "byteOffset": 0,
      "componentType": 5126,
      "count": 316,
      "max": [
        0.999786376953125,
        0.7875181436538696,
        0.26330968737602234
      ],
      "min": [
        0.999786376953125,
        0.7875181436538696,
        0.26330968737602234
      ],
      "type": "VEC3"
    }
  ],
  "buffers": [
    {
      "byteLength": 1170,
      "uri": "data:application/octet-stream;base64,"
    },
    {
      "byteLength": 3792,
      "uri": "data:application/octet-stream;base64,"
    },
    {
      "byteLength": 3792,
      "uri": "data:application/octet-stream;base64,"
    },
    {
      "byteLength": 3792,
      "uri": "data:application/octet-stream;base64,"
    }
  ],
  "bufferViews": [
    {
      "buffer": 0,
      "byteOffset": 0,
      "byteLength": 1170
    },
    {
      "buffer": 1,
      "byteOffset": 0,
      "byteLength": 3792
    },
    {
      "buffer": 2,
      "byteOffset": 0,
      "byteLength": 3792
    },
    {
      "buffer": 3,
      "byteOffset": 0,
      "byteLength": 3792
    }
  ],
  "meshes": [
    {
      "primitives": [
        {
          "mode": 4,
          "indices": 0,
          "attributes": {
            "POSITION": 1,
            "NORMAL": 2,
            "COLOR_0": 3
          }
        }
      ]
    }
  ],
  "nodes": [
    {
      "children": [
        1
      ]
    },
    {
      "mesh": 0
    }
  ],
  "scenes": [
    {
      "nodes": [
        0
      ]
    }
  ],
  "scene": 0
}