{
  "asset": {
    "version": "2.0",
    "generator": "COLLADA2GLTF"
  },
  "accessors": [
    {
      "bufferView": 0,
      "byteOffset": 0,
      "componentType": 5123,
      "count": 1158,
      "min": [
        0
      ],
      "max": [
        421
      ],
      "type": "SCALAR"
    },
    {
      "bufferView": 1,
      "byteOffset": 0,
      "componentType": 5126,
      "count": 422,
      "max": [
        1059.1038818359375,
        0,
        -502.3558044433594
      ],
      "min": [
        771.8931884765625,
        -3,
        -733.0300903320312
      ],
      "type": "VEC3"
    },
    {
      "bufferView": 2,
      "byteOffset": 0,
      "componentType": 5126,
      "count": 422,
      "max": [
        0.7787037491798401,
        1,
        0.7787037491798401
      ],
      "min": [
        -0.7787037491798401,
        0,
        -0.7787037491798401
      ],
      "type": "VEC3"
    },
    {
      "bufferView": 3,
      "byteOffset": 0,
      "componentType": 5126,
      "count": 422,
      "max": [
        0.21585412323474884,
        0.21585412323474884,
        0.21589989960193634
      ],
      "min": [
        0.21585412323474884,
        0.21585412323474884,
        0.21589989960193634
      ],
      "type": "VEC3"
    }
  ],
  "buffers": [
    {
      "byteLength": 2316,
      "uri": "data:application/octet-stream;base64,"
    },
    {
      "byteLength": 5064,
      "uri": "data:application/octet-stream;base64,"
    },
    {
      "byteLength": 5064,
      "uri": "data:application/octet-stream;base64,"
    },
    {
      "byteLength": 5064,
      "uri": "data:application/octet-stream;base64,"
    }
  ],
  "bufferViews": [
    {
      "buffer": 0,
      "byteOffset": 0,
      "byteLength": 2316
    },
    {
      "buffer": 1,
      "byteOffset": 0,
      "byteLength": 5064
    },
    {
      "buffer": 2,
      "byteOffset": 0,
      "byteLength": 5064
    },
    {
      "buffer": 3,
      "byteOffset": 0,
      "byteLength": 5064
    }
  ],
  "meshes": [
    {
      "primitives": [
        {
          "mode": 4,
          "indices": 0,
          "attributes": {
            "POSITION": 1,
            "NORMAL": 2,
            "COLOR_0": 3
          }
        }
      ]
    }
  ],
  "nodes": [
    {
      "children": [
        1
      ]
    },
    {
      "mesh": 0
    }
  ],
  "scenes": [
    {
      "nodes": [
        0
      ]
    }
  ],
  "scene": 0
}