{
  "asset": {
    "version": "2.0",
    "generator": "COLLADA2GLTF"
  },
  "accessors": [
    {
      "bufferView": 0,
      "byteOffset": 0,
      "componentType": 5123,
      "count": 411,
      "min": [
        0
      ],
      "max": [
        204
      ],
      "type": "SCALAR"
    },
    {
      "bufferView": 1,
      "byteOffset": 0,
      "componentType": 5126,
      "count": 205,
      "max": [
        -911.2730102539062,
        7.5,
        281.5690002441406
      ],
      "min": [
        -1027.91796875,
        0,
        203.2790069580078
      ],
      "type": "VEC3"
    },
    {
      "bufferView": 2,
      "byteOffset": 0,
      "componentType": 5126,
      "count": 205,
      "max": [
        0.9811093807220459,
        1,
        0.9810231924057007
      ],
      "min": [
        -0.9811093807220459,
        0,
        -0.9810231924057007
      ],
      "type": "VEC3"
    },
    {
      "bufferView": 3,
      "byteOffset": 0,
      "componentType": 5126,
      "count": 205,
      "max": [
        0.999786376953125,
        0.7875181436538696,
        0.26330968737602234
      ],
      "min": [
        0.6036774516105652,
        0.00003051804378628731,
        0
      ],
      "type": "VEC3"
    }
  ],
  "buffers": [
    {
      "byteLength": 822,
      "uri": "data:application/octet-stream;base64,"
    },
    {
      "byteLength": 2460,
      "uri": "data:application/octet-stream;base64,"
    },
    {
      "byteLength": 2460,
      "uri": "data:application/octet-stream;base64,"
    },
    {
      "byteLength": 2460,
      "uri": "data:application/octet-stream;base64,"
    }
  ],
  "bufferViews": [
    {
      "buffer": 0,
      "byteOffset": 0,
      "byteLength": 822
    },
    {
      "buffer": 1,
      "byteOffset": 0,
      "byteLength": 2460
    },
    {
      "buffer": 2,
      "byteOffset": 0,
      "byteLength": 2460
    },
    {
      "buffer": 3,
      "byteOffset": 0,
      "byteLength": 2460
    }
  ],
  "meshes": [
    {
      "primitives": [
        {
          "mode": 4,
          "indices": 0,
          "attributes": {
            "POSITION": 1,
            "NORMAL": 2,
            "COLOR_0": 3
          }
        }
      ]
    }
  ],
  "nodes": [
    {
      "children": [
        1
      ]
    },
    {
      "mesh": 0
    }
  ],
  "scenes": [
    {
      "nodes": [
        0
      ]
    }
  ],
  "scene": 0
}