{
  "asset": {
    "version": "2.0",
    "generator": "COLLADA2GLTF"
  },
  "accessors": [
    {
      "bufferView": 0,
      "byteOffset": 0,
      "componentType": 5123,
      "count": 1641,
      "min": [
        0
      ],
      "max": [
        594
      ],
      "type": "SCALAR"
    },
    {
      "bufferView": 1,
      "byteOffset": 0,
      "componentType": 5126,
      "count": 595,
      "max": [
        -4754.236328125,
        12,
        -438.5158386230469
      ],
      "min": [
        -4995.748046875,
        7,
        -542.8131713867188
      ],
      "type": "VEC3"
    },
    {
      "bufferView": 2,
      "byteOffset": 0,
      "componentType": 5126,
      "count": 595,
      "max": [
        0.918110728263855,
        0.7070935964584351,
        0.918110728263855
      ],
      "min": [
        -0.918110728263855,
        -0.7070935964584351,
        -0.918110728263855
      ],
      "type": "VEC3"
    },
    {
      "bufferView": 3,
      "byteOffset": 0,
      "componentType": 5126,
      "count": 595,
      "max": [
        0.4480048716068268,
        0.4480048716068268,
        0.4480659067630768
      ],
      "min": [
        0,
        0,
        0
      ],
      "type": "VEC3"
    }
  ],
  "buffers": [
    {
      "byteLength": 3282,
      "uri": "data:application/octet-stream;base64,"
    },
    {
      "byteLength": 7140,
      "uri": "data:application/octet-stream;base64,"
    },
    {
      "byteLength": 7140,
      "uri": "data:application/octet-stream;base64,"
    },
    {
      "byteLength": 7140,
      "uri": "data:application/octet-stream;base64,"
    }
  ],
  "bufferViews": [
    {
      "buffer": 0,
      "byteOffset": 0,
      "byteLength": 3282
    },
    {
      "buffer": 1,
      "byteOffset": 0,
      "byteLength": 7140
    },
    {
      "buffer": 2,
      "byteOffset": 0,
      "byteLength": 7140
    },
    {
      "buffer": 3,
      "byteOffset": 0,
      "byteLength": 7140
    }
  ],
  "meshes": [
    {
      "primitives": [
        {
          "mode": 4,
          "indices": 0,
          "attributes": {
            "POSITION": 1,
            "NORMAL": 2,
            "COLOR_0": 3
          }
        }
      ]
    }
  ],
  "nodes": [
    {
      "children": [
        1
      ]
    },
    {
      "mesh": 0
    }
  ],
  "scenes": [
    {
      "nodes": [
        0
      ]
    }
  ],
  "scene": 0
}