{
  "asset": {
    "version": "2.0",
    "generator": "COLLADA2GLTF"
  },
  "accessors": [
    {
      "bufferView": 0,
      "byteOffset": 0,
      "componentType": 5123,
      "count": 1818,
      "min": [
        0
      ],
      "max": [
        880
      ],
      "type": "SCALAR"
    },
    {
      "bufferView": 1,
      "byteOffset": 0,
      "componentType": 5126,
      "count": 881,
      "max": [
        -785.6380004882812,
        0.0010000000474974513,
        4863.73876953125
      ],
      "min": [
        -2066.010009765625,
        0,
        -2842.530029296875
      ],
      "type": "VEC3"
    },
    {
      "bufferView": 2,
      "byteOffset": 0,
      "componentType": 5126,
      "count": 881,
      "max": [
        0.8158096075057983,
        1,
        0.8154550194740295
      ],
      "min": [
        -0.8174294233322144,
        0,
        -0.8163790106773376
      ],
      "type": "VEC3"
    },
    {
      "bufferView": 3,
      "byteOffset": 0,
      "componentType": 5126,
      "count": 881,
      "max": [
        0.999786376953125,
        1,
        1
      ],
      "min": [
        0,
        0.00003051804378628731,
        0.00004577706567943096
      ],
      "type": "VEC3"
    }
  ],
  "buffers": [
    {
      "byteLength": 3636,
      "uri": "data:application/octet-stream;base64,"
    },
    {
      "byteLength": 10572,
      "uri": "data:application/octet-stream;base64,"
    },
    {
      "byteLength": 10572,
      "uri": "data:application/octet-stream;base64,"
    },
    {
      "byteLength": 10572,
      "uri": "data:application/octet-stream;base64,"
    }
  ],
  "bufferViews": [
    {
      "buffer": 0,
      "byteOffset": 0,
      "byteLength": 3636
    },
    {
      "buffer": 1,
      "byteOffset": 0,
      "byteLength": 10572
    },
    {
      "buffer": 2,
      "byteOffset": 0,
      "byteLength": 10572
    },
    {
      "buffer": 3,
      "byteOffset": 0,
      "byteLength": 10572
    }
  ],
  "meshes": [
    {
      "primitives": [
        {
          "mode": 4,
          "indices": 0,
          "attributes": {
            "POSITION": 1,
            "NORMAL": 2,
            "COLOR_0": 3
          }
        }
      ]
    }
  ],
  "nodes": [
    {
      "children": [
        1
      ]
    },
    {
      "mesh": 0
    }
  ],
  "scenes": [
    {
      "nodes": [
        0
      ]
    }
  ],
  "scene": 0
}