{
  "asset": {
    "version": "2.0",
    "generator": "COLLADA2GLTF"
  },
  "accessors": [
    {
      "bufferView": 0,
      "byteOffset": 0,
      "componentType": 5123,
      "count": 54,
      "min": [
        0
      ],
      "max": [
        45
      ],
      "type": "SCALAR"
    },
    {
      "bufferView": 1,
      "byteOffset": 0,
      "componentType": 5126,
      "count": 46,
      "max": [
        -1284.4442138671875,
        47.5,
        -876.9081420898438
      ],
      "min": [
        -1328.92578125,
        0,
        -913.3689575195312
      ],
      "type": "VEC3"
    },
    {
      "bufferView": 2,
      "byteOffset": 0,
      "componentType": 5126,
      "count": 46,
      "max": [
        0.8146253228187561,
        0,
        0.8342211246490479
      ],
      "min": [
        -0.8229207992553711,
        0,
        -0.947327733039856
      ],
      "type": "VEC3"
    },
    {
      "bufferView": 3,
      "byteOffset": 0,
      "componentType": 5126,
      "count": 46,
      "max": [
        0.999786376953125,
        0.7875181436538696,
        0.26330968737602234
      ],
      "min": [
        0.999786376953125,
        0.7875181436538696,
        0.26330968737602234
      ],
      "type": "VEC3"
    }
  ],
  "buffers": [
    {
      "byteLength": 108,
      "uri": "data:application/octet-stream;base64,"
    },
    {
      "byteLength": 552,
      "uri": "data:application/octet-stream;base64,"
    },
    {
      "byteLength": 552,
      "uri": "data:application/octet-stream;base64,"
    },
    {
      "byteLength": 552,
      "uri": "data:application/octet-stream;base64,"
    }
  ],
  "bufferViews": [
    {
      "buffer": 0,
      "byteOffset": 0,
      "byteLength": 108
    },
    {
      "buffer": 1,
      "byteOffset": 0,
      "byteLength": 552
    },
    {
      "buffer": 2,
      "byteOffset": 0,
      "byteLength": 552
    },
    {
      "buffer": 3,
      "byteOffset": 0,
      "byteLength": 552
    }
  ],
  "meshes": [
    {
      "primitives": [
        {
          "mode": 4,
          "indices": 0,
          "attributes": {
            "POSITION": 1,
            "NORMAL": 2,
            "COLOR_0": 3
          }
        }
      ]
    }
  ],
  "nodes": [
    {
      "children": [
        1
      ]
    },
    {
      "mesh": 0
    }
  ],
  "scenes": [
    {
      "nodes": [
        0
      ]
    }
  ],
  "scene": 0
}