{
  "asset": {
    "version": "2.0",
    "generator": "COLLADA2GLTF"
  },
  "accessors": [
    {
      "bufferView": 0,
      "byteOffset": 0,
      "componentType": 5123,
      "count": 2520,
      "min": [
        0
      ],
      "max": [
        1293
      ],
      "type": "SCALAR"
    },
    {
      "bufferView": 1,
      "byteOffset": 0,
      "componentType": 5126,
      "count": 1294,
      "max": [
        -2274.2060546875,
        90,
        1019.0540161132812
      ],
      "min": [
        -3365.220703125,
        0,
        -1318.3427734375
      ],
      "type": "VEC3"
    },
    {
      "bufferView": 2,
      "byteOffset": 0,
      "componentType": 5126,
      "count": 1294,
      "max": [
        0.8953307867050171,
        1,
        0.9136388897895813
      ],
      "min": [
        -0.9489525556564331,
        0,
        -0.9070903062820435
      ],
      "type": "VEC3"
    },
    {
      "bufferView": 3,
      "byteOffset": 0,
      "componentType": 5126,
      "count": 1294,
      "max": [
        0.999786376953125,
        0.7875181436538696,
        0.26330968737602234
      ],
      "min": [
        0.6036774516105652,
        0.00003051804378628731,
        0
      ],
      "type": "VEC3"
    }
  ],
  "buffers": [
    {
      "byteLength": 5040,
      "uri": "data:application/octet-stream;base64,"
    },
    {
      "byteLength": 15528,
      "uri": "data:application/octet-stream;base64,"
    },
    {
      "byteLength": 15528,
      "uri": "data:application/octet-stream;base64,"
    },
    {
      "byteLength": 15528,
      "uri": "data:application/octet-stream;base64,"
    }
  ],
  "bufferViews": [
    {
      "buffer": 0,
      "byteOffset": 0,
      "byteLength": 5040
    },
    {
      "buffer": 1,
      "byteOffset": 0,
      "byteLength": 15528
    },
    {
      "buffer": 2,
      "byteOffset": 0,
      "byteLength": 15528
    },
    {
      "buffer": 3,
      "byteOffset": 0,
      "byteLength": 15528
    }
  ],
  "meshes": [
    {
      "primitives": [
        {
          "mode": 4,
          "indices": 0,
          "attributes": {
            "POSITION": 1,
            "NORMAL": 2,
            "COLOR_0": 3
          }
        }
      ]
    }
  ],
  "nodes": [
    {
      "children": [
        1
      ]
    },
    {
      "mesh": 0
    }
  ],
  "scenes": [
    {
      "nodes": [
        0
      ]
    }
  ],
  "scene": 0
}