{
  "asset": {
    "version": "2.0",
    "generator": "COLLADA2GLTF"
  },
  "accessors": [
    {
      "bufferView": 0,
      "byteOffset": 0,
      "componentType": 5123,
      "count": 2871,
      "min": [
        0
      ],
      "max": [
        1237
      ],
      "type": "SCALAR"
    },
    {
      "bufferView": 1,
      "byteOffset": 0,
      "componentType": 5126,
      "count": 1238,
      "max": [
        -2091.183837890625,
        24.524999618530273,
        488.9873962402344
      ],
      "min": [
        -2301.67919921875,
        12.164999961853027,
        118.85831451416016
      ],
      "type": "VEC3"
    },
    {
      "bufferView": 2,
      "byteOffset": 0,
      "componentType": 5126,
      "count": 1238,
      "max": [
        0.8571977615356445,
        0.707068920135498,
        0.8571977615356445
      ],
      "min": [
        -0.8571977615356445,
        -0.707068920135498,
        -0.8571977615356445
      ],
      "type": "VEC3"
    },
    {
      "bufferView": 3,
      "byteOffset": 0,
      "componentType": 5126,
      "count": 1238,
      "max": [
        0.4480048716068268,
        0.4480048716068268,
        0.4480659067630768
      ],
      "min": [
        0,
        0,
        0
      ],
      "type": "VEC3"
    }
  ],
  "buffers": [
    {
      "byteLength": 5742,
      "uri": "data:application/octet-stream;base64,"
    },
    {
      "byteLength": 14856,
      "uri": "data:application/octet-stream;base64,"
    },
    {
      "byteLength": 14856,
      "uri": "data:application/octet-stream;base64,"
    },
    {
      "byteLength": 14856,
      "uri": "data:application/octet-stream;base64,"
    }
  ],
  "bufferViews": [
    {
      "buffer": 0,
      "byteOffset": 0,
      "byteLength": 5742
    },
    {
      "buffer": 1,
      "byteOffset": 0,
      "byteLength": 14856
    },
    {
      "buffer": 2,
      "byteOffset": 0,
      "byteLength": 14856
    },
    {
      "buffer": 3,
      "byteOffset": 0,
      "byteLength": 14856
    }
  ],
  "meshes": [
    {
      "primitives": [
        {
          "mode": 4,
          "indices": 0,
          "attributes": {
            "POSITION": 1,
            "NORMAL": 2,
            "COLOR_0": 3
          }
        }
      ]
    }
  ],
  "nodes": [
    {
      "children": [
        1
      ]
    },
    {
      "mesh": 0
    }
  ],
  "scenes": [
    {
      "nodes": [
        0
      ]
    }
  ],
  "scene": 0
}