{
  "asset": {
    "version": "2.0",
    "generator": "COLLADA2GLTF"
  },
  "accessors": [
    {
      "bufferView": 0,
      "byteOffset": 0,
      "componentType": 5123,
      "count": 4611,
      "min": [
        0
      ],
      "max": [
        1558
      ],
      "type": "SCALAR"
    },
    {
      "bufferView": 1,
      "byteOffset": 0,
      "componentType": 5126,
      "count": 1559,
      "max": [
        8169.8310546875,
        37.025001525878906,
        10339.4140625
      ],
      "min": [
        6738.48291015625,
        17.165000915527344,
        9266.630859375
      ],
      "type": "VEC3"
    },
    {
      "bufferView": 2,
      "byteOffset": 0,
      "componentType": 5126,
      "count": 1559,
      "max": [
        0.8187221884727478,
        0.7071011662483215,
        0.8464967608451843
      ],
      "min": [
        -0.8187221884727478,
        -0.7071011662483215,
        -0.8187221884727478
      ],
      "type": "VEC3"
    },
    {
      "bufferView": 3,
      "byteOffset": 0,
      "componentType": 5126,
      "count": 1559,
      "max": [
        0.4480048716068268,
        0.4480048716068268,
        0.4480659067630768
      ],
      "min": [
        0,
        0,
        0
      ],
      "type": "VEC3"
    }
  ],
  "buffers": [
    {
      "byteLength": 9222,
      "uri": "data:application/octet-stream;base64,"
    },
    {
      "byteLength": 18708,
      "uri": "data:application/octet-stream;base64,"
    },
    {
      "byteLength": 18708,
      "uri": "data:application/octet-stream;base64,"
    },
    {
      "byteLength": 18708,
      "uri": "data:application/octet-stream;base64,"
    }
  ],
  "bufferViews": [
    {
      "buffer": 0,
      "byteOffset": 0,
      "byteLength": 9222
    },
    {
      "buffer": 1,
      "byteOffset": 0,
      "byteLength": 18708
    },
    {
      "buffer": 2,
      "byteOffset": 0,
      "byteLength": 18708
    },
    {
      "buffer": 3,
      "byteOffset": 0,
      "byteLength": 18708
    }
  ],
  "meshes": [
    {
      "primitives": [
        {
          "mode": 4,
          "indices": 0,
          "attributes": {
            "POSITION": 1,
            "NORMAL": 2,
            "COLOR_0": 3
          }
        }
      ]
    }
  ],
  "nodes": [
    {
      "children": [
        1
      ]
    },
    {
      "mesh": 0
    }
  ],
  "scenes": [
    {
      "nodes": [
        0
      ]
    }
  ],
  "scene": 0
}