{
  "asset": {
    "version": "2.0",
    "generator": "COLLADA2GLTF"
  },
  "accessors": [
    {
      "bufferView": 0,
      "byteOffset": 0,
      "componentType": 5123,
      "count": 2019,
      "min": [
        0
      ],
      "max": [
        937
      ],
      "type": "SCALAR"
    },
    {
      "bufferView": 1,
      "byteOffset": 0,
      "componentType": 5126,
      "count": 938,
      "max": [
        -2405.184814453125,
        24.526596069335938,
        1571.2098388671875
      ],
      "min": [
        -2738.451416015625,
        -0.5,
        1318.282958984375
      ],
      "type": "VEC3"
    },
    {
      "bufferView": 2,
      "byteOffset": 0,
      "componentType": 5126,
      "count": 938,
      "max": [
        1,
        1,
        1
      ],
      "min": [
        -0.9997288584709167,
        -1,
        -0.9993932247161865
      ],
      "type": "VEC3"
    },
    {
      "bufferView": 3,
      "byteOffset": 0,
      "componentType": 5126,
      "count": 938,
      "max": [
        0.5774929523468018,
        0.5776150226593018,
        0.5776455402374268
      ],
      "min": [
        0,
        0,
        0
      ],
      "type": "VEC3"
    }
  ],
  "buffers": [
    {
      "byteLength": 4038,
      "uri": "data:application/octet-stream;base64,"
    },
    {
      "byteLength": 11256,
      "uri": "data:application/octet-stream;base64,"
    },
    {
      "byteLength": 11256,
      "uri": "data:application/octet-stream;base64,"
    },
    {
      "byteLength": 11256,
      "uri": "data:application/octet-stream;base64,"
    }
  ],
  "bufferViews": [
    {
      "buffer": 0,
      "byteOffset": 0,
      "byteLength": 4038
    },
    {
      "buffer": 1,
      "byteOffset": 0,
      "byteLength": 11256
    },
    {
      "buffer": 2,
      "byteOffset": 0,
      "byteLength": 11256
    },
    {
      "buffer": 3,
      "byteOffset": 0,
      "byteLength": 11256
    }
  ],
  "meshes": [
    {
      "primitives": [
        {
          "mode": 4,
          "indices": 0,
          "attributes": {
            "POSITION": 1,
            "NORMAL": 2,
            "COLOR_0": 3
          }
        }
      ]
    }
  ],
  "nodes": [
    {
      "children": [
        1
      ]
    },
    {
      "mesh": 0
    }
  ],
  "scenes": [
    {
      "nodes": [
        0
      ]
    }
  ],
  "scene": 0
}