{
  "asset": {
    "version": "2.0",
    "generator": "COLLADA2GLTF"
  },
  "accessors": [
    {
      "bufferView": 0,
      "byteOffset": 0,
      "componentType": 5123,
      "count": 1887,
      "min": [
        0
      ],
      "max": [
        1048
      ],
      "type": "SCALAR"
    },
    {
      "bufferView": 1,
      "byteOffset": 0,
      "componentType": 5126,
      "count": 1049,
      "max": [
        637.3599243164062,
        67.5,
        19.915794372558594
      ],
      "min": [
        191.002197265625,
        0,
        -931.5919799804688
      ],
      "type": "VEC3"
    },
    {
      "bufferView": 2,
      "byteOffset": 0,
      "componentType": 5126,
      "count": 1049,
      "max": [
        0.9976339340209961,
        1,
        0.9998590350151062
      ],
      "min": [
        -0.9970486760139465,
        0,
        -1
      ],
      "type": "VEC3"
    },
    {
      "bufferView": 3,
      "byteOffset": 0,
      "componentType": 5126,
      "count": 1049,
      "max": [
        0.999786376953125,
        0.7875181436538696,
        0.7875028848648071
      ],
      "min": [
        0.6036774516105652,
        0.00003051804378628731,
        0
      ],
      "type": "VEC3"
    }
  ],
  "buffers": [
    {
      "byteLength": 3774,
      "uri": "data:application/octet-stream;base64,"
    },
    {
      "byteLength": 12588,
      "uri": "data:application/octet-stream;base64,"
    },
    {
      "byteLength": 12588,
      "uri": "data:application/octet-stream;base64,"
    },
    {
      "byteLength": 12588,
      "uri": "data:application/octet-stream;base64,"
    }
  ],
  "bufferViews": [
    {
      "buffer": 0,
      "byteOffset": 0,
      "byteLength": 3774
    },
    {
      "buffer": 1,
      "byteOffset": 0,
      "byteLength": 12588
    },
    {
      "buffer": 2,
      "byteOffset": 0,
      "byteLength": 12588
    },
    {
      "buffer": 3,
      "byteOffset": 0,
      "byteLength": 12588
    }
  ],
  "meshes": [
    {
      "primitives": [
        {
          "mode": 4,
          "indices": 0,
          "attributes": {
            "POSITION": 1,
            "NORMAL": 2,
            "COLOR_0": 3
          }
        }
      ]
    }
  ],
  "nodes": [
    {
      "children": [
        1
      ]
    },
    {
      "mesh": 0
    }
  ],
  "scenes": [
    {
      "nodes": [
        0
      ]
    }
  ],
  "scene": 0
}