{
  "asset": {
    "version": "2.0",
    "generator": "COLLADA2GLTF"
  },
  "accessors": [
    {
      "bufferView": 0,
      "byteOffset": 0,
      "componentType": 5123,
      "count": 3561,
      "min": [
        0
      ],
      "max": [
        1211
      ],
      "type": "SCALAR"
    },
    {
      "bufferView": 1,
      "byteOffset": 0,
      "componentType": 5126,
      "count": 1212,
      "max": [
        712.8484497070312,
        0.06400000303983688,
        2836.5361328125
      ],
      "min": [
        677.3287963867188,
        0,
        2822.918701171875
      ],
      "type": "VEC3"
    },
    {
      "bufferView": 2,
      "byteOffset": 0,
      "componentType": 5126,
      "count": 1212,
      "max": [
        0.9421392679214478,
        1,
        0.9421392679214478
      ],
      "min": [
        -0.9421392679214478,
        0,
        -0.9421392679214478
      ],
      "type": "VEC3"
    },
    {
      "bufferView": 3,
      "byteOffset": 0,
      "componentType": 5126,
      "count": 1212,
      "max": [
        0.07322804629802704,
        0.03309682011604309,
        0.03311207890510559
      ],
      "min": [
        0.07322804629802704,
        0.03309682011604309,
        0.03311207890510559
      ],
      "type": "VEC3"
    }
  ],
  "buffers": [
    {
      "byteLength": 7122,
      "uri": "data:application/octet-stream;base64,"
    },
    {
      "byteLength": 14544,
      "uri": "data:application/octet-stream;base64,"
    },
    {
      "byteLength": 14544,
      "uri": "data:application/octet-stream;base64,"
    },
    {
      "byteLength": 14544,
      "uri": "data:application/octet-stream;base64,"
    }
  ],
  "bufferViews": [
    {
      "buffer": 0,
      "byteOffset": 0,
      "byteLength": 7122
    },
    {
      "buffer": 1,
      "byteOffset": 0,
      "byteLength": 14544
    },
    {
      "buffer": 2,
      "byteOffset": 0,
      "byteLength": 14544
    },
    {
      "buffer": 3,
      "byteOffset": 0,
      "byteLength": 14544
    }
  ],
  "meshes": [
    {
      "primitives": [
        {
          "mode": 4,
          "indices": 0,
          "attributes": {
            "POSITION": 1,
            "NORMAL": 2,
            "COLOR_0": 3
          }
        }
      ]
    }
  ],
  "nodes": [
    {
      "children": [
        1
      ]
    },
    {
      "mesh": 0
    }
  ],
  "scenes": [
    {
      "nodes": [
        0
      ]
    }
  ],
  "scene": 0
}