{
  "asset": {
    "version": "2.0",
    "generator": "COLLADA2GLTF"
  },
  "accessors": [
    {
      "bufferView": 0,
      "byteOffset": 0,
      "componentType": 5123,
      "count": 213,
      "min": [
        0
      ],
      "max": [
        121
      ],
      "type": "SCALAR"
    },
    {
      "bufferView": 1,
      "byteOffset": 0,
      "componentType": 5126,
      "count": 122,
      "max": [
        0,
        0,
        210
      ],
      "min": [
        -271.9067687988281,
        0,
        -89.44607543945312
      ],
      "type": "VEC3"
    },
    {
      "bufferView": 2,
      "byteOffset": 0,
      "componentType": 5126,
      "count": 122,
      "max": [
        0.8193174004554749,
        1,
        0
      ],
      "min": [
        0,
        0,
        -0.5733401775360107
      ],
      "type": "VEC3"
    },
    {
      "bufferView": 3,
      "byteOffset": 0,
      "componentType": 5126,
      "count": 122,
      "max": [
        0.999786376953125,
        1,
        0.26330968737602234
      ],
      "min": [
        0.000015259021893143654,
        0.07324330508708954,
        0.00004577706567943096
      ],
      "type": "VEC3"
    }
  ],
  "buffers": [
    {
      "byteLength": 426,
      "uri": "data:application/octet-stream;base64,"
    },
    {
      "byteLength": 1464,
      "uri": "data:application/octet-stream;base64,"
    },
    {
      "byteLength": 1464,
      "uri": "data:application/octet-stream;base64,"
    },
    {
      "byteLength": 1464,
      "uri": "data:application/octet-stream;base64,"
    }
  ],
  "bufferViews": [
    {
      "buffer": 0,
      "byteOffset": 0,
      "byteLength": 426
    },
    {
      "buffer": 1,
      "byteOffset": 0,
      "byteLength": 1464
    },
    {
      "buffer": 2,
      "byteOffset": 0,
      "byteLength": 1464
    },
    {
      "buffer": 3,
      "byteOffset": 0,
      "byteLength": 1464
    }
  ],
  "meshes": [
    {
      "primitives": [
        {
          "mode": 4,
          "indices": 0,
          "attributes": {
            "POSITION": 1,
            "NORMAL": 2,
            "COLOR_0": 3
          }
        }
      ]
    }
  ],
  "nodes": [
    {
      "children": [
        1
      ]
    },
    {
      "mesh": 0
    }
  ],
  "scenes": [
    {
      "nodes": [
        0
      ]
    }
  ],
  "scene": 0
}