{
  "asset": {
    "version": "2.0",
    "generator": "COLLADA2GLTF"
  },
  "accessors": [
    {
      "bufferView": 0,
      "byteOffset": 0,
      "componentType": 5123,
      "count": 5370,
      "min": [
        0
      ],
      "max": [
        1831
      ],
      "type": "SCALAR"
    },
    {
      "bufferView": 1,
      "byteOffset": 0,
      "componentType": 5126,
      "count": 1832,
      "max": [
        -1151.86328125,
        12,
        -480.2086486816406
      ],
      "min": [
        -1435.7725830078125,
        7,
        -721.0997314453125
      ],
      "type": "VEC3"
    },
    {
      "bufferView": 2,
      "byteOffset": 0,
      "componentType": 5126,
      "count": 1832,
      "max": [
        0.7696943283081055,
        0.707085907459259,
        0.7696943283081055
      ],
      "min": [
        -0.7696943283081055,
        -0.707085907459259,
        -0.7696943283081055
      ],
      "type": "VEC3"
    },
    {
      "bufferView": 3,
      "byteOffset": 0,
      "componentType": 5126,
      "count": 1832,
      "max": [
        0.4480048716068268,
        0.4480048716068268,
        0.4480659067630768
      ],
      "min": [
        0,
        0,
        0
      ],
      "type": "VEC3"
    }
  ],
  "buffers": [
    {
      "byteLength": 10740,
      "uri": "data:application/octet-stream;base64,"
    },
    {
      "byteLength": 21984,
      "uri": "data:application/octet-stream;base64,"
    },
    {
      "byteLength": 21984,
      "uri": "data:application/octet-stream;base64,"
    },
    {
      "byteLength": 21984,
      "uri": "data:application/octet-stream;base64,"
    }
  ],
  "bufferViews": [
    {
      "buffer": 0,
      "byteOffset": 0,
      "byteLength": 10740
    },
    {
      "buffer": 1,
      "byteOffset": 0,
      "byteLength": 21984
    },
    {
      "buffer": 2,
      "byteOffset": 0,
      "byteLength": 21984
    },
    {
      "buffer": 3,
      "byteOffset": 0,
      "byteLength": 21984
    }
  ],
  "meshes": [
    {
      "primitives": [
        {
          "mode": 4,
          "indices": 0,
          "attributes": {
            "POSITION": 1,
            "NORMAL": 2,
            "COLOR_0": 3
          }
        }
      ]
    }
  ],
  "nodes": [
    {
      "children": [
        1
      ]
    },
    {
      "mesh": 0
    }
  ],
  "scenes": [
    {
      "nodes": [
        0
      ]
    }
  ],
  "scene": 0
}