{
  "asset": {
    "version": "2.0",
    "generator": "COLLADA2GLTF"
  },
  "accessors": [
    {
      "bufferView": 0,
      "byteOffset": 0,
      "componentType": 5123,
      "count": 258,
      "min": [
        0
      ],
      "max": [
        137
      ],
      "type": "SCALAR"
    },
    {
      "bufferView": 1,
      "byteOffset": 0,
      "componentType": 5126,
      "count": 138,
      "max": [
        -779.0250244140625,
        7.5,
        354.9049987792969
      ],
      "min": [
        -870.9869995117188,
        0,
        287.3240051269531
      ],
      "type": "VEC3"
    },
    {
      "bufferView": 2,
      "byteOffset": 0,
      "componentType": 5126,
      "count": 138,
      "max": [
        0.8270400762557983,
        0,
        0.8277897834777832
      ],
      "min": [
        -0.8275089859962463,
        0,
        -0.8285492062568665
      ],
      "type": "VEC3"
    },
    {
      "bufferView": 3,
      "byteOffset": 0,
      "componentType": 5126,
      "count": 138,
      "max": [
        0.999786376953125,
        0.7875181436538696,
        0.26330968737602234
      ],
      "min": [
        0.999786376953125,
        0.7875181436538696,
        0.26330968737602234
      ],
      "type": "VEC3"
    }
  ],
  "buffers": [
    {
      "byteLength": 516,
      "uri": "data:application/octet-stream;base64,"
    },
    {
      "byteLength": 1656,
      "uri": "data:application/octet-stream;base64,"
    },
    {
      "byteLength": 1656,
      "uri": "data:application/octet-stream;base64,"
    },
    {
      "byteLength": 1656,
      "uri": "data:application/octet-stream;base64,"
    }
  ],
  "bufferViews": [
    {
      "buffer": 0,
      "byteOffset": 0,
      "byteLength": 516
    },
    {
      "buffer": 1,
      "byteOffset": 0,
      "byteLength": 1656
    },
    {
      "buffer": 2,
      "byteOffset": 0,
      "byteLength": 1656
    },
    {
      "buffer": 3,
      "byteOffset": 0,
      "byteLength": 1656
    }
  ],
  "meshes": [
    {
      "primitives": [
        {
          "mode": 4,
          "indices": 0,
          "attributes": {
            "POSITION": 1,
            "NORMAL": 2,
            "COLOR_0": 3
          }
        }
      ]
    }
  ],
  "nodes": [
    {
      "children": [
        1
      ]
    },
    {
      "mesh": 0
    }
  ],
  "scenes": [
    {
      "nodes": [
        0
      ]
    }
  ],
  "scene": 0
}