{
  "asset": {
    "version": "2.0",
    "generator": "COLLADA2GLTF"
  },
  "accessors": [
    {
      "bufferView": 0,
      "byteOffset": 0,
      "componentType": 5123,
      "count": 861,
      "min": [
        0
      ],
      "max": [
        387
      ],
      "type": "SCALAR"
    },
    {
      "bufferView": 1,
      "byteOffset": 0,
      "componentType": 5126,
      "count": 388,
      "max": [
        390,
        0.0010000000474974513,
        239.46478271484375
      ],
      "min": [
        92.75389099121094,
        -0.20000000298023224,
        -29.029495239257812
      ],
      "type": "VEC3"
    },
    {
      "bufferView": 2,
      "byteOffset": 0,
      "componentType": 5126,
      "count": 388,
      "max": [
        0.7800902724266052,
        1,
        0.7804459929466248
      ],
      "min": [
        -0.7269266247749329,
        0,
        -0.7269266247749329
      ],
      "type": "VEC3"
    },
    {
      "bufferView": 3,
      "byteOffset": 0,
      "componentType": 5126,
      "count": 388,
      "max": [
        0.999786376953125,
        1,
        0.7875028848648071
      ],
      "min": [
        0.000015259021893143654,
        0.07324330508708954,
        0.00004577706567943096
      ],
      "type": "VEC3"
    }
  ],
  "buffers": [
    {
      "byteLength": 1722,
      "uri": "data:application/octet-stream;base64,"
    },
    {
      "byteLength": 4656,
      "uri": "data:application/octet-stream;base64,"
    },
    {
      "byteLength": 4656,
      "uri": "data:application/octet-stream;base64,"
    },
    {
      "byteLength": 4656,
      "uri": "data:application/octet-stream;base64,"
    }
  ],
  "bufferViews": [
    {
      "buffer": 0,
      "byteOffset": 0,
      "byteLength": 1722
    },
    {
      "buffer": 1,
      "byteOffset": 0,
      "byteLength": 4656
    },
    {
      "buffer": 2,
      "byteOffset": 0,
      "byteLength": 4656
    },
    {
      "buffer": 3,
      "byteOffset": 0,
      "byteLength": 4656
    }
  ],
  "meshes": [
    {
      "primitives": [
        {
          "mode": 4,
          "indices": 0,
          "attributes": {
            "POSITION": 1,
            "NORMAL": 2,
            "COLOR_0": 3
          }
        }
      ]
    }
  ],
  "nodes": [
    {
      "children": [
        1
      ]
    },
    {
      "mesh": 0
    }
  ],
  "scenes": [
    {
      "nodes": [
        0
      ]
    }
  ],
  "scene": 0
}