{
  "asset": {
    "version": "2.0",
    "generator": "COLLADA2GLTF"
  },
  "accessors": [
    {
      "bufferView": 0,
      "byteOffset": 0,
      "componentType": 5123,
      "count": 1704,
      "min": [
        0
      ],
      "max": [
        679
      ],
      "type": "SCALAR"
    },
    {
      "bufferView": 1,
      "byteOffset": 0,
      "componentType": 5126,
      "count": 680,
      "max": [
        -808.419677734375,
        0.0010000000474974513,
        1179.4263916015625
      ],
      "min": [
        -1062.768310546875,
        0,
        990
      ],
      "type": "VEC3"
    },
    {
      "bufferView": 2,
      "byteOffset": 0,
      "componentType": 5126,
      "count": 680,
      "max": [
        0,
        1,
        0
      ],
      "min": [
        0,
        1,
        0
      ],
      "type": "VEC3"
    },
    {
      "bufferView": 3,
      "byteOffset": 0,
      "componentType": 5126,
      "count": 680,
      "max": [
        0.7872740030288696,
        1,
        0.7875028848648071
      ],
      "min": [
        0.000015259021893143654,
        0.07324330508708954,
        0.00004577706567943096
      ],
      "type": "VEC3"
    }
  ],
  "buffers": [
    {
      "byteLength": 3408,
      "uri": "data:application/octet-stream;base64,"
    },
    {
      "byteLength": 8160,
      "uri": "data:application/octet-stream;base64,"
    },
    {
      "byteLength": 8160,
      "uri": "data:application/octet-stream;base64,"
    },
    {
      "byteLength": 8160,
      "uri": "data:application/octet-stream;base64,"
    }
  ],
  "bufferViews": [
    {
      "buffer": 0,
      "byteOffset": 0,
      "byteLength": 3408
    },
    {
      "buffer": 1,
      "byteOffset": 0,
      "byteLength": 8160
    },
    {
      "buffer": 2,
      "byteOffset": 0,
      "byteLength": 8160
    },
    {
      "buffer": 3,
      "byteOffset": 0,
      "byteLength": 8160
    }
  ],
  "meshes": [
    {
      "primitives": [
        {
          "mode": 4,
          "indices": 0,
          "attributes": {
            "POSITION": 1,
            "NORMAL": 2,
            "COLOR_0": 3
          }
        }
      ]
    }
  ],
  "nodes": [
    {
      "children": [
        1
      ]
    },
    {
      "mesh": 0
    }
  ],
  "scenes": [
    {
      "nodes": [
        0
      ]
    }
  ],
  "scene": 0
}