{
  "asset": {
    "version": "2.0",
    "generator": "COLLADA2GLTF"
  },
  "accessors": [
    {
      "bufferView": 0,
      "byteOffset": 0,
      "componentType": 5123,
      "count": 1743,
      "min": [
        0
      ],
      "max": [
        736
      ],
      "type": "SCALAR"
    },
    {
      "bufferView": 1,
      "byteOffset": 0,
      "componentType": 5126,
      "count": 737,
      "max": [
        1890,
        2.299999952316284,
        -1159.6834716796875
      ],
      "min": [
        1588.92822265625,
        -0.20000000298023224,
        -1373.62451171875
      ],
      "type": "VEC3"
    },
    {
      "bufferView": 2,
      "byteOffset": 0,
      "componentType": 5126,
      "count": 737,
      "max": [
        0.9898214340209961,
        1,
        1
      ],
      "min": [
        -0.9898214340209961,
        -1,
        -0.9594929814338684
      ],
      "type": "VEC3"
    },
    {
      "bufferView": 3,
      "byteOffset": 0,
      "componentType": 5126,
      "count": 737,
      "max": [
        0.5774929523468018,
        1,
        0.5776455402374268
      ],
      "min": [
        0.000015259021893143654,
        0.07324330508708954,
        0.00004577706567943096
      ],
      "type": "VEC3"
    }
  ],
  "buffers": [
    {
      "byteLength": 3486,
      "uri": "data:application/octet-stream;base64,"
    },
    {
      "byteLength": 8844,
      "uri": "data:application/octet-stream;base64,"
    },
    {
      "byteLength": 8844,
      "uri": "data:application/octet-stream;base64,"
    },
    {
      "byteLength": 8844,
      "uri": "data:application/octet-stream;base64,"
    }
  ],
  "bufferViews": [
    {
      "buffer": 0,
      "byteOffset": 0,
      "byteLength": 3486
    },
    {
      "buffer": 1,
      "byteOffset": 0,
      "byteLength": 8844
    },
    {
      "buffer": 2,
      "byteOffset": 0,
      "byteLength": 8844
    },
    {
      "buffer": 3,
      "byteOffset": 0,
      "byteLength": 8844
    }
  ],
  "meshes": [
    {
      "primitives": [
        {
          "mode": 4,
          "indices": 0,
          "attributes": {
            "POSITION": 1,
            "NORMAL": 2,
            "COLOR_0": 3
          }
        }
      ]
    }
  ],
  "nodes": [
    {
      "children": [
        1
      ]
    },
    {
      "mesh": 0
    }
  ],
  "scenes": [
    {
      "nodes": [
        0
      ]
    }
  ],
  "scene": 0
}