{
  "asset": {
    "version": "2.0",
    "generator": "COLLADA2GLTF"
  },
  "accessors": [
    {
      "bufferView": 0,
      "byteOffset": 0,
      "componentType": 5123,
      "count": 723,
      "min": [
        0
      ],
      "max": [
        366
      ],
      "type": "SCALAR"
    },
    {
      "bufferView": 1,
      "byteOffset": 0,
      "componentType": 5126,
      "count": 367,
      "max": [
        330,
        7.5,
        -188.17750549316406
      ],
      "min": [
        35.166954040527344,
        0,
        -480
      ],
      "type": "VEC3"
    },
    {
      "bufferView": 2,
      "byteOffset": 0,
      "componentType": 5126,
      "count": 367,
      "max": [
        0.7786738872528076,
        1,
        0.781617283821106
      ],
      "min": [
        -0.7815480828285217,
        0,
        -0.781617283821106
      ],
      "type": "VEC3"
    },
    {
      "bufferView": 3,
      "byteOffset": 0,
      "componentType": 5126,
      "count": 367,
      "max": [
        0.999786376953125,
        1,
        0.26330968737602234
      ],
      "min": [
        0.000015259021893143654,
        0.07324330508708954,
        0.00004577706567943096
      ],
      "type": "VEC3"
    }
  ],
  "buffers": [
    {
      "byteLength": 1446,
      "uri": "data:application/octet-stream;base64,"
    },
    {
      "byteLength": 4404,
      "uri": "data:application/octet-stream;base64,"
    },
    {
      "byteLength": 4404,
      "uri": "data:application/octet-stream;base64,"
    },
    {
      "byteLength": 4404,
      "uri": "data:application/octet-stream;base64,"
    }
  ],
  "bufferViews": [
    {
      "buffer": 0,
      "byteOffset": 0,
      "byteLength": 1446
    },
    {
      "buffer": 1,
      "byteOffset": 0,
      "byteLength": 4404
    },
    {
      "buffer": 2,
      "byteOffset": 0,
      "byteLength": 4404
    },
    {
      "buffer": 3,
      "byteOffset": 0,
      "byteLength": 4404
    }
  ],
  "meshes": [
    {
      "primitives": [
        {
          "mode": 4,
          "indices": 0,
          "attributes": {
            "POSITION": 1,
            "NORMAL": 2,
            "COLOR_0": 3
          }
        }
      ]
    }
  ],
  "nodes": [
    {
      "children": [
        1
      ]
    },
    {
      "mesh": 0
    }
  ],
  "scenes": [
    {
      "nodes": [
        0
      ]
    }
  ],
  "scene": 0
}