{
  "asset": {
    "version": "2.0",
    "generator": "COLLADA2GLTF"
  },
  "accessors": [
    {
      "bufferView": 0,
      "byteOffset": 0,
      "componentType": 5123,
      "count": 3981,
      "min": [
        0
      ],
      "max": [
        1518
      ],
      "type": "SCALAR"
    },
    {
      "bufferView": 1,
      "byteOffset": 0,
      "componentType": 5126,
      "count": 1519,
      "max": [
        1523.0374755859375,
        3,
        1236.593505859375
      ],
      "min": [
        1150.8919677734375,
        0,
        811.9000244140625
      ],
      "type": "VEC3"
    },
    {
      "bufferView": 2,
      "byteOffset": 0,
      "componentType": 5126,
      "count": 1519,
      "max": [
        1,
        1,
        1
      ],
      "min": [
        -1,
        -1,
        -1
      ],
      "type": "VEC3"
    },
    {
      "bufferView": 3,
      "byteOffset": 0,
      "componentType": 5126,
      "count": 1519,
      "max": [
        0.9549705982208252,
        1,
        1
      ],
      "min": [
        0,
        0.00003051804378628731,
        0.000015259021893143654
      ],
      "type": "VEC3"
    }
  ],
  "buffers": [
    {
      "byteLength": 7962,
      "uri": "data:application/octet-stream;base64,"
    },
    {
      "byteLength": 18228,
      "uri": "data:application/octet-stream;base64,"
    },
    {
      "byteLength": 18228,
      "uri": "data:application/octet-stream;base64,"
    },
    {
      "byteLength": 18228,
      "uri": "data:application/octet-stream;base64,"
    }
  ],
  "bufferViews": [
    {
      "buffer": 0,
      "byteOffset": 0,
      "byteLength": 7962
    },
    {
      "buffer": 1,
      "byteOffset": 0,
      "byteLength": 18228
    },
    {
      "buffer": 2,
      "byteOffset": 0,
      "byteLength": 18228
    },
    {
      "buffer": 3,
      "byteOffset": 0,
      "byteLength": 18228
    }
  ],
  "meshes": [
    {
      "primitives": [
        {
          "mode": 4,
          "indices": 0,
          "attributes": {
            "POSITION": 1,
            "NORMAL": 2,
            "COLOR_0": 3
          }
        }
      ]
    }
  ],
  "nodes": [
    {
      "children": [
        1
      ]
    },
    {
      "mesh": 0
    }
  ],
  "scenes": [
    {
      "nodes": [
        0
      ]
    }
  ],
  "scene": 0
}