{
  "asset": {
    "version": "2.0",
    "generator": "COLLADA2GLTF"
  },
  "accessors": [
    {
      "bufferView": 0,
      "byteOffset": 0,
      "componentType": 5123,
      "count": 729,
      "min": [
        0
      ],
      "max": [
        308
      ],
      "type": "SCALAR"
    },
    {
      "bufferView": 1,
      "byteOffset": 0,
      "componentType": 5126,
      "count": 309,
      "max": [
        -2010.55859375,
        0.0010000000474974513,
        1920
      ],
      "min": [
        -2252.044189453125,
        -0.20000000298023224,
        1799.5252685546875
      ],
      "type": "VEC3"
    },
    {
      "bufferView": 2,
      "byteOffset": 0,
      "componentType": 5126,
      "count": 309,
      "max": [
        0.7028231620788574,
        1,
        0.7867245078086853
      ],
      "min": [
        -0.7867245078086853,
        -1,
        -0.7895386815071106
      ],
      "type": "VEC3"
    },
    {
      "bufferView": 3,
      "byteOffset": 0,
      "componentType": 5126,
      "count": 309,
      "max": [
        0.7872740030288696,
        1,
        0.7875028848648071
      ],
      "min": [
        0.000015259021893143654,
        0.05127031356096268,
        0.00004577706567943096
      ],
      "type": "VEC3"
    }
  ],
  "buffers": [
    {
      "byteLength": 1458,
      "uri": "data:application/octet-stream;base64,"
    },
    {
      "byteLength": 3708,
      "uri": "data:application/octet-stream;base64,"
    },
    {
      "byteLength": 3708,
      "uri": "data:application/octet-stream;base64,"
    },
    {
      "byteLength": 3708,
      "uri": "data:application/octet-stream;base64,"
    }
  ],
  "bufferViews": [
    {
      "buffer": 0,
      "byteOffset": 0,
      "byteLength": 1458
    },
    {
      "buffer": 1,
      "byteOffset": 0,
      "byteLength": 3708
    },
    {
      "buffer": 2,
      "byteOffset": 0,
      "byteLength": 3708
    },
    {
      "buffer": 3,
      "byteOffset": 0,
      "byteLength": 3708
    }
  ],
  "meshes": [
    {
      "primitives": [
        {
          "mode": 4,
          "indices": 0,
          "attributes": {
            "POSITION": 1,
            "NORMAL": 2,
            "COLOR_0": 3
          }
        }
      ]
    }
  ],
  "nodes": [
    {
      "children": [
        1
      ]
    },
    {
      "mesh": 0
    }
  ],
  "scenes": [
    {
      "nodes": [
        0
      ]
    }
  ],
  "scene": 0
}