{
  "asset": {
    "version": "2.0",
    "generator": "COLLADA2GLTF"
  },
  "accessors": [
    {
      "bufferView": 0,
      "byteOffset": 0,
      "componentType": 5123,
      "count": 1083,
      "min": [
        0
      ],
      "max": [
        394
      ],
      "type": "SCALAR"
    },
    {
      "bufferView": 1,
      "byteOffset": 0,
      "componentType": 5126,
      "count": 395,
      "max": [
        -808.2266235351562,
        0,
        1032.6136474609375
      ],
      "min": [
        -1075.455810546875,
        -3,
        810.7803955078125
      ],
      "type": "VEC3"
    },
    {
      "bufferView": 2,
      "byteOffset": 0,
      "componentType": 5126,
      "count": 395,
      "max": [
        0.7686387300491333,
        1,
        0.7686387300491333
      ],
      "min": [
        -0.7686387300491333,
        0,
        -0.7686387300491333
      ],
      "type": "VEC3"
    },
    {
      "bufferView": 3,
      "byteOffset": 0,
      "componentType": 5126,
      "count": 395,
      "max": [
        0.21585412323474884,
        0.21585412323474884,
        0.21589989960193634
      ],
      "min": [
        0.21585412323474884,
        0.21585412323474884,
        0.21589989960193634
      ],
      "type": "VEC3"
    }
  ],
  "buffers": [
    {
      "byteLength": 2166,
      "uri": "data:application/octet-stream;base64,"
    },
    {
      "byteLength": 4740,
      "uri": "data:application/octet-stream;base64,"
    },
    {
      "byteLength": 4740,
      "uri": "data:application/octet-stream;base64,"
    },
    {
      "byteLength": 4740,
      "uri": "data:application/octet-stream;base64,"
    }
  ],
  "bufferViews": [
    {
      "buffer": 0,
      "byteOffset": 0,
      "byteLength": 2166
    },
    {
      "buffer": 1,
      "byteOffset": 0,
      "byteLength": 4740
    },
    {
      "buffer": 2,
      "byteOffset": 0,
      "byteLength": 4740
    },
    {
      "buffer": 3,
      "byteOffset": 0,
      "byteLength": 4740
    }
  ],
  "meshes": [
    {
      "primitives": [
        {
          "mode": 4,
          "indices": 0,
          "attributes": {
            "POSITION": 1,
            "NORMAL": 2,
            "COLOR_0": 3
          }
        }
      ]
    }
  ],
  "nodes": [
    {
      "children": [
        1
      ]
    },
    {
      "mesh": 0
    }
  ],
  "scenes": [
    {
      "nodes": [
        0
      ]
    }
  ],
  "scene": 0
}