{
  "asset": {
    "version": "2.0",
    "generator": "COLLADA2GLTF"
  },
  "accessors": [
    {
      "bufferView": 0,
      "byteOffset": 0,
      "componentType": 5123,
      "count": 144,
      "min": [
        0
      ],
      "max": [
        51
      ],
      "type": "SCALAR"
    },
    {
      "bufferView": 1,
      "byteOffset": 0,
      "componentType": 5126,
      "count": 52,
      "max": [
        -2316.70166015625,
        9.5,
        632.8093872070312
      ],
      "min": [
        -2402.67529296875,
        4.5,
        493.63861083984375
      ],
      "type": "VEC3"
    },
    {
      "bufferView": 2,
      "byteOffset": 0,
      "componentType": 5126,
      "count": 52,
      "max": [
        0.856545090675354,
        -0.06651900708675385,
        0.856545090675354
      ],
      "min": [
        -0.856545090675354,
        -0.2873478829860687,
        -0.856545090675354
      ],
      "type": "VEC3"
    },
    {
      "bufferView": 3,
      "byteOffset": 0,
      "componentType": 5126,
      "count": 52,
      "max": [
        0.4480048716068268,
        0.4480048716068268,
        0.4480659067630768
      ],
      "min": [
        0.4480048716068268,
        0.4480048716068268,
        0.4480659067630768
      ],
      "type": "VEC3"
    }
  ],
  "buffers": [
    {
      "byteLength": 288,
      "uri": "data:application/octet-stream;base64,"
    },
    {
      "byteLength": 624,
      "uri": "data:application/octet-stream;base64,"
    },
    {
      "byteLength": 624,
      "uri": "data:application/octet-stream;base64,"
    },
    {
      "byteLength": 624,
      "uri": "data:application/octet-stream;base64,"
    }
  ],
  "bufferViews": [
    {
      "buffer": 0,
      "byteOffset": 0,
      "byteLength": 288
    },
    {
      "buffer": 1,
      "byteOffset": 0,
      "byteLength": 624
    },
    {
      "buffer": 2,
      "byteOffset": 0,
      "byteLength": 624
    },
    {
      "buffer": 3,
      "byteOffset": 0,
      "byteLength": 624
    }
  ],
  "meshes": [
    {
      "primitives": [
        {
          "mode": 4,
          "indices": 0,
          "attributes": {
            "POSITION": 1,
            "NORMAL": 2,
            "COLOR_0": 3
          }
        }
      ]
    }
  ],
  "nodes": [
    {
      "children": [
        1
      ]
    },
    {
      "mesh": 0
    }
  ],
  "scenes": [
    {
      "nodes": [
        0
      ]
    }
  ],
  "scene": 0
}