{
  "asset": {
    "version": "2.0",
    "generator": "COLLADA2GLTF"
  },
  "accessors": [
    {
      "bufferView": 0,
      "byteOffset": 0,
      "componentType": 5123,
      "count": 198,
      "min": [
        0
      ],
      "max": [
        113
      ],
      "type": "SCALAR"
    },
    {
      "bufferView": 1,
      "byteOffset": 0,
      "componentType": 5126,
      "count": 114,
      "max": [
        -1445.0015869140625,
        24.524999618530273,
        -185.3233184814453
      ],
      "min": [
        -1791.65380859375,
        22.315000534057617,
        -474.8745422363281
      ],
      "type": "VEC3"
    },
    {
      "bufferView": 2,
      "byteOffset": 0,
      "componentType": 5126,
      "count": 114,
      "max": [
        0.5235990881919861,
        0.7054206728935242,
        0.59530109167099
      ],
      "min": [
        -0.5235990881919861,
        -0.7054206728935242,
        -0.59530109167099
      ],
      "type": "VEC3"
    },
    {
      "bufferView": 3,
      "byteOffset": 0,
      "componentType": 5126,
      "count": 114,
      "max": [
        0,
        0,
        0
      ],
      "min": [
        0,
        0,
        0
      ],
      "type": "VEC3"
    }
  ],
  "buffers": [
    {
      "byteLength": 396,
      "uri": "data:application/octet-stream;base64,"
    },
    {
      "byteLength": 1368,
      "uri": "data:application/octet-stream;base64,"
    },
    {
      "byteLength": 1368,
      "uri": "data:application/octet-stream;base64,"
    },
    {
      "byteLength": 1368,
      "uri": "data:application/octet-stream;base64,"
    }
  ],
  "bufferViews": [
    {
      "buffer": 0,
      "byteOffset": 0,
      "byteLength": 396
    },
    {
      "buffer": 1,
      "byteOffset": 0,
      "byteLength": 1368
    },
    {
      "buffer": 2,
      "byteOffset": 0,
      "byteLength": 1368
    },
    {
      "buffer": 3,
      "byteOffset": 0,
      "byteLength": 1368
    }
  ],
  "meshes": [
    {
      "primitives": [
        {
          "mode": 4,
          "indices": 0,
          "attributes": {
            "POSITION": 1,
            "NORMAL": 2,
            "COLOR_0": 3
          }
        }
      ]
    }
  ],
  "nodes": [
    {
      "children": [
        1
      ]
    },
    {
      "mesh": 0
    }
  ],
  "scenes": [
    {
      "nodes": [
        0
      ]
    }
  ],
  "scene": 0
}