{
  "asset": {
    "version": "2.0",
    "generator": "COLLADA2GLTF"
  },
  "accessors": [
    {
      "bufferView": 0,
      "byteOffset": 0,
      "componentType": 5123,
      "count": 939,
      "min": [
        0
      ],
      "max": [
        699
      ],
      "type": "SCALAR"
    },
    {
      "bufferView": 1,
      "byteOffset": 0,
      "componentType": 5126,
      "count": 700,
      "max": [
        -886.4132080078125,
        72.5,
        262.3999938964844
      ],
      "min": [
        -1189.3135986328125,
        0,
        -1032.1988525390625
      ],
      "type": "VEC3"
    },
    {
      "bufferView": 2,
      "byteOffset": 0,
      "componentType": 5126,
      "count": 700,
      "max": [
        0.8453291058540344,
        0,
        0.8453503251075745
      ],
      "min": [
        -0.991402804851532,
        0,
        -0.8450717329978943
      ],
      "type": "VEC3"
    },
    {
      "bufferView": 3,
      "byteOffset": 0,
      "componentType": 5126,
      "count": 700,
      "max": [
        0.999786376953125,
        0.7875181436538696,
        0.7875028848648071
      ],
      "min": [
        0.7872740030288696,
        0.7875028848648071,
        0.26330968737602234
      ],
      "type": "VEC3"
    }
  ],
  "buffers": [
    {
      "byteLength": 1878,
      "uri": "data:application/octet-stream;base64,"
    },
    {
      "byteLength": 8400,
      "uri": "data:application/octet-stream;base64,"
    },
    {
      "byteLength": 8400,
      "uri": "data:application/octet-stream;base64,"
    },
    {
      "byteLength": 8400,
      "uri": "data:application/octet-stream;base64,"
    }
  ],
  "bufferViews": [
    {
      "buffer": 0,
      "byteOffset": 0,
      "byteLength": 1878
    },
    {
      "buffer": 1,
      "byteOffset": 0,
      "byteLength": 8400
    },
    {
      "buffer": 2,
      "byteOffset": 0,
      "byteLength": 8400
    },
    {
      "buffer": 3,
      "byteOffset": 0,
      "byteLength": 8400
    }
  ],
  "meshes": [
    {
      "primitives": [
        {
          "mode": 4,
          "indices": 0,
          "attributes": {
            "POSITION": 1,
            "NORMAL": 2,
            "COLOR_0": 3
          }
        }
      ]
    }
  ],
  "nodes": [
    {
      "children": [
        1
      ]
    },
    {
      "mesh": 0
    }
  ],
  "scenes": [
    {
      "nodes": [
        0
      ]
    }
  ],
  "scene": 0
}