{
  "asset": {
    "version": "2.0",
    "generator": "COLLADA2GLTF"
  },
  "accessors": [
    {
      "bufferView": 0,
      "byteOffset": 0,
      "componentType": 5123,
      "count": 984,
      "min": [
        0
      ],
      "max": [
        359
      ],
      "type": "SCALAR"
    },
    {
      "bufferView": 1,
      "byteOffset": 0,
      "componentType": 5126,
      "count": 360,
      "max": [
        171.90936279296875,
        0,
        149.83334350585938
      ],
      "min": [
        -14.513459205627441,
        -3,
        -16.194034576416016
      ],
      "type": "VEC3"
    },
    {
      "bufferView": 2,
      "byteOffset": 0,
      "componentType": 5126,
      "count": 360,
      "max": [
        0.7534903883934021,
        1,
        0.7534903883934021
      ],
      "min": [
        -0.7534903883934021,
        0,
        -0.7534903883934021
      ],
      "type": "VEC3"
    },
    {
      "bufferView": 3,
      "byteOffset": 0,
      "componentType": 5126,
      "count": 360,
      "max": [
        0.21585412323474884,
        0.21585412323474884,
        0.21589989960193634
      ],
      "min": [
        0.21585412323474884,
        0.21585412323474884,
        0.21589989960193634
      ],
      "type": "VEC3"
    }
  ],
  "buffers": [
    {
      "byteLength": 1968,
      "uri": "data:application/octet-stream;base64,"
    },
    {
      "byteLength": 4320,
      "uri": "data:application/octet-stream;base64,"
    },
    {
      "byteLength": 4320,
      "uri": "data:application/octet-stream;base64,"
    },
    {
      "byteLength": 4320,
      "uri": "data:application/octet-stream;base64,"
    }
  ],
  "bufferViews": [
    {
      "buffer": 0,
      "byteOffset": 0,
      "byteLength": 1968
    },
    {
      "buffer": 1,
      "byteOffset": 0,
      "byteLength": 4320
    },
    {
      "buffer": 2,
      "byteOffset": 0,
      "byteLength": 4320
    },
    {
      "buffer": 3,
      "byteOffset": 0,
      "byteLength": 4320
    }
  ],
  "meshes": [
    {
      "primitives": [
        {
          "mode": 4,
          "indices": 0,
          "attributes": {
            "POSITION": 1,
            "NORMAL": 2,
            "COLOR_0": 3
          }
        }
      ]
    }
  ],
  "nodes": [
    {
      "children": [
        1
      ]
    },
    {
      "mesh": 0
    }
  ],
  "scenes": [
    {
      "nodes": [
        0
      ]
    }
  ],
  "scene": 0
}