{
  "asset": {
    "version": "2.0",
    "generator": "COLLADA2GLTF"
  },
  "accessors": [
    {
      "bufferView": 0,
      "byteOffset": 0,
      "componentType": 5123,
      "count": 453,
      "min": [
        0
      ],
      "max": [
        170
      ],
      "type": "SCALAR"
    },
    {
      "bufferView": 1,
      "byteOffset": 0,
      "componentType": 5126,
      "count": 171,
      "max": [
        -2090.078369140625,
        37.025001525878906,
        2260.7119140625
      ],
      "min": [
        -2180.998046875,
        17.165000915527344,
        1750.511962890625
      ],
      "type": "VEC3"
    },
    {
      "bufferView": 2,
      "byteOffset": 0,
      "componentType": 5126,
      "count": 171,
      "max": [
        0.9873355627059937,
        0.7063818573951721,
        0.9873355627059937
      ],
      "min": [
        -0.9873355627059937,
        -0.04440061375498772,
        -0.9873355627059937
      ],
      "type": "VEC3"
    },
    {
      "bufferView": 3,
      "byteOffset": 0,
      "componentType": 5126,
      "count": 171,
      "max": [
        0.4480048716068268,
        0.4480048716068268,
        0.4480659067630768
      ],
      "min": [
        0,
        0,
        0
      ],
      "type": "VEC3"
    }
  ],
  "buffers": [
    {
      "byteLength": 906,
      "uri": "data:application/octet-stream;base64,"
    },
    {
      "byteLength": 2052,
      "uri": "data:application/octet-stream;base64,"
    },
    {
      "byteLength": 2052,
      "uri": "data:application/octet-stream;base64,"
    },
    {
      "byteLength": 2052,
      "uri": "data:application/octet-stream;base64,"
    }
  ],
  "bufferViews": [
    {
      "buffer": 0,
      "byteOffset": 0,
      "byteLength": 906
    },
    {
      "buffer": 1,
      "byteOffset": 0,
      "byteLength": 2052
    },
    {
      "buffer": 2,
      "byteOffset": 0,
      "byteLength": 2052
    },
    {
      "buffer": 3,
      "byteOffset": 0,
      "byteLength": 2052
    }
  ],
  "meshes": [
    {
      "primitives": [
        {
          "mode": 4,
          "indices": 0,
          "attributes": {
            "POSITION": 1,
            "NORMAL": 2,
            "COLOR_0": 3
          }
        }
      ]
    }
  ],
  "nodes": [
    {
      "children": [
        1
      ]
    },
    {
      "mesh": 0
    }
  ],
  "scenes": [
    {
      "nodes": [
        0
      ]
    }
  ],
  "scene": 0
}