{
  "asset": {
    "version": "2.0",
    "generator": "COLLADA2GLTF"
  },
  "accessors": [
    {
      "bufferView": 0,
      "byteOffset": 0,
      "componentType": 5123,
      "count": 861,
      "min": [
        0
      ],
      "max": [
        432
      ],
      "type": "SCALAR"
    },
    {
      "bufferView": 1,
      "byteOffset": 0,
      "componentType": 5126,
      "count": 433,
      "max": [
        371.1846618652344,
        7.5,
        -371.00885009765625
      ],
      "min": [
        259.01165771484375,
        0,
        -590.8709716796875
      ],
      "type": "VEC3"
    },
    {
      "bufferView": 2,
      "byteOffset": 0,
      "componentType": 5126,
      "count": 433,
      "max": [
        0.7914631962776184,
        1,
        0.7908676266670227
      ],
      "min": [
        -0.7903168797492981,
        0,
        -0.7906468510627747
      ],
      "type": "VEC3"
    },
    {
      "bufferView": 3,
      "byteOffset": 0,
      "componentType": 5126,
      "count": 433,
      "max": [
        0.999786376953125,
        1,
        0.26330968737602234
      ],
      "min": [
        0.000015259021893143654,
        0.07324330508708954,
        0.00004577706567943096
      ],
      "type": "VEC3"
    }
  ],
  "buffers": [
    {
      "byteLength": 1722,
      "uri": "data:application/octet-stream;base64,"
    },
    {
      "byteLength": 5196,
      "uri": "data:application/octet-stream;base64,"
    },
    {
      "byteLength": 5196,
      "uri": "data:application/octet-stream;base64,"
    },
    {
      "byteLength": 5196,
      "uri": "data:application/octet-stream;base64,"
    }
  ],
  "bufferViews": [
    {
      "buffer": 0,
      "byteOffset": 0,
      "byteLength": 1722
    },
    {
      "buffer": 1,
      "byteOffset": 0,
      "byteLength": 5196
    },
    {
      "buffer": 2,
      "byteOffset": 0,
      "byteLength": 5196
    },
    {
      "buffer": 3,
      "byteOffset": 0,
      "byteLength": 5196
    }
  ],
  "meshes": [
    {
      "primitives": [
        {
          "mode": 4,
          "indices": 0,
          "attributes": {
            "POSITION": 1,
            "NORMAL": 2,
            "COLOR_0": 3
          }
        }
      ]
    }
  ],
  "nodes": [
    {
      "children": [
        1
      ]
    },
    {
      "mesh": 0
    }
  ],
  "scenes": [
    {
      "nodes": [
        0
      ]
    }
  ],
  "scene": 0
}