{
  "asset": {
    "version": "2.0",
    "generator": "COLLADA2GLTF"
  },
  "accessors": [
    {
      "bufferView": 0,
      "byteOffset": 0,
      "componentType": 5123,
      "count": 963,
      "min": [
        0
      ],
      "max": [
        421
      ],
      "type": "SCALAR"
    },
    {
      "bufferView": 1,
      "byteOffset": 0,
      "componentType": 5126,
      "count": 422,
      "max": [
        285.89984130859375,
        0.10000000149011612,
        -139.81661987304688
      ],
      "min": [
        229.43629455566406,
        0,
        -197.01417541503906
      ],
      "type": "VEC3"
    },
    {
      "bufferView": 2,
      "byteOffset": 0,
      "componentType": 5126,
      "count": 422,
      "max": [
        0.7996582984924316,
        1,
        0.7971696853637695
      ],
      "min": [
        -0.6037552952766418,
        0,
        -0.7971696853637695
      ],
      "type": "VEC3"
    },
    {
      "bufferView": 3,
      "byteOffset": 0,
      "componentType": 5126,
      "count": 422,
      "max": [
        0.7872740030288696,
        1,
        0.7875028848648071
      ],
      "min": [
        0.000015259021893143654,
        0.07324330508708954,
        0.00004577706567943096
      ],
      "type": "VEC3"
    }
  ],
  "buffers": [
    {
      "byteLength": 1926,
      "uri": "data:application/octet-stream;base64,"
    },
    {
      "byteLength": 5064,
      "uri": "data:application/octet-stream;base64,"
    },
    {
      "byteLength": 5064,
      "uri": "data:application/octet-stream;base64,"
    },
    {
      "byteLength": 5064,
      "uri": "data:application/octet-stream;base64,"
    }
  ],
  "bufferViews": [
    {
      "buffer": 0,
      "byteOffset": 0,
      "byteLength": 1926
    },
    {
      "buffer": 1,
      "byteOffset": 0,
      "byteLength": 5064
    },
    {
      "buffer": 2,
      "byteOffset": 0,
      "byteLength": 5064
    },
    {
      "buffer": 3,
      "byteOffset": 0,
      "byteLength": 5064
    }
  ],
  "meshes": [
    {
      "primitives": [
        {
          "mode": 4,
          "indices": 0,
          "attributes": {
            "POSITION": 1,
            "NORMAL": 2,
            "COLOR_0": 3
          }
        }
      ]
    }
  ],
  "nodes": [
    {
      "children": [
        1
      ]
    },
    {
      "mesh": 0
    }
  ],
  "scenes": [
    {
      "nodes": [
        0
      ]
    }
  ],
  "scene": 0
}