{
  "asset": {
    "version": "2.0",
    "generator": "COLLADA2GLTF"
  },
  "accessors": [
    {
      "bufferView": 0,
      "byteOffset": 0,
      "componentType": 5123,
      "count": 1512,
      "min": [
        0
      ],
      "max": [
        699
      ],
      "type": "SCALAR"
    },
    {
      "bufferView": 1,
      "byteOffset": 0,
      "componentType": 5126,
      "count": 700,
      "max": [
        -2045.3331298828125,
        1,
        -480
      ],
      "min": [
        -2310,
        0,
        -787.916015625
      ],
      "type": "VEC3"
    },
    {
      "bufferView": 2,
      "byteOffset": 0,
      "componentType": 5126,
      "count": 700,
      "max": [
        0.9537615180015564,
        1,
        1
      ],
      "min": [
        -0.9510565400123596,
        0,
        -0.80901700258255
      ],
      "type": "VEC3"
    },
    {
      "bufferView": 3,
      "byteOffset": 0,
      "componentType": 5126,
      "count": 700,
      "max": [
        0.999786376953125,
        1,
        0.7875028848648071
      ],
      "min": [
        0.000015259021893143654,
        0.03309682011604309,
        0.00004577706567943096
      ],
      "type": "VEC3"
    }
  ],
  "buffers": [
    {
      "byteLength": 3024,
      "uri": "data:application/octet-stream;base64,"
    },
    {
      "byteLength": 8400,
      "uri": "data:application/octet-stream;base64,"
    },
    {
      "byteLength": 8400,
      "uri": "data:application/octet-stream;base64,"
    },
    {
      "byteLength": 8400,
      "uri": "data:application/octet-stream;base64,"
    }
  ],
  "bufferViews": [
    {
      "buffer": 0,
      "byteOffset": 0,
      "byteLength": 3024
    },
    {
      "buffer": 1,
      "byteOffset": 0,
      "byteLength": 8400
    },
    {
      "buffer": 2,
      "byteOffset": 0,
      "byteLength": 8400
    },
    {
      "buffer": 3,
      "byteOffset": 0,
      "byteLength": 8400
    }
  ],
  "meshes": [
    {
      "primitives": [
        {
          "mode": 4,
          "indices": 0,
          "attributes": {
            "POSITION": 1,
            "NORMAL": 2,
            "COLOR_0": 3
          }
        }
      ]
    }
  ],
  "nodes": [
    {
      "children": [
        1
      ]
    },
    {
      "mesh": 0
    }
  ],
  "scenes": [
    {
      "nodes": [
        0
      ]
    }
  ],
  "scene": 0
}