{
  "asset": {
    "version": "2.0",
    "generator": "COLLADA2GLTF"
  },
  "accessors": [
    {
      "bufferView": 0,
      "byteOffset": 0,
      "componentType": 5123,
      "count": 3915,
      "min": [
        0
      ],
      "max": [
        1517
      ],
      "type": "SCALAR"
    },
    {
      "bufferView": 1,
      "byteOffset": 0,
      "componentType": 5126,
      "count": 1518,
      "max": [
        38.566001892089844,
        7.5,
        -700.1497192382812
      ],
      "min": [
        -269.7688903808594,
        0,
        -1045.0550537109375
      ],
      "type": "VEC3"
    },
    {
      "bufferView": 2,
      "byteOffset": 0,
      "componentType": 5126,
      "count": 1518,
      "max": [
        0.7276709675788879,
        1,
        0.7370944619178772
      ],
      "min": [
        -0.7498030066490173,
        0,
        -0.7490121722221375
      ],
      "type": "VEC3"
    },
    {
      "bufferView": 3,
      "byteOffset": 0,
      "componentType": 5126,
      "count": 1518,
      "max": [
        0.999786376953125,
        1,
        0.7875028848648071
      ],
      "min": [
        0.000015259021893143654,
        0.07324330508708954,
        0.00004577706567943096
      ],
      "type": "VEC3"
    }
  ],
  "buffers": [
    {
      "byteLength": 7830,
      "uri": "data:application/octet-stream;base64,"
    },
    {
      "byteLength": 18216,
      "uri": "data:application/octet-stream;base64,"
    },
    {
      "byteLength": 18216,
      "uri": "data:application/octet-stream;base64,"
    },
    {
      "byteLength": 18216,
      "uri": "data:application/octet-stream;base64,"
    }
  ],
  "bufferViews": [
    {
      "buffer": 0,
      "byteOffset": 0,
      "byteLength": 7830
    },
    {
      "buffer": 1,
      "byteOffset": 0,
      "byteLength": 18216
    },
    {
      "buffer": 2,
      "byteOffset": 0,
      "byteLength": 18216
    },
    {
      "buffer": 3,
      "byteOffset": 0,
      "byteLength": 18216
    }
  ],
  "meshes": [
    {
      "primitives": [
        {
          "mode": 4,
          "indices": 0,
          "attributes": {
            "POSITION": 1,
            "NORMAL": 2,
            "COLOR_0": 3
          }
        }
      ]
    }
  ],
  "nodes": [
    {
      "children": [
        1
      ]
    },
    {
      "mesh": 0
    }
  ],
  "scenes": [
    {
      "nodes": [
        0
      ]
    }
  ],
  "scene": 0
}