{
  "asset": {
    "version": "2.0",
    "generator": "COLLADA2GLTF"
  },
  "accessors": [
    {
      "bufferView": 0,
      "byteOffset": 0,
      "componentType": 5123,
      "count": 1236,
      "min": [
        0
      ],
      "max": [
        517
      ],
      "type": "SCALAR"
    },
    {
      "bufferView": 1,
      "byteOffset": 0,
      "componentType": 5126,
      "count": 518,
      "max": [
        -2914.271728515625,
        4.5,
        510
      ],
      "min": [
        -3510,
        -0.5,
        -5.109586238861084
      ],
      "type": "VEC3"
    },
    {
      "bufferView": 2,
      "byteOffset": 0,
      "componentType": 5126,
      "count": 518,
      "max": [
        0.8018449544906616,
        1,
        0.8018449544906616
      ],
      "min": [
        -0.8018449544906616,
        -0.2873478829860687,
        -0.8018449544906616
      ],
      "type": "VEC3"
    },
    {
      "bufferView": 3,
      "byteOffset": 0,
      "componentType": 5126,
      "count": 518,
      "max": [
        0.4480048716068268,
        1,
        0.4480659067630768
      ],
      "min": [
        0.000015259021893143654,
        0.07324330508708954,
        0.00004577706567943096
      ],
      "type": "VEC3"
    }
  ],
  "buffers": [
    {
      "byteLength": 2472,
      "uri": "data:application/octet-stream;base64,"
    },
    {
      "byteLength": 6216,
      "uri": "data:application/octet-stream;base64,"
    },
    {
      "byteLength": 6216,
      "uri": "data:application/octet-stream;base64,"
    },
    {
      "byteLength": 6216,
      "uri": "data:application/octet-stream;base64,"
    }
  ],
  "bufferViews": [
    {
      "buffer": 0,
      "byteOffset": 0,
      "byteLength": 2472
    },
    {
      "buffer": 1,
      "byteOffset": 0,
      "byteLength": 6216
    },
    {
      "buffer": 2,
      "byteOffset": 0,
      "byteLength": 6216
    },
    {
      "buffer": 3,
      "byteOffset": 0,
      "byteLength": 6216
    }
  ],
  "meshes": [
    {
      "primitives": [
        {
          "mode": 4,
          "indices": 0,
          "attributes": {
            "POSITION": 1,
            "NORMAL": 2,
            "COLOR_0": 3
          }
        }
      ]
    }
  ],
  "nodes": [
    {
      "children": [
        1
      ]
    },
    {
      "mesh": 0
    }
  ],
  "scenes": [
    {
      "nodes": [
        0
      ]
    }
  ],
  "scene": 0
}