{
  "asset": {
    "version": "2.0",
    "generator": "COLLADA2GLTF"
  },
  "accessors": [
    {
      "bufferView": 0,
      "byteOffset": 0,
      "componentType": 5123,
      "count": 3393,
      "min": [
        0
      ],
      "max": [
        1360
      ],
      "type": "SCALAR"
    },
    {
      "bufferView": 1,
      "byteOffset": 0,
      "componentType": 5126,
      "count": 1361,
      "max": [
        536.3702392578125,
        7.5,
        510
      ],
      "min": [
        131.67678833007812,
        0,
        214.24996948242188
      ],
      "type": "VEC3"
    },
    {
      "bufferView": 2,
      "byteOffset": 0,
      "componentType": 5126,
      "count": 1361,
      "max": [
        0.9079260230064392,
        1,
        0.915115237236023
      ],
      "min": [
        -0.9304364323616028,
        0,
        -0.9083401560783386
      ],
      "type": "VEC3"
    },
    {
      "bufferView": 3,
      "byteOffset": 0,
      "componentType": 5126,
      "count": 1361,
      "max": [
        0.999786376953125,
        1,
        0.7875028848648071
      ],
      "min": [
        0.000015259021893143654,
        0.07324330508708954,
        0.00004577706567943096
      ],
      "type": "VEC3"
    }
  ],
  "buffers": [
    {
      "byteLength": 6786,
      "uri": "data:application/octet-stream;base64,"
    },
    {
      "byteLength": 16332,
      "uri": "data:application/octet-stream;base64,"
    },
    {
      "byteLength": 16332,
      "uri": "data:application/octet-stream;base64,"
    },
    {
      "byteLength": 16332,
      "uri": "data:application/octet-stream;base64,"
    }
  ],
  "bufferViews": [
    {
      "buffer": 0,
      "byteOffset": 0,
      "byteLength": 6786
    },
    {
      "buffer": 1,
      "byteOffset": 0,
      "byteLength": 16332
    },
    {
      "buffer": 2,
      "byteOffset": 0,
      "byteLength": 16332
    },
    {
      "buffer": 3,
      "byteOffset": 0,
      "byteLength": 16332
    }
  ],
  "meshes": [
    {
      "primitives": [
        {
          "mode": 4,
          "indices": 0,
          "attributes": {
            "POSITION": 1,
            "NORMAL": 2,
            "COLOR_0": 3
          }
        }
      ]
    }
  ],
  "nodes": [
    {
      "children": [
        1
      ]
    },
    {
      "mesh": 0
    }
  ],
  "scenes": [
    {
      "nodes": [
        0
      ]
    }
  ],
  "scene": 0
}