{
  "asset": {
    "version": "2.0",
    "generator": "COLLADA2GLTF"
  },
  "accessors": [
    {
      "bufferView": 0,
      "byteOffset": 0,
      "componentType": 5123,
      "count": 555,
      "min": [
        0
      ],
      "max": [
        210
      ],
      "type": "SCALAR"
    },
    {
      "bufferView": 1,
      "byteOffset": 0,
      "componentType": 5126,
      "count": 211,
      "max": [
        1057.1365966796875,
        0,
        90.97050476074219
      ],
      "min": [
        931.0165405273438,
        -3,
        29.624881744384766
      ],
      "type": "VEC3"
    },
    {
      "bufferView": 2,
      "byteOffset": 0,
      "componentType": 5126,
      "count": 211,
      "max": [
        0.9549492001533508,
        1,
        0.9549492001533508
      ],
      "min": [
        -0.9549492001533508,
        -1,
        -0.9549492001533508
      ],
      "type": "VEC3"
    },
    {
      "bufferView": 3,
      "byteOffset": 0,
      "componentType": 5126,
      "count": 211,
      "max": [
        0.21585412323474884,
        0.21585412323474884,
        0.21589989960193634
      ],
      "min": [
        0.21585412323474884,
        0.21585412323474884,
        0.21589989960193634
      ],
      "type": "VEC3"
    }
  ],
  "buffers": [
    {
      "byteLength": 1110,
      "uri": "data:application/octet-stream;base64,"
    },
    {
      "byteLength": 2532,
      "uri": "data:application/octet-stream;base64,"
    },
    {
      "byteLength": 2532,
      "uri": "data:application/octet-stream;base64,"
    },
    {
      "byteLength": 2532,
      "uri": "data:application/octet-stream;base64,"
    }
  ],
  "bufferViews": [
    {
      "buffer": 0,
      "byteOffset": 0,
      "byteLength": 1110
    },
    {
      "buffer": 1,
      "byteOffset": 0,
      "byteLength": 2532
    },
    {
      "buffer": 2,
      "byteOffset": 0,
      "byteLength": 2532
    },
    {
      "buffer": 3,
      "byteOffset": 0,
      "byteLength": 2532
    }
  ],
  "meshes": [
    {
      "primitives": [
        {
          "mode": 4,
          "indices": 0,
          "attributes": {
            "POSITION": 1,
            "NORMAL": 2,
            "COLOR_0": 3
          }
        }
      ]
    }
  ],
  "nodes": [
    {
      "children": [
        1
      ]
    },
    {
      "mesh": 0
    }
  ],
  "scenes": [
    {
      "nodes": [
        0
      ]
    }
  ],
  "scene": 0
}