{
  "asset": {
    "version": "2.0",
    "generator": "COLLADA2GLTF"
  },
  "accessors": [
    {
      "bufferView": 0,
      "byteOffset": 0,
      "componentType": 5123,
      "count": 195,
      "min": [
        0
      ],
      "max": [
        109
      ],
      "type": "SCALAR"
    },
    {
      "bufferView": 1,
      "byteOffset": 0,
      "componentType": 5126,
      "count": 110,
      "max": [
        -27.041000366210938,
        7.5,
        541.2930297851562
      ],
      "min": [
        -210.21800231933594,
        0,
        329.2909851074219
      ],
      "type": "VEC3"
    },
    {
      "bufferView": 2,
      "byteOffset": 0,
      "componentType": 5126,
      "count": 110,
      "max": [
        0.8266599774360657,
        0,
        0.8265924453735352
      ],
      "min": [
        -0.8266558051109314,
        0,
        -0.8266520500183105
      ],
      "type": "VEC3"
    },
    {
      "bufferView": 3,
      "byteOffset": 0,
      "componentType": 5126,
      "count": 110,
      "max": [
        0.999786376953125,
        0.7875181436538696,
        0.26330968737602234
      ],
      "min": [
        0.999786376953125,
        0.7875181436538696,
        0.26330968737602234
      ],
      "type": "VEC3"
    }
  ],
  "buffers": [
    {
      "byteLength": 390,
      "uri": "data:application/octet-stream;base64,"
    },
    {
      "byteLength": 1320,
      "uri": "data:application/octet-stream;base64,"
    },
    {
      "byteLength": 1320,
      "uri": "data:application/octet-stream;base64,"
    },
    {
      "byteLength": 1320,
      "uri": "data:application/octet-stream;base64,"
    }
  ],
  "bufferViews": [
    {
      "buffer": 0,
      "byteOffset": 0,
      "byteLength": 390
    },
    {
      "buffer": 1,
      "byteOffset": 0,
      "byteLength": 1320
    },
    {
      "buffer": 2,
      "byteOffset": 0,
      "byteLength": 1320
    },
    {
      "buffer": 3,
      "byteOffset": 0,
      "byteLength": 1320
    }
  ],
  "meshes": [
    {
      "primitives": [
        {
          "mode": 4,
          "indices": 0,
          "attributes": {
            "POSITION": 1,
            "NORMAL": 2,
            "COLOR_0": 3
          }
        }
      ]
    }
  ],
  "nodes": [
    {
      "children": [
        1
      ]
    },
    {
      "mesh": 0
    }
  ],
  "scenes": [
    {
      "nodes": [
        0
      ]
    }
  ],
  "scene": 0
}