{
  "asset": {
    "version": "2.0",
    "generator": "COLLADA2GLTF"
  },
  "accessors": [
    {
      "bufferView": 0,
      "byteOffset": 0,
      "componentType": 5123,
      "count": 2559,
      "min": [
        0
      ],
      "max": [
        873
      ],
      "type": "SCALAR"
    },
    {
      "bufferView": 1,
      "byteOffset": 0,
      "componentType": 5126,
      "count": 874,
      "max": [
        -3776.65869140625,
        0.06400000303983688,
        918.2150268554688
      ],
      "min": [
        -3799.43896484375,
        0,
        902.66552734375
      ],
      "type": "VEC3"
    },
    {
      "bufferView": 2,
      "byteOffset": 0,
      "componentType": 5126,
      "count": 874,
      "max": [
        0.8377389907836914,
        1,
        0.8377389907836914
      ],
      "min": [
        -0.8377389907836914,
        0,
        -0.8377389907836914
      ],
      "type": "VEC3"
    },
    {
      "bufferView": 3,
      "byteOffset": 0,
      "componentType": 5126,
      "count": 874,
      "max": [
        0.07322804629802704,
        0.03309682011604309,
        0.03311207890510559
      ],
      "min": [
        0.07322804629802704,
        0.03309682011604309,
        0.03311207890510559
      ],
      "type": "VEC3"
    }
  ],
  "buffers": [
    {
      "byteLength": 5118,
      "uri": "data:application/octet-stream;base64,"
    },
    {
      "byteLength": 10488,
      "uri": "data:application/octet-stream;base64,"
    },
    {
      "byteLength": 10488,
      "uri": "data:application/octet-stream;base64,"
    },
    {
      "byteLength": 10488,
      "uri": "data:application/octet-stream;base64,"
    }
  ],
  "bufferViews": [
    {
      "buffer": 0,
      "byteOffset": 0,
      "byteLength": 5118
    },
    {
      "buffer": 1,
      "byteOffset": 0,
      "byteLength": 10488
    },
    {
      "buffer": 2,
      "byteOffset": 0,
      "byteLength": 10488
    },
    {
      "buffer": 3,
      "byteOffset": 0,
      "byteLength": 10488
    }
  ],
  "meshes": [
    {
      "primitives": [
        {
          "mode": 4,
          "indices": 0,
          "attributes": {
            "POSITION": 1,
            "NORMAL": 2,
            "COLOR_0": 3
          }
        }
      ]
    }
  ],
  "nodes": [
    {
      "children": [
        1
      ]
    },
    {
      "mesh": 0
    }
  ],
  "scenes": [
    {
      "nodes": [
        0
      ]
    }
  ],
  "scene": 0
}