{
  "asset": {
    "version": "2.0",
    "generator": "COLLADA2GLTF"
  },
  "accessors": [
    {
      "bufferView": 0,
      "byteOffset": 0,
      "componentType": 5123,
      "count": 405,
      "min": [
        0
      ],
      "max": [
        181
      ],
      "type": "SCALAR"
    },
    {
      "bufferView": 1,
      "byteOffset": 0,
      "componentType": 5126,
      "count": 182,
      "max": [
        -2009.44140625,
        0.06400000303983688,
        2038.4140625
      ],
      "min": [
        -2104.38818359375,
        0,
        1857.56005859375
      ],
      "type": "VEC3"
    },
    {
      "bufferView": 2,
      "byteOffset": 0,
      "componentType": 5126,
      "count": 182,
      "max": [
        0.9533872604370117,
        1,
        0.9533872604370117
      ],
      "min": [
        -0.9533872604370117,
        0,
        -0.3017495274543762
      ],
      "type": "VEC3"
    },
    {
      "bufferView": 3,
      "byteOffset": 0,
      "componentType": 5126,
      "count": 182,
      "max": [
        0.07322804629802704,
        1,
        0.07325856387615204
      ],
      "min": [
        0.000015259021893143654,
        0.03309682011604309,
        0.00004577706567943096
      ],
      "type": "VEC3"
    }
  ],
  "buffers": [
    {
      "byteLength": 810,
      "uri": "data:application/octet-stream;base64,"
    },
    {
      "byteLength": 2184,
      "uri": "data:application/octet-stream;base64,"
    },
    {
      "byteLength": 2184,
      "uri": "data:application/octet-stream;base64,"
    },
    {
      "byteLength": 2184,
      "uri": "data:application/octet-stream;base64,"
    }
  ],
  "bufferViews": [
    {
      "buffer": 0,
      "byteOffset": 0,
      "byteLength": 810
    },
    {
      "buffer": 1,
      "byteOffset": 0,
      "byteLength": 2184
    },
    {
      "buffer": 2,
      "byteOffset": 0,
      "byteLength": 2184
    },
    {
      "buffer": 3,
      "byteOffset": 0,
      "byteLength": 2184
    }
  ],
  "meshes": [
    {
      "primitives": [
        {
          "mode": 4,
          "indices": 0,
          "attributes": {
            "POSITION": 1,
            "NORMAL": 2,
            "COLOR_0": 3
          }
        }
      ]
    }
  ],
  "nodes": [
    {
      "children": [
        1
      ]
    },
    {
      "mesh": 0
    }
  ],
  "scenes": [
    {
      "nodes": [
        0
      ]
    }
  ],
  "scene": 0
}