{
  "asset": {
    "version": "2.0",
    "generator": "COLLADA2GLTF"
  },
  "accessors": [
    {
      "bufferView": 0,
      "byteOffset": 0,
      "componentType": 5123,
      "count": 4128,
      "min": [
        0
      ],
      "max": [
        1651
      ],
      "type": "SCALAR"
    },
    {
      "bufferView": 1,
      "byteOffset": 0,
      "componentType": 5126,
      "count": 1652,
      "max": [
        -2970,
        0.0010000000474974513,
        -660
      ],
      "min": [
        -3454.787109375,
        0,
        -1167.4288330078125
      ],
      "type": "VEC3"
    },
    {
      "bufferView": 2,
      "byteOffset": 0,
      "componentType": 5126,
      "count": 1652,
      "max": [
        0.7729810476303101,
        1,
        0.7342720627784729
      ],
      "min": [
        -0.7730978727340698,
        0,
        -0.6344290971755981
      ],
      "type": "VEC3"
    },
    {
      "bufferView": 3,
      "byteOffset": 0,
      "componentType": 5126,
      "count": 1652,
      "max": [
        0.999786376953125,
        1,
        0.7875028848648071
      ],
      "min": [
        0.000015259021893143654,
        0.07324330508708954,
        0.00004577706567943096
      ],
      "type": "VEC3"
    }
  ],
  "buffers": [
    {
      "byteLength": 8256,
      "uri": "data:application/octet-stream;base64,"
    },
    {
      "byteLength": 19824,
      "uri": "data:application/octet-stream;base64,"
    },
    {
      "byteLength": 19824,
      "uri": "data:application/octet-stream;base64,"
    },
    {
      "byteLength": 19824,
      "uri": "data:application/octet-stream;base64,"
    }
  ],
  "bufferViews": [
    {
      "buffer": 0,
      "byteOffset": 0,
      "byteLength": 8256
    },
    {
      "buffer": 1,
      "byteOffset": 0,
      "byteLength": 19824
    },
    {
      "buffer": 2,
      "byteOffset": 0,
      "byteLength": 19824
    },
    {
      "buffer": 3,
      "byteOffset": 0,
      "byteLength": 19824
    }
  ],
  "meshes": [
    {
      "primitives": [
        {
          "mode": 4,
          "indices": 0,
          "attributes": {
            "POSITION": 1,
            "NORMAL": 2,
            "COLOR_0": 3
          }
        }
      ]
    }
  ],
  "nodes": [
    {
      "children": [
        1
      ]
    },
    {
      "mesh": 0
    }
  ],
  "scenes": [
    {
      "nodes": [
        0
      ]
    }
  ],
  "scene": 0
}