{
  "asset": {
    "version": "2.0",
    "generator": "COLLADA2GLTF"
  },
  "accessors": [
    {
      "bufferView": 0,
      "byteOffset": 0,
      "componentType": 5123,
      "count": 231,
      "min": [
        0
      ],
      "max": [
        102
      ],
      "type": "SCALAR"
    },
    {
      "bufferView": 1,
      "byteOffset": 0,
      "componentType": 5126,
      "count": 103,
      "max": [
        -1728.9720458984375,
        7.5,
        -299.34100341796875
      ],
      "min": [
        -1824.416015625,
        0,
        -365.30999755859375
      ],
      "type": "VEC3"
    },
    {
      "bufferView": 2,
      "byteOffset": 0,
      "componentType": 5126,
      "count": 103,
      "max": [
        0.8049120306968689,
        1,
        0.8050223588943481
      ],
      "min": [
        -0.8052160143852234,
        0,
        -0.8048632144927979
      ],
      "type": "VEC3"
    },
    {
      "bufferView": 3,
      "byteOffset": 0,
      "componentType": 5126,
      "count": 103,
      "max": [
        0.999786376953125,
        0.7875181436538696,
        0.26330968737602234
      ],
      "min": [
        0.6036774516105652,
        0.00003051804378628731,
        0
      ],
      "type": "VEC3"
    }
  ],
  "buffers": [
    {
      "byteLength": 462,
      "uri": "data:application/octet-stream;base64,"
    },
    {
      "byteLength": 1236,
      "uri": "data:application/octet-stream;base64,"
    },
    {
      "byteLength": 1236,
      "uri": "data:application/octet-stream;base64,"
    },
    {
      "byteLength": 1236,
      "uri": "data:application/octet-stream;base64,"
    }
  ],
  "bufferViews": [
    {
      "buffer": 0,
      "byteOffset": 0,
      "byteLength": 462
    },
    {
      "buffer": 1,
      "byteOffset": 0,
      "byteLength": 1236
    },
    {
      "buffer": 2,
      "byteOffset": 0,
      "byteLength": 1236
    },
    {
      "buffer": 3,
      "byteOffset": 0,
      "byteLength": 1236
    }
  ],
  "meshes": [
    {
      "primitives": [
        {
          "mode": 4,
          "indices": 0,
          "attributes": {
            "POSITION": 1,
            "NORMAL": 2,
            "COLOR_0": 3
          }
        }
      ]
    }
  ],
  "nodes": [
    {
      "children": [
        1
      ]
    },
    {
      "mesh": 0
    }
  ],
  "scenes": [
    {
      "nodes": [
        0
      ]
    }
  ],
  "scene": 0
}