{
  "asset": {
    "version": "2.0",
    "generator": "COLLADA2GLTF"
  },
  "accessors": [
    {
      "bufferView": 0,
      "byteOffset": 0,
      "componentType": 5123,
      "count": 3198,
      "min": [
        0
      ],
      "max": [
        1239
      ],
      "type": "SCALAR"
    },
    {
      "bufferView": 1,
      "byteOffset": 0,
      "componentType": 5126,
      "count": 1240,
      "max": [
        3810.626953125,
        0.0010000000474974513,
        2023.8427734375
      ],
      "min": [
        3320.89453125,
        0,
        1376.4639892578125
      ],
      "type": "VEC3"
    },
    {
      "bufferView": 2,
      "byteOffset": 0,
      "componentType": 5126,
      "count": 1240,
      "max": [
        0.8696795701980591,
        1,
        0.8767148852348328
      ],
      "min": [
        -0.8834898471832275,
        0,
        -0.8694350719451904
      ],
      "type": "VEC3"
    },
    {
      "bufferView": 3,
      "byteOffset": 0,
      "componentType": 5126,
      "count": 1240,
      "max": [
        0.999786376953125,
        1,
        1
      ],
      "min": [
        0,
        0.00003051804378628731,
        0.00004577706567943096
      ],
      "type": "VEC3"
    }
  ],
  "buffers": [
    {
      "byteLength": 6396,
      "uri": "data:application/octet-stream;base64,"
    },
    {
      "byteLength": 14880,
      "uri": "data:application/octet-stream;base64,"
    },
    {
      "byteLength": 14880,
      "uri": "data:application/octet-stream;base64,"
    },
    {
      "byteLength": 14880,
      "uri": "data:application/octet-stream;base64,"
    }
  ],
  "bufferViews": [
    {
      "buffer": 0,
      "byteOffset": 0,
      "byteLength": 6396
    },
    {
      "buffer": 1,
      "byteOffset": 0,
      "byteLength": 14880
    },
    {
      "buffer": 2,
      "byteOffset": 0,
      "byteLength": 14880
    },
    {
      "buffer": 3,
      "byteOffset": 0,
      "byteLength": 14880
    }
  ],
  "meshes": [
    {
      "primitives": [
        {
          "mode": 4,
          "indices": 0,
          "attributes": {
            "POSITION": 1,
            "NORMAL": 2,
            "COLOR_0": 3
          }
        }
      ]
    }
  ],
  "nodes": [
    {
      "children": [
        1
      ]
    },
    {
      "mesh": 0
    }
  ],
  "scenes": [
    {
      "nodes": [
        0
      ]
    }
  ],
  "scene": 0
}