{
  "asset": {
    "version": "2.0",
    "generator": "COLLADA2GLTF"
  },
  "accessors": [
    {
      "bufferView": 0,
      "byteOffset": 0,
      "componentType": 5123,
      "count": 30,
      "min": [
        0
      ],
      "max": [
        17
      ],
      "type": "SCALAR"
    },
    {
      "bufferView": 1,
      "byteOffset": 0,
      "componentType": 5126,
      "count": 18,
      "max": [
        -1118.3121337890625,
        17.165000915527344,
        -725.7396850585938
      ],
      "min": [
        -1134.5203857421875,
        15.4350004196167,
        -739.1373901367188
      ],
      "type": "VEC3"
    },
    {
      "bufferView": 2,
      "byteOffset": 0,
      "componentType": 5126,
      "count": 18,
      "max": [
        0.4931340217590332,
        0.7059759497642517,
        0.5803440809249878
      ],
      "min": [
        -0.4931340217590332,
        -0.7059759497642517,
        -0.5803440809249878
      ],
      "type": "VEC3"
    },
    {
      "bufferView": 3,
      "byteOffset": 0,
      "componentType": 5126,
      "count": 18,
      "max": [
        0,
        0,
        0
      ],
      "min": [
        0,
        0,
        0
      ],
      "type": "VEC3"
    }
  ],
  "buffers": [
    {
      "byteLength": 60,
      "uri": "data:application/octet-stream;base64,"
    },
    {
      "byteLength": 216,
      "uri": "data:application/octet-stream;base64,"
    },
    {
      "byteLength": 216,
      "uri": "data:application/octet-stream;base64,"
    },
    {
      "byteLength": 216,
      "uri": "data:application/octet-stream;base64,"
    }
  ],
  "bufferViews": [
    {
      "buffer": 0,
      "byteOffset": 0,
      "byteLength": 60
    },
    {
      "buffer": 1,
      "byteOffset": 0,
      "byteLength": 216
    },
    {
      "buffer": 2,
      "byteOffset": 0,
      "byteLength": 216
    },
    {
      "buffer": 3,
      "byteOffset": 0,
      "byteLength": 216
    }
  ],
  "meshes": [
    {
      "primitives": [
        {
          "mode": 4,
          "indices": 0,
          "attributes": {
            "POSITION": 1,
            "NORMAL": 2,
            "COLOR_0": 3
          }
        }
      ]
    }
  ],
  "nodes": [
    {
      "children": [
        1
      ]
    },
    {
      "mesh": 0
    }
  ],
  "scenes": [
    {
      "nodes": [
        0
      ]
    }
  ],
  "scene": 0
}