{
  "asset": {
    "version": "2.0",
    "generator": "COLLADA2GLTF"
  },
  "accessors": [
    {
      "bufferView": 0,
      "byteOffset": 0,
      "componentType": 5123,
      "count": 1923,
      "min": [
        0
      ],
      "max": [
        678
      ],
      "type": "SCALAR"
    },
    {
      "bufferView": 1,
      "byteOffset": 0,
      "componentType": 5126,
      "count": 679,
      "max": [
        -2609.650390625,
        0.14777499437332153,
        1571.1461181640625
      ],
      "min": [
        -2803.38916015625,
        0,
        1439.51513671875
      ],
      "type": "VEC3"
    },
    {
      "bufferView": 2,
      "byteOffset": 0,
      "componentType": 5126,
      "count": 679,
      "max": [
        0.830656886100769,
        1,
        0.830656886100769
      ],
      "min": [
        -0.830656886100769,
        -0.9486833214759827,
        -0.830656886100769
      ],
      "type": "VEC3"
    },
    {
      "bufferView": 3,
      "byteOffset": 0,
      "componentType": 5126,
      "count": 679,
      "max": [
        0.5774929523468018,
        0.5776150226593018,
        0.5776455402374268
      ],
      "min": [
        0.07322804629802704,
        0.03309682011604309,
        0.03311207890510559
      ],
      "type": "VEC3"
    }
  ],
  "buffers": [
    {
      "byteLength": 3846,
      "uri": "data:application/octet-stream;base64,"
    },
    {
      "byteLength": 8148,
      "uri": "data:application/octet-stream;base64,"
    },
    {
      "byteLength": 8148,
      "uri": "data:application/octet-stream;base64,"
    },
    {
      "byteLength": 8148,
      "uri": "data:application/octet-stream;base64,"
    }
  ],
  "bufferViews": [
    {
      "buffer": 0,
      "byteOffset": 0,
      "byteLength": 3846
    },
    {
      "buffer": 1,
      "byteOffset": 0,
      "byteLength": 8148
    },
    {
      "buffer": 2,
      "byteOffset": 0,
      "byteLength": 8148
    },
    {
      "buffer": 3,
      "byteOffset": 0,
      "byteLength": 8148
    }
  ],
  "meshes": [
    {
      "primitives": [
        {
          "mode": 4,
          "indices": 0,
          "attributes": {
            "POSITION": 1,
            "NORMAL": 2,
            "COLOR_0": 3
          }
        }
      ]
    }
  ],
  "nodes": [
    {
      "children": [
        1
      ]
    },
    {
      "mesh": 0
    }
  ],
  "scenes": [
    {
      "nodes": [
        0
      ]
    }
  ],
  "scene": 0
}