{
  "asset": {
    "version": "2.0",
    "generator": "COLLADA2GLTF"
  },
  "accessors": [
    {
      "bufferView": 0,
      "byteOffset": 0,
      "componentType": 5123,
      "count": 147,
      "min": [
        0
      ],
      "max": [
        125
      ],
      "type": "SCALAR"
    },
    {
      "bufferView": 1,
      "byteOffset": 0,
      "componentType": 5126,
      "count": 126,
      "max": [
        682.1920166015625,
        7.5,
        -847.5750122070312
      ],
      "min": [
        660.1500244140625,
        0,
        -885.7930297851562
      ],
      "type": "VEC3"
    },
    {
      "bufferView": 2,
      "byteOffset": 0,
      "componentType": 5126,
      "count": 126,
      "max": [
        0.9034371972084045,
        0,
        0.9031533598899841
      ],
      "min": [
        -0.9034019112586975,
        0,
        -0.9031533598899841
      ],
      "type": "VEC3"
    },
    {
      "bufferView": 3,
      "byteOffset": 0,
      "componentType": 5126,
      "count": 126,
      "max": [
        0.999786376953125,
        0.7875181436538696,
        0.26330968737602234
      ],
      "min": [
        0.999786376953125,
        0.7875181436538696,
        0.26330968737602234
      ],
      "type": "VEC3"
    }
  ],
  "buffers": [
    {
      "byteLength": 294,
      "uri": "data:application/octet-stream;base64,"
    },
    {
      "byteLength": 1512,
      "uri": "data:application/octet-stream;base64,"
    },
    {
      "byteLength": 1512,
      "uri": "data:application/octet-stream;base64,"
    },
    {
      "byteLength": 1512,
      "uri": "data:application/octet-stream;base64,"
    }
  ],
  "bufferViews": [
    {
      "buffer": 0,
      "byteOffset": 0,
      "byteLength": 294
    },
    {
      "buffer": 1,
      "byteOffset": 0,
      "byteLength": 1512
    },
    {
      "buffer": 2,
      "byteOffset": 0,
      "byteLength": 1512
    },
    {
      "buffer": 3,
      "byteOffset": 0,
      "byteLength": 1512
    }
  ],
  "meshes": [
    {
      "primitives": [
        {
          "mode": 4,
          "indices": 0,
          "attributes": {
            "POSITION": 1,
            "NORMAL": 2,
            "COLOR_0": 3
          }
        }
      ]
    }
  ],
  "nodes": [
    {
      "children": [
        1
      ]
    },
    {
      "mesh": 0
    }
  ],
  "scenes": [
    {
      "nodes": [
        0
      ]
    }
  ],
  "scene": 0
}