{
  "asset": {
    "version": "2.0",
    "generator": "COLLADA2GLTF"
  },
  "accessors": [
    {
      "bufferView": 0,
      "byteOffset": 0,
      "componentType": 5123,
      "count": 234,
      "min": [
        0
      ],
      "max": [
        198
      ],
      "type": "SCALAR"
    },
    {
      "bufferView": 1,
      "byteOffset": 0,
      "componentType": 5126,
      "count": 199,
      "max": [
        -226.3800048828125,
        7.5,
        16.6200008392334
      ],
      "min": [
        -310.2090148925781,
        0,
        -299.17401123046875
      ],
      "type": "VEC3"
    },
    {
      "bufferView": 2,
      "byteOffset": 0,
      "componentType": 5126,
      "count": 199,
      "max": [
        0.8898354172706604,
        0,
        0.9048323631286621
      ],
      "min": [
        -0.9899013638496399,
        0,
        -0.9555402994155884
      ],
      "type": "VEC3"
    },
    {
      "bufferView": 3,
      "byteOffset": 0,
      "componentType": 5126,
      "count": 199,
      "max": [
        0.999786376953125,
        0.7875181436538696,
        0.26330968737602234
      ],
      "min": [
        0.999786376953125,
        0.7875181436538696,
        0.26330968737602234
      ],
      "type": "VEC3"
    }
  ],
  "buffers": [
    {
      "byteLength": 468,
      "uri": "data:application/octet-stream;base64,"
    },
    {
      "byteLength": 2388,
      "uri": "data:application/octet-stream;base64,"
    },
    {
      "byteLength": 2388,
      "uri": "data:application/octet-stream;base64,"
    },
    {
      "byteLength": 2388,
      "uri": "data:application/octet-stream;base64,"
    }
  ],
  "bufferViews": [
    {
      "buffer": 0,
      "byteOffset": 0,
      "byteLength": 468
    },
    {
      "buffer": 1,
      "byteOffset": 0,
      "byteLength": 2388
    },
    {
      "buffer": 2,
      "byteOffset": 0,
      "byteLength": 2388
    },
    {
      "buffer": 3,
      "byteOffset": 0,
      "byteLength": 2388
    }
  ],
  "meshes": [
    {
      "primitives": [
        {
          "mode": 4,
          "indices": 0,
          "attributes": {
            "POSITION": 1,
            "NORMAL": 2,
            "COLOR_0": 3
          }
        }
      ]
    }
  ],
  "nodes": [
    {
      "children": [
        1
      ]
    },
    {
      "mesh": 0
    }
  ],
  "scenes": [
    {
      "nodes": [
        0
      ]
    }
  ],
  "scene": 0
}