{
  "asset": {
    "version": "2.0",
    "generator": "COLLADA2GLTF"
  },
  "accessors": [
    {
      "bufferView": 0,
      "byteOffset": 0,
      "componentType": 5123,
      "count": 1359,
      "min": [
        0
      ],
      "max": [
        629
      ],
      "type": "SCALAR"
    },
    {
      "bufferView": 1,
      "byteOffset": 0,
      "componentType": 5126,
      "count": 630,
      "max": [
        4.773975372314453,
        7.5,
        420
      ],
      "min": [
        -192.3629913330078,
        0,
        -141.86599731445312
      ],
      "type": "VEC3"
    },
    {
      "bufferView": 2,
      "byteOffset": 0,
      "componentType": 5126,
      "count": 630,
      "max": [
        1,
        1,
        1
      ],
      "min": [
        -1,
        -1,
        -1
      ],
      "type": "VEC3"
    },
    {
      "bufferView": 3,
      "byteOffset": 0,
      "componentType": 5126,
      "count": 630,
      "max": [
        0.999786376953125,
        1,
        1
      ],
      "min": [
        0,
        0.00003051804378628731,
        0.000015259021893143654
      ],
      "type": "VEC3"
    }
  ],
  "buffers": [
    {
      "byteLength": 2718,
      "uri": "data:application/octet-stream;base64,"
    },
    {
      "byteLength": 7560,
      "uri": "data:application/octet-stream;base64,"
    },
    {
      "byteLength": 7560,
      "uri": "data:application/octet-stream;base64,"
    },
    {
      "byteLength": 7560,
      "uri": "data:application/octet-stream;base64,"
    }
  ],
  "bufferViews": [
    {
      "buffer": 0,
      "byteOffset": 0,
      "byteLength": 2718
    },
    {
      "buffer": 1,
      "byteOffset": 0,
      "byteLength": 7560
    },
    {
      "buffer": 2,
      "byteOffset": 0,
      "byteLength": 7560
    },
    {
      "buffer": 3,
      "byteOffset": 0,
      "byteLength": 7560
    }
  ],
  "meshes": [
    {
      "primitives": [
        {
          "mode": 4,
          "indices": 0,
          "attributes": {
            "POSITION": 1,
            "NORMAL": 2,
            "COLOR_0": 3
          }
        }
      ]
    }
  ],
  "nodes": [
    {
      "children": [
        1
      ]
    },
    {
      "mesh": 0
    }
  ],
  "scenes": [
    {
      "nodes": [
        0
      ]
    }
  ],
  "scene": 0
}