{
  "asset": {
    "version": "2.0",
    "generator": "COLLADA2GLTF"
  },
  "accessors": [
    {
      "bufferView": 0,
      "byteOffset": 0,
      "componentType": 5123,
      "count": 4134,
      "min": [
        0
      ],
      "max": [
        2417
      ],
      "type": "SCALAR"
    },
    {
      "bufferView": 1,
      "byteOffset": 0,
      "componentType": 5126,
      "count": 2418,
      "max": [
        0.03939231112599373,
        1.0700000524520874,
        0.03758770599961281
      ],
      "min": [
        -0.03939231112599373,
        0,
        -0.03999999910593033
      ],
      "type": "VEC3"
    },
    {
      "bufferView": 2,
      "byteOffset": 0,
      "componentType": 5126,
      "count": 2418,
      "max": [
        0.9848077297210693,
        1,
        1
      ],
      "min": [
        -0.9848077297210693,
        0,
        -0.9396926164627075
      ],
      "type": "VEC3"
    },
    {
      "bufferView": 3,
      "byteOffset": 0,
      "componentType": 5126,
      "count": 2418,
      "max": [
        0.4097047448158264,
        0.4099031090736389,
        0.4098725914955139
      ],
      "min": [
        0.4097047448158264,
        0.4099031090736389,
        0.4098725914955139
      ],
      "type": "VEC3"
    }
  ],
  "buffers": [
    {
      "byteLength": 8268,
      "uri": "data:application/octet-stream;base64,"
    },
    {
      "byteLength": 29016,
      "uri": "data:application/octet-stream;base64,"
    },
    {
      "byteLength": 29016,
      "uri": "data:application/octet-stream;base64,"
    },
    {
      "byteLength": 29016,
      "uri": "data:application/octet-stream;base64,"
    }
  ],
  "bufferViews": [
    {
      "buffer": 0,
      "byteOffset": 0,
      "byteLength": 8268
    },
    {
      "buffer": 1,
      "byteOffset": 0,
      "byteLength": 29016
    },
    {
      "buffer": 2,
      "byteOffset": 0,
      "byteLength": 29016
    },
    {
      "buffer": 3,
      "byteOffset": 0,
      "byteLength": 29016
    }
  ],
  "meshes": [
    {
      "primitives": [
        {
          "mode": 4,
          "indices": 0,
          "attributes": {
            "POSITION": 1,
            "NORMAL": 2,
            "COLOR_0": 3
          }
        }
      ]
    }
  ],
  "nodes": [
    {
      "children": [
        1
      ]
    },
    {
      "mesh": 0
    }
  ],
  "scenes": [
    {
      "nodes": [
        0
      ]
    }
  ],
  "scene": 0
}