{
  "asset": {
    "version": "2.0",
    "generator": "COLLADA2GLTF"
  },
  "accessors": [
    {
      "bufferView": 0,
      "byteOffset": 0,
      "componentType": 5123,
      "count": 3585,
      "min": [
        0
      ],
      "max": [
        1212
      ],
      "type": "SCALAR"
    },
    {
      "bufferView": 1,
      "byteOffset": 0,
      "componentType": 5126,
      "count": 1213,
      "max": [
        -3816.434326171875,
        0.06400000303983688,
        892.1220092773438
      ],
      "min": [
        -3843.905517578125,
        0,
        866.496826171875
      ],
      "type": "VEC3"
    },
    {
      "bufferView": 2,
      "byteOffset": 0,
      "componentType": 5126,
      "count": 1213,
      "max": [
        0.734276294708252,
        1,
        0.734276294708252
      ],
      "min": [
        -0.734276294708252,
        0,
        -0.734276294708252
      ],
      "type": "VEC3"
    },
    {
      "bufferView": 3,
      "byteOffset": 0,
      "componentType": 5126,
      "count": 1213,
      "max": [
        0.07322804629802704,
        0.03309682011604309,
        0.03311207890510559
      ],
      "min": [
        0.07322804629802704,
        0.03309682011604309,
        0.03311207890510559
      ],
      "type": "VEC3"
    }
  ],
  "buffers": [
    {
      "byteLength": 7170,
      "uri": "data:application/octet-stream;base64,"
    },
    {
      "byteLength": 14556,
      "uri": "data:application/octet-stream;base64,"
    },
    {
      "byteLength": 14556,
      "uri": "data:application/octet-stream;base64,"
    },
    {
      "byteLength": 14556,
      "uri": "data:application/octet-stream;base64,"
    }
  ],
  "bufferViews": [
    {
      "buffer": 0,
      "byteOffset": 0,
      "byteLength": 7170
    },
    {
      "buffer": 1,
      "byteOffset": 0,
      "byteLength": 14556
    },
    {
      "buffer": 2,
      "byteOffset": 0,
      "byteLength": 14556
    },
    {
      "buffer": 3,
      "byteOffset": 0,
      "byteLength": 14556
    }
  ],
  "meshes": [
    {
      "primitives": [
        {
          "mode": 4,
          "indices": 0,
          "attributes": {
            "POSITION": 1,
            "NORMAL": 2,
            "COLOR_0": 3
          }
        }
      ]
    }
  ],
  "nodes": [
    {
      "children": [
        1
      ]
    },
    {
      "mesh": 0
    }
  ],
  "scenes": [
    {
      "nodes": [
        0
      ]
    }
  ],
  "scene": 0
}