{
  "asset": {
    "version": "2.0",
    "generator": "COLLADA2GLTF"
  },
  "accessors": [
    {
      "bufferView": 0,
      "byteOffset": 0,
      "componentType": 5123,
      "count": 3405,
      "min": [
        0
      ],
      "max": [
        1582
      ],
      "type": "SCALAR"
    },
    {
      "bufferView": 1,
      "byteOffset": 0,
      "componentType": 5126,
      "count": 1583,
      "max": [
        -1158.883056640625,
        7.5,
        625.6038208007812
      ],
      "min": [
        -1380,
        0,
        120
      ],
      "type": "VEC3"
    },
    {
      "bufferView": 2,
      "byteOffset": 0,
      "componentType": 5126,
      "count": 1583,
      "max": [
        0.8345329165458679,
        1,
        0.8343040347099304
      ],
      "min": [
        -0.8354120254516602,
        -1,
        -0.8339044451713562
      ],
      "type": "VEC3"
    },
    {
      "bufferView": 3,
      "byteOffset": 0,
      "componentType": 5126,
      "count": 1583,
      "max": [
        0.999786376953125,
        1,
        0.26330968737602234
      ],
      "min": [
        0.000015259021893143654,
        0.07324330508708954,
        0.00004577706567943096
      ],
      "type": "VEC3"
    }
  ],
  "buffers": [
    {
      "byteLength": 6810,
      "uri": "data:application/octet-stream;base64,"
    },
    {
      "byteLength": 18996,
      "uri": "data:application/octet-stream;base64,"
    },
    {
      "byteLength": 18996,
      "uri": "data:application/octet-stream;base64,"
    },
    {
      "byteLength": 18996,
      "uri": "data:application/octet-stream;base64,"
    }
  ],
  "bufferViews": [
    {
      "buffer": 0,
      "byteOffset": 0,
      "byteLength": 6810
    },
    {
      "buffer": 1,
      "byteOffset": 0,
      "byteLength": 18996
    },
    {
      "buffer": 2,
      "byteOffset": 0,
      "byteLength": 18996
    },
    {
      "buffer": 3,
      "byteOffset": 0,
      "byteLength": 18996
    }
  ],
  "meshes": [
    {
      "primitives": [
        {
          "mode": 4,
          "indices": 0,
          "attributes": {
            "POSITION": 1,
            "NORMAL": 2,
            "COLOR_0": 3
          }
        }
      ]
    }
  ],
  "nodes": [
    {
      "children": [
        1
      ]
    },
    {
      "mesh": 0
    }
  ],
  "scenes": [
    {
      "nodes": [
        0
      ]
    }
  ],
  "scene": 0
}