{
  "asset": {
    "version": "2.0",
    "generator": "COLLADA2GLTF"
  },
  "accessors": [
    {
      "bufferView": 0,
      "byteOffset": 0,
      "componentType": 5123,
      "count": 249,
      "min": [
        0
      ],
      "max": [
        92
      ],
      "type": "SCALAR"
    },
    {
      "bufferView": 1,
      "byteOffset": 0,
      "componentType": 5126,
      "count": 93,
      "max": [
        -436.81292724609375,
        0,
        546.5336303710938
      ],
      "min": [
        -492.2087097167969,
        -3,
        502.76214599609375
      ],
      "type": "VEC3"
    },
    {
      "bufferView": 2,
      "byteOffset": 0,
      "componentType": 5126,
      "count": 93,
      "max": [
        0.8317577838897705,
        1,
        0.8317577838897705
      ],
      "min": [
        -0.8317577838897705,
        0,
        -0.8317577838897705
      ],
      "type": "VEC3"
    },
    {
      "bufferView": 3,
      "byteOffset": 0,
      "componentType": 5126,
      "count": 93,
      "max": [
        0.21585412323474884,
        0.21585412323474884,
        0.21589989960193634
      ],
      "min": [
        0.21585412323474884,
        0.21585412323474884,
        0.21589989960193634
      ],
      "type": "VEC3"
    }
  ],
  "buffers": [
    {
      "byteLength": 498,
      "uri": "data:application/octet-stream;base64,"
    },
    {
      "byteLength": 1116,
      "uri": "data:application/octet-stream;base64,"
    },
    {
      "byteLength": 1116,
      "uri": "data:application/octet-stream;base64,"
    },
    {
      "byteLength": 1116,
      "uri": "data:application/octet-stream;base64,"
    }
  ],
  "bufferViews": [
    {
      "buffer": 0,
      "byteOffset": 0,
      "byteLength": 498
    },
    {
      "buffer": 1,
      "byteOffset": 0,
      "byteLength": 1116
    },
    {
      "buffer": 2,
      "byteOffset": 0,
      "byteLength": 1116
    },
    {
      "buffer": 3,
      "byteOffset": 0,
      "byteLength": 1116
    }
  ],
  "meshes": [
    {
      "primitives": [
        {
          "mode": 4,
          "indices": 0,
          "attributes": {
            "POSITION": 1,
            "NORMAL": 2,
            "COLOR_0": 3
          }
        }
      ]
    }
  ],
  "nodes": [
    {
      "children": [
        1
      ]
    },
    {
      "mesh": 0
    }
  ],
  "scenes": [
    {
      "nodes": [
        0
      ]
    }
  ],
  "scene": 0
}