{
  "asset": {
    "version": "2.0",
    "generator": "COLLADA2GLTF"
  },
  "accessors": [
    {
      "bufferView": 0,
      "byteOffset": 0,
      "componentType": 5123,
      "count": 3474,
      "min": [
        0
      ],
      "max": [
        1462
      ],
      "type": "SCALAR"
    },
    {
      "bufferView": 1,
      "byteOffset": 0,
      "componentType": 5126,
      "count": 1463,
      "max": [
        -2094.29931640625,
        14.5,
        486.98748779296875
      ],
      "min": [
        -2321.7685546875,
        9.28499984741211,
        130.09068298339844
      ],
      "type": "VEC3"
    },
    {
      "bufferView": 2,
      "byteOffset": 0,
      "componentType": 5126,
      "count": 1463,
      "max": [
        0.8571977615356445,
        0.70616215467453,
        0.8571977615356445
      ],
      "min": [
        -0.8571977615356445,
        -0.705258846282959,
        -0.8571977615356445
      ],
      "type": "VEC3"
    },
    {
      "bufferView": 3,
      "byteOffset": 0,
      "componentType": 5126,
      "count": 1463,
      "max": [
        0.4480048716068268,
        0.4480048716068268,
        0.4480659067630768
      ],
      "min": [
        0,
        0,
        0
      ],
      "type": "VEC3"
    }
  ],
  "buffers": [
    {
      "byteLength": 6948,
      "uri": "data:application/octet-stream;base64,"
    },
    {
      "byteLength": 17556,
      "uri": "data:application/octet-stream;base64,"
    },
    {
      "byteLength": 17556,
      "uri": "data:application/octet-stream;base64,"
    },
    {
      "byteLength": 17556,
      "uri": "data:application/octet-stream;base64,"
    }
  ],
  "bufferViews": [
    {
      "buffer": 0,
      "byteOffset": 0,
      "byteLength": 6948
    },
    {
      "buffer": 1,
      "byteOffset": 0,
      "byteLength": 17556
    },
    {
      "buffer": 2,
      "byteOffset": 0,
      "byteLength": 17556
    },
    {
      "buffer": 3,
      "byteOffset": 0,
      "byteLength": 17556
    }
  ],
  "meshes": [
    {
      "primitives": [
        {
          "mode": 4,
          "indices": 0,
          "attributes": {
            "POSITION": 1,
            "NORMAL": 2,
            "COLOR_0": 3
          }
        }
      ]
    }
  ],
  "nodes": [
    {
      "children": [
        1
      ]
    },
    {
      "mesh": 0
    }
  ],
  "scenes": [
    {
      "nodes": [
        0
      ]
    }
  ],
  "scene": 0
}