{
  "asset": {
    "version": "2.0",
    "generator": "COLLADA2GLTF"
  },
  "accessors": [
    {
      "bufferView": 0,
      "byteOffset": 0,
      "componentType": 5123,
      "count": 357,
      "min": [
        0
      ],
      "max": [
        124
      ],
      "type": "SCALAR"
    },
    {
      "bufferView": 1,
      "byteOffset": 0,
      "componentType": 5126,
      "count": 125,
      "max": [
        -3015.54345703125,
        10.484999656677246,
        432.632080078125
      ],
      "min": [
        -3069.42724609375,
        8.324999809265137,
        394.84088134765625
      ],
      "type": "VEC3"
    },
    {
      "bufferView": 2,
      "byteOffset": 0,
      "componentType": 5126,
      "count": 125,
      "max": [
        0.4197177290916443,
        0.70708167552948,
        0.6156649589538574
      ],
      "min": [
        -0.433480441570282,
        -0.7068809866905212,
        -0.6156649589538574
      ],
      "type": "VEC3"
    },
    {
      "bufferView": 3,
      "byteOffset": 0,
      "componentType": 5126,
      "count": 125,
      "max": [
        0,
        0,
        0
      ],
      "min": [
        0,
        0,
        0
      ],
      "type": "VEC3"
    }
  ],
  "buffers": [
    {
      "byteLength": 714,
      "uri": "data:application/octet-stream;base64,"
    },
    {
      "byteLength": 1500,
      "uri": "data:application/octet-stream;base64,"
    },
    {
      "byteLength": 1500,
      "uri": "data:application/octet-stream;base64,"
    },
    {
      "byteLength": 1500,
      "uri": "data:application/octet-stream;base64,"
    }
  ],
  "bufferViews": [
    {
      "buffer": 0,
      "byteOffset": 0,
      "byteLength": 714
    },
    {
      "buffer": 1,
      "byteOffset": 0,
      "byteLength": 1500
    },
    {
      "buffer": 2,
      "byteOffset": 0,
      "byteLength": 1500
    },
    {
      "buffer": 3,
      "byteOffset": 0,
      "byteLength": 1500
    }
  ],
  "meshes": [
    {
      "primitives": [
        {
          "mode": 4,
          "indices": 0,
          "attributes": {
            "POSITION": 1,
            "NORMAL": 2,
            "COLOR_0": 3
          }
        }
      ]
    }
  ],
  "nodes": [
    {
      "children": [
        1
      ]
    },
    {
      "mesh": 0
    }
  ],
  "scenes": [
    {
      "nodes": [
        0
      ]
    }
  ],
  "scene": 0
}