{
  "asset": {
    "version": "2.0",
    "generator": "COLLADA2GLTF"
  },
  "accessors": [
    {
      "bufferView": 0,
      "byteOffset": 0,
      "componentType": 5123,
      "count": 1242,
      "min": [
        0
      ],
      "max": [
        471
      ],
      "type": "SCALAR"
    },
    {
      "bufferView": 1,
      "byteOffset": 0,
      "componentType": 5126,
      "count": 472,
      "max": [
        -1809.8758544921875,
        9.5,
        -83.30924987792969
      ],
      "min": [
        -1911.49072265625,
        7,
        -161.239990234375
      ],
      "type": "VEC3"
    },
    {
      "bufferView": 2,
      "byteOffset": 0,
      "componentType": 5126,
      "count": 472,
      "max": [
        0.7301571369171143,
        0.7070717215538025,
        0.7301571369171143
      ],
      "min": [
        -0.7301571369171143,
        -0.7070717215538025,
        -0.7301571369171143
      ],
      "type": "VEC3"
    },
    {
      "bufferView": 3,
      "byteOffset": 0,
      "componentType": 5126,
      "count": 472,
      "max": [
        0.4480048716068268,
        0.4480048716068268,
        0.4480659067630768
      ],
      "min": [
        0,
        0,
        0
      ],
      "type": "VEC3"
    }
  ],
  "buffers": [
    {
      "byteLength": 2484,
      "uri": "data:application/octet-stream;base64,"
    },
    {
      "byteLength": 5664,
      "uri": "data:application/octet-stream;base64,"
    },
    {
      "byteLength": 5664,
      "uri": "data:application/octet-stream;base64,"
    },
    {
      "byteLength": 5664,
      "uri": "data:application/octet-stream;base64,"
    }
  ],
  "bufferViews": [
    {
      "buffer": 0,
      "byteOffset": 0,
      "byteLength": 2484
    },
    {
      "buffer": 1,
      "byteOffset": 0,
      "byteLength": 5664
    },
    {
      "buffer": 2,
      "byteOffset": 0,
      "byteLength": 5664
    },
    {
      "buffer": 3,
      "byteOffset": 0,
      "byteLength": 5664
    }
  ],
  "meshes": [
    {
      "primitives": [
        {
          "mode": 4,
          "indices": 0,
          "attributes": {
            "POSITION": 1,
            "NORMAL": 2,
            "COLOR_0": 3
          }
        }
      ]
    }
  ],
  "nodes": [
    {
      "children": [
        1
      ]
    },
    {
      "mesh": 0
    }
  ],
  "scenes": [
    {
      "nodes": [
        0
      ]
    }
  ],
  "scene": 0
}