{
  "asset": {
    "version": "2.0",
    "generator": "COLLADA2GLTF"
  },
  "accessors": [
    {
      "bufferView": 0,
      "byteOffset": 0,
      "componentType": 5123,
      "count": 1131,
      "min": [
        0
      ],
      "max": [
        596
      ],
      "type": "SCALAR"
    },
    {
      "bufferView": 1,
      "byteOffset": 0,
      "componentType": 5126,
      "count": 597,
      "max": [
        -1571.1109619140625,
        7.5,
        -802.4329833984375
      ],
      "min": [
        -1703.572998046875,
        0,
        -1027.0770263671875
      ],
      "type": "VEC3"
    },
    {
      "bufferView": 2,
      "byteOffset": 0,
      "componentType": 5126,
      "count": 597,
      "max": [
        0.7623087763786316,
        1,
        0.762475311756134
      ],
      "min": [
        -0.999908447265625,
        0,
        -0.9999040961265564
      ],
      "type": "VEC3"
    },
    {
      "bufferView": 3,
      "byteOffset": 0,
      "componentType": 5126,
      "count": 597,
      "max": [
        0.999786376953125,
        0.7875181436538696,
        0.26330968737602234
      ],
      "min": [
        0.6036774516105652,
        0.00003051804378628731,
        0
      ],
      "type": "VEC3"
    }
  ],
  "buffers": [
    {
      "byteLength": 2262,
      "uri": "data:application/octet-stream;base64,"
    },
    {
      "byteLength": 7164,
      "uri": "data:application/octet-stream;base64,"
    },
    {
      "byteLength": 7164,
      "uri": "data:application/octet-stream;base64,"
    },
    {
      "byteLength": 7164,
      "uri": "data:application/octet-stream;base64,"
    }
  ],
  "bufferViews": [
    {
      "buffer": 0,
      "byteOffset": 0,
      "byteLength": 2262
    },
    {
      "buffer": 1,
      "byteOffset": 0,
      "byteLength": 7164
    },
    {
      "buffer": 2,
      "byteOffset": 0,
      "byteLength": 7164
    },
    {
      "buffer": 3,
      "byteOffset": 0,
      "byteLength": 7164
    }
  ],
  "meshes": [
    {
      "primitives": [
        {
          "mode": 4,
          "indices": 0,
          "attributes": {
            "POSITION": 1,
            "NORMAL": 2,
            "COLOR_0": 3
          }
        }
      ]
    }
  ],
  "nodes": [
    {
      "children": [
        1
      ]
    },
    {
      "mesh": 0
    }
  ],
  "scenes": [
    {
      "nodes": [
        0
      ]
    }
  ],
  "scene": 0
}