{
  "asset": {
    "version": "2.0",
    "generator": "COLLADA2GLTF"
  },
  "accessors": [
    {
      "bufferView": 0,
      "byteOffset": 0,
      "componentType": 5123,
      "count": 600,
      "min": [
        0
      ],
      "max": [
        288
      ],
      "type": "SCALAR"
    },
    {
      "bufferView": 1,
      "byteOffset": 0,
      "componentType": 5126,
      "count": 289,
      "max": [
        -224.1649932861328,
        7.5,
        487.5610046386719
      ],
      "min": [
        -403.87200927734375,
        0,
        245.24600219726562
      ],
      "type": "VEC3"
    },
    {
      "bufferView": 2,
      "byteOffset": 0,
      "componentType": 5126,
      "count": 289,
      "max": [
        0.8373392820358276,
        1,
        0.8378391861915588
      ],
      "min": [
        -0.8376938700675964,
        0,
        -0.9545485377311707
      ],
      "type": "VEC3"
    },
    {
      "bufferView": 3,
      "byteOffset": 0,
      "componentType": 5126,
      "count": 289,
      "max": [
        0.999786376953125,
        0.7875181436538696,
        0.26330968737602234
      ],
      "min": [
        0.6036774516105652,
        0.00003051804378628731,
        0
      ],
      "type": "VEC3"
    }
  ],
  "buffers": [
    {
      "byteLength": 1200,
      "uri": "data:application/octet-stream;base64,"
    },
    {
      "byteLength": 3468,
      "uri": "data:application/octet-stream;base64,"
    },
    {
      "byteLength": 3468,
      "uri": "data:application/octet-stream;base64,"
    },
    {
      "byteLength": 3468,
      "uri": "data:application/octet-stream;base64,"
    }
  ],
  "bufferViews": [
    {
      "buffer": 0,
      "byteOffset": 0,
      "byteLength": 1200
    },
    {
      "buffer": 1,
      "byteOffset": 0,
      "byteLength": 3468
    },
    {
      "buffer": 2,
      "byteOffset": 0,
      "byteLength": 3468
    },
    {
      "buffer": 3,
      "byteOffset": 0,
      "byteLength": 3468
    }
  ],
  "meshes": [
    {
      "primitives": [
        {
          "mode": 4,
          "indices": 0,
          "attributes": {
            "POSITION": 1,
            "NORMAL": 2,
            "COLOR_0": 3
          }
        }
      ]
    }
  ],
  "nodes": [
    {
      "children": [
        1
      ]
    },
    {
      "mesh": 0
    }
  ],
  "scenes": [
    {
      "nodes": [
        0
      ]
    }
  ],
  "scene": 0
}