{
  "asset": {
    "version": "2.0",
    "generator": "COLLADA2GLTF"
  },
  "accessors": [
    {
      "bufferView": 0,
      "byteOffset": 0,
      "componentType": 5123,
      "count": 978,
      "min": [
        0
      ],
      "max": [
        610
      ],
      "type": "SCALAR"
    },
    {
      "bufferView": 1,
      "byteOffset": 0,
      "componentType": 5126,
      "count": 611,
      "max": [
        1506.9547119140625,
        0.0010000000474974513,
        -506.0162658691406
      ],
      "min": [
        1246.0521240234375,
        0,
        -780
      ],
      "type": "VEC3"
    },
    {
      "bufferView": 2,
      "byteOffset": 0,
      "componentType": 5126,
      "count": 611,
      "max": [
        0.9941630363464355,
        1,
        0.9984031319618225
      ],
      "min": [
        -0.9908818006515503,
        0,
        -0.9984031319618225
      ],
      "type": "VEC3"
    },
    {
      "bufferView": 3,
      "byteOffset": 0,
      "componentType": 5126,
      "count": 611,
      "max": [
        0.999786376953125,
        1,
        0.7875028848648071
      ],
      "min": [
        0.000015259021893143654,
        0.07324330508708954,
        0.00004577706567943096
      ],
      "type": "VEC3"
    }
  ],
  "buffers": [
    {
      "byteLength": 1956,
      "uri": "data:application/octet-stream;base64,"
    },
    {
      "byteLength": 7332,
      "uri": "data:application/octet-stream;base64,"
    },
    {
      "byteLength": 7332,
      "uri": "data:application/octet-stream;base64,"
    },
    {
      "byteLength": 7332,
      "uri": "data:application/octet-stream;base64,"
    }
  ],
  "bufferViews": [
    {
      "buffer": 0,
      "byteOffset": 0,
      "byteLength": 1956
    },
    {
      "buffer": 1,
      "byteOffset": 0,
      "byteLength": 7332
    },
    {
      "buffer": 2,
      "byteOffset": 0,
      "byteLength": 7332
    },
    {
      "buffer": 3,
      "byteOffset": 0,
      "byteLength": 7332
    }
  ],
  "meshes": [
    {
      "primitives": [
        {
          "mode": 4,
          "indices": 0,
          "attributes": {
            "POSITION": 1,
            "NORMAL": 2,
            "COLOR_0": 3
          }
        }
      ]
    }
  ],
  "nodes": [
    {
      "children": [
        1
      ]
    },
    {
      "mesh": 0
    }
  ],
  "scenes": [
    {
      "nodes": [
        0
      ]
    }
  ],
  "scene": 0
}