{
  "asset": {
    "version": "2.0",
    "generator": "COLLADA2GLTF"
  },
  "accessors": [
    {
      "bufferView": 0,
      "byteOffset": 0,
      "componentType": 5123,
      "count": 3495,
      "min": [
        0
      ],
      "max": [
        1480
      ],
      "type": "SCALAR"
    },
    {
      "bufferView": 1,
      "byteOffset": 0,
      "componentType": 5126,
      "count": 1481,
      "max": [
        1350,
        7.5,
        312.1809997558594
      ],
      "min": [
        1175.4478759765625,
        -0.20000000298023224,
        60
      ],
      "type": "VEC3"
    },
    {
      "bufferView": 2,
      "byteOffset": 0,
      "componentType": 5126,
      "count": 1481,
      "max": [
        1,
        1,
        1
      ],
      "min": [
        -1,
        -1,
        -1
      ],
      "type": "VEC3"
    },
    {
      "bufferView": 3,
      "byteOffset": 0,
      "componentType": 5126,
      "count": 1481,
      "max": [
        0.999786376953125,
        1,
        1
      ],
      "min": [
        0,
        0.00003051804378628731,
        0.00004577706567943096
      ],
      "type": "VEC3"
    }
  ],
  "buffers": [
    {
      "byteLength": 6990,
      "uri": "data:application/octet-stream;base64,"
    },
    {
      "byteLength": 17772,
      "uri": "data:application/octet-stream;base64,"
    },
    {
      "byteLength": 17772,
      "uri": "data:application/octet-stream;base64,"
    },
    {
      "byteLength": 17772,
      "uri": "data:application/octet-stream;base64,"
    }
  ],
  "bufferViews": [
    {
      "buffer": 0,
      "byteOffset": 0,
      "byteLength": 6990
    },
    {
      "buffer": 1,
      "byteOffset": 0,
      "byteLength": 17772
    },
    {
      "buffer": 2,
      "byteOffset": 0,
      "byteLength": 17772
    },
    {
      "buffer": 3,
      "byteOffset": 0,
      "byteLength": 17772
    }
  ],
  "meshes": [
    {
      "primitives": [
        {
          "mode": 4,
          "indices": 0,
          "attributes": {
            "POSITION": 1,
            "NORMAL": 2,
            "COLOR_0": 3
          }
        }
      ]
    }
  ],
  "nodes": [
    {
      "children": [
        1
      ]
    },
    {
      "mesh": 0
    }
  ],
  "scenes": [
    {
      "nodes": [
        0
      ]
    }
  ],
  "scene": 0
}