{
  "asset": {
    "version": "2.0",
    "generator": "COLLADA2GLTF"
  },
  "accessors": [
    {
      "bufferView": 0,
      "byteOffset": 0,
      "componentType": 5123,
      "count": 1050,
      "min": [
        0
      ],
      "max": [
        847
      ],
      "type": "SCALAR"
    },
    {
      "bufferView": 1,
      "byteOffset": 0,
      "componentType": 5126,
      "count": 848,
      "max": [
        -2729.477783203125,
        30,
        1282.4407958984375
      ],
      "min": [
        -3074.06884765625,
        0,
        1012.041015625
      ],
      "type": "VEC3"
    },
    {
      "bufferView": 2,
      "byteOffset": 0,
      "componentType": 5126,
      "count": 848,
      "max": [
        0.8472545146942139,
        1,
        0.9965099692344666
      ],
      "min": [
        -0.9999632239341736,
        0,
        -0.9642566442489624
      ],
      "type": "VEC3"
    },
    {
      "bufferView": 3,
      "byteOffset": 0,
      "componentType": 5126,
      "count": 848,
      "max": [
        0.999786376953125,
        0.7875181436538696,
        0.26330968737602234
      ],
      "min": [
        0.6036774516105652,
        0.00003051804378628731,
        0
      ],
      "type": "VEC3"
    }
  ],
  "buffers": [
    {
      "byteLength": 2100,
      "uri": "data:application/octet-stream;base64,"
    },
    {
      "byteLength": 10176,
      "uri": "data:application/octet-stream;base64,"
    },
    {
      "byteLength": 10176,
      "uri": "data:application/octet-stream;base64,"
    },
    {
      "byteLength": 10176,
      "uri": "data:application/octet-stream;base64,"
    }
  ],
  "bufferViews": [
    {
      "buffer": 0,
      "byteOffset": 0,
      "byteLength": 2100
    },
    {
      "buffer": 1,
      "byteOffset": 0,
      "byteLength": 10176
    },
    {
      "buffer": 2,
      "byteOffset": 0,
      "byteLength": 10176
    },
    {
      "buffer": 3,
      "byteOffset": 0,
      "byteLength": 10176
    }
  ],
  "meshes": [
    {
      "primitives": [
        {
          "mode": 4,
          "indices": 0,
          "attributes": {
            "POSITION": 1,
            "NORMAL": 2,
            "COLOR_0": 3
          }
        }
      ]
    }
  ],
  "nodes": [
    {
      "children": [
        1
      ]
    },
    {
      "mesh": 0
    }
  ],
  "scenes": [
    {
      "nodes": [
        0
      ]
    }
  ],
  "scene": 0
}