{
  "asset": {
    "version": "2.0",
    "generator": "COLLADA2GLTF"
  },
  "accessors": [
    {
      "bufferView": 0,
      "byteOffset": 0,
      "componentType": 5123,
      "count": 4146,
      "min": [
        0
      ],
      "max": [
        1911
      ],
      "type": "SCALAR"
    },
    {
      "bufferView": 1,
      "byteOffset": 0,
      "componentType": 5126,
      "count": 1912,
      "max": [
        598.064453125,
        0.0010000000474974513,
        510
      ],
      "min": [
        -0.5527275204658508,
        0,
        -90
      ],
      "type": "VEC3"
    },
    {
      "bufferView": 2,
      "byteOffset": 0,
      "componentType": 5126,
      "count": 1912,
      "max": [
        0.9999685287475586,
        1,
        0.9999564290046692
      ],
      "min": [
        -0.9999621510505676,
        -1,
        -0.9999565482139587
      ],
      "type": "VEC3"
    },
    {
      "bufferView": 3,
      "byteOffset": 0,
      "componentType": 5126,
      "count": 1912,
      "max": [
        0.999786376953125,
        1,
        1
      ],
      "min": [
        0,
        0.00003051804378628731,
        0.00004577706567943096
      ],
      "type": "VEC3"
    }
  ],
  "buffers": [
    {
      "byteLength": 8292,
      "uri": "data:application/octet-stream;base64,"
    },
    {
      "byteLength": 22944,
      "uri": "data:application/octet-stream;base64,"
    },
    {
      "byteLength": 22944,
      "uri": "data:application/octet-stream;base64,"
    },
    {
      "byteLength": 22944,
      "uri": "data:application/octet-stream;base64,"
    }
  ],
  "bufferViews": [
    {
      "buffer": 0,
      "byteOffset": 0,
      "byteLength": 8292
    },
    {
      "buffer": 1,
      "byteOffset": 0,
      "byteLength": 22944
    },
    {
      "buffer": 2,
      "byteOffset": 0,
      "byteLength": 22944
    },
    {
      "buffer": 3,
      "byteOffset": 0,
      "byteLength": 22944
    }
  ],
  "meshes": [
    {
      "primitives": [
        {
          "mode": 4,
          "indices": 0,
          "attributes": {
            "POSITION": 1,
            "NORMAL": 2,
            "COLOR_0": 3
          }
        }
      ]
    }
  ],
  "nodes": [
    {
      "children": [
        1
      ]
    },
    {
      "mesh": 0
    }
  ],
  "scenes": [
    {
      "nodes": [
        0
      ]
    }
  ],
  "scene": 0
}