{
  "asset": {
    "version": "2.0",
    "generator": "COLLADA2GLTF"
  },
  "accessors": [
    {
      "bufferView": 0,
      "byteOffset": 0,
      "componentType": 5123,
      "count": 159,
      "min": [
        0
      ],
      "max": [
        104
      ],
      "type": "SCALAR"
    },
    {
      "bufferView": 1,
      "byteOffset": 0,
      "componentType": 5126,
      "count": 105,
      "max": [
        -776.135986328125,
        7.5,
        530.8189697265625
      ],
      "min": [
        -872.0889892578125,
        7.5,
        321.197998046875
      ],
      "type": "VEC3"
    },
    {
      "bufferView": 2,
      "byteOffset": 0,
      "componentType": 5126,
      "count": 105,
      "max": [
        0.9501355886459351,
        1,
        0.8286812901496887
      ],
      "min": [
        -0.8287869095802307,
        0,
        -0.8283880352973938
      ],
      "type": "VEC3"
    },
    {
      "bufferView": 3,
      "byteOffset": 0,
      "componentType": 5126,
      "count": 105,
      "max": [
        0.999786376953125,
        0.7875181436538696,
        0.26330968737602234
      ],
      "min": [
        0.6036774516105652,
        0.00003051804378628731,
        0
      ],
      "type": "VEC3"
    }
  ],
  "buffers": [
    {
      "byteLength": 318,
      "uri": "data:application/octet-stream;base64,"
    },
    {
      "byteLength": 1260,
      "uri": "data:application/octet-stream;base64,"
    },
    {
      "byteLength": 1260,
      "uri": "data:application/octet-stream;base64,"
    },
    {
      "byteLength": 1260,
      "uri": "data:application/octet-stream;base64,"
    }
  ],
  "bufferViews": [
    {
      "buffer": 0,
      "byteOffset": 0,
      "byteLength": 318
    },
    {
      "buffer": 1,
      "byteOffset": 0,
      "byteLength": 1260
    },
    {
      "buffer": 2,
      "byteOffset": 0,
      "byteLength": 1260
    },
    {
      "buffer": 3,
      "byteOffset": 0,
      "byteLength": 1260
    }
  ],
  "meshes": [
    {
      "primitives": [
        {
          "mode": 4,
          "indices": 0,
          "attributes": {
            "POSITION": 1,
            "NORMAL": 2,
            "COLOR_0": 3
          }
        }
      ]
    }
  ],
  "nodes": [
    {
      "children": [
        1
      ]
    },
    {
      "mesh": 0
    }
  ],
  "scenes": [
    {
      "nodes": [
        0
      ]
    }
  ],
  "scene": 0
}