{
  "asset": {
    "version": "2.0",
    "generator": "COLLADA2GLTF"
  },
  "accessors": [
    {
      "bufferView": 0,
      "byteOffset": 0,
      "componentType": 5123,
      "count": 3783,
      "min": [
        0
      ],
      "max": [
        1628
      ],
      "type": "SCALAR"
    },
    {
      "bufferView": 1,
      "byteOffset": 0,
      "componentType": 5126,
      "count": 1629,
      "max": [
        -357.8330078125,
        7.5,
        765.1259765625
      ],
      "min": [
        -1295.3260498046875,
        0,
        -1416.8349609375
      ],
      "type": "VEC3"
    },
    {
      "bufferView": 2,
      "byteOffset": 0,
      "componentType": 5126,
      "count": 1629,
      "max": [
        0.9976686835289001,
        1,
        0.997613787651062
      ],
      "min": [
        -0.9976620078086853,
        0,
        -0.9976146817207336
      ],
      "type": "VEC3"
    },
    {
      "bufferView": 3,
      "byteOffset": 0,
      "componentType": 5126,
      "count": 1629,
      "max": [
        0.999786376953125,
        1,
        1
      ],
      "min": [
        0,
        0.00003051804378628731,
        0.00004577706567943096
      ],
      "type": "VEC3"
    }
  ],
  "buffers": [
    {
      "byteLength": 7566,
      "uri": "data:application/octet-stream;base64,"
    },
    {
      "byteLength": 19548,
      "uri": "data:application/octet-stream;base64,"
    },
    {
      "byteLength": 19548,
      "uri": "data:application/octet-stream;base64,"
    },
    {
      "byteLength": 19548,
      "uri": "data:application/octet-stream;base64,"
    }
  ],
  "bufferViews": [
    {
      "buffer": 0,
      "byteOffset": 0,
      "byteLength": 7566
    },
    {
      "buffer": 1,
      "byteOffset": 0,
      "byteLength": 19548
    },
    {
      "buffer": 2,
      "byteOffset": 0,
      "byteLength": 19548
    },
    {
      "buffer": 3,
      "byteOffset": 0,
      "byteLength": 19548
    }
  ],
  "meshes": [
    {
      "primitives": [
        {
          "mode": 4,
          "indices": 0,
          "attributes": {
            "POSITION": 1,
            "NORMAL": 2,
            "COLOR_0": 3
          }
        }
      ]
    }
  ],
  "nodes": [
    {
      "children": [
        1
      ]
    },
    {
      "mesh": 0
    }
  ],
  "scenes": [
    {
      "nodes": [
        0
      ]
    }
  ],
  "scene": 0
}