{
  "asset": {
    "version": "2.0",
    "generator": "COLLADA2GLTF"
  },
  "accessors": [
    {
      "bufferView": 0,
      "byteOffset": 0,
      "componentType": 5123,
      "count": 1596,
      "min": [
        0
      ],
      "max": [
        734
      ],
      "type": "SCALAR"
    },
    {
      "bufferView": 1,
      "byteOffset": 0,
      "componentType": 5126,
      "count": 735,
      "max": [
        180,
        7.5,
        -181.47325134277344
      ],
      "min": [
        -25.343700408935547,
        0,
        -400.46331787109375
      ],
      "type": "VEC3"
    },
    {
      "bufferView": 2,
      "byteOffset": 0,
      "componentType": 5126,
      "count": 735,
      "max": [
        1,
        1,
        1
      ],
      "min": [
        -1,
        -1,
        -1
      ],
      "type": "VEC3"
    },
    {
      "bufferView": 3,
      "byteOffset": 0,
      "componentType": 5126,
      "count": 735,
      "max": [
        0.999786376953125,
        1,
        0.7875028848648071
      ],
      "min": [
        0.000015259021893143654,
        0.07324330508708954,
        0.00004577706567943096
      ],
      "type": "VEC3"
    }
  ],
  "buffers": [
    {
      "byteLength": 3192,
      "uri": "data:application/octet-stream;base64,"
    },
    {
      "byteLength": 8820,
      "uri": "data:application/octet-stream;base64,"
    },
    {
      "byteLength": 8820,
      "uri": "data:application/octet-stream;base64,"
    },
    {
      "byteLength": 8820,
      "uri": "data:application/octet-stream;base64,"
    }
  ],
  "bufferViews": [
    {
      "buffer": 0,
      "byteOffset": 0,
      "byteLength": 3192
    },
    {
      "buffer": 1,
      "byteOffset": 0,
      "byteLength": 8820
    },
    {
      "buffer": 2,
      "byteOffset": 0,
      "byteLength": 8820
    },
    {
      "buffer": 3,
      "byteOffset": 0,
      "byteLength": 8820
    }
  ],
  "meshes": [
    {
      "primitives": [
        {
          "mode": 4,
          "indices": 0,
          "attributes": {
            "POSITION": 1,
            "NORMAL": 2,
            "COLOR_0": 3
          }
        }
      ]
    }
  ],
  "nodes": [
    {
      "children": [
        1
      ]
    },
    {
      "mesh": 0
    }
  ],
  "scenes": [
    {
      "nodes": [
        0
      ]
    }
  ],
  "scene": 0
}