{
  "asset": {
    "version": "2.0",
    "generator": "COLLADA2GLTF"
  },
  "accessors": [
    {
      "bufferView": 0,
      "byteOffset": 0,
      "componentType": 5123,
      "count": 3189,
      "min": [
        0
      ],
      "max": [
        1326
      ],
      "type": "SCALAR"
    },
    {
      "bufferView": 1,
      "byteOffset": 0,
      "componentType": 5126,
      "count": 1327,
      "max": [
        572.9380493164062,
        7.5,
        993.962890625
      ],
      "min": [
        231.4671173095703,
        0,
        421.9618225097656
      ],
      "type": "VEC3"
    },
    {
      "bufferView": 2,
      "byteOffset": 0,
      "componentType": 5126,
      "count": 1327,
      "max": [
        0.9995545148849487,
        1,
        0.9996222853660583
      ],
      "min": [
        -0.9996247887611389,
        0,
        -0.9997996687889099
      ],
      "type": "VEC3"
    },
    {
      "bufferView": 3,
      "byteOffset": 0,
      "componentType": 5126,
      "count": 1327,
      "max": [
        0.999786376953125,
        1,
        1
      ],
      "min": [
        0,
        0.00003051804378628731,
        0.00004577706567943096
      ],
      "type": "VEC3"
    }
  ],
  "buffers": [
    {
      "byteLength": 6378,
      "uri": "data:application/octet-stream;base64,"
    },
    {
      "byteLength": 15924,
      "uri": "data:application/octet-stream;base64,"
    },
    {
      "byteLength": 15924,
      "uri": "data:application/octet-stream;base64,"
    },
    {
      "byteLength": 15924,
      "uri": "data:application/octet-stream;base64,"
    }
  ],
  "bufferViews": [
    {
      "buffer": 0,
      "byteOffset": 0,
      "byteLength": 6378
    },
    {
      "buffer": 1,
      "byteOffset": 0,
      "byteLength": 15924
    },
    {
      "buffer": 2,
      "byteOffset": 0,
      "byteLength": 15924
    },
    {
      "buffer": 3,
      "byteOffset": 0,
      "byteLength": 15924
    }
  ],
  "meshes": [
    {
      "primitives": [
        {
          "mode": 4,
          "indices": 0,
          "attributes": {
            "POSITION": 1,
            "NORMAL": 2,
            "COLOR_0": 3
          }
        }
      ]
    }
  ],
  "nodes": [
    {
      "children": [
        1
      ]
    },
    {
      "mesh": 0
    }
  ],
  "scenes": [
    {
      "nodes": [
        0
      ]
    }
  ],
  "scene": 0
}