{
  "asset": {
    "version": "2.0",
    "generator": "COLLADA2GLTF"
  },
  "accessors": [
    {
      "bufferView": 0,
      "byteOffset": 0,
      "componentType": 5123,
      "count": 2232,
      "min": [
        0
      ],
      "max": [
        947
      ],
      "type": "SCALAR"
    },
    {
      "bufferView": 1,
      "byteOffset": 0,
      "componentType": 5126,
      "count": 948,
      "max": [
        -322.42401123046875,
        0,
        1608.0880126953125
      ],
      "min": [
        -1617.4219970703125,
        0,
        -1982.9189453125
      ],
      "type": "VEC3"
    },
    {
      "bufferView": 2,
      "byteOffset": 0,
      "componentType": 5126,
      "count": 948,
      "max": [
        0.9811093807220459,
        1,
        0.9810231924057007
      ],
      "min": [
        -0.9811093807220459,
        0,
        -0.9810231924057007
      ],
      "type": "VEC3"
    },
    {
      "bufferView": 3,
      "byteOffset": 0,
      "componentType": 5126,
      "count": 948,
      "max": [
        0.999786376953125,
        1,
        1
      ],
      "min": [
        0,
        0.00003051804378628731,
        0.00004577706567943096
      ],
      "type": "VEC3"
    }
  ],
  "buffers": [
    {
      "byteLength": 4464,
      "uri": "data:application/octet-stream;base64,"
    },
    {
      "byteLength": 11376,
      "uri": "data:application/octet-stream;base64,"
    },
    {
      "byteLength": 11376,
      "uri": "data:application/octet-stream;base64,"
    },
    {
      "byteLength": 11376,
      "uri": "data:application/octet-stream;base64,"
    }
  ],
  "bufferViews": [
    {
      "buffer": 0,
      "byteOffset": 0,
      "byteLength": 4464
    },
    {
      "buffer": 1,
      "byteOffset": 0,
      "byteLength": 11376
    },
    {
      "buffer": 2,
      "byteOffset": 0,
      "byteLength": 11376
    },
    {
      "buffer": 3,
      "byteOffset": 0,
      "byteLength": 11376
    }
  ],
  "meshes": [
    {
      "primitives": [
        {
          "mode": 4,
          "indices": 0,
          "attributes": {
            "POSITION": 1,
            "NORMAL": 2,
            "COLOR_0": 3
          }
        }
      ]
    }
  ],
  "nodes": [
    {
      "children": [
        1
      ]
    },
    {
      "mesh": 0
    }
  ],
  "scenes": [
    {
      "nodes": [
        0
      ]
    }
  ],
  "scene": 0
}