{
  "asset": {
    "version": "2.0",
    "generator": "COLLADA2GLTF"
  },
  "accessors": [
    {
      "bufferView": 0,
      "byteOffset": 0,
      "componentType": 5123,
      "count": 1473,
      "min": [
        0
      ],
      "max": [
        638
      ],
      "type": "SCALAR"
    },
    {
      "bufferView": 1,
      "byteOffset": 0,
      "componentType": 5126,
      "count": 639,
      "max": [
        30.346153259277344,
        0,
        446.5859680175781
      ],
      "min": [
        -427.35284423828125,
        0,
        -35.052303314208984
      ],
      "type": "VEC3"
    },
    {
      "bufferView": 2,
      "byteOffset": 0,
      "componentType": 5126,
      "count": 639,
      "max": [
        0.8829026818275452,
        1,
        0.9000805020332336
      ],
      "min": [
        -0.894390881061554,
        0,
        -0.8918473720550537
      ],
      "type": "VEC3"
    },
    {
      "bufferView": 3,
      "byteOffset": 0,
      "componentType": 5126,
      "count": 639,
      "max": [
        0.999786376953125,
        1,
        0.7875028848648071
      ],
      "min": [
        0.000015259021893143654,
        0.07324330508708954,
        0.00004577706567943096
      ],
      "type": "VEC3"
    }
  ],
  "buffers": [
    {
      "byteLength": 2946,
      "uri": "data:application/octet-stream;base64,"
    },
    {
      "byteLength": 7668,
      "uri": "data:application/octet-stream;base64,"
    },
    {
      "byteLength": 7668,
      "uri": "data:application/octet-stream;base64,"
    },
    {
      "byteLength": 7668,
      "uri": "data:application/octet-stream;base64,"
    }
  ],
  "bufferViews": [
    {
      "buffer": 0,
      "byteOffset": 0,
      "byteLength": 2946
    },
    {
      "buffer": 1,
      "byteOffset": 0,
      "byteLength": 7668
    },
    {
      "buffer": 2,
      "byteOffset": 0,
      "byteLength": 7668
    },
    {
      "buffer": 3,
      "byteOffset": 0,
      "byteLength": 7668
    }
  ],
  "meshes": [
    {
      "primitives": [
        {
          "mode": 4,
          "indices": 0,
          "attributes": {
            "POSITION": 1,
            "NORMAL": 2,
            "COLOR_0": 3
          }
        }
      ]
    }
  ],
  "nodes": [
    {
      "children": [
        1
      ]
    },
    {
      "mesh": 0
    }
  ],
  "scenes": [
    {
      "nodes": [
        0
      ]
    }
  ],
  "scene": 0
}