{
  "asset": {
    "version": "2.0",
    "generator": "COLLADA2GLTF"
  },
  "accessors": [
    {
      "bufferView": 0,
      "byteOffset": 0,
      "componentType": 5123,
      "count": 1725,
      "min": [
        0
      ],
      "max": [
        1012
      ],
      "type": "SCALAR"
    },
    {
      "bufferView": 1,
      "byteOffset": 0,
      "componentType": 5126,
      "count": 1013,
      "max": [
        588.0377807617188,
        0.0010000000474974513,
        449.3045654296875
      ],
      "min": [
        324.1003112792969,
        0,
        -0.45383545756340027
      ],
      "type": "VEC3"
    },
    {
      "bufferView": 2,
      "byteOffset": 0,
      "componentType": 5126,
      "count": 1013,
      "max": [
        0.9999971389770508,
        1,
        0.9999977350234985
      ],
      "min": [
        -1,
        0,
        -0.9999977350234985
      ],
      "type": "VEC3"
    },
    {
      "bufferView": 3,
      "byteOffset": 0,
      "componentType": 5126,
      "count": 1013,
      "max": [
        0.999786376953125,
        1,
        1
      ],
      "min": [
        0,
        0.00003051804378628731,
        0.00004577706567943096
      ],
      "type": "VEC3"
    }
  ],
  "buffers": [
    {
      "byteLength": 3450,
      "uri": "data:application/octet-stream;base64,"
    },
    {
      "byteLength": 12156,
      "uri": "data:application/octet-stream;base64,"
    },
    {
      "byteLength": 12156,
      "uri": "data:application/octet-stream;base64,"
    },
    {
      "byteLength": 12156,
      "uri": "data:application/octet-stream;base64,"
    }
  ],
  "bufferViews": [
    {
      "buffer": 0,
      "byteOffset": 0,
      "byteLength": 3450
    },
    {
      "buffer": 1,
      "byteOffset": 0,
      "byteLength": 12156
    },
    {
      "buffer": 2,
      "byteOffset": 0,
      "byteLength": 12156
    },
    {
      "buffer": 3,
      "byteOffset": 0,
      "byteLength": 12156
    }
  ],
  "meshes": [
    {
      "primitives": [
        {
          "mode": 4,
          "indices": 0,
          "attributes": {
            "POSITION": 1,
            "NORMAL": 2,
            "COLOR_0": 3
          }
        }
      ]
    }
  ],
  "nodes": [
    {
      "children": [
        1
      ]
    },
    {
      "mesh": 0
    }
  ],
  "scenes": [
    {
      "nodes": [
        0
      ]
    }
  ],
  "scene": 0
}