{
  "asset": {
    "version": "2.0",
    "generator": "COLLADA2GLTF"
  },
  "accessors": [
    {
      "bufferView": 0,
      "byteOffset": 0,
      "componentType": 5123,
      "count": 1611,
      "min": [
        0
      ],
      "max": [
        659
      ],
      "type": "SCALAR"
    },
    {
      "bufferView": 1,
      "byteOffset": 0,
      "componentType": 5126,
      "count": 660,
      "max": [
        131.82635498046875,
        12,
        -1487.9090576171875
      ],
      "min": [
        -9.308554649353027,
        7,
        -1621.0135498046875
      ],
      "type": "VEC3"
    },
    {
      "bufferView": 2,
      "byteOffset": 0,
      "componentType": 5126,
      "count": 660,
      "max": [
        0.8143833875656128,
        1,
        0.8143833875656128
      ],
      "min": [
        -0.8192456960678101,
        -0.706218957901001,
        -0.8143833875656128
      ],
      "type": "VEC3"
    },
    {
      "bufferView": 3,
      "byteOffset": 0,
      "componentType": 5126,
      "count": 660,
      "max": [
        0.999786376953125,
        0.7875181436538696,
        0.4480659067630768
      ],
      "min": [
        0,
        0,
        0
      ],
      "type": "VEC3"
    }
  ],
  "buffers": [
    {
      "byteLength": 3222,
      "uri": "data:application/octet-stream;base64,"
    },
    {
      "byteLength": 7920,
      "uri": "data:application/octet-stream;base64,"
    },
    {
      "byteLength": 7920,
      "uri": "data:application/octet-stream;base64,"
    },
    {
      "byteLength": 7920,
      "uri": "data:application/octet-stream;base64,"
    }
  ],
  "bufferViews": [
    {
      "buffer": 0,
      "byteOffset": 0,
      "byteLength": 3222
    },
    {
      "buffer": 1,
      "byteOffset": 0,
      "byteLength": 7920
    },
    {
      "buffer": 2,
      "byteOffset": 0,
      "byteLength": 7920
    },
    {
      "buffer": 3,
      "byteOffset": 0,
      "byteLength": 7920
    }
  ],
  "meshes": [
    {
      "primitives": [
        {
          "mode": 4,
          "indices": 0,
          "attributes": {
            "POSITION": 1,
            "NORMAL": 2,
            "COLOR_0": 3
          }
        }
      ]
    }
  ],
  "nodes": [
    {
      "children": [
        1
      ]
    },
    {
      "mesh": 0
    }
  ],
  "scenes": [
    {
      "nodes": [
        0
      ]
    }
  ],
  "scene": 0
}