{
  "asset": {
    "version": "2.0",
    "generator": "COLLADA2GLTF"
  },
  "accessors": [
    {
      "bufferView": 0,
      "byteOffset": 0,
      "componentType": 5123,
      "count": 1941,
      "min": [
        0
      ],
      "max": [
        704
      ],
      "type": "SCALAR"
    },
    {
      "bufferView": 1,
      "byteOffset": 0,
      "componentType": 5126,
      "count": 705,
      "max": [
        -1618.62841796875,
        0,
        -1025.6986083984375
      ],
      "min": [
        -1666.50830078125,
        -3,
        -1055.216552734375
      ],
      "type": "VEC3"
    },
    {
      "bufferView": 2,
      "byteOffset": 0,
      "componentType": 5126,
      "count": 705,
      "max": [
        0.9999985694885254,
        1,
        0.9999985694885254
      ],
      "min": [
        -0.9999985694885254,
        0,
        -0.9999985694885254
      ],
      "type": "VEC3"
    },
    {
      "bufferView": 3,
      "byteOffset": 0,
      "componentType": 5126,
      "count": 705,
      "max": [
        0.21585412323474884,
        0.21585412323474884,
        0.21589989960193634
      ],
      "min": [
        0.21585412323474884,
        0.21585412323474884,
        0.21589989960193634
      ],
      "type": "VEC3"
    }
  ],
  "buffers": [
    {
      "byteLength": 3882,
      "uri": "data:application/octet-stream;base64,"
    },
    {
      "byteLength": 8460,
      "uri": "data:application/octet-stream;base64,"
    },
    {
      "byteLength": 8460,
      "uri": "data:application/octet-stream;base64,"
    },
    {
      "byteLength": 8460,
      "uri": "data:application/octet-stream;base64,"
    }
  ],
  "bufferViews": [
    {
      "buffer": 0,
      "byteOffset": 0,
      "byteLength": 3882
    },
    {
      "buffer": 1,
      "byteOffset": 0,
      "byteLength": 8460
    },
    {
      "buffer": 2,
      "byteOffset": 0,
      "byteLength": 8460
    },
    {
      "buffer": 3,
      "byteOffset": 0,
      "byteLength": 8460
    }
  ],
  "meshes": [
    {
      "primitives": [
        {
          "mode": 4,
          "indices": 0,
          "attributes": {
            "POSITION": 1,
            "NORMAL": 2,
            "COLOR_0": 3
          }
        }
      ]
    }
  ],
  "nodes": [
    {
      "children": [
        1
      ]
    },
    {
      "mesh": 0
    }
  ],
  "scenes": [
    {
      "nodes": [
        0
      ]
    }
  ],
  "scene": 0
}