{
  "asset": {
    "version": "2.0",
    "generator": "COLLADA2GLTF"
  },
  "accessors": [
    {
      "bufferView": 0,
      "byteOffset": 0,
      "componentType": 5123,
      "count": 294,
      "min": [
        0
      ],
      "max": [
        245
      ],
      "type": "SCALAR"
    },
    {
      "bufferView": 1,
      "byteOffset": 0,
      "componentType": 5126,
      "count": 246,
      "max": [
        -122.56702423095703,
        90,
        302.9429931640625
      ],
      "min": [
        -257.4309387207031,
        0,
        -134.2749786376953
      ],
      "type": "VEC3"
    },
    {
      "bufferView": 2,
      "byteOffset": 0,
      "componentType": 5126,
      "count": 246,
      "max": [
        0.9761723875999451,
        0,
        0.9879629015922546
      ],
      "min": [
        -0.9927302598953247,
        0,
        -0.994083046913147
      ],
      "type": "VEC3"
    },
    {
      "bufferView": 3,
      "byteOffset": 0,
      "componentType": 5126,
      "count": 246,
      "max": [
        0.999786376953125,
        0.7875181436538696,
        0.26330968737602234
      ],
      "min": [
        0.999786376953125,
        0.7875181436538696,
        0.26330968737602234
      ],
      "type": "VEC3"
    }
  ],
  "buffers": [
    {
      "byteLength": 588,
      "uri": "data:application/octet-stream;base64,"
    },
    {
      "byteLength": 2952,
      "uri": "data:application/octet-stream;base64,"
    },
    {
      "byteLength": 2952,
      "uri": "data:application/octet-stream;base64,"
    },
    {
      "byteLength": 2952,
      "uri": "data:application/octet-stream;base64,"
    }
  ],
  "bufferViews": [
    {
      "buffer": 0,
      "byteOffset": 0,
      "byteLength": 588
    },
    {
      "buffer": 1,
      "byteOffset": 0,
      "byteLength": 2952
    },
    {
      "buffer": 2,
      "byteOffset": 0,
      "byteLength": 2952
    },
    {
      "buffer": 3,
      "byteOffset": 0,
      "byteLength": 2952
    }
  ],
  "meshes": [
    {
      "primitives": [
        {
          "mode": 4,
          "indices": 0,
          "attributes": {
            "POSITION": 1,
            "NORMAL": 2,
            "COLOR_0": 3
          }
        }
      ]
    }
  ],
  "nodes": [
    {
      "children": [
        1
      ]
    },
    {
      "mesh": 0
    }
  ],
  "scenes": [
    {
      "nodes": [
        0
      ]
    }
  ],
  "scene": 0
}