{
  "asset": {
    "version": "2.0",
    "generator": "COLLADA2GLTF"
  },
  "accessors": [
    {
      "bufferView": 0,
      "byteOffset": 0,
      "componentType": 5123,
      "count": 2889,
      "min": [
        0
      ],
      "max": [
        1247
      ],
      "type": "SCALAR"
    },
    {
      "bufferView": 1,
      "byteOffset": 0,
      "componentType": 5126,
      "count": 1248,
      "max": [
        1980,
        2.299999952316284,
        1440
      ],
      "min": [
        1590,
        -0.20000000298023224,
        1140
      ],
      "type": "VEC3"
    },
    {
      "bufferView": 2,
      "byteOffset": 0,
      "componentType": 5126,
      "count": 1248,
      "max": [
        0.9999908208847046,
        1,
        1
      ],
      "min": [
        -0.9999908804893494,
        -1,
        -0.9999908208847046
      ],
      "type": "VEC3"
    },
    {
      "bufferView": 3,
      "byteOffset": 0,
      "componentType": 5126,
      "count": 1248,
      "max": [
        0.999786376953125,
        1,
        1
      ],
      "min": [
        0,
        0.00003051804378628731,
        0.00004577706567943096
      ],
      "type": "VEC3"
    }
  ],
  "buffers": [
    {
      "byteLength": 5778,
      "uri": "data:application/octet-stream;base64,"
    },
    {
      "byteLength": 14976,
      "uri": "data:application/octet-stream;base64,"
    },
    {
      "byteLength": 14976,
      "uri": "data:application/octet-stream;base64,"
    },
    {
      "byteLength": 14976,
      "uri": "data:application/octet-stream;base64,"
    }
  ],
  "bufferViews": [
    {
      "buffer": 0,
      "byteOffset": 0,
      "byteLength": 5778
    },
    {
      "buffer": 1,
      "byteOffset": 0,
      "byteLength": 14976
    },
    {
      "buffer": 2,
      "byteOffset": 0,
      "byteLength": 14976
    },
    {
      "buffer": 3,
      "byteOffset": 0,
      "byteLength": 14976
    }
  ],
  "meshes": [
    {
      "primitives": [
        {
          "mode": 4,
          "indices": 0,
          "attributes": {
            "POSITION": 1,
            "NORMAL": 2,
            "COLOR_0": 3
          }
        }
      ]
    }
  ],
  "nodes": [
    {
      "children": [
        1
      ]
    },
    {
      "mesh": 0
    }
  ],
  "scenes": [
    {
      "nodes": [
        0
      ]
    }
  ],
  "scene": 0
}