{
  "asset": {
    "version": "2.0",
    "generator": "COLLADA2GLTF"
  },
  "accessors": [
    {
      "bufferView": 0,
      "byteOffset": 0,
      "componentType": 5123,
      "count": 1698,
      "min": [
        0
      ],
      "max": [
        677
      ],
      "type": "SCALAR"
    },
    {
      "bufferView": 1,
      "byteOffset": 0,
      "componentType": 5126,
      "count": 678,
      "max": [
        711.239013671875,
        0.0010000000474974513,
        3925.574951171875
      ],
      "min": [
        -1252.738037109375,
        0,
        -4258.80615234375
      ],
      "type": "VEC3"
    },
    {
      "bufferView": 2,
      "byteOffset": 0,
      "componentType": 5126,
      "count": 678,
      "max": [
        0,
        1,
        0
      ],
      "min": [
        0,
        1,
        0
      ],
      "type": "VEC3"
    },
    {
      "bufferView": 3,
      "byteOffset": 0,
      "componentType": 5126,
      "count": 678,
      "max": [
        0.7872740030288696,
        1,
        1
      ],
      "min": [
        0,
        0.00003051804378628731,
        0.00004577706567943096
      ],
      "type": "VEC3"
    }
  ],
  "buffers": [
    {
      "byteLength": 3396,
      "uri": "data:application/octet-stream;base64,"
    },
    {
      "byteLength": 8136,
      "uri": "data:application/octet-stream;base64,"
    },
    {
      "byteLength": 8136,
      "uri": "data:application/octet-stream;base64,"
    },
    {
      "byteLength": 8136,
      "uri": "data:application/octet-stream;base64,"
    }
  ],
  "bufferViews": [
    {
      "buffer": 0,
      "byteOffset": 0,
      "byteLength": 3396
    },
    {
      "buffer": 1,
      "byteOffset": 0,
      "byteLength": 8136
    },
    {
      "buffer": 2,
      "byteOffset": 0,
      "byteLength": 8136
    },
    {
      "buffer": 3,
      "byteOffset": 0,
      "byteLength": 8136
    }
  ],
  "meshes": [
    {
      "primitives": [
        {
          "mode": 4,
          "indices": 0,
          "attributes": {
            "POSITION": 1,
            "NORMAL": 2,
            "COLOR_0": 3
          }
        }
      ]
    }
  ],
  "nodes": [
    {
      "children": [
        1
      ]
    },
    {
      "mesh": 0
    }
  ],
  "scenes": [
    {
      "nodes": [
        0
      ]
    }
  ],
  "scene": 0
}