{
  "asset": {
    "version": "2.0",
    "generator": "COLLADA2GLTF"
  },
  "accessors": [
    {
      "bufferView": 0,
      "byteOffset": 0,
      "componentType": 5123,
      "count": 4875,
      "min": [
        0
      ],
      "max": [
        2656
      ],
      "type": "SCALAR"
    },
    {
      "bufferView": 1,
      "byteOffset": 0,
      "componentType": 5126,
      "count": 2657,
      "max": [
        19.527000427246094,
        1.0700000524520874,
        63.90800094604492
      ],
      "min": [
        -48.16899871826172,
        -0.20000000298023224,
        -105.26399993896484
      ],
      "type": "VEC3"
    },
    {
      "bufferView": 2,
      "byteOffset": 0,
      "componentType": 5126,
      "count": 2657,
      "max": [
        0.9848077297210693,
        1,
        1
      ],
      "min": [
        -0.9848077297210693,
        -1,
        -0.9396926164627075
      ],
      "type": "VEC3"
    },
    {
      "bufferView": 3,
      "byteOffset": 0,
      "componentType": 5126,
      "count": 2657,
      "max": [
        0.7872740030288696,
        1,
        1
      ],
      "min": [
        0,
        0.00003051804378628731,
        0.00004577706567943096
      ],
      "type": "VEC3"
    }
  ],
  "buffers": [
    {
      "byteLength": 9750,
      "uri": "data:application/octet-stream;base64,"
    },
    {
      "byteLength": 31884,
      "uri": "data:application/octet-stream;base64,"
    },
    {
      "byteLength": 31884,
      "uri": "data:application/octet-stream;base64,"
    },
    {
      "byteLength": 31884,
      "uri": "data:application/octet-stream;base64,"
    }
  ],
  "bufferViews": [
    {
      "buffer": 0,
      "byteOffset": 0,
      "byteLength": 9750
    },
    {
      "buffer": 1,
      "byteOffset": 0,
      "byteLength": 31884
    },
    {
      "buffer": 2,
      "byteOffset": 0,
      "byteLength": 31884
    },
    {
      "buffer": 3,
      "byteOffset": 0,
      "byteLength": 31884
    }
  ],
  "meshes": [
    {
      "primitives": [
        {
          "mode": 4,
          "indices": 0,
          "attributes": {
            "POSITION": 1,
            "NORMAL": 2,
            "COLOR_0": 3
          }
        }
      ]
    }
  ],
  "nodes": [
    {
      "children": [
        1
      ]
    },
    {
      "mesh": 0
    }
  ],
  "scenes": [
    {
      "nodes": [
        0
      ]
    }
  ],
  "scene": 0
}