{
  "asset": {
    "version": "2.0",
    "generator": "COLLADA2GLTF"
  },
  "accessors": [
    {
      "bufferView": 0,
      "byteOffset": 0,
      "componentType": 5123,
      "count": 1323,
      "min": [
        0
      ],
      "max": [
        583
      ],
      "type": "SCALAR"
    },
    {
      "bufferView": 1,
      "byteOffset": 0,
      "componentType": 5126,
      "count": 584,
      "max": [
        3004.017822265625,
        0,
        1190.286376953125
      ],
      "min": [
        2633.673095703125,
        0,
        870
      ],
      "type": "VEC3"
    },
    {
      "bufferView": 2,
      "byteOffset": 0,
      "componentType": 5126,
      "count": 584,
      "max": [
        0,
        1,
        0
      ],
      "min": [
        0,
        1,
        0
      ],
      "type": "VEC3"
    },
    {
      "bufferView": 3,
      "byteOffset": 0,
      "componentType": 5126,
      "count": 584,
      "max": [
        0.07322804629802704,
        1,
        1
      ],
      "min": [
        0,
        0.00003051804378628731,
        0.00004577706567943096
      ],
      "type": "VEC3"
    }
  ],
  "buffers": [
    {
      "byteLength": 2646,
      "uri": "data:application/octet-stream;base64,"
    },
    {
      "byteLength": 7008,
      "uri": "data:application/octet-stream;base64,"
    },
    {
      "byteLength": 7008,
      "uri": "data:application/octet-stream;base64,"
    },
    {
      "byteLength": 7008,
      "uri": "data:application/octet-stream;base64,"
    }
  ],
  "bufferViews": [
    {
      "buffer": 0,
      "byteOffset": 0,
      "byteLength": 2646
    },
    {
      "buffer": 1,
      "byteOffset": 0,
      "byteLength": 7008
    },
    {
      "buffer": 2,
      "byteOffset": 0,
      "byteLength": 7008
    },
    {
      "buffer": 3,
      "byteOffset": 0,
      "byteLength": 7008
    }
  ],
  "meshes": [
    {
      "primitives": [
        {
          "mode": 4,
          "indices": 0,
          "attributes": {
            "POSITION": 1,
            "NORMAL": 2,
            "COLOR_0": 3
          }
        }
      ]
    }
  ],
  "nodes": [
    {
      "children": [
        1
      ]
    },
    {
      "mesh": 0
    }
  ],
  "scenes": [
    {
      "nodes": [
        0
      ]
    }
  ],
  "scene": 0
}