{
  "asset": {
    "version": "2.0",
    "generator": "COLLADA2GLTF"
  },
  "accessors": [
    {
      "bufferView": 0,
      "byteOffset": 0,
      "componentType": 5123,
      "count": 399,
      "min": [
        0
      ],
      "max": [
        158
      ],
      "type": "SCALAR"
    },
    {
      "bufferView": 1,
      "byteOffset": 0,
      "componentType": 5126,
      "count": 159,
      "max": [
        1679.61669921875,
        0,
        273.5657653808594
      ],
      "min": [
        1607.661376953125,
        -3,
        251.73597717285156
      ],
      "type": "VEC3"
    },
    {
      "bufferView": 2,
      "byteOffset": 0,
      "componentType": 5126,
      "count": 159,
      "max": [
        0.979300856590271,
        1,
        0.9793604612350464
      ],
      "min": [
        -0.979300856590271,
        -1,
        -0.979300856590271
      ],
      "type": "VEC3"
    },
    {
      "bufferView": 3,
      "byteOffset": 0,
      "componentType": 5126,
      "count": 159,
      "max": [
        0.21585412323474884,
        0.21585412323474884,
        0.21589989960193634
      ],
      "min": [
        0.21585412323474884,
        0.21585412323474884,
        0.21589989960193634
      ],
      "type": "VEC3"
    }
  ],
  "buffers": [
    {
      "byteLength": 798,
      "uri": "data:application/octet-stream;base64,"
    },
    {
      "byteLength": 1908,
      "uri": "data:application/octet-stream;base64,"
    },
    {
      "byteLength": 1908,
      "uri": "data:application/octet-stream;base64,"
    },
    {
      "byteLength": 1908,
      "uri": "data:application/octet-stream;base64,"
    }
  ],
  "bufferViews": [
    {
      "buffer": 0,
      "byteOffset": 0,
      "byteLength": 798
    },
    {
      "buffer": 1,
      "byteOffset": 0,
      "byteLength": 1908
    },
    {
      "buffer": 2,
      "byteOffset": 0,
      "byteLength": 1908
    },
    {
      "buffer": 3,
      "byteOffset": 0,
      "byteLength": 1908
    }
  ],
  "meshes": [
    {
      "primitives": [
        {
          "mode": 4,
          "indices": 0,
          "attributes": {
            "POSITION": 1,
            "NORMAL": 2,
            "COLOR_0": 3
          }
        }
      ]
    }
  ],
  "nodes": [
    {
      "children": [
        1
      ]
    },
    {
      "mesh": 0
    }
  ],
  "scenes": [
    {
      "nodes": [
        0
      ]
    }
  ],
  "scene": 0
}