{
  "asset": {
    "version": "2.0",
    "generator": "COLLADA2GLTF"
  },
  "accessors": [
    {
      "bufferView": 0,
      "byteOffset": 0,
      "componentType": 5123,
      "count": 2736,
      "min": [
        0
      ],
      "max": [
        1163
      ],
      "type": "SCALAR"
    },
    {
      "bufferView": 1,
      "byteOffset": 0,
      "componentType": 5126,
      "count": 1164,
      "max": [
        2285.775146484375,
        2.5,
        -1531.304443359375
      ],
      "min": [
        1984.754150390625,
        -0.20000000298023224,
        -1860
      ],
      "type": "VEC3"
    },
    {
      "bufferView": 2,
      "byteOffset": 0,
      "componentType": 5126,
      "count": 1164,
      "max": [
        0.9898214340209961,
        1,
        1
      ],
      "min": [
        -0.9898214340209961,
        -1,
        -0.9594929814338684
      ],
      "type": "VEC3"
    },
    {
      "bufferView": 3,
      "byteOffset": 0,
      "componentType": 5126,
      "count": 1164,
      "max": [
        0.999786376953125,
        1,
        0.7875028848648071
      ],
      "min": [
        0.000015259021893143654,
        0.07324330508708954,
        0.00004577706567943096
      ],
      "type": "VEC3"
    }
  ],
  "buffers": [
    {
      "byteLength": 5472,
      "uri": "data:application/octet-stream;base64,"
    },
    {
      "byteLength": 13968,
      "uri": "data:application/octet-stream;base64,"
    },
    {
      "byteLength": 13968,
      "uri": "data:application/octet-stream;base64,"
    },
    {
      "byteLength": 13968,
      "uri": "data:application/octet-stream;base64,"
    }
  ],
  "bufferViews": [
    {
      "buffer": 0,
      "byteOffset": 0,
      "byteLength": 5472
    },
    {
      "buffer": 1,
      "byteOffset": 0,
      "byteLength": 13968
    },
    {
      "buffer": 2,
      "byteOffset": 0,
      "byteLength": 13968
    },
    {
      "buffer": 3,
      "byteOffset": 0,
      "byteLength": 13968
    }
  ],
  "meshes": [
    {
      "primitives": [
        {
          "mode": 4,
          "indices": 0,
          "attributes": {
            "POSITION": 1,
            "NORMAL": 2,
            "COLOR_0": 3
          }
        }
      ]
    }
  ],
  "nodes": [
    {
      "children": [
        1
      ]
    },
    {
      "mesh": 0
    }
  ],
  "scenes": [
    {
      "nodes": [
        0
      ]
    }
  ],
  "scene": 0
}