{
  "asset": {
    "version": "2.0",
    "generator": "COLLADA2GLTF"
  },
  "accessors": [
    {
      "bufferView": 0,
      "byteOffset": 0,
      "componentType": 5123,
      "count": 4767,
      "min": [
        0
      ],
      "max": [
        1822
      ],
      "type": "SCALAR"
    },
    {
      "bufferView": 1,
      "byteOffset": 0,
      "componentType": 5126,
      "count": 1823,
      "max": [
        -2063.27392578125,
        17.165000915527344,
        1380.1512451171875
      ],
      "min": [
        -2490.345458984375,
        12,
        1295.3648681640625
      ],
      "type": "VEC3"
    },
    {
      "bufferView": 2,
      "byteOffset": 0,
      "componentType": 5126,
      "count": 1823,
      "max": [
        0.9947241544723511,
        0.7070947289466858,
        0.9947241544723511
      ],
      "min": [
        -0.9947241544723511,
        -0.7070947289466858,
        -0.9947241544723511
      ],
      "type": "VEC3"
    },
    {
      "bufferView": 3,
      "byteOffset": 0,
      "componentType": 5126,
      "count": 1823,
      "max": [
        0.4480048716068268,
        0.4480048716068268,
        0.4480659067630768
      ],
      "min": [
        0,
        0,
        0
      ],
      "type": "VEC3"
    }
  ],
  "buffers": [
    {
      "byteLength": 9534,
      "uri": "data:application/octet-stream;base64,"
    },
    {
      "byteLength": 21876,
      "uri": "data:application/octet-stream;base64,"
    },
    {
      "byteLength": 21876,
      "uri": "data:application/octet-stream;base64,"
    },
    {
      "byteLength": 21876,
      "uri": "data:application/octet-stream;base64,"
    }
  ],
  "bufferViews": [
    {
      "buffer": 0,
      "byteOffset": 0,
      "byteLength": 9534
    },
    {
      "buffer": 1,
      "byteOffset": 0,
      "byteLength": 21876
    },
    {
      "buffer": 2,
      "byteOffset": 0,
      "byteLength": 21876
    },
    {
      "buffer": 3,
      "byteOffset": 0,
      "byteLength": 21876
    }
  ],
  "meshes": [
    {
      "primitives": [
        {
          "mode": 4,
          "indices": 0,
          "attributes": {
            "POSITION": 1,
            "NORMAL": 2,
            "COLOR_0": 3
          }
        }
      ]
    }
  ],
  "nodes": [
    {
      "children": [
        1
      ]
    },
    {
      "mesh": 0
    }
  ],
  "scenes": [
    {
      "nodes": [
        0
      ]
    }
  ],
  "scene": 0
}