{
  "asset": {
    "version": "2.0",
    "generator": "COLLADA2GLTF"
  },
  "accessors": [
    {
      "bufferView": 0,
      "byteOffset": 0,
      "componentType": 5123,
      "count": 4425,
      "min": [
        0
      ],
      "max": [
        1600
      ],
      "type": "SCALAR"
    },
    {
      "bufferView": 1,
      "byteOffset": 0,
      "componentType": 5126,
      "count": 1601,
      "max": [
        -2088.448974609375,
        17.165000915527344,
        2204.491455078125
      ],
      "min": [
        -2187.94384765625,
        12,
        1869.2877197265625
      ],
      "type": "VEC3"
    },
    {
      "bufferView": 2,
      "byteOffset": 0,
      "componentType": 5126,
      "count": 1601,
      "max": [
        0.9873355627059937,
        0.7070949077606201,
        0.9873355627059937
      ],
      "min": [
        -0.9873355627059937,
        -0.7070949077606201,
        -0.9873355627059937
      ],
      "type": "VEC3"
    },
    {
      "bufferView": 3,
      "byteOffset": 0,
      "componentType": 5126,
      "count": 1601,
      "max": [
        0.4480048716068268,
        0.4480048716068268,
        0.4480659067630768
      ],
      "min": [
        0,
        0,
        0
      ],
      "type": "VEC3"
    }
  ],
  "buffers": [
    {
      "byteLength": 8850,
      "uri": "data:application/octet-stream;base64,"
    },
    {
      "byteLength": 19212,
      "uri": "data:application/octet-stream;base64,"
    },
    {
      "byteLength": 19212,
      "uri": "data:application/octet-stream;base64,"
    },
    {
      "byteLength": 19212,
      "uri": "data:application/octet-stream;base64,"
    }
  ],
  "bufferViews": [
    {
      "buffer": 0,
      "byteOffset": 0,
      "byteLength": 8850
    },
    {
      "buffer": 1,
      "byteOffset": 0,
      "byteLength": 19212
    },
    {
      "buffer": 2,
      "byteOffset": 0,
      "byteLength": 19212
    },
    {
      "buffer": 3,
      "byteOffset": 0,
      "byteLength": 19212
    }
  ],
  "meshes": [
    {
      "primitives": [
        {
          "mode": 4,
          "indices": 0,
          "attributes": {
            "POSITION": 1,
            "NORMAL": 2,
            "COLOR_0": 3
          }
        }
      ]
    }
  ],
  "nodes": [
    {
      "children": [
        1
      ]
    },
    {
      "mesh": 0
    }
  ],
  "scenes": [
    {
      "nodes": [
        0
      ]
    }
  ],
  "scene": 0
}