{
  "asset": {
    "version": "2.0",
    "generator": "COLLADA2GLTF"
  },
  "accessors": [
    {
      "bufferView": 0,
      "byteOffset": 0,
      "componentType": 5123,
      "count": 297,
      "min": [
        0
      ],
      "max": [
        236
      ],
      "type": "SCALAR"
    },
    {
      "bufferView": 1,
      "byteOffset": 0,
      "componentType": 5126,
      "count": 237,
      "max": [
        -3050.014892578125,
        12.5,
        1375.0068359375
      ],
      "min": [
        -3279.65283203125,
        12.5,
        1296.7099609375
      ],
      "type": "VEC3"
    },
    {
      "bufferView": 2,
      "byteOffset": 0,
      "componentType": 5126,
      "count": 237,
      "max": [
        0.8716757297515869,
        1,
        0.8672298192977905
      ],
      "min": [
        -0.8335374593734741,
        0,
        -0.8660137057304382
      ],
      "type": "VEC3"
    },
    {
      "bufferView": 3,
      "byteOffset": 0,
      "componentType": 5126,
      "count": 237,
      "max": [
        0.999786376953125,
        0.7875181436538696,
        0.26330968737602234
      ],
      "min": [
        0.6036774516105652,
        0.00003051804378628731,
        0
      ],
      "type": "VEC3"
    }
  ],
  "buffers": [
    {
      "byteLength": 594,
      "uri": "data:application/octet-stream;base64,"
    },
    {
      "byteLength": 2844,
      "uri": "data:application/octet-stream;base64,"
    },
    {
      "byteLength": 2844,
      "uri": "data:application/octet-stream;base64,"
    },
    {
      "byteLength": 2844,
      "uri": "data:application/octet-stream;base64,"
    }
  ],
  "bufferViews": [
    {
      "buffer": 0,
      "byteOffset": 0,
      "byteLength": 594
    },
    {
      "buffer": 1,
      "byteOffset": 0,
      "byteLength": 2844
    },
    {
      "buffer": 2,
      "byteOffset": 0,
      "byteLength": 2844
    },
    {
      "buffer": 3,
      "byteOffset": 0,
      "byteLength": 2844
    }
  ],
  "meshes": [
    {
      "primitives": [
        {
          "mode": 4,
          "indices": 0,
          "attributes": {
            "POSITION": 1,
            "NORMAL": 2,
            "COLOR_0": 3
          }
        }
      ]
    }
  ],
  "nodes": [
    {
      "children": [
        1
      ]
    },
    {
      "mesh": 0
    }
  ],
  "scenes": [
    {
      "nodes": [
        0
      ]
    }
  ],
  "scene": 0
}