{
  "asset": {
    "version": "2.0",
    "generator": "COLLADA2GLTF"
  },
  "accessors": [
    {
      "bufferView": 0,
      "byteOffset": 0,
      "componentType": 5123,
      "count": 567,
      "min": [
        0
      ],
      "max": [
        272
      ],
      "type": "SCALAR"
    },
    {
      "bufferView": 1,
      "byteOffset": 0,
      "componentType": 5126,
      "count": 273,
      "max": [
        -570,
        0,
        420.2017822265625
      ],
      "min": [
        -847.7525024414062,
        0,
        133.89501953125
      ],
      "type": "VEC3"
    },
    {
      "bufferView": 2,
      "byteOffset": 0,
      "componentType": 5126,
      "count": 273,
      "max": [
        0.25458940863609314,
        1,
        0.967049241065979
      ],
      "min": [
        -0.9670483469963074,
        0,
        -0.9670653939247131
      ],
      "type": "VEC3"
    },
    {
      "bufferView": 3,
      "byteOffset": 0,
      "componentType": 5126,
      "count": 273,
      "max": [
        0.999786376953125,
        1,
        0.26330968737602234
      ],
      "min": [
        0.000015259021893143654,
        0.07324330508708954,
        0.00004577706567943096
      ],
      "type": "VEC3"
    }
  ],
  "buffers": [
    {
      "byteLength": 1134,
      "uri": "data:application/octet-stream;base64,"
    },
    {
      "byteLength": 3276,
      "uri": "data:application/octet-stream;base64,"
    },
    {
      "byteLength": 3276,
      "uri": "data:application/octet-stream;base64,"
    },
    {
      "byteLength": 3276,
      "uri": "data:application/octet-stream;base64,"
    }
  ],
  "bufferViews": [
    {
      "buffer": 0,
      "byteOffset": 0,
      "byteLength": 1134
    },
    {
      "buffer": 1,
      "byteOffset": 0,
      "byteLength": 3276
    },
    {
      "buffer": 2,
      "byteOffset": 0,
      "byteLength": 3276
    },
    {
      "buffer": 3,
      "byteOffset": 0,
      "byteLength": 3276
    }
  ],
  "meshes": [
    {
      "primitives": [
        {
          "mode": 4,
          "indices": 0,
          "attributes": {
            "POSITION": 1,
            "NORMAL": 2,
            "COLOR_0": 3
          }
        }
      ]
    }
  ],
  "nodes": [
    {
      "children": [
        1
      ]
    },
    {
      "mesh": 0
    }
  ],
  "scenes": [
    {
      "nodes": [
        0
      ]
    }
  ],
  "scene": 0
}