{
  "asset": {
    "version": "2.0",
    "generator": "COLLADA2GLTF"
  },
  "accessors": [
    {
      "bufferView": 0,
      "byteOffset": 0,
      "componentType": 5123,
      "count": 3129,
      "min": [
        0
      ],
      "max": [
        1342
      ],
      "type": "SCALAR"
    },
    {
      "bufferView": 1,
      "byteOffset": 0,
      "componentType": 5126,
      "count": 1343,
      "max": [
        -108.23699951171875,
        0,
        698.3699951171875
      ],
      "min": [
        -838.72900390625,
        0,
        -1079.0770263671875
      ],
      "type": "VEC3"
    },
    {
      "bufferView": 2,
      "byteOffset": 0,
      "componentType": 5126,
      "count": 1343,
      "max": [
        1,
        1,
        1
      ],
      "min": [
        -1,
        -1,
        -1
      ],
      "type": "VEC3"
    },
    {
      "bufferView": 3,
      "byteOffset": 0,
      "componentType": 5126,
      "count": 1343,
      "max": [
        0.999786376953125,
        1,
        1
      ],
      "min": [
        0,
        0.00003051804378628731,
        0.00004577706567943096
      ],
      "type": "VEC3"
    }
  ],
  "buffers": [
    {
      "byteLength": 6258,
      "uri": "data:application/octet-stream;base64,"
    },
    {
      "byteLength": 16116,
      "uri": "data:application/octet-stream;base64,"
    },
    {
      "byteLength": 16116,
      "uri": "data:application/octet-stream;base64,"
    },
    {
      "byteLength": 16116,
      "uri": "data:application/octet-stream;base64,"
    }
  ],
  "bufferViews": [
    {
      "buffer": 0,
      "byteOffset": 0,
      "byteLength": 6258
    },
    {
      "buffer": 1,
      "byteOffset": 0,
      "byteLength": 16116
    },
    {
      "buffer": 2,
      "byteOffset": 0,
      "byteLength": 16116
    },
    {
      "buffer": 3,
      "byteOffset": 0,
      "byteLength": 16116
    }
  ],
  "meshes": [
    {
      "primitives": [
        {
          "mode": 4,
          "indices": 0,
          "attributes": {
            "POSITION": 1,
            "NORMAL": 2,
            "COLOR_0": 3
          }
        }
      ]
    }
  ],
  "nodes": [
    {
      "children": [
        1
      ]
    },
    {
      "mesh": 0
    }
  ],
  "scenes": [
    {
      "nodes": [
        0
      ]
    }
  ],
  "scene": 0
}