{
  "asset": {
    "version": "2.0",
    "generator": "COLLADA2GLTF"
  },
  "accessors": [
    {
      "bufferView": 0,
      "byteOffset": 0,
      "componentType": 5123,
      "count": 1059,
      "min": [
        0
      ],
      "max": [
        676
      ],
      "type": "SCALAR"
    },
    {
      "bufferView": 1,
      "byteOffset": 0,
      "componentType": 5126,
      "count": 677,
      "max": [
        -2723.2822265625,
        75,
        1295.36376953125
      ],
      "min": [
        -3091.5830078125,
        0,
        1007.7991333007812
      ],
      "type": "VEC3"
    },
    {
      "bufferView": 2,
      "byteOffset": 0,
      "componentType": 5126,
      "count": 677,
      "max": [
        0.8564690947532654,
        1,
        0.8917343616485596
      ],
      "min": [
        -0.8489015102386475,
        0,
        -0.8732140064239502
      ],
      "type": "VEC3"
    },
    {
      "bufferView": 3,
      "byteOffset": 0,
      "componentType": 5126,
      "count": 677,
      "max": [
        0.999786376953125,
        0.7875181436538696,
        0.26330968737602234
      ],
      "min": [
        0.6036774516105652,
        0.00003051804378628731,
        0
      ],
      "type": "VEC3"
    }
  ],
  "buffers": [
    {
      "byteLength": 2118,
      "uri": "data:application/octet-stream;base64,"
    },
    {
      "byteLength": 8124,
      "uri": "data:application/octet-stream;base64,"
    },
    {
      "byteLength": 8124,
      "uri": "data:application/octet-stream;base64,"
    },
    {
      "byteLength": 8124,
      "uri": "data:application/octet-stream;base64,"
    }
  ],
  "bufferViews": [
    {
      "buffer": 0,
      "byteOffset": 0,
      "byteLength": 2118
    },
    {
      "buffer": 1,
      "byteOffset": 0,
      "byteLength": 8124
    },
    {
      "buffer": 2,
      "byteOffset": 0,
      "byteLength": 8124
    },
    {
      "buffer": 3,
      "byteOffset": 0,
      "byteLength": 8124
    }
  ],
  "meshes": [
    {
      "primitives": [
        {
          "mode": 4,
          "indices": 0,
          "attributes": {
            "POSITION": 1,
            "NORMAL": 2,
            "COLOR_0": 3
          }
        }
      ]
    }
  ],
  "nodes": [
    {
      "children": [
        1
      ]
    },
    {
      "mesh": 0
    }
  ],
  "scenes": [
    {
      "nodes": [
        0
      ]
    }
  ],
  "scene": 0
}