{
  "asset": {
    "version": "2.0",
    "generator": "COLLADA2GLTF"
  },
  "accessors": [
    {
      "bufferView": 0,
      "byteOffset": 0,
      "componentType": 5123,
      "count": 1680,
      "min": [
        0
      ],
      "max": [
        1099
      ],
      "type": "SCALAR"
    },
    {
      "bufferView": 1,
      "byteOffset": 0,
      "componentType": 5126,
      "count": 1100,
      "max": [
        637.3350219726562,
        7.5,
        526.4769897460938
      ],
      "min": [
        432.2409973144531,
        7.5,
        342.7489929199219
      ],
      "type": "VEC3"
    },
    {
      "bufferView": 2,
      "byteOffset": 0,
      "componentType": 5126,
      "count": 1100,
      "max": [
        0.9994773864746094,
        1,
        0.9997492432594299
      ],
      "min": [
        -0.9994803667068481,
        0,
        -0.9999632239341736
      ],
      "type": "VEC3"
    },
    {
      "bufferView": 3,
      "byteOffset": 0,
      "componentType": 5126,
      "count": 1100,
      "max": [
        0.999786376953125,
        0.7875181436538696,
        0.26330968737602234
      ],
      "min": [
        0.6036774516105652,
        0.00003051804378628731,
        0
      ],
      "type": "VEC3"
    }
  ],
  "buffers": [
    {
      "byteLength": 3360,
      "uri": "data:application/octet-stream;base64,"
    },
    {
      "byteLength": 13200,
      "uri": "data:application/octet-stream;base64,"
    },
    {
      "byteLength": 13200,
      "uri": "data:application/octet-stream;base64,"
    },
    {
      "byteLength": 13200,
      "uri": "data:application/octet-stream;base64,"
    }
  ],
  "bufferViews": [
    {
      "buffer": 0,
      "byteOffset": 0,
      "byteLength": 3360
    },
    {
      "buffer": 1,
      "byteOffset": 0,
      "byteLength": 13200
    },
    {
      "buffer": 2,
      "byteOffset": 0,
      "byteLength": 13200
    },
    {
      "buffer": 3,
      "byteOffset": 0,
      "byteLength": 13200
    }
  ],
  "meshes": [
    {
      "primitives": [
        {
          "mode": 4,
          "indices": 0,
          "attributes": {
            "POSITION": 1,
            "NORMAL": 2,
            "COLOR_0": 3
          }
        }
      ]
    }
  ],
  "nodes": [
    {
      "children": [
        1
      ]
    },
    {
      "mesh": 0
    }
  ],
  "scenes": [
    {
      "nodes": [
        0
      ]
    }
  ],
  "scene": 0
}