{
  "asset": {
    "version": "2.0",
    "generator": "COLLADA2GLTF"
  },
  "accessors": [
    {
      "bufferView": 0,
      "byteOffset": 0,
      "componentType": 5123,
      "count": 3225,
      "min": [
        0
      ],
      "max": [
        1192
      ],
      "type": "SCALAR"
    },
    {
      "bufferView": 1,
      "byteOffset": 0,
      "componentType": 5126,
      "count": 1193,
      "max": [
        6723.80908203125,
        19.5,
        9242.0869140625
      ],
      "min": [
        6060.341796875,
        12,
        8716.2060546875
      ],
      "type": "VEC3"
    },
    {
      "bufferView": 2,
      "byteOffset": 0,
      "componentType": 5126,
      "count": 1193,
      "max": [
        0.790147602558136,
        0.7071017026901245,
        0.790147602558136
      ],
      "min": [
        -0.790147602558136,
        -0.7071009874343872,
        -0.790147602558136
      ],
      "type": "VEC3"
    },
    {
      "bufferView": 3,
      "byteOffset": 0,
      "componentType": 5126,
      "count": 1193,
      "max": [
        0.4480048716068268,
        0.4480048716068268,
        0.4480659067630768
      ],
      "min": [
        0,
        0,
        0
      ],
      "type": "VEC3"
    }
  ],
  "buffers": [
    {
      "byteLength": 6450,
      "uri": "data:application/octet-stream;base64,"
    },
    {
      "byteLength": 14316,
      "uri": "data:application/octet-stream;base64,"
    },
    {
      "byteLength": 14316,
      "uri": "data:application/octet-stream;base64,"
    },
    {
      "byteLength": 14316,
      "uri": "data:application/octet-stream;base64,"
    }
  ],
  "bufferViews": [
    {
      "buffer": 0,
      "byteOffset": 0,
      "byteLength": 6450
    },
    {
      "buffer": 1,
      "byteOffset": 0,
      "byteLength": 14316
    },
    {
      "buffer": 2,
      "byteOffset": 0,
      "byteLength": 14316
    },
    {
      "buffer": 3,
      "byteOffset": 0,
      "byteLength": 14316
    }
  ],
  "meshes": [
    {
      "primitives": [
        {
          "mode": 4,
          "indices": 0,
          "attributes": {
            "POSITION": 1,
            "NORMAL": 2,
            "COLOR_0": 3
          }
        }
      ]
    }
  ],
  "nodes": [
    {
      "children": [
        1
      ]
    },
    {
      "mesh": 0
    }
  ],
  "scenes": [
    {
      "nodes": [
        0
      ]
    }
  ],
  "scene": 0
}