{
  "asset": {
    "version": "2.0",
    "generator": "COLLADA2GLTF"
  },
  "accessors": [
    {
      "bufferView": 0,
      "byteOffset": 0,
      "componentType": 5123,
      "count": 3459,
      "min": [
        0
      ],
      "max": [
        1599
      ],
      "type": "SCALAR"
    },
    {
      "bufferView": 1,
      "byteOffset": 0,
      "componentType": 5126,
      "count": 1600,
      "max": [
        -796.1610107421875,
        0,
        1611.862060546875
      ],
      "min": [
        -1148.197265625,
        0,
        1140
      ],
      "type": "VEC3"
    },
    {
      "bufferView": 2,
      "byteOffset": 0,
      "componentType": 5126,
      "count": 1600,
      "max": [
        0.9829956293106079,
        1,
        0.9999455809593201
      ],
      "min": [
        -0.9997860193252563,
        0,
        -0.9940724968910217
      ],
      "type": "VEC3"
    },
    {
      "bufferView": 3,
      "byteOffset": 0,
      "componentType": 5126,
      "count": 1600,
      "max": [
        0.999786376953125,
        1,
        0.26330968737602234
      ],
      "min": [
        0.000015259021893143654,
        0.07324330508708954,
        0.00004577706567943096
      ],
      "type": "VEC3"
    }
  ],
  "buffers": [
    {
      "byteLength": 6918,
      "uri": "data:application/octet-stream;base64,"
    },
    {
      "byteLength": 19200,
      "uri": "data:application/octet-stream;base64,"
    },
    {
      "byteLength": 19200,
      "uri": "data:application/octet-stream;base64,"
    },
    {
      "byteLength": 19200,
      "uri": "data:application/octet-stream;base64,"
    }
  ],
  "bufferViews": [
    {
      "buffer": 0,
      "byteOffset": 0,
      "byteLength": 6918
    },
    {
      "buffer": 1,
      "byteOffset": 0,
      "byteLength": 19200
    },
    {
      "buffer": 2,
      "byteOffset": 0,
      "byteLength": 19200
    },
    {
      "buffer": 3,
      "byteOffset": 0,
      "byteLength": 19200
    }
  ],
  "meshes": [
    {
      "primitives": [
        {
          "mode": 4,
          "indices": 0,
          "attributes": {
            "POSITION": 1,
            "NORMAL": 2,
            "COLOR_0": 3
          }
        }
      ]
    }
  ],
  "nodes": [
    {
      "children": [
        1
      ]
    },
    {
      "mesh": 0
    }
  ],
  "scenes": [
    {
      "nodes": [
        0
      ]
    }
  ],
  "scene": 0
}