{
  "asset": {
    "version": "2.0",
    "generator": "COLLADA2GLTF"
  },
  "accessors": [
    {
      "bufferView": 0,
      "byteOffset": 0,
      "componentType": 5123,
      "count": 372,
      "min": [
        0
      ],
      "max": [
        216
      ],
      "type": "SCALAR"
    },
    {
      "bufferView": 1,
      "byteOffset": 0,
      "componentType": 5126,
      "count": 217,
      "max": [
        -870,
        7.5,
        986.7099609375
      ],
      "min": [
        -1108.9217529296875,
        0,
        720
      ],
      "type": "VEC3"
    },
    {
      "bufferView": 2,
      "byteOffset": 0,
      "componentType": 5126,
      "count": 217,
      "max": [
        0.8202057480812073,
        1,
        0.8200321793556213
      ],
      "min": [
        -0.8212023973464966,
        0,
        -0.8199036121368408
      ],
      "type": "VEC3"
    },
    {
      "bufferView": 3,
      "byteOffset": 0,
      "componentType": 5126,
      "count": 217,
      "max": [
        0.999786376953125,
        1,
        0.26330968737602234
      ],
      "min": [
        0.000015259021893143654,
        0.07324330508708954,
        0.00004577706567943096
      ],
      "type": "VEC3"
    }
  ],
  "buffers": [
    {
      "byteLength": 744,
      "uri": "data:application/octet-stream;base64,"
    },
    {
      "byteLength": 2604,
      "uri": "data:application/octet-stream;base64,"
    },
    {
      "byteLength": 2604,
      "uri": "data:application/octet-stream;base64,"
    },
    {
      "byteLength": 2604,
      "uri": "data:application/octet-stream;base64,"
    }
  ],
  "bufferViews": [
    {
      "buffer": 0,
      "byteOffset": 0,
      "byteLength": 744
    },
    {
      "buffer": 1,
      "byteOffset": 0,
      "byteLength": 2604
    },
    {
      "buffer": 2,
      "byteOffset": 0,
      "byteLength": 2604
    },
    {
      "buffer": 3,
      "byteOffset": 0,
      "byteLength": 2604
    }
  ],
  "meshes": [
    {
      "primitives": [
        {
          "mode": 4,
          "indices": 0,
          "attributes": {
            "POSITION": 1,
            "NORMAL": 2,
            "COLOR_0": 3
          }
        }
      ]
    }
  ],
  "nodes": [
    {
      "children": [
        1
      ]
    },
    {
      "mesh": 0
    }
  ],
  "scenes": [
    {
      "nodes": [
        0
      ]
    }
  ],
  "scene": 0
}