{
  "asset": {
    "version": "2.0",
    "generator": "COLLADA2GLTF"
  },
  "accessors": [
    {
      "bufferView": 0,
      "byteOffset": 0,
      "componentType": 5123,
      "count": 1791,
      "min": [
        0
      ],
      "max": [
        836
      ],
      "type": "SCALAR"
    },
    {
      "bufferView": 1,
      "byteOffset": 0,
      "componentType": 5126,
      "count": 837,
      "max": [
        6723.80908203125,
        37.025001525878906,
        9242.0869140625
      ],
      "min": [
        5621.50048828125,
        17,
        8378.923828125
      ],
      "type": "VEC3"
    },
    {
      "bufferView": 2,
      "byteOffset": 0,
      "componentType": 5126,
      "count": 837,
      "max": [
        0.790147602558136,
        0.7067656517028809,
        0.790147602558136
      ],
      "min": [
        -0.790147602558136,
        -0.7067656517028809,
        -0.790147602558136
      ],
      "type": "VEC3"
    },
    {
      "bufferView": 3,
      "byteOffset": 0,
      "componentType": 5126,
      "count": 837,
      "max": [
        0.4480048716068268,
        0.4480048716068268,
        0.4480659067630768
      ],
      "min": [
        0,
        0,
        0
      ],
      "type": "VEC3"
    }
  ],
  "buffers": [
    {
      "byteLength": 3582,
      "uri": "data:application/octet-stream;base64,"
    },
    {
      "byteLength": 10044,
      "uri": "data:application/octet-stream;base64,"
    },
    {
      "byteLength": 10044,
      "uri": "data:application/octet-stream;base64,"
    },
    {
      "byteLength": 10044,
      "uri": "data:application/octet-stream;base64,"
    }
  ],
  "bufferViews": [
    {
      "buffer": 0,
      "byteOffset": 0,
      "byteLength": 3582
    },
    {
      "buffer": 1,
      "byteOffset": 0,
      "byteLength": 10044
    },
    {
      "buffer": 2,
      "byteOffset": 0,
      "byteLength": 10044
    },
    {
      "buffer": 3,
      "byteOffset": 0,
      "byteLength": 10044
    }
  ],
  "meshes": [
    {
      "primitives": [
        {
          "mode": 4,
          "indices": 0,
          "attributes": {
            "POSITION": 1,
            "NORMAL": 2,
            "COLOR_0": 3
          }
        }
      ]
    }
  ],
  "nodes": [
    {
      "children": [
        1
      ]
    },
    {
      "mesh": 0
    }
  ],
  "scenes": [
    {
      "nodes": [
        0
      ]
    }
  ],
  "scene": 0
}