{
  "asset": {
    "version": "2.0",
    "generator": "COLLADA2GLTF"
  },
  "accessors": [
    {
      "bufferView": 0,
      "byteOffset": 0,
      "componentType": 5123,
      "count": 804,
      "min": [
        0
      ],
      "max": [
        374
      ],
      "type": "SCALAR"
    },
    {
      "bufferView": 1,
      "byteOffset": 0,
      "componentType": 5126,
      "count": 375,
      "max": [
        -2310,
        0.0010000000474974513,
        1727.2274169921875
      ],
      "min": [
        -2610,
        0,
        1392.5150146484375
      ],
      "type": "VEC3"
    },
    {
      "bufferView": 2,
      "byteOffset": 0,
      "componentType": 5126,
      "count": 375,
      "max": [
        0.9448133707046509,
        1,
        0.9531206488609314
      ],
      "min": [
        -0.9448376297950745,
        0,
        -0.9439252614974976
      ],
      "type": "VEC3"
    },
    {
      "bufferView": 3,
      "byteOffset": 0,
      "componentType": 5126,
      "count": 375,
      "max": [
        0.999786376953125,
        1,
        0.7875028848648071
      ],
      "min": [
        0.000015259021893143654,
        0.07324330508708954,
        0.00004577706567943096
      ],
      "type": "VEC3"
    }
  ],
  "buffers": [
    {
      "byteLength": 1608,
      "uri": "data:application/octet-stream;base64,"
    },
    {
      "byteLength": 4500,
      "uri": "data:application/octet-stream;base64,"
    },
    {
      "byteLength": 4500,
      "uri": "data:application/octet-stream;base64,"
    },
    {
      "byteLength": 4500,
      "uri": "data:application/octet-stream;base64,"
    }
  ],
  "bufferViews": [
    {
      "buffer": 0,
      "byteOffset": 0,
      "byteLength": 1608
    },
    {
      "buffer": 1,
      "byteOffset": 0,
      "byteLength": 4500
    },
    {
      "buffer": 2,
      "byteOffset": 0,
      "byteLength": 4500
    },
    {
      "buffer": 3,
      "byteOffset": 0,
      "byteLength": 4500
    }
  ],
  "meshes": [
    {
      "primitives": [
        {
          "mode": 4,
          "indices": 0,
          "attributes": {
            "POSITION": 1,
            "NORMAL": 2,
            "COLOR_0": 3
          }
        }
      ]
    }
  ],
  "nodes": [
    {
      "children": [
        1
      ]
    },
    {
      "mesh": 0
    }
  ],
  "scenes": [
    {
      "nodes": [
        0
      ]
    }
  ],
  "scene": 0
}