{
  "asset": {
    "version": "2.0",
    "generator": "COLLADA2GLTF"
  },
  "accessors": [
    {
      "bufferView": 0,
      "byteOffset": 0,
      "componentType": 5123,
      "count": 330,
      "min": [
        0
      ],
      "max": [
        167
      ],
      "type": "SCALAR"
    },
    {
      "bufferView": 1,
      "byteOffset": 0,
      "componentType": 5126,
      "count": 168,
      "max": [
        -2310,
        2,
        1470.677001953125
      ],
      "min": [
        -2610,
        -0.5,
        1140.14697265625
      ],
      "type": "VEC3"
    },
    {
      "bufferView": 2,
      "byteOffset": 0,
      "componentType": 5126,
      "count": 168,
      "max": [
        0.9548602104187012,
        1,
        0.9548602104187012
      ],
      "min": [
        -0.9548602104187012,
        -0.2873478829860687,
        -0.9548602104187012
      ],
      "type": "VEC3"
    },
    {
      "bufferView": 3,
      "byteOffset": 0,
      "componentType": 5126,
      "count": 168,
      "max": [
        0.999786376953125,
        1,
        0.4480659067630768
      ],
      "min": [
        0.000015259021893143654,
        0.07324330508708954,
        0.00004577706567943096
      ],
      "type": "VEC3"
    }
  ],
  "buffers": [
    {
      "byteLength": 660,
      "uri": "data:application/octet-stream;base64,"
    },
    {
      "byteLength": 2016,
      "uri": "data:application/octet-stream;base64,"
    },
    {
      "byteLength": 2016,
      "uri": "data:application/octet-stream;base64,"
    },
    {
      "byteLength": 2016,
      "uri": "data:application/octet-stream;base64,"
    }
  ],
  "bufferViews": [
    {
      "buffer": 0,
      "byteOffset": 0,
      "byteLength": 660
    },
    {
      "buffer": 1,
      "byteOffset": 0,
      "byteLength": 2016
    },
    {
      "buffer": 2,
      "byteOffset": 0,
      "byteLength": 2016
    },
    {
      "buffer": 3,
      "byteOffset": 0,
      "byteLength": 2016
    }
  ],
  "meshes": [
    {
      "primitives": [
        {
          "mode": 4,
          "indices": 0,
          "attributes": {
            "POSITION": 1,
            "NORMAL": 2,
            "COLOR_0": 3
          }
        }
      ]
    }
  ],
  "nodes": [
    {
      "children": [
        1
      ]
    },
    {
      "mesh": 0
    }
  ],
  "scenes": [
    {
      "nodes": [
        0
      ]
    }
  ],
  "scene": 0
}