{
  "asset": {
    "version": "2.0",
    "generator": "COLLADA2GLTF"
  },
  "accessors": [
    {
      "bufferView": 0,
      "byteOffset": 0,
      "componentType": 5123,
      "count": 4332,
      "min": [
        0
      ],
      "max": [
        1760
      ],
      "type": "SCALAR"
    },
    {
      "bufferView": 1,
      "byteOffset": 0,
      "componentType": 5126,
      "count": 1761,
      "max": [
        -2628.53076171875,
        0.0010000000474974513,
        -60
      ],
      "min": [
        -3208.272216796875,
        0,
        -610.6793823242188
      ],
      "type": "VEC3"
    },
    {
      "bufferView": 2,
      "byteOffset": 0,
      "componentType": 5126,
      "count": 1761,
      "max": [
        0.9904053211212158,
        1,
        0.9903488755226135
      ],
      "min": [
        -0.9903918504714966,
        0,
        -0.9904033541679382
      ],
      "type": "VEC3"
    },
    {
      "bufferView": 3,
      "byteOffset": 0,
      "componentType": 5126,
      "count": 1761,
      "max": [
        0.999786376953125,
        1,
        0.7875028848648071
      ],
      "min": [
        0.000015259021893143654,
        0.07324330508708954,
        0.00004577706567943096
      ],
      "type": "VEC3"
    }
  ],
  "buffers": [
    {
      "byteLength": 8664,
      "uri": "data:application/octet-stream;base64,"
    },
    {
      "byteLength": 21132,
      "uri": "data:application/octet-stream;base64,"
    },
    {
      "byteLength": 21132,
      "uri": "data:application/octet-stream;base64,"
    },
    {
      "byteLength": 21132,
      "uri": "data:application/octet-stream;base64,"
    }
  ],
  "bufferViews": [
    {
      "buffer": 0,
      "byteOffset": 0,
      "byteLength": 8664
    },
    {
      "buffer": 1,
      "byteOffset": 0,
      "byteLength": 21132
    },
    {
      "buffer": 2,
      "byteOffset": 0,
      "byteLength": 21132
    },
    {
      "buffer": 3,
      "byteOffset": 0,
      "byteLength": 21132
    }
  ],
  "meshes": [
    {
      "primitives": [
        {
          "mode": 4,
          "indices": 0,
          "attributes": {
            "POSITION": 1,
            "NORMAL": 2,
            "COLOR_0": 3
          }
        }
      ]
    }
  ],
  "nodes": [
    {
      "children": [
        1
      ]
    },
    {
      "mesh": 0
    }
  ],
  "scenes": [
    {
      "nodes": [
        0
      ]
    }
  ],
  "scene": 0
}