{
  "asset": {
    "version": "2.0",
    "generator": "COLLADA2GLTF"
  },
  "accessors": [
    {
      "bufferView": 0,
      "byteOffset": 0,
      "componentType": 5123,
      "count": 141,
      "min": [
        0
      ],
      "max": [
        74
      ],
      "type": "SCALAR"
    },
    {
      "bufferView": 1,
      "byteOffset": 0,
      "componentType": 5126,
      "count": 75,
      "max": [
        128.33599853515625,
        0,
        2402.10107421875
      ],
      "min": [
        -383.802001953125,
        0,
        1303.7449951171875
      ],
      "type": "VEC3"
    },
    {
      "bufferView": 2,
      "byteOffset": 0,
      "componentType": 5126,
      "count": 75,
      "max": [
        0,
        1,
        0
      ],
      "min": [
        0,
        1,
        0
      ],
      "type": "VEC3"
    },
    {
      "bufferView": 3,
      "byteOffset": 0,
      "componentType": 5126,
      "count": 75,
      "max": [
        0,
        0.00003051804378628731,
        1
      ],
      "min": [
        0,
        0.00003051804378628731,
        1
      ],
      "type": "VEC3"
    }
  ],
  "buffers": [
    {
      "byteLength": 282,
      "uri": "data:application/octet-stream;base64,"
    },
    {
      "byteLength": 900,
      "uri": "data:application/octet-stream;base64,"
    },
    {
      "byteLength": 900,
      "uri": "data:application/octet-stream;base64,"
    },
    {
      "byteLength": 900,
      "uri": "data:application/octet-stream;base64,"
    }
  ],
  "bufferViews": [
    {
      "buffer": 0,
      "byteOffset": 0,
      "byteLength": 282
    },
    {
      "buffer": 1,
      "byteOffset": 0,
      "byteLength": 900
    },
    {
      "buffer": 2,
      "byteOffset": 0,
      "byteLength": 900
    },
    {
      "buffer": 3,
      "byteOffset": 0,
      "byteLength": 900
    }
  ],
  "meshes": [
    {
      "primitives": [
        {
          "mode": 4,
          "indices": 0,
          "attributes": {
            "POSITION": 1,
            "NORMAL": 2,
            "COLOR_0": 3
          }
        }
      ]
    }
  ],
  "nodes": [
    {
      "children": [
        1
      ]
    },
    {
      "mesh": 0
    }
  ],
  "scenes": [
    {
      "nodes": [
        0
      ]
    }
  ],
  "scene": 0
}