{
  "asset": {
    "version": "2.0",
    "generator": "COLLADA2GLTF"
  },
  "accessors": [
    {
      "bufferView": 0,
      "byteOffset": 0,
      "componentType": 5123,
      "count": 252,
      "min": [
        0
      ],
      "max": [
        129
      ],
      "type": "SCALAR"
    },
    {
      "bufferView": 1,
      "byteOffset": 0,
      "componentType": 5126,
      "count": 130,
      "max": [
        -3045.254150390625,
        7.5,
        -1897.1142578125
      ],
      "min": [
        -3151.768798828125,
        0,
        -1942.716796875
      ],
      "type": "VEC3"
    },
    {
      "bufferView": 2,
      "byteOffset": 0,
      "componentType": 5126,
      "count": 130,
      "max": [
        0.7889060378074646,
        1,
        0.7889961004257202
      ],
      "min": [
        -0.7888779044151306,
        0,
        -0.788989782333374
      ],
      "type": "VEC3"
    },
    {
      "bufferView": 3,
      "byteOffset": 0,
      "componentType": 5126,
      "count": 130,
      "max": [
        0.999786376953125,
        0.7875181436538696,
        0.26330968737602234
      ],
      "min": [
        0.6036774516105652,
        0.00003051804378628731,
        0
      ],
      "type": "VEC3"
    }
  ],
  "buffers": [
    {
      "byteLength": 504,
      "uri": "data:application/octet-stream;base64,"
    },
    {
      "byteLength": 1560,
      "uri": "data:application/octet-stream;base64,"
    },
    {
      "byteLength": 1560,
      "uri": "data:application/octet-stream;base64,"
    },
    {
      "byteLength": 1560,
      "uri": "data:application/octet-stream;base64,"
    }
  ],
  "bufferViews": [
    {
      "buffer": 0,
      "byteOffset": 0,
      "byteLength": 504
    },
    {
      "buffer": 1,
      "byteOffset": 0,
      "byteLength": 1560
    },
    {
      "buffer": 2,
      "byteOffset": 0,
      "byteLength": 1560
    },
    {
      "buffer": 3,
      "byteOffset": 0,
      "byteLength": 1560
    }
  ],
  "meshes": [
    {
      "primitives": [
        {
          "mode": 4,
          "indices": 0,
          "attributes": {
            "POSITION": 1,
            "NORMAL": 2,
            "COLOR_0": 3
          }
        }
      ]
    }
  ],
  "nodes": [
    {
      "children": [
        1
      ]
    },
    {
      "mesh": 0
    }
  ],
  "scenes": [
    {
      "nodes": [
        0
      ]
    }
  ],
  "scene": 0
}