{
  "asset": {
    "version": "2.0",
    "generator": "COLLADA2GLTF"
  },
  "accessors": [
    {
      "bufferView": 0,
      "byteOffset": 0,
      "componentType": 5123,
      "count": 1911,
      "min": [
        0
      ],
      "max": [
        819
      ],
      "type": "SCALAR"
    },
    {
      "bufferView": 1,
      "byteOffset": 0,
      "componentType": 5126,
      "count": 820,
      "max": [
        -5507.22607421875,
        14.5,
        -740.6549072265625
      ],
      "min": [
        -5961.95361328125,
        9.28499984741211,
        -951.0224609375
      ],
      "type": "VEC3"
    },
    {
      "bufferView": 2,
      "byteOffset": 0,
      "componentType": 5126,
      "count": 820,
      "max": [
        0.9207791686058044,
        0.7066379189491272,
        0.9207791686058044
      ],
      "min": [
        -0.9207791686058044,
        -0.7061887383460999,
        -0.9207791686058044
      ],
      "type": "VEC3"
    },
    {
      "bufferView": 3,
      "byteOffset": 0,
      "componentType": 5126,
      "count": 820,
      "max": [
        0.4480048716068268,
        0.4480048716068268,
        0.4480659067630768
      ],
      "min": [
        0,
        0,
        0
      ],
      "type": "VEC3"
    }
  ],
  "buffers": [
    {
      "byteLength": 3822,
      "uri": "data:application/octet-stream;base64,"
    },
    {
      "byteLength": 9840,
      "uri": "data:application/octet-stream;base64,"
    },
    {
      "byteLength": 9840,
      "uri": "data:application/octet-stream;base64,"
    },
    {
      "byteLength": 9840,
      "uri": "data:application/octet-stream;base64,"
    }
  ],
  "bufferViews": [
    {
      "buffer": 0,
      "byteOffset": 0,
      "byteLength": 3822
    },
    {
      "buffer": 1,
      "byteOffset": 0,
      "byteLength": 9840
    },
    {
      "buffer": 2,
      "byteOffset": 0,
      "byteLength": 9840
    },
    {
      "buffer": 3,
      "byteOffset": 0,
      "byteLength": 9840
    }
  ],
  "meshes": [
    {
      "primitives": [
        {
          "mode": 4,
          "indices": 0,
          "attributes": {
            "POSITION": 1,
            "NORMAL": 2,
            "COLOR_0": 3
          }
        }
      ]
    }
  ],
  "nodes": [
    {
      "children": [
        1
      ]
    },
    {
      "mesh": 0
    }
  ],
  "scenes": [
    {
      "nodes": [
        0
      ]
    }
  ],
  "scene": 0
}