{
  "asset": {
    "version": "2.0",
    "generator": "COLLADA2GLTF"
  },
  "accessors": [
    {
      "bufferView": 0,
      "byteOffset": 0,
      "componentType": 5123,
      "count": 1251,
      "min": [
        0
      ],
      "max": [
        732
      ],
      "type": "SCALAR"
    },
    {
      "bufferView": 1,
      "byteOffset": 0,
      "componentType": 5126,
      "count": 733,
      "max": [
        -2720.073486328125,
        24.966201782226562,
        1937.85986328125
      ],
      "min": [
        -3101.614990234375,
        0,
        1586.0489501953125
      ],
      "type": "VEC3"
    },
    {
      "bufferView": 2,
      "byteOffset": 0,
      "componentType": 5126,
      "count": 733,
      "max": [
        1,
        1,
        1
      ],
      "min": [
        -0.9971328377723694,
        0,
        -0.9105467796325684
      ],
      "type": "VEC3"
    },
    {
      "bufferView": 3,
      "byteOffset": 0,
      "componentType": 5126,
      "count": 733,
      "max": [
        0.999786376953125,
        0.7875181436538696,
        0.26330968737602234
      ],
      "min": [
        0.00004577706567943096,
        0.00003051804378628731,
        0
      ],
      "type": "VEC3"
    }
  ],
  "buffers": [
    {
      "byteLength": 2502,
      "uri": "data:application/octet-stream;base64,"
    },
    {
      "byteLength": 8796,
      "uri": "data:application/octet-stream;base64,"
    },
    {
      "byteLength": 8796,
      "uri": "data:application/octet-stream;base64,"
    },
    {
      "byteLength": 8796,
      "uri": "data:application/octet-stream;base64,"
    }
  ],
  "bufferViews": [
    {
      "buffer": 0,
      "byteOffset": 0,
      "byteLength": 2502
    },
    {
      "buffer": 1,
      "byteOffset": 0,
      "byteLength": 8796
    },
    {
      "buffer": 2,
      "byteOffset": 0,
      "byteLength": 8796
    },
    {
      "buffer": 3,
      "byteOffset": 0,
      "byteLength": 8796
    }
  ],
  "meshes": [
    {
      "primitives": [
        {
          "mode": 4,
          "indices": 0,
          "attributes": {
            "POSITION": 1,
            "NORMAL": 2,
            "COLOR_0": 3
          }
        }
      ]
    }
  ],
  "nodes": [
    {
      "children": [
        1
      ]
    },
    {
      "mesh": 0
    }
  ],
  "scenes": [
    {
      "nodes": [
        0
      ]
    }
  ],
  "scene": 0
}