{
  "asset": {
    "version": "2.0",
    "generator": "COLLADA2GLTF"
  },
  "accessors": [
    {
      "bufferView": 0,
      "byteOffset": 0,
      "componentType": 5123,
      "count": 2817,
      "min": [
        0
      ],
      "max": [
        1200
      ],
      "type": "SCALAR"
    },
    {
      "bufferView": 1,
      "byteOffset": 0,
      "componentType": 5126,
      "count": 1201,
      "max": [
        531.20556640625,
        14.5,
        -1551.537841796875
      ],
      "min": [
        77.522705078125,
        9.28499984741211,
        -1894.5614013671875
      ],
      "type": "VEC3"
    },
    {
      "bufferView": 2,
      "byteOffset": 0,
      "componentType": 5126,
      "count": 1201,
      "max": [
        0.8004633188247681,
        0.706513524055481,
        0.8004633188247681
      ],
      "min": [
        -0.8004633188247681,
        -0.7059454321861267,
        -0.8004633188247681
      ],
      "type": "VEC3"
    },
    {
      "bufferView": 3,
      "byteOffset": 0,
      "componentType": 5126,
      "count": 1201,
      "max": [
        0.4480048716068268,
        0.4480048716068268,
        0.4480659067630768
      ],
      "min": [
        0,
        0,
        0
      ],
      "type": "VEC3"
    }
  ],
  "buffers": [
    {
      "byteLength": 5634,
      "uri": "data:application/octet-stream;base64,"
    },
    {
      "byteLength": 14412,
      "uri": "data:application/octet-stream;base64,"
    },
    {
      "byteLength": 14412,
      "uri": "data:application/octet-stream;base64,"
    },
    {
      "byteLength": 14412,
      "uri": "data:application/octet-stream;base64,"
    }
  ],
  "bufferViews": [
    {
      "buffer": 0,
      "byteOffset": 0,
      "byteLength": 5634
    },
    {
      "buffer": 1,
      "byteOffset": 0,
      "byteLength": 14412
    },
    {
      "buffer": 2,
      "byteOffset": 0,
      "byteLength": 14412
    },
    {
      "buffer": 3,
      "byteOffset": 0,
      "byteLength": 14412
    }
  ],
  "meshes": [
    {
      "primitives": [
        {
          "mode": 4,
          "indices": 0,
          "attributes": {
            "POSITION": 1,
            "NORMAL": 2,
            "COLOR_0": 3
          }
        }
      ]
    }
  ],
  "nodes": [
    {
      "children": [
        1
      ]
    },
    {
      "mesh": 0
    }
  ],
  "scenes": [
    {
      "nodes": [
        0
      ]
    }
  ],
  "scene": 0
}