{
  "asset": {
    "version": "2.0",
    "generator": "COLLADA2GLTF"
  },
  "accessors": [
    {
      "bufferView": 0,
      "byteOffset": 0,
      "componentType": 5123,
      "count": 4509,
      "min": [
        0
      ],
      "max": [
        1791
      ],
      "type": "SCALAR"
    },
    {
      "bufferView": 1,
      "byteOffset": 0,
      "componentType": 5126,
      "count": 1792,
      "max": [
        -2010,
        5,
        240
      ],
      "min": [
        -2592.385498046875,
        -0.5,
        -255.79930114746094
      ],
      "type": "VEC3"
    },
    {
      "bufferView": 2,
      "byteOffset": 0,
      "componentType": 5126,
      "count": 1792,
      "max": [
        0.8607732057571411,
        1,
        0.869962751865387
      ],
      "min": [
        -0.8631837964057922,
        -0.2873478829860687,
        -0.8594399094581604
      ],
      "type": "VEC3"
    },
    {
      "bufferView": 3,
      "byteOffset": 0,
      "componentType": 5126,
      "count": 1792,
      "max": [
        0.999786376953125,
        1,
        0.7875028848648071
      ],
      "min": [
        0.000015259021893143654,
        0.07324330508708954,
        0.00004577706567943096
      ],
      "type": "VEC3"
    }
  ],
  "buffers": [
    {
      "byteLength": 9018,
      "uri": "data:application/octet-stream;base64,"
    },
    {
      "byteLength": 21504,
      "uri": "data:application/octet-stream;base64,"
    },
    {
      "byteLength": 21504,
      "uri": "data:application/octet-stream;base64,"
    },
    {
      "byteLength": 21504,
      "uri": "data:application/octet-stream;base64,"
    }
  ],
  "bufferViews": [
    {
      "buffer": 0,
      "byteOffset": 0,
      "byteLength": 9018
    },
    {
      "buffer": 1,
      "byteOffset": 0,
      "byteLength": 21504
    },
    {
      "buffer": 2,
      "byteOffset": 0,
      "byteLength": 21504
    },
    {
      "buffer": 3,
      "byteOffset": 0,
      "byteLength": 21504
    }
  ],
  "meshes": [
    {
      "primitives": [
        {
          "mode": 4,
          "indices": 0,
          "attributes": {
            "POSITION": 1,
            "NORMAL": 2,
            "COLOR_0": 3
          }
        }
      ]
    }
  ],
  "nodes": [
    {
      "children": [
        1
      ]
    },
    {
      "mesh": 0
    }
  ],
  "scenes": [
    {
      "nodes": [
        0
      ]
    }
  ],
  "scene": 0
}