{
  "asset": {
    "version": "2.0",
    "generator": "COLLADA2GLTF"
  },
  "accessors": [
    {
      "bufferView": 0,
      "byteOffset": 0,
      "componentType": 5123,
      "count": 2586,
      "min": [
        0
      ],
      "max": [
        1139
      ],
      "type": "SCALAR"
    },
    {
      "bufferView": 1,
      "byteOffset": 0,
      "componentType": 5126,
      "count": 1140,
      "max": [
        -791.37060546875,
        14.5,
        -725.1577758789062
      ],
      "min": [
        -1146.431884765625,
        9.28499984741211,
        -1027.7039794921875
      ],
      "type": "VEC3"
    },
    {
      "bufferView": 2,
      "byteOffset": 0,
      "componentType": 5126,
      "count": 1140,
      "max": [
        0.7689412236213684,
        0.7065496444702148,
        0.7689412236213684
      ],
      "min": [
        -0.7689412236213684,
        -0.7061309814453125,
        -0.7689412236213684
      ],
      "type": "VEC3"
    },
    {
      "bufferView": 3,
      "byteOffset": 0,
      "componentType": 5126,
      "count": 1140,
      "max": [
        0.4480048716068268,
        0.4480048716068268,
        0.4480659067630768
      ],
      "min": [
        0,
        0,
        0
      ],
      "type": "VEC3"
    }
  ],
  "buffers": [
    {
      "byteLength": 5172,
      "uri": "data:application/octet-stream;base64,"
    },
    {
      "byteLength": 13680,
      "uri": "data:application/octet-stream;base64,"
    },
    {
      "byteLength": 13680,
      "uri": "data:application/octet-stream;base64,"
    },
    {
      "byteLength": 13680,
      "uri": "data:application/octet-stream;base64,"
    }
  ],
  "bufferViews": [
    {
      "buffer": 0,
      "byteOffset": 0,
      "byteLength": 5172
    },
    {
      "buffer": 1,
      "byteOffset": 0,
      "byteLength": 13680
    },
    {
      "buffer": 2,
      "byteOffset": 0,
      "byteLength": 13680
    },
    {
      "buffer": 3,
      "byteOffset": 0,
      "byteLength": 13680
    }
  ],
  "meshes": [
    {
      "primitives": [
        {
          "mode": 4,
          "indices": 0,
          "attributes": {
            "POSITION": 1,
            "NORMAL": 2,
            "COLOR_0": 3
          }
        }
      ]
    }
  ],
  "nodes": [
    {
      "children": [
        1
      ]
    },
    {
      "mesh": 0
    }
  ],
  "scenes": [
    {
      "nodes": [
        0
      ]
    }
  ],
  "scene": 0
}