{
  "asset": {
    "version": "2.0",
    "generator": "COLLADA2GLTF"
  },
  "accessors": [
    {
      "bufferView": 0,
      "byteOffset": 0,
      "componentType": 5123,
      "count": 1233,
      "min": [
        0
      ],
      "max": [
        1025
      ],
      "type": "SCALAR"
    },
    {
      "bufferView": 1,
      "byteOffset": 0,
      "componentType": 5126,
      "count": 1026,
      "max": [
        -524.0419921875,
        7.5,
        439.1940002441406
      ],
      "min": [
        -888.3690185546875,
        0,
        209.5019989013672
      ],
      "type": "VEC3"
    },
    {
      "bufferView": 2,
      "byteOffset": 0,
      "componentType": 5126,
      "count": 1026,
      "max": [
        1,
        0,
        1
      ],
      "min": [
        -1,
        0,
        -0.9996709227561951
      ],
      "type": "VEC3"
    },
    {
      "bufferView": 3,
      "byteOffset": 0,
      "componentType": 5126,
      "count": 1026,
      "max": [
        0.999786376953125,
        0.7875181436538696,
        0.26330968737602234
      ],
      "min": [
        0.999786376953125,
        0.7875181436538696,
        0.26330968737602234
      ],
      "type": "VEC3"
    }
  ],
  "buffers": [
    {
      "byteLength": 2466,
      "uri": "data:application/octet-stream;base64,"
    },
    {
      "byteLength": 12312,
      "uri": "data:application/octet-stream;base64,"
    },
    {
      "byteLength": 12312,
      "uri": "data:application/octet-stream;base64,"
    },
    {
      "byteLength": 12312,
      "uri": "data:application/octet-stream;base64,"
    }
  ],
  "bufferViews": [
    {
      "buffer": 0,
      "byteOffset": 0,
      "byteLength": 2466
    },
    {
      "buffer": 1,
      "byteOffset": 0,
      "byteLength": 12312
    },
    {
      "buffer": 2,
      "byteOffset": 0,
      "byteLength": 12312
    },
    {
      "buffer": 3,
      "byteOffset": 0,
      "byteLength": 12312
    }
  ],
  "meshes": [
    {
      "primitives": [
        {
          "mode": 4,
          "indices": 0,
          "attributes": {
            "POSITION": 1,
            "NORMAL": 2,
            "COLOR_0": 3
          }
        }
      ]
    }
  ],
  "nodes": [
    {
      "children": [
        1
      ]
    },
    {
      "mesh": 0
    }
  ],
  "scenes": [
    {
      "nodes": [
        0
      ]
    }
  ],
  "scene": 0
}