{
  "asset": {
    "version": "2.0",
    "generator": "COLLADA2GLTF"
  },
  "accessors": [
    {
      "bufferView": 0,
      "byteOffset": 0,
      "componentType": 5123,
      "count": 549,
      "min": [
        0
      ],
      "max": [
        194
      ],
      "type": "SCALAR"
    },
    {
      "bufferView": 1,
      "byteOffset": 0,
      "componentType": 5126,
      "count": 195,
      "max": [
        -1393.41845703125,
        9.5,
        4516.72314453125
      ],
      "min": [
        -2083.111328125,
        -0.5,
        4159.1767578125
      ],
      "type": "VEC3"
    },
    {
      "bufferView": 2,
      "byteOffset": 0,
      "componentType": 5126,
      "count": 195,
      "max": [
        0.8836164474487305,
        -0.04440061375498772,
        0.8836164474487305
      ],
      "min": [
        -0.9304949641227722,
        -0.3162277638912201,
        -0.8334916830062866
      ],
      "type": "VEC3"
    },
    {
      "bufferView": 3,
      "byteOffset": 0,
      "componentType": 5126,
      "count": 195,
      "max": [
        0.4480048716068268,
        0.4480048716068268,
        0.4480659067630768
      ],
      "min": [
        0.4480048716068268,
        0.4480048716068268,
        0.4480659067630768
      ],
      "type": "VEC3"
    }
  ],
  "buffers": [
    {
      "byteLength": 1098,
      "uri": "data:application/octet-stream;base64,"
    },
    {
      "byteLength": 2340,
      "uri": "data:application/octet-stream;base64,"
    },
    {
      "byteLength": 2340,
      "uri": "data:application/octet-stream;base64,"
    },
    {
      "byteLength": 2340,
      "uri": "data:application/octet-stream;base64,"
    }
  ],
  "bufferViews": [
    {
      "buffer": 0,
      "byteOffset": 0,
      "byteLength": 1098
    },
    {
      "buffer": 1,
      "byteOffset": 0,
      "byteLength": 2340
    },
    {
      "buffer": 2,
      "byteOffset": 0,
      "byteLength": 2340
    },
    {
      "buffer": 3,
      "byteOffset": 0,
      "byteLength": 2340
    }
  ],
  "meshes": [
    {
      "primitives": [
        {
          "mode": 4,
          "indices": 0,
          "attributes": {
            "POSITION": 1,
            "NORMAL": 2,
            "COLOR_0": 3
          }
        }
      ]
    }
  ],
  "nodes": [
    {
      "children": [
        1
      ]
    },
    {
      "mesh": 0
    }
  ],
  "scenes": [
    {
      "nodes": [
        0
      ]
    }
  ],
  "scene": 0
}