{
  "asset": {
    "version": "2.0",
    "generator": "COLLADA2GLTF"
  },
  "accessors": [
    {
      "bufferView": 0,
      "byteOffset": 0,
      "componentType": 5123,
      "count": 4353,
      "min": [
        0
      ],
      "max": [
        1700
      ],
      "type": "SCALAR"
    },
    {
      "bufferView": 1,
      "byteOffset": 0,
      "componentType": 5126,
      "count": 1701,
      "max": [
        11.982999801635742,
        7.5,
        224.0070037841797
      ],
      "min": [
        -1166.427978515625,
        0,
        -1262.5450439453125
      ],
      "type": "VEC3"
    },
    {
      "bufferView": 2,
      "byteOffset": 0,
      "componentType": 5126,
      "count": 1701,
      "max": [
        0.7758352160453796,
        1,
        0.7765658497810364
      ],
      "min": [
        -0.7770864963531494,
        -1,
        -0.7764245271682739
      ],
      "type": "VEC3"
    },
    {
      "bufferView": 3,
      "byteOffset": 0,
      "componentType": 5126,
      "count": 1701,
      "max": [
        0.999786376953125,
        1,
        1
      ],
      "min": [
        0,
        0.00003051804378628731,
        0
      ],
      "type": "VEC3"
    }
  ],
  "buffers": [
    {
      "byteLength": 8706,
      "uri": "data:application/octet-stream;base64,"
    },
    {
      "byteLength": 20412,
      "uri": "data:application/octet-stream;base64,"
    },
    {
      "byteLength": 20412,
      "uri": "data:application/octet-stream;base64,"
    },
    {
      "byteLength": 20412,
      "uri": "data:application/octet-stream;base64,"
    }
  ],
  "bufferViews": [
    {
      "buffer": 0,
      "byteOffset": 0,
      "byteLength": 8706
    },
    {
      "buffer": 1,
      "byteOffset": 0,
      "byteLength": 20412
    },
    {
      "buffer": 2,
      "byteOffset": 0,
      "byteLength": 20412
    },
    {
      "buffer": 3,
      "byteOffset": 0,
      "byteLength": 20412
    }
  ],
  "meshes": [
    {
      "primitives": [
        {
          "mode": 4,
          "indices": 0,
          "attributes": {
            "POSITION": 1,
            "NORMAL": 2,
            "COLOR_0": 3
          }
        }
      ]
    }
  ],
  "nodes": [
    {
      "children": [
        1
      ]
    },
    {
      "mesh": 0
    }
  ],
  "scenes": [
    {
      "nodes": [
        0
      ]
    }
  ],
  "scene": 0
}