{
  "asset": {
    "version": "2.0",
    "generator": "COLLADA2GLTF"
  },
  "accessors": [
    {
      "bufferView": 0,
      "byteOffset": 0,
      "componentType": 5123,
      "count": 2040,
      "min": [
        0
      ],
      "max": [
        808
      ],
      "type": "SCALAR"
    },
    {
      "bufferView": 1,
      "byteOffset": 0,
      "componentType": 5126,
      "count": 809,
      "max": [
        -2389.298095703125,
        17.165000915527344,
        711.3638305664062
      ],
      "min": [
        -2731.387939453125,
        12,
        622.1228637695312
      ],
      "type": "VEC3"
    },
    {
      "bufferView": 2,
      "byteOffset": 0,
      "componentType": 5126,
      "count": 809,
      "max": [
        0.8376993536949158,
        0.7069816589355469,
        0.8376993536949158
      ],
      "min": [
        -0.8376993536949158,
        -0.7069816589355469,
        -0.8376993536949158
      ],
      "type": "VEC3"
    },
    {
      "bufferView": 3,
      "byteOffset": 0,
      "componentType": 5126,
      "count": 809,
      "max": [
        0.4480048716068268,
        0.4480048716068268,
        0.4480659067630768
      ],
      "min": [
        0,
        0,
        0
      ],
      "type": "VEC3"
    }
  ],
  "buffers": [
    {
      "byteLength": 4080,
      "uri": "data:application/octet-stream;base64,"
    },
    {
      "byteLength": 9708,
      "uri": "data:application/octet-stream;base64,"
    },
    {
      "byteLength": 9708,
      "uri": "data:application/octet-stream;base64,"
    },
    {
      "byteLength": 9708,
      "uri": "data:application/octet-stream;base64,"
    }
  ],
  "bufferViews": [
    {
      "buffer": 0,
      "byteOffset": 0,
      "byteLength": 4080
    },
    {
      "buffer": 1,
      "byteOffset": 0,
      "byteLength": 9708
    },
    {
      "buffer": 2,
      "byteOffset": 0,
      "byteLength": 9708
    },
    {
      "buffer": 3,
      "byteOffset": 0,
      "byteLength": 9708
    }
  ],
  "meshes": [
    {
      "primitives": [
        {
          "mode": 4,
          "indices": 0,
          "attributes": {
            "POSITION": 1,
            "NORMAL": 2,
            "COLOR_0": 3
          }
        }
      ]
    }
  ],
  "nodes": [
    {
      "children": [
        1
      ]
    },
    {
      "mesh": 0
    }
  ],
  "scenes": [
    {
      "nodes": [
        0
      ]
    }
  ],
  "scene": 0
}