{
  "asset": {
    "version": "2.0",
    "generator": "COLLADA2GLTF"
  },
  "accessors": [
    {
      "bufferView": 0,
      "byteOffset": 0,
      "componentType": 5123,
      "count": 972,
      "min": [
        0
      ],
      "max": [
        446
      ],
      "type": "SCALAR"
    },
    {
      "bufferView": 1,
      "byteOffset": 0,
      "componentType": 5126,
      "count": 447,
      "max": [
        -1759.99853515625,
        17.165000915527344,
        -92.41575622558594
      ],
      "min": [
        -1890.4859619140625,
        12,
        -218.66297912597656
      ],
      "type": "VEC3"
    },
    {
      "bufferView": 2,
      "byteOffset": 0,
      "componentType": 5126,
      "count": 447,
      "max": [
        0.7653483748435974,
        0.7070716023445129,
        0.7653483748435974
      ],
      "min": [
        -0.7653483748435974,
        -0.7070716023445129,
        -0.7653483748435974
      ],
      "type": "VEC3"
    },
    {
      "bufferView": 3,
      "byteOffset": 0,
      "componentType": 5126,
      "count": 447,
      "max": [
        0.4480048716068268,
        0.4480048716068268,
        0.4480659067630768
      ],
      "min": [
        0,
        0,
        0
      ],
      "type": "VEC3"
    }
  ],
  "buffers": [
    {
      "byteLength": 1944,
      "uri": "data:application/octet-stream;base64,"
    },
    {
      "byteLength": 5364,
      "uri": "data:application/octet-stream;base64,"
    },
    {
      "byteLength": 5364,
      "uri": "data:application/octet-stream;base64,"
    },
    {
      "byteLength": 5364,
      "uri": "data:application/octet-stream;base64,"
    }
  ],
  "bufferViews": [
    {
      "buffer": 0,
      "byteOffset": 0,
      "byteLength": 1944
    },
    {
      "buffer": 1,
      "byteOffset": 0,
      "byteLength": 5364
    },
    {
      "buffer": 2,
      "byteOffset": 0,
      "byteLength": 5364
    },
    {
      "buffer": 3,
      "byteOffset": 0,
      "byteLength": 5364
    }
  ],
  "meshes": [
    {
      "primitives": [
        {
          "mode": 4,
          "indices": 0,
          "attributes": {
            "POSITION": 1,
            "NORMAL": 2,
            "COLOR_0": 3
          }
        }
      ]
    }
  ],
  "nodes": [
    {
      "children": [
        1
      ]
    },
    {
      "mesh": 0
    }
  ],
  "scenes": [
    {
      "nodes": [
        0
      ]
    }
  ],
  "scene": 0
}