{
  "asset": {
    "version": "2.0",
    "generator": "COLLADA2GLTF"
  },
  "accessors": [
    {
      "bufferView": 0,
      "byteOffset": 0,
      "componentType": 5123,
      "count": 1341,
      "min": [
        0
      ],
      "max": [
        677
      ],
      "type": "SCALAR"
    },
    {
      "bufferView": 1,
      "byteOffset": 0,
      "componentType": 5126,
      "count": 678,
      "max": [
        -2085.145263671875,
        24.5,
        2262.2275390625
      ],
      "min": [
        -2195.29052734375,
        17,
        1744.83056640625
      ],
      "type": "VEC3"
    },
    {
      "bufferView": 2,
      "byteOffset": 0,
      "componentType": 5126,
      "count": 678,
      "max": [
        0.9873355627059937,
        0.706389844417572,
        0.9873355627059937
      ],
      "min": [
        -0.9873355627059937,
        -0.706389844417572,
        -0.9873355627059937
      ],
      "type": "VEC3"
    },
    {
      "bufferView": 3,
      "byteOffset": 0,
      "componentType": 5126,
      "count": 678,
      "max": [
        0.4480048716068268,
        0.4480048716068268,
        0.4480659067630768
      ],
      "min": [
        0,
        0,
        0
      ],
      "type": "VEC3"
    }
  ],
  "buffers": [
    {
      "byteLength": 2682,
      "uri": "data:application/octet-stream;base64,"
    },
    {
      "byteLength": 8136,
      "uri": "data:application/octet-stream;base64,"
    },
    {
      "byteLength": 8136,
      "uri": "data:application/octet-stream;base64,"
    },
    {
      "byteLength": 8136,
      "uri": "data:application/octet-stream;base64,"
    }
  ],
  "bufferViews": [
    {
      "buffer": 0,
      "byteOffset": 0,
      "byteLength": 2682
    },
    {
      "buffer": 1,
      "byteOffset": 0,
      "byteLength": 8136
    },
    {
      "buffer": 2,
      "byteOffset": 0,
      "byteLength": 8136
    },
    {
      "buffer": 3,
      "byteOffset": 0,
      "byteLength": 8136
    }
  ],
  "meshes": [
    {
      "primitives": [
        {
          "mode": 4,
          "indices": 0,
          "attributes": {
            "POSITION": 1,
            "NORMAL": 2,
            "COLOR_0": 3
          }
        }
      ]
    }
  ],
  "nodes": [
    {
      "children": [
        1
      ]
    },
    {
      "mesh": 0
    }
  ],
  "scenes": [
    {
      "nodes": [
        0
      ]
    }
  ],
  "scene": 0
}