{
  "asset": {
    "version": "2.0",
    "generator": "COLLADA2GLTF"
  },
  "accessors": [
    {
      "bufferView": 0,
      "byteOffset": 0,
      "componentType": 5123,
      "count": 3138,
      "min": [
        0
      ],
      "max": [
        1073
      ],
      "type": "SCALAR"
    },
    {
      "bufferView": 1,
      "byteOffset": 0,
      "componentType": 5126,
      "count": 1074,
      "max": [
        116.75093841552734,
        0.06400000303983688,
        2627.718505859375
      ],
      "min": [
        84.65181732177734,
        0,
        2615.417236328125
      ],
      "type": "VEC3"
    },
    {
      "bufferView": 2,
      "byteOffset": 0,
      "componentType": 5126,
      "count": 1074,
      "max": [
        0.9440768361091614,
        1,
        0.9440768361091614
      ],
      "min": [
        -0.9440768361091614,
        0,
        -0.9440768361091614
      ],
      "type": "VEC3"
    },
    {
      "bufferView": 3,
      "byteOffset": 0,
      "componentType": 5126,
      "count": 1074,
      "max": [
        0.07322804629802704,
        0.03309682011604309,
        0.03311207890510559
      ],
      "min": [
        0.07322804629802704,
        0.03309682011604309,
        0.03311207890510559
      ],
      "type": "VEC3"
    }
  ],
  "buffers": [
    {
      "byteLength": 6276,
      "uri": "data:application/octet-stream;base64,"
    },
    {
      "byteLength": 12888,
      "uri": "data:application/octet-stream;base64,"
    },
    {
      "byteLength": 12888,
      "uri": "data:application/octet-stream;base64,"
    },
    {
      "byteLength": 12888,
      "uri": "data:application/octet-stream;base64,"
    }
  ],
  "bufferViews": [
    {
      "buffer": 0,
      "byteOffset": 0,
      "byteLength": 6276
    },
    {
      "buffer": 1,
      "byteOffset": 0,
      "byteLength": 12888
    },
    {
      "buffer": 2,
      "byteOffset": 0,
      "byteLength": 12888
    },
    {
      "buffer": 3,
      "byteOffset": 0,
      "byteLength": 12888
    }
  ],
  "meshes": [
    {
      "primitives": [
        {
          "mode": 4,
          "indices": 0,
          "attributes": {
            "POSITION": 1,
            "NORMAL": 2,
            "COLOR_0": 3
          }
        }
      ]
    }
  ],
  "nodes": [
    {
      "children": [
        1
      ]
    },
    {
      "mesh": 0
    }
  ],
  "scenes": [
    {
      "nodes": [
        0
      ]
    }
  ],
  "scene": 0
}