{
  "asset": {
    "version": "2.0",
    "generator": "COLLADA2GLTF"
  },
  "accessors": [
    {
      "bufferView": 0,
      "byteOffset": 0,
      "componentType": 5123,
      "count": 3051,
      "min": [
        0
      ],
      "max": [
        1495
      ],
      "type": "SCALAR"
    },
    {
      "bufferView": 1,
      "byteOffset": 0,
      "componentType": 5126,
      "count": 1496,
      "max": [
        -1884.8660888671875,
        0.0010000000474974513,
        -364.1100769042969
      ],
      "min": [
        -2216.031494140625,
        0,
        -660
      ],
      "type": "VEC3"
    },
    {
      "bufferView": 2,
      "byteOffset": 0,
      "componentType": 5126,
      "count": 1496,
      "max": [
        0.8161123394966125,
        1,
        0.8164547085762024
      ],
      "min": [
        -0.8161044716835022,
        0,
        -0.8165560364723206
      ],
      "type": "VEC3"
    },
    {
      "bufferView": 3,
      "byteOffset": 0,
      "componentType": 5126,
      "count": 1496,
      "max": [
        0.999786376953125,
        1,
        0.7875028848648071
      ],
      "min": [
        0.000015259021893143654,
        0.07324330508708954,
        0.00004577706567943096
      ],
      "type": "VEC3"
    }
  ],
  "buffers": [
    {
      "byteLength": 6102,
      "uri": "data:application/octet-stream;base64,"
    },
    {
      "byteLength": 17952,
      "uri": "data:application/octet-stream;base64,"
    },
    {
      "byteLength": 17952,
      "uri": "data:application/octet-stream;base64,"
    },
    {
      "byteLength": 17952,
      "uri": "data:application/octet-stream;base64,"
    }
  ],
  "bufferViews": [
    {
      "buffer": 0,
      "byteOffset": 0,
      "byteLength": 6102
    },
    {
      "buffer": 1,
      "byteOffset": 0,
      "byteLength": 17952
    },
    {
      "buffer": 2,
      "byteOffset": 0,
      "byteLength": 17952
    },
    {
      "buffer": 3,
      "byteOffset": 0,
      "byteLength": 17952
    }
  ],
  "meshes": [
    {
      "primitives": [
        {
          "mode": 4,
          "indices": 0,
          "attributes": {
            "POSITION": 1,
            "NORMAL": 2,
            "COLOR_0": 3
          }
        }
      ]
    }
  ],
  "nodes": [
    {
      "children": [
        1
      ]
    },
    {
      "mesh": 0
    }
  ],
  "scenes": [
    {
      "nodes": [
        0
      ]
    }
  ],
  "scene": 0
}