{
  "asset": {
    "version": "2.0",
    "generator": "COLLADA2GLTF"
  },
  "accessors": [
    {
      "bufferView": 0,
      "byteOffset": 0,
      "componentType": 5123,
      "count": 3774,
      "min": [
        0
      ],
      "max": [
        1432
      ],
      "type": "SCALAR"
    },
    {
      "bufferView": 1,
      "byteOffset": 0,
      "componentType": 5126,
      "count": 1433,
      "max": [
        1852.5128173828125,
        0.10000000149011612,
        -1428.1671142578125
      ],
      "min": [
        1841.861572265625,
        0,
        -1439.0067138671875
      ],
      "type": "VEC3"
    },
    {
      "bufferView": 2,
      "byteOffset": 0,
      "componentType": 5126,
      "count": 1433,
      "max": [
        0.791513979434967,
        0.9484240412712097,
        0.791513979434967
      ],
      "min": [
        -0.7859943509101868,
        0,
        -0.791513979434967
      ],
      "type": "VEC3"
    },
    {
      "bufferView": 3,
      "byteOffset": 0,
      "componentType": 5126,
      "count": 1433,
      "max": [
        0.26324865221977234,
        0.26329442858695984,
        0.26329442858695984
      ],
      "min": [
        0.26324865221977234,
        0.26329442858695984,
        0.26329442858695984
      ],
      "type": "VEC3"
    }
  ],
  "buffers": [
    {
      "byteLength": 7548,
      "uri": "data:application/octet-stream;base64,"
    },
    {
      "byteLength": 17196,
      "uri": "data:application/octet-stream;base64,"
    },
    {
      "byteLength": 17196,
      "uri": "data:application/octet-stream;base64,"
    },
    {
      "byteLength": 17196,
      "uri": "data:application/octet-stream;base64,"
    }
  ],
  "bufferViews": [
    {
      "buffer": 0,
      "byteOffset": 0,
      "byteLength": 7548
    },
    {
      "buffer": 1,
      "byteOffset": 0,
      "byteLength": 17196
    },
    {
      "buffer": 2,
      "byteOffset": 0,
      "byteLength": 17196
    },
    {
      "buffer": 3,
      "byteOffset": 0,
      "byteLength": 17196
    }
  ],
  "meshes": [
    {
      "primitives": [
        {
          "mode": 4,
          "indices": 0,
          "attributes": {
            "POSITION": 1,
            "NORMAL": 2,
            "COLOR_0": 3
          }
        }
      ]
    }
  ],
  "nodes": [
    {
      "children": [
        1
      ]
    },
    {
      "mesh": 0
    }
  ],
  "scenes": [
    {
      "nodes": [
        0
      ]
    }
  ],
  "scene": 0
}