{
  "asset": {
    "version": "2.0",
    "generator": "COLLADA2GLTF"
  },
  "accessors": [
    {
      "bufferView": 0,
      "byteOffset": 0,
      "componentType": 5123,
      "count": 1374,
      "min": [
        0
      ],
      "max": [
        567
      ],
      "type": "SCALAR"
    },
    {
      "bufferView": 1,
      "byteOffset": 0,
      "componentType": 5126,
      "count": 568,
      "max": [
        1310.6746826171875,
        0.0010000000474974513,
        457.7439270019531
      ],
      "min": [
        1013.9439697265625,
        0,
        240.04945373535156
      ],
      "type": "VEC3"
    },
    {
      "bufferView": 2,
      "byteOffset": 0,
      "componentType": 5126,
      "count": 568,
      "max": [
        0.8867354989051819,
        1,
        0.8864532709121704
      ],
      "min": [
        -0.8867354989051819,
        0,
        -0.8864532709121704
      ],
      "type": "VEC3"
    },
    {
      "bufferView": 3,
      "byteOffset": 0,
      "componentType": 5126,
      "count": 568,
      "max": [
        0.999786376953125,
        1,
        0.7875028848648071
      ],
      "min": [
        0.000015259021893143654,
        0.07324330508708954,
        0.00004577706567943096
      ],
      "type": "VEC3"
    }
  ],
  "buffers": [
    {
      "byteLength": 2748,
      "uri": "data:application/octet-stream;base64,"
    },
    {
      "byteLength": 6816,
      "uri": "data:application/octet-stream;base64,"
    },
    {
      "byteLength": 6816,
      "uri": "data:application/octet-stream;base64,"
    },
    {
      "byteLength": 6816,
      "uri": "data:application/octet-stream;base64,"
    }
  ],
  "bufferViews": [
    {
      "buffer": 0,
      "byteOffset": 0,
      "byteLength": 2748
    },
    {
      "buffer": 1,
      "byteOffset": 0,
      "byteLength": 6816
    },
    {
      "buffer": 2,
      "byteOffset": 0,
      "byteLength": 6816
    },
    {
      "buffer": 3,
      "byteOffset": 0,
      "byteLength": 6816
    }
  ],
  "meshes": [
    {
      "primitives": [
        {
          "mode": 4,
          "indices": 0,
          "attributes": {
            "POSITION": 1,
            "NORMAL": 2,
            "COLOR_0": 3
          }
        }
      ]
    }
  ],
  "nodes": [
    {
      "children": [
        1
      ]
    },
    {
      "mesh": 0
    }
  ],
  "scenes": [
    {
      "nodes": [
        0
      ]
    }
  ],
  "scene": 0
}