{
  "asset": {
    "version": "2.0",
    "generator": "COLLADA2GLTF"
  },
  "accessors": [
    {
      "bufferView": 0,
      "byteOffset": 0,
      "componentType": 5123,
      "count": 4884,
      "min": [
        0
      ],
      "max": [
        1790
      ],
      "type": "SCALAR"
    },
    {
      "bufferView": 1,
      "byteOffset": 0,
      "componentType": 5126,
      "count": 1791,
      "max": [
        3587.427978515625,
        1.0700000524520874,
        1413.3212890625
      ],
      "min": [
        3323.413330078125,
        0,
        937.06982421875
      ],
      "type": "VEC3"
    },
    {
      "bufferView": 2,
      "byteOffset": 0,
      "componentType": 5126,
      "count": 1791,
      "max": [
        0.8256990313529968,
        1,
        0
      ],
      "min": [
        0,
        0,
        -0.5641108751296997
      ],
      "type": "VEC3"
    },
    {
      "bufferView": 3,
      "byteOffset": 0,
      "componentType": 5126,
      "count": 1791,
      "max": [
        0.999847412109375,
        1,
        1
      ],
      "min": [
        0,
        0.00003051804378628731,
        0
      ],
      "type": "VEC3"
    }
  ],
  "buffers": [
    {
      "byteLength": 9768,
      "uri": "data:application/octet-stream;base64,"
    },
    {
      "byteLength": 21492,
      "uri": "data:application/octet-stream;base64,"
    },
    {
      "byteLength": 21492,
      "uri": "data:application/octet-stream;base64,"
    },
    {
      "byteLength": 21492,
      "uri": "data:application/octet-stream;base64,"
    }
  ],
  "bufferViews": [
    {
      "buffer": 0,
      "byteOffset": 0,
      "byteLength": 9768
    },
    {
      "buffer": 1,
      "byteOffset": 0,
      "byteLength": 21492
    },
    {
      "buffer": 2,
      "byteOffset": 0,
      "byteLength": 21492
    },
    {
      "buffer": 3,
      "byteOffset": 0,
      "byteLength": 21492
    }
  ],
  "meshes": [
    {
      "primitives": [
        {
          "mode": 4,
          "indices": 0,
          "attributes": {
            "POSITION": 1,
            "NORMAL": 2,
            "COLOR_0": 3
          }
        }
      ]
    }
  ],
  "nodes": [
    {
      "children": [
        1
      ]
    },
    {
      "mesh": 0
    }
  ],
  "scenes": [
    {
      "nodes": [
        0
      ]
    }
  ],
  "scene": 0
}