{
  "asset": {
    "version": "2.0",
    "generator": "COLLADA2GLTF"
  },
  "accessors": [
    {
      "bufferView": 0,
      "byteOffset": 0,
      "componentType": 5123,
      "count": 3090,
      "min": [
        0
      ],
      "max": [
        1055
      ],
      "type": "SCALAR"
    },
    {
      "bufferView": 1,
      "byteOffset": 0,
      "componentType": 5126,
      "count": 1056,
      "max": [
        -13.627420425415039,
        0.06400000303983688,
        2581.525634765625
      ],
      "min": [
        -45.185150146484375,
        0,
        2569.483154296875
      ],
      "type": "VEC3"
    },
    {
      "bufferView": 2,
      "byteOffset": 0,
      "componentType": 5126,
      "count": 1056,
      "max": [
        0.9438987374305725,
        1,
        0.9438987374305725
      ],
      "min": [
        -0.9438987374305725,
        0,
        -0.9438987374305725
      ],
      "type": "VEC3"
    },
    {
      "bufferView": 3,
      "byteOffset": 0,
      "componentType": 5126,
      "count": 1056,
      "max": [
        0.07322804629802704,
        0.03309682011604309,
        0.03311207890510559
      ],
      "min": [
        0.07322804629802704,
        0.03309682011604309,
        0.03311207890510559
      ],
      "type": "VEC3"
    }
  ],
  "buffers": [
    {
      "byteLength": 6180,
      "uri": "data:application/octet-stream;base64,"
    },
    {
      "byteLength": 12672,
      "uri": "data:application/octet-stream;base64,"
    },
    {
      "byteLength": 12672,
      "uri": "data:application/octet-stream;base64,"
    },
    {
      "byteLength": 12672,
      "uri": "data:application/octet-stream;base64,"
    }
  ],
  "bufferViews": [
    {
      "buffer": 0,
      "byteOffset": 0,
      "byteLength": 6180
    },
    {
      "buffer": 1,
      "byteOffset": 0,
      "byteLength": 12672
    },
    {
      "buffer": 2,
      "byteOffset": 0,
      "byteLength": 12672
    },
    {
      "buffer": 3,
      "byteOffset": 0,
      "byteLength": 12672
    }
  ],
  "meshes": [
    {
      "primitives": [
        {
          "mode": 4,
          "indices": 0,
          "attributes": {
            "POSITION": 1,
            "NORMAL": 2,
            "COLOR_0": 3
          }
        }
      ]
    }
  ],
  "nodes": [
    {
      "children": [
        1
      ]
    },
    {
      "mesh": 0
    }
  ],
  "scenes": [
    {
      "nodes": [
        0
      ]
    }
  ],
  "scene": 0
}