{
  "asset": {
    "version": "2.0",
    "generator": "COLLADA2GLTF"
  },
  "accessors": [
    {
      "bufferView": 0,
      "byteOffset": 0,
      "componentType": 5123,
      "count": 5817,
      "min": [
        0
      ],
      "max": [
        3067
      ],
      "type": "SCALAR"
    },
    {
      "bufferView": 1,
      "byteOffset": 0,
      "componentType": 5126,
      "count": 3068,
      "max": [
        930,
        7.5,
        -365.25067138671875
      ],
      "min": [
        630,
        0,
        -780
      ],
      "type": "VEC3"
    },
    {
      "bufferView": 2,
      "byteOffset": 0,
      "componentType": 5126,
      "count": 3068,
      "max": [
        0.9213100671768188,
        1,
        0.9213409423828125
      ],
      "min": [
        -0.9217632412910461,
        0,
        -0.9216054081916809
      ],
      "type": "VEC3"
    },
    {
      "bufferView": 3,
      "byteOffset": 0,
      "componentType": 5126,
      "count": 3068,
      "max": [
        0.999786376953125,
        1,
        0.26330968737602234
      ],
      "min": [
        0.000015259021893143654,
        0.07324330508708954,
        0.00004577706567943096
      ],
      "type": "VEC3"
    }
  ],
  "buffers": [
    {
      "byteLength": 11634,
      "uri": "data:application/octet-stream;base64,"
    },
    {
      "byteLength": 36816,
      "uri": "data:application/octet-stream;base64,"
    },
    {
      "byteLength": 36816,
      "uri": "data:application/octet-stream;base64,"
    },
    {
      "byteLength": 36816,
      "uri": "data:application/octet-stream;base64,"
    }
  ],
  "bufferViews": [
    {
      "buffer": 0,
      "byteOffset": 0,
      "byteLength": 11634
    },
    {
      "buffer": 1,
      "byteOffset": 0,
      "byteLength": 36816
    },
    {
      "buffer": 2,
      "byteOffset": 0,
      "byteLength": 36816
    },
    {
      "buffer": 3,
      "byteOffset": 0,
      "byteLength": 36816
    }
  ],
  "meshes": [
    {
      "primitives": [
        {
          "mode": 4,
          "indices": 0,
          "attributes": {
            "POSITION": 1,
            "NORMAL": 2,
            "COLOR_0": 3
          }
        }
      ]
    }
  ],
  "nodes": [
    {
      "children": [
        1
      ]
    },
    {
      "mesh": 0
    }
  ],
  "scenes": [
    {
      "nodes": [
        0
      ]
    }
  ],
  "scene": 0
}