{
  "asset": {
    "version": "2.0",
    "generator": "COLLADA2GLTF"
  },
  "accessors": [
    {
      "bufferView": 0,
      "byteOffset": 0,
      "componentType": 5123,
      "count": 1320,
      "min": [
        0
      ],
      "max": [
        597
      ],
      "type": "SCALAR"
    },
    {
      "bufferView": 1,
      "byteOffset": 0,
      "componentType": 5126,
      "count": 598,
      "max": [
        1980,
        0,
        889.129638671875
      ],
      "min": [
        1590,
        0,
        565.1214599609375
      ],
      "type": "VEC3"
    },
    {
      "bufferView": 2,
      "byteOffset": 0,
      "componentType": 5126,
      "count": 598,
      "max": [
        0.9214358925819397,
        1,
        0.921347975730896
      ],
      "min": [
        -0.9213733673095703,
        0,
        -0.921500027179718
      ],
      "type": "VEC3"
    },
    {
      "bufferView": 3,
      "byteOffset": 0,
      "componentType": 5126,
      "count": 598,
      "max": [
        0.999786376953125,
        1,
        0.26330968737602234
      ],
      "min": [
        0.000015259021893143654,
        0.07324330508708954,
        0.00004577706567943096
      ],
      "type": "VEC3"
    }
  ],
  "buffers": [
    {
      "byteLength": 2640,
      "uri": "data:application/octet-stream;base64,"
    },
    {
      "byteLength": 7176,
      "uri": "data:application/octet-stream;base64,"
    },
    {
      "byteLength": 7176,
      "uri": "data:application/octet-stream;base64,"
    },
    {
      "byteLength": 7176,
      "uri": "data:application/octet-stream;base64,"
    }
  ],
  "bufferViews": [
    {
      "buffer": 0,
      "byteOffset": 0,
      "byteLength": 2640
    },
    {
      "buffer": 1,
      "byteOffset": 0,
      "byteLength": 7176
    },
    {
      "buffer": 2,
      "byteOffset": 0,
      "byteLength": 7176
    },
    {
      "buffer": 3,
      "byteOffset": 0,
      "byteLength": 7176
    }
  ],
  "meshes": [
    {
      "primitives": [
        {
          "mode": 4,
          "indices": 0,
          "attributes": {
            "POSITION": 1,
            "NORMAL": 2,
            "COLOR_0": 3
          }
        }
      ]
    }
  ],
  "nodes": [
    {
      "children": [
        1
      ]
    },
    {
      "mesh": 0
    }
  ],
  "scenes": [
    {
      "nodes": [
        0
      ]
    }
  ],
  "scene": 0
}