{
  "asset": {
    "version": "2.0",
    "generator": "COLLADA2GLTF"
  },
  "accessors": [
    {
      "bufferView": 0,
      "byteOffset": 0,
      "componentType": 5123,
      "count": 957,
      "min": [
        0
      ],
      "max": [
        413
      ],
      "type": "SCALAR"
    },
    {
      "bufferView": 1,
      "byteOffset": 0,
      "componentType": 5126,
      "count": 414,
      "max": [
        673.3135375976562,
        0.0010000000474974513,
        -376.4924011230469
      ],
      "min": [
        600,
        0,
        -480
      ],
      "type": "VEC3"
    },
    {
      "bufferView": 2,
      "byteOffset": 0,
      "componentType": 5126,
      "count": 414,
      "max": [
        0.865348756313324,
        1,
        0.5011702179908752
      ],
      "min": [
        0,
        0,
        -0.8655767440795898
      ],
      "type": "VEC3"
    },
    {
      "bufferView": 3,
      "byteOffset": 0,
      "componentType": 5126,
      "count": 414,
      "max": [
        0.999786376953125,
        1,
        0.7875028848648071
      ],
      "min": [
        0.000015259021893143654,
        0.07324330508708954,
        0.00004577706567943096
      ],
      "type": "VEC3"
    }
  ],
  "buffers": [
    {
      "byteLength": 1914,
      "uri": "data:application/octet-stream;base64,"
    },
    {
      "byteLength": 4968,
      "uri": "data:application/octet-stream;base64,"
    },
    {
      "byteLength": 4968,
      "uri": "data:application/octet-stream;base64,"
    },
    {
      "byteLength": 4968,
      "uri": "data:application/octet-stream;base64,"
    }
  ],
  "bufferViews": [
    {
      "buffer": 0,
      "byteOffset": 0,
      "byteLength": 1914
    },
    {
      "buffer": 1,
      "byteOffset": 0,
      "byteLength": 4968
    },
    {
      "buffer": 2,
      "byteOffset": 0,
      "byteLength": 4968
    },
    {
      "buffer": 3,
      "byteOffset": 0,
      "byteLength": 4968
    }
  ],
  "meshes": [
    {
      "primitives": [
        {
          "mode": 4,
          "indices": 0,
          "attributes": {
            "POSITION": 1,
            "NORMAL": 2,
            "COLOR_0": 3
          }
        }
      ]
    }
  ],
  "nodes": [
    {
      "children": [
        1
      ]
    },
    {
      "mesh": 0
    }
  ],
  "scenes": [
    {
      "nodes": [
        0
      ]
    }
  ],
  "scene": 0
}