{
  "asset": {
    "version": "2.0",
    "generator": "COLLADA2GLTF"
  },
  "accessors": [
    {
      "bufferView": 0,
      "byteOffset": 0,
      "componentType": 5123,
      "count": 4029,
      "min": [
        0
      ],
      "max": [
        1720
      ],
      "type": "SCALAR"
    },
    {
      "bufferView": 1,
      "byteOffset": 0,
      "componentType": 5126,
      "count": 1721,
      "max": [
        -450,
        5,
        -60
      ],
      "min": [
        -811.5694580078125,
        0,
        -500.2368469238281
      ],
      "type": "VEC3"
    },
    {
      "bufferView": 2,
      "byteOffset": 0,
      "componentType": 5126,
      "count": 1721,
      "max": [
        0.915569543838501,
        1,
        0.9172795414924622
      ],
      "min": [
        -0.9189814925193787,
        0,
        -0.8905543684959412
      ],
      "type": "VEC3"
    },
    {
      "bufferView": 3,
      "byteOffset": 0,
      "componentType": 5126,
      "count": 1721,
      "max": [
        0.999786376953125,
        1,
        0.26330968737602234
      ],
      "min": [
        0.000015259021893143654,
        0.07324330508708954,
        0.00004577706567943096
      ],
      "type": "VEC3"
    }
  ],
  "buffers": [
    {
      "byteLength": 8058,
      "uri": "data:application/octet-stream;base64,"
    },
    {
      "byteLength": 20652,
      "uri": "data:application/octet-stream;base64,"
    },
    {
      "byteLength": 20652,
      "uri": "data:application/octet-stream;base64,"
    },
    {
      "byteLength": 20652,
      "uri": "data:application/octet-stream;base64,"
    }
  ],
  "bufferViews": [
    {
      "buffer": 0,
      "byteOffset": 0,
      "byteLength": 8058
    },
    {
      "buffer": 1,
      "byteOffset": 0,
      "byteLength": 20652
    },
    {
      "buffer": 2,
      "byteOffset": 0,
      "byteLength": 20652
    },
    {
      "buffer": 3,
      "byteOffset": 0,
      "byteLength": 20652
    }
  ],
  "meshes": [
    {
      "primitives": [
        {
          "mode": 4,
          "indices": 0,
          "attributes": {
            "POSITION": 1,
            "NORMAL": 2,
            "COLOR_0": 3
          }
        }
      ]
    }
  ],
  "nodes": [
    {
      "children": [
        1
      ]
    },
    {
      "mesh": 0
    }
  ],
  "scenes": [
    {
      "nodes": [
        0
      ]
    }
  ],
  "scene": 0
}