{
  "asset": {
    "version": "2.0",
    "generator": "COLLADA2GLTF"
  },
  "accessors": [
    {
      "bufferView": 0,
      "byteOffset": 0,
      "componentType": 5123,
      "count": 297,
      "min": [
        0
      ],
      "max": [
        112
      ],
      "type": "SCALAR"
    },
    {
      "bufferView": 1,
      "byteOffset": 0,
      "componentType": 5126,
      "count": 113,
      "max": [
        -627.90576171875,
        0,
        816.1419677734375
      ],
      "min": [
        -810.357177734375,
        -3,
        665.8875122070312
      ],
      "type": "VEC3"
    },
    {
      "bufferView": 2,
      "byteOffset": 0,
      "componentType": 5126,
      "count": 113,
      "max": [
        0.7685348391532898,
        1,
        0.7685348391532898
      ],
      "min": [
        -0.7685348391532898,
        0,
        -0.7685348391532898
      ],
      "type": "VEC3"
    },
    {
      "bufferView": 3,
      "byteOffset": 0,
      "componentType": 5126,
      "count": 113,
      "max": [
        0.21585412323474884,
        0.21585412323474884,
        0.21589989960193634
      ],
      "min": [
        0.21585412323474884,
        0.21585412323474884,
        0.21589989960193634
      ],
      "type": "VEC3"
    }
  ],
  "buffers": [
    {
      "byteLength": 594,
      "uri": "data:application/octet-stream;base64,"
    },
    {
      "byteLength": 1356,
      "uri": "data:application/octet-stream;base64,"
    },
    {
      "byteLength": 1356,
      "uri": "data:application/octet-stream;base64,"
    },
    {
      "byteLength": 1356,
      "uri": "data:application/octet-stream;base64,"
    }
  ],
  "bufferViews": [
    {
      "buffer": 0,
      "byteOffset": 0,
      "byteLength": 594
    },
    {
      "buffer": 1,
      "byteOffset": 0,
      "byteLength": 1356
    },
    {
      "buffer": 2,
      "byteOffset": 0,
      "byteLength": 1356
    },
    {
      "buffer": 3,
      "byteOffset": 0,
      "byteLength": 1356
    }
  ],
  "meshes": [
    {
      "primitives": [
        {
          "mode": 4,
          "indices": 0,
          "attributes": {
            "POSITION": 1,
            "NORMAL": 2,
            "COLOR_0": 3
          }
        }
      ]
    }
  ],
  "nodes": [
    {
      "children": [
        1
      ]
    },
    {
      "mesh": 0
    }
  ],
  "scenes": [
    {
      "nodes": [
        0
      ]
    }
  ],
  "scene": 0
}