{
  "asset": {
    "version": "2.0",
    "generator": "COLLADA2GLTF"
  },
  "accessors": [
    {
      "bufferView": 0,
      "byteOffset": 0,
      "componentType": 5123,
      "count": 4428,
      "min": [
        0
      ],
      "max": [
        1607
      ],
      "type": "SCALAR"
    },
    {
      "bufferView": 1,
      "byteOffset": 0,
      "componentType": 5126,
      "count": 1608,
      "max": [
        3656.09765625,
        19.5,
        6870.32373046875
      ],
      "min": [
        3034.8125,
        7,
        6368.0087890625
      ],
      "type": "VEC3"
    },
    {
      "bufferView": 2,
      "byteOffset": 0,
      "componentType": 5126,
      "count": 1608,
      "max": [
        0.7921236753463745,
        0.7071026563644409,
        0.7921236753463745
      ],
      "min": [
        -0.7921236753463745,
        -0.7071026563644409,
        -0.7921236753463745
      ],
      "type": "VEC3"
    },
    {
      "bufferView": 3,
      "byteOffset": 0,
      "componentType": 5126,
      "count": 1608,
      "max": [
        0.4480048716068268,
        0.4480048716068268,
        0.4480659067630768
      ],
      "min": [
        0,
        0,
        0
      ],
      "type": "VEC3"
    }
  ],
  "buffers": [
    {
      "byteLength": 8856,
      "uri": "data:application/octet-stream;base64,"
    },
    {
      "byteLength": 19296,
      "uri": "data:application/octet-stream;base64,"
    },
    {
      "byteLength": 19296,
      "uri": "data:application/octet-stream;base64,"
    },
    {
      "byteLength": 19296,
      "uri": "data:application/octet-stream;base64,"
    }
  ],
  "bufferViews": [
    {
      "buffer": 0,
      "byteOffset": 0,
      "byteLength": 8856
    },
    {
      "buffer": 1,
      "byteOffset": 0,
      "byteLength": 19296
    },
    {
      "buffer": 2,
      "byteOffset": 0,
      "byteLength": 19296
    },
    {
      "buffer": 3,
      "byteOffset": 0,
      "byteLength": 19296
    }
  ],
  "meshes": [
    {
      "primitives": [
        {
          "mode": 4,
          "indices": 0,
          "attributes": {
            "POSITION": 1,
            "NORMAL": 2,
            "COLOR_0": 3
          }
        }
      ]
    }
  ],
  "nodes": [
    {
      "children": [
        1
      ]
    },
    {
      "mesh": 0
    }
  ],
  "scenes": [
    {
      "nodes": [
        0
      ]
    }
  ],
  "scene": 0
}