{
  "asset": {
    "version": "2.0",
    "generator": "COLLADA2GLTF"
  },
  "accessors": [
    {
      "bufferView": 0,
      "byteOffset": 0,
      "componentType": 5123,
      "count": 1113,
      "min": [
        0
      ],
      "max": [
        604
      ],
      "type": "SCALAR"
    },
    {
      "bufferView": 1,
      "byteOffset": 0,
      "componentType": 5126,
      "count": 605,
      "max": [
        849.8280029296875,
        7.5,
        -30.891000747680664
      ],
      "min": [
        729.1519775390625,
        0,
        -310.8070068359375
      ],
      "type": "VEC3"
    },
    {
      "bufferView": 2,
      "byteOffset": 0,
      "componentType": 5126,
      "count": 605,
      "max": [
        0.9164254069328308,
        0,
        0.916421115398407
      ],
      "min": [
        -0.9168214797973633,
        0,
        -0.9168418645858765
      ],
      "type": "VEC3"
    },
    {
      "bufferView": 3,
      "byteOffset": 0,
      "componentType": 5126,
      "count": 605,
      "max": [
        0.999786376953125,
        0.7875181436538696,
        0.26330968737602234
      ],
      "min": [
        0.999786376953125,
        0.7875181436538696,
        0.26330968737602234
      ],
      "type": "VEC3"
    }
  ],
  "buffers": [
    {
      "byteLength": 2226,
      "uri": "data:application/octet-stream;base64,"
    },
    {
      "byteLength": 7260,
      "uri": "data:application/octet-stream;base64,"
    },
    {
      "byteLength": 7260,
      "uri": "data:application/octet-stream;base64,"
    },
    {
      "byteLength": 7260,
      "uri": "data:application/octet-stream;base64,"
    }
  ],
  "bufferViews": [
    {
      "buffer": 0,
      "byteOffset": 0,
      "byteLength": 2226
    },
    {
      "buffer": 1,
      "byteOffset": 0,
      "byteLength": 7260
    },
    {
      "buffer": 2,
      "byteOffset": 0,
      "byteLength": 7260
    },
    {
      "buffer": 3,
      "byteOffset": 0,
      "byteLength": 7260
    }
  ],
  "meshes": [
    {
      "primitives": [
        {
          "mode": 4,
          "indices": 0,
          "attributes": {
            "POSITION": 1,
            "NORMAL": 2,
            "COLOR_0": 3
          }
        }
      ]
    }
  ],
  "nodes": [
    {
      "children": [
        1
      ]
    },
    {
      "mesh": 0
    }
  ],
  "scenes": [
    {
      "nodes": [
        0
      ]
    }
  ],
  "scene": 0
}