{
  "asset": {
    "version": "2.0",
    "generator": "COLLADA2GLTF"
  },
  "accessors": [
    {
      "bufferView": 0,
      "byteOffset": 0,
      "componentType": 5123,
      "count": 3441,
      "min": [
        0
      ],
      "max": [
        1258
      ],
      "type": "SCALAR"
    },
    {
      "bufferView": 1,
      "byteOffset": 0,
      "componentType": 5126,
      "count": 1259,
      "max": [
        -411.0880432128906,
        0.10000000149011612,
        542.7349853515625
      ],
      "min": [
        -506.4512939453125,
        -0.20000000298023224,
        390
      ],
      "type": "VEC3"
    },
    {
      "bufferView": 2,
      "byteOffset": 0,
      "componentType": 5126,
      "count": 1259,
      "max": [
        0.8120428323745728,
        1,
        0.7968002557754517
      ],
      "min": [
        -0.8300893306732178,
        -1,
        -0.8039804697036743
      ],
      "type": "VEC3"
    },
    {
      "bufferView": 3,
      "byteOffset": 0,
      "componentType": 5126,
      "count": 1259,
      "max": [
        0.999786376953125,
        1,
        0.7875028848648071
      ],
      "min": [
        0.000015259021893143654,
        0.07324330508708954,
        0.00004577706567943096
      ],
      "type": "VEC3"
    }
  ],
  "buffers": [
    {
      "byteLength": 6882,
      "uri": "data:application/octet-stream;base64,"
    },
    {
      "byteLength": 15108,
      "uri": "data:application/octet-stream;base64,"
    },
    {
      "byteLength": 15108,
      "uri": "data:application/octet-stream;base64,"
    },
    {
      "byteLength": 15108,
      "uri": "data:application/octet-stream;base64,"
    }
  ],
  "bufferViews": [
    {
      "buffer": 0,
      "byteOffset": 0,
      "byteLength": 6882
    },
    {
      "buffer": 1,
      "byteOffset": 0,
      "byteLength": 15108
    },
    {
      "buffer": 2,
      "byteOffset": 0,
      "byteLength": 15108
    },
    {
      "buffer": 3,
      "byteOffset": 0,
      "byteLength": 15108
    }
  ],
  "meshes": [
    {
      "primitives": [
        {
          "mode": 4,
          "indices": 0,
          "attributes": {
            "POSITION": 1,
            "NORMAL": 2,
            "COLOR_0": 3
          }
        }
      ]
    }
  ],
  "nodes": [
    {
      "children": [
        1
      ]
    },
    {
      "mesh": 0
    }
  ],
  "scenes": [
    {
      "nodes": [
        0
      ]
    }
  ],
  "scene": 0
}