{
  "asset": {
    "version": "2.0",
    "generator": "COLLADA2GLTF"
  },
  "accessors": [
    {
      "bufferView": 0,
      "byteOffset": 0,
      "componentType": 5123,
      "count": 2181,
      "min": [
        0
      ],
      "max": [
        775
      ],
      "type": "SCALAR"
    },
    {
      "bufferView": 1,
      "byteOffset": 0,
      "componentType": 5126,
      "count": 776,
      "max": [
        -2090.895751953125,
        0.14777499437332153,
        1859.2012939453125
      ],
      "min": [
        -2174.937255859375,
        0,
        1827.9595947265625
      ],
      "type": "VEC3"
    },
    {
      "bufferView": 2,
      "byteOffset": 0,
      "componentType": 5126,
      "count": 776,
      "max": [
        0.9377452731132507,
        1,
        0.9377452731132507
      ],
      "min": [
        -0.9377452731132507,
        -0.9486833214759827,
        -0.9377452731132507
      ],
      "type": "VEC3"
    },
    {
      "bufferView": 3,
      "byteOffset": 0,
      "componentType": 5126,
      "count": 776,
      "max": [
        0.5774929523468018,
        0.5776150226593018,
        0.5776455402374268
      ],
      "min": [
        0.07322804629802704,
        0.03309682011604309,
        0.03311207890510559
      ],
      "type": "VEC3"
    }
  ],
  "buffers": [
    {
      "byteLength": 4362,
      "uri": "data:application/octet-stream;base64,"
    },
    {
      "byteLength": 9312,
      "uri": "data:application/octet-stream;base64,"
    },
    {
      "byteLength": 9312,
      "uri": "data:application/octet-stream;base64,"
    },
    {
      "byteLength": 9312,
      "uri": "data:application/octet-stream;base64,"
    }
  ],
  "bufferViews": [
    {
      "buffer": 0,
      "byteOffset": 0,
      "byteLength": 4362
    },
    {
      "buffer": 1,
      "byteOffset": 0,
      "byteLength": 9312
    },
    {
      "buffer": 2,
      "byteOffset": 0,
      "byteLength": 9312
    },
    {
      "buffer": 3,
      "byteOffset": 0,
      "byteLength": 9312
    }
  ],
  "meshes": [
    {
      "primitives": [
        {
          "mode": 4,
          "indices": 0,
          "attributes": {
            "POSITION": 1,
            "NORMAL": 2,
            "COLOR_0": 3
          }
        }
      ]
    }
  ],
  "nodes": [
    {
      "children": [
        1
      ]
    },
    {
      "mesh": 0
    }
  ],
  "scenes": [
    {
      "nodes": [
        0
      ]
    }
  ],
  "scene": 0
}