{
  "asset": {
    "version": "2.0",
    "generator": "COLLADA2GLTF"
  },
  "accessors": [
    {
      "bufferView": 0,
      "byteOffset": 0,
      "componentType": 5123,
      "count": 2373,
      "min": [
        0
      ],
      "max": [
        967
      ],
      "type": "SCALAR"
    },
    {
      "bufferView": 1,
      "byteOffset": 0,
      "componentType": 5126,
      "count": 968,
      "max": [
        -2010,
        2.299999952316284,
        2039.36865234375
      ],
      "min": [
        -2310,
        -0.5,
        1830
      ],
      "type": "VEC3"
    },
    {
      "bufferView": 2,
      "byteOffset": 0,
      "componentType": 5126,
      "count": 968,
      "max": [
        0.9980362057685852,
        1,
        1
      ],
      "min": [
        -0.9980239868164062,
        -1,
        -0.9594929814338684
      ],
      "type": "VEC3"
    },
    {
      "bufferView": 3,
      "byteOffset": 0,
      "componentType": 5126,
      "count": 968,
      "max": [
        0.7872740030288696,
        1,
        0.7875028848648071
      ],
      "min": [
        0.000015259021893143654,
        0.07324330508708954,
        0.00004577706567943096
      ],
      "type": "VEC3"
    }
  ],
  "buffers": [
    {
      "byteLength": 4746,
      "uri": "data:application/octet-stream;base64,"
    },
    {
      "byteLength": 11616,
      "uri": "data:application/octet-stream;base64,"
    },
    {
      "byteLength": 11616,
      "uri": "data:application/octet-stream;base64,"
    },
    {
      "byteLength": 11616,
      "uri": "data:application/octet-stream;base64,"
    }
  ],
  "bufferViews": [
    {
      "buffer": 0,
      "byteOffset": 0,
      "byteLength": 4746
    },
    {
      "buffer": 1,
      "byteOffset": 0,
      "byteLength": 11616
    },
    {
      "buffer": 2,
      "byteOffset": 0,
      "byteLength": 11616
    },
    {
      "buffer": 3,
      "byteOffset": 0,
      "byteLength": 11616
    }
  ],
  "meshes": [
    {
      "primitives": [
        {
          "mode": 4,
          "indices": 0,
          "attributes": {
            "POSITION": 1,
            "NORMAL": 2,
            "COLOR_0": 3
          }
        }
      ]
    }
  ],
  "nodes": [
    {
      "children": [
        1
      ]
    },
    {
      "mesh": 0
    }
  ],
  "scenes": [
    {
      "nodes": [
        0
      ]
    }
  ],
  "scene": 0
}