{
  "asset": {
    "version": "2.0",
    "generator": "COLLADA2GLTF"
  },
  "accessors": [
    {
      "bufferView": 0,
      "byteOffset": 0,
      "componentType": 5123,
      "count": 3402,
      "min": [
        0
      ],
      "max": [
        1277
      ],
      "type": "SCALAR"
    },
    {
      "bufferView": 1,
      "byteOffset": 0,
      "componentType": 5126,
      "count": 1278,
      "max": [
        3505.031005859375,
        0.10000000149011612,
        -1506.2333984375
      ],
      "min": [
        3491.25341796875,
        0,
        -1525.071044921875
      ],
      "type": "VEC3"
    },
    {
      "bufferView": 2,
      "byteOffset": 0,
      "componentType": 5126,
      "count": 1278,
      "max": [
        0.8179501891136169,
        0.9491028785705566,
        0.8132079839706421
      ],
      "min": [
        -0.8179501891136169,
        0,
        -0.8179501891136169
      ],
      "type": "VEC3"
    },
    {
      "bufferView": 3,
      "byteOffset": 0,
      "componentType": 5126,
      "count": 1278,
      "max": [
        0.07322804629802704,
        0.07324330508708954,
        0.07325856387615204
      ],
      "min": [
        0.07322804629802704,
        0.07324330508708954,
        0.07325856387615204
      ],
      "type": "VEC3"
    }
  ],
  "buffers": [
    {
      "byteLength": 6804,
      "uri": "data:application/octet-stream;base64,"
    },
    {
      "byteLength": 15336,
      "uri": "data:application/octet-stream;base64,"
    },
    {
      "byteLength": 15336,
      "uri": "data:application/octet-stream;base64,"
    },
    {
      "byteLength": 15336,
      "uri": "data:application/octet-stream;base64,"
    }
  ],
  "bufferViews": [
    {
      "buffer": 0,
      "byteOffset": 0,
      "byteLength": 6804
    },
    {
      "buffer": 1,
      "byteOffset": 0,
      "byteLength": 15336
    },
    {
      "buffer": 2,
      "byteOffset": 0,
      "byteLength": 15336
    },
    {
      "buffer": 3,
      "byteOffset": 0,
      "byteLength": 15336
    }
  ],
  "meshes": [
    {
      "primitives": [
        {
          "mode": 4,
          "indices": 0,
          "attributes": {
            "POSITION": 1,
            "NORMAL": 2,
            "COLOR_0": 3
          }
        }
      ]
    }
  ],
  "nodes": [
    {
      "children": [
        1
      ]
    },
    {
      "mesh": 0
    }
  ],
  "scenes": [
    {
      "nodes": [
        0
      ]
    }
  ],
  "scene": 0
}