{
  "asset": {
    "version": "2.0",
    "generator": "COLLADA2GLTF"
  },
  "accessors": [
    {
      "bufferView": 0,
      "byteOffset": 0,
      "componentType": 5123,
      "count": 1116,
      "min": [
        0
      ],
      "max": [
        407
      ],
      "type": "SCALAR"
    },
    {
      "bufferView": 1,
      "byteOffset": 0,
      "componentType": 5126,
      "count": 408,
      "max": [
        13.574275970458984,
        0,
        38.61391830444336
      ],
      "min": [
        -38.000553131103516,
        -3,
        -25.009620666503906
      ],
      "type": "VEC3"
    },
    {
      "bufferView": 2,
      "byteOffset": 0,
      "componentType": 5126,
      "count": 408,
      "max": [
        0.8308483958244324,
        1,
        0.830852210521698
      ],
      "min": [
        -0.8308483958244324,
        -1,
        -0.8308483958244324
      ],
      "type": "VEC3"
    },
    {
      "bufferView": 3,
      "byteOffset": 0,
      "componentType": 5126,
      "count": 408,
      "max": [
        0.21585412323474884,
        0.21585412323474884,
        0.21589989960193634
      ],
      "min": [
        0.21585412323474884,
        0.21585412323474884,
        0.21589989960193634
      ],
      "type": "VEC3"
    }
  ],
  "buffers": [
    {
      "byteLength": 2232,
      "uri": "data:application/octet-stream;base64,"
    },
    {
      "byteLength": 4896,
      "uri": "data:application/octet-stream;base64,"
    },
    {
      "byteLength": 4896,
      "uri": "data:application/octet-stream;base64,"
    },
    {
      "byteLength": 4896,
      "uri": "data:application/octet-stream;base64,"
    }
  ],
  "bufferViews": [
    {
      "buffer": 0,
      "byteOffset": 0,
      "byteLength": 2232
    },
    {
      "buffer": 1,
      "byteOffset": 0,
      "byteLength": 4896
    },
    {
      "buffer": 2,
      "byteOffset": 0,
      "byteLength": 4896
    },
    {
      "buffer": 3,
      "byteOffset": 0,
      "byteLength": 4896
    }
  ],
  "meshes": [
    {
      "primitives": [
        {
          "mode": 4,
          "indices": 0,
          "attributes": {
            "POSITION": 1,
            "NORMAL": 2,
            "COLOR_0": 3
          }
        }
      ]
    }
  ],
  "nodes": [
    {
      "children": [
        1
      ]
    },
    {
      "mesh": 0
    }
  ],
  "scenes": [
    {
      "nodes": [
        0
      ]
    }
  ],
  "scene": 0
}