{
  "asset": {
    "version": "2.0",
    "generator": "COLLADA2GLTF"
  },
  "accessors": [
    {
      "bufferView": 0,
      "byteOffset": 0,
      "componentType": 5123,
      "count": 8499,
      "min": [
        0
      ],
      "max": [
        2908
      ],
      "type": "SCALAR"
    },
    {
      "bufferView": 1,
      "byteOffset": 0,
      "componentType": 5126,
      "count": 2909,
      "max": [
        -570.2918090820312,
        0.10000000149011612,
        420.409423828125
      ],
      "min": [
        -705.0949096679688,
        0,
        294.336181640625
      ],
      "type": "VEC3"
    },
    {
      "bufferView": 2,
      "byteOffset": 0,
      "componentType": 5126,
      "count": 2909,
      "max": [
        0.7968002557754517,
        1,
        0.7968002557754517
      ],
      "min": [
        -0.6050529479980469,
        -1,
        -0.7968002557754517
      ],
      "type": "VEC3"
    },
    {
      "bufferView": 3,
      "byteOffset": 0,
      "componentType": 5126,
      "count": 2909,
      "max": [
        0.7872740030288696,
        1,
        0.7875028848648071
      ],
      "min": [
        0.000015259021893143654,
        0.07324330508708954,
        0.00004577706567943096
      ],
      "type": "VEC3"
    }
  ],
  "buffers": [
    {
      "byteLength": 16998,
      "uri": "data:application/octet-stream;base64,"
    },
    {
      "byteLength": 34908,
      "uri": "data:application/octet-stream;base64,"
    },
    {
      "byteLength": 34908,
      "uri": "data:application/octet-stream;base64,"
    },
    {
      "byteLength": 34908,
      "uri": "data:application/octet-stream;base64,"
    }
  ],
  "bufferViews": [
    {
      "buffer": 0,
      "byteOffset": 0,
      "byteLength": 16998
    },
    {
      "buffer": 1,
      "byteOffset": 0,
      "byteLength": 34908
    },
    {
      "buffer": 2,
      "byteOffset": 0,
      "byteLength": 34908
    },
    {
      "buffer": 3,
      "byteOffset": 0,
      "byteLength": 34908
    }
  ],
  "meshes": [
    {
      "primitives": [
        {
          "mode": 4,
          "indices": 0,
          "attributes": {
            "POSITION": 1,
            "NORMAL": 2,
            "COLOR_0": 3
          }
        }
      ]
    }
  ],
  "nodes": [
    {
      "children": [
        1
      ]
    },
    {
      "mesh": 0
    }
  ],
  "scenes": [
    {
      "nodes": [
        0
      ]
    }
  ],
  "scene": 0
}