{
  "asset": {
    "version": "2.0",
    "generator": "COLLADA2GLTF"
  },
  "accessors": [
    {
      "bufferView": 0,
      "byteOffset": 0,
      "componentType": 5123,
      "count": 3609,
      "min": [
        0
      ],
      "max": [
        1342
      ],
      "type": "SCALAR"
    },
    {
      "bufferView": 1,
      "byteOffset": 0,
      "componentType": 5126,
      "count": 1343,
      "max": [
        -2910,
        0.14777499437332153,
        1440
      ],
      "min": [
        -3209.52880859375,
        0,
        1141.5013427734375
      ],
      "type": "VEC3"
    },
    {
      "bufferView": 2,
      "byteOffset": 0,
      "componentType": 5126,
      "count": 1343,
      "max": [
        0.8316106200218201,
        1,
        0.8362185955047607
      ],
      "min": [
        -0.8316106200218201,
        -0.9486833214759827,
        -0.8316138386726379
      ],
      "type": "VEC3"
    },
    {
      "bufferView": 3,
      "byteOffset": 0,
      "componentType": 5126,
      "count": 1343,
      "max": [
        0.999786376953125,
        1,
        0.5776455402374268
      ],
      "min": [
        0.000015259021893143654,
        0.03309682011604309,
        0.00004577706567943096
      ],
      "type": "VEC3"
    }
  ],
  "buffers": [
    {
      "byteLength": 7218,
      "uri": "data:application/octet-stream;base64,"
    },
    {
      "byteLength": 16116,
      "uri": "data:application/octet-stream;base64,"
    },
    {
      "byteLength": 16116,
      "uri": "data:application/octet-stream;base64,"
    },
    {
      "byteLength": 16116,
      "uri": "data:application/octet-stream;base64,"
    }
  ],
  "bufferViews": [
    {
      "buffer": 0,
      "byteOffset": 0,
      "byteLength": 7218
    },
    {
      "buffer": 1,
      "byteOffset": 0,
      "byteLength": 16116
    },
    {
      "buffer": 2,
      "byteOffset": 0,
      "byteLength": 16116
    },
    {
      "buffer": 3,
      "byteOffset": 0,
      "byteLength": 16116
    }
  ],
  "meshes": [
    {
      "primitives": [
        {
          "mode": 4,
          "indices": 0,
          "attributes": {
            "POSITION": 1,
            "NORMAL": 2,
            "COLOR_0": 3
          }
        }
      ]
    }
  ],
  "nodes": [
    {
      "children": [
        1
      ]
    },
    {
      "mesh": 0
    }
  ],
  "scenes": [
    {
      "nodes": [
        0
      ]
    }
  ],
  "scene": 0
}