{
  "asset": {
    "version": "2.0",
    "generator": "COLLADA2GLTF"
  },
  "accessors": [
    {
      "bufferView": 0,
      "byteOffset": 0,
      "componentType": 5123,
      "count": 1857,
      "min": [
        0
      ],
      "max": [
        934
      ],
      "type": "SCALAR"
    },
    {
      "bufferView": 1,
      "byteOffset": 0,
      "componentType": 5126,
      "count": 935,
      "max": [
        1096.446044921875,
        7.5,
        -689.0599975585938
      ],
      "min": [
        930.8939819335938,
        0,
        -1029.5810546875
      ],
      "type": "VEC3"
    },
    {
      "bufferView": 2,
      "byteOffset": 0,
      "componentType": 5126,
      "count": 935,
      "max": [
        0.9044415950775146,
        1,
        0.9933190941810608
      ],
      "min": [
        -0.9107199907302856,
        0,
        -0.9229079484939575
      ],
      "type": "VEC3"
    },
    {
      "bufferView": 3,
      "byteOffset": 0,
      "componentType": 5126,
      "count": 935,
      "max": [
        0.999786376953125,
        0.7875181436538696,
        0.26330968737602234
      ],
      "min": [
        0.6036774516105652,
        0.00003051804378628731,
        0
      ],
      "type": "VEC3"
    }
  ],
  "buffers": [
    {
      "byteLength": 3714,
      "uri": "data:application/octet-stream;base64,"
    },
    {
      "byteLength": 11220,
      "uri": "data:application/octet-stream;base64,"
    },
    {
      "byteLength": 11220,
      "uri": "data:application/octet-stream;base64,"
    },
    {
      "byteLength": 11220,
      "uri": "data:application/octet-stream;base64,"
    }
  ],
  "bufferViews": [
    {
      "buffer": 0,
      "byteOffset": 0,
      "byteLength": 3714
    },
    {
      "buffer": 1,
      "byteOffset": 0,
      "byteLength": 11220
    },
    {
      "buffer": 2,
      "byteOffset": 0,
      "byteLength": 11220
    },
    {
      "buffer": 3,
      "byteOffset": 0,
      "byteLength": 11220
    }
  ],
  "meshes": [
    {
      "primitives": [
        {
          "mode": 4,
          "indices": 0,
          "attributes": {
            "POSITION": 1,
            "NORMAL": 2,
            "COLOR_0": 3
          }
        }
      ]
    }
  ],
  "nodes": [
    {
      "children": [
        1
      ]
    },
    {
      "mesh": 0
    }
  ],
  "scenes": [
    {
      "nodes": [
        0
      ]
    }
  ],
  "scene": 0
}