{
  "asset": {
    "version": "2.0",
    "generator": "COLLADA2GLTF"
  },
  "accessors": [
    {
      "bufferView": 0,
      "byteOffset": 0,
      "componentType": 5123,
      "count": 2316,
      "min": [
        0
      ],
      "max": [
        1329
      ],
      "type": "SCALAR"
    },
    {
      "bufferView": 1,
      "byteOffset": 0,
      "componentType": 5126,
      "count": 1330,
      "max": [
        216.30177307128906,
        55,
        1646.4019775390625
      ],
      "min": [
        -824.8709716796875,
        0,
        1059.29296875
      ],
      "type": "VEC3"
    },
    {
      "bufferView": 2,
      "byteOffset": 0,
      "componentType": 5126,
      "count": 1330,
      "max": [
        0.9997212290763855,
        1,
        0.9999005198478699
      ],
      "min": [
        -0.9999013543128967,
        0,
        -0.9997302293777466
      ],
      "type": "VEC3"
    },
    {
      "bufferView": 3,
      "byteOffset": 0,
      "componentType": 5126,
      "count": 1330,
      "max": [
        0.999786376953125,
        0.7875181436538696,
        0.26330968737602234
      ],
      "min": [
        0.6036774516105652,
        0.00003051804378628731,
        0
      ],
      "type": "VEC3"
    }
  ],
  "buffers": [
    {
      "byteLength": 4632,
      "uri": "data:application/octet-stream;base64,"
    },
    {
      "byteLength": 15960,
      "uri": "data:application/octet-stream;base64,"
    },
    {
      "byteLength": 15960,
      "uri": "data:application/octet-stream;base64,"
    },
    {
      "byteLength": 15960,
      "uri": "data:application/octet-stream;base64,"
    }
  ],
  "bufferViews": [
    {
      "buffer": 0,
      "byteOffset": 0,
      "byteLength": 4632
    },
    {
      "buffer": 1,
      "byteOffset": 0,
      "byteLength": 15960
    },
    {
      "buffer": 2,
      "byteOffset": 0,
      "byteLength": 15960
    },
    {
      "buffer": 3,
      "byteOffset": 0,
      "byteLength": 15960
    }
  ],
  "meshes": [
    {
      "primitives": [
        {
          "mode": 4,
          "indices": 0,
          "attributes": {
            "POSITION": 1,
            "NORMAL": 2,
            "COLOR_0": 3
          }
        }
      ]
    }
  ],
  "nodes": [
    {
      "children": [
        1
      ]
    },
    {
      "mesh": 0
    }
  ],
  "scenes": [
    {
      "nodes": [
        0
      ]
    }
  ],
  "scene": 0
}