{
  "asset": {
    "version": "2.0",
    "generator": "COLLADA2GLTF"
  },
  "accessors": [
    {
      "bufferView": 0,
      "byteOffset": 0,
      "componentType": 5123,
      "count": 177,
      "min": [
        0
      ],
      "max": [
        66
      ],
      "type": "SCALAR"
    },
    {
      "bufferView": 1,
      "byteOffset": 0,
      "componentType": 5126,
      "count": 67,
      "max": [
        -410.1933288574219,
        0,
        991.5343627929688
      ],
      "min": [
        -452.55596923828125,
        -3,
        971.1701049804688
      ],
      "type": "VEC3"
    },
    {
      "bufferView": 2,
      "byteOffset": 0,
      "componentType": 5126,
      "count": 67,
      "max": [
        0.946588397026062,
        1,
        0.9465885162353516
      ],
      "min": [
        -0.946588397026062,
        -1,
        -0.946588397026062
      ],
      "type": "VEC3"
    },
    {
      "bufferView": 3,
      "byteOffset": 0,
      "componentType": 5126,
      "count": 67,
      "max": [
        0.21585412323474884,
        0.21585412323474884,
        0.21589989960193634
      ],
      "min": [
        0.21585412323474884,
        0.21585412323474884,
        0.21589989960193634
      ],
      "type": "VEC3"
    }
  ],
  "buffers": [
    {
      "byteLength": 354,
      "uri": "data:application/octet-stream;base64,"
    },
    {
      "byteLength": 804,
      "uri": "data:application/octet-stream;base64,"
    },
    {
      "byteLength": 804,
      "uri": "data:application/octet-stream;base64,"
    },
    {
      "byteLength": 804,
      "uri": "data:application/octet-stream;base64,"
    }
  ],
  "bufferViews": [
    {
      "buffer": 0,
      "byteOffset": 0,
      "byteLength": 354
    },
    {
      "buffer": 1,
      "byteOffset": 0,
      "byteLength": 804
    },
    {
      "buffer": 2,
      "byteOffset": 0,
      "byteLength": 804
    },
    {
      "buffer": 3,
      "byteOffset": 0,
      "byteLength": 804
    }
  ],
  "meshes": [
    {
      "primitives": [
        {
          "mode": 4,
          "indices": 0,
          "attributes": {
            "POSITION": 1,
            "NORMAL": 2,
            "COLOR_0": 3
          }
        }
      ]
    }
  ],
  "nodes": [
    {
      "children": [
        1
      ]
    },
    {
      "mesh": 0
    }
  ],
  "scenes": [
    {
      "nodes": [
        0
      ]
    }
  ],
  "scene": 0
}