{
  "asset": {
    "version": "2.0",
    "generator": "COLLADA2GLTF"
  },
  "accessors": [
    {
      "bufferView": 0,
      "byteOffset": 0,
      "componentType": 5123,
      "count": 2415,
      "min": [
        0
      ],
      "max": [
        1544
      ],
      "type": "SCALAR"
    },
    {
      "bufferView": 1,
      "byteOffset": 0,
      "componentType": 5126,
      "count": 1545,
      "max": [
        1393.9019775390625,
        100,
        -1663.9410400390625
      ],
      "min": [
        794.1441040039062,
        0,
        -1805.678955078125
      ],
      "type": "VEC3"
    },
    {
      "bufferView": 2,
      "byteOffset": 0,
      "componentType": 5126,
      "count": 1545,
      "max": [
        0.9648298621177673,
        1,
        0.9900304079055786
      ],
      "min": [
        -0.9961647987365723,
        0,
        -0.9783145189285278
      ],
      "type": "VEC3"
    },
    {
      "bufferView": 3,
      "byteOffset": 0,
      "componentType": 5126,
      "count": 1545,
      "max": [
        0.999786376953125,
        0.7875181436538696,
        0.26330968737602234
      ],
      "min": [
        0.6036774516105652,
        0.00003051804378628731,
        0
      ],
      "type": "VEC3"
    }
  ],
  "buffers": [
    {
      "byteLength": 4830,
      "uri": "data:application/octet-stream;base64,"
    },
    {
      "byteLength": 18540,
      "uri": "data:application/octet-stream;base64,"
    },
    {
      "byteLength": 18540,
      "uri": "data:application/octet-stream;base64,"
    },
    {
      "byteLength": 18540,
      "uri": "data:application/octet-stream;base64,"
    }
  ],
  "bufferViews": [
    {
      "buffer": 0,
      "byteOffset": 0,
      "byteLength": 4830
    },
    {
      "buffer": 1,
      "byteOffset": 0,
      "byteLength": 18540
    },
    {
      "buffer": 2,
      "byteOffset": 0,
      "byteLength": 18540
    },
    {
      "buffer": 3,
      "byteOffset": 0,
      "byteLength": 18540
    }
  ],
  "meshes": [
    {
      "primitives": [
        {
          "mode": 4,
          "indices": 0,
          "attributes": {
            "POSITION": 1,
            "NORMAL": 2,
            "COLOR_0": 3
          }
        }
      ]
    }
  ],
  "nodes": [
    {
      "children": [
        1
      ]
    },
    {
      "mesh": 0
    }
  ],
  "scenes": [
    {
      "nodes": [
        0
      ]
    }
  ],
  "scene": 0
}