{
  "asset": {
    "version": "2.0",
    "generator": "COLLADA2GLTF"
  },
  "accessors": [
    {
      "bufferView": 0,
      "byteOffset": 0,
      "componentType": 5123,
      "count": 4446,
      "min": [
        0
      ],
      "max": [
        1490
      ],
      "type": "SCALAR"
    },
    {
      "bufferView": 1,
      "byteOffset": 0,
      "componentType": 5126,
      "count": 1491,
      "max": [
        1069.5325927734375,
        0.06400000303983688,
        2962.509521484375
      ],
      "min": [
        515.0847778320312,
        0,
        2766.487548828125
      ],
      "type": "VEC3"
    },
    {
      "bufferView": 2,
      "byteOffset": 0,
      "componentType": 5126,
      "count": 1491,
      "max": [
        0.9421535134315491,
        1,
        0.9421535134315491
      ],
      "min": [
        -0.9421535134315491,
        0,
        -0.9421535134315491
      ],
      "type": "VEC3"
    },
    {
      "bufferView": 3,
      "byteOffset": 0,
      "componentType": 5126,
      "count": 1491,
      "max": [
        0.5774929523468018,
        0.5776150226593018,
        0.5776455402374268
      ],
      "min": [
        0.07322804629802704,
        0.03309682011604309,
        0.03311207890510559
      ],
      "type": "VEC3"
    }
  ],
  "buffers": [
    {
      "byteLength": 8892,
      "uri": "data:application/octet-stream;base64,"
    },
    {
      "byteLength": 17892,
      "uri": "data:application/octet-stream;base64,"
    },
    {
      "byteLength": 17892,
      "uri": "data:application/octet-stream;base64,"
    },
    {
      "byteLength": 17892,
      "uri": "data:application/octet-stream;base64,"
    }
  ],
  "bufferViews": [
    {
      "buffer": 0,
      "byteOffset": 0,
      "byteLength": 8892
    },
    {
      "buffer": 1,
      "byteOffset": 0,
      "byteLength": 17892
    },
    {
      "buffer": 2,
      "byteOffset": 0,
      "byteLength": 17892
    },
    {
      "buffer": 3,
      "byteOffset": 0,
      "byteLength": 17892
    }
  ],
  "meshes": [
    {
      "primitives": [
        {
          "mode": 4,
          "indices": 0,
          "attributes": {
            "POSITION": 1,
            "NORMAL": 2,
            "COLOR_0": 3
          }
        }
      ]
    }
  ],
  "nodes": [
    {
      "children": [
        1
      ]
    },
    {
      "mesh": 0
    }
  ],
  "scenes": [
    {
      "nodes": [
        0
      ]
    }
  ],
  "scene": 0
}