{
  "asset": {
    "version": "2.0",
    "generator": "COLLADA2GLTF"
  },
  "accessors": [
    {
      "bufferView": 0,
      "byteOffset": 0,
      "componentType": 5123,
      "count": 1254,
      "min": [
        0
      ],
      "max": [
        1019
      ],
      "type": "SCALAR"
    },
    {
      "bufferView": 1,
      "byteOffset": 0,
      "componentType": 5126,
      "count": 1020,
      "max": [
        -1002.1500244140625,
        100,
        -116.29586029052734
      ],
      "min": [
        -1774.8936767578125,
        0,
        -737.85400390625
      ],
      "type": "VEC3"
    },
    {
      "bufferView": 2,
      "byteOffset": 0,
      "componentType": 5126,
      "count": 1020,
      "max": [
        0.9999913573265076,
        0,
        0.9999945759773254
      ],
      "min": [
        -1,
        0,
        -0.9999648928642273
      ],
      "type": "VEC3"
    },
    {
      "bufferView": 3,
      "byteOffset": 0,
      "componentType": 5126,
      "count": 1020,
      "max": [
        0.999786376953125,
        0.7875181436538696,
        0.26330968737602234
      ],
      "min": [
        0.999786376953125,
        0.7875181436538696,
        0.26330968737602234
      ],
      "type": "VEC3"
    }
  ],
  "buffers": [
    {
      "byteLength": 2508,
      "uri": "data:application/octet-stream;base64,"
    },
    {
      "byteLength": 12240,
      "uri": "data:application/octet-stream;base64,"
    },
    {
      "byteLength": 12240,
      "uri": "data:application/octet-stream;base64,"
    },
    {
      "byteLength": 12240,
      "uri": "data:application/octet-stream;base64,"
    }
  ],
  "bufferViews": [
    {
      "buffer": 0,
      "byteOffset": 0,
      "byteLength": 2508
    },
    {
      "buffer": 1,
      "byteOffset": 0,
      "byteLength": 12240
    },
    {
      "buffer": 2,
      "byteOffset": 0,
      "byteLength": 12240
    },
    {
      "buffer": 3,
      "byteOffset": 0,
      "byteLength": 12240
    }
  ],
  "meshes": [
    {
      "primitives": [
        {
          "mode": 4,
          "indices": 0,
          "attributes": {
            "POSITION": 1,
            "NORMAL": 2,
            "COLOR_0": 3
          }
        }
      ]
    }
  ],
  "nodes": [
    {
      "children": [
        1
      ]
    },
    {
      "mesh": 0
    }
  ],
  "scenes": [
    {
      "nodes": [
        0
      ]
    }
  ],
  "scene": 0
}