{
  "asset": {
    "version": "2.0",
    "generator": "COLLADA2GLTF"
  },
  "accessors": [
    {
      "bufferView": 0,
      "byteOffset": 0,
      "componentType": 5123,
      "count": 2958,
      "min": [
        0
      ],
      "max": [
        1108
      ],
      "type": "SCALAR"
    },
    {
      "bufferView": 1,
      "byteOffset": 0,
      "componentType": 5126,
      "count": 1109,
      "max": [
        1596.480224609375,
        19.5,
        5690.31005859375
      ],
      "min": [
        1103.2593994140625,
        12,
        5486.6435546875
      ],
      "type": "VEC3"
    },
    {
      "bufferView": 2,
      "byteOffset": 0,
      "componentType": 5126,
      "count": 1109,
      "max": [
        0.9279789924621582,
        0.7071012854576111,
        0.9279789924621582
      ],
      "min": [
        -0.9279789924621582,
        -0.7071012854576111,
        -0.9279789924621582
      ],
      "type": "VEC3"
    },
    {
      "bufferView": 3,
      "byteOffset": 0,
      "componentType": 5126,
      "count": 1109,
      "max": [
        0.4480048716068268,
        0.4480048716068268,
        0.4480659067630768
      ],
      "min": [
        0,
        0,
        0
      ],
      "type": "VEC3"
    }
  ],
  "buffers": [
    {
      "byteLength": 5916,
      "uri": "data:application/octet-stream;base64,"
    },
    {
      "byteLength": 13308,
      "uri": "data:application/octet-stream;base64,"
    },
    {
      "byteLength": 13308,
      "uri": "data:application/octet-stream;base64,"
    },
    {
      "byteLength": 13308,
      "uri": "data:application/octet-stream;base64,"
    }
  ],
  "bufferViews": [
    {
      "buffer": 0,
      "byteOffset": 0,
      "byteLength": 5916
    },
    {
      "buffer": 1,
      "byteOffset": 0,
      "byteLength": 13308
    },
    {
      "buffer": 2,
      "byteOffset": 0,
      "byteLength": 13308
    },
    {
      "buffer": 3,
      "byteOffset": 0,
      "byteLength": 13308
    }
  ],
  "meshes": [
    {
      "primitives": [
        {
          "mode": 4,
          "indices": 0,
          "attributes": {
            "POSITION": 1,
            "NORMAL": 2,
            "COLOR_0": 3
          }
        }
      ]
    }
  ],
  "nodes": [
    {
      "children": [
        1
      ]
    },
    {
      "mesh": 0
    }
  ],
  "scenes": [
    {
      "nodes": [
        0
      ]
    }
  ],
  "scene": 0
}