{
  "asset": {
    "version": "2.0",
    "generator": "COLLADA2GLTF"
  },
  "accessors": [
    {
      "bufferView": 0,
      "byteOffset": 0,
      "componentType": 5123,
      "count": 1842,
      "min": [
        0
      ],
      "max": [
        617
      ],
      "type": "SCALAR"
    },
    {
      "bufferView": 1,
      "byteOffset": 0,
      "componentType": 5126,
      "count": 618,
      "max": [
        -5393.02197265625,
        -0.5,
        4455.265625
      ],
      "min": [
        -5500.59814453125,
        -0.5,
        4411.81982421875
      ],
      "type": "VEC3"
    },
    {
      "bufferView": 2,
      "byteOffset": 0,
      "componentType": 5126,
      "count": 618,
      "max": [
        0,
        -1,
        0
      ],
      "min": [
        0,
        -1,
        0
      ],
      "type": "VEC3"
    },
    {
      "bufferView": 3,
      "byteOffset": 0,
      "componentType": 5126,
      "count": 618,
      "max": [
        0.5774929523468018,
        0.5776150226593018,
        0.5776455402374268
      ],
      "min": [
        0.5774929523468018,
        0.5776150226593018,
        0.5776455402374268
      ],
      "type": "VEC3"
    }
  ],
  "buffers": [
    {
      "byteLength": 3684,
      "uri": "data:application/octet-stream;base64,"
    },
    {
      "byteLength": 7416,
      "uri": "data:application/octet-stream;base64,"
    },
    {
      "byteLength": 7416,
      "uri": "data:application/octet-stream;base64,"
    },
    {
      "byteLength": 7416,
      "uri": "data:application/octet-stream;base64,"
    }
  ],
  "bufferViews": [
    {
      "buffer": 0,
      "byteOffset": 0,
      "byteLength": 3684
    },
    {
      "buffer": 1,
      "byteOffset": 0,
      "byteLength": 7416
    },
    {
      "buffer": 2,
      "byteOffset": 0,
      "byteLength": 7416
    },
    {
      "buffer": 3,
      "byteOffset": 0,
      "byteLength": 7416
    }
  ],
  "meshes": [
    {
      "primitives": [
        {
          "mode": 4,
          "indices": 0,
          "attributes": {
            "POSITION": 1,
            "NORMAL": 2,
            "COLOR_0": 3
          }
        }
      ]
    }
  ],
  "nodes": [
    {
      "children": [
        1
      ]
    },
    {
      "mesh": 0
    }
  ],
  "scenes": [
    {
      "nodes": [
        0
      ]
    }
  ],
  "scene": 0
}