{
  "asset": {
    "version": "2.0",
    "generator": "COLLADA2GLTF"
  },
  "accessors": [
    {
      "bufferView": 0,
      "byteOffset": 0,
      "componentType": 5123,
      "count": 1194,
      "min": [
        0
      ],
      "max": [
        671
      ],
      "type": "SCALAR"
    },
    {
      "bufferView": 1,
      "byteOffset": 0,
      "componentType": 5126,
      "count": 672,
      "max": [
        1779.24072265625,
        70,
        215.2689666748047
      ],
      "min": [
        1481.1939697265625,
        0,
        -850.7257690429688
      ],
      "type": "VEC3"
    },
    {
      "bufferView": 2,
      "byteOffset": 0,
      "componentType": 5126,
      "count": 672,
      "max": [
        0.9835663437843323,
        1,
        1
      ],
      "min": [
        -0.9965594410896301,
        0,
        -0.9985817074775696
      ],
      "type": "VEC3"
    },
    {
      "bufferView": 3,
      "byteOffset": 0,
      "componentType": 5126,
      "count": 672,
      "max": [
        0.999786376953125,
        0.7875181436538696,
        0.26330968737602234
      ],
      "min": [
        0.6036774516105652,
        0.00003051804378628731,
        0
      ],
      "type": "VEC3"
    }
  ],
  "buffers": [
    {
      "byteLength": 2388,
      "uri": "data:application/octet-stream;base64,"
    },
    {
      "byteLength": 8064,
      "uri": "data:application/octet-stream;base64,"
    },
    {
      "byteLength": 8064,
      "uri": "data:application/octet-stream;base64,"
    },
    {
      "byteLength": 8064,
      "uri": "data:application/octet-stream;base64,"
    }
  ],
  "bufferViews": [
    {
      "buffer": 0,
      "byteOffset": 0,
      "byteLength": 2388
    },
    {
      "buffer": 1,
      "byteOffset": 0,
      "byteLength": 8064
    },
    {
      "buffer": 2,
      "byteOffset": 0,
      "byteLength": 8064
    },
    {
      "buffer": 3,
      "byteOffset": 0,
      "byteLength": 8064
    }
  ],
  "meshes": [
    {
      "primitives": [
        {
          "mode": 4,
          "indices": 0,
          "attributes": {
            "POSITION": 1,
            "NORMAL": 2,
            "COLOR_0": 3
          }
        }
      ]
    }
  ],
  "nodes": [
    {
      "children": [
        1
      ]
    },
    {
      "mesh": 0
    }
  ],
  "scenes": [
    {
      "nodes": [
        0
      ]
    }
  ],
  "scene": 0
}