{
  "asset": {
    "version": "2.0",
    "generator": "COLLADA2GLTF"
  },
  "accessors": [
    {
      "bufferView": 0,
      "byteOffset": 0,
      "componentType": 5123,
      "count": 252,
      "min": [
        0
      ],
      "max": [
        129
      ],
      "type": "SCALAR"
    },
    {
      "bufferView": 1,
      "byteOffset": 0,
      "componentType": 5126,
      "count": 130,
      "max": [
        -146.7209930419922,
        7.5,
        -480.3580322265625
      ],
      "min": [
        -165.59300231933594,
        0,
        -558.510009765625
      ],
      "type": "VEC3"
    },
    {
      "bufferView": 2,
      "byteOffset": 0,
      "componentType": 5126,
      "count": 130,
      "max": [
        1,
        1,
        1
      ],
      "min": [
        -1,
        -1,
        -1
      ],
      "type": "VEC3"
    },
    {
      "bufferView": 3,
      "byteOffset": 0,
      "componentType": 5126,
      "count": 130,
      "max": [
        0.999786376953125,
        0.7875181436538696,
        0.5776455402374268
      ],
      "min": [
        0.5774929523468018,
        0.5776150226593018,
        0.003997863736003637
      ],
      "type": "VEC3"
    }
  ],
  "buffers": [
    {
      "byteLength": 504,
      "uri": "data:application/octet-stream;base64,"
    },
    {
      "byteLength": 1560,
      "uri": "data:application/octet-stream;base64,"
    },
    {
      "byteLength": 1560,
      "uri": "data:application/octet-stream;base64,"
    },
    {
      "byteLength": 1560,
      "uri": "data:application/octet-stream;base64,"
    }
  ],
  "bufferViews": [
    {
      "buffer": 0,
      "byteOffset": 0,
      "byteLength": 504
    },
    {
      "buffer": 1,
      "byteOffset": 0,
      "byteLength": 1560
    },
    {
      "buffer": 2,
      "byteOffset": 0,
      "byteLength": 1560
    },
    {
      "buffer": 3,
      "byteOffset": 0,
      "byteLength": 1560
    }
  ],
  "meshes": [
    {
      "primitives": [
        {
          "mode": 4,
          "indices": 0,
          "attributes": {
            "POSITION": 1,
            "NORMAL": 2,
            "COLOR_0": 3
          }
        }
      ]
    }
  ],
  "nodes": [
    {
      "children": [
        1
      ]
    },
    {
      "mesh": 0
    }
  ],
  "scenes": [
    {
      "nodes": [
        0
      ]
    }
  ],
  "scene": 0
}