{
  "asset": {
    "version": "2.0",
    "generator": "COLLADA2GLTF"
  },
  "accessors": [
    {
      "bufferView": 0,
      "byteOffset": 0,
      "componentType": 5123,
      "count": 4161,
      "min": [
        0
      ],
      "max": [
        1606
      ],
      "type": "SCALAR"
    },
    {
      "bufferView": 1,
      "byteOffset": 0,
      "componentType": 5126,
      "count": 1607,
      "max": [
        870.4407958984375,
        0.0010000000474974513,
        -250.8813934326172
      ],
      "min": [
        604.7379760742188,
        -0.20000000298023224,
        -502.3558044433594
      ],
      "type": "VEC3"
    },
    {
      "bufferView": 2,
      "byteOffset": 0,
      "componentType": 5126,
      "count": 1607,
      "max": [
        0.777906596660614,
        1,
        0.7787044644355774
      ],
      "min": [
        -0.7786976099014282,
        -1,
        -0.7786976099014282
      ],
      "type": "VEC3"
    },
    {
      "bufferView": 3,
      "byteOffset": 0,
      "componentType": 5126,
      "count": 1607,
      "max": [
        0.7872740030288696,
        1,
        0.7875028848648071
      ],
      "min": [
        0.000015259021893143654,
        0.07324330508708954,
        0.00004577706567943096
      ],
      "type": "VEC3"
    }
  ],
  "buffers": [
    {
      "byteLength": 8322,
      "uri": "data:application/octet-stream;base64,"
    },
    {
      "byteLength": 19284,
      "uri": "data:application/octet-stream;base64,"
    },
    {
      "byteLength": 19284,
      "uri": "data:application/octet-stream;base64,"
    },
    {
      "byteLength": 19284,
      "uri": "data:application/octet-stream;base64,"
    }
  ],
  "bufferViews": [
    {
      "buffer": 0,
      "byteOffset": 0,
      "byteLength": 8322
    },
    {
      "buffer": 1,
      "byteOffset": 0,
      "byteLength": 19284
    },
    {
      "buffer": 2,
      "byteOffset": 0,
      "byteLength": 19284
    },
    {
      "buffer": 3,
      "byteOffset": 0,
      "byteLength": 19284
    }
  ],
  "meshes": [
    {
      "primitives": [
        {
          "mode": 4,
          "indices": 0,
          "attributes": {
            "POSITION": 1,
            "NORMAL": 2,
            "COLOR_0": 3
          }
        }
      ]
    }
  ],
  "nodes": [
    {
      "children": [
        1
      ]
    },
    {
      "mesh": 0
    }
  ],
  "scenes": [
    {
      "nodes": [
        0
      ]
    }
  ],
  "scene": 0
}