{
  "asset": {
    "version": "2.0",
    "generator": "COLLADA2GLTF"
  },
  "accessors": [
    {
      "bufferView": 0,
      "byteOffset": 0,
      "componentType": 5123,
      "count": 546,
      "min": [
        0
      ],
      "max": [
        294
      ],
      "type": "SCALAR"
    },
    {
      "bufferView": 1,
      "byteOffset": 0,
      "componentType": 5126,
      "count": 295,
      "max": [
        314.2560119628906,
        10,
        -96.1580810546875
      ],
      "min": [
        224.78799438476562,
        0,
        -237.5570068359375
      ],
      "type": "VEC3"
    },
    {
      "bufferView": 2,
      "byteOffset": 0,
      "componentType": 5126,
      "count": 295,
      "max": [
        1,
        0,
        1
      ],
      "min": [
        -0.9989743232727051,
        0,
        -0.9989708065986633
      ],
      "type": "VEC3"
    },
    {
      "bufferView": 3,
      "byteOffset": 0,
      "componentType": 5126,
      "count": 295,
      "max": [
        0.999786376953125,
        0.7875181436538696,
        0.26330968737602234
      ],
      "min": [
        0.00004577706567943096,
        0.21403829753398895,
        0
      ],
      "type": "VEC3"
    }
  ],
  "buffers": [
    {
      "byteLength": 1092,
      "uri": "data:application/octet-stream;base64,"
    },
    {
      "byteLength": 3540,
      "uri": "data:application/octet-stream;base64,"
    },
    {
      "byteLength": 3540,
      "uri": "data:application/octet-stream;base64,"
    },
    {
      "byteLength": 3540,
      "uri": "data:application/octet-stream;base64,"
    }
  ],
  "bufferViews": [
    {
      "buffer": 0,
      "byteOffset": 0,
      "byteLength": 1092
    },
    {
      "buffer": 1,
      "byteOffset": 0,
      "byteLength": 3540
    },
    {
      "buffer": 2,
      "byteOffset": 0,
      "byteLength": 3540
    },
    {
      "buffer": 3,
      "byteOffset": 0,
      "byteLength": 3540
    }
  ],
  "meshes": [
    {
      "primitives": [
        {
          "mode": 4,
          "indices": 0,
          "attributes": {
            "POSITION": 1,
            "NORMAL": 2,
            "COLOR_0": 3
          }
        }
      ]
    }
  ],
  "nodes": [
    {
      "children": [
        1
      ]
    },
    {
      "mesh": 0
    }
  ],
  "scenes": [
    {
      "nodes": [
        0
      ]
    }
  ],
  "scene": 0
}