{
  "asset": {
    "version": "2.0",
    "generator": "COLLADA2GLTF"
  },
  "accessors": [
    {
      "bufferView": 0,
      "byteOffset": 0,
      "componentType": 5123,
      "count": 1179,
      "min": [
        0
      ],
      "max": [
        618
      ],
      "type": "SCALAR"
    },
    {
      "bufferView": 1,
      "byteOffset": 0,
      "componentType": 5126,
      "count": 619,
      "max": [
        539.4142456054688,
        10,
        -25.37725067138672
      ],
      "min": [
        414.5530090332031,
        0,
        -319.4339904785156
      ],
      "type": "VEC3"
    },
    {
      "bufferView": 2,
      "byteOffset": 0,
      "componentType": 5126,
      "count": 619,
      "max": [
        1,
        1,
        1
      ],
      "min": [
        -1,
        -1,
        -1
      ],
      "type": "VEC3"
    },
    {
      "bufferView": 3,
      "byteOffset": 0,
      "componentType": 5126,
      "count": 619,
      "max": [
        0.999786376953125,
        0.7875181436538696,
        0.5776455402374268
      ],
      "min": [
        0.00004577706567943096,
        0.21403829753398895,
        0
      ],
      "type": "VEC3"
    }
  ],
  "buffers": [
    {
      "byteLength": 2358,
      "uri": "data:application/octet-stream;base64,"
    },
    {
      "byteLength": 7428,
      "uri": "data:application/octet-stream;base64,"
    },
    {
      "byteLength": 7428,
      "uri": "data:application/octet-stream;base64,"
    },
    {
      "byteLength": 7428,
      "uri": "data:application/octet-stream;base64,"
    }
  ],
  "bufferViews": [
    {
      "buffer": 0,
      "byteOffset": 0,
      "byteLength": 2358
    },
    {
      "buffer": 1,
      "byteOffset": 0,
      "byteLength": 7428
    },
    {
      "buffer": 2,
      "byteOffset": 0,
      "byteLength": 7428
    },
    {
      "buffer": 3,
      "byteOffset": 0,
      "byteLength": 7428
    }
  ],
  "meshes": [
    {
      "primitives": [
        {
          "mode": 4,
          "indices": 0,
          "attributes": {
            "POSITION": 1,
            "NORMAL": 2,
            "COLOR_0": 3
          }
        }
      ]
    }
  ],
  "nodes": [
    {
      "children": [
        1
      ]
    },
    {
      "mesh": 0
    }
  ],
  "scenes": [
    {
      "nodes": [
        0
      ]
    }
  ],
  "scene": 0
}