{
  "asset": {
    "version": "2.0",
    "generator": "COLLADA2GLTF"
  },
  "accessors": [
    {
      "bufferView": 0,
      "byteOffset": 0,
      "componentType": 5123,
      "count": 849,
      "min": [
        0
      ],
      "max": [
        462
      ],
      "type": "SCALAR"
    },
    {
      "bufferView": 1,
      "byteOffset": 0,
      "componentType": 5126,
      "count": 463,
      "max": [
        -130.46627807617188,
        0.0010000000474974513,
        -971.9854125976562
      ],
      "min": [
        -504.2243347167969,
        0,
        -1257.05029296875
      ],
      "type": "VEC3"
    },
    {
      "bufferView": 2,
      "byteOffset": 0,
      "componentType": 5126,
      "count": 463,
      "max": [
        0.8685342669487,
        1,
        0.9075911045074463
      ],
      "min": [
        -0.8683450222015381,
        0,
        -0.8583388924598694
      ],
      "type": "VEC3"
    },
    {
      "bufferView": 3,
      "byteOffset": 0,
      "componentType": 5126,
      "count": 463,
      "max": [
        0.999786376953125,
        1,
        0.7875028848648071
      ],
      "min": [
        0.000015259021893143654,
        0.07324330508708954,
        0.00004577706567943096
      ],
      "type": "VEC3"
    }
  ],
  "buffers": [
    {
      "byteLength": 1698,
      "uri": "data:application/octet-stream;base64,"
    },
    {
      "byteLength": 5556,
      "uri": "data:application/octet-stream;base64,"
    },
    {
      "byteLength": 5556,
      "uri": "data:application/octet-stream;base64,"
    },
    {
      "byteLength": 5556,
      "uri": "data:application/octet-stream;base64,"
    }
  ],
  "bufferViews": [
    {
      "buffer": 0,
      "byteOffset": 0,
      "byteLength": 1698
    },
    {
      "buffer": 1,
      "byteOffset": 0,
      "byteLength": 5556
    },
    {
      "buffer": 2,
      "byteOffset": 0,
      "byteLength": 5556
    },
    {
      "buffer": 3,
      "byteOffset": 0,
      "byteLength": 5556
    }
  ],
  "meshes": [
    {
      "primitives": [
        {
          "mode": 4,
          "indices": 0,
          "attributes": {
            "POSITION": 1,
            "NORMAL": 2,
            "COLOR_0": 3
          }
        }
      ]
    }
  ],
  "nodes": [
    {
      "children": [
        1
      ]
    },
    {
      "mesh": 0
    }
  ],
  "scenes": [
    {
      "nodes": [
        0
      ]
    }
  ],
  "scene": 0
}