{
  "asset": {
    "version": "2.0",
    "generator": "COLLADA2GLTF"
  },
  "accessors": [
    {
      "bufferView": 0,
      "byteOffset": 0,
      "componentType": 5123,
      "count": 516,
      "min": [
        0
      ],
      "max": [
        215
      ],
      "type": "SCALAR"
    },
    {
      "bufferView": 1,
      "byteOffset": 0,
      "componentType": 5126,
      "count": 216,
      "max": [
        -1794.15625,
        0.0010000000474974513,
        605.1511840820312
      ],
      "min": [
        -1994.546630859375,
        0,
        295.9749755859375
      ],
      "type": "VEC3"
    },
    {
      "bufferView": 2,
      "byteOffset": 0,
      "componentType": 5126,
      "count": 216,
      "max": [
        0,
        1,
        0
      ],
      "min": [
        0,
        1,
        0
      ],
      "type": "VEC3"
    },
    {
      "bufferView": 3,
      "byteOffset": 0,
      "componentType": 5126,
      "count": 216,
      "max": [
        0.07322804629802704,
        0.07324330508708954,
        0.07325856387615204
      ],
      "min": [
        0.07322804629802704,
        0.07324330508708954,
        0.07325856387615204
      ],
      "type": "VEC3"
    }
  ],
  "buffers": [
    {
      "byteLength": 1032,
      "uri": "data:application/octet-stream;base64,"
    },
    {
      "byteLength": 2592,
      "uri": "data:application/octet-stream;base64,"
    },
    {
      "byteLength": 2592,
      "uri": "data:application/octet-stream;base64,"
    },
    {
      "byteLength": 2592,
      "uri": "data:application/octet-stream;base64,"
    }
  ],
  "bufferViews": [
    {
      "buffer": 0,
      "byteOffset": 0,
      "byteLength": 1032
    },
    {
      "buffer": 1,
      "byteOffset": 0,
      "byteLength": 2592
    },
    {
      "buffer": 2,
      "byteOffset": 0,
      "byteLength": 2592
    },
    {
      "buffer": 3,
      "byteOffset": 0,
      "byteLength": 2592
    }
  ],
  "meshes": [
    {
      "primitives": [
        {
          "mode": 4,
          "indices": 0,
          "attributes": {
            "POSITION": 1,
            "NORMAL": 2,
            "COLOR_0": 3
          }
        }
      ]
    }
  ],
  "nodes": [
    {
      "children": [
        1
      ]
    },
    {
      "mesh": 0
    }
  ],
  "scenes": [
    {
      "nodes": [
        0
      ]
    }
  ],
  "scene": 0
}