{
  "asset": {
    "version": "2.0",
    "generator": "COLLADA2GLTF"
  },
  "accessors": [
    {
      "bufferView": 0,
      "byteOffset": 0,
      "componentType": 5123,
      "count": 1320,
      "min": [
        0
      ],
      "max": [
        556
      ],
      "type": "SCALAR"
    },
    {
      "bufferView": 1,
      "byteOffset": 0,
      "componentType": 5126,
      "count": 557,
      "max": [
        -2880,
        0,
        1703.1961669921875
      ],
      "min": [
        -3164.877197265625,
        0,
        1438.38818359375
      ],
      "type": "VEC3"
    },
    {
      "bufferView": 2,
      "byteOffset": 0,
      "componentType": 5126,
      "count": 557,
      "max": [
        0,
        1,
        0
      ],
      "min": [
        -0.5249761939048767,
        0,
        -0.8511168956756592
      ],
      "type": "VEC3"
    },
    {
      "bufferView": 3,
      "byteOffset": 0,
      "componentType": 5126,
      "count": 557,
      "max": [
        0.999786376953125,
        1,
        0.26330968737602234
      ],
      "min": [
        0,
        0.07324330508708954,
        0.000015259021893143654
      ],
      "type": "VEC3"
    }
  ],
  "buffers": [
    {
      "byteLength": 2640,
      "uri": "data:application/octet-stream;base64,"
    },
    {
      "byteLength": 6684,
      "uri": "data:application/octet-stream;base64,"
    },
    {
      "byteLength": 6684,
      "uri": "data:application/octet-stream;base64,"
    },
    {
      "byteLength": 6684,
      "uri": "data:application/octet-stream;base64,"
    }
  ],
  "bufferViews": [
    {
      "buffer": 0,
      "byteOffset": 0,
      "byteLength": 2640
    },
    {
      "buffer": 1,
      "byteOffset": 0,
      "byteLength": 6684
    },
    {
      "buffer": 2,
      "byteOffset": 0,
      "byteLength": 6684
    },
    {
      "buffer": 3,
      "byteOffset": 0,
      "byteLength": 6684
    }
  ],
  "meshes": [
    {
      "primitives": [
        {
          "mode": 4,
          "indices": 0,
          "attributes": {
            "POSITION": 1,
            "NORMAL": 2,
            "COLOR_0": 3
          }
        }
      ]
    }
  ],
  "nodes": [
    {
      "children": [
        1
      ]
    },
    {
      "mesh": 0
    }
  ],
  "scenes": [
    {
      "nodes": [
        0
      ]
    }
  ],
  "scene": 0
}