{
  "asset": {
    "version": "2.0",
    "generator": "COLLADA2GLTF"
  },
  "accessors": [
    {
      "bufferView": 0,
      "byteOffset": 0,
      "componentType": 5123,
      "count": 4227,
      "min": [
        0
      ],
      "max": [
        1717
      ],
      "type": "SCALAR"
    },
    {
      "bufferView": 1,
      "byteOffset": 0,
      "componentType": 5126,
      "count": 1718,
      "max": [
        -270,
        7.5,
        -663.5330200195312
      ],
      "min": [
        -551.237548828125,
        -0.20000000298023224,
        -918.2555541992188
      ],
      "type": "VEC3"
    },
    {
      "bufferView": 2,
      "byteOffset": 0,
      "componentType": 5126,
      "count": 1718,
      "max": [
        0.9999988675117493,
        1,
        0.9821729063987732
      ],
      "min": [
        -0.9999988675117493,
        -1,
        -0.9999988675117493
      ],
      "type": "VEC3"
    },
    {
      "bufferView": 3,
      "byteOffset": 0,
      "componentType": 5126,
      "count": 1718,
      "max": [
        0.999786376953125,
        1,
        0.7875028848648071
      ],
      "min": [
        0.000015259021893143654,
        0.07324330508708954,
        0.00004577706567943096
      ],
      "type": "VEC3"
    }
  ],
  "buffers": [
    {
      "byteLength": 8454,
      "uri": "data:application/octet-stream;base64,"
    },
    {
      "byteLength": 20616,
      "uri": "data:application/octet-stream;base64,"
    },
    {
      "byteLength": 20616,
      "uri": "data:application/octet-stream;base64,"
    },
    {
      "byteLength": 20616,
      "uri": "data:application/octet-stream;base64,"
    }
  ],
  "bufferViews": [
    {
      "buffer": 0,
      "byteOffset": 0,
      "byteLength": 8454
    },
    {
      "buffer": 1,
      "byteOffset": 0,
      "byteLength": 20616
    },
    {
      "buffer": 2,
      "byteOffset": 0,
      "byteLength": 20616
    },
    {
      "buffer": 3,
      "byteOffset": 0,
      "byteLength": 20616
    }
  ],
  "meshes": [
    {
      "primitives": [
        {
          "mode": 4,
          "indices": 0,
          "attributes": {
            "POSITION": 1,
            "NORMAL": 2,
            "COLOR_0": 3
          }
        }
      ]
    }
  ],
  "nodes": [
    {
      "children": [
        1
      ]
    },
    {
      "mesh": 0
    }
  ],
  "scenes": [
    {
      "nodes": [
        0
      ]
    }
  ],
  "scene": 0
}