{
  "asset": {
    "version": "2.0",
    "generator": "COLLADA2GLTF"
  },
  "accessors": [
    {
      "bufferView": 0,
      "byteOffset": 0,
      "componentType": 5123,
      "count": 4179,
      "min": [
        0
      ],
      "max": [
        1414
      ],
      "type": "SCALAR"
    },
    {
      "bufferView": 1,
      "byteOffset": 0,
      "componentType": 5126,
      "count": 1415,
      "max": [
        -1448.8099365234375,
        0.06400000303983688,
        2084.13134765625
      ],
      "min": [
        -1489.340087890625,
        0,
        2068.638916015625
      ],
      "type": "VEC3"
    },
    {
      "bufferView": 2,
      "byteOffset": 0,
      "componentType": 5126,
      "count": 1415,
      "max": [
        0.9452244639396667,
        1,
        0.9452244639396667
      ],
      "min": [
        -0.9452244639396667,
        0,
        -0.9452244639396667
      ],
      "type": "VEC3"
    },
    {
      "bufferView": 3,
      "byteOffset": 0,
      "componentType": 5126,
      "count": 1415,
      "max": [
        0.07322804629802704,
        0.03309682011604309,
        0.03311207890510559
      ],
      "min": [
        0.07322804629802704,
        0.03309682011604309,
        0.03311207890510559
      ],
      "type": "VEC3"
    }
  ],
  "buffers": [
    {
      "byteLength": 8358,
      "uri": "data:application/octet-stream;base64,"
    },
    {
      "byteLength": 16980,
      "uri": "data:application/octet-stream;base64,"
    },
    {
      "byteLength": 16980,
      "uri": "data:application/octet-stream;base64,"
    },
    {
      "byteLength": 16980,
      "uri": "data:application/octet-stream;base64,"
    }
  ],
  "bufferViews": [
    {
      "buffer": 0,
      "byteOffset": 0,
      "byteLength": 8358
    },
    {
      "buffer": 1,
      "byteOffset": 0,
      "byteLength": 16980
    },
    {
      "buffer": 2,
      "byteOffset": 0,
      "byteLength": 16980
    },
    {
      "buffer": 3,
      "byteOffset": 0,
      "byteLength": 16980
    }
  ],
  "meshes": [
    {
      "primitives": [
        {
          "mode": 4,
          "indices": 0,
          "attributes": {
            "POSITION": 1,
            "NORMAL": 2,
            "COLOR_0": 3
          }
        }
      ]
    }
  ],
  "nodes": [
    {
      "children": [
        1
      ]
    },
    {
      "mesh": 0
    }
  ],
  "scenes": [
    {
      "nodes": [
        0
      ]
    }
  ],
  "scene": 0
}