{
  "asset": {
    "version": "2.0",
    "generator": "COLLADA2GLTF"
  },
  "accessors": [
    {
      "bufferView": 0,
      "byteOffset": 0,
      "componentType": 5123,
      "count": 1362,
      "min": [
        0
      ],
      "max": [
        472
      ],
      "type": "SCALAR"
    },
    {
      "bufferView": 1,
      "byteOffset": 0,
      "componentType": 5126,
      "count": 473,
      "max": [
        -3684.217041015625,
        0.06400000303983688,
        977.8604125976562
      ],
      "min": [
        -3697.630859375,
        0,
        968.4163208007812
      ],
      "type": "VEC3"
    },
    {
      "bufferView": 2,
      "byteOffset": 0,
      "componentType": 5126,
      "count": 473,
      "max": [
        0.8377389907836914,
        1,
        0.8377389907836914
      ],
      "min": [
        -0.8377389907836914,
        0,
        -0.8377389907836914
      ],
      "type": "VEC3"
    },
    {
      "bufferView": 3,
      "byteOffset": 0,
      "componentType": 5126,
      "count": 473,
      "max": [
        0.07322804629802704,
        0.03309682011604309,
        0.03311207890510559
      ],
      "min": [
        0.07322804629802704,
        0.03309682011604309,
        0.03311207890510559
      ],
      "type": "VEC3"
    }
  ],
  "buffers": [
    {
      "byteLength": 2724,
      "uri": "data:application/octet-stream;base64,"
    },
    {
      "byteLength": 5676,
      "uri": "data:application/octet-stream;base64,"
    },
    {
      "byteLength": 5676,
      "uri": "data:application/octet-stream;base64,"
    },
    {
      "byteLength": 5676,
      "uri": "data:application/octet-stream;base64,"
    }
  ],
  "bufferViews": [
    {
      "buffer": 0,
      "byteOffset": 0,
      "byteLength": 2724
    },
    {
      "buffer": 1,
      "byteOffset": 0,
      "byteLength": 5676
    },
    {
      "buffer": 2,
      "byteOffset": 0,
      "byteLength": 5676
    },
    {
      "buffer": 3,
      "byteOffset": 0,
      "byteLength": 5676
    }
  ],
  "meshes": [
    {
      "primitives": [
        {
          "mode": 4,
          "indices": 0,
          "attributes": {
            "POSITION": 1,
            "NORMAL": 2,
            "COLOR_0": 3
          }
        }
      ]
    }
  ],
  "nodes": [
    {
      "children": [
        1
      ]
    },
    {
      "mesh": 0
    }
  ],
  "scenes": [
    {
      "nodes": [
        0
      ]
    }
  ],
  "scene": 0
}