{
  "asset": {
    "version": "2.0",
    "generator": "COLLADA2GLTF"
  },
  "accessors": [
    {
      "bufferView": 0,
      "byteOffset": 0,
      "componentType": 5123,
      "count": 444,
      "min": [
        0
      ],
      "max": [
        193
      ],
      "type": "SCALAR"
    },
    {
      "bufferView": 1,
      "byteOffset": 0,
      "componentType": 5126,
      "count": 194,
      "max": [
        -3240,
        0.0010000000474974513,
        1241.907958984375
      ],
      "min": [
        -3306.514892578125,
        0,
        1180.2874755859375
      ],
      "type": "VEC3"
    },
    {
      "bufferView": 2,
      "byteOffset": 0,
      "componentType": 5126,
      "count": 194,
      "max": [
        0,
        1,
        0
      ],
      "min": [
        0,
        1,
        0
      ],
      "type": "VEC3"
    },
    {
      "bufferView": 3,
      "byteOffset": 0,
      "componentType": 5126,
      "count": 194,
      "max": [
        0.7872740030288696,
        1,
        0.7875028848648071
      ],
      "min": [
        0.000015259021893143654,
        0.000015259021893143654,
        0
      ],
      "type": "VEC3"
    }
  ],
  "buffers": [
    {
      "byteLength": 888,
      "uri": "data:application/octet-stream;base64,"
    },
    {
      "byteLength": 2328,
      "uri": "data:application/octet-stream;base64,"
    },
    {
      "byteLength": 2328,
      "uri": "data:application/octet-stream;base64,"
    },
    {
      "byteLength": 2328,
      "uri": "data:application/octet-stream;base64,"
    }
  ],
  "bufferViews": [
    {
      "buffer": 0,
      "byteOffset": 0,
      "byteLength": 888
    },
    {
      "buffer": 1,
      "byteOffset": 0,
      "byteLength": 2328
    },
    {
      "buffer": 2,
      "byteOffset": 0,
      "byteLength": 2328
    },
    {
      "buffer": 3,
      "byteOffset": 0,
      "byteLength": 2328
    }
  ],
  "meshes": [
    {
      "primitives": [
        {
          "mode": 4,
          "indices": 0,
          "attributes": {
            "POSITION": 1,
            "NORMAL": 2,
            "COLOR_0": 3
          }
        }
      ]
    }
  ],
  "nodes": [
    {
      "children": [
        1
      ]
    },
    {
      "mesh": 0
    }
  ],
  "scenes": [
    {
      "nodes": [
        0
      ]
    }
  ],
  "scene": 0
}