{
  "asset": {
    "version": "2.0",
    "generator": "COLLADA2GLTF"
  },
  "accessors": [
    {
      "bufferView": 0,
      "byteOffset": 0,
      "componentType": 5123,
      "count": 1248,
      "min": [
        0
      ],
      "max": [
        669
      ],
      "type": "SCALAR"
    },
    {
      "bufferView": 1,
      "byteOffset": 0,
      "componentType": 5126,
      "count": 670,
      "max": [
        -748.8350219726562,
        15,
        965.4229736328125
      ],
      "min": [
        -1441.2388916015625,
        0,
        489.9880065917969
      ],
      "type": "VEC3"
    },
    {
      "bufferView": 2,
      "byteOffset": 0,
      "componentType": 5126,
      "count": 670,
      "max": [
        1,
        1,
        1
      ],
      "min": [
        -1,
        0,
        -1
      ],
      "type": "VEC3"
    },
    {
      "bufferView": 3,
      "byteOffset": 0,
      "componentType": 5126,
      "count": 670,
      "max": [
        0.999786376953125,
        0.7875181436538696,
        0.26330968737602234
      ],
      "min": [
        0.6036774516105652,
        0.00003051804378628731,
        0
      ],
      "type": "VEC3"
    }
  ],
  "buffers": [
    {
      "byteLength": 2496,
      "uri": "data:application/octet-stream;base64,"
    },
    {
      "byteLength": 8040,
      "uri": "data:application/octet-stream;base64,"
    },
    {
      "byteLength": 8040,
      "uri": "data:application/octet-stream;base64,"
    },
    {
      "byteLength": 8040,
      "uri": "data:application/octet-stream;base64,"
    }
  ],
  "bufferViews": [
    {
      "buffer": 0,
      "byteOffset": 0,
      "byteLength": 2496
    },
    {
      "buffer": 1,
      "byteOffset": 0,
      "byteLength": 8040
    },
    {
      "buffer": 2,
      "byteOffset": 0,
      "byteLength": 8040
    },
    {
      "buffer": 3,
      "byteOffset": 0,
      "byteLength": 8040
    }
  ],
  "meshes": [
    {
      "primitives": [
        {
          "mode": 4,
          "indices": 0,
          "attributes": {
            "POSITION": 1,
            "NORMAL": 2,
            "COLOR_0": 3
          }
        }
      ]
    }
  ],
  "nodes": [
    {
      "children": [
        1
      ]
    },
    {
      "mesh": 0
    }
  ],
  "scenes": [
    {
      "nodes": [
        0
      ]
    }
  ],
  "scene": 0
}