{
  "asset": {
    "version": "2.0",
    "generator": "COLLADA2GLTF"
  },
  "accessors": [
    {
      "bufferView": 0,
      "byteOffset": 0,
      "componentType": 5123,
      "count": 4440,
      "min": [
        0
      ],
      "max": [
        1489
      ],
      "type": "SCALAR"
    },
    {
      "bufferView": 1,
      "byteOffset": 0,
      "componentType": 5126,
      "count": 1490,
      "max": [
        1465.9349365234375,
        0.06400000303983688,
        3096.367919921875
      ],
      "min": [
        728.7653198242188,
        0,
        2842.51708984375
      ],
      "type": "VEC3"
    },
    {
      "bufferView": 2,
      "byteOffset": 0,
      "componentType": 5126,
      "count": 1490,
      "max": [
        0.9474396705627441,
        1,
        0.9474396705627441
      ],
      "min": [
        -0.9474396705627441,
        0,
        -0.9474396705627441
      ],
      "type": "VEC3"
    },
    {
      "bufferView": 3,
      "byteOffset": 0,
      "componentType": 5126,
      "count": 1490,
      "max": [
        0.5774929523468018,
        0.5776150226593018,
        0.5776455402374268
      ],
      "min": [
        0.07322804629802704,
        0.03309682011604309,
        0.03311207890510559
      ],
      "type": "VEC3"
    }
  ],
  "buffers": [
    {
      "byteLength": 8880,
      "uri": "data:application/octet-stream;base64,"
    },
    {
      "byteLength": 17880,
      "uri": "data:application/octet-stream;base64,"
    },
    {
      "byteLength": 17880,
      "uri": "data:application/octet-stream;base64,"
    },
    {
      "byteLength": 17880,
      "uri": "data:application/octet-stream;base64,"
    }
  ],
  "bufferViews": [
    {
      "buffer": 0,
      "byteOffset": 0,
      "byteLength": 8880
    },
    {
      "buffer": 1,
      "byteOffset": 0,
      "byteLength": 17880
    },
    {
      "buffer": 2,
      "byteOffset": 0,
      "byteLength": 17880
    },
    {
      "buffer": 3,
      "byteOffset": 0,
      "byteLength": 17880
    }
  ],
  "meshes": [
    {
      "primitives": [
        {
          "mode": 4,
          "indices": 0,
          "attributes": {
            "POSITION": 1,
            "NORMAL": 2,
            "COLOR_0": 3
          }
        }
      ]
    }
  ],
  "nodes": [
    {
      "children": [
        1
      ]
    },
    {
      "mesh": 0
    }
  ],
  "scenes": [
    {
      "nodes": [
        0
      ]
    }
  ],
  "scene": 0
}