{
  "asset": {
    "version": "2.0",
    "generator": "COLLADA2GLTF"
  },
  "accessors": [
    {
      "bufferView": 0,
      "byteOffset": 0,
      "componentType": 5123,
      "count": 4935,
      "min": [
        0
      ],
      "max": [
        1666
      ],
      "type": "SCALAR"
    },
    {
      "bufferView": 1,
      "byteOffset": 0,
      "componentType": 5126,
      "count": 1667,
      "max": [
        962.58935546875,
        0,
        -2629.751708984375
      ],
      "min": [
        941.2899169921875,
        -3,
        -3046.097412109375
      ],
      "type": "VEC3"
    },
    {
      "bufferView": 2,
      "byteOffset": 0,
      "componentType": 5126,
      "count": 1667,
      "max": [
        0.999840259552002,
        1,
        0.9998400807380676
      ],
      "min": [
        -0.9998400807380676,
        -1,
        -0.9998400807380676
      ],
      "type": "VEC3"
    },
    {
      "bufferView": 3,
      "byteOffset": 0,
      "componentType": 5126,
      "count": 1667,
      "max": [
        0.21585412323474884,
        0.21585412323474884,
        0.21589989960193634
      ],
      "min": [
        0.21585412323474884,
        0.21585412323474884,
        0.21589989960193634
      ],
      "type": "VEC3"
    }
  ],
  "buffers": [
    {
      "byteLength": 9870,
      "uri": "data:application/octet-stream;base64,"
    },
    {
      "byteLength": 20004,
      "uri": "data:application/octet-stream;base64,"
    },
    {
      "byteLength": 20004,
      "uri": "data:application/octet-stream;base64,"
    },
    {
      "byteLength": 20004,
      "uri": "data:application/octet-stream;base64,"
    }
  ],
  "bufferViews": [
    {
      "buffer": 0,
      "byteOffset": 0,
      "byteLength": 9870
    },
    {
      "buffer": 1,
      "byteOffset": 0,
      "byteLength": 20004
    },
    {
      "buffer": 2,
      "byteOffset": 0,
      "byteLength": 20004
    },
    {
      "buffer": 3,
      "byteOffset": 0,
      "byteLength": 20004
    }
  ],
  "meshes": [
    {
      "primitives": [
        {
          "mode": 4,
          "indices": 0,
          "attributes": {
            "POSITION": 1,
            "NORMAL": 2,
            "COLOR_0": 3
          }
        }
      ]
    }
  ],
  "nodes": [
    {
      "children": [
        1
      ]
    },
    {
      "mesh": 0
    }
  ],
  "scenes": [
    {
      "nodes": [
        0
      ]
    }
  ],
  "scene": 0
}