{
  "asset": {
    "version": "2.0",
    "generator": "COLLADA2GLTF"
  },
  "accessors": [
    {
      "bufferView": 0,
      "byteOffset": 0,
      "componentType": 5123,
      "count": 75,
      "min": [
        0
      ],
      "max": [
        39
      ],
      "type": "SCALAR"
    },
    {
      "bufferView": 1,
      "byteOffset": 0,
      "componentType": 5126,
      "count": 40,
      "max": [
        -1822.4390869140625,
        0,
        1942.60107421875
      ],
      "min": [
        -2009.61767578125,
        0,
        1886.7200927734375
      ],
      "type": "VEC3"
    },
    {
      "bufferView": 2,
      "byteOffset": 0,
      "componentType": 5126,
      "count": 40,
      "max": [
        0,
        1,
        0
      ],
      "min": [
        0,
        1,
        0
      ],
      "type": "VEC3"
    },
    {
      "bufferView": 3,
      "byteOffset": 0,
      "componentType": 5126,
      "count": 40,
      "max": [
        0.07322804629802704,
        1,
        0.07325856387615204
      ],
      "min": [
        0.000015259021893143654,
        0.05127031356096268,
        0.00004577706567943096
      ],
      "type": "VEC3"
    }
  ],
  "buffers": [
    {
      "byteLength": 150,
      "uri": "data:application/octet-stream;base64,"
    },
    {
      "byteLength": 480,
      "uri": "data:application/octet-stream;base64,"
    },
    {
      "byteLength": 480,
      "uri": "data:application/octet-stream;base64,"
    },
    {
      "byteLength": 480,
      "uri": "data:application/octet-stream;base64,"
    }
  ],
  "bufferViews": [
    {
      "buffer": 0,
      "byteOffset": 0,
      "byteLength": 150
    },
    {
      "buffer": 1,
      "byteOffset": 0,
      "byteLength": 480
    },
    {
      "buffer": 2,
      "byteOffset": 0,
      "byteLength": 480
    },
    {
      "buffer": 3,
      "byteOffset": 0,
      "byteLength": 480
    }
  ],
  "meshes": [
    {
      "primitives": [
        {
          "mode": 4,
          "indices": 0,
          "attributes": {
            "POSITION": 1,
            "NORMAL": 2,
            "COLOR_0": 3
          }
        }
      ]
    }
  ],
  "nodes": [
    {
      "children": [
        1
      ]
    },
    {
      "mesh": 0
    }
  ],
  "scenes": [
    {
      "nodes": [
        0
      ]
    }
  ],
  "scene": 0
}