{
  "asset": {
    "version": "2.0",
    "generator": "COLLADA2GLTF"
  },
  "accessors": [
    {
      "bufferView": 0,
      "byteOffset": 0,
      "componentType": 5123,
      "count": 243,
      "min": [
        0
      ],
      "max": [
        94
      ],
      "type": "SCALAR"
    },
    {
      "bufferView": 1,
      "byteOffset": 0,
      "componentType": 5126,
      "count": 95,
      "max": [
        1144.9814453125,
        0,
        124.60964965820312
      ],
      "min": [
        1054.609375,
        -3,
        73.63877868652344
      ],
      "type": "VEC3"
    },
    {
      "bufferView": 2,
      "byteOffset": 0,
      "componentType": 5126,
      "count": 95,
      "max": [
        0.9303858280181885,
        1,
        0.9303858280181885
      ],
      "min": [
        -0.9303858280181885,
        -1,
        -0.9303880333900452
      ],
      "type": "VEC3"
    },
    {
      "bufferView": 3,
      "byteOffset": 0,
      "componentType": 5126,
      "count": 95,
      "max": [
        0.21585412323474884,
        0.21585412323474884,
        0.21589989960193634
      ],
      "min": [
        0.21585412323474884,
        0.21585412323474884,
        0.21589989960193634
      ],
      "type": "VEC3"
    }
  ],
  "buffers": [
    {
      "byteLength": 486,
      "uri": "data:application/octet-stream;base64,"
    },
    {
      "byteLength": 1140,
      "uri": "data:application/octet-stream;base64,"
    },
    {
      "byteLength": 1140,
      "uri": "data:application/octet-stream;base64,"
    },
    {
      "byteLength": 1140,
      "uri": "data:application/octet-stream;base64,"
    }
  ],
  "bufferViews": [
    {
      "buffer": 0,
      "byteOffset": 0,
      "byteLength": 486
    },
    {
      "buffer": 1,
      "byteOffset": 0,
      "byteLength": 1140
    },
    {
      "buffer": 2,
      "byteOffset": 0,
      "byteLength": 1140
    },
    {
      "buffer": 3,
      "byteOffset": 0,
      "byteLength": 1140
    }
  ],
  "meshes": [
    {
      "primitives": [
        {
          "mode": 4,
          "indices": 0,
          "attributes": {
            "POSITION": 1,
            "NORMAL": 2,
            "COLOR_0": 3
          }
        }
      ]
    }
  ],
  "nodes": [
    {
      "children": [
        1
      ]
    },
    {
      "mesh": 0
    }
  ],
  "scenes": [
    {
      "nodes": [
        0
      ]
    }
  ],
  "scene": 0
}