{
  "asset": {
    "version": "2.0",
    "generator": "COLLADA2GLTF"
  },
  "accessors": [
    {
      "bufferView": 0,
      "byteOffset": 0,
      "componentType": 5123,
      "count": 2184,
      "min": [
        0
      ],
      "max": [
        868
      ],
      "type": "SCALAR"
    },
    {
      "bufferView": 1,
      "byteOffset": 0,
      "componentType": 5126,
      "count": 869,
      "max": [
        -265.1629943847656,
        0.11999999731779099,
        793.844970703125
      ],
      "min": [
        -368.1940002441406,
        -0.20000000298023224,
        550.4210205078125
      ],
      "type": "VEC3"
    },
    {
      "bufferView": 2,
      "byteOffset": 0,
      "componentType": 5126,
      "count": 869,
      "max": [
        0.8818588852882385,
        1,
        0.77869713306427
      ],
      "min": [
        -0.8818588852882385,
        -1,
        -0.7450466156005859
      ],
      "type": "VEC3"
    },
    {
      "bufferView": 3,
      "byteOffset": 0,
      "componentType": 5126,
      "count": 869,
      "max": [
        0.7872740030288696,
        1,
        1
      ],
      "min": [
        0,
        0.00003051804378628731,
        0.00004577706567943096
      ],
      "type": "VEC3"
    }
  ],
  "buffers": [
    {
      "byteLength": 4368,
      "uri": "data:application/octet-stream;base64,"
    },
    {
      "byteLength": 10428,
      "uri": "data:application/octet-stream;base64,"
    },
    {
      "byteLength": 10428,
      "uri": "data:application/octet-stream;base64,"
    },
    {
      "byteLength": 10428,
      "uri": "data:application/octet-stream;base64,"
    }
  ],
  "bufferViews": [
    {
      "buffer": 0,
      "byteOffset": 0,
      "byteLength": 4368
    },
    {
      "buffer": 1,
      "byteOffset": 0,
      "byteLength": 10428
    },
    {
      "buffer": 2,
      "byteOffset": 0,
      "byteLength": 10428
    },
    {
      "buffer": 3,
      "byteOffset": 0,
      "byteLength": 10428
    }
  ],
  "meshes": [
    {
      "primitives": [
        {
          "mode": 4,
          "indices": 0,
          "attributes": {
            "POSITION": 1,
            "NORMAL": 2,
            "COLOR_0": 3
          }
        }
      ]
    }
  ],
  "nodes": [
    {
      "children": [
        1
      ]
    },
    {
      "mesh": 0
    }
  ],
  "scenes": [
    {
      "nodes": [
        0
      ]
    }
  ],
  "scene": 0
}