{
  "asset": {
    "version": "2.0",
    "generator": "COLLADA2GLTF"
  },
  "accessors": [
    {
      "bufferView": 0,
      "byteOffset": 0,
      "componentType": 5123,
      "count": 5526,
      "min": [
        0
      ],
      "max": [
        2159
      ],
      "type": "SCALAR"
    },
    {
      "bufferView": 1,
      "byteOffset": 0,
      "componentType": 5126,
      "count": 2160,
      "max": [
        -2087.952880859375,
        17.165000915527344,
        486.5875244140625
      ],
      "min": [
        -2305.697265625,
        12,
        130.09068298339844
      ],
      "type": "VEC3"
    },
    {
      "bufferView": 2,
      "byteOffset": 0,
      "componentType": 5126,
      "count": 2160,
      "max": [
        0.8571977615356445,
        0.707068920135498,
        0.8571977615356445
      ],
      "min": [
        -0.8571977615356445,
        -0.707068920135498,
        -0.8571977615356445
      ],
      "type": "VEC3"
    },
    {
      "bufferView": 3,
      "byteOffset": 0,
      "componentType": 5126,
      "count": 2160,
      "max": [
        0.4480048716068268,
        0.4480048716068268,
        0.4480659067630768
      ],
      "min": [
        0,
        0,
        0
      ],
      "type": "VEC3"
    }
  ],
  "buffers": [
    {
      "byteLength": 11052,
      "uri": "data:application/octet-stream;base64,"
    },
    {
      "byteLength": 25920,
      "uri": "data:application/octet-stream;base64,"
    },
    {
      "byteLength": 25920,
      "uri": "data:application/octet-stream;base64,"
    },
    {
      "byteLength": 25920,
      "uri": "data:application/octet-stream;base64,"
    }
  ],
  "bufferViews": [
    {
      "buffer": 0,
      "byteOffset": 0,
      "byteLength": 11052
    },
    {
      "buffer": 1,
      "byteOffset": 0,
      "byteLength": 25920
    },
    {
      "buffer": 2,
      "byteOffset": 0,
      "byteLength": 25920
    },
    {
      "buffer": 3,
      "byteOffset": 0,
      "byteLength": 25920
    }
  ],
  "meshes": [
    {
      "primitives": [
        {
          "mode": 4,
          "indices": 0,
          "attributes": {
            "POSITION": 1,
            "NORMAL": 2,
            "COLOR_0": 3
          }
        }
      ]
    }
  ],
  "nodes": [
    {
      "children": [
        1
      ]
    },
    {
      "mesh": 0
    }
  ],
  "scenes": [
    {
      "nodes": [
        0
      ]
    }
  ],
  "scene": 0
}