{
  "asset": {
    "version": "2.0",
    "generator": "COLLADA2GLTF"
  },
  "accessors": [
    {
      "bufferView": 0,
      "byteOffset": 0,
      "componentType": 5123,
      "count": 390,
      "min": [
        0
      ],
      "max": [
        141
      ],
      "type": "SCALAR"
    },
    {
      "bufferView": 1,
      "byteOffset": 0,
      "componentType": 5126,
      "count": 142,
      "max": [
        -463.230224609375,
        0,
        -778.1585693359375
      ],
      "min": [
        -505.65728759765625,
        -3,
        -825.2063598632812
      ],
      "type": "VEC3"
    },
    {
      "bufferView": 2,
      "byteOffset": 0,
      "componentType": 5126,
      "count": 142,
      "max": [
        0.7662554383277893,
        1,
        0.7662551999092102
      ],
      "min": [
        -0.7662551999092102,
        -1,
        -0.7662551999092102
      ],
      "type": "VEC3"
    },
    {
      "bufferView": 3,
      "byteOffset": 0,
      "componentType": 5126,
      "count": 142,
      "max": [
        0.21585412323474884,
        0.21585412323474884,
        0.21589989960193634
      ],
      "min": [
        0.21585412323474884,
        0.21585412323474884,
        0.21589989960193634
      ],
      "type": "VEC3"
    }
  ],
  "buffers": [
    {
      "byteLength": 780,
      "uri": "data:application/octet-stream;base64,"
    },
    {
      "byteLength": 1704,
      "uri": "data:application/octet-stream;base64,"
    },
    {
      "byteLength": 1704,
      "uri": "data:application/octet-stream;base64,"
    },
    {
      "byteLength": 1704,
      "uri": "data:application/octet-stream;base64,"
    }
  ],
  "bufferViews": [
    {
      "buffer": 0,
      "byteOffset": 0,
      "byteLength": 780
    },
    {
      "buffer": 1,
      "byteOffset": 0,
      "byteLength": 1704
    },
    {
      "buffer": 2,
      "byteOffset": 0,
      "byteLength": 1704
    },
    {
      "buffer": 3,
      "byteOffset": 0,
      "byteLength": 1704
    }
  ],
  "meshes": [
    {
      "primitives": [
        {
          "mode": 4,
          "indices": 0,
          "attributes": {
            "POSITION": 1,
            "NORMAL": 2,
            "COLOR_0": 3
          }
        }
      ]
    }
  ],
  "nodes": [
    {
      "children": [
        1
      ]
    },
    {
      "mesh": 0
    }
  ],
  "scenes": [
    {
      "nodes": [
        0
      ]
    }
  ],
  "scene": 0
}