{
  "asset": {
    "version": "2.0",
    "generator": "COLLADA2GLTF"
  },
  "accessors": [
    {
      "bufferView": 0,
      "byteOffset": 0,
      "componentType": 5123,
      "count": 1119,
      "min": [
        0
      ],
      "max": [
        740
      ],
      "type": "SCALAR"
    },
    {
      "bufferView": 1,
      "byteOffset": 0,
      "componentType": 5126,
      "count": 741,
      "max": [
        -366.5710144042969,
        7.5,
        159.4199981689453
      ],
      "min": [
        -584.14697265625,
        7.5,
        -290.27899169921875
      ],
      "type": "VEC3"
    },
    {
      "bufferView": 2,
      "byteOffset": 0,
      "componentType": 5126,
      "count": 741,
      "max": [
        0.9999503493309021,
        1,
        0.9999581575393677
      ],
      "min": [
        -0.9999548196792603,
        0,
        -0.9999572038650513
      ],
      "type": "VEC3"
    },
    {
      "bufferView": 3,
      "byteOffset": 0,
      "componentType": 5126,
      "count": 741,
      "max": [
        0.999786376953125,
        0.7875181436538696,
        0.26330968737602234
      ],
      "min": [
        0.6036774516105652,
        0.00003051804378628731,
        0
      ],
      "type": "VEC3"
    }
  ],
  "buffers": [
    {
      "byteLength": 2238,
      "uri": "data:application/octet-stream;base64,"
    },
    {
      "byteLength": 8892,
      "uri": "data:application/octet-stream;base64,"
    },
    {
      "byteLength": 8892,
      "uri": "data:application/octet-stream;base64,"
    },
    {
      "byteLength": 8892,
      "uri": "data:application/octet-stream;base64,"
    }
  ],
  "bufferViews": [
    {
      "buffer": 0,
      "byteOffset": 0,
      "byteLength": 2238
    },
    {
      "buffer": 1,
      "byteOffset": 0,
      "byteLength": 8892
    },
    {
      "buffer": 2,
      "byteOffset": 0,
      "byteLength": 8892
    },
    {
      "buffer": 3,
      "byteOffset": 0,
      "byteLength": 8892
    }
  ],
  "meshes": [
    {
      "primitives": [
        {
          "mode": 4,
          "indices": 0,
          "attributes": {
            "POSITION": 1,
            "NORMAL": 2,
            "COLOR_0": 3
          }
        }
      ]
    }
  ],
  "nodes": [
    {
      "children": [
        1
      ]
    },
    {
      "mesh": 0
    }
  ],
  "scenes": [
    {
      "nodes": [
        0
      ]
    }
  ],
  "scene": 0
}