{
  "asset": {
    "version": "2.0",
    "generator": "COLLADA2GLTF"
  },
  "accessors": [
    {
      "bufferView": 0,
      "byteOffset": 0,
      "componentType": 5123,
      "count": 3120,
      "min": [
        0
      ],
      "max": [
        1210
      ],
      "type": "SCALAR"
    },
    {
      "bufferView": 1,
      "byteOffset": 0,
      "componentType": 5126,
      "count": 1211,
      "max": [
        744.2781372070312,
        0,
        -61.147029876708984
      ],
      "min": [
        604.7379760742188,
        0,
        -348.3128356933594
      ],
      "type": "VEC3"
    },
    {
      "bufferView": 2,
      "byteOffset": 0,
      "componentType": 5126,
      "count": 1211,
      "max": [
        0,
        1,
        0
      ],
      "min": [
        0,
        1,
        0
      ],
      "type": "VEC3"
    },
    {
      "bufferView": 3,
      "byteOffset": 0,
      "componentType": 5126,
      "count": 1211,
      "max": [
        0.13284504413604736,
        1,
        0.13290607929229736
      ],
      "min": [
        0.000015259021893143654,
        0.07324330508708954,
        0.00004577706567943096
      ],
      "type": "VEC3"
    }
  ],
  "buffers": [
    {
      "byteLength": 6240,
      "uri": "data:application/octet-stream;base64,"
    },
    {
      "byteLength": 14532,
      "uri": "data:application/octet-stream;base64,"
    },
    {
      "byteLength": 14532,
      "uri": "data:application/octet-stream;base64,"
    },
    {
      "byteLength": 14532,
      "uri": "data:application/octet-stream;base64,"
    }
  ],
  "bufferViews": [
    {
      "buffer": 0,
      "byteOffset": 0,
      "byteLength": 6240
    },
    {
      "buffer": 1,
      "byteOffset": 0,
      "byteLength": 14532
    },
    {
      "buffer": 2,
      "byteOffset": 0,
      "byteLength": 14532
    },
    {
      "buffer": 3,
      "byteOffset": 0,
      "byteLength": 14532
    }
  ],
  "meshes": [
    {
      "primitives": [
        {
          "mode": 4,
          "indices": 0,
          "attributes": {
            "POSITION": 1,
            "NORMAL": 2,
            "COLOR_0": 3
          }
        }
      ]
    }
  ],
  "nodes": [
    {
      "children": [
        1
      ]
    },
    {
      "mesh": 0
    }
  ],
  "scenes": [
    {
      "nodes": [
        0
      ]
    }
  ],
  "scene": 0
}