{
  "asset": {
    "version": "2.0",
    "generator": "COLLADA2GLTF"
  },
  "accessors": [
    {
      "bufferView": 0,
      "byteOffset": 0,
      "componentType": 5123,
      "count": 4557,
      "min": [
        0
      ],
      "max": [
        1709
      ],
      "type": "SCALAR"
    },
    {
      "bufferView": 1,
      "byteOffset": 0,
      "componentType": 5126,
      "count": 1710,
      "max": [
        1907.3065185546875,
        0.10000000149011612,
        -1403.0660400390625
      ],
      "min": [
        1885.244384765625,
        0,
        -1422.5770263671875
      ],
      "type": "VEC3"
    },
    {
      "bufferView": 2,
      "byteOffset": 0,
      "componentType": 5126,
      "count": 1710,
      "max": [
        0.7520301342010498,
        0.9485508799552917,
        0.7520301342010498
      ],
      "min": [
        -0.6591287851333618,
        0,
        -0.7520301342010498
      ],
      "type": "VEC3"
    },
    {
      "bufferView": 3,
      "byteOffset": 0,
      "componentType": 5126,
      "count": 1710,
      "max": [
        0.26324865221977234,
        0.26329442858695984,
        0.26329442858695984
      ],
      "min": [
        0.26324865221977234,
        0.26329442858695984,
        0.26329442858695984
      ],
      "type": "VEC3"
    }
  ],
  "buffers": [
    {
      "byteLength": 9114,
      "uri": "data:application/octet-stream;base64,"
    },
    {
      "byteLength": 20520,
      "uri": "data:application/octet-stream;base64,"
    },
    {
      "byteLength": 20520,
      "uri": "data:application/octet-stream;base64,"
    },
    {
      "byteLength": 20520,
      "uri": "data:application/octet-stream;base64,"
    }
  ],
  "bufferViews": [
    {
      "buffer": 0,
      "byteOffset": 0,
      "byteLength": 9114
    },
    {
      "buffer": 1,
      "byteOffset": 0,
      "byteLength": 20520
    },
    {
      "buffer": 2,
      "byteOffset": 0,
      "byteLength": 20520
    },
    {
      "buffer": 3,
      "byteOffset": 0,
      "byteLength": 20520
    }
  ],
  "meshes": [
    {
      "primitives": [
        {
          "mode": 4,
          "indices": 0,
          "attributes": {
            "POSITION": 1,
            "NORMAL": 2,
            "COLOR_0": 3
          }
        }
      ]
    }
  ],
  "nodes": [
    {
      "children": [
        1
      ]
    },
    {
      "mesh": 0
    }
  ],
  "scenes": [
    {
      "nodes": [
        0
      ]
    }
  ],
  "scene": 0
}