{
  "asset": {
    "version": "2.0",
    "generator": "COLLADA2GLTF"
  },
  "accessors": [
    {
      "bufferView": 0,
      "byteOffset": 0,
      "componentType": 5123,
      "count": 5127,
      "min": [
        0
      ],
      "max": [
        1764
      ],
      "type": "SCALAR"
    },
    {
      "bufferView": 1,
      "byteOffset": 0,
      "componentType": 5126,
      "count": 1765,
      "max": [
        -3994.947509765625,
        0.14777499437332153,
        836.5134887695312
      ],
      "min": [
        -4306.896484375,
        -1,
        601.0372924804688
      ],
      "type": "VEC3"
    },
    {
      "bufferView": 2,
      "byteOffset": 0,
      "componentType": 5126,
      "count": 1765,
      "max": [
        0.7598442435264587,
        1,
        0.7598442435264587
      ],
      "min": [
        -0.7598442435264587,
        -1,
        -0.7639492750167847
      ],
      "type": "VEC3"
    },
    {
      "bufferView": 3,
      "byteOffset": 0,
      "componentType": 5126,
      "count": 1765,
      "max": [
        0.5774929523468018,
        1,
        1
      ],
      "min": [
        0,
        0.00003051804378628731,
        0.00004577706567943096
      ],
      "type": "VEC3"
    }
  ],
  "buffers": [
    {
      "byteLength": 10254,
      "uri": "data:application/octet-stream;base64,"
    },
    {
      "byteLength": 21180,
      "uri": "data:application/octet-stream;base64,"
    },
    {
      "byteLength": 21180,
      "uri": "data:application/octet-stream;base64,"
    },
    {
      "byteLength": 21180,
      "uri": "data:application/octet-stream;base64,"
    }
  ],
  "bufferViews": [
    {
      "buffer": 0,
      "byteOffset": 0,
      "byteLength": 10254
    },
    {
      "buffer": 1,
      "byteOffset": 0,
      "byteLength": 21180
    },
    {
      "buffer": 2,
      "byteOffset": 0,
      "byteLength": 21180
    },
    {
      "buffer": 3,
      "byteOffset": 0,
      "byteLength": 21180
    }
  ],
  "meshes": [
    {
      "primitives": [
        {
          "mode": 4,
          "indices": 0,
          "attributes": {
            "POSITION": 1,
            "NORMAL": 2,
            "COLOR_0": 3
          }
        }
      ]
    }
  ],
  "nodes": [
    {
      "children": [
        1
      ]
    },
    {
      "mesh": 0
    }
  ],
  "scenes": [
    {
      "nodes": [
        0
      ]
    }
  ],
  "scene": 0
}