{
  "asset": {
    "version": "2.0",
    "generator": "COLLADA2GLTF"
  },
  "accessors": [
    {
      "bufferView": 0,
      "byteOffset": 0,
      "componentType": 5123,
      "count": 183,
      "min": [
        0
      ],
      "max": [
        69
      ],
      "type": "SCALAR"
    },
    {
      "bufferView": 1,
      "byteOffset": 0,
      "componentType": 5126,
      "count": 70,
      "max": [
        2714.883544921875,
        14.5,
        6143.07861328125
      ],
      "min": [
        2706.694580078125,
        7,
        6134.8896484375
      ],
      "type": "VEC3"
    },
    {
      "bufferView": 2,
      "byteOffset": 0,
      "componentType": 5126,
      "count": 70,
      "max": [
        0.8668160438537598,
        -0.04440061375498772,
        0.8668160438537598
      ],
      "min": [
        -0.8668160438537598,
        -0.3162277638912201,
        -0.8668160438537598
      ],
      "type": "VEC3"
    },
    {
      "bufferView": 3,
      "byteOffset": 0,
      "componentType": 5126,
      "count": 70,
      "max": [
        0.4480048716068268,
        0.4480048716068268,
        0.4480659067630768
      ],
      "min": [
        0.4480048716068268,
        0.4480048716068268,
        0.4480659067630768
      ],
      "type": "VEC3"
    }
  ],
  "buffers": [
    {
      "byteLength": 366,
      "uri": "data:application/octet-stream;base64,"
    },
    {
      "byteLength": 840,
      "uri": "data:application/octet-stream;base64,"
    },
    {
      "byteLength": 840,
      "uri": "data:application/octet-stream;base64,"
    },
    {
      "byteLength": 840,
      "uri": "data:application/octet-stream;base64,"
    }
  ],
  "bufferViews": [
    {
      "buffer": 0,
      "byteOffset": 0,
      "byteLength": 366
    },
    {
      "buffer": 1,
      "byteOffset": 0,
      "byteLength": 840
    },
    {
      "buffer": 2,
      "byteOffset": 0,
      "byteLength": 840
    },
    {
      "buffer": 3,
      "byteOffset": 0,
      "byteLength": 840
    }
  ],
  "meshes": [
    {
      "primitives": [
        {
          "mode": 4,
          "indices": 0,
          "attributes": {
            "POSITION": 1,
            "NORMAL": 2,
            "COLOR_0": 3
          }
        }
      ]
    }
  ],
  "nodes": [
    {
      "children": [
        1
      ]
    },
    {
      "mesh": 0
    }
  ],
  "scenes": [
    {
      "nodes": [
        0
      ]
    }
  ],
  "scene": 0
}