{
  "asset": {
    "version": "2.0",
    "generator": "COLLADA2GLTF"
  },
  "accessors": [
    {
      "bufferView": 0,
      "byteOffset": 0,
      "componentType": 5123,
      "count": 1686,
      "min": [
        0
      ],
      "max": [
        1273
      ],
      "type": "SCALAR"
    },
    {
      "bufferView": 1,
      "byteOffset": 0,
      "componentType": 5126,
      "count": 1274,
      "max": [
        -1174.93994140625,
        87.5,
        930.6727905273438
      ],
      "min": [
        -1693.8048095703125,
        0,
        255.25343322753906
      ],
      "type": "VEC3"
    },
    {
      "bufferView": 2,
      "byteOffset": 0,
      "componentType": 5126,
      "count": 1274,
      "max": [
        0.8289016485214233,
        1,
        0.828852653503418
      ],
      "min": [
        -0.9807010293006897,
        0,
        -0.8222334980964661
      ],
      "type": "VEC3"
    },
    {
      "bufferView": 3,
      "byteOffset": 0,
      "componentType": 5126,
      "count": 1274,
      "max": [
        0.999786376953125,
        0.7875181436538696,
        0.26330968737602234
      ],
      "min": [
        0.6036774516105652,
        0.00003051804378628731,
        0
      ],
      "type": "VEC3"
    }
  ],
  "buffers": [
    {
      "byteLength": 3372,
      "uri": "data:application/octet-stream;base64,"
    },
    {
      "byteLength": 15288,
      "uri": "data:application/octet-stream;base64,"
    },
    {
      "byteLength": 15288,
      "uri": "data:application/octet-stream;base64,"
    },
    {
      "byteLength": 15288,
      "uri": "data:application/octet-stream;base64,"
    }
  ],
  "bufferViews": [
    {
      "buffer": 0,
      "byteOffset": 0,
      "byteLength": 3372
    },
    {
      "buffer": 1,
      "byteOffset": 0,
      "byteLength": 15288
    },
    {
      "buffer": 2,
      "byteOffset": 0,
      "byteLength": 15288
    },
    {
      "buffer": 3,
      "byteOffset": 0,
      "byteLength": 15288
    }
  ],
  "meshes": [
    {
      "primitives": [
        {
          "mode": 4,
          "indices": 0,
          "attributes": {
            "POSITION": 1,
            "NORMAL": 2,
            "COLOR_0": 3
          }
        }
      ]
    }
  ],
  "nodes": [
    {
      "children": [
        1
      ]
    },
    {
      "mesh": 0
    }
  ],
  "scenes": [
    {
      "nodes": [
        0
      ]
    }
  ],
  "scene": 0
}