{
  "asset": {
    "version": "2.0",
    "generator": "COLLADA2GLTF"
  },
  "accessors": [
    {
      "bufferView": 0,
      "byteOffset": 0,
      "componentType": 5123,
      "count": 1914,
      "min": [
        0
      ],
      "max": [
        820
      ],
      "type": "SCALAR"
    },
    {
      "bufferView": 1,
      "byteOffset": 0,
      "componentType": 5126,
      "count": 821,
      "max": [
        -3001.8486328125,
        14.5,
        458.28851318359375
      ],
      "min": [
        -3350.004638671875,
        9.28499984741211,
        216.00592041015625
      ],
      "type": "VEC3"
    },
    {
      "bufferView": 2,
      "byteOffset": 0,
      "componentType": 5126,
      "count": 821,
      "max": [
        0.8352965712547302,
        0.7064801454544067,
        0.8352965712547302
      ],
      "min": [
        -0.8352965712547302,
        -0.7058801651000977,
        -0.8352965712547302
      ],
      "type": "VEC3"
    },
    {
      "bufferView": 3,
      "byteOffset": 0,
      "componentType": 5126,
      "count": 821,
      "max": [
        0.4480048716068268,
        0.4480048716068268,
        0.4480659067630768
      ],
      "min": [
        0,
        0,
        0
      ],
      "type": "VEC3"
    }
  ],
  "buffers": [
    {
      "byteLength": 3828,
      "uri": "data:application/octet-stream;base64,"
    },
    {
      "byteLength": 9852,
      "uri": "data:application/octet-stream;base64,"
    },
    {
      "byteLength": 9852,
      "uri": "data:application/octet-stream;base64,"
    },
    {
      "byteLength": 9852,
      "uri": "data:application/octet-stream;base64,"
    }
  ],
  "bufferViews": [
    {
      "buffer": 0,
      "byteOffset": 0,
      "byteLength": 3828
    },
    {
      "buffer": 1,
      "byteOffset": 0,
      "byteLength": 9852
    },
    {
      "buffer": 2,
      "byteOffset": 0,
      "byteLength": 9852
    },
    {
      "buffer": 3,
      "byteOffset": 0,
      "byteLength": 9852
    }
  ],
  "meshes": [
    {
      "primitives": [
        {
          "mode": 4,
          "indices": 0,
          "attributes": {
            "POSITION": 1,
            "NORMAL": 2,
            "COLOR_0": 3
          }
        }
      ]
    }
  ],
  "nodes": [
    {
      "children": [
        1
      ]
    },
    {
      "mesh": 0
    }
  ],
  "scenes": [
    {
      "nodes": [
        0
      ]
    }
  ],
  "scene": 0
}