{
  "asset": {
    "version": "2.0",
    "generator": "COLLADA2GLTF"
  },
  "accessors": [
    {
      "bufferView": 0,
      "byteOffset": 0,
      "componentType": 5123,
      "count": 846,
      "min": [
        0
      ],
      "max": [
        403
      ],
      "type": "SCALAR"
    },
    {
      "bufferView": 1,
      "byteOffset": 0,
      "componentType": 5126,
      "count": 404,
      "max": [
        -554.8118896484375,
        37.025001525878906,
        4855.23095703125
      ],
      "min": [
        -1449.176513671875,
        17,
        4497.265625
      ],
      "type": "VEC3"
    },
    {
      "bufferView": 2,
      "byteOffset": 0,
      "componentType": 5126,
      "count": 404,
      "max": [
        0.9304949641227722,
        0.7067506313323975,
        0.9295935034751892
      ],
      "min": [
        -0.9304949641227722,
        -0.7067506313323975,
        -0.9304949641227722
      ],
      "type": "VEC3"
    },
    {
      "bufferView": 3,
      "byteOffset": 0,
      "componentType": 5126,
      "count": 404,
      "max": [
        0.4480048716068268,
        0.4480048716068268,
        0.4480659067630768
      ],
      "min": [
        0,
        0,
        0
      ],
      "type": "VEC3"
    }
  ],
  "buffers": [
    {
      "byteLength": 1692,
      "uri": "data:application/octet-stream;base64,"
    },
    {
      "byteLength": 4848,
      "uri": "data:application/octet-stream;base64,"
    },
    {
      "byteLength": 4848,
      "uri": "data:application/octet-stream;base64,"
    },
    {
      "byteLength": 4848,
      "uri": "data:application/octet-stream;base64,"
    }
  ],
  "bufferViews": [
    {
      "buffer": 0,
      "byteOffset": 0,
      "byteLength": 1692
    },
    {
      "buffer": 1,
      "byteOffset": 0,
      "byteLength": 4848
    },
    {
      "buffer": 2,
      "byteOffset": 0,
      "byteLength": 4848
    },
    {
      "buffer": 3,
      "byteOffset": 0,
      "byteLength": 4848
    }
  ],
  "meshes": [
    {
      "primitives": [
        {
          "mode": 4,
          "indices": 0,
          "attributes": {
            "POSITION": 1,
            "NORMAL": 2,
            "COLOR_0": 3
          }
        }
      ]
    }
  ],
  "nodes": [
    {
      "children": [
        1
      ]
    },
    {
      "mesh": 0
    }
  ],
  "scenes": [
    {
      "nodes": [
        0
      ]
    }
  ],
  "scene": 0
}