{
  "asset": {
    "version": "2.0",
    "generator": "COLLADA2GLTF"
  },
  "accessors": [
    {
      "bufferView": 0,
      "byteOffset": 0,
      "componentType": 5123,
      "count": 114,
      "min": [
        0
      ],
      "max": [
        43
      ],
      "type": "SCALAR"
    },
    {
      "bufferView": 1,
      "byteOffset": 0,
      "componentType": 5126,
      "count": 44,
      "max": [
        719.252197265625,
        0,
        -936.5236206054688
      ],
      "min": [
        679.8829345703125,
        -3,
        -992.2313232421875
      ],
      "type": "VEC3"
    },
    {
      "bufferView": 2,
      "byteOffset": 0,
      "componentType": 5126,
      "count": 44,
      "max": [
        0.8973720669746399,
        1,
        0.8973720669746399
      ],
      "min": [
        -0.8973720669746399,
        -1,
        -0.9109291434288025
      ],
      "type": "VEC3"
    },
    {
      "bufferView": 3,
      "byteOffset": 0,
      "componentType": 5126,
      "count": 44,
      "max": [
        0.21585412323474884,
        0.21585412323474884,
        0.21589989960193634
      ],
      "min": [
        0.21585412323474884,
        0.21585412323474884,
        0.21589989960193634
      ],
      "type": "VEC3"
    }
  ],
  "buffers": [
    {
      "byteLength": 228,
      "uri": "data:application/octet-stream;base64,"
    },
    {
      "byteLength": 528,
      "uri": "data:application/octet-stream;base64,"
    },
    {
      "byteLength": 528,
      "uri": "data:application/octet-stream;base64,"
    },
    {
      "byteLength": 528,
      "uri": "data:application/octet-stream;base64,"
    }
  ],
  "bufferViews": [
    {
      "buffer": 0,
      "byteOffset": 0,
      "byteLength": 228
    },
    {
      "buffer": 1,
      "byteOffset": 0,
      "byteLength": 528
    },
    {
      "buffer": 2,
      "byteOffset": 0,
      "byteLength": 528
    },
    {
      "buffer": 3,
      "byteOffset": 0,
      "byteLength": 528
    }
  ],
  "meshes": [
    {
      "primitives": [
        {
          "mode": 4,
          "indices": 0,
          "attributes": {
            "POSITION": 1,
            "NORMAL": 2,
            "COLOR_0": 3
          }
        }
      ]
    }
  ],
  "nodes": [
    {
      "children": [
        1
      ]
    },
    {
      "mesh": 0
    }
  ],
  "scenes": [
    {
      "nodes": [
        0
      ]
    }
  ],
  "scene": 0
}