{
  "asset": {
    "version": "2.0",
    "generator": "COLLADA2GLTF"
  },
  "accessors": [
    {
      "bufferView": 0,
      "byteOffset": 0,
      "componentType": 5123,
      "count": 618,
      "min": [
        0
      ],
      "max": [
        351
      ],
      "type": "SCALAR"
    },
    {
      "bufferView": 1,
      "byteOffset": 0,
      "componentType": 5126,
      "count": 352,
      "max": [
        -877.7330322265625,
        7.5,
        1010.6696166992188
      ],
      "min": [
        -1170,
        0,
        720
      ],
      "type": "VEC3"
    },
    {
      "bufferView": 2,
      "byteOffset": 0,
      "componentType": 5126,
      "count": 352,
      "max": [
        0.8203231692314148,
        1,
        0.8203676342964172
      ],
      "min": [
        -0.8202387690544128,
        0,
        -0.8217384219169617
      ],
      "type": "VEC3"
    },
    {
      "bufferView": 3,
      "byteOffset": 0,
      "componentType": 5126,
      "count": 352,
      "max": [
        0.999786376953125,
        1,
        0.7875028848648071
      ],
      "min": [
        0.000015259021893143654,
        0.07324330508708954,
        0.00004577706567943096
      ],
      "type": "VEC3"
    }
  ],
  "buffers": [
    {
      "byteLength": 1236,
      "uri": "data:application/octet-stream;base64,"
    },
    {
      "byteLength": 4224,
      "uri": "data:application/octet-stream;base64,"
    },
    {
      "byteLength": 4224,
      "uri": "data:application/octet-stream;base64,"
    },
    {
      "byteLength": 4224,
      "uri": "data:application/octet-stream;base64,"
    }
  ],
  "bufferViews": [
    {
      "buffer": 0,
      "byteOffset": 0,
      "byteLength": 1236
    },
    {
      "buffer": 1,
      "byteOffset": 0,
      "byteLength": 4224
    },
    {
      "buffer": 2,
      "byteOffset": 0,
      "byteLength": 4224
    },
    {
      "buffer": 3,
      "byteOffset": 0,
      "byteLength": 4224
    }
  ],
  "meshes": [
    {
      "primitives": [
        {
          "mode": 4,
          "indices": 0,
          "attributes": {
            "POSITION": 1,
            "NORMAL": 2,
            "COLOR_0": 3
          }
        }
      ]
    }
  ],
  "nodes": [
    {
      "children": [
        1
      ]
    },
    {
      "mesh": 0
    }
  ],
  "scenes": [
    {
      "nodes": [
        0
      ]
    }
  ],
  "scene": 0
}