{
  "asset": {
    "version": "2.0",
    "generator": "COLLADA2GLTF"
  },
  "accessors": [
    {
      "bufferView": 0,
      "byteOffset": 0,
      "componentType": 5123,
      "count": 1764,
      "min": [
        0
      ],
      "max": [
        914
      ],
      "type": "SCALAR"
    },
    {
      "bufferView": 1,
      "byteOffset": 0,
      "componentType": 5126,
      "count": 915,
      "max": [
        1444.833984375,
        7.5,
        -1353.1109619140625
      ],
      "min": [
        1303.77001953125,
        0,
        -1561.1619873046875
      ],
      "type": "VEC3"
    },
    {
      "bufferView": 2,
      "byteOffset": 0,
      "componentType": 5126,
      "count": 915,
      "max": [
        1,
        1,
        1
      ],
      "min": [
        -1,
        0,
        -1
      ],
      "type": "VEC3"
    },
    {
      "bufferView": 3,
      "byteOffset": 0,
      "componentType": 5126,
      "count": 915,
      "max": [
        0.999786376953125,
        0.7875181436538696,
        0.26330968737602234
      ],
      "min": [
        0.9549705982208252,
        0.7874418497085571,
        0.003997863736003637
      ],
      "type": "VEC3"
    }
  ],
  "buffers": [
    {
      "byteLength": 3528,
      "uri": "data:application/octet-stream;base64,"
    },
    {
      "byteLength": 10980,
      "uri": "data:application/octet-stream;base64,"
    },
    {
      "byteLength": 10980,
      "uri": "data:application/octet-stream;base64,"
    },
    {
      "byteLength": 10980,
      "uri": "data:application/octet-stream;base64,"
    }
  ],
  "bufferViews": [
    {
      "buffer": 0,
      "byteOffset": 0,
      "byteLength": 3528
    },
    {
      "buffer": 1,
      "byteOffset": 0,
      "byteLength": 10980
    },
    {
      "buffer": 2,
      "byteOffset": 0,
      "byteLength": 10980
    },
    {
      "buffer": 3,
      "byteOffset": 0,
      "byteLength": 10980
    }
  ],
  "meshes": [
    {
      "primitives": [
        {
          "mode": 4,
          "indices": 0,
          "attributes": {
            "POSITION": 1,
            "NORMAL": 2,
            "COLOR_0": 3
          }
        }
      ]
    }
  ],
  "nodes": [
    {
      "children": [
        1
      ]
    },
    {
      "mesh": 0
    }
  ],
  "scenes": [
    {
      "nodes": [
        0
      ]
    }
  ],
  "scene": 0
}