{
  "asset": {
    "version": "2.0",
    "generator": "COLLADA2GLTF"
  },
  "accessors": [
    {
      "bufferView": 0,
      "byteOffset": 0,
      "componentType": 5123,
      "count": 675,
      "min": [
        0
      ],
      "max": [
        378
      ],
      "type": "SCALAR"
    },
    {
      "bufferView": 1,
      "byteOffset": 0,
      "componentType": 5126,
      "count": 379,
      "max": [
        -935.9550170898438,
        7.5,
        -533.072998046875
      ],
      "min": [
        -1031.2230224609375,
        0,
        -688.7030029296875
      ],
      "type": "VEC3"
    },
    {
      "bufferView": 2,
      "byteOffset": 0,
      "componentType": 5126,
      "count": 379,
      "max": [
        0.9976686835289001,
        1,
        0.997613787651062
      ],
      "min": [
        -0.9976620078086853,
        0,
        -0.9976146817207336
      ],
      "type": "VEC3"
    },
    {
      "bufferView": 3,
      "byteOffset": 0,
      "componentType": 5126,
      "count": 379,
      "max": [
        0.999786376953125,
        0.7875181436538696,
        0.26330968737602234
      ],
      "min": [
        0.6036774516105652,
        0.00003051804378628731,
        0
      ],
      "type": "VEC3"
    }
  ],
  "buffers": [
    {
      "byteLength": 1350,
      "uri": "data:application/octet-stream;base64,"
    },
    {
      "byteLength": 4548,
      "uri": "data:application/octet-stream;base64,"
    },
    {
      "byteLength": 4548,
      "uri": "data:application/octet-stream;base64,"
    },
    {
      "byteLength": 4548,
      "uri": "data:application/octet-stream;base64,"
    }
  ],
  "bufferViews": [
    {
      "buffer": 0,
      "byteOffset": 0,
      "byteLength": 1350
    },
    {
      "buffer": 1,
      "byteOffset": 0,
      "byteLength": 4548
    },
    {
      "buffer": 2,
      "byteOffset": 0,
      "byteLength": 4548
    },
    {
      "buffer": 3,
      "byteOffset": 0,
      "byteLength": 4548
    }
  ],
  "meshes": [
    {
      "primitives": [
        {
          "mode": 4,
          "indices": 0,
          "attributes": {
            "POSITION": 1,
            "NORMAL": 2,
            "COLOR_0": 3
          }
        }
      ]
    }
  ],
  "nodes": [
    {
      "children": [
        1
      ]
    },
    {
      "mesh": 0
    }
  ],
  "scenes": [
    {
      "nodes": [
        0
      ]
    }
  ],
  "scene": 0
}