{
  "asset": {
    "version": "2.0",
    "generator": "COLLADA2GLTF"
  },
  "accessors": [
    {
      "bufferView": 0,
      "byteOffset": 0,
      "componentType": 5123,
      "count": 1005,
      "min": [
        0
      ],
      "max": [
        432
      ],
      "type": "SCALAR"
    },
    {
      "bufferView": 1,
      "byteOffset": 0,
      "componentType": 5126,
      "count": 433,
      "max": [
        30.92799949645996,
        0.0010000000474974513,
        98.71800231933594
      ],
      "min": [
        -105.2959976196289,
        -0.20000000298023224,
        -257.7070007324219
      ],
      "type": "VEC3"
    },
    {
      "bufferView": 2,
      "byteOffset": 0,
      "componentType": 5126,
      "count": 433,
      "max": [
        0.8308483958244324,
        1,
        0.830852210521698
      ],
      "min": [
        -0.8157966732978821,
        -1,
        -0.8308961987495422
      ],
      "type": "VEC3"
    },
    {
      "bufferView": 3,
      "byteOffset": 0,
      "componentType": 5126,
      "count": 433,
      "max": [
        0.7872740030288696,
        1,
        1
      ],
      "min": [
        0,
        0.00003051804378628731,
        0.00004577706567943096
      ],
      "type": "VEC3"
    }
  ],
  "buffers": [
    {
      "byteLength": 2010,
      "uri": "data:application/octet-stream;base64,"
    },
    {
      "byteLength": 5196,
      "uri": "data:application/octet-stream;base64,"
    },
    {
      "byteLength": 5196,
      "uri": "data:application/octet-stream;base64,"
    },
    {
      "byteLength": 5196,
      "uri": "data:application/octet-stream;base64,"
    }
  ],
  "bufferViews": [
    {
      "buffer": 0,
      "byteOffset": 0,
      "byteLength": 2010
    },
    {
      "buffer": 1,
      "byteOffset": 0,
      "byteLength": 5196
    },
    {
      "buffer": 2,
      "byteOffset": 0,
      "byteLength": 5196
    },
    {
      "buffer": 3,
      "byteOffset": 0,
      "byteLength": 5196
    }
  ],
  "meshes": [
    {
      "primitives": [
        {
          "mode": 4,
          "indices": 0,
          "attributes": {
            "POSITION": 1,
            "NORMAL": 2,
            "COLOR_0": 3
          }
        }
      ]
    }
  ],
  "nodes": [
    {
      "children": [
        1
      ]
    },
    {
      "mesh": 0
    }
  ],
  "scenes": [
    {
      "nodes": [
        0
      ]
    }
  ],
  "scene": 0
}