{
  "asset": {
    "version": "2.0",
    "generator": "COLLADA2GLTF"
  },
  "accessors": [
    {
      "bufferView": 0,
      "byteOffset": 0,
      "componentType": 5123,
      "count": 1008,
      "min": [
        0
      ],
      "max": [
        536
      ],
      "type": "SCALAR"
    },
    {
      "bufferView": 1,
      "byteOffset": 0,
      "componentType": 5126,
      "count": 537,
      "max": [
        731.447998046875,
        7.5,
        -326.2690124511719
      ],
      "min": [
        629.8729858398438,
        0,
        -457.39599609375
      ],
      "type": "VEC3"
    },
    {
      "bufferView": 2,
      "byteOffset": 0,
      "componentType": 5126,
      "count": 537,
      "max": [
        0.9146956205368042,
        0,
        0.914406418800354
      ],
      "min": [
        -0.9140371680259705,
        0,
        -1
      ],
      "type": "VEC3"
    },
    {
      "bufferView": 3,
      "byteOffset": 0,
      "componentType": 5126,
      "count": 537,
      "max": [
        0.999786376953125,
        0.7875181436538696,
        0.26330968737602234
      ],
      "min": [
        0.999786376953125,
        0.7875181436538696,
        0.26330968737602234
      ],
      "type": "VEC3"
    }
  ],
  "buffers": [
    {
      "byteLength": 2016,
      "uri": "data:application/octet-stream;base64,"
    },
    {
      "byteLength": 6444,
      "uri": "data:application/octet-stream;base64,"
    },
    {
      "byteLength": 6444,
      "uri": "data:application/octet-stream;base64,"
    },
    {
      "byteLength": 6444,
      "uri": "data:application/octet-stream;base64,"
    }
  ],
  "bufferViews": [
    {
      "buffer": 0,
      "byteOffset": 0,
      "byteLength": 2016
    },
    {
      "buffer": 1,
      "byteOffset": 0,
      "byteLength": 6444
    },
    {
      "buffer": 2,
      "byteOffset": 0,
      "byteLength": 6444
    },
    {
      "buffer": 3,
      "byteOffset": 0,
      "byteLength": 6444
    }
  ],
  "meshes": [
    {
      "primitives": [
        {
          "mode": 4,
          "indices": 0,
          "attributes": {
            "POSITION": 1,
            "NORMAL": 2,
            "COLOR_0": 3
          }
        }
      ]
    }
  ],
  "nodes": [
    {
      "children": [
        1
      ]
    },
    {
      "mesh": 0
    }
  ],
  "scenes": [
    {
      "nodes": [
        0
      ]
    }
  ],
  "scene": 0
}