{
  "asset": {
    "version": "2.0",
    "generator": "COLLADA2GLTF"
  },
  "accessors": [
    {
      "bufferView": 0,
      "byteOffset": 0,
      "componentType": 5123,
      "count": 4443,
      "min": [
        0
      ],
      "max": [
        1488
      ],
      "type": "SCALAR"
    },
    {
      "bufferView": 1,
      "byteOffset": 0,
      "componentType": 5126,
      "count": 1489,
      "max": [
        -445.0196228027344,
        0.06400000303983688,
        2431.03271484375
      ],
      "min": [
        -486.33978271484375,
        0,
        2415.107177734375
      ],
      "type": "VEC3"
    },
    {
      "bufferView": 2,
      "byteOffset": 0,
      "componentType": 5126,
      "count": 1489,
      "max": [
        0.9446572661399841,
        1,
        0.9446572661399841
      ],
      "min": [
        -0.9446572661399841,
        0,
        -0.9446572661399841
      ],
      "type": "VEC3"
    },
    {
      "bufferView": 3,
      "byteOffset": 0,
      "componentType": 5126,
      "count": 1489,
      "max": [
        0.07322804629802704,
        0.03309682011604309,
        0.03311207890510559
      ],
      "min": [
        0.07322804629802704,
        0.03309682011604309,
        0.03311207890510559
      ],
      "type": "VEC3"
    }
  ],
  "buffers": [
    {
      "byteLength": 8886,
      "uri": "data:application/octet-stream;base64,"
    },
    {
      "byteLength": 17868,
      "uri": "data:application/octet-stream;base64,"
    },
    {
      "byteLength": 17868,
      "uri": "data:application/octet-stream;base64,"
    },
    {
      "byteLength": 17868,
      "uri": "data:application/octet-stream;base64,"
    }
  ],
  "bufferViews": [
    {
      "buffer": 0,
      "byteOffset": 0,
      "byteLength": 8886
    },
    {
      "buffer": 1,
      "byteOffset": 0,
      "byteLength": 17868
    },
    {
      "buffer": 2,
      "byteOffset": 0,
      "byteLength": 17868
    },
    {
      "buffer": 3,
      "byteOffset": 0,
      "byteLength": 17868
    }
  ],
  "meshes": [
    {
      "primitives": [
        {
          "mode": 4,
          "indices": 0,
          "attributes": {
            "POSITION": 1,
            "NORMAL": 2,
            "COLOR_0": 3
          }
        }
      ]
    }
  ],
  "nodes": [
    {
      "children": [
        1
      ]
    },
    {
      "mesh": 0
    }
  ],
  "scenes": [
    {
      "nodes": [
        0
      ]
    }
  ],
  "scene": 0
}