{
  "asset": {
    "version": "2.0",
    "generator": "COLLADA2GLTF"
  },
  "accessors": [
    {
      "bufferView": 0,
      "byteOffset": 0,
      "componentType": 5123,
      "count": 9144,
      "min": [
        0
      ],
      "max": [
        3866
      ],
      "type": "SCALAR"
    },
    {
      "bufferView": 1,
      "byteOffset": 0,
      "componentType": 5126,
      "count": 3867,
      "max": [
        630,
        7.5,
        -621.7560424804688
      ],
      "min": [
        330,
        0,
        -1072.4200439453125
      ],
      "type": "VEC3"
    },
    {
      "bufferView": 2,
      "byteOffset": 0,
      "componentType": 5126,
      "count": 3867,
      "max": [
        1,
        1,
        1
      ],
      "min": [
        -1,
        -1,
        -1
      ],
      "type": "VEC3"
    },
    {
      "bufferView": 3,
      "byteOffset": 0,
      "componentType": 5126,
      "count": 3867,
      "max": [
        0.999847412109375,
        1,
        1
      ],
      "min": [
        0,
        0.00003051804378628731,
        0
      ],
      "type": "VEC3"
    }
  ],
  "buffers": [
    {
      "byteLength": 18288,
      "uri": "data:application/octet-stream;base64,"
    },
    {
      "byteLength": 46404,
      "uri": "data:application/octet-stream;base64,"
    },
    {
      "byteLength": 46404,
      "uri": "data:application/octet-stream;base64,"
    },
    {
      "byteLength": 46404,
      "uri": "data:application/octet-stream;base64,"
    }
  ],
  "bufferViews": [
    {
      "buffer": 0,
      "byteOffset": 0,
      "byteLength": 18288
    },
    {
      "buffer": 1,
      "byteOffset": 0,
      "byteLength": 46404
    },
    {
      "buffer": 2,
      "byteOffset": 0,
      "byteLength": 46404
    },
    {
      "buffer": 3,
      "byteOffset": 0,
      "byteLength": 46404
    }
  ],
  "meshes": [
    {
      "primitives": [
        {
          "mode": 4,
          "indices": 0,
          "attributes": {
            "POSITION": 1,
            "NORMAL": 2,
            "COLOR_0": 3
          }
        }
      ]
    }
  ],
  "nodes": [
    {
      "children": [
        1
      ]
    },
    {
      "mesh": 0
    }
  ],
  "scenes": [
    {
      "nodes": [
        0
      ]
    }
  ],
  "scene": 0
}