{
  "asset": {
    "version": "2.0",
    "generator": "COLLADA2GLTF"
  },
  "accessors": [
    {
      "bufferView": 0,
      "byteOffset": 0,
      "componentType": 5123,
      "count": 2793,
      "min": [
        0
      ],
      "max": [
        946
      ],
      "type": "SCALAR"
    },
    {
      "bufferView": 1,
      "byteOffset": 0,
      "componentType": 5126,
      "count": 947,
      "max": [
        -2451.14501953125,
        23.175521850585938,
        1300.9788818359375
      ],
      "min": [
        -2724.926025390625,
        0,
        1013.7493896484375
      ],
      "type": "VEC3"
    },
    {
      "bufferView": 2,
      "byteOffset": 0,
      "componentType": 5126,
      "count": 947,
      "max": [
        1,
        1,
        1
      ],
      "min": [
        0,
        0,
        0
      ],
      "type": "VEC3"
    },
    {
      "bufferView": 3,
      "byteOffset": 0,
      "componentType": 5126,
      "count": 947,
      "max": [
        0.5774929523468018,
        0.5776150226593018,
        0.5776455402374268
      ],
      "min": [
        0.00004577706567943096,
        0.21403829753398895,
        0
      ],
      "type": "VEC3"
    }
  ],
  "buffers": [
    {
      "byteLength": 5586,
      "uri": "data:application/octet-stream;base64,"
    },
    {
      "byteLength": 11364,
      "uri": "data:application/octet-stream;base64,"
    },
    {
      "byteLength": 11364,
      "uri": "data:application/octet-stream;base64,"
    },
    {
      "byteLength": 11364,
      "uri": "data:application/octet-stream;base64,"
    }
  ],
  "bufferViews": [
    {
      "buffer": 0,
      "byteOffset": 0,
      "byteLength": 5586
    },
    {
      "buffer": 1,
      "byteOffset": 0,
      "byteLength": 11364
    },
    {
      "buffer": 2,
      "byteOffset": 0,
      "byteLength": 11364
    },
    {
      "buffer": 3,
      "byteOffset": 0,
      "byteLength": 11364
    }
  ],
  "meshes": [
    {
      "primitives": [
        {
          "mode": 4,
          "indices": 0,
          "attributes": {
            "POSITION": 1,
            "NORMAL": 2,
            "COLOR_0": 3
          }
        }
      ]
    }
  ],
  "nodes": [
    {
      "children": [
        1
      ]
    },
    {
      "mesh": 0
    }
  ],
  "scenes": [
    {
      "nodes": [
        0
      ]
    }
  ],
  "scene": 0
}