{
  "asset": {
    "version": "2.0",
    "generator": "COLLADA2GLTF"
  },
  "accessors": [
    {
      "bufferView": 0,
      "byteOffset": 0,
      "componentType": 5123,
      "count": 1476,
      "min": [
        0
      ],
      "max": [
        662
      ],
      "type": "SCALAR"
    },
    {
      "bufferView": 1,
      "byteOffset": 0,
      "componentType": 5126,
      "count": 663,
      "max": [
        50.68943405151367,
        7.5,
        -180
      ],
      "min": [
        -106.72193145751953,
        0,
        -450
      ],
      "type": "VEC3"
    },
    {
      "bufferView": 2,
      "byteOffset": 0,
      "componentType": 5126,
      "count": 663,
      "max": [
        0.8357836008071899,
        1,
        0.835951566696167
      ],
      "min": [
        -0.8357639312744141,
        0,
        -0.8355987668037415
      ],
      "type": "VEC3"
    },
    {
      "bufferView": 3,
      "byteOffset": 0,
      "componentType": 5126,
      "count": 663,
      "max": [
        0.999786376953125,
        1,
        0.7875028848648071
      ],
      "min": [
        0.000015259021893143654,
        0.07324330508708954,
        0.00004577706567943096
      ],
      "type": "VEC3"
    }
  ],
  "buffers": [
    {
      "byteLength": 2952,
      "uri": "data:application/octet-stream;base64,"
    },
    {
      "byteLength": 7956,
      "uri": "data:application/octet-stream;base64,"
    },
    {
      "byteLength": 7956,
      "uri": "data:application/octet-stream;base64,"
    },
    {
      "byteLength": 7956,
      "uri": "data:application/octet-stream;base64,"
    }
  ],
  "bufferViews": [
    {
      "buffer": 0,
      "byteOffset": 0,
      "byteLength": 2952
    },
    {
      "buffer": 1,
      "byteOffset": 0,
      "byteLength": 7956
    },
    {
      "buffer": 2,
      "byteOffset": 0,
      "byteLength": 7956
    },
    {
      "buffer": 3,
      "byteOffset": 0,
      "byteLength": 7956
    }
  ],
  "meshes": [
    {
      "primitives": [
        {
          "mode": 4,
          "indices": 0,
          "attributes": {
            "POSITION": 1,
            "NORMAL": 2,
            "COLOR_0": 3
          }
        }
      ]
    }
  ],
  "nodes": [
    {
      "children": [
        1
      ]
    },
    {
      "mesh": 0
    }
  ],
  "scenes": [
    {
      "nodes": [
        0
      ]
    }
  ],
  "scene": 0
}