{
  "asset": {
    "version": "2.0",
    "generator": "COLLADA2GLTF"
  },
  "accessors": [
    {
      "bufferView": 0,
      "byteOffset": 0,
      "componentType": 5123,
      "count": 3759,
      "min": [
        0
      ],
      "max": [
        1519
      ],
      "type": "SCALAR"
    },
    {
      "bufferView": 1,
      "byteOffset": 0,
      "componentType": 5126,
      "count": 1520,
      "max": [
        1888.467041015625,
        7.5,
        995.2999877929688
      ],
      "min": [
        1670.239501953125,
        -3,
        252.5777587890625
      ],
      "type": "VEC3"
    },
    {
      "bufferView": 2,
      "byteOffset": 0,
      "componentType": 5126,
      "count": 1520,
      "max": [
        0.9895460605621338,
        1,
        0.9895460605621338
      ],
      "min": [
        -0.9895460605621338,
        -1,
        -0.9895460605621338
      ],
      "type": "VEC3"
    },
    {
      "bufferView": 3,
      "byteOffset": 0,
      "componentType": 5126,
      "count": 1520,
      "max": [
        0.999786376953125,
        1,
        1
      ],
      "min": [
        0,
        0.00003051804378628731,
        0
      ],
      "type": "VEC3"
    }
  ],
  "buffers": [
    {
      "byteLength": 7518,
      "uri": "data:application/octet-stream;base64,"
    },
    {
      "byteLength": 18240,
      "uri": "data:application/octet-stream;base64,"
    },
    {
      "byteLength": 18240,
      "uri": "data:application/octet-stream;base64,"
    },
    {
      "byteLength": 18240,
      "uri": "data:application/octet-stream;base64,"
    }
  ],
  "bufferViews": [
    {
      "buffer": 0,
      "byteOffset": 0,
      "byteLength": 7518
    },
    {
      "buffer": 1,
      "byteOffset": 0,
      "byteLength": 18240
    },
    {
      "buffer": 2,
      "byteOffset": 0,
      "byteLength": 18240
    },
    {
      "buffer": 3,
      "byteOffset": 0,
      "byteLength": 18240
    }
  ],
  "meshes": [
    {
      "primitives": [
        {
          "mode": 4,
          "indices": 0,
          "attributes": {
            "POSITION": 1,
            "NORMAL": 2,
            "COLOR_0": 3
          }
        }
      ]
    }
  ],
  "nodes": [
    {
      "children": [
        1
      ]
    },
    {
      "mesh": 0
    }
  ],
  "scenes": [
    {
      "nodes": [
        0
      ]
    }
  ],
  "scene": 0
}