{
  "asset": {
    "version": "2.0",
    "generator": "COLLADA2GLTF"
  },
  "accessors": [
    {
      "bufferView": 0,
      "byteOffset": 0,
      "componentType": 5123,
      "count": 2202,
      "min": [
        0
      ],
      "max": [
        886
      ],
      "type": "SCALAR"
    },
    {
      "bufferView": 1,
      "byteOffset": 0,
      "componentType": 5126,
      "count": 887,
      "max": [
        3360.9130859375,
        0,
        -1560
      ],
      "min": [
        3022.192626953125,
        0,
        -1860
      ],
      "type": "VEC3"
    },
    {
      "bufferView": 2,
      "byteOffset": 0,
      "componentType": 5126,
      "count": 887,
      "max": [
        0,
        1,
        0
      ],
      "min": [
        0,
        -1,
        0
      ],
      "type": "VEC3"
    },
    {
      "bufferView": 3,
      "byteOffset": 0,
      "componentType": 5126,
      "count": 887,
      "max": [
        0.13284504413604736,
        1,
        0.13290607929229736
      ],
      "min": [
        0.000015259021893143654,
        0.000015259021893143654,
        0
      ],
      "type": "VEC3"
    }
  ],
  "buffers": [
    {
      "byteLength": 4404,
      "uri": "data:application/octet-stream;base64,"
    },
    {
      "byteLength": 10644,
      "uri": "data:application/octet-stream;base64,"
    },
    {
      "byteLength": 10644,
      "uri": "data:application/octet-stream;base64,"
    },
    {
      "byteLength": 10644,
      "uri": "data:application/octet-stream;base64,"
    }
  ],
  "bufferViews": [
    {
      "buffer": 0,
      "byteOffset": 0,
      "byteLength": 4404
    },
    {
      "buffer": 1,
      "byteOffset": 0,
      "byteLength": 10644
    },
    {
      "buffer": 2,
      "byteOffset": 0,
      "byteLength": 10644
    },
    {
      "buffer": 3,
      "byteOffset": 0,
      "byteLength": 10644
    }
  ],
  "meshes": [
    {
      "primitives": [
        {
          "mode": 4,
          "indices": 0,
          "attributes": {
            "POSITION": 1,
            "NORMAL": 2,
            "COLOR_0": 3
          }
        }
      ]
    }
  ],
  "nodes": [
    {
      "children": [
        1
      ]
    },
    {
      "mesh": 0
    }
  ],
  "scenes": [
    {
      "nodes": [
        0
      ]
    }
  ],
  "scene": 0
}