{
  "asset": {
    "version": "2.0",
    "generator": "COLLADA2GLTF"
  },
  "accessors": [
    {
      "bufferView": 0,
      "byteOffset": 0,
      "componentType": 5123,
      "count": 408,
      "min": [
        0
      ],
      "max": [
        159
      ],
      "type": "SCALAR"
    },
    {
      "bufferView": 1,
      "byteOffset": 0,
      "componentType": 5126,
      "count": 160,
      "max": [
        -324.83868408203125,
        0.06400000303983688,
        2473.29833984375
      ],
      "min": [
        -332.03875732421875,
        0,
        2469.493896484375
      ],
      "type": "VEC3"
    },
    {
      "bufferView": 2,
      "byteOffset": 0,
      "componentType": 5126,
      "count": 160,
      "max": [
        0.9438987374305725,
        1,
        0.9438987374305725
      ],
      "min": [
        -0.9438987374305725,
        0,
        -0.9438987374305725
      ],
      "type": "VEC3"
    },
    {
      "bufferView": 3,
      "byteOffset": 0,
      "componentType": 5126,
      "count": 160,
      "max": [
        0.07322804629802704,
        0.03309682011604309,
        0.03311207890510559
      ],
      "min": [
        0.07322804629802704,
        0.03309682011604309,
        0.03311207890510559
      ],
      "type": "VEC3"
    }
  ],
  "buffers": [
    {
      "byteLength": 816,
      "uri": "data:application/octet-stream;base64,"
    },
    {
      "byteLength": 1920,
      "uri": "data:application/octet-stream;base64,"
    },
    {
      "byteLength": 1920,
      "uri": "data:application/octet-stream;base64,"
    },
    {
      "byteLength": 1920,
      "uri": "data:application/octet-stream;base64,"
    }
  ],
  "bufferViews": [
    {
      "buffer": 0,
      "byteOffset": 0,
      "byteLength": 816
    },
    {
      "buffer": 1,
      "byteOffset": 0,
      "byteLength": 1920
    },
    {
      "buffer": 2,
      "byteOffset": 0,
      "byteLength": 1920
    },
    {
      "buffer": 3,
      "byteOffset": 0,
      "byteLength": 1920
    }
  ],
  "meshes": [
    {
      "primitives": [
        {
          "mode": 4,
          "indices": 0,
          "attributes": {
            "POSITION": 1,
            "NORMAL": 2,
            "COLOR_0": 3
          }
        }
      ]
    }
  ],
  "nodes": [
    {
      "children": [
        1
      ]
    },
    {
      "mesh": 0
    }
  ],
  "scenes": [
    {
      "nodes": [
        0
      ]
    }
  ],
  "scene": 0
}