{
  "asset": {
    "version": "2.0",
    "generator": "COLLADA2GLTF"
  },
  "accessors": [
    {
      "bufferView": 0,
      "byteOffset": 0,
      "componentType": 5123,
      "count": 2550,
      "min": [
        0
      ],
      "max": [
        873
      ],
      "type": "SCALAR"
    },
    {
      "bufferView": 1,
      "byteOffset": 0,
      "componentType": 5126,
      "count": 874,
      "max": [
        6715.0458984375,
        37.025001525878906,
        9230.66015625
      ],
      "min": [
        5591.38037109375,
        17.165000915527344,
        8360.30859375
      ],
      "type": "VEC3"
    },
    {
      "bufferView": 2,
      "byteOffset": 0,
      "componentType": 5126,
      "count": 874,
      "max": [
        0.7642219066619873,
        0.7071018815040588,
        0.790147602558136
      ],
      "min": [
        -0.7642219066619873,
        -0.7071018815040588,
        -0.7642219066619873
      ],
      "type": "VEC3"
    },
    {
      "bufferView": 3,
      "byteOffset": 0,
      "componentType": 5126,
      "count": 874,
      "max": [
        0.4480048716068268,
        0.4480048716068268,
        0.4480659067630768
      ],
      "min": [
        0,
        0,
        0
      ],
      "type": "VEC3"
    }
  ],
  "buffers": [
    {
      "byteLength": 5100,
      "uri": "data:application/octet-stream;base64,"
    },
    {
      "byteLength": 10488,
      "uri": "data:application/octet-stream;base64,"
    },
    {
      "byteLength": 10488,
      "uri": "data:application/octet-stream;base64,"
    },
    {
      "byteLength": 10488,
      "uri": "data:application/octet-stream;base64,"
    }
  ],
  "bufferViews": [
    {
      "buffer": 0,
      "byteOffset": 0,
      "byteLength": 5100
    },
    {
      "buffer": 1,
      "byteOffset": 0,
      "byteLength": 10488
    },
    {
      "buffer": 2,
      "byteOffset": 0,
      "byteLength": 10488
    },
    {
      "buffer": 3,
      "byteOffset": 0,
      "byteLength": 10488
    }
  ],
  "meshes": [
    {
      "primitives": [
        {
          "mode": 4,
          "indices": 0,
          "attributes": {
            "POSITION": 1,
            "NORMAL": 2,
            "COLOR_0": 3
          }
        }
      ]
    }
  ],
  "nodes": [
    {
      "children": [
        1
      ]
    },
    {
      "mesh": 0
    }
  ],
  "scenes": [
    {
      "nodes": [
        0
      ]
    }
  ],
  "scene": 0
}