{
  "asset": {
    "version": "2.0",
    "generator": "COLLADA2GLTF"
  },
  "accessors": [
    {
      "bufferView": 0,
      "byteOffset": 0,
      "componentType": 5123,
      "count": 2400,
      "min": [
        0
      ],
      "max": [
        974
      ],
      "type": "SCALAR"
    },
    {
      "bufferView": 1,
      "byteOffset": 0,
      "componentType": 5126,
      "count": 975,
      "max": [
        -1080,
        7.5,
        120
      ],
      "min": [
        -1182.7701416015625,
        0,
        -159.21202087402344
      ],
      "type": "VEC3"
    },
    {
      "bufferView": 2,
      "byteOffset": 0,
      "componentType": 5126,
      "count": 975,
      "max": [
        0.8313477635383606,
        1,
        0.8312785625457764
      ],
      "min": [
        -0.8313348293304443,
        0,
        -0.8313488364219666
      ],
      "type": "VEC3"
    },
    {
      "bufferView": 3,
      "byteOffset": 0,
      "componentType": 5126,
      "count": 975,
      "max": [
        0.999786376953125,
        1,
        0.7875028848648071
      ],
      "min": [
        0.000015259021893143654,
        0.07324330508708954,
        0.00004577706567943096
      ],
      "type": "VEC3"
    }
  ],
  "buffers": [
    {
      "byteLength": 4800,
      "uri": "data:application/octet-stream;base64,"
    },
    {
      "byteLength": 11700,
      "uri": "data:application/octet-stream;base64,"
    },
    {
      "byteLength": 11700,
      "uri": "data:application/octet-stream;base64,"
    },
    {
      "byteLength": 11700,
      "uri": "data:application/octet-stream;base64,"
    }
  ],
  "bufferViews": [
    {
      "buffer": 0,
      "byteOffset": 0,
      "byteLength": 4800
    },
    {
      "buffer": 1,
      "byteOffset": 0,
      "byteLength": 11700
    },
    {
      "buffer": 2,
      "byteOffset": 0,
      "byteLength": 11700
    },
    {
      "buffer": 3,
      "byteOffset": 0,
      "byteLength": 11700
    }
  ],
  "meshes": [
    {
      "primitives": [
        {
          "mode": 4,
          "indices": 0,
          "attributes": {
            "POSITION": 1,
            "NORMAL": 2,
            "COLOR_0": 3
          }
        }
      ]
    }
  ],
  "nodes": [
    {
      "children": [
        1
      ]
    },
    {
      "mesh": 0
    }
  ],
  "scenes": [
    {
      "nodes": [
        0
      ]
    }
  ],
  "scene": 0
}