{
  "asset": {
    "version": "2.0",
    "generator": "COLLADA2GLTF"
  },
  "accessors": [
    {
      "bufferView": 0,
      "byteOffset": 0,
      "componentType": 5123,
      "count": 195,
      "min": [
        0
      ],
      "max": [
        116
      ],
      "type": "SCALAR"
    },
    {
      "bufferView": 1,
      "byteOffset": 0,
      "componentType": 5126,
      "count": 117,
      "max": [
        -2748.193603515625,
        0,
        1698.0911865234375
      ],
      "min": [
        -2905.988037109375,
        0,
        1471.9288330078125
      ],
      "type": "VEC3"
    },
    {
      "bufferView": 2,
      "byteOffset": 0,
      "componentType": 5126,
      "count": 117,
      "max": [
        0.8310953974723816,
        1,
        0.8266248106956482
      ],
      "min": [
        -0.8385498523712158,
        0,
        -0.579415500164032
      ],
      "type": "VEC3"
    },
    {
      "bufferView": 3,
      "byteOffset": 0,
      "componentType": 5126,
      "count": 117,
      "max": [
        0.999786376953125,
        1,
        0.26330968737602234
      ],
      "min": [
        0.000015259021893143654,
        0.07324330508708954,
        0.00004577706567943096
      ],
      "type": "VEC3"
    }
  ],
  "buffers": [
    {
      "byteLength": 390,
      "uri": "data:application/octet-stream;base64,"
    },
    {
      "byteLength": 1404,
      "uri": "data:application/octet-stream;base64,"
    },
    {
      "byteLength": 1404,
      "uri": "data:application/octet-stream;base64,"
    },
    {
      "byteLength": 1404,
      "uri": "data:application/octet-stream;base64,"
    }
  ],
  "bufferViews": [
    {
      "buffer": 0,
      "byteOffset": 0,
      "byteLength": 390
    },
    {
      "buffer": 1,
      "byteOffset": 0,
      "byteLength": 1404
    },
    {
      "buffer": 2,
      "byteOffset": 0,
      "byteLength": 1404
    },
    {
      "buffer": 3,
      "byteOffset": 0,
      "byteLength": 1404
    }
  ],
  "meshes": [
    {
      "primitives": [
        {
          "mode": 4,
          "indices": 0,
          "attributes": {
            "POSITION": 1,
            "NORMAL": 2,
            "COLOR_0": 3
          }
        }
      ]
    }
  ],
  "nodes": [
    {
      "children": [
        1
      ]
    },
    {
      "mesh": 0
    }
  ],
  "scenes": [
    {
      "nodes": [
        0
      ]
    }
  ],
  "scene": 0
}