{
  "asset": {
    "version": "2.0",
    "generator": "COLLADA2GLTF"
  },
  "accessors": [
    {
      "bufferView": 0,
      "byteOffset": 0,
      "componentType": 5123,
      "count": 1374,
      "min": [
        0
      ],
      "max": [
        558
      ],
      "type": "SCALAR"
    },
    {
      "bufferView": 1,
      "byteOffset": 0,
      "componentType": 5126,
      "count": 559,
      "max": [
        -193.1020050048828,
        7.5,
        4692.02197265625
      ],
      "min": [
        -1340.4189453125,
        0,
        -4638.462890625
      ],
      "type": "VEC3"
    },
    {
      "bufferView": 2,
      "byteOffset": 0,
      "componentType": 5126,
      "count": 559,
      "max": [
        0.8316643834114075,
        1,
        0
      ],
      "min": [
        0,
        0,
        -0.5552786588668823
      ],
      "type": "VEC3"
    },
    {
      "bufferView": 3,
      "byteOffset": 0,
      "componentType": 5126,
      "count": 559,
      "max": [
        0.999786376953125,
        1,
        1
      ],
      "min": [
        0,
        0.00003051804378628731,
        0.00004577706567943096
      ],
      "type": "VEC3"
    }
  ],
  "buffers": [
    {
      "byteLength": 2748,
      "uri": "data:application/octet-stream;base64,"
    },
    {
      "byteLength": 6708,
      "uri": "data:application/octet-stream;base64,"
    },
    {
      "byteLength": 6708,
      "uri": "data:application/octet-stream;base64,"
    },
    {
      "byteLength": 6708,
      "uri": "data:application/octet-stream;base64,"
    }
  ],
  "bufferViews": [
    {
      "buffer": 0,
      "byteOffset": 0,
      "byteLength": 2748
    },
    {
      "buffer": 1,
      "byteOffset": 0,
      "byteLength": 6708
    },
    {
      "buffer": 2,
      "byteOffset": 0,
      "byteLength": 6708
    },
    {
      "buffer": 3,
      "byteOffset": 0,
      "byteLength": 6708
    }
  ],
  "meshes": [
    {
      "primitives": [
        {
          "mode": 4,
          "indices": 0,
          "attributes": {
            "POSITION": 1,
            "NORMAL": 2,
            "COLOR_0": 3
          }
        }
      ]
    }
  ],
  "nodes": [
    {
      "children": [
        1
      ]
    },
    {
      "mesh": 0
    }
  ],
  "scenes": [
    {
      "nodes": [
        0
      ]
    }
  ],
  "scene": 0
}