{
  "asset": {
    "version": "2.0",
    "generator": "COLLADA2GLTF"
  },
  "accessors": [
    {
      "bufferView": 0,
      "byteOffset": 0,
      "componentType": 5123,
      "count": 2208,
      "min": [
        0
      ],
      "max": [
        763
      ],
      "type": "SCALAR"
    },
    {
      "bufferView": 1,
      "byteOffset": 0,
      "componentType": 5126,
      "count": 764,
      "max": [
        299.5403747558594,
        0.06400000303983688,
        2690.906494140625
      ],
      "min": [
        276.1201477050781,
        0,
        2681.43896484375
      ],
      "type": "VEC3"
    },
    {
      "bufferView": 2,
      "byteOffset": 0,
      "componentType": 5126,
      "count": 764,
      "max": [
        0.9440768361091614,
        1,
        0.9440768361091614
      ],
      "min": [
        -0.9440768361091614,
        0,
        -0.9440768361091614
      ],
      "type": "VEC3"
    },
    {
      "bufferView": 3,
      "byteOffset": 0,
      "componentType": 5126,
      "count": 764,
      "max": [
        0.07322804629802704,
        0.03309682011604309,
        0.03311207890510559
      ],
      "min": [
        0.07322804629802704,
        0.03309682011604309,
        0.03311207890510559
      ],
      "type": "VEC3"
    }
  ],
  "buffers": [
    {
      "byteLength": 4416,
      "uri": "data:application/octet-stream;base64,"
    },
    {
      "byteLength": 9168,
      "uri": "data:application/octet-stream;base64,"
    },
    {
      "byteLength": 9168,
      "uri": "data:application/octet-stream;base64,"
    },
    {
      "byteLength": 9168,
      "uri": "data:application/octet-stream;base64,"
    }
  ],
  "bufferViews": [
    {
      "buffer": 0,
      "byteOffset": 0,
      "byteLength": 4416
    },
    {
      "buffer": 1,
      "byteOffset": 0,
      "byteLength": 9168
    },
    {
      "buffer": 2,
      "byteOffset": 0,
      "byteLength": 9168
    },
    {
      "buffer": 3,
      "byteOffset": 0,
      "byteLength": 9168
    }
  ],
  "meshes": [
    {
      "primitives": [
        {
          "mode": 4,
          "indices": 0,
          "attributes": {
            "POSITION": 1,
            "NORMAL": 2,
            "COLOR_0": 3
          }
        }
      ]
    }
  ],
  "nodes": [
    {
      "children": [
        1
      ]
    },
    {
      "mesh": 0
    }
  ],
  "scenes": [
    {
      "nodes": [
        0
      ]
    }
  ],
  "scene": 0
}