{
  "asset": {
    "version": "2.0",
    "generator": "COLLADA2GLTF"
  },
  "accessors": [
    {
      "bufferView": 0,
      "byteOffset": 0,
      "componentType": 5123,
      "count": 501,
      "min": [
        0
      ],
      "max": [
        286
      ],
      "type": "SCALAR"
    },
    {
      "bufferView": 1,
      "byteOffset": 0,
      "componentType": 5126,
      "count": 287,
      "max": [
        -641.2659912109375,
        7.5,
        -66.09100341796875
      ],
      "min": [
        -741.0759887695312,
        0,
        -374.3269958496094
      ],
      "type": "VEC3"
    },
    {
      "bufferView": 2,
      "byteOffset": 0,
      "componentType": 5126,
      "count": 287,
      "max": [
        0.9999503493309021,
        1,
        0.9999570846557617
      ],
      "min": [
        -0.9999548196792603,
        0,
        -0.9999586343765259
      ],
      "type": "VEC3"
    },
    {
      "bufferView": 3,
      "byteOffset": 0,
      "componentType": 5126,
      "count": 287,
      "max": [
        0.999786376953125,
        0.7875181436538696,
        0.26330968737602234
      ],
      "min": [
        0.6036774516105652,
        0.00003051804378628731,
        0
      ],
      "type": "VEC3"
    }
  ],
  "buffers": [
    {
      "byteLength": 1002,
      "uri": "data:application/octet-stream;base64,"
    },
    {
      "byteLength": 3444,
      "uri": "data:application/octet-stream;base64,"
    },
    {
      "byteLength": 3444,
      "uri": "data:application/octet-stream;base64,"
    },
    {
      "byteLength": 3444,
      "uri": "data:application/octet-stream;base64,"
    }
  ],
  "bufferViews": [
    {
      "buffer": 0,
      "byteOffset": 0,
      "byteLength": 1002
    },
    {
      "buffer": 1,
      "byteOffset": 0,
      "byteLength": 3444
    },
    {
      "buffer": 2,
      "byteOffset": 0,
      "byteLength": 3444
    },
    {
      "buffer": 3,
      "byteOffset": 0,
      "byteLength": 3444
    }
  ],
  "meshes": [
    {
      "primitives": [
        {
          "mode": 4,
          "indices": 0,
          "attributes": {
            "POSITION": 1,
            "NORMAL": 2,
            "COLOR_0": 3
          }
        }
      ]
    }
  ],
  "nodes": [
    {
      "children": [
        1
      ]
    },
    {
      "mesh": 0
    }
  ],
  "scenes": [
    {
      "nodes": [
        0
      ]
    }
  ],
  "scene": 0
}