{
  "asset": {
    "version": "2.0",
    "generator": "COLLADA2GLTF"
  },
  "accessors": [
    {
      "bufferView": 0,
      "byteOffset": 0,
      "componentType": 5123,
      "count": 270,
      "min": [
        0
      ],
      "max": [
        175
      ],
      "type": "SCALAR"
    },
    {
      "bufferView": 1,
      "byteOffset": 0,
      "componentType": 5126,
      "count": 176,
      "max": [
        -686.519287109375,
        12.5,
        1646.4019775390625
      ],
      "min": [
        -788.7407836914062,
        0,
        1588.4752197265625
      ],
      "type": "VEC3"
    },
    {
      "bufferView": 2,
      "byteOffset": 0,
      "componentType": 5126,
      "count": 176,
      "max": [
        0.7644961476325989,
        0,
        0.9971318244934082
      ],
      "min": [
        -0.9997822642326355,
        0,
        -0.7647740840911865
      ],
      "type": "VEC3"
    },
    {
      "bufferView": 3,
      "byteOffset": 0,
      "componentType": 5126,
      "count": 176,
      "max": [
        0.999786376953125,
        0.7875181436538696,
        0.26330968737602234
      ],
      "min": [
        0.999786376953125,
        0.7875181436538696,
        0.26330968737602234
      ],
      "type": "VEC3"
    }
  ],
  "buffers": [
    {
      "byteLength": 540,
      "uri": "data:application/octet-stream;base64,"
    },
    {
      "byteLength": 2112,
      "uri": "data:application/octet-stream;base64,"
    },
    {
      "byteLength": 2112,
      "uri": "data:application/octet-stream;base64,"
    },
    {
      "byteLength": 2112,
      "uri": "data:application/octet-stream;base64,"
    }
  ],
  "bufferViews": [
    {
      "buffer": 0,
      "byteOffset": 0,
      "byteLength": 540
    },
    {
      "buffer": 1,
      "byteOffset": 0,
      "byteLength": 2112
    },
    {
      "buffer": 2,
      "byteOffset": 0,
      "byteLength": 2112
    },
    {
      "buffer": 3,
      "byteOffset": 0,
      "byteLength": 2112
    }
  ],
  "meshes": [
    {
      "primitives": [
        {
          "mode": 4,
          "indices": 0,
          "attributes": {
            "POSITION": 1,
            "NORMAL": 2,
            "COLOR_0": 3
          }
        }
      ]
    }
  ],
  "nodes": [
    {
      "children": [
        1
      ]
    },
    {
      "mesh": 0
    }
  ],
  "scenes": [
    {
      "nodes": [
        0
      ]
    }
  ],
  "scene": 0
}