{
  "asset": {
    "version": "2.0",
    "generator": "COLLADA2GLTF"
  },
  "accessors": [
    {
      "bufferView": 0,
      "byteOffset": 0,
      "componentType": 5123,
      "count": 1749,
      "min": [
        0
      ],
      "max": [
        703
      ],
      "type": "SCALAR"
    },
    {
      "bufferView": 1,
      "byteOffset": 0,
      "componentType": 5126,
      "count": 704,
      "max": [
        199.82073974609375,
        0.0010000000474974513,
        92.28077697753906
      ],
      "min": [
        59.646400451660156,
        -0.20000000298023224,
        -30
      ],
      "type": "VEC3"
    },
    {
      "bufferView": 2,
      "byteOffset": 0,
      "componentType": 5126,
      "count": 704,
      "max": [
        0.7480761408805847,
        1,
        0.7534904479980469
      ],
      "min": [
        -0.7800902724266052,
        -1,
        -0.7804459929466248
      ],
      "type": "VEC3"
    },
    {
      "bufferView": 3,
      "byteOffset": 0,
      "componentType": 5126,
      "count": 704,
      "max": [
        0.999786376953125,
        1,
        0.7875028848648071
      ],
      "min": [
        0.000015259021893143654,
        0.07324330508708954,
        0.00004577706567943096
      ],
      "type": "VEC3"
    }
  ],
  "buffers": [
    {
      "byteLength": 3498,
      "uri": "data:application/octet-stream;base64,"
    },
    {
      "byteLength": 8448,
      "uri": "data:application/octet-stream;base64,"
    },
    {
      "byteLength": 8448,
      "uri": "data:application/octet-stream;base64,"
    },
    {
      "byteLength": 8448,
      "uri": "data:application/octet-stream;base64,"
    }
  ],
  "bufferViews": [
    {
      "buffer": 0,
      "byteOffset": 0,
      "byteLength": 3498
    },
    {
      "buffer": 1,
      "byteOffset": 0,
      "byteLength": 8448
    },
    {
      "buffer": 2,
      "byteOffset": 0,
      "byteLength": 8448
    },
    {
      "buffer": 3,
      "byteOffset": 0,
      "byteLength": 8448
    }
  ],
  "meshes": [
    {
      "primitives": [
        {
          "mode": 4,
          "indices": 0,
          "attributes": {
            "POSITION": 1,
            "NORMAL": 2,
            "COLOR_0": 3
          }
        }
      ]
    }
  ],
  "nodes": [
    {
      "children": [
        1
      ]
    },
    {
      "mesh": 0
    }
  ],
  "scenes": [
    {
      "nodes": [
        0
      ]
    }
  ],
  "scene": 0
}