{
  "asset": {
    "version": "2.0",
    "generator": "COLLADA2GLTF"
  },
  "accessors": [
    {
      "bufferView": 0,
      "byteOffset": 0,
      "componentType": 5123,
      "count": 1803,
      "min": [
        0
      ],
      "max": [
        1538
      ],
      "type": "SCALAR"
    },
    {
      "bufferView": 1,
      "byteOffset": 0,
      "componentType": 5126,
      "count": 1539,
      "max": [
        -59.233001708984375,
        7.5,
        -110.7969970703125
      ],
      "min": [
        -224.21800231933594,
        0,
        -300.1650085449219
      ],
      "type": "VEC3"
    },
    {
      "bufferView": 2,
      "byteOffset": 0,
      "componentType": 5126,
      "count": 1539,
      "max": [
        0.9999932646751404,
        0,
        0.9999902248382568
      ],
      "min": [
        -0.9999940395355225,
        0,
        -0.9999942183494568
      ],
      "type": "VEC3"
    },
    {
      "bufferView": 3,
      "byteOffset": 0,
      "componentType": 5126,
      "count": 1539,
      "max": [
        0.999786376953125,
        0.7875181436538696,
        0.26330968737602234
      ],
      "min": [
        0.999786376953125,
        0.7875181436538696,
        0.26330968737602234
      ],
      "type": "VEC3"
    }
  ],
  "buffers": [
    {
      "byteLength": 3606,
      "uri": "data:application/octet-stream;base64,"
    },
    {
      "byteLength": 18468,
      "uri": "data:application/octet-stream;base64,"
    },
    {
      "byteLength": 18468,
      "uri": "data:application/octet-stream;base64,"
    },
    {
      "byteLength": 18468,
      "uri": "data:application/octet-stream;base64,"
    }
  ],
  "bufferViews": [
    {
      "buffer": 0,
      "byteOffset": 0,
      "byteLength": 3606
    },
    {
      "buffer": 1,
      "byteOffset": 0,
      "byteLength": 18468
    },
    {
      "buffer": 2,
      "byteOffset": 0,
      "byteLength": 18468
    },
    {
      "buffer": 3,
      "byteOffset": 0,
      "byteLength": 18468
    }
  ],
  "meshes": [
    {
      "primitives": [
        {
          "mode": 4,
          "indices": 0,
          "attributes": {
            "POSITION": 1,
            "NORMAL": 2,
            "COLOR_0": 3
          }
        }
      ]
    }
  ],
  "nodes": [
    {
      "children": [
        1
      ]
    },
    {
      "mesh": 0
    }
  ],
  "scenes": [
    {
      "nodes": [
        0
      ]
    }
  ],
  "scene": 0
}