{
  "asset": {
    "version": "2.0",
    "generator": "COLLADA2GLTF"
  },
  "accessors": [
    {
      "bufferView": 0,
      "byteOffset": 0,
      "componentType": 5123,
      "count": 2823,
      "min": [
        0
      ],
      "max": [
        1192
      ],
      "type": "SCALAR"
    },
    {
      "bufferView": 1,
      "byteOffset": 0,
      "componentType": 5126,
      "count": 1193,
      "max": [
        -211.26699829101562,
        0,
        1293.89404296875
      ],
      "min": [
        -1351.875,
        0,
        -1560.27197265625
      ],
      "type": "VEC3"
    },
    {
      "bufferView": 2,
      "byteOffset": 0,
      "componentType": 5126,
      "count": 1193,
      "max": [
        0.9349241852760315,
        1,
        0.9347889423370361
      ],
      "min": [
        -0.9343104958534241,
        0,
        -0.9346301555633545
      ],
      "type": "VEC3"
    },
    {
      "bufferView": 3,
      "byteOffset": 0,
      "componentType": 5126,
      "count": 1193,
      "max": [
        0.999786376953125,
        1,
        1
      ],
      "min": [
        0,
        0.00003051804378628731,
        0.00004577706567943096
      ],
      "type": "VEC3"
    }
  ],
  "buffers": [
    {
      "byteLength": 5646,
      "uri": "data:application/octet-stream;base64,"
    },
    {
      "byteLength": 14316,
      "uri": "data:application/octet-stream;base64,"
    },
    {
      "byteLength": 14316,
      "uri": "data:application/octet-stream;base64,"
    },
    {
      "byteLength": 14316,
      "uri": "data:application/octet-stream;base64,"
    }
  ],
  "bufferViews": [
    {
      "buffer": 0,
      "byteOffset": 0,
      "byteLength": 5646
    },
    {
      "buffer": 1,
      "byteOffset": 0,
      "byteLength": 14316
    },
    {
      "buffer": 2,
      "byteOffset": 0,
      "byteLength": 14316
    },
    {
      "buffer": 3,
      "byteOffset": 0,
      "byteLength": 14316
    }
  ],
  "meshes": [
    {
      "primitives": [
        {
          "mode": 4,
          "indices": 0,
          "attributes": {
            "POSITION": 1,
            "NORMAL": 2,
            "COLOR_0": 3
          }
        }
      ]
    }
  ],
  "nodes": [
    {
      "children": [
        1
      ]
    },
    {
      "mesh": 0
    }
  ],
  "scenes": [
    {
      "nodes": [
        0
      ]
    }
  ],
  "scene": 0
}