{
  "asset": {
    "version": "2.0",
    "generator": "COLLADA2GLTF"
  },
  "accessors": [
    {
      "bufferView": 0,
      "byteOffset": 0,
      "componentType": 5123,
      "count": 2058,
      "min": [
        0
      ],
      "max": [
        1307
      ],
      "type": "SCALAR"
    },
    {
      "bufferView": 1,
      "byteOffset": 0,
      "componentType": 5126,
      "count": 1308,
      "max": [
        300,
        0,
        -90
      ],
      "min": [
        24.906835556030273,
        0,
        -390
      ],
      "type": "VEC3"
    },
    {
      "bufferView": 2,
      "byteOffset": 0,
      "componentType": 5126,
      "count": 1308,
      "max": [
        1,
        1,
        1
      ],
      "min": [
        -1,
        0,
        -1
      ],
      "type": "VEC3"
    },
    {
      "bufferView": 3,
      "byteOffset": 0,
      "componentType": 5126,
      "count": 1308,
      "max": [
        0.999786376953125,
        1,
        1
      ],
      "min": [
        0,
        0.00003051804378628731,
        0.00004577706567943096
      ],
      "type": "VEC3"
    }
  ],
  "buffers": [
    {
      "byteLength": 4116,
      "uri": "data:application/octet-stream;base64,"
    },
    {
      "byteLength": 15696,
      "uri": "data:application/octet-stream;base64,"
    },
    {
      "byteLength": 15696,
      "uri": "data:application/octet-stream;base64,"
    },
    {
      "byteLength": 15696,
      "uri": "data:application/octet-stream;base64,"
    }
  ],
  "bufferViews": [
    {
      "buffer": 0,
      "byteOffset": 0,
      "byteLength": 4116
    },
    {
      "buffer": 1,
      "byteOffset": 0,
      "byteLength": 15696
    },
    {
      "buffer": 2,
      "byteOffset": 0,
      "byteLength": 15696
    },
    {
      "buffer": 3,
      "byteOffset": 0,
      "byteLength": 15696
    }
  ],
  "meshes": [
    {
      "primitives": [
        {
          "mode": 4,
          "indices": 0,
          "attributes": {
            "POSITION": 1,
            "NORMAL": 2,
            "COLOR_0": 3
          }
        }
      ]
    }
  ],
  "nodes": [
    {
      "children": [
        1
      ]
    },
    {
      "mesh": 0
    }
  ],
  "scenes": [
    {
      "nodes": [
        0
      ]
    }
  ],
  "scene": 0
}