{
  "asset": {
    "version": "2.0",
    "generator": "COLLADA2GLTF"
  },
  "accessors": [
    {
      "bufferView": 0,
      "byteOffset": 0,
      "componentType": 5123,
      "count": 954,
      "min": [
        0
      ],
      "max": [
        407
      ],
      "type": "SCALAR"
    },
    {
      "bufferView": 1,
      "byteOffset": 0,
      "componentType": 5126,
      "count": 408,
      "max": [
        3169.267333984375,
        0.0010000000474974513,
        -2028.8397216796875
      ],
      "min": [
        3025.7734375,
        -0.20000000298023224,
        -2176.157470703125
      ],
      "type": "VEC3"
    },
    {
      "bufferView": 2,
      "byteOffset": 0,
      "componentType": 5126,
      "count": 408,
      "max": [
        0.8271493315696716,
        1,
        0.8154887557029724
      ],
      "min": [
        -0.8271574974060059,
        -1,
        -0.8168765306472778
      ],
      "type": "VEC3"
    },
    {
      "bufferView": 3,
      "byteOffset": 0,
      "componentType": 5126,
      "count": 408,
      "max": [
        0.7872740030288696,
        0.7875028848648071,
        0.7875028848648071
      ],
      "min": [
        0.07322804629802704,
        0.07324330508708954,
        0.07325856387615204
      ],
      "type": "VEC3"
    }
  ],
  "buffers": [
    {
      "byteLength": 1908,
      "uri": "data:application/octet-stream;base64,"
    },
    {
      "byteLength": 4896,
      "uri": "data:application/octet-stream;base64,"
    },
    {
      "byteLength": 4896,
      "uri": "data:application/octet-stream;base64,"
    },
    {
      "byteLength": 4896,
      "uri": "data:application/octet-stream;base64,"
    }
  ],
  "bufferViews": [
    {
      "buffer": 0,
      "byteOffset": 0,
      "byteLength": 1908
    },
    {
      "buffer": 1,
      "byteOffset": 0,
      "byteLength": 4896
    },
    {
      "buffer": 2,
      "byteOffset": 0,
      "byteLength": 4896
    },
    {
      "buffer": 3,
      "byteOffset": 0,
      "byteLength": 4896
    }
  ],
  "meshes": [
    {
      "primitives": [
        {
          "mode": 4,
          "indices": 0,
          "attributes": {
            "POSITION": 1,
            "NORMAL": 2,
            "COLOR_0": 3
          }
        }
      ]
    }
  ],
  "nodes": [
    {
      "children": [
        1
      ]
    },
    {
      "mesh": 0
    }
  ],
  "scenes": [
    {
      "nodes": [
        0
      ]
    }
  ],
  "scene": 0
}