{
  "asset": {
    "version": "2.0",
    "generator": "COLLADA2GLTF"
  },
  "accessors": [
    {
      "bufferView": 0,
      "byteOffset": 0,
      "componentType": 5123,
      "count": 1029,
      "min": [
        0
      ],
      "max": [
        548
      ],
      "type": "SCALAR"
    },
    {
      "bufferView": 1,
      "byteOffset": 0,
      "componentType": 5126,
      "count": 549,
      "max": [
        1608.2430419921875,
        7.5,
        224.72999572753906
      ],
      "min": [
        1465.2220458984375,
        0,
        -55.582000732421875
      ],
      "type": "VEC3"
    },
    {
      "bufferView": 2,
      "byteOffset": 0,
      "componentType": 5126,
      "count": 549,
      "max": [
        0.9838201999664307,
        1,
        0.9837382435798645
      ],
      "min": [
        -0.9838165640830994,
        0,
        -0.9837646484375
      ],
      "type": "VEC3"
    },
    {
      "bufferView": 3,
      "byteOffset": 0,
      "componentType": 5126,
      "count": 549,
      "max": [
        0.999786376953125,
        0.7875181436538696,
        0.26330968737602234
      ],
      "min": [
        0.6036774516105652,
        0.00003051804378628731,
        0
      ],
      "type": "VEC3"
    }
  ],
  "buffers": [
    {
      "byteLength": 2058,
      "uri": "data:application/octet-stream;base64,"
    },
    {
      "byteLength": 6588,
      "uri": "data:application/octet-stream;base64,"
    },
    {
      "byteLength": 6588,
      "uri": "data:application/octet-stream;base64,"
    },
    {
      "byteLength": 6588,
      "uri": "data:application/octet-stream;base64,"
    }
  ],
  "bufferViews": [
    {
      "buffer": 0,
      "byteOffset": 0,
      "byteLength": 2058
    },
    {
      "buffer": 1,
      "byteOffset": 0,
      "byteLength": 6588
    },
    {
      "buffer": 2,
      "byteOffset": 0,
      "byteLength": 6588
    },
    {
      "buffer": 3,
      "byteOffset": 0,
      "byteLength": 6588
    }
  ],
  "meshes": [
    {
      "primitives": [
        {
          "mode": 4,
          "indices": 0,
          "attributes": {
            "POSITION": 1,
            "NORMAL": 2,
            "COLOR_0": 3
          }
        }
      ]
    }
  ],
  "nodes": [
    {
      "children": [
        1
      ]
    },
    {
      "mesh": 0
    }
  ],
  "scenes": [
    {
      "nodes": [
        0
      ]
    }
  ],
  "scene": 0
}