{
  "asset": {
    "version": "2.0",
    "generator": "COLLADA2GLTF"
  },
  "accessors": [
    {
      "bufferView": 0,
      "byteOffset": 0,
      "componentType": 5123,
      "count": 3579,
      "min": [
        0
      ],
      "max": [
        1440
      ],
      "type": "SCALAR"
    },
    {
      "bufferView": 1,
      "byteOffset": 0,
      "componentType": 5126,
      "count": 1441,
      "max": [
        -870,
        7.5,
        10.601326942443848
      ],
      "min": [
        -1170,
        0,
        -480
      ],
      "type": "VEC3"
    },
    {
      "bufferView": 2,
      "byteOffset": 0,
      "componentType": 5126,
      "count": 1441,
      "max": [
        0.9120737910270691,
        1,
        0.8640125393867493
      ],
      "min": [
        -0.963967502117157,
        0,
        -0.9350746870040894
      ],
      "type": "VEC3"
    },
    {
      "bufferView": 3,
      "byteOffset": 0,
      "componentType": 5126,
      "count": 1441,
      "max": [
        0.999786376953125,
        1,
        0.26330968737602234
      ],
      "min": [
        0.000015259021893143654,
        0.07324330508708954,
        0.00004577706567943096
      ],
      "type": "VEC3"
    }
  ],
  "buffers": [
    {
      "byteLength": 7158,
      "uri": "data:application/octet-stream;base64,"
    },
    {
      "byteLength": 17292,
      "uri": "data:application/octet-stream;base64,"
    },
    {
      "byteLength": 17292,
      "uri": "data:application/octet-stream;base64,"
    },
    {
      "byteLength": 17292,
      "uri": "data:application/octet-stream;base64,"
    }
  ],
  "bufferViews": [
    {
      "buffer": 0,
      "byteOffset": 0,
      "byteLength": 7158
    },
    {
      "buffer": 1,
      "byteOffset": 0,
      "byteLength": 17292
    },
    {
      "buffer": 2,
      "byteOffset": 0,
      "byteLength": 17292
    },
    {
      "buffer": 3,
      "byteOffset": 0,
      "byteLength": 17292
    }
  ],
  "meshes": [
    {
      "primitives": [
        {
          "mode": 4,
          "indices": 0,
          "attributes": {
            "POSITION": 1,
            "NORMAL": 2,
            "COLOR_0": 3
          }
        }
      ]
    }
  ],
  "nodes": [
    {
      "children": [
        1
      ]
    },
    {
      "mesh": 0
    }
  ],
  "scenes": [
    {
      "nodes": [
        0
      ]
    }
  ],
  "scene": 0
}