{
  "asset": {
    "version": "2.0",
    "generator": "COLLADA2GLTF"
  },
  "accessors": [
    {
      "bufferView": 0,
      "byteOffset": 0,
      "componentType": 5123,
      "count": 2268,
      "min": [
        0
      ],
      "max": [
        949
      ],
      "type": "SCALAR"
    },
    {
      "bufferView": 1,
      "byteOffset": 0,
      "componentType": 5126,
      "count": 950,
      "max": [
        -1454.2535400390625,
        14.5,
        -187.31927490234375
      ],
      "min": [
        -1786.193603515625,
        9.28499984741211,
        -469.4751892089844
      ],
      "type": "VEC3"
    },
    {
      "bufferView": 2,
      "byteOffset": 0,
      "componentType": 5126,
      "count": 950,
      "max": [
        0.766247570514679,
        0.7065288424491882,
        0.766247570514679
      ],
      "min": [
        -0.766247570514679,
        -0.705975353717804,
        -0.766247570514679
      ],
      "type": "VEC3"
    },
    {
      "bufferView": 3,
      "byteOffset": 0,
      "componentType": 5126,
      "count": 950,
      "max": [
        0.4480048716068268,
        0.4480048716068268,
        0.4480659067630768
      ],
      "min": [
        0,
        0,
        0
      ],
      "type": "VEC3"
    }
  ],
  "buffers": [
    {
      "byteLength": 4536,
      "uri": "data:application/octet-stream;base64,"
    },
    {
      "byteLength": 11400,
      "uri": "data:application/octet-stream;base64,"
    },
    {
      "byteLength": 11400,
      "uri": "data:application/octet-stream;base64,"
    },
    {
      "byteLength": 11400,
      "uri": "data:application/octet-stream;base64,"
    }
  ],
  "bufferViews": [
    {
      "buffer": 0,
      "byteOffset": 0,
      "byteLength": 4536
    },
    {
      "buffer": 1,
      "byteOffset": 0,
      "byteLength": 11400
    },
    {
      "buffer": 2,
      "byteOffset": 0,
      "byteLength": 11400
    },
    {
      "buffer": 3,
      "byteOffset": 0,
      "byteLength": 11400
    }
  ],
  "meshes": [
    {
      "primitives": [
        {
          "mode": 4,
          "indices": 0,
          "attributes": {
            "POSITION": 1,
            "NORMAL": 2,
            "COLOR_0": 3
          }
        }
      ]
    }
  ],
  "nodes": [
    {
      "children": [
        1
      ]
    },
    {
      "mesh": 0
    }
  ],
  "scenes": [
    {
      "nodes": [
        0
      ]
    }
  ],
  "scene": 0
}