{
  "asset": {
    "version": "2.0",
    "generator": "COLLADA2GLTF"
  },
  "accessors": [
    {
      "bufferView": 0,
      "byteOffset": 0,
      "componentType": 5123,
      "count": 282,
      "min": [
        0
      ],
      "max": [
        103
      ],
      "type": "SCALAR"
    },
    {
      "bufferView": 1,
      "byteOffset": 0,
      "componentType": 5126,
      "count": 104,
      "max": [
        -1055.0916748046875,
        0,
        1085.6513671875
      ],
      "min": [
        -1131.541015625,
        -3,
        1019.2459106445312
      ],
      "type": "VEC3"
    },
    {
      "bufferView": 2,
      "byteOffset": 0,
      "componentType": 5126,
      "count": 104,
      "max": [
        0.7689692378044128,
        1,
        0.7689692378044128
      ],
      "min": [
        -0.7689692378044128,
        0,
        -0.7689692378044128
      ],
      "type": "VEC3"
    },
    {
      "bufferView": 3,
      "byteOffset": 0,
      "componentType": 5126,
      "count": 104,
      "max": [
        0.21585412323474884,
        0.21585412323474884,
        0.21589989960193634
      ],
      "min": [
        0.21585412323474884,
        0.21585412323474884,
        0.21589989960193634
      ],
      "type": "VEC3"
    }
  ],
  "buffers": [
    {
      "byteLength": 564,
      "uri": "data:application/octet-stream;base64,"
    },
    {
      "byteLength": 1248,
      "uri": "data:application/octet-stream;base64,"
    },
    {
      "byteLength": 1248,
      "uri": "data:application/octet-stream;base64,"
    },
    {
      "byteLength": 1248,
      "uri": "data:application/octet-stream;base64,"
    }
  ],
  "bufferViews": [
    {
      "buffer": 0,
      "byteOffset": 0,
      "byteLength": 564
    },
    {
      "buffer": 1,
      "byteOffset": 0,
      "byteLength": 1248
    },
    {
      "buffer": 2,
      "byteOffset": 0,
      "byteLength": 1248
    },
    {
      "buffer": 3,
      "byteOffset": 0,
      "byteLength": 1248
    }
  ],
  "meshes": [
    {
      "primitives": [
        {
          "mode": 4,
          "indices": 0,
          "attributes": {
            "POSITION": 1,
            "NORMAL": 2,
            "COLOR_0": 3
          }
        }
      ]
    }
  ],
  "nodes": [
    {
      "children": [
        1
      ]
    },
    {
      "mesh": 0
    }
  ],
  "scenes": [
    {
      "nodes": [
        0
      ]
    }
  ],
  "scene": 0
}