{
  "asset": {
    "version": "2.0",
    "generator": "COLLADA2GLTF"
  },
  "accessors": [
    {
      "bufferView": 0,
      "byteOffset": 0,
      "componentType": 5123,
      "count": 375,
      "min": [
        0
      ],
      "max": [
        188
      ],
      "type": "SCALAR"
    },
    {
      "bufferView": 1,
      "byteOffset": 0,
      "componentType": 5126,
      "count": 189,
      "max": [
        -2085.45703125,
        19.5,
        140.4834747314453
      ],
      "min": [
        -2109.920654296875,
        14.5,
        114.83938598632812
      ],
      "type": "VEC3"
    },
    {
      "bufferView": 2,
      "byteOffset": 0,
      "componentType": 5126,
      "count": 189,
      "max": [
        0.8304159045219421,
        0.7030327320098877,
        0.8304159045219421
      ],
      "min": [
        -0.8304159045219421,
        -0.7030327320098877,
        -0.8304159045219421
      ],
      "type": "VEC3"
    },
    {
      "bufferView": 3,
      "byteOffset": 0,
      "componentType": 5126,
      "count": 189,
      "max": [
        0.4480048716068268,
        0.4480048716068268,
        0.4480659067630768
      ],
      "min": [
        0,
        0,
        0
      ],
      "type": "VEC3"
    }
  ],
  "buffers": [
    {
      "byteLength": 750,
      "uri": "data:application/octet-stream;base64,"
    },
    {
      "byteLength": 2268,
      "uri": "data:application/octet-stream;base64,"
    },
    {
      "byteLength": 2268,
      "uri": "data:application/octet-stream;base64,"
    },
    {
      "byteLength": 2268,
      "uri": "data:application/octet-stream;base64,"
    }
  ],
  "bufferViews": [
    {
      "buffer": 0,
      "byteOffset": 0,
      "byteLength": 750
    },
    {
      "buffer": 1,
      "byteOffset": 0,
      "byteLength": 2268
    },
    {
      "buffer": 2,
      "byteOffset": 0,
      "byteLength": 2268
    },
    {
      "buffer": 3,
      "byteOffset": 0,
      "byteLength": 2268
    }
  ],
  "meshes": [
    {
      "primitives": [
        {
          "mode": 4,
          "indices": 0,
          "attributes": {
            "POSITION": 1,
            "NORMAL": 2,
            "COLOR_0": 3
          }
        }
      ]
    }
  ],
  "nodes": [
    {
      "children": [
        1
      ]
    },
    {
      "mesh": 0
    }
  ],
  "scenes": [
    {
      "nodes": [
        0
      ]
    }
  ],
  "scene": 0
}