{
  "asset": {
    "version": "2.0",
    "generator": "COLLADA2GLTF"
  },
  "accessors": [
    {
      "bufferView": 0,
      "byteOffset": 0,
      "componentType": 5123,
      "count": 2472,
      "min": [
        0
      ],
      "max": [
        1035
      ],
      "type": "SCALAR"
    },
    {
      "bufferView": 1,
      "byteOffset": 0,
      "componentType": 5126,
      "count": 1036,
      "max": [
        -278.11199951171875,
        7.5,
        614.3280029296875
      ],
      "min": [
        -1199.175048828125,
        0,
        -1322.928955078125
      ],
      "type": "VEC3"
    },
    {
      "bufferView": 2,
      "byteOffset": 0,
      "componentType": 5126,
      "count": 1036,
      "max": [
        0.9730952978134155,
        1,
        0.9727356433868408
      ],
      "min": [
        -0.9726643562316895,
        0,
        -0.9727751612663269
      ],
      "type": "VEC3"
    },
    {
      "bufferView": 3,
      "byteOffset": 0,
      "componentType": 5126,
      "count": 1036,
      "max": [
        0.999786376953125,
        1,
        1
      ],
      "min": [
        0,
        0.00003051804378628731,
        0.00004577706567943096
      ],
      "type": "VEC3"
    }
  ],
  "buffers": [
    {
      "byteLength": 4944,
      "uri": "data:application/octet-stream;base64,"
    },
    {
      "byteLength": 12432,
      "uri": "data:application/octet-stream;base64,"
    },
    {
      "byteLength": 12432,
      "uri": "data:application/octet-stream;base64,"
    },
    {
      "byteLength": 12432,
      "uri": "data:application/octet-stream;base64,"
    }
  ],
  "bufferViews": [
    {
      "buffer": 0,
      "byteOffset": 0,
      "byteLength": 4944
    },
    {
      "buffer": 1,
      "byteOffset": 0,
      "byteLength": 12432
    },
    {
      "buffer": 2,
      "byteOffset": 0,
      "byteLength": 12432
    },
    {
      "buffer": 3,
      "byteOffset": 0,
      "byteLength": 12432
    }
  ],
  "meshes": [
    {
      "primitives": [
        {
          "mode": 4,
          "indices": 0,
          "attributes": {
            "POSITION": 1,
            "NORMAL": 2,
            "COLOR_0": 3
          }
        }
      ]
    }
  ],
  "nodes": [
    {
      "children": [
        1
      ]
    },
    {
      "mesh": 0
    }
  ],
  "scenes": [
    {
      "nodes": [
        0
      ]
    }
  ],
  "scene": 0
}