{
  "asset": {
    "version": "2.0",
    "generator": "COLLADA2GLTF"
  },
  "accessors": [
    {
      "bufferView": 0,
      "byteOffset": 0,
      "componentType": 5123,
      "count": 675,
      "min": [
        0
      ],
      "max": [
        512
      ],
      "type": "SCALAR"
    },
    {
      "bufferView": 1,
      "byteOffset": 0,
      "componentType": 5126,
      "count": 513,
      "max": [
        -1433.7220458984375,
        50,
        97.79479217529297
      ],
      "min": [
        -1717.551025390625,
        0,
        -429.2309875488281
      ],
      "type": "VEC3"
    },
    {
      "bufferView": 2,
      "byteOffset": 0,
      "componentType": 5126,
      "count": 513,
      "max": [
        0.8111886382102966,
        1,
        0.8110886812210083
      ],
      "min": [
        -0.8117883801460266,
        0,
        -0.811621904373169
      ],
      "type": "VEC3"
    },
    {
      "bufferView": 3,
      "byteOffset": 0,
      "componentType": 5126,
      "count": 513,
      "max": [
        0.999786376953125,
        0.7875181436538696,
        0.26330968737602234
      ],
      "min": [
        0.6036774516105652,
        0.00003051804378628731,
        0
      ],
      "type": "VEC3"
    }
  ],
  "buffers": [
    {
      "byteLength": 1350,
      "uri": "data:application/octet-stream;base64,"
    },
    {
      "byteLength": 6156,
      "uri": "data:application/octet-stream;base64,"
    },
    {
      "byteLength": 6156,
      "uri": "data:application/octet-stream;base64,"
    },
    {
      "byteLength": 6156,
      "uri": "data:application/octet-stream;base64,"
    }
  ],
  "bufferViews": [
    {
      "buffer": 0,
      "byteOffset": 0,
      "byteLength": 1350
    },
    {
      "buffer": 1,
      "byteOffset": 0,
      "byteLength": 6156
    },
    {
      "buffer": 2,
      "byteOffset": 0,
      "byteLength": 6156
    },
    {
      "buffer": 3,
      "byteOffset": 0,
      "byteLength": 6156
    }
  ],
  "meshes": [
    {
      "primitives": [
        {
          "mode": 4,
          "indices": 0,
          "attributes": {
            "POSITION": 1,
            "NORMAL": 2,
            "COLOR_0": 3
          }
        }
      ]
    }
  ],
  "nodes": [
    {
      "children": [
        1
      ]
    },
    {
      "mesh": 0
    }
  ],
  "scenes": [
    {
      "nodes": [
        0
      ]
    }
  ],
  "scene": 0
}