{
  "asset": {
    "version": "2.0",
    "generator": "COLLADA2GLTF"
  },
  "accessors": [
    {
      "bufferView": 0,
      "byteOffset": 0,
      "componentType": 5123,
      "count": 4425,
      "min": [
        0
      ],
      "max": [
        1577
      ],
      "type": "SCALAR"
    },
    {
      "bufferView": 1,
      "byteOffset": 0,
      "componentType": 5126,
      "count": 1578,
      "max": [
        -1863.6649169921875,
        0.14777499437332153,
        1853.376953125
      ],
      "min": [
        -2025.8240966796875,
        -0.20000000298023224,
        1703.5240478515625
      ],
      "type": "VEC3"
    },
    {
      "bufferView": 2,
      "byteOffset": 0,
      "componentType": 5126,
      "count": 1578,
      "max": [
        0.7847315669059753,
        1,
        0.7865436673164368
      ],
      "min": [
        -0.7868711948394775,
        -1,
        -0.7847318053245544
      ],
      "type": "VEC3"
    },
    {
      "bufferView": 3,
      "byteOffset": 0,
      "componentType": 5126,
      "count": 1578,
      "max": [
        0.999786376953125,
        1,
        0.7875028848648071
      ],
      "min": [
        0.000015259021893143654,
        0.03309682011604309,
        0.00004577706567943096
      ],
      "type": "VEC3"
    }
  ],
  "buffers": [
    {
      "byteLength": 8850,
      "uri": "data:application/octet-stream;base64,"
    },
    {
      "byteLength": 18936,
      "uri": "data:application/octet-stream;base64,"
    },
    {
      "byteLength": 18936,
      "uri": "data:application/octet-stream;base64,"
    },
    {
      "byteLength": 18936,
      "uri": "data:application/octet-stream;base64,"
    }
  ],
  "bufferViews": [
    {
      "buffer": 0,
      "byteOffset": 0,
      "byteLength": 8850
    },
    {
      "buffer": 1,
      "byteOffset": 0,
      "byteLength": 18936
    },
    {
      "buffer": 2,
      "byteOffset": 0,
      "byteLength": 18936
    },
    {
      "buffer": 3,
      "byteOffset": 0,
      "byteLength": 18936
    }
  ],
  "meshes": [
    {
      "primitives": [
        {
          "mode": 4,
          "indices": 0,
          "attributes": {
            "POSITION": 1,
            "NORMAL": 2,
            "COLOR_0": 3
          }
        }
      ]
    }
  ],
  "nodes": [
    {
      "children": [
        1
      ]
    },
    {
      "mesh": 0
    }
  ],
  "scenes": [
    {
      "nodes": [
        0
      ]
    }
  ],
  "scene": 0
}