{
  "asset": {
    "version": "2.0",
    "generator": "COLLADA2GLTF"
  },
  "accessors": [
    {
      "bufferView": 0,
      "byteOffset": 0,
      "componentType": 5123,
      "count": 132,
      "min": [
        0
      ],
      "max": [
        75
      ],
      "type": "SCALAR"
    },
    {
      "bufferView": 1,
      "byteOffset": 0,
      "componentType": 5126,
      "count": 76,
      "max": [
        -813.88134765625,
        24.524999618530273,
        -837.9862060546875
      ],
      "min": [
        -1009.626708984375,
        22.315000534057617,
        -1004.5867919921875
      ],
      "type": "VEC3"
    },
    {
      "bufferView": 2,
      "byteOffset": 0,
      "componentType": 5126,
      "count": 76,
      "max": [
        0.5138825178146362,
        0.7054862380027771,
        0.5942948460578918
      ],
      "min": [
        -0.5138825178146362,
        -0.7054862380027771,
        -0.5942948460578918
      ],
      "type": "VEC3"
    },
    {
      "bufferView": 3,
      "byteOffset": 0,
      "componentType": 5126,
      "count": 76,
      "max": [
        0,
        0,
        0
      ],
      "min": [
        0,
        0,
        0
      ],
      "type": "VEC3"
    }
  ],
  "buffers": [
    {
      "byteLength": 264,
      "uri": "data:application/octet-stream;base64,"
    },
    {
      "byteLength": 912,
      "uri": "data:application/octet-stream;base64,"
    },
    {
      "byteLength": 912,
      "uri": "data:application/octet-stream;base64,"
    },
    {
      "byteLength": 912,
      "uri": "data:application/octet-stream;base64,"
    }
  ],
  "bufferViews": [
    {
      "buffer": 0,
      "byteOffset": 0,
      "byteLength": 264
    },
    {
      "buffer": 1,
      "byteOffset": 0,
      "byteLength": 912
    },
    {
      "buffer": 2,
      "byteOffset": 0,
      "byteLength": 912
    },
    {
      "buffer": 3,
      "byteOffset": 0,
      "byteLength": 912
    }
  ],
  "meshes": [
    {
      "primitives": [
        {
          "mode": 4,
          "indices": 0,
          "attributes": {
            "POSITION": 1,
            "NORMAL": 2,
            "COLOR_0": 3
          }
        }
      ]
    }
  ],
  "nodes": [
    {
      "children": [
        1
      ]
    },
    {
      "mesh": 0
    }
  ],
  "scenes": [
    {
      "nodes": [
        0
      ]
    }
  ],
  "scene": 0
}