{
  "asset": {
    "version": "2.0",
    "generator": "COLLADA2GLTF"
  },
  "accessors": [
    {
      "bufferView": 0,
      "byteOffset": 0,
      "componentType": 5123,
      "count": 5031,
      "min": [
        0
      ],
      "max": [
        1936
      ],
      "type": "SCALAR"
    },
    {
      "bufferView": 1,
      "byteOffset": 0,
      "componentType": 5126,
      "count": 1937,
      "max": [
        988.5783081054688,
        0.0010000000474974513,
        -655.1500244140625
      ],
      "min": [
        365.6700134277344,
        0,
        -1986.0689697265625
      ],
      "type": "VEC3"
    },
    {
      "bufferView": 2,
      "byteOffset": 0,
      "componentType": 5126,
      "count": 1937,
      "max": [
        0.8630496263504028,
        1,
        0.8753422498703003
      ],
      "min": [
        -0.8914344310760498,
        0,
        -0.890433132648468
      ],
      "type": "VEC3"
    },
    {
      "bufferView": 3,
      "byteOffset": 0,
      "componentType": 5126,
      "count": 1937,
      "max": [
        0.999786376953125,
        1,
        1
      ],
      "min": [
        0,
        0.00003051804378628731,
        0.000015259021893143654
      ],
      "type": "VEC3"
    }
  ],
  "buffers": [
    {
      "byteLength": 10062,
      "uri": "data:application/octet-stream;base64,"
    },
    {
      "byteLength": 23244,
      "uri": "data:application/octet-stream;base64,"
    },
    {
      "byteLength": 23244,
      "uri": "data:application/octet-stream;base64,"
    },
    {
      "byteLength": 23244,
      "uri": "data:application/octet-stream;base64,"
    }
  ],
  "bufferViews": [
    {
      "buffer": 0,
      "byteOffset": 0,
      "byteLength": 10062
    },
    {
      "buffer": 1,
      "byteOffset": 0,
      "byteLength": 23244
    },
    {
      "buffer": 2,
      "byteOffset": 0,
      "byteLength": 23244
    },
    {
      "buffer": 3,
      "byteOffset": 0,
      "byteLength": 23244
    }
  ],
  "meshes": [
    {
      "primitives": [
        {
          "mode": 4,
          "indices": 0,
          "attributes": {
            "POSITION": 1,
            "NORMAL": 2,
            "COLOR_0": 3
          }
        }
      ]
    }
  ],
  "nodes": [
    {
      "children": [
        1
      ]
    },
    {
      "mesh": 0
    }
  ],
  "scenes": [
    {
      "nodes": [
        0
      ]
    }
  ],
  "scene": 0
}