{
  "asset": {
    "version": "2.0",
    "generator": "COLLADA2GLTF"
  },
  "accessors": [
    {
      "bufferView": 0,
      "byteOffset": 0,
      "componentType": 5123,
      "count": 1353,
      "min": [
        0
      ],
      "max": [
        574
      ],
      "type": "SCALAR"
    },
    {
      "bufferView": 1,
      "byteOffset": 0,
      "componentType": 5126,
      "count": 575,
      "max": [
        1982.2161865234375,
        0,
        1135.9307861328125
      ],
      "min": [
        1620,
        0,
        840
      ],
      "type": "VEC3"
    },
    {
      "bufferView": 2,
      "byteOffset": 0,
      "componentType": 5126,
      "count": 575,
      "max": [
        0.9212449193000793,
        1,
        0.9211693406105042
      ],
      "min": [
        -0.38916194438934326,
        0,
        0
      ],
      "type": "VEC3"
    },
    {
      "bufferView": 3,
      "byteOffset": 0,
      "componentType": 5126,
      "count": 575,
      "max": [
        0.999786376953125,
        1,
        0.26330968737602234
      ],
      "min": [
        0.000015259021893143654,
        0.07324330508708954,
        0.00004577706567943096
      ],
      "type": "VEC3"
    }
  ],
  "buffers": [
    {
      "byteLength": 2706,
      "uri": "data:application/octet-stream;base64,"
    },
    {
      "byteLength": 6900,
      "uri": "data:application/octet-stream;base64,"
    },
    {
      "byteLength": 6900,
      "uri": "data:application/octet-stream;base64,"
    },
    {
      "byteLength": 6900,
      "uri": "data:application/octet-stream;base64,"
    }
  ],
  "bufferViews": [
    {
      "buffer": 0,
      "byteOffset": 0,
      "byteLength": 2706
    },
    {
      "buffer": 1,
      "byteOffset": 0,
      "byteLength": 6900
    },
    {
      "buffer": 2,
      "byteOffset": 0,
      "byteLength": 6900
    },
    {
      "buffer": 3,
      "byteOffset": 0,
      "byteLength": 6900
    }
  ],
  "meshes": [
    {
      "primitives": [
        {
          "mode": 4,
          "indices": 0,
          "attributes": {
            "POSITION": 1,
            "NORMAL": 2,
            "COLOR_0": 3
          }
        }
      ]
    }
  ],
  "nodes": [
    {
      "children": [
        1
      ]
    },
    {
      "mesh": 0
    }
  ],
  "scenes": [
    {
      "nodes": [
        0
      ]
    }
  ],
  "scene": 0
}