{
  "asset": {
    "version": "2.0",
    "generator": "COLLADA2GLTF"
  },
  "accessors": [
    {
      "bufferView": 0,
      "byteOffset": 0,
      "componentType": 5123,
      "count": 3948,
      "min": [
        0
      ],
      "max": [
        1630
      ],
      "type": "SCALAR"
    },
    {
      "bufferView": 1,
      "byteOffset": 0,
      "componentType": 5126,
      "count": 1631,
      "max": [
        -1110,
        0,
        790.0375366210938
      ],
      "min": [
        -1486.51806640625,
        0,
        389.2445373535156
      ],
      "type": "VEC3"
    },
    {
      "bufferView": 2,
      "byteOffset": 0,
      "componentType": 5126,
      "count": 1631,
      "max": [
        0.9040184617042542,
        1,
        0.9243630766868591
      ],
      "min": [
        -0.9023433923721313,
        0,
        -0.902338445186615
      ],
      "type": "VEC3"
    },
    {
      "bufferView": 3,
      "byteOffset": 0,
      "componentType": 5126,
      "count": 1631,
      "max": [
        0.999786376953125,
        1,
        0.26330968737602234
      ],
      "min": [
        0.000015259021893143654,
        0.07324330508708954,
        0.00004577706567943096
      ],
      "type": "VEC3"
    }
  ],
  "buffers": [
    {
      "byteLength": 7896,
      "uri": "data:application/octet-stream;base64,"
    },
    {
      "byteLength": 19572,
      "uri": "data:application/octet-stream;base64,"
    },
    {
      "byteLength": 19572,
      "uri": "data:application/octet-stream;base64,"
    },
    {
      "byteLength": 19572,
      "uri": "data:application/octet-stream;base64,"
    }
  ],
  "bufferViews": [
    {
      "buffer": 0,
      "byteOffset": 0,
      "byteLength": 7896
    },
    {
      "buffer": 1,
      "byteOffset": 0,
      "byteLength": 19572
    },
    {
      "buffer": 2,
      "byteOffset": 0,
      "byteLength": 19572
    },
    {
      "buffer": 3,
      "byteOffset": 0,
      "byteLength": 19572
    }
  ],
  "meshes": [
    {
      "primitives": [
        {
          "mode": 4,
          "indices": 0,
          "attributes": {
            "POSITION": 1,
            "NORMAL": 2,
            "COLOR_0": 3
          }
        }
      ]
    }
  ],
  "nodes": [
    {
      "children": [
        1
      ]
    },
    {
      "mesh": 0
    }
  ],
  "scenes": [
    {
      "nodes": [
        0
      ]
    }
  ],
  "scene": 0
}