{
  "asset": {
    "version": "2.0",
    "generator": "COLLADA2GLTF"
  },
  "accessors": [
    {
      "bufferView": 0,
      "byteOffset": 0,
      "componentType": 5123,
      "count": 2946,
      "min": [
        0
      ],
      "max": [
        1083
      ],
      "type": "SCALAR"
    },
    {
      "bufferView": 1,
      "byteOffset": 0,
      "componentType": 5126,
      "count": 1084,
      "max": [
        -1004.6810302734375,
        0.10000000149011612,
        890.4772338867188
      ],
      "min": [
        -1109.583740234375,
        -0.20000000298023224,
        720
      ],
      "type": "VEC3"
    },
    {
      "bufferView": 2,
      "byteOffset": 0,
      "componentType": 5126,
      "count": 1084,
      "max": [
        0.8803701996803284,
        1,
        0.8385471701622009
      ],
      "min": [
        -0.8385471701622009,
        -1,
        -0.8385471701622009
      ],
      "type": "VEC3"
    },
    {
      "bufferView": 3,
      "byteOffset": 0,
      "componentType": 5126,
      "count": 1084,
      "max": [
        0.999786376953125,
        1,
        0.7875028848648071
      ],
      "min": [
        0.000015259021893143654,
        0.07324330508708954,
        0.00004577706567943096
      ],
      "type": "VEC3"
    }
  ],
  "buffers": [
    {
      "byteLength": 5892,
      "uri": "data:application/octet-stream;base64,"
    },
    {
      "byteLength": 13008,
      "uri": "data:application/octet-stream;base64,"
    },
    {
      "byteLength": 13008,
      "uri": "data:application/octet-stream;base64,"
    },
    {
      "byteLength": 13008,
      "uri": "data:application/octet-stream;base64,"
    }
  ],
  "bufferViews": [
    {
      "buffer": 0,
      "byteOffset": 0,
      "byteLength": 5892
    },
    {
      "buffer": 1,
      "byteOffset": 0,
      "byteLength": 13008
    },
    {
      "buffer": 2,
      "byteOffset": 0,
      "byteLength": 13008
    },
    {
      "buffer": 3,
      "byteOffset": 0,
      "byteLength": 13008
    }
  ],
  "meshes": [
    {
      "primitives": [
        {
          "mode": 4,
          "indices": 0,
          "attributes": {
            "POSITION": 1,
            "NORMAL": 2,
            "COLOR_0": 3
          }
        }
      ]
    }
  ],
  "nodes": [
    {
      "children": [
        1
      ]
    },
    {
      "mesh": 0
    }
  ],
  "scenes": [
    {
      "nodes": [
        0
      ]
    }
  ],
  "scene": 0
}