{
  "asset": {
    "version": "2.0",
    "generator": "COLLADA2GLTF"
  },
  "accessors": [
    {
      "bufferView": 0,
      "byteOffset": 0,
      "componentType": 5123,
      "count": 2802,
      "min": [
        0
      ],
      "max": [
        1190
      ],
      "type": "SCALAR"
    },
    {
      "bufferView": 1,
      "byteOffset": 0,
      "componentType": 5126,
      "count": 1191,
      "max": [
        118.23759460449219,
        14.5,
        -1396.53857421875
      ],
      "min": [
        -198.23422241210938,
        9.28499984741211,
        -1587.5482177734375
      ],
      "type": "VEC3"
    },
    {
      "bufferView": 2,
      "byteOffset": 0,
      "componentType": 5126,
      "count": 1191,
      "max": [
        0.8661056756973267,
        0.7065390348434448,
        0.8661056756973267
      ],
      "min": [
        -0.8661056756973267,
        -0.7059952616691589,
        -0.8661056756973267
      ],
      "type": "VEC3"
    },
    {
      "bufferView": 3,
      "byteOffset": 0,
      "componentType": 5126,
      "count": 1191,
      "max": [
        0.4480048716068268,
        0.4480048716068268,
        0.4480659067630768
      ],
      "min": [
        0,
        0,
        0
      ],
      "type": "VEC3"
    }
  ],
  "buffers": [
    {
      "byteLength": 5604,
      "uri": "data:application/octet-stream;base64,"
    },
    {
      "byteLength": 14292,
      "uri": "data:application/octet-stream;base64,"
    },
    {
      "byteLength": 14292,
      "uri": "data:application/octet-stream;base64,"
    },
    {
      "byteLength": 14292,
      "uri": "data:application/octet-stream;base64,"
    }
  ],
  "bufferViews": [
    {
      "buffer": 0,
      "byteOffset": 0,
      "byteLength": 5604
    },
    {
      "buffer": 1,
      "byteOffset": 0,
      "byteLength": 14292
    },
    {
      "buffer": 2,
      "byteOffset": 0,
      "byteLength": 14292
    },
    {
      "buffer": 3,
      "byteOffset": 0,
      "byteLength": 14292
    }
  ],
  "meshes": [
    {
      "primitives": [
        {
          "mode": 4,
          "indices": 0,
          "attributes": {
            "POSITION": 1,
            "NORMAL": 2,
            "COLOR_0": 3
          }
        }
      ]
    }
  ],
  "nodes": [
    {
      "children": [
        1
      ]
    },
    {
      "mesh": 0
    }
  ],
  "scenes": [
    {
      "nodes": [
        0
      ]
    }
  ],
  "scene": 0
}