{
  "asset": {
    "version": "2.0",
    "generator": "COLLADA2GLTF"
  },
  "accessors": [
    {
      "bufferView": 0,
      "byteOffset": 0,
      "componentType": 5123,
      "count": 1140,
      "min": [
        0
      ],
      "max": [
        937
      ],
      "type": "SCALAR"
    },
    {
      "bufferView": 1,
      "byteOffset": 0,
      "componentType": 5126,
      "count": 938,
      "max": [
        -1174.6700439453125,
        87.5,
        245.94757080078125
      ],
      "min": [
        -1441.1629638671875,
        0,
        -401.1889953613281
      ],
      "type": "VEC3"
    },
    {
      "bufferView": 2,
      "byteOffset": 0,
      "componentType": 5126,
      "count": 938,
      "max": [
        0.9866924285888672,
        1,
        0.9867512583732605
      ],
      "min": [
        -0.9867737889289856,
        0,
        -0.9867649674415588
      ],
      "type": "VEC3"
    },
    {
      "bufferView": 3,
      "byteOffset": 0,
      "componentType": 5126,
      "count": 938,
      "max": [
        0.999786376953125,
        0.7875181436538696,
        0.7875028848648071
      ],
      "min": [
        0.6036774516105652,
        0.00003051804378628731,
        0
      ],
      "type": "VEC3"
    }
  ],
  "buffers": [
    {
      "byteLength": 2280,
      "uri": "data:application/octet-stream;base64,"
    },
    {
      "byteLength": 11256,
      "uri": "data:application/octet-stream;base64,"
    },
    {
      "byteLength": 11256,
      "uri": "data:application/octet-stream;base64,"
    },
    {
      "byteLength": 11256,
      "uri": "data:application/octet-stream;base64,"
    }
  ],
  "bufferViews": [
    {
      "buffer": 0,
      "byteOffset": 0,
      "byteLength": 2280
    },
    {
      "buffer": 1,
      "byteOffset": 0,
      "byteLength": 11256
    },
    {
      "buffer": 2,
      "byteOffset": 0,
      "byteLength": 11256
    },
    {
      "buffer": 3,
      "byteOffset": 0,
      "byteLength": 11256
    }
  ],
  "meshes": [
    {
      "primitives": [
        {
          "mode": 4,
          "indices": 0,
          "attributes": {
            "POSITION": 1,
            "NORMAL": 2,
            "COLOR_0": 3
          }
        }
      ]
    }
  ],
  "nodes": [
    {
      "children": [
        1
      ]
    },
    {
      "mesh": 0
    }
  ],
  "scenes": [
    {
      "nodes": [
        0
      ]
    }
  ],
  "scene": 0
}