{
  "asset": {
    "version": "2.0",
    "generator": "COLLADA2GLTF"
  },
  "accessors": [
    {
      "bufferView": 0,
      "byteOffset": 0,
      "componentType": 5123,
      "count": 4959,
      "min": [
        0
      ],
      "max": [
        2098
      ],
      "type": "SCALAR"
    },
    {
      "bufferView": 1,
      "byteOffset": 0,
      "componentType": 5126,
      "count": 2099,
      "max": [
        -153.93214416503906,
        20,
        -705.3350219726562
      ],
      "min": [
        -830.6820068359375,
        0,
        -1298.203857421875
      ],
      "type": "VEC3"
    },
    {
      "bufferView": 2,
      "byteOffset": 0,
      "componentType": 5126,
      "count": 2099,
      "max": [
        1,
        1,
        1
      ],
      "min": [
        -1,
        -0.2873478829860687,
        -1
      ],
      "type": "VEC3"
    },
    {
      "bufferView": 3,
      "byteOffset": 0,
      "componentType": 5126,
      "count": 2099,
      "max": [
        0.999786376953125,
        0.7875181436538696,
        0.4480659067630768
      ],
      "min": [
        0.4480048716068268,
        0.00003051804378628731,
        0
      ],
      "type": "VEC3"
    }
  ],
  "buffers": [
    {
      "byteLength": 9918,
      "uri": "data:application/octet-stream;base64,"
    },
    {
      "byteLength": 25188,
      "uri": "data:application/octet-stream;base64,"
    },
    {
      "byteLength": 25188,
      "uri": "data:application/octet-stream;base64,"
    },
    {
      "byteLength": 25188,
      "uri": "data:application/octet-stream;base64,"
    }
  ],
  "bufferViews": [
    {
      "buffer": 0,
      "byteOffset": 0,
      "byteLength": 9918
    },
    {
      "buffer": 1,
      "byteOffset": 0,
      "byteLength": 25188
    },
    {
      "buffer": 2,
      "byteOffset": 0,
      "byteLength": 25188
    },
    {
      "buffer": 3,
      "byteOffset": 0,
      "byteLength": 25188
    }
  ],
  "meshes": [
    {
      "primitives": [
        {
          "mode": 4,
          "indices": 0,
          "attributes": {
            "POSITION": 1,
            "NORMAL": 2,
            "COLOR_0": 3
          }
        }
      ]
    }
  ],
  "nodes": [
    {
      "children": [
        1
      ]
    },
    {
      "mesh": 0
    }
  ],
  "scenes": [
    {
      "nodes": [
        0
      ]
    }
  ],
  "scene": 0
}