{
  "asset": {
    "version": "2.0",
    "generator": "COLLADA2GLTF"
  },
  "accessors": [
    {
      "bufferView": 0,
      "byteOffset": 0,
      "componentType": 5123,
      "count": 102,
      "min": [
        0
      ],
      "max": [
        44
      ],
      "type": "SCALAR"
    },
    {
      "bufferView": 1,
      "byteOffset": 0,
      "componentType": 5126,
      "count": 45,
      "max": [
        -2731.713134765625,
        0.06400000303983688,
        1487.835205078125
      ],
      "min": [
        -2734.33056640625,
        0,
        1485.4388427734375
      ],
      "type": "VEC3"
    },
    {
      "bufferView": 2,
      "byteOffset": 0,
      "componentType": 5126,
      "count": 45,
      "max": [
        0.830656886100769,
        1,
        0.5567846298217773
      ],
      "min": [
        -0.830656886100769,
        0,
        -0.830656886100769
      ],
      "type": "VEC3"
    },
    {
      "bufferView": 3,
      "byteOffset": 0,
      "componentType": 5126,
      "count": 45,
      "max": [
        0.07322804629802704,
        0.03309682011604309,
        0.03311207890510559
      ],
      "min": [
        0.07322804629802704,
        0.03309682011604309,
        0.03311207890510559
      ],
      "type": "VEC3"
    }
  ],
  "buffers": [
    {
      "byteLength": 204,
      "uri": "data:application/octet-stream;base64,"
    },
    {
      "byteLength": 540,
      "uri": "data:application/octet-stream;base64,"
    },
    {
      "byteLength": 540,
      "uri": "data:application/octet-stream;base64,"
    },
    {
      "byteLength": 540,
      "uri": "data:application/octet-stream;base64,"
    }
  ],
  "bufferViews": [
    {
      "buffer": 0,
      "byteOffset": 0,
      "byteLength": 204
    },
    {
      "buffer": 1,
      "byteOffset": 0,
      "byteLength": 540
    },
    {
      "buffer": 2,
      "byteOffset": 0,
      "byteLength": 540
    },
    {
      "buffer": 3,
      "byteOffset": 0,
      "byteLength": 540
    }
  ],
  "meshes": [
    {
      "primitives": [
        {
          "mode": 4,
          "indices": 0,
          "attributes": {
            "POSITION": 1,
            "NORMAL": 2,
            "COLOR_0": 3
          }
        }
      ]
    }
  ],
  "nodes": [
    {
      "children": [
        1
      ]
    },
    {
      "mesh": 0
    }
  ],
  "scenes": [
    {
      "nodes": [
        0
      ]
    }
  ],
  "scene": 0
}