{
  "asset": {
    "version": "2.0",
    "generator": "COLLADA2GLTF"
  },
  "accessors": [
    {
      "bufferView": 0,
      "byteOffset": 0,
      "componentType": 5123,
      "count": 1290,
      "min": [
        0
      ],
      "max": [
        664
      ],
      "type": "SCALAR"
    },
    {
      "bufferView": 1,
      "byteOffset": 0,
      "componentType": 5126,
      "count": 665,
      "max": [
        536.4639892578125,
        7.5,
        526.4769897460938
      ],
      "min": [
        432.2409973144531,
        0,
        342.7489929199219
      ],
      "type": "VEC3"
    },
    {
      "bufferView": 2,
      "byteOffset": 0,
      "componentType": 5126,
      "count": 665,
      "max": [
        1,
        1,
        1
      ],
      "min": [
        -1,
        -1,
        -1
      ],
      "type": "VEC3"
    },
    {
      "bufferView": 3,
      "byteOffset": 0,
      "componentType": 5126,
      "count": 665,
      "max": [
        0.999786376953125,
        0.7875181436538696,
        0.5776455402374268
      ],
      "min": [
        0.5774929523468018,
        0.5776150226593018,
        0.003997863736003637
      ],
      "type": "VEC3"
    }
  ],
  "buffers": [
    {
      "byteLength": 2580,
      "uri": "data:application/octet-stream;base64,"
    },
    {
      "byteLength": 7980,
      "uri": "data:application/octet-stream;base64,"
    },
    {
      "byteLength": 7980,
      "uri": "data:application/octet-stream;base64,"
    },
    {
      "byteLength": 7980,
      "uri": "data:application/octet-stream;base64,"
    }
  ],
  "bufferViews": [
    {
      "buffer": 0,
      "byteOffset": 0,
      "byteLength": 2580
    },
    {
      "buffer": 1,
      "byteOffset": 0,
      "byteLength": 7980
    },
    {
      "buffer": 2,
      "byteOffset": 0,
      "byteLength": 7980
    },
    {
      "buffer": 3,
      "byteOffset": 0,
      "byteLength": 7980
    }
  ],
  "meshes": [
    {
      "primitives": [
        {
          "mode": 4,
          "indices": 0,
          "attributes": {
            "POSITION": 1,
            "NORMAL": 2,
            "COLOR_0": 3
          }
        }
      ]
    }
  ],
  "nodes": [
    {
      "children": [
        1
      ]
    },
    {
      "mesh": 0
    }
  ],
  "scenes": [
    {
      "nodes": [
        0
      ]
    }
  ],
  "scene": 0
}