{
  "asset": {
    "version": "2.0",
    "generator": "COLLADA2GLTF"
  },
  "accessors": [
    {
      "bufferView": 0,
      "byteOffset": 0,
      "componentType": 5123,
      "count": 3171,
      "min": [
        0
      ],
      "max": [
        1328
      ],
      "type": "SCALAR"
    },
    {
      "bufferView": 1,
      "byteOffset": 0,
      "componentType": 5126,
      "count": 1329,
      "max": [
        2490,
        0.0010000000474974513,
        840
      ],
      "min": [
        1890.36279296875,
        0,
        240
      ],
      "type": "VEC3"
    },
    {
      "bufferView": 2,
      "byteOffset": 0,
      "componentType": 5126,
      "count": 1329,
      "max": [
        0.9995986223220825,
        1,
        0.7739261984825134
      ],
      "min": [
        -0.8647223711013794,
        0,
        -0.8650251030921936
      ],
      "type": "VEC3"
    },
    {
      "bufferView": 3,
      "byteOffset": 0,
      "componentType": 5126,
      "count": 1329,
      "max": [
        0.999786376953125,
        1,
        0.26330968737602234
      ],
      "min": [
        0.000015259021893143654,
        0.000015259021893143654,
        0
      ],
      "type": "VEC3"
    }
  ],
  "buffers": [
    {
      "byteLength": 6342,
      "uri": "data:application/octet-stream;base64,"
    },
    {
      "byteLength": 15948,
      "uri": "data:application/octet-stream;base64,"
    },
    {
      "byteLength": 15948,
      "uri": "data:application/octet-stream;base64,"
    },
    {
      "byteLength": 15948,
      "uri": "data:application/octet-stream;base64,"
    }
  ],
  "bufferViews": [
    {
      "buffer": 0,
      "byteOffset": 0,
      "byteLength": 6342
    },
    {
      "buffer": 1,
      "byteOffset": 0,
      "byteLength": 15948
    },
    {
      "buffer": 2,
      "byteOffset": 0,
      "byteLength": 15948
    },
    {
      "buffer": 3,
      "byteOffset": 0,
      "byteLength": 15948
    }
  ],
  "meshes": [
    {
      "primitives": [
        {
          "mode": 4,
          "indices": 0,
          "attributes": {
            "POSITION": 1,
            "NORMAL": 2,
            "COLOR_0": 3
          }
        }
      ]
    }
  ],
  "nodes": [
    {
      "children": [
        1
      ]
    },
    {
      "mesh": 0
    }
  ],
  "scenes": [
    {
      "nodes": [
        0
      ]
    }
  ],
  "scene": 0
}