{
  "asset": {
    "version": "2.0",
    "generator": "COLLADA2GLTF"
  },
  "accessors": [
    {
      "bufferView": 0,
      "byteOffset": 0,
      "componentType": 5123,
      "count": 348,
      "min": [
        0
      ],
      "max": [
        202
      ],
      "type": "SCALAR"
    },
    {
      "bufferView": 1,
      "byteOffset": 0,
      "componentType": 5126,
      "count": 203,
      "max": [
        1.416147232055664,
        0,
        180
      ],
      "min": [
        -165.4128875732422,
        0,
        -59.9328727722168
      ],
      "type": "VEC3"
    },
    {
      "bufferView": 2,
      "byteOffset": 0,
      "componentType": 5126,
      "count": 203,
      "max": [
        0.82515549659729,
        1,
        0.8197725415229797
      ],
      "min": [
        -0.8196271061897278,
        0,
        -0.5649056434631348
      ],
      "type": "VEC3"
    },
    {
      "bufferView": 3,
      "byteOffset": 0,
      "componentType": 5126,
      "count": 203,
      "max": [
        0.999786376953125,
        1,
        0.26330968737602234
      ],
      "min": [
        0,
        0.07324330508708954,
        0.000015259021893143654
      ],
      "type": "VEC3"
    }
  ],
  "buffers": [
    {
      "byteLength": 696,
      "uri": "data:application/octet-stream;base64,"
    },
    {
      "byteLength": 2436,
      "uri": "data:application/octet-stream;base64,"
    },
    {
      "byteLength": 2436,
      "uri": "data:application/octet-stream;base64,"
    },
    {
      "byteLength": 2436,
      "uri": "data:application/octet-stream;base64,"
    }
  ],
  "bufferViews": [
    {
      "buffer": 0,
      "byteOffset": 0,
      "byteLength": 696
    },
    {
      "buffer": 1,
      "byteOffset": 0,
      "byteLength": 2436
    },
    {
      "buffer": 2,
      "byteOffset": 0,
      "byteLength": 2436
    },
    {
      "buffer": 3,
      "byteOffset": 0,
      "byteLength": 2436
    }
  ],
  "meshes": [
    {
      "primitives": [
        {
          "mode": 4,
          "indices": 0,
          "attributes": {
            "POSITION": 1,
            "NORMAL": 2,
            "COLOR_0": 3
          }
        }
      ]
    }
  ],
  "nodes": [
    {
      "children": [
        1
      ]
    },
    {
      "mesh": 0
    }
  ],
  "scenes": [
    {
      "nodes": [
        0
      ]
    }
  ],
  "scene": 0
}