{
  "asset": {
    "version": "2.0",
    "generator": "COLLADA2GLTF"
  },
  "accessors": [
    {
      "bufferView": 0,
      "byteOffset": 0,
      "componentType": 5123,
      "count": 1416,
      "min": [
        0
      ],
      "max": [
        689
      ],
      "type": "SCALAR"
    },
    {
      "bufferView": 1,
      "byteOffset": 0,
      "componentType": 5126,
      "count": 690,
      "max": [
        -2228.983642578125,
        19.5,
        3532.324951171875
      ],
      "min": [
        -2323.220458984375,
        14.5,
        3264.828857421875
      ],
      "type": "VEC3"
    },
    {
      "bufferView": 2,
      "byteOffset": 0,
      "componentType": 5126,
      "count": 690,
      "max": [
        0.9949235320091248,
        0.7070313692092896,
        0.9949235320091248
      ],
      "min": [
        -0.9949235320091248,
        -0.7070273160934448,
        -0.9949235320091248
      ],
      "type": "VEC3"
    },
    {
      "bufferView": 3,
      "byteOffset": 0,
      "componentType": 5126,
      "count": 690,
      "max": [
        0.4480048716068268,
        0.4480048716068268,
        0.4480659067630768
      ],
      "min": [
        0,
        0,
        0
      ],
      "type": "VEC3"
    }
  ],
  "buffers": [
    {
      "byteLength": 2832,
      "uri": "data:application/octet-stream;base64,"
    },
    {
      "byteLength": 8280,
      "uri": "data:application/octet-stream;base64,"
    },
    {
      "byteLength": 8280,
      "uri": "data:application/octet-stream;base64,"
    },
    {
      "byteLength": 8280,
      "uri": "data:application/octet-stream;base64,"
    }
  ],
  "bufferViews": [
    {
      "buffer": 0,
      "byteOffset": 0,
      "byteLength": 2832
    },
    {
      "buffer": 1,
      "byteOffset": 0,
      "byteLength": 8280
    },
    {
      "buffer": 2,
      "byteOffset": 0,
      "byteLength": 8280
    },
    {
      "buffer": 3,
      "byteOffset": 0,
      "byteLength": 8280
    }
  ],
  "meshes": [
    {
      "primitives": [
        {
          "mode": 4,
          "indices": 0,
          "attributes": {
            "POSITION": 1,
            "NORMAL": 2,
            "COLOR_0": 3
          }
        }
      ]
    }
  ],
  "nodes": [
    {
      "children": [
        1
      ]
    },
    {
      "mesh": 0
    }
  ],
  "scenes": [
    {
      "nodes": [
        0
      ]
    }
  ],
  "scene": 0
}