{
  "asset": {
    "version": "2.0",
    "generator": "COLLADA2GLTF"
  },
  "accessors": [
    {
      "bufferView": 0,
      "byteOffset": 0,
      "componentType": 5123,
      "count": 4437,
      "min": [
        0
      ],
      "max": [
        1487
      ],
      "type": "SCALAR"
    },
    {
      "bufferView": 1,
      "byteOffset": 0,
      "componentType": 5126,
      "count": 1488,
      "max": [
        1280.786376953125,
        0.06400000303983688,
        3035.358154296875
      ],
      "min": [
        1239.651123046875,
        0,
        3019.593017578125
      ],
      "type": "VEC3"
    },
    {
      "bufferView": 2,
      "byteOffset": 0,
      "componentType": 5126,
      "count": 1488,
      "max": [
        0.9474396705627441,
        1,
        0.9474396705627441
      ],
      "min": [
        -0.9474396705627441,
        0,
        -0.9474396705627441
      ],
      "type": "VEC3"
    },
    {
      "bufferView": 3,
      "byteOffset": 0,
      "componentType": 5126,
      "count": 1488,
      "max": [
        0.07322804629802704,
        0.03309682011604309,
        0.03311207890510559
      ],
      "min": [
        0.07322804629802704,
        0.03309682011604309,
        0.03311207890510559
      ],
      "type": "VEC3"
    }
  ],
  "buffers": [
    {
      "byteLength": 8874,
      "uri": "data:application/octet-stream;base64,"
    },
    {
      "byteLength": 17856,
      "uri": "data:application/octet-stream;base64,"
    },
    {
      "byteLength": 17856,
      "uri": "data:application/octet-stream;base64,"
    },
    {
      "byteLength": 17856,
      "uri": "data:application/octet-stream;base64,"
    }
  ],
  "bufferViews": [
    {
      "buffer": 0,
      "byteOffset": 0,
      "byteLength": 8874
    },
    {
      "buffer": 1,
      "byteOffset": 0,
      "byteLength": 17856
    },
    {
      "buffer": 2,
      "byteOffset": 0,
      "byteLength": 17856
    },
    {
      "buffer": 3,
      "byteOffset": 0,
      "byteLength": 17856
    }
  ],
  "meshes": [
    {
      "primitives": [
        {
          "mode": 4,
          "indices": 0,
          "attributes": {
            "POSITION": 1,
            "NORMAL": 2,
            "COLOR_0": 3
          }
        }
      ]
    }
  ],
  "nodes": [
    {
      "children": [
        1
      ]
    },
    {
      "mesh": 0
    }
  ],
  "scenes": [
    {
      "nodes": [
        0
      ]
    }
  ],
  "scene": 0
}