{
  "asset": {
    "version": "2.0",
    "generator": "COLLADA2GLTF"
  },
  "accessors": [
    {
      "bufferView": 0,
      "byteOffset": 0,
      "componentType": 5123,
      "count": 3378,
      "min": [
        0
      ],
      "max": [
        1385
      ],
      "type": "SCALAR"
    },
    {
      "bufferView": 1,
      "byteOffset": 0,
      "componentType": 5126,
      "count": 1386,
      "max": [
        636.3963012695312,
        0,
        1740
      ],
      "min": [
        90,
        0,
        1182.7916259765625
      ],
      "type": "VEC3"
    },
    {
      "bufferView": 2,
      "byteOffset": 0,
      "componentType": 5126,
      "count": 1386,
      "max": [
        0.9987906217575073,
        1,
        0.9988048672676086
      ],
      "min": [
        -0.9988635778427124,
        0,
        -0.9988266229629517
      ],
      "type": "VEC3"
    },
    {
      "bufferView": 3,
      "byteOffset": 0,
      "componentType": 5126,
      "count": 1386,
      "max": [
        0.999786376953125,
        1,
        1
      ],
      "min": [
        0,
        0.00003051804378628731,
        0.00004577706567943096
      ],
      "type": "VEC3"
    }
  ],
  "buffers": [
    {
      "byteLength": 6756,
      "uri": "data:application/octet-stream;base64,"
    },
    {
      "byteLength": 16632,
      "uri": "data:application/octet-stream;base64,"
    },
    {
      "byteLength": 16632,
      "uri": "data:application/octet-stream;base64,"
    },
    {
      "byteLength": 16632,
      "uri": "data:application/octet-stream;base64,"
    }
  ],
  "bufferViews": [
    {
      "buffer": 0,
      "byteOffset": 0,
      "byteLength": 6756
    },
    {
      "buffer": 1,
      "byteOffset": 0,
      "byteLength": 16632
    },
    {
      "buffer": 2,
      "byteOffset": 0,
      "byteLength": 16632
    },
    {
      "buffer": 3,
      "byteOffset": 0,
      "byteLength": 16632
    }
  ],
  "meshes": [
    {
      "primitives": [
        {
          "mode": 4,
          "indices": 0,
          "attributes": {
            "POSITION": 1,
            "NORMAL": 2,
            "COLOR_0": 3
          }
        }
      ]
    }
  ],
  "nodes": [
    {
      "children": [
        1
      ]
    },
    {
      "mesh": 0
    }
  ],
  "scenes": [
    {
      "nodes": [
        0
      ]
    }
  ],
  "scene": 0
}