{
  "asset": {
    "version": "2.0",
    "generator": "COLLADA2GLTF"
  },
  "accessors": [
    {
      "bufferView": 0,
      "byteOffset": 0,
      "componentType": 5123,
      "count": 1014,
      "min": [
        0
      ],
      "max": [
        845
      ],
      "type": "SCALAR"
    },
    {
      "bufferView": 1,
      "byteOffset": 0,
      "componentType": 5126,
      "count": 846,
      "max": [
        -2723.2822265625,
        30,
        1295.36376953125
      ],
      "min": [
        -2989.57177734375,
        0,
        1012.0410766601562
      ],
      "type": "VEC3"
    },
    {
      "bufferView": 2,
      "byteOffset": 0,
      "componentType": 5126,
      "count": 846,
      "max": [
        0.8472545146942139,
        0,
        0.9965099692344666
      ],
      "min": [
        -0.9999632239341736,
        0,
        -0.898339033126831
      ],
      "type": "VEC3"
    },
    {
      "bufferView": 3,
      "byteOffset": 0,
      "componentType": 5126,
      "count": 846,
      "max": [
        0.999786376953125,
        0.7875181436538696,
        0.26330968737602234
      ],
      "min": [
        0.999786376953125,
        0.7875181436538696,
        0.26330968737602234
      ],
      "type": "VEC3"
    }
  ],
  "buffers": [
    {
      "byteLength": 2028,
      "uri": "data:application/octet-stream;base64,"
    },
    {
      "byteLength": 10152,
      "uri": "data:application/octet-stream;base64,"
    },
    {
      "byteLength": 10152,
      "uri": "data:application/octet-stream;base64,"
    },
    {
      "byteLength": 10152,
      "uri": "data:application/octet-stream;base64,"
    }
  ],
  "bufferViews": [
    {
      "buffer": 0,
      "byteOffset": 0,
      "byteLength": 2028
    },
    {
      "buffer": 1,
      "byteOffset": 0,
      "byteLength": 10152
    },
    {
      "buffer": 2,
      "byteOffset": 0,
      "byteLength": 10152
    },
    {
      "buffer": 3,
      "byteOffset": 0,
      "byteLength": 10152
    }
  ],
  "meshes": [
    {
      "primitives": [
        {
          "mode": 4,
          "indices": 0,
          "attributes": {
            "POSITION": 1,
            "NORMAL": 2,
            "COLOR_0": 3
          }
        }
      ]
    }
  ],
  "nodes": [
    {
      "children": [
        1
      ]
    },
    {
      "mesh": 0
    }
  ],
  "scenes": [
    {
      "nodes": [
        0
      ]
    }
  ],
  "scene": 0
}