{
  "asset": {
    "version": "2.0",
    "generator": "COLLADA2GLTF"
  },
  "accessors": [
    {
      "bufferView": 0,
      "byteOffset": 0,
      "componentType": 5123,
      "count": 183,
      "min": [
        0
      ],
      "max": [
        72
      ],
      "type": "SCALAR"
    },
    {
      "bufferView": 1,
      "byteOffset": 0,
      "componentType": 5126,
      "count": 73,
      "max": [
        875.8923950195312,
        0,
        28.947118759155273
      ],
      "min": [
        778.9688110351562,
        -3,
        -17.19289779663086
      ],
      "type": "VEC3"
    },
    {
      "bufferView": 2,
      "byteOffset": 0,
      "componentType": 5126,
      "count": 73,
      "max": [
        0.9810542464256287,
        1,
        0.9813750982284546
      ],
      "min": [
        -0.9810542464256287,
        -1,
        -0.9810542464256287
      ],
      "type": "VEC3"
    },
    {
      "bufferView": 3,
      "byteOffset": 0,
      "componentType": 5126,
      "count": 73,
      "max": [
        0.21585412323474884,
        0.21585412323474884,
        0.21589989960193634
      ],
      "min": [
        0.21585412323474884,
        0.21585412323474884,
        0.21589989960193634
      ],
      "type": "VEC3"
    }
  ],
  "buffers": [
    {
      "byteLength": 366,
      "uri": "data:application/octet-stream;base64,"
    },
    {
      "byteLength": 876,
      "uri": "data:application/octet-stream;base64,"
    },
    {
      "byteLength": 876,
      "uri": "data:application/octet-stream;base64,"
    },
    {
      "byteLength": 876,
      "uri": "data:application/octet-stream;base64,"
    }
  ],
  "bufferViews": [
    {
      "buffer": 0,
      "byteOffset": 0,
      "byteLength": 366
    },
    {
      "buffer": 1,
      "byteOffset": 0,
      "byteLength": 876
    },
    {
      "buffer": 2,
      "byteOffset": 0,
      "byteLength": 876
    },
    {
      "buffer": 3,
      "byteOffset": 0,
      "byteLength": 876
    }
  ],
  "meshes": [
    {
      "primitives": [
        {
          "mode": 4,
          "indices": 0,
          "attributes": {
            "POSITION": 1,
            "NORMAL": 2,
            "COLOR_0": 3
          }
        }
      ]
    }
  ],
  "nodes": [
    {
      "children": [
        1
      ]
    },
    {
      "mesh": 0
    }
  ],
  "scenes": [
    {
      "nodes": [
        0
      ]
    }
  ],
  "scene": 0
}