{
  "asset": {
    "version": "2.0",
    "generator": "COLLADA2GLTF"
  },
  "accessors": [
    {
      "bufferView": 0,
      "byteOffset": 0,
      "componentType": 5123,
      "count": 5253,
      "min": [
        0
      ],
      "max": [
        1938
      ],
      "type": "SCALAR"
    },
    {
      "bufferView": 1,
      "byteOffset": 0,
      "componentType": 5126,
      "count": 1939,
      "max": [
        -270,
        2.299999952316284,
        281.1722717285156
      ],
      "min": [
        -391.5581359863281,
        -0.20000000298023224,
        150
      ],
      "type": "VEC3"
    },
    {
      "bufferView": 2,
      "byteOffset": 0,
      "componentType": 5126,
      "count": 1939,
      "max": [
        0.9898214340209961,
        1,
        1
      ],
      "min": [
        -0.9898214340209961,
        -1,
        -0.9594929814338684
      ],
      "type": "VEC3"
    },
    {
      "bufferView": 3,
      "byteOffset": 0,
      "componentType": 5126,
      "count": 1939,
      "max": [
        0.7872740030288696,
        1,
        0.7875028848648071
      ],
      "min": [
        0.000015259021893143654,
        0.07324330508708954,
        0.00004577706567943096
      ],
      "type": "VEC3"
    }
  ],
  "buffers": [
    {
      "byteLength": 10506,
      "uri": "data:application/octet-stream;base64,"
    },
    {
      "byteLength": 23268,
      "uri": "data:application/octet-stream;base64,"
    },
    {
      "byteLength": 23268,
      "uri": "data:application/octet-stream;base64,"
    },
    {
      "byteLength": 23268,
      "uri": "data:application/octet-stream;base64,"
    }
  ],
  "bufferViews": [
    {
      "buffer": 0,
      "byteOffset": 0,
      "byteLength": 10506
    },
    {
      "buffer": 1,
      "byteOffset": 0,
      "byteLength": 23268
    },
    {
      "buffer": 2,
      "byteOffset": 0,
      "byteLength": 23268
    },
    {
      "buffer": 3,
      "byteOffset": 0,
      "byteLength": 23268
    }
  ],
  "meshes": [
    {
      "primitives": [
        {
          "mode": 4,
          "indices": 0,
          "attributes": {
            "POSITION": 1,
            "NORMAL": 2,
            "COLOR_0": 3
          }
        }
      ]
    }
  ],
  "nodes": [
    {
      "children": [
        1
      ]
    },
    {
      "mesh": 0
    }
  ],
  "scenes": [
    {
      "nodes": [
        0
      ]
    }
  ],
  "scene": 0
}