{
  "asset": {
    "version": "2.0",
    "generator": "COLLADA2GLTF"
  },
  "accessors": [
    {
      "bufferView": 0,
      "byteOffset": 0,
      "componentType": 5123,
      "count": 777,
      "min": [
        0
      ],
      "max": [
        339
      ],
      "type": "SCALAR"
    },
    {
      "bufferView": 1,
      "byteOffset": 0,
      "componentType": 5126,
      "count": 340,
      "max": [
        -10356.82421875,
        14.5,
        -2706.094970703125
      ],
      "min": [
        -10567.6171875,
        9.28499984741211,
        -2783.153076171875
      ],
      "type": "VEC3"
    },
    {
      "bufferView": 2,
      "byteOffset": 0,
      "componentType": 5126,
      "count": 340,
      "max": [
        0.9416227340698242,
        0.70662522315979,
        0.9416227340698242
      ],
      "min": [
        -0.9416227340698242,
        -0.7061638832092285,
        -0.9416227340698242
      ],
      "type": "VEC3"
    },
    {
      "bufferView": 3,
      "byteOffset": 0,
      "componentType": 5126,
      "count": 340,
      "max": [
        0.4480048716068268,
        0.4480048716068268,
        0.4480659067630768
      ],
      "min": [
        0,
        0,
        0
      ],
      "type": "VEC3"
    }
  ],
  "buffers": [
    {
      "byteLength": 1554,
      "uri": "data:application/octet-stream;base64,"
    },
    {
      "byteLength": 4080,
      "uri": "data:application/octet-stream;base64,"
    },
    {
      "byteLength": 4080,
      "uri": "data:application/octet-stream;base64,"
    },
    {
      "byteLength": 4080,
      "uri": "data:application/octet-stream;base64,"
    }
  ],
  "bufferViews": [
    {
      "buffer": 0,
      "byteOffset": 0,
      "byteLength": 1554
    },
    {
      "buffer": 1,
      "byteOffset": 0,
      "byteLength": 4080
    },
    {
      "buffer": 2,
      "byteOffset": 0,
      "byteLength": 4080
    },
    {
      "buffer": 3,
      "byteOffset": 0,
      "byteLength": 4080
    }
  ],
  "meshes": [
    {
      "primitives": [
        {
          "mode": 4,
          "indices": 0,
          "attributes": {
            "POSITION": 1,
            "NORMAL": 2,
            "COLOR_0": 3
          }
        }
      ]
    }
  ],
  "nodes": [
    {
      "children": [
        1
      ]
    },
    {
      "mesh": 0
    }
  ],
  "scenes": [
    {
      "nodes": [
        0
      ]
    }
  ],
  "scene": 0
}