{
  "asset": {
    "version": "2.0",
    "generator": "COLLADA2GLTF"
  },
  "accessors": [
    {
      "bufferView": 0,
      "byteOffset": 0,
      "componentType": 5123,
      "count": 1536,
      "min": [
        0
      ],
      "max": [
        1261
      ],
      "type": "SCALAR"
    },
    {
      "bufferView": 1,
      "byteOffset": 0,
      "componentType": 5126,
      "count": 1262,
      "max": [
        -1416.39794921875,
        80,
        255.25482177734375
      ],
      "min": [
        -1717.8310546875,
        0,
        -406.2325744628906
      ],
      "type": "VEC3"
    },
    {
      "bufferView": 2,
      "byteOffset": 0,
      "componentType": 5126,
      "count": 1262,
      "max": [
        0.8286949992179871,
        1,
        0.8285409808158875
      ],
      "min": [
        -0.8176272511482239,
        0,
        -0.8290208578109741
      ],
      "type": "VEC3"
    },
    {
      "bufferView": 3,
      "byteOffset": 0,
      "componentType": 5126,
      "count": 1262,
      "max": [
        0.999786376953125,
        0.7875181436538696,
        0.26330968737602234
      ],
      "min": [
        0.6036774516105652,
        0.00003051804378628731,
        0
      ],
      "type": "VEC3"
    }
  ],
  "buffers": [
    {
      "byteLength": 3072,
      "uri": "data:application/octet-stream;base64,"
    },
    {
      "byteLength": 15144,
      "uri": "data:application/octet-stream;base64,"
    },
    {
      "byteLength": 15144,
      "uri": "data:application/octet-stream;base64,"
    },
    {
      "byteLength": 15144,
      "uri": "data:application/octet-stream;base64,"
    }
  ],
  "bufferViews": [
    {
      "buffer": 0,
      "byteOffset": 0,
      "byteLength": 3072
    },
    {
      "buffer": 1,
      "byteOffset": 0,
      "byteLength": 15144
    },
    {
      "buffer": 2,
      "byteOffset": 0,
      "byteLength": 15144
    },
    {
      "buffer": 3,
      "byteOffset": 0,
      "byteLength": 15144
    }
  ],
  "meshes": [
    {
      "primitives": [
        {
          "mode": 4,
          "indices": 0,
          "attributes": {
            "POSITION": 1,
            "NORMAL": 2,
            "COLOR_0": 3
          }
        }
      ]
    }
  ],
  "nodes": [
    {
      "children": [
        1
      ]
    },
    {
      "mesh": 0
    }
  ],
  "scenes": [
    {
      "nodes": [
        0
      ]
    }
  ],
  "scene": 0
}