{
  "asset": {
    "version": "2.0",
    "generator": "COLLADA2GLTF"
  },
  "accessors": [
    {
      "bufferView": 0,
      "byteOffset": 0,
      "componentType": 5123,
      "count": 2241,
      "min": [
        0
      ],
      "max": [
        889
      ],
      "type": "SCALAR"
    },
    {
      "bufferView": 1,
      "byteOffset": 0,
      "componentType": 5126,
      "count": 890,
      "max": [
        -2183.1650390625,
        0.0010000000474974513,
        351.51983642578125
      ],
      "min": [
        -2499.779541015625,
        0,
        0
      ],
      "type": "VEC3"
    },
    {
      "bufferView": 2,
      "byteOffset": 0,
      "componentType": 5126,
      "count": 890,
      "max": [
        0.8428581357002258,
        1,
        0.8481022119522095
      ],
      "min": [
        -0.529832661151886,
        0,
        0
      ],
      "type": "VEC3"
    },
    {
      "bufferView": 3,
      "byteOffset": 0,
      "componentType": 5126,
      "count": 890,
      "max": [
        0.999786376953125,
        1,
        0.7875028848648071
      ],
      "min": [
        0.000015259021893143654,
        0.07324330508708954,
        0.00004577706567943096
      ],
      "type": "VEC3"
    }
  ],
  "buffers": [
    {
      "byteLength": 4482,
      "uri": "data:application/octet-stream;base64,"
    },
    {
      "byteLength": 10680,
      "uri": "data:application/octet-stream;base64,"
    },
    {
      "byteLength": 10680,
      "uri": "data:application/octet-stream;base64,"
    },
    {
      "byteLength": 10680,
      "uri": "data:application/octet-stream;base64,"
    }
  ],
  "bufferViews": [
    {
      "buffer": 0,
      "byteOffset": 0,
      "byteLength": 4482
    },
    {
      "buffer": 1,
      "byteOffset": 0,
      "byteLength": 10680
    },
    {
      "buffer": 2,
      "byteOffset": 0,
      "byteLength": 10680
    },
    {
      "buffer": 3,
      "byteOffset": 0,
      "byteLength": 10680
    }
  ],
  "meshes": [
    {
      "primitives": [
        {
          "mode": 4,
          "indices": 0,
          "attributes": {
            "POSITION": 1,
            "NORMAL": 2,
            "COLOR_0": 3
          }
        }
      ]
    }
  ],
  "nodes": [
    {
      "children": [
        1
      ]
    },
    {
      "mesh": 0
    }
  ],
  "scenes": [
    {
      "nodes": [
        0
      ]
    }
  ],
  "scene": 0
}