{
  "asset": {
    "version": "2.0",
    "generator": "COLLADA2GLTF"
  },
  "accessors": [
    {
      "bufferView": 0,
      "byteOffset": 0,
      "componentType": 5123,
      "count": 696,
      "min": [
        0
      ],
      "max": [
        347
      ],
      "type": "SCALAR"
    },
    {
      "bufferView": 1,
      "byteOffset": 0,
      "componentType": 5126,
      "count": 348,
      "max": [
        1499.675048828125,
        7.5,
        30
      ],
      "min": [
        1230,
        0,
        -283.0002136230469
      ],
      "type": "VEC3"
    },
    {
      "bufferView": 2,
      "byteOffset": 0,
      "componentType": 5126,
      "count": 348,
      "max": [
        0.9772047996520996,
        1,
        0.9755602478981018
      ],
      "min": [
        -0.9755772948265076,
        0,
        -0.9736369848251343
      ],
      "type": "VEC3"
    },
    {
      "bufferView": 3,
      "byteOffset": 0,
      "componentType": 5126,
      "count": 348,
      "max": [
        0.999786376953125,
        1,
        0.26330968737602234
      ],
      "min": [
        0.000015259021893143654,
        0.07324330508708954,
        0.00004577706567943096
      ],
      "type": "VEC3"
    }
  ],
  "buffers": [
    {
      "byteLength": 1392,
      "uri": "data:application/octet-stream;base64,"
    },
    {
      "byteLength": 4176,
      "uri": "data:application/octet-stream;base64,"
    },
    {
      "byteLength": 4176,
      "uri": "data:application/octet-stream;base64,"
    },
    {
      "byteLength": 4176,
      "uri": "data:application/octet-stream;base64,"
    }
  ],
  "bufferViews": [
    {
      "buffer": 0,
      "byteOffset": 0,
      "byteLength": 1392
    },
    {
      "buffer": 1,
      "byteOffset": 0,
      "byteLength": 4176
    },
    {
      "buffer": 2,
      "byteOffset": 0,
      "byteLength": 4176
    },
    {
      "buffer": 3,
      "byteOffset": 0,
      "byteLength": 4176
    }
  ],
  "meshes": [
    {
      "primitives": [
        {
          "mode": 4,
          "indices": 0,
          "attributes": {
            "POSITION": 1,
            "NORMAL": 2,
            "COLOR_0": 3
          }
        }
      ]
    }
  ],
  "nodes": [
    {
      "children": [
        1
      ]
    },
    {
      "mesh": 0
    }
  ],
  "scenes": [
    {
      "nodes": [
        0
      ]
    }
  ],
  "scene": 0
}