{
  "asset": {
    "version": "2.0",
    "generator": "COLLADA2GLTF"
  },
  "accessors": [
    {
      "bufferView": 0,
      "byteOffset": 0,
      "componentType": 5123,
      "count": 1197,
      "min": [
        0
      ],
      "max": [
        560
      ],
      "type": "SCALAR"
    },
    {
      "bufferView": 1,
      "byteOffset": 0,
      "componentType": 5126,
      "count": 561,
      "max": [
        5288.7421875,
        37.025001525878906,
        8131.6884765625
      ],
      "min": [
        4208.4658203125,
        17,
        7273.17919921875
      ],
      "type": "VEC3"
    },
    {
      "bufferView": 2,
      "byteOffset": 0,
      "componentType": 5126,
      "count": 561,
      "max": [
        0.7905337810516357,
        0.7067350745201111,
        0.7905337810516357
      ],
      "min": [
        -0.7905337810516357,
        -0.7067350745201111,
        -0.7905337810516357
      ],
      "type": "VEC3"
    },
    {
      "bufferView": 3,
      "byteOffset": 0,
      "componentType": 5126,
      "count": 561,
      "max": [
        0.4480048716068268,
        0.4480048716068268,
        0.4480659067630768
      ],
      "min": [
        0,
        0,
        0
      ],
      "type": "VEC3"
    }
  ],
  "buffers": [
    {
      "byteLength": 2394,
      "uri": "data:application/octet-stream;base64,"
    },
    {
      "byteLength": 6732,
      "uri": "data:application/octet-stream;base64,"
    },
    {
      "byteLength": 6732,
      "uri": "data:application/octet-stream;base64,"
    },
    {
      "byteLength": 6732,
      "uri": "data:application/octet-stream;base64,"
    }
  ],
  "bufferViews": [
    {
      "buffer": 0,
      "byteOffset": 0,
      "byteLength": 2394
    },
    {
      "buffer": 1,
      "byteOffset": 0,
      "byteLength": 6732
    },
    {
      "buffer": 2,
      "byteOffset": 0,
      "byteLength": 6732
    },
    {
      "buffer": 3,
      "byteOffset": 0,
      "byteLength": 6732
    }
  ],
  "meshes": [
    {
      "primitives": [
        {
          "mode": 4,
          "indices": 0,
          "attributes": {
            "POSITION": 1,
            "NORMAL": 2,
            "COLOR_0": 3
          }
        }
      ]
    }
  ],
  "nodes": [
    {
      "children": [
        1
      ]
    },
    {
      "mesh": 0
    }
  ],
  "scenes": [
    {
      "nodes": [
        0
      ]
    }
  ],
  "scene": 0
}