{
  "asset": {
    "version": "2.0",
    "generator": "COLLADA2GLTF"
  },
  "accessors": [
    {
      "bufferView": 0,
      "byteOffset": 0,
      "componentType": 5123,
      "count": 4623,
      "min": [
        0
      ],
      "max": [
        3861
      ],
      "type": "SCALAR"
    },
    {
      "bufferView": 1,
      "byteOffset": 0,
      "componentType": 5126,
      "count": 3862,
      "max": [
        426.5119934082031,
        7.5,
        -287.7300109863281
      ],
      "min": [
        157.56300354003906,
        0,
        -519.7919921875
      ],
      "type": "VEC3"
    },
    {
      "bufferView": 2,
      "byteOffset": 0,
      "componentType": 5126,
      "count": 3862,
      "max": [
        1,
        0,
        1
      ],
      "min": [
        -1,
        0,
        -1
      ],
      "type": "VEC3"
    },
    {
      "bufferView": 3,
      "byteOffset": 0,
      "componentType": 5126,
      "count": 3862,
      "max": [
        0.999786376953125,
        0.7875181436538696,
        0.26330968737602234
      ],
      "min": [
        0.999786376953125,
        0.7875181436538696,
        0.26330968737602234
      ],
      "type": "VEC3"
    }
  ],
  "buffers": [
    {
      "byteLength": 9246,
      "uri": "data:application/octet-stream;base64,"
    },
    {
      "byteLength": 46344,
      "uri": "data:application/octet-stream;base64,"
    },
    {
      "byteLength": 46344,
      "uri": "data:application/octet-stream;base64,"
    },
    {
      "byteLength": 46344,
      "uri": "data:application/octet-stream;base64,"
    }
  ],
  "bufferViews": [
    {
      "buffer": 0,
      "byteOffset": 0,
      "byteLength": 9246
    },
    {
      "buffer": 1,
      "byteOffset": 0,
      "byteLength": 46344
    },
    {
      "buffer": 2,
      "byteOffset": 0,
      "byteLength": 46344
    },
    {
      "buffer": 3,
      "byteOffset": 0,
      "byteLength": 46344
    }
  ],
  "meshes": [
    {
      "primitives": [
        {
          "mode": 4,
          "indices": 0,
          "attributes": {
            "POSITION": 1,
            "NORMAL": 2,
            "COLOR_0": 3
          }
        }
      ]
    }
  ],
  "nodes": [
    {
      "children": [
        1
      ]
    },
    {
      "mesh": 0
    }
  ],
  "scenes": [
    {
      "nodes": [
        0
      ]
    }
  ],
  "scene": 0
}