{
  "asset": {
    "version": "2.0",
    "generator": "COLLADA2GLTF"
  },
  "accessors": [
    {
      "bufferView": 0,
      "byteOffset": 0,
      "componentType": 5123,
      "count": 1818,
      "min": [
        0
      ],
      "max": [
        751
      ],
      "type": "SCALAR"
    },
    {
      "bufferView": 1,
      "byteOffset": 0,
      "componentType": 5126,
      "count": 752,
      "max": [
        3730.64111328125,
        0,
        2018.2779541015625
      ],
      "min": [
        2450.010009765625,
        0,
        -6174.11279296875
      ],
      "type": "VEC3"
    },
    {
      "bufferView": 2,
      "byteOffset": 0,
      "componentType": 5126,
      "count": 752,
      "max": [
        0.9895731210708618,
        1,
        0.9906324148178101
      ],
      "min": [
        -0.9492424726486206,
        0,
        -0.9762833118438721
      ],
      "type": "VEC3"
    },
    {
      "bufferView": 3,
      "byteOffset": 0,
      "componentType": 5126,
      "count": 752,
      "max": [
        0.999786376953125,
        1,
        1
      ],
      "min": [
        0,
        0.00003051804378628731,
        0.00004577706567943096
      ],
      "type": "VEC3"
    }
  ],
  "buffers": [
    {
      "byteLength": 3636,
      "uri": "data:application/octet-stream;base64,"
    },
    {
      "byteLength": 9024,
      "uri": "data:application/octet-stream;base64,"
    },
    {
      "byteLength": 9024,
      "uri": "data:application/octet-stream;base64,"
    },
    {
      "byteLength": 9024,
      "uri": "data:application/octet-stream;base64,"
    }
  ],
  "bufferViews": [
    {
      "buffer": 0,
      "byteOffset": 0,
      "byteLength": 3636
    },
    {
      "buffer": 1,
      "byteOffset": 0,
      "byteLength": 9024
    },
    {
      "buffer": 2,
      "byteOffset": 0,
      "byteLength": 9024
    },
    {
      "buffer": 3,
      "byteOffset": 0,
      "byteLength": 9024
    }
  ],
  "meshes": [
    {
      "primitives": [
        {
          "mode": 4,
          "indices": 0,
          "attributes": {
            "POSITION": 1,
            "NORMAL": 2,
            "COLOR_0": 3
          }
        }
      ]
    }
  ],
  "nodes": [
    {
      "children": [
        1
      ]
    },
    {
      "mesh": 0
    }
  ],
  "scenes": [
    {
      "nodes": [
        0
      ]
    }
  ],
  "scene": 0
}