{
  "asset": {
    "version": "2.0",
    "generator": "COLLADA2GLTF"
  },
  "accessors": [
    {
      "bufferView": 0,
      "byteOffset": 0,
      "componentType": 5123,
      "count": 495,
      "min": [
        0
      ],
      "max": [
        186
      ],
      "type": "SCALAR"
    },
    {
      "bufferView": 1,
      "byteOffset": 0,
      "componentType": 5126,
      "count": 187,
      "max": [
        132.9932403564453,
        0,
        89.01504516601562
      ],
      "min": [
        78.49898529052734,
        -3,
        11.658629417419434
      ],
      "type": "VEC3"
    },
    {
      "bufferView": 2,
      "byteOffset": 0,
      "componentType": 5126,
      "count": 187,
      "max": [
        0.9800215363502502,
        1,
        0.9800215363502502
      ],
      "min": [
        -0.9800215363502502,
        0,
        -0.9800215363502502
      ],
      "type": "VEC3"
    },
    {
      "bufferView": 3,
      "byteOffset": 0,
      "componentType": 5126,
      "count": 187,
      "max": [
        0.21585412323474884,
        0.21585412323474884,
        0.21589989960193634
      ],
      "min": [
        0.21585412323474884,
        0.21585412323474884,
        0.21589989960193634
      ],
      "type": "VEC3"
    }
  ],
  "buffers": [
    {
      "byteLength": 990,
      "uri": "data:application/octet-stream;base64,"
    },
    {
      "byteLength": 2244,
      "uri": "data:application/octet-stream;base64,"
    },
    {
      "byteLength": 2244,
      "uri": "data:application/octet-stream;base64,"
    },
    {
      "byteLength": 2244,
      "uri": "data:application/octet-stream;base64,"
    }
  ],
  "bufferViews": [
    {
      "buffer": 0,
      "byteOffset": 0,
      "byteLength": 990
    },
    {
      "buffer": 1,
      "byteOffset": 0,
      "byteLength": 2244
    },
    {
      "buffer": 2,
      "byteOffset": 0,
      "byteLength": 2244
    },
    {
      "buffer": 3,
      "byteOffset": 0,
      "byteLength": 2244
    }
  ],
  "meshes": [
    {
      "primitives": [
        {
          "mode": 4,
          "indices": 0,
          "attributes": {
            "POSITION": 1,
            "NORMAL": 2,
            "COLOR_0": 3
          }
        }
      ]
    }
  ],
  "nodes": [
    {
      "children": [
        1
      ]
    },
    {
      "mesh": 0
    }
  ],
  "scenes": [
    {
      "nodes": [
        0
      ]
    }
  ],
  "scene": 0
}