{
  "asset": {
    "version": "2.0",
    "generator": "COLLADA2GLTF"
  },
  "accessors": [
    {
      "bufferView": 0,
      "byteOffset": 0,
      "componentType": 5123,
      "count": 2139,
      "min": [
        0
      ],
      "max": [
        875
      ],
      "type": "SCALAR"
    },
    {
      "bufferView": 1,
      "byteOffset": 0,
      "componentType": 5126,
      "count": 876,
      "max": [
        -2188.26806640625,
        0.0010000000474974513,
        -90
      ],
      "min": [
        -2580,
        0,
        -358.6516418457031
      ],
      "type": "VEC3"
    },
    {
      "bufferView": 2,
      "byteOffset": 0,
      "componentType": 5126,
      "count": 876,
      "max": [
        0.7776166796684265,
        1,
        0.7776888012886047
      ],
      "min": [
        -0.7780928015708923,
        0,
        -0.7777292132377625
      ],
      "type": "VEC3"
    },
    {
      "bufferView": 3,
      "byteOffset": 0,
      "componentType": 5126,
      "count": 876,
      "max": [
        0.999786376953125,
        1,
        0.7875028848648071
      ],
      "min": [
        0.000015259021893143654,
        0.000015259021893143654,
        0
      ],
      "type": "VEC3"
    }
  ],
  "buffers": [
    {
      "byteLength": 4278,
      "uri": "data:application/octet-stream;base64,"
    },
    {
      "byteLength": 10512,
      "uri": "data:application/octet-stream;base64,"
    },
    {
      "byteLength": 10512,
      "uri": "data:application/octet-stream;base64,"
    },
    {
      "byteLength": 10512,
      "uri": "data:application/octet-stream;base64,"
    }
  ],
  "bufferViews": [
    {
      "buffer": 0,
      "byteOffset": 0,
      "byteLength": 4278
    },
    {
      "buffer": 1,
      "byteOffset": 0,
      "byteLength": 10512
    },
    {
      "buffer": 2,
      "byteOffset": 0,
      "byteLength": 10512
    },
    {
      "buffer": 3,
      "byteOffset": 0,
      "byteLength": 10512
    }
  ],
  "meshes": [
    {
      "primitives": [
        {
          "mode": 4,
          "indices": 0,
          "attributes": {
            "POSITION": 1,
            "NORMAL": 2,
            "COLOR_0": 3
          }
        }
      ]
    }
  ],
  "nodes": [
    {
      "children": [
        1
      ]
    },
    {
      "mesh": 0
    }
  ],
  "scenes": [
    {
      "nodes": [
        0
      ]
    }
  ],
  "scene": 0
}