{
  "asset": {
    "version": "2.0",
    "generator": "COLLADA2GLTF"
  },
  "accessors": [
    {
      "bufferView": 0,
      "byteOffset": 0,
      "componentType": 5123,
      "count": 330,
      "min": [
        0
      ],
      "max": [
        154
      ],
      "type": "SCALAR"
    },
    {
      "bufferView": 1,
      "byteOffset": 0,
      "componentType": 5126,
      "count": 155,
      "max": [
        -2199.47216796875,
        14.324999809265137,
        1309.978759765625
      ],
      "min": [
        -2291.126708984375,
        9.28499984741211,
        1295.34033203125
      ],
      "type": "VEC3"
    },
    {
      "bufferView": 2,
      "byteOffset": 0,
      "componentType": 5126,
      "count": 155,
      "max": [
        0.3536601960659027,
        0.7068074345588684,
        0.7037116885185242
      ],
      "min": [
        -0.3536601960659027,
        -0.7065204381942749,
        -0.7037116885185242
      ],
      "type": "VEC3"
    },
    {
      "bufferView": 3,
      "byteOffset": 0,
      "componentType": 5126,
      "count": 155,
      "max": [
        0,
        0,
        0
      ],
      "min": [
        0,
        0,
        0
      ],
      "type": "VEC3"
    }
  ],
  "buffers": [
    {
      "byteLength": 660,
      "uri": "data:application/octet-stream;base64,"
    },
    {
      "byteLength": 1860,
      "uri": "data:application/octet-stream;base64,"
    },
    {
      "byteLength": 1860,
      "uri": "data:application/octet-stream;base64,"
    },
    {
      "byteLength": 1860,
      "uri": "data:application/octet-stream;base64,"
    }
  ],
  "bufferViews": [
    {
      "buffer": 0,
      "byteOffset": 0,
      "byteLength": 660
    },
    {
      "buffer": 1,
      "byteOffset": 0,
      "byteLength": 1860
    },
    {
      "buffer": 2,
      "byteOffset": 0,
      "byteLength": 1860
    },
    {
      "buffer": 3,
      "byteOffset": 0,
      "byteLength": 1860
    }
  ],
  "meshes": [
    {
      "primitives": [
        {
          "mode": 4,
          "indices": 0,
          "attributes": {
            "POSITION": 1,
            "NORMAL": 2,
            "COLOR_0": 3
          }
        }
      ]
    }
  ],
  "nodes": [
    {
      "children": [
        1
      ]
    },
    {
      "mesh": 0
    }
  ],
  "scenes": [
    {
      "nodes": [
        0
      ]
    }
  ],
  "scene": 0
}