{
  "asset": {
    "version": "2.0",
    "generator": "COLLADA2GLTF"
  },
  "accessors": [
    {
      "bufferView": 0,
      "byteOffset": 0,
      "componentType": 5123,
      "count": 1467,
      "min": [
        0
      ],
      "max": [
        644
      ],
      "type": "SCALAR"
    },
    {
      "bufferView": 1,
      "byteOffset": 0,
      "componentType": 5126,
      "count": 645,
      "max": [
        3370.19970703125,
        0.0010000000474974513,
        -1660.75830078125
      ],
      "min": [
        3020.499755859375,
        -0.20000000298023224,
        -2055.903564453125
      ],
      "type": "VEC3"
    },
    {
      "bufferView": 2,
      "byteOffset": 0,
      "componentType": 5126,
      "count": 645,
      "max": [
        0.8268740773200989,
        1,
        0.8204976320266724
      ],
      "min": [
        -0.826872706413269,
        -1,
        -0.8268687129020691
      ],
      "type": "VEC3"
    },
    {
      "bufferView": 3,
      "byteOffset": 0,
      "componentType": 5126,
      "count": 645,
      "max": [
        0.999786376953125,
        1,
        0.7875028848648071
      ],
      "min": [
        0.000015259021893143654,
        0.07324330508708954,
        0.00004577706567943096
      ],
      "type": "VEC3"
    }
  ],
  "buffers": [
    {
      "byteLength": 2934,
      "uri": "data:application/octet-stream;base64,"
    },
    {
      "byteLength": 7740,
      "uri": "data:application/octet-stream;base64,"
    },
    {
      "byteLength": 7740,
      "uri": "data:application/octet-stream;base64,"
    },
    {
      "byteLength": 7740,
      "uri": "data:application/octet-stream;base64,"
    }
  ],
  "bufferViews": [
    {
      "buffer": 0,
      "byteOffset": 0,
      "byteLength": 2934
    },
    {
      "buffer": 1,
      "byteOffset": 0,
      "byteLength": 7740
    },
    {
      "buffer": 2,
      "byteOffset": 0,
      "byteLength": 7740
    },
    {
      "buffer": 3,
      "byteOffset": 0,
      "byteLength": 7740
    }
  ],
  "meshes": [
    {
      "primitives": [
        {
          "mode": 4,
          "indices": 0,
          "attributes": {
            "POSITION": 1,
            "NORMAL": 2,
            "COLOR_0": 3
          }
        }
      ]
    }
  ],
  "nodes": [
    {
      "children": [
        1
      ]
    },
    {
      "mesh": 0
    }
  ],
  "scenes": [
    {
      "nodes": [
        0
      ]
    }
  ],
  "scene": 0
}