{
  "asset": {
    "version": "2.0",
    "generator": "COLLADA2GLTF"
  },
  "accessors": [
    {
      "bufferView": 0,
      "byteOffset": 0,
      "componentType": 5123,
      "count": 441,
      "min": [
        0
      ],
      "max": [
        169
      ],
      "type": "SCALAR"
    },
    {
      "bufferView": 1,
      "byteOffset": 0,
      "componentType": 5126,
      "count": 170,
      "max": [
        2484.980712890625,
        0.06400000303983688,
        3494.268310546875
      ],
      "min": [
        2477.829833984375,
        0,
        3490.12646484375
      ],
      "type": "VEC3"
    },
    {
      "bufferView": 2,
      "byteOffset": 0,
      "componentType": 5126,
      "count": 170,
      "max": [
        0.9146078824996948,
        1,
        0.9146078824996948
      ],
      "min": [
        -0.9146078824996948,
        0,
        -0.9146078824996948
      ],
      "type": "VEC3"
    },
    {
      "bufferView": 3,
      "byteOffset": 0,
      "componentType": 5126,
      "count": 170,
      "max": [
        0.07322804629802704,
        0.03309682011604309,
        0.03311207890510559
      ],
      "min": [
        0.07322804629802704,
        0.03309682011604309,
        0.03311207890510559
      ],
      "type": "VEC3"
    }
  ],
  "buffers": [
    {
      "byteLength": 882,
      "uri": "data:application/octet-stream;base64,"
    },
    {
      "byteLength": 2040,
      "uri": "data:application/octet-stream;base64,"
    },
    {
      "byteLength": 2040,
      "uri": "data:application/octet-stream;base64,"
    },
    {
      "byteLength": 2040,
      "uri": "data:application/octet-stream;base64,"
    }
  ],
  "bufferViews": [
    {
      "buffer": 0,
      "byteOffset": 0,
      "byteLength": 882
    },
    {
      "buffer": 1,
      "byteOffset": 0,
      "byteLength": 2040
    },
    {
      "buffer": 2,
      "byteOffset": 0,
      "byteLength": 2040
    },
    {
      "buffer": 3,
      "byteOffset": 0,
      "byteLength": 2040
    }
  ],
  "meshes": [
    {
      "primitives": [
        {
          "mode": 4,
          "indices": 0,
          "attributes": {
            "POSITION": 1,
            "NORMAL": 2,
            "COLOR_0": 3
          }
        }
      ]
    }
  ],
  "nodes": [
    {
      "children": [
        1
      ]
    },
    {
      "mesh": 0
    }
  ],
  "scenes": [
    {
      "nodes": [
        0
      ]
    }
  ],
  "scene": 0
}