{
  "asset": {
    "version": "2.0",
    "generator": "COLLADA2GLTF"
  },
  "accessors": [
    {
      "bufferView": 0,
      "byteOffset": 0,
      "componentType": 5123,
      "count": 5244,
      "min": [
        0
      ],
      "max": [
        2205
      ],
      "type": "SCALAR"
    },
    {
      "bufferView": 1,
      "byteOffset": 0,
      "componentType": 5126,
      "count": 2206,
      "max": [
        570,
        0,
        1440
      ],
      "min": [
        90,
        -0.20000000298023224,
        934.9661254882812
      ],
      "type": "VEC3"
    },
    {
      "bufferView": 2,
      "byteOffset": 0,
      "componentType": 5126,
      "count": 2206,
      "max": [
        0.9139254689216614,
        1,
        0.813235878944397
      ],
      "min": [
        -0.9152449369430542,
        -1,
        -0.9136326909065247
      ],
      "type": "VEC3"
    },
    {
      "bufferView": 3,
      "byteOffset": 0,
      "componentType": 5126,
      "count": 2206,
      "max": [
        0.999786376953125,
        1,
        1
      ],
      "min": [
        0,
        0.00003051804378628731,
        0.00004577706567943096
      ],
      "type": "VEC3"
    }
  ],
  "buffers": [
    {
      "byteLength": 10488,
      "uri": "data:application/octet-stream;base64,"
    },
    {
      "byteLength": 26472,
      "uri": "data:application/octet-stream;base64,"
    },
    {
      "byteLength": 26472,
      "uri": "data:application/octet-stream;base64,"
    },
    {
      "byteLength": 26472,
      "uri": "data:application/octet-stream;base64,"
    }
  ],
  "bufferViews": [
    {
      "buffer": 0,
      "byteOffset": 0,
      "byteLength": 10488
    },
    {
      "buffer": 1,
      "byteOffset": 0,
      "byteLength": 26472
    },
    {
      "buffer": 2,
      "byteOffset": 0,
      "byteLength": 26472
    },
    {
      "buffer": 3,
      "byteOffset": 0,
      "byteLength": 26472
    }
  ],
  "meshes": [
    {
      "primitives": [
        {
          "mode": 4,
          "indices": 0,
          "attributes": {
            "POSITION": 1,
            "NORMAL": 2,
            "COLOR_0": 3
          }
        }
      ]
    }
  ],
  "nodes": [
    {
      "children": [
        1
      ]
    },
    {
      "mesh": 0
    }
  ],
  "scenes": [
    {
      "nodes": [
        0
      ]
    }
  ],
  "scene": 0
}