{
  "asset": {
    "version": "2.0",
    "generator": "COLLADA2GLTF"
  },
  "accessors": [
    {
      "bufferView": 0,
      "byteOffset": 0,
      "componentType": 5123,
      "count": 1329,
      "min": [
        0
      ],
      "max": [
        906
      ],
      "type": "SCALAR"
    },
    {
      "bufferView": 1,
      "byteOffset": 0,
      "componentType": 5126,
      "count": 907,
      "max": [
        1339.8607177734375,
        55,
        -706.9482421875
      ],
      "min": [
        660.7305297851562,
        0,
        -1308.5679931640625
      ],
      "type": "VEC3"
    },
    {
      "bufferView": 2,
      "byteOffset": 0,
      "componentType": 5126,
      "count": 907,
      "max": [
        0.9877633452415466,
        1,
        0.8753422498703003
      ],
      "min": [
        -0.8914344310760498,
        0,
        -0.890433132648468
      ],
      "type": "VEC3"
    },
    {
      "bufferView": 3,
      "byteOffset": 0,
      "componentType": 5126,
      "count": 907,
      "max": [
        0.999786376953125,
        0.7875181436538696,
        0.26330968737602234
      ],
      "min": [
        0.6036774516105652,
        0.00003051804378628731,
        0
      ],
      "type": "VEC3"
    }
  ],
  "buffers": [
    {
      "byteLength": 2658,
      "uri": "data:application/octet-stream;base64,"
    },
    {
      "byteLength": 10884,
      "uri": "data:application/octet-stream;base64,"
    },
    {
      "byteLength": 10884,
      "uri": "data:application/octet-stream;base64,"
    },
    {
      "byteLength": 10884,
      "uri": "data:application/octet-stream;base64,"
    }
  ],
  "bufferViews": [
    {
      "buffer": 0,
      "byteOffset": 0,
      "byteLength": 2658
    },
    {
      "buffer": 1,
      "byteOffset": 0,
      "byteLength": 10884
    },
    {
      "buffer": 2,
      "byteOffset": 0,
      "byteLength": 10884
    },
    {
      "buffer": 3,
      "byteOffset": 0,
      "byteLength": 10884
    }
  ],
  "meshes": [
    {
      "primitives": [
        {
          "mode": 4,
          "indices": 0,
          "attributes": {
            "POSITION": 1,
            "NORMAL": 2,
            "COLOR_0": 3
          }
        }
      ]
    }
  ],
  "nodes": [
    {
      "children": [
        1
      ]
    },
    {
      "mesh": 0
    }
  ],
  "scenes": [
    {
      "nodes": [
        0
      ]
    }
  ],
  "scene": 0
}