{
  "asset": {
    "version": "2.0",
    "generator": "COLLADA2GLTF"
  },
  "accessors": [
    {
      "bufferView": 0,
      "byteOffset": 0,
      "componentType": 5123,
      "count": 1782,
      "min": [
        0
      ],
      "max": [
        792
      ],
      "type": "SCALAR"
    },
    {
      "bufferView": 1,
      "byteOffset": 0,
      "componentType": 5126,
      "count": 793,
      "max": [
        1813.366943359375,
        7.5,
        421.45001220703125
      ],
      "min": [
        1576.8101806640625,
        -0.20000000298023224,
        250.62818908691406
      ],
      "type": "VEC3"
    },
    {
      "bufferView": 2,
      "byteOffset": 0,
      "componentType": 5126,
      "count": 793,
      "max": [
        0.9897288084030151,
        1,
        0.9897288084030151
      ],
      "min": [
        -0.9893208742141724,
        -1,
        -0.9897366762161255
      ],
      "type": "VEC3"
    },
    {
      "bufferView": 3,
      "byteOffset": 0,
      "componentType": 5126,
      "count": 793,
      "max": [
        0.999786376953125,
        1,
        0.7875028848648071
      ],
      "min": [
        0.000015259021893143654,
        0.07324330508708954,
        0.00004577706567943096
      ],
      "type": "VEC3"
    }
  ],
  "buffers": [
    {
      "byteLength": 3564,
      "uri": "data:application/octet-stream;base64,"
    },
    {
      "byteLength": 9516,
      "uri": "data:application/octet-stream;base64,"
    },
    {
      "byteLength": 9516,
      "uri": "data:application/octet-stream;base64,"
    },
    {
      "byteLength": 9516,
      "uri": "data:application/octet-stream;base64,"
    }
  ],
  "bufferViews": [
    {
      "buffer": 0,
      "byteOffset": 0,
      "byteLength": 3564
    },
    {
      "buffer": 1,
      "byteOffset": 0,
      "byteLength": 9516
    },
    {
      "buffer": 2,
      "byteOffset": 0,
      "byteLength": 9516
    },
    {
      "buffer": 3,
      "byteOffset": 0,
      "byteLength": 9516
    }
  ],
  "meshes": [
    {
      "primitives": [
        {
          "mode": 4,
          "indices": 0,
          "attributes": {
            "POSITION": 1,
            "NORMAL": 2,
            "COLOR_0": 3
          }
        }
      ]
    }
  ],
  "nodes": [
    {
      "children": [
        1
      ]
    },
    {
      "mesh": 0
    }
  ],
  "scenes": [
    {
      "nodes": [
        0
      ]
    }
  ],
  "scene": 0
}