{
  "asset": {
    "version": "2.0",
    "generator": "COLLADA2GLTF"
  },
  "accessors": [
    {
      "bufferView": 0,
      "byteOffset": 0,
      "componentType": 5123,
      "count": 1836,
      "min": [
        0
      ],
      "max": [
        794
      ],
      "type": "SCALAR"
    },
    {
      "bufferView": 1,
      "byteOffset": 0,
      "componentType": 5126,
      "count": 795,
      "max": [
        3504.403076171875,
        7.5,
        -1401.2149658203125
      ],
      "min": [
        3091.281982421875,
        0,
        -1902.1800537109375
      ],
      "type": "VEC3"
    },
    {
      "bufferView": 2,
      "byteOffset": 0,
      "componentType": 5126,
      "count": 795,
      "max": [
        1,
        1,
        1
      ],
      "min": [
        -1,
        0,
        -1
      ],
      "type": "VEC3"
    },
    {
      "bufferView": 3,
      "byteOffset": 0,
      "componentType": 5126,
      "count": 795,
      "max": [
        0.999786376953125,
        0.7875181436538696,
        0.26330968737602234
      ],
      "min": [
        0.6036774516105652,
        0.00003051804378628731,
        0
      ],
      "type": "VEC3"
    }
  ],
  "buffers": [
    {
      "byteLength": 3672,
      "uri": "data:application/octet-stream;base64,"
    },
    {
      "byteLength": 9540,
      "uri": "data:application/octet-stream;base64,"
    },
    {
      "byteLength": 9540,
      "uri": "data:application/octet-stream;base64,"
    },
    {
      "byteLength": 9540,
      "uri": "data:application/octet-stream;base64,"
    }
  ],
  "bufferViews": [
    {
      "buffer": 0,
      "byteOffset": 0,
      "byteLength": 3672
    },
    {
      "buffer": 1,
      "byteOffset": 0,
      "byteLength": 9540
    },
    {
      "buffer": 2,
      "byteOffset": 0,
      "byteLength": 9540
    },
    {
      "buffer": 3,
      "byteOffset": 0,
      "byteLength": 9540
    }
  ],
  "meshes": [
    {
      "primitives": [
        {
          "mode": 4,
          "indices": 0,
          "attributes": {
            "POSITION": 1,
            "NORMAL": 2,
            "COLOR_0": 3
          }
        }
      ]
    }
  ],
  "nodes": [
    {
      "children": [
        1
      ]
    },
    {
      "mesh": 0
    }
  ],
  "scenes": [
    {
      "nodes": [
        0
      ]
    }
  ],
  "scene": 0
}