{
  "asset": {
    "version": "2.0",
    "generator": "COLLADA2GLTF"
  },
  "accessors": [
    {
      "bufferView": 0,
      "byteOffset": 0,
      "componentType": 5123,
      "count": 1287,
      "min": [
        0
      ],
      "max": [
        549
      ],
      "type": "SCALAR"
    },
    {
      "bufferView": 1,
      "byteOffset": 0,
      "componentType": 5126,
      "count": 550,
      "max": [
        152.9279327392578,
        0.11999999731779099,
        431.66461181640625
      ],
      "min": [
        9.920553207397461,
        0,
        125.18900299072266
      ],
      "type": "VEC3"
    },
    {
      "bufferView": 2,
      "byteOffset": 0,
      "componentType": 5126,
      "count": 550,
      "max": [
        0.8257535099983215,
        1,
        0.5941124558448792
      ],
      "min": [
        -0.825325608253479,
        0,
        -0.5941099524497986
      ],
      "type": "VEC3"
    },
    {
      "bufferView": 3,
      "byteOffset": 0,
      "componentType": 5126,
      "count": 550,
      "max": [
        0.7872740030288696,
        1,
        1
      ],
      "min": [
        0,
        0.00003051804378628731,
        0.00004577706567943096
      ],
      "type": "VEC3"
    }
  ],
  "buffers": [
    {
      "byteLength": 2574,
      "uri": "data:application/octet-stream;base64,"
    },
    {
      "byteLength": 6600,
      "uri": "data:application/octet-stream;base64,"
    },
    {
      "byteLength": 6600,
      "uri": "data:application/octet-stream;base64,"
    },
    {
      "byteLength": 6600,
      "uri": "data:application/octet-stream;base64,"
    }
  ],
  "bufferViews": [
    {
      "buffer": 0,
      "byteOffset": 0,
      "byteLength": 2574
    },
    {
      "buffer": 1,
      "byteOffset": 0,
      "byteLength": 6600
    },
    {
      "buffer": 2,
      "byteOffset": 0,
      "byteLength": 6600
    },
    {
      "buffer": 3,
      "byteOffset": 0,
      "byteLength": 6600
    }
  ],
  "meshes": [
    {
      "primitives": [
        {
          "mode": 4,
          "indices": 0,
          "attributes": {
            "POSITION": 1,
            "NORMAL": 2,
            "COLOR_0": 3
          }
        }
      ]
    }
  ],
  "nodes": [
    {
      "children": [
        1
      ]
    },
    {
      "mesh": 0
    }
  ],
  "scenes": [
    {
      "nodes": [
        0
      ]
    }
  ],
  "scene": 0
}