{
  "asset": {
    "version": "2.0",
    "generator": "COLLADA2GLTF"
  },
  "accessors": [
    {
      "bufferView": 0,
      "byteOffset": 0,
      "componentType": 5123,
      "count": 300,
      "min": [
        0
      ],
      "max": [
        155
      ],
      "type": "SCALAR"
    },
    {
      "bufferView": 1,
      "byteOffset": 0,
      "componentType": 5126,
      "count": 156,
      "max": [
        -1991.0946044921875,
        0.0010000000474974513,
        1886.97021484375
      ],
      "min": [
        -2118.26318359375,
        -0.20000000298023224,
        1785.6402587890625
      ],
      "type": "VEC3"
    },
    {
      "bufferView": 2,
      "byteOffset": 0,
      "componentType": 5126,
      "count": 156,
      "max": [
        0.7132382988929749,
        1,
        0.7895398736000061
      ],
      "min": [
        -0.7895392775535583,
        -1,
        -0.7895392775535583
      ],
      "type": "VEC3"
    },
    {
      "bufferView": 3,
      "byteOffset": 0,
      "componentType": 5126,
      "count": 156,
      "max": [
        0.7872740030288696,
        1,
        0.7875028848648071
      ],
      "min": [
        0.000015259021893143654,
        0.05127031356096268,
        0.00004577706567943096
      ],
      "type": "VEC3"
    }
  ],
  "buffers": [
    {
      "byteLength": 600,
      "uri": "data:application/octet-stream;base64,"
    },
    {
      "byteLength": 1872,
      "uri": "data:application/octet-stream;base64,"
    },
    {
      "byteLength": 1872,
      "uri": "data:application/octet-stream;base64,"
    },
    {
      "byteLength": 1872,
      "uri": "data:application/octet-stream;base64,"
    }
  ],
  "bufferViews": [
    {
      "buffer": 0,
      "byteOffset": 0,
      "byteLength": 600
    },
    {
      "buffer": 1,
      "byteOffset": 0,
      "byteLength": 1872
    },
    {
      "buffer": 2,
      "byteOffset": 0,
      "byteLength": 1872
    },
    {
      "buffer": 3,
      "byteOffset": 0,
      "byteLength": 1872
    }
  ],
  "meshes": [
    {
      "primitives": [
        {
          "mode": 4,
          "indices": 0,
          "attributes": {
            "POSITION": 1,
            "NORMAL": 2,
            "COLOR_0": 3
          }
        }
      ]
    }
  ],
  "nodes": [
    {
      "children": [
        1
      ]
    },
    {
      "mesh": 0
    }
  ],
  "scenes": [
    {
      "nodes": [
        0
      ]
    }
  ],
  "scene": 0
}