{
  "asset": {
    "version": "2.0",
    "generator": "COLLADA2GLTF"
  },
  "accessors": [
    {
      "bufferView": 0,
      "byteOffset": 0,
      "componentType": 5123,
      "count": 1710,
      "min": [
        0
      ],
      "max": [
        689
      ],
      "type": "SCALAR"
    },
    {
      "bufferView": 1,
      "byteOffset": 0,
      "componentType": 5126,
      "count": 690,
      "max": [
        -810,
        0,
        882.583984375
      ],
      "min": [
        -1144.824951171875,
        0,
        541.1076049804688
      ],
      "type": "VEC3"
    },
    {
      "bufferView": 2,
      "byteOffset": 0,
      "componentType": 5126,
      "count": 690,
      "max": [
        0.9672691226005554,
        1,
        0.5644725561141968
      ],
      "min": [
        -0.8489742875099182,
        0,
        -0.8819297552108765
      ],
      "type": "VEC3"
    },
    {
      "bufferView": 3,
      "byteOffset": 0,
      "componentType": 5126,
      "count": 690,
      "max": [
        0.999786376953125,
        1,
        0.26330968737602234
      ],
      "min": [
        0.000015259021893143654,
        0.07324330508708954,
        0.00004577706567943096
      ],
      "type": "VEC3"
    }
  ],
  "buffers": [
    {
      "byteLength": 3420,
      "uri": "data:application/octet-stream;base64,"
    },
    {
      "byteLength": 8280,
      "uri": "data:application/octet-stream;base64,"
    },
    {
      "byteLength": 8280,
      "uri": "data:application/octet-stream;base64,"
    },
    {
      "byteLength": 8280,
      "uri": "data:application/octet-stream;base64,"
    }
  ],
  "bufferViews": [
    {
      "buffer": 0,
      "byteOffset": 0,
      "byteLength": 3420
    },
    {
      "buffer": 1,
      "byteOffset": 0,
      "byteLength": 8280
    },
    {
      "buffer": 2,
      "byteOffset": 0,
      "byteLength": 8280
    },
    {
      "buffer": 3,
      "byteOffset": 0,
      "byteLength": 8280
    }
  ],
  "meshes": [
    {
      "primitives": [
        {
          "mode": 4,
          "indices": 0,
          "attributes": {
            "POSITION": 1,
            "NORMAL": 2,
            "COLOR_0": 3
          }
        }
      ]
    }
  ],
  "nodes": [
    {
      "children": [
        1
      ]
    },
    {
      "mesh": 0
    }
  ],
  "scenes": [
    {
      "nodes": [
        0
      ]
    }
  ],
  "scene": 0
}