{
  "asset": {
    "version": "2.0",
    "generator": "COLLADA2GLTF"
  },
  "accessors": [
    {
      "bufferView": 0,
      "byteOffset": 0,
      "componentType": 5123,
      "count": 99,
      "min": [
        0
      ],
      "max": [
        63
      ],
      "type": "SCALAR"
    },
    {
      "bufferView": 1,
      "byteOffset": 0,
      "componentType": 5126,
      "count": 64,
      "max": [
        -270,
        0,
        207.30172729492188
      ],
      "min": [
        -380.3589782714844,
        0,
        93.81965637207031
      ],
      "type": "VEC3"
    },
    {
      "bufferView": 2,
      "byteOffset": 0,
      "componentType": 5126,
      "count": 64,
      "max": [
        0.8460690975189209,
        1,
        0.5629444718360901
      ],
      "min": [
        -0.8264946937561035,
        0,
        -0.8462414741516113
      ],
      "type": "VEC3"
    },
    {
      "bufferView": 3,
      "byteOffset": 0,
      "componentType": 5126,
      "count": 64,
      "max": [
        0.999786376953125,
        1,
        0.26330968737602234
      ],
      "min": [
        0.000015259021893143654,
        0.07324330508708954,
        0.00004577706567943096
      ],
      "type": "VEC3"
    }
  ],
  "buffers": [
    {
      "byteLength": 198,
      "uri": "data:application/octet-stream;base64,"
    },
    {
      "byteLength": 768,
      "uri": "data:application/octet-stream;base64,"
    },
    {
      "byteLength": 768,
      "uri": "data:application/octet-stream;base64,"
    },
    {
      "byteLength": 768,
      "uri": "data:application/octet-stream;base64,"
    }
  ],
  "bufferViews": [
    {
      "buffer": 0,
      "byteOffset": 0,
      "byteLength": 198
    },
    {
      "buffer": 1,
      "byteOffset": 0,
      "byteLength": 768
    },
    {
      "buffer": 2,
      "byteOffset": 0,
      "byteLength": 768
    },
    {
      "buffer": 3,
      "byteOffset": 0,
      "byteLength": 768
    }
  ],
  "meshes": [
    {
      "primitives": [
        {
          "mode": 4,
          "indices": 0,
          "attributes": {
            "POSITION": 1,
            "NORMAL": 2,
            "COLOR_0": 3
          }
        }
      ]
    }
  ],
  "nodes": [
    {
      "children": [
        1
      ]
    },
    {
      "mesh": 0
    }
  ],
  "scenes": [
    {
      "nodes": [
        0
      ]
    }
  ],
  "scene": 0
}