{
  "asset": {
    "version": "2.0",
    "generator": "COLLADA2GLTF"
  },
  "accessors": [
    {
      "bufferView": 0,
      "byteOffset": 0,
      "componentType": 5123,
      "count": 4923,
      "min": [
        0
      ],
      "max": [
        2267
      ],
      "type": "SCALAR"
    },
    {
      "bufferView": 1,
      "byteOffset": 0,
      "componentType": 5126,
      "count": 2268,
      "max": [
        -478.1592102050781,
        75,
        1973.546630859375
      ],
      "min": [
        -2128.988037109375,
        0,
        1004.27197265625
      ],
      "type": "VEC3"
    },
    {
      "bufferView": 2,
      "byteOffset": 0,
      "componentType": 5126,
      "count": 2268,
      "max": [
        0.9933552742004395,
        1,
        0.9944244027137756
      ],
      "min": [
        -0.998901903629303,
        -0.7070986032485962,
        -0.9873326420783997
      ],
      "type": "VEC3"
    },
    {
      "bufferView": 3,
      "byteOffset": 0,
      "componentType": 5126,
      "count": 2268,
      "max": [
        0.999786376953125,
        0.7875181436538696,
        0.4480659067630768
      ],
      "min": [
        0,
        0,
        0
      ],
      "type": "VEC3"
    }
  ],
  "buffers": [
    {
      "byteLength": 9846,
      "uri": "data:application/octet-stream;base64,"
    },
    {
      "byteLength": 27216,
      "uri": "data:application/octet-stream;base64,"
    },
    {
      "byteLength": 27216,
      "uri": "data:application/octet-stream;base64,"
    },
    {
      "byteLength": 27216,
      "uri": "data:application/octet-stream;base64,"
    }
  ],
  "bufferViews": [
    {
      "buffer": 0,
      "byteOffset": 0,
      "byteLength": 9846
    },
    {
      "buffer": 1,
      "byteOffset": 0,
      "byteLength": 27216
    },
    {
      "buffer": 2,
      "byteOffset": 0,
      "byteLength": 27216
    },
    {
      "buffer": 3,
      "byteOffset": 0,
      "byteLength": 27216
    }
  ],
  "meshes": [
    {
      "primitives": [
        {
          "mode": 4,
          "indices": 0,
          "attributes": {
            "POSITION": 1,
            "NORMAL": 2,
            "COLOR_0": 3
          }
        }
      ]
    }
  ],
  "nodes": [
    {
      "children": [
        1
      ]
    },
    {
      "mesh": 0
    }
  ],
  "scenes": [
    {
      "nodes": [
        0
      ]
    }
  ],
  "scene": 0
}