{
  "asset": {
    "version": "2.0",
    "generator": "COLLADA2GLTF"
  },
  "accessors": [
    {
      "bufferView": 0,
      "byteOffset": 0,
      "componentType": 5123,
      "count": 1134,
      "min": [
        0
      ],
      "max": [
        521
      ],
      "type": "SCALAR"
    },
    {
      "bufferView": 1,
      "byteOffset": 0,
      "componentType": 5126,
      "count": 522,
      "max": [
        3848.2578125,
        37.025001525878906,
        7017.9873046875
      ],
      "min": [
        3030.506103515625,
        17,
        6368.0087890625
      ],
      "type": "VEC3"
    },
    {
      "bufferView": 2,
      "byteOffset": 0,
      "componentType": 5126,
      "count": 522,
      "max": [
        0.7921236753463745,
        0.7067746520042419,
        0.7921236753463745
      ],
      "min": [
        -0.7921236753463745,
        -0.7067746520042419,
        -0.7921236753463745
      ],
      "type": "VEC3"
    },
    {
      "bufferView": 3,
      "byteOffset": 0,
      "componentType": 5126,
      "count": 522,
      "max": [
        0.4480048716068268,
        0.4480048716068268,
        0.4480659067630768
      ],
      "min": [
        0,
        0,
        0
      ],
      "type": "VEC3"
    }
  ],
  "buffers": [
    {
      "byteLength": 2268,
      "uri": "data:application/octet-stream;base64,"
    },
    {
      "byteLength": 6264,
      "uri": "data:application/octet-stream;base64,"
    },
    {
      "byteLength": 6264,
      "uri": "data:application/octet-stream;base64,"
    },
    {
      "byteLength": 6264,
      "uri": "data:application/octet-stream;base64,"
    }
  ],
  "bufferViews": [
    {
      "buffer": 0,
      "byteOffset": 0,
      "byteLength": 2268
    },
    {
      "buffer": 1,
      "byteOffset": 0,
      "byteLength": 6264
    },
    {
      "buffer": 2,
      "byteOffset": 0,
      "byteLength": 6264
    },
    {
      "buffer": 3,
      "byteOffset": 0,
      "byteLength": 6264
    }
  ],
  "meshes": [
    {
      "primitives": [
        {
          "mode": 4,
          "indices": 0,
          "attributes": {
            "POSITION": 1,
            "NORMAL": 2,
            "COLOR_0": 3
          }
        }
      ]
    }
  ],
  "nodes": [
    {
      "children": [
        1
      ]
    },
    {
      "mesh": 0
    }
  ],
  "scenes": [
    {
      "nodes": [
        0
      ]
    }
  ],
  "scene": 0
}