{
  "asset": {
    "version": "2.0",
    "generator": "COLLADA2GLTF"
  },
  "accessors": [
    {
      "bufferView": 0,
      "byteOffset": 0,
      "componentType": 5123,
      "count": 4746,
      "min": [
        0
      ],
      "max": [
        1840
      ],
      "type": "SCALAR"
    },
    {
      "bufferView": 1,
      "byteOffset": 0,
      "componentType": 5126,
      "count": 1841,
      "max": [
        -3210,
        0.0010000000474974513,
        -1260
      ],
      "min": [
        -3815.928466796875,
        0,
        -1923.854736328125
      ],
      "type": "VEC3"
    },
    {
      "bufferView": 2,
      "byteOffset": 0,
      "componentType": 5126,
      "count": 1841,
      "max": [
        0.937781035900116,
        1,
        0.942389190196991
      ],
      "min": [
        -0.947844386100769,
        0,
        -0.9444056749343872
      ],
      "type": "VEC3"
    },
    {
      "bufferView": 3,
      "byteOffset": 0,
      "componentType": 5126,
      "count": 1841,
      "max": [
        0.999786376953125,
        1,
        0.7875028848648071
      ],
      "min": [
        0.000015259021893143654,
        0.07324330508708954,
        0.00004577706567943096
      ],
      "type": "VEC3"
    }
  ],
  "buffers": [
    {
      "byteLength": 9492,
      "uri": "data:application/octet-stream;base64,"
    },
    {
      "byteLength": 22092,
      "uri": "data:application/octet-stream;base64,"
    },
    {
      "byteLength": 22092,
      "uri": "data:application/octet-stream;base64,"
    },
    {
      "byteLength": 22092,
      "uri": "data:application/octet-stream;base64,"
    }
  ],
  "bufferViews": [
    {
      "buffer": 0,
      "byteOffset": 0,
      "byteLength": 9492
    },
    {
      "buffer": 1,
      "byteOffset": 0,
      "byteLength": 22092
    },
    {
      "buffer": 2,
      "byteOffset": 0,
      "byteLength": 22092
    },
    {
      "buffer": 3,
      "byteOffset": 0,
      "byteLength": 22092
    }
  ],
  "meshes": [
    {
      "primitives": [
        {
          "mode": 4,
          "indices": 0,
          "attributes": {
            "POSITION": 1,
            "NORMAL": 2,
            "COLOR_0": 3
          }
        }
      ]
    }
  ],
  "nodes": [
    {
      "children": [
        1
      ]
    },
    {
      "mesh": 0
    }
  ],
  "scenes": [
    {
      "nodes": [
        0
      ]
    }
  ],
  "scene": 0
}