{
  "asset": {
    "version": "2.0",
    "generator": "COLLADA2GLTF"
  },
  "accessors": [
    {
      "bufferView": 0,
      "byteOffset": 0,
      "componentType": 5123,
      "count": 909,
      "min": [
        0
      ],
      "max": [
        464
      ],
      "type": "SCALAR"
    },
    {
      "bufferView": 1,
      "byteOffset": 0,
      "componentType": 5126,
      "count": 465,
      "max": [
        2190,
        0,
        -1260
      ],
      "min": [
        1890,
        0,
        -1500
      ],
      "type": "VEC3"
    },
    {
      "bufferView": 2,
      "byteOffset": 0,
      "componentType": 5126,
      "count": 465,
      "max": [
        0.7960911393165588,
        1,
        0.796772301197052
      ],
      "min": [
        -0.7969791293144226,
        0,
        -0.7967114448547363
      ],
      "type": "VEC3"
    },
    {
      "bufferView": 3,
      "byteOffset": 0,
      "componentType": 5126,
      "count": 465,
      "max": [
        0.999786376953125,
        1,
        0.26330968737602234
      ],
      "min": [
        0,
        0.07324330508708954,
        0.000015259021893143654
      ],
      "type": "VEC3"
    }
  ],
  "buffers": [
    {
      "byteLength": 1818,
      "uri": "data:application/octet-stream;base64,"
    },
    {
      "byteLength": 5580,
      "uri": "data:application/octet-stream;base64,"
    },
    {
      "byteLength": 5580,
      "uri": "data:application/octet-stream;base64,"
    },
    {
      "byteLength": 5580,
      "uri": "data:application/octet-stream;base64,"
    }
  ],
  "bufferViews": [
    {
      "buffer": 0,
      "byteOffset": 0,
      "byteLength": 1818
    },
    {
      "buffer": 1,
      "byteOffset": 0,
      "byteLength": 5580
    },
    {
      "buffer": 2,
      "byteOffset": 0,
      "byteLength": 5580
    },
    {
      "buffer": 3,
      "byteOffset": 0,
      "byteLength": 5580
    }
  ],
  "meshes": [
    {
      "primitives": [
        {
          "mode": 4,
          "indices": 0,
          "attributes": {
            "POSITION": 1,
            "NORMAL": 2,
            "COLOR_0": 3
          }
        }
      ]
    }
  ],
  "nodes": [
    {
      "children": [
        1
      ]
    },
    {
      "mesh": 0
    }
  ],
  "scenes": [
    {
      "nodes": [
        0
      ]
    }
  ],
  "scene": 0
}