{
  "asset": {
    "version": "2.0",
    "generator": "COLLADA2GLTF"
  },
  "accessors": [
    {
      "bufferView": 0,
      "byteOffset": 0,
      "componentType": 5123,
      "count": 2688,
      "min": [
        0
      ],
      "max": [
        942
      ],
      "type": "SCALAR"
    },
    {
      "bufferView": 1,
      "byteOffset": 0,
      "componentType": 5126,
      "count": 943,
      "max": [
        810.4261474609375,
        17.165000915527344,
        -1893.4210205078125
      ],
      "min": [
        534.4669189453125,
        12,
        -2113.363525390625
      ],
      "type": "VEC3"
    },
    {
      "bufferView": 2,
      "byteOffset": 0,
      "componentType": 5126,
      "count": 943,
      "max": [
        0.8008229732513428,
        0.70708829164505,
        0.8008229732513428
      ],
      "min": [
        -0.8008229732513428,
        -0.70708829164505,
        -0.8008229732513428
      ],
      "type": "VEC3"
    },
    {
      "bufferView": 3,
      "byteOffset": 0,
      "componentType": 5126,
      "count": 943,
      "max": [
        0.4480048716068268,
        0.4480048716068268,
        0.4480659067630768
      ],
      "min": [
        0,
        0,
        0
      ],
      "type": "VEC3"
    }
  ],
  "buffers": [
    {
      "byteLength": 5376,
      "uri": "data:application/octet-stream;base64,"
    },
    {
      "byteLength": 11316,
      "uri": "data:application/octet-stream;base64,"
    },
    {
      "byteLength": 11316,
      "uri": "data:application/octet-stream;base64,"
    },
    {
      "byteLength": 11316,
      "uri": "data:application/octet-stream;base64,"
    }
  ],
  "bufferViews": [
    {
      "buffer": 0,
      "byteOffset": 0,
      "byteLength": 5376
    },
    {
      "buffer": 1,
      "byteOffset": 0,
      "byteLength": 11316
    },
    {
      "buffer": 2,
      "byteOffset": 0,
      "byteLength": 11316
    },
    {
      "buffer": 3,
      "byteOffset": 0,
      "byteLength": 11316
    }
  ],
  "meshes": [
    {
      "primitives": [
        {
          "mode": 4,
          "indices": 0,
          "attributes": {
            "POSITION": 1,
            "NORMAL": 2,
            "COLOR_0": 3
          }
        }
      ]
    }
  ],
  "nodes": [
    {
      "children": [
        1
      ]
    },
    {
      "mesh": 0
    }
  ],
  "scenes": [
    {
      "nodes": [
        0
      ]
    }
  ],
  "scene": 0
}