{
  "asset": {
    "version": "2.0",
    "generator": "COLLADA2GLTF"
  },
  "accessors": [
    {
      "bufferView": 0,
      "byteOffset": 0,
      "componentType": 5123,
      "count": 519,
      "min": [
        0
      ],
      "max": [
        188
      ],
      "type": "SCALAR"
    },
    {
      "bufferView": 1,
      "byteOffset": 0,
      "componentType": 5126,
      "count": 189,
      "max": [
        -1417.379150390625,
        0.0010000000474974513,
        1324.7681884765625
      ],
      "min": [
        -1501.9788818359375,
        -3,
        1225.025634765625
      ],
      "type": "VEC3"
    },
    {
      "bufferView": 2,
      "byteOffset": 0,
      "componentType": 5126,
      "count": 189,
      "max": [
        0.8268685340881348,
        1,
        0.8168765306472778
      ],
      "min": [
        -0.8168777823448181,
        -1,
        -0.8168765306472778
      ],
      "type": "VEC3"
    },
    {
      "bufferView": 3,
      "byteOffset": 0,
      "componentType": 5126,
      "count": 189,
      "max": [
        0.7872740030288696,
        0.7875028848648071,
        0.7875028848648071
      ],
      "min": [
        0.07322804629802704,
        0.07324330508708954,
        0.07325856387615204
      ],
      "type": "VEC3"
    }
  ],
  "buffers": [
    {
      "byteLength": 1038,
      "uri": "data:application/octet-stream;base64,"
    },
    {
      "byteLength": 2268,
      "uri": "data:application/octet-stream;base64,"
    },
    {
      "byteLength": 2268,
      "uri": "data:application/octet-stream;base64,"
    },
    {
      "byteLength": 2268,
      "uri": "data:application/octet-stream;base64,"
    }
  ],
  "bufferViews": [
    {
      "buffer": 0,
      "byteOffset": 0,
      "byteLength": 1038
    },
    {
      "buffer": 1,
      "byteOffset": 0,
      "byteLength": 2268
    },
    {
      "buffer": 2,
      "byteOffset": 0,
      "byteLength": 2268
    },
    {
      "buffer": 3,
      "byteOffset": 0,
      "byteLength": 2268
    }
  ],
  "meshes": [
    {
      "primitives": [
        {
          "mode": 4,
          "indices": 0,
          "attributes": {
            "POSITION": 1,
            "NORMAL": 2,
            "COLOR_0": 3
          }
        }
      ]
    }
  ],
  "nodes": [
    {
      "children": [
        1
      ]
    },
    {
      "mesh": 0
    }
  ],
  "scenes": [
    {
      "nodes": [
        0
      ]
    }
  ],
  "scene": 0
}