{
  "asset": {
    "version": "2.0",
    "generator": "COLLADA2GLTF"
  },
  "accessors": [
    {
      "bufferView": 0,
      "byteOffset": 0,
      "componentType": 5123,
      "count": 5478,
      "min": [
        0
      ],
      "max": [
        2325
      ],
      "type": "SCALAR"
    },
    {
      "bufferView": 1,
      "byteOffset": 0,
      "componentType": 5126,
      "count": 2326,
      "max": [
        2790,
        2.299999952316284,
        -1560
      ],
      "min": [
        2250,
        -0.20000000298023224,
        -1973.763427734375
      ],
      "type": "VEC3"
    },
    {
      "bufferView": 2,
      "byteOffset": 0,
      "componentType": 5126,
      "count": 2326,
      "max": [
        0.9991238117218018,
        1,
        1
      ],
      "min": [
        -0.9991716146469116,
        -1,
        -0.9991363286972046
      ],
      "type": "VEC3"
    },
    {
      "bufferView": 3,
      "byteOffset": 0,
      "componentType": 5126,
      "count": 2326,
      "max": [
        0.999786376953125,
        1,
        0.5776455402374268
      ],
      "min": [
        0.000015259021893143654,
        0.07324330508708954,
        0.00004577706567943096
      ],
      "type": "VEC3"
    }
  ],
  "buffers": [
    {
      "byteLength": 10956,
      "uri": "data:application/octet-stream;base64,"
    },
    {
      "byteLength": 27912,
      "uri": "data:application/octet-stream;base64,"
    },
    {
      "byteLength": 27912,
      "uri": "data:application/octet-stream;base64,"
    },
    {
      "byteLength": 27912,
      "uri": "data:application/octet-stream;base64,"
    }
  ],
  "bufferViews": [
    {
      "buffer": 0,
      "byteOffset": 0,
      "byteLength": 10956
    },
    {
      "buffer": 1,
      "byteOffset": 0,
      "byteLength": 27912
    },
    {
      "buffer": 2,
      "byteOffset": 0,
      "byteLength": 27912
    },
    {
      "buffer": 3,
      "byteOffset": 0,
      "byteLength": 27912
    }
  ],
  "meshes": [
    {
      "primitives": [
        {
          "mode": 4,
          "indices": 0,
          "attributes": {
            "POSITION": 1,
            "NORMAL": 2,
            "COLOR_0": 3
          }
        }
      ]
    }
  ],
  "nodes": [
    {
      "children": [
        1
      ]
    },
    {
      "mesh": 0
    }
  ],
  "scenes": [
    {
      "nodes": [
        0
      ]
    }
  ],
  "scene": 0
}