{
  "asset": {
    "version": "2.0",
    "generator": "COLLADA2GLTF"
  },
  "accessors": [
    {
      "bufferView": 0,
      "byteOffset": 0,
      "componentType": 5123,
      "count": 5004,
      "min": [
        0
      ],
      "max": [
        1741
      ],
      "type": "SCALAR"
    },
    {
      "bufferView": 1,
      "byteOffset": 0,
      "componentType": 5126,
      "count": 1742,
      "max": [
        -4651.86962890625,
        24.524999618530273,
        -389.6408996582031
      ],
      "min": [
        -5959.67822265625,
        12.164999961853027,
        -940.2437133789062
      ],
      "type": "VEC3"
    },
    {
      "bufferView": 2,
      "byteOffset": 0,
      "componentType": 5126,
      "count": 1742,
      "max": [
        0.9207791686058044,
        0.7070935964584351,
        0.9207791686058044
      ],
      "min": [
        -0.9207791686058044,
        -0.7070935964584351,
        -0.9207791686058044
      ],
      "type": "VEC3"
    },
    {
      "bufferView": 3,
      "byteOffset": 0,
      "componentType": 5126,
      "count": 1742,
      "max": [
        0.4480048716068268,
        0.4480048716068268,
        0.4480659067630768
      ],
      "min": [
        0,
        0,
        0
      ],
      "type": "VEC3"
    }
  ],
  "buffers": [
    {
      "byteLength": 10008,
      "uri": "data:application/octet-stream;base64,"
    },
    {
      "byteLength": 20904,
      "uri": "data:application/octet-stream;base64,"
    },
    {
      "byteLength": 20904,
      "uri": "data:application/octet-stream;base64,"
    },
    {
      "byteLength": 20904,
      "uri": "data:application/octet-stream;base64,"
    }
  ],
  "bufferViews": [
    {
      "buffer": 0,
      "byteOffset": 0,
      "byteLength": 10008
    },
    {
      "buffer": 1,
      "byteOffset": 0,
      "byteLength": 20904
    },
    {
      "buffer": 2,
      "byteOffset": 0,
      "byteLength": 20904
    },
    {
      "buffer": 3,
      "byteOffset": 0,
      "byteLength": 20904
    }
  ],
  "meshes": [
    {
      "primitives": [
        {
          "mode": 4,
          "indices": 0,
          "attributes": {
            "POSITION": 1,
            "NORMAL": 2,
            "COLOR_0": 3
          }
        }
      ]
    }
  ],
  "nodes": [
    {
      "children": [
        1
      ]
    },
    {
      "mesh": 0
    }
  ],
  "scenes": [
    {
      "nodes": [
        0
      ]
    }
  ],
  "scene": 0
}