{
  "asset": {
    "version": "2.0",
    "generator": "COLLADA2GLTF"
  },
  "accessors": [
    {
      "bufferView": 0,
      "byteOffset": 0,
      "componentType": 5123,
      "count": 549,
      "min": [
        0
      ],
      "max": [
        209
      ],
      "type": "SCALAR"
    },
    {
      "bufferView": 1,
      "byteOffset": 0,
      "componentType": 5126,
      "count": 210,
      "max": [
        8161.9033203125,
        14.5,
        10294.5068359375
      ],
      "min": [
        7643.20166015625,
        7,
        9946.6328125
      ],
      "type": "VEC3"
    },
    {
      "bufferView": 2,
      "byteOffset": 0,
      "componentType": 5126,
      "count": 210,
      "max": [
        0.8464967608451843,
        -0.04440061375498772,
        0.8464967608451843
      ],
      "min": [
        -0.8464967608451843,
        -0.3162277638912201,
        -0.8464967608451843
      ],
      "type": "VEC3"
    },
    {
      "bufferView": 3,
      "byteOffset": 0,
      "componentType": 5126,
      "count": 210,
      "max": [
        0.4480048716068268,
        0.4480048716068268,
        0.4480659067630768
      ],
      "min": [
        0.4480048716068268,
        0.4480048716068268,
        0.4480659067630768
      ],
      "type": "VEC3"
    }
  ],
  "buffers": [
    {
      "byteLength": 1098,
      "uri": "data:application/octet-stream;base64,"
    },
    {
      "byteLength": 2520,
      "uri": "data:application/octet-stream;base64,"
    },
    {
      "byteLength": 2520,
      "uri": "data:application/octet-stream;base64,"
    },
    {
      "byteLength": 2520,
      "uri": "data:application/octet-stream;base64,"
    }
  ],
  "bufferViews": [
    {
      "buffer": 0,
      "byteOffset": 0,
      "byteLength": 1098
    },
    {
      "buffer": 1,
      "byteOffset": 0,
      "byteLength": 2520
    },
    {
      "buffer": 2,
      "byteOffset": 0,
      "byteLength": 2520
    },
    {
      "buffer": 3,
      "byteOffset": 0,
      "byteLength": 2520
    }
  ],
  "meshes": [
    {
      "primitives": [
        {
          "mode": 4,
          "indices": 0,
          "attributes": {
            "POSITION": 1,
            "NORMAL": 2,
            "COLOR_0": 3
          }
        }
      ]
    }
  ],
  "nodes": [
    {
      "children": [
        1
      ]
    },
    {
      "mesh": 0
    }
  ],
  "scenes": [
    {
      "nodes": [
        0
      ]
    }
  ],
  "scene": 0
}