{
  "asset": {
    "version": "2.0",
    "generator": "COLLADA2GLTF"
  },
  "accessors": [
    {
      "bufferView": 0,
      "byteOffset": 0,
      "componentType": 5123,
      "count": 2214,
      "min": [
        0
      ],
      "max": [
        998
      ],
      "type": "SCALAR"
    },
    {
      "bufferView": 1,
      "byteOffset": 0,
      "componentType": 5126,
      "count": 999,
      "max": [
        -2666.30078125,
        0,
        1178.5538330078125
      ],
      "min": [
        -2910,
        0,
        857.0015869140625
      ],
      "type": "VEC3"
    },
    {
      "bufferView": 2,
      "byteOffset": 0,
      "componentType": 5126,
      "count": 999,
      "max": [
        0.8357442617416382,
        1,
        0.9965099692344666
      ],
      "min": [
        -0.9999632239341736,
        0,
        -0.898339033126831
      ],
      "type": "VEC3"
    },
    {
      "bufferView": 3,
      "byteOffset": 0,
      "componentType": 5126,
      "count": 999,
      "max": [
        0.999786376953125,
        1,
        0.26330968737602234
      ],
      "min": [
        0,
        0.07324330508708954,
        0.000015259021893143654
      ],
      "type": "VEC3"
    }
  ],
  "buffers": [
    {
      "byteLength": 4428,
      "uri": "data:application/octet-stream;base64,"
    },
    {
      "byteLength": 11988,
      "uri": "data:application/octet-stream;base64,"
    },
    {
      "byteLength": 11988,
      "uri": "data:application/octet-stream;base64,"
    },
    {
      "byteLength": 11988,
      "uri": "data:application/octet-stream;base64,"
    }
  ],
  "bufferViews": [
    {
      "buffer": 0,
      "byteOffset": 0,
      "byteLength": 4428
    },
    {
      "buffer": 1,
      "byteOffset": 0,
      "byteLength": 11988
    },
    {
      "buffer": 2,
      "byteOffset": 0,
      "byteLength": 11988
    },
    {
      "buffer": 3,
      "byteOffset": 0,
      "byteLength": 11988
    }
  ],
  "meshes": [
    {
      "primitives": [
        {
          "mode": 4,
          "indices": 0,
          "attributes": {
            "POSITION": 1,
            "NORMAL": 2,
            "COLOR_0": 3
          }
        }
      ]
    }
  ],
  "nodes": [
    {
      "children": [
        1
      ]
    },
    {
      "mesh": 0
    }
  ],
  "scenes": [
    {
      "nodes": [
        0
      ]
    }
  ],
  "scene": 0
}