{
  "asset": {
    "version": "2.0",
    "generator": "COLLADA2GLTF"
  },
  "accessors": [
    {
      "bufferView": 0,
      "byteOffset": 0,
      "componentType": 5123,
      "count": 690,
      "min": [
        0
      ],
      "max": [
        378
      ],
      "type": "SCALAR"
    },
    {
      "bufferView": 1,
      "byteOffset": 0,
      "componentType": 5126,
      "count": 379,
      "max": [
        1947.4620361328125,
        0,
        -1404.35302734375
      ],
      "min": [
        1590.0670166015625,
        0,
        -1689.191162109375
      ],
      "type": "VEC3"
    },
    {
      "bufferView": 2,
      "byteOffset": 0,
      "componentType": 5126,
      "count": 379,
      "max": [
        0.9975998401641846,
        1,
        0.9976271390914917
      ],
      "min": [
        -0.9976422786712646,
        0,
        -0.9976258277893066
      ],
      "type": "VEC3"
    },
    {
      "bufferView": 3,
      "byteOffset": 0,
      "componentType": 5126,
      "count": 379,
      "max": [
        0.999786376953125,
        1,
        0.26330968737602234
      ],
      "min": [
        0.000015259021893143654,
        0.07324330508708954,
        0.00004577706567943096
      ],
      "type": "VEC3"
    }
  ],
  "buffers": [
    {
      "byteLength": 1380,
      "uri": "data:application/octet-stream;base64,"
    },
    {
      "byteLength": 4548,
      "uri": "data:application/octet-stream;base64,"
    },
    {
      "byteLength": 4548,
      "uri": "data:application/octet-stream;base64,"
    },
    {
      "byteLength": 4548,
      "uri": "data:application/octet-stream;base64,"
    }
  ],
  "bufferViews": [
    {
      "buffer": 0,
      "byteOffset": 0,
      "byteLength": 1380
    },
    {
      "buffer": 1,
      "byteOffset": 0,
      "byteLength": 4548
    },
    {
      "buffer": 2,
      "byteOffset": 0,
      "byteLength": 4548
    },
    {
      "buffer": 3,
      "byteOffset": 0,
      "byteLength": 4548
    }
  ],
  "meshes": [
    {
      "primitives": [
        {
          "mode": 4,
          "indices": 0,
          "attributes": {
            "POSITION": 1,
            "NORMAL": 2,
            "COLOR_0": 3
          }
        }
      ]
    }
  ],
  "nodes": [
    {
      "children": [
        1
      ]
    },
    {
      "mesh": 0
    }
  ],
  "scenes": [
    {
      "nodes": [
        0
      ]
    }
  ],
  "scene": 0
}