{
  "asset": {
    "version": "2.0",
    "generator": "COLLADA2GLTF"
  },
  "accessors": [
    {
      "bufferView": 0,
      "byteOffset": 0,
      "componentType": 5123,
      "count": 1494,
      "min": [
        0
      ],
      "max": [
        655
      ],
      "type": "SCALAR"
    },
    {
      "bufferView": 1,
      "byteOffset": 0,
      "componentType": 5126,
      "count": 656,
      "max": [
        -444.9840087890625,
        3,
        -768.4010009765625
      ],
      "min": [
        -1166.427978515625,
        0,
        -1262.5450439453125
      ],
      "type": "VEC3"
    },
    {
      "bufferView": 2,
      "byteOffset": 0,
      "componentType": 5126,
      "count": 656,
      "max": [
        1,
        1,
        1
      ],
      "min": [
        -1,
        -1,
        -1
      ],
      "type": "VEC3"
    },
    {
      "bufferView": 3,
      "byteOffset": 0,
      "componentType": 5126,
      "count": 656,
      "max": [
        0.9549705982208252,
        1,
        1
      ],
      "min": [
        0,
        0.00003051804378628731,
        0.00004577706567943096
      ],
      "type": "VEC3"
    }
  ],
  "buffers": [
    {
      "byteLength": 2988,
      "uri": "data:application/octet-stream;base64,"
    },
    {
      "byteLength": 7872,
      "uri": "data:application/octet-stream;base64,"
    },
    {
      "byteLength": 7872,
      "uri": "data:application/octet-stream;base64,"
    },
    {
      "byteLength": 7872,
      "uri": "data:application/octet-stream;base64,"
    }
  ],
  "bufferViews": [
    {
      "buffer": 0,
      "byteOffset": 0,
      "byteLength": 2988
    },
    {
      "buffer": 1,
      "byteOffset": 0,
      "byteLength": 7872
    },
    {
      "buffer": 2,
      "byteOffset": 0,
      "byteLength": 7872
    },
    {
      "buffer": 3,
      "byteOffset": 0,
      "byteLength": 7872
    }
  ],
  "meshes": [
    {
      "primitives": [
        {
          "mode": 4,
          "indices": 0,
          "attributes": {
            "POSITION": 1,
            "NORMAL": 2,
            "COLOR_0": 3
          }
        }
      ]
    }
  ],
  "nodes": [
    {
      "children": [
        1
      ]
    },
    {
      "mesh": 0
    }
  ],
  "scenes": [
    {
      "nodes": [
        0
      ]
    }
  ],
  "scene": 0
}