{
  "asset": {
    "version": "2.0",
    "generator": "COLLADA2GLTF"
  },
  "accessors": [
    {
      "bufferView": 0,
      "byteOffset": 0,
      "componentType": 5123,
      "count": 1365,
      "min": [
        0
      ],
      "max": [
        597
      ],
      "type": "SCALAR"
    },
    {
      "bufferView": 1,
      "byteOffset": 0,
      "componentType": 5126,
      "count": 598,
      "max": [
        204.73548889160156,
        0,
        120
      ],
      "min": [
        -60,
        0,
        -150
      ],
      "type": "VEC3"
    },
    {
      "bufferView": 2,
      "byteOffset": 0,
      "componentType": 5126,
      "count": 598,
      "max": [
        0.8789689540863037,
        1,
        0.5153617262840271
      ],
      "min": [
        -0.8569727540016174,
        0,
        -0.8901413679122925
      ],
      "type": "VEC3"
    },
    {
      "bufferView": 3,
      "byteOffset": 0,
      "componentType": 5126,
      "count": 598,
      "max": [
        0.999786376953125,
        1,
        0.26330968737602234
      ],
      "min": [
        0.000015259021893143654,
        0.07324330508708954,
        0.00004577706567943096
      ],
      "type": "VEC3"
    }
  ],
  "buffers": [
    {
      "byteLength": 2730,
      "uri": "data:application/octet-stream;base64,"
    },
    {
      "byteLength": 7176,
      "uri": "data:application/octet-stream;base64,"
    },
    {
      "byteLength": 7176,
      "uri": "data:application/octet-stream;base64,"
    },
    {
      "byteLength": 7176,
      "uri": "data:application/octet-stream;base64,"
    }
  ],
  "bufferViews": [
    {
      "buffer": 0,
      "byteOffset": 0,
      "byteLength": 2730
    },
    {
      "buffer": 1,
      "byteOffset": 0,
      "byteLength": 7176
    },
    {
      "buffer": 2,
      "byteOffset": 0,
      "byteLength": 7176
    },
    {
      "buffer": 3,
      "byteOffset": 0,
      "byteLength": 7176
    }
  ],
  "meshes": [
    {
      "primitives": [
        {
          "mode": 4,
          "indices": 0,
          "attributes": {
            "POSITION": 1,
            "NORMAL": 2,
            "COLOR_0": 3
          }
        }
      ]
    }
  ],
  "nodes": [
    {
      "children": [
        1
      ]
    },
    {
      "mesh": 0
    }
  ],
  "scenes": [
    {
      "nodes": [
        0
      ]
    }
  ],
  "scene": 0
}