{
  "asset": {
    "version": "2.0",
    "generator": "COLLADA2GLTF"
  },
  "accessors": [
    {
      "bufferView": 0,
      "byteOffset": 0,
      "componentType": 5123,
      "count": 1566,
      "min": [
        0
      ],
      "max": [
        655
      ],
      "type": "SCALAR"
    },
    {
      "bufferView": 1,
      "byteOffset": 0,
      "componentType": 5126,
      "count": 656,
      "max": [
        86.58525085449219,
        0,
        -502.14447021484375
      ],
      "min": [
        -210,
        0,
        -835.01953125
      ],
      "type": "VEC3"
    },
    {
      "bufferView": 2,
      "byteOffset": 0,
      "componentType": 5126,
      "count": 656,
      "max": [
        0.7260728478431702,
        1,
        0.7355430126190186
      ],
      "min": [
        -0.713498055934906,
        0,
        -0.7102261781692505
      ],
      "type": "VEC3"
    },
    {
      "bufferView": 3,
      "byteOffset": 0,
      "componentType": 5126,
      "count": 656,
      "max": [
        0.999786376953125,
        1,
        0.26330968737602234
      ],
      "min": [
        0.000015259021893143654,
        0.07324330508708954,
        0.00004577706567943096
      ],
      "type": "VEC3"
    }
  ],
  "buffers": [
    {
      "byteLength": 3132,
      "uri": "data:application/octet-stream;base64,"
    },
    {
      "byteLength": 7872,
      "uri": "data:application/octet-stream;base64,"
    },
    {
      "byteLength": 7872,
      "uri": "data:application/octet-stream;base64,"
    },
    {
      "byteLength": 7872,
      "uri": "data:application/octet-stream;base64,"
    }
  ],
  "bufferViews": [
    {
      "buffer": 0,
      "byteOffset": 0,
      "byteLength": 3132
    },
    {
      "buffer": 1,
      "byteOffset": 0,
      "byteLength": 7872
    },
    {
      "buffer": 2,
      "byteOffset": 0,
      "byteLength": 7872
    },
    {
      "buffer": 3,
      "byteOffset": 0,
      "byteLength": 7872
    }
  ],
  "meshes": [
    {
      "primitives": [
        {
          "mode": 4,
          "indices": 0,
          "attributes": {
            "POSITION": 1,
            "NORMAL": 2,
            "COLOR_0": 3
          }
        }
      ]
    }
  ],
  "nodes": [
    {
      "children": [
        1
      ]
    },
    {
      "mesh": 0
    }
  ],
  "scenes": [
    {
      "nodes": [
        0
      ]
    }
  ],
  "scene": 0
}