{
  "asset": {
    "version": "2.0",
    "generator": "COLLADA2GLTF"
  },
  "accessors": [
    {
      "bufferView": 0,
      "byteOffset": 0,
      "componentType": 5123,
      "count": 2448,
      "min": [
        0
      ],
      "max": [
        1011
      ],
      "type": "SCALAR"
    },
    {
      "bufferView": 1,
      "byteOffset": 0,
      "componentType": 5126,
      "count": 1012,
      "max": [
        30,
        7.5,
        -105.26399993896484
      ],
      "min": [
        -249.94041442871094,
        -0.20000000298023224,
        -461.8164978027344
      ],
      "type": "VEC3"
    },
    {
      "bufferView": 2,
      "byteOffset": 0,
      "componentType": 5126,
      "count": 1012,
      "max": [
        0.9506338834762573,
        1,
        0.9506316184997559
      ],
      "min": [
        -0.9506316184997559,
        -1,
        -0.9465987086296082
      ],
      "type": "VEC3"
    },
    {
      "bufferView": 3,
      "byteOffset": 0,
      "componentType": 5126,
      "count": 1012,
      "max": [
        0.999786376953125,
        1,
        1
      ],
      "min": [
        0,
        0.00003051804378628731,
        0
      ],
      "type": "VEC3"
    }
  ],
  "buffers": [
    {
      "byteLength": 4896,
      "uri": "data:application/octet-stream;base64,"
    },
    {
      "byteLength": 12144,
      "uri": "data:application/octet-stream;base64,"
    },
    {
      "byteLength": 12144,
      "uri": "data:application/octet-stream;base64,"
    },
    {
      "byteLength": 12144,
      "uri": "data:application/octet-stream;base64,"
    }
  ],
  "bufferViews": [
    {
      "buffer": 0,
      "byteOffset": 0,
      "byteLength": 4896
    },
    {
      "buffer": 1,
      "byteOffset": 0,
      "byteLength": 12144
    },
    {
      "buffer": 2,
      "byteOffset": 0,
      "byteLength": 12144
    },
    {
      "buffer": 3,
      "byteOffset": 0,
      "byteLength": 12144
    }
  ],
  "meshes": [
    {
      "primitives": [
        {
          "mode": 4,
          "indices": 0,
          "attributes": {
            "POSITION": 1,
            "NORMAL": 2,
            "COLOR_0": 3
          }
        }
      ]
    }
  ],
  "nodes": [
    {
      "children": [
        1
      ]
    },
    {
      "mesh": 0
    }
  ],
  "scenes": [
    {
      "nodes": [
        0
      ]
    }
  ],
  "scene": 0
}