{
  "asset": {
    "version": "2.0",
    "generator": "COLLADA2GLTF"
  },
  "accessors": [
    {
      "bufferView": 0,
      "byteOffset": 0,
      "componentType": 5123,
      "count": 8358,
      "min": [
        0
      ],
      "max": [
        3003
      ],
      "type": "SCALAR"
    },
    {
      "bufferView": 1,
      "byteOffset": 0,
      "componentType": 5126,
      "count": 3004,
      "max": [
        1759.5404052734375,
        7.5,
        -696.5147094726562
      ],
      "min": [
        1538.0423583984375,
        -0.20000000298023224,
        -1007.2463989257812
      ],
      "type": "VEC3"
    },
    {
      "bufferView": 2,
      "byteOffset": 0,
      "componentType": 5126,
      "count": 3004,
      "max": [
        0.8339173197746277,
        1,
        0.8339173197746277
      ],
      "min": [
        -0.9837282299995422,
        -1,
        -0.8340057134628296
      ],
      "type": "VEC3"
    },
    {
      "bufferView": 3,
      "byteOffset": 0,
      "componentType": 5126,
      "count": 3004,
      "max": [
        0.999786376953125,
        1,
        0.7875028848648071
      ],
      "min": [
        0.000015259021893143654,
        0.07324330508708954,
        0.00004577706567943096
      ],
      "type": "VEC3"
    }
  ],
  "buffers": [
    {
      "byteLength": 16716,
      "uri": "data:application/octet-stream;base64,"
    },
    {
      "byteLength": 36048,
      "uri": "data:application/octet-stream;base64,"
    },
    {
      "byteLength": 36048,
      "uri": "data:application/octet-stream;base64,"
    },
    {
      "byteLength": 36048,
      "uri": "data:application/octet-stream;base64,"
    }
  ],
  "bufferViews": [
    {
      "buffer": 0,
      "byteOffset": 0,
      "byteLength": 16716
    },
    {
      "buffer": 1,
      "byteOffset": 0,
      "byteLength": 36048
    },
    {
      "buffer": 2,
      "byteOffset": 0,
      "byteLength": 36048
    },
    {
      "buffer": 3,
      "byteOffset": 0,
      "byteLength": 36048
    }
  ],
  "meshes": [
    {
      "primitives": [
        {
          "mode": 4,
          "indices": 0,
          "attributes": {
            "POSITION": 1,
            "NORMAL": 2,
            "COLOR_0": 3
          }
        }
      ]
    }
  ],
  "nodes": [
    {
      "children": [
        1
      ]
    },
    {
      "mesh": 0
    }
  ],
  "scenes": [
    {
      "nodes": [
        0
      ]
    }
  ],
  "scene": 0
}