{
  "asset": {
    "version": "2.0",
    "generator": "COLLADA2GLTF"
  },
  "accessors": [
    {
      "bufferView": 0,
      "byteOffset": 0,
      "componentType": 5123,
      "count": 2043,
      "min": [
        0
      ],
      "max": [
        1053
      ],
      "type": "SCALAR"
    },
    {
      "bufferView": 1,
      "byteOffset": 0,
      "componentType": 5126,
      "count": 1054,
      "max": [
        -586.3579711914062,
        0.0010000000474974513,
        1710
      ],
      "min": [
        -824.8709716796875,
        0,
        1436.582763671875
      ],
      "type": "VEC3"
    },
    {
      "bufferView": 2,
      "byteOffset": 0,
      "componentType": 5126,
      "count": 1054,
      "max": [
        0.9970510601997375,
        1,
        0.9971429109573364
      ],
      "min": [
        -0.9732421040534973,
        0,
        -0.9970482587814331
      ],
      "type": "VEC3"
    },
    {
      "bufferView": 3,
      "byteOffset": 0,
      "componentType": 5126,
      "count": 1054,
      "max": [
        0.999786376953125,
        1,
        0.7875028848648071
      ],
      "min": [
        0.000015259021893143654,
        0.07324330508708954,
        0.00004577706567943096
      ],
      "type": "VEC3"
    }
  ],
  "buffers": [
    {
      "byteLength": 4086,
      "uri": "data:application/octet-stream;base64,"
    },
    {
      "byteLength": 12648,
      "uri": "data:application/octet-stream;base64,"
    },
    {
      "byteLength": 12648,
      "uri": "data:application/octet-stream;base64,"
    },
    {
      "byteLength": 12648,
      "uri": "data:application/octet-stream;base64,"
    }
  ],
  "bufferViews": [
    {
      "buffer": 0,
      "byteOffset": 0,
      "byteLength": 4086
    },
    {
      "buffer": 1,
      "byteOffset": 0,
      "byteLength": 12648
    },
    {
      "buffer": 2,
      "byteOffset": 0,
      "byteLength": 12648
    },
    {
      "buffer": 3,
      "byteOffset": 0,
      "byteLength": 12648
    }
  ],
  "meshes": [
    {
      "primitives": [
        {
          "mode": 4,
          "indices": 0,
          "attributes": {
            "POSITION": 1,
            "NORMAL": 2,
            "COLOR_0": 3
          }
        }
      ]
    }
  ],
  "nodes": [
    {
      "children": [
        1
      ]
    },
    {
      "mesh": 0
    }
  ],
  "scenes": [
    {
      "nodes": [
        0
      ]
    }
  ],
  "scene": 0
}