{
  "asset": {
    "version": "2.0",
    "generator": "COLLADA2GLTF"
  },
  "accessors": [
    {
      "bufferView": 0,
      "byteOffset": 0,
      "componentType": 5123,
      "count": 3939,
      "min": [
        0
      ],
      "max": [
        1439
      ],
      "type": "SCALAR"
    },
    {
      "bufferView": 1,
      "byteOffset": 0,
      "componentType": 5126,
      "count": 1440,
      "max": [
        -804.7169799804688,
        0.10000000149011612,
        -660
      ],
      "min": [
        -985.2833251953125,
        -0.20000000298023224,
        -951.8936157226562
      ],
      "type": "VEC3"
    },
    {
      "bufferView": 2,
      "byteOffset": 0,
      "componentType": 5126,
      "count": 1440,
      "max": [
        0.8139473795890808,
        1,
        0.8344513177871704
      ],
      "min": [
        -0.8344513177871704,
        -1,
        -0.8344513177871704
      ],
      "type": "VEC3"
    },
    {
      "bufferView": 3,
      "byteOffset": 0,
      "componentType": 5126,
      "count": 1440,
      "max": [
        0.7872740030288696,
        1,
        0.7875028848648071
      ],
      "min": [
        0.000015259021893143654,
        0.07324330508708954,
        0.00004577706567943096
      ],
      "type": "VEC3"
    }
  ],
  "buffers": [
    {
      "byteLength": 7878,
      "uri": "data:application/octet-stream;base64,"
    },
    {
      "byteLength": 17280,
      "uri": "data:application/octet-stream;base64,"
    },
    {
      "byteLength": 17280,
      "uri": "data:application/octet-stream;base64,"
    },
    {
      "byteLength": 17280,
      "uri": "data:application/octet-stream;base64,"
    }
  ],
  "bufferViews": [
    {
      "buffer": 0,
      "byteOffset": 0,
      "byteLength": 7878
    },
    {
      "buffer": 1,
      "byteOffset": 0,
      "byteLength": 17280
    },
    {
      "buffer": 2,
      "byteOffset": 0,
      "byteLength": 17280
    },
    {
      "buffer": 3,
      "byteOffset": 0,
      "byteLength": 17280
    }
  ],
  "meshes": [
    {
      "primitives": [
        {
          "mode": 4,
          "indices": 0,
          "attributes": {
            "POSITION": 1,
            "NORMAL": 2,
            "COLOR_0": 3
          }
        }
      ]
    }
  ],
  "nodes": [
    {
      "children": [
        1
      ]
    },
    {
      "mesh": 0
    }
  ],
  "scenes": [
    {
      "nodes": [
        0
      ]
    }
  ],
  "scene": 0
}