{
  "asset": {
    "version": "2.0",
    "generator": "COLLADA2GLTF"
  },
  "accessors": [
    {
      "bufferView": 0,
      "byteOffset": 0,
      "componentType": 5123,
      "count": 4821,
      "min": [
        0
      ],
      "max": [
        1983
      ],
      "type": "SCALAR"
    },
    {
      "bufferView": 1,
      "byteOffset": 0,
      "componentType": 5126,
      "count": 1984,
      "max": [
        598.18701171875,
        0.0010000000474974513,
        -1021.4769897460938
      ],
      "min": [
        90,
        0,
        -1861.220947265625
      ],
      "type": "VEC3"
    },
    {
      "bufferView": 2,
      "byteOffset": 0,
      "componentType": 5126,
      "count": 1984,
      "max": [
        0.9315513968467712,
        1,
        0.9534865617752075
      ],
      "min": [
        -0.9570348858833313,
        0,
        -0.9315091967582703
      ],
      "type": "VEC3"
    },
    {
      "bufferView": 3,
      "byteOffset": 0,
      "componentType": 5126,
      "count": 1984,
      "max": [
        0.999786376953125,
        1,
        1
      ],
      "min": [
        0,
        0.00003051804378628731,
        0.00004577706567943096
      ],
      "type": "VEC3"
    }
  ],
  "buffers": [
    {
      "byteLength": 9642,
      "uri": "data:application/octet-stream;base64,"
    },
    {
      "byteLength": 23808,
      "uri": "data:application/octet-stream;base64,"
    },
    {
      "byteLength": 23808,
      "uri": "data:application/octet-stream;base64,"
    },
    {
      "byteLength": 23808,
      "uri": "data:application/octet-stream;base64,"
    }
  ],
  "bufferViews": [
    {
      "buffer": 0,
      "byteOffset": 0,
      "byteLength": 9642
    },
    {
      "buffer": 1,
      "byteOffset": 0,
      "byteLength": 23808
    },
    {
      "buffer": 2,
      "byteOffset": 0,
      "byteLength": 23808
    },
    {
      "buffer": 3,
      "byteOffset": 0,
      "byteLength": 23808
    }
  ],
  "meshes": [
    {
      "primitives": [
        {
          "mode": 4,
          "indices": 0,
          "attributes": {
            "POSITION": 1,
            "NORMAL": 2,
            "COLOR_0": 3
          }
        }
      ]
    }
  ],
  "nodes": [
    {
      "children": [
        1
      ]
    },
    {
      "mesh": 0
    }
  ],
  "scenes": [
    {
      "nodes": [
        0
      ]
    }
  ],
  "scene": 0
}