{
  "asset": {
    "version": "2.0",
    "generator": "COLLADA2GLTF"
  },
  "accessors": [
    {
      "bufferView": 0,
      "byteOffset": 0,
      "componentType": 5123,
      "count": 2388,
      "min": [
        0
      ],
      "max": [
        823
      ],
      "type": "SCALAR"
    },
    {
      "bufferView": 1,
      "byteOffset": 0,
      "componentType": 5126,
      "count": 824,
      "max": [
        -654.5348510742188,
        0.06400000303983688,
        2365.353271484375
      ],
      "min": [
        -791.7247314453125,
        0,
        2317.95703125
      ],
      "type": "VEC3"
    },
    {
      "bufferView": 2,
      "byteOffset": 0,
      "componentType": 5126,
      "count": 824,
      "max": [
        0.9452244639396667,
        1,
        0.9452244639396667
      ],
      "min": [
        -0.9452244639396667,
        0,
        -0.9452244639396667
      ],
      "type": "VEC3"
    },
    {
      "bufferView": 3,
      "byteOffset": 0,
      "componentType": 5126,
      "count": 824,
      "max": [
        0.07322804629802704,
        0.07324330508708954,
        0.07325856387615204
      ],
      "min": [
        0.07322804629802704,
        0.03309682011604309,
        0.03311207890510559
      ],
      "type": "VEC3"
    }
  ],
  "buffers": [
    {
      "byteLength": 4776,
      "uri": "data:application/octet-stream;base64,"
    },
    {
      "byteLength": 9888,
      "uri": "data:application/octet-stream;base64,"
    },
    {
      "byteLength": 9888,
      "uri": "data:application/octet-stream;base64,"
    },
    {
      "byteLength": 9888,
      "uri": "data:application/octet-stream;base64,"
    }
  ],
  "bufferViews": [
    {
      "buffer": 0,
      "byteOffset": 0,
      "byteLength": 4776
    },
    {
      "buffer": 1,
      "byteOffset": 0,
      "byteLength": 9888
    },
    {
      "buffer": 2,
      "byteOffset": 0,
      "byteLength": 9888
    },
    {
      "buffer": 3,
      "byteOffset": 0,
      "byteLength": 9888
    }
  ],
  "meshes": [
    {
      "primitives": [
        {
          "mode": 4,
          "indices": 0,
          "attributes": {
            "POSITION": 1,
            "NORMAL": 2,
            "COLOR_0": 3
          }
        }
      ]
    }
  ],
  "nodes": [
    {
      "children": [
        1
      ]
    },
    {
      "mesh": 0
    }
  ],
  "scenes": [
    {
      "nodes": [
        0
      ]
    }
  ],
  "scene": 0
}