{
  "asset": {
    "version": "2.0",
    "generator": "COLLADA2GLTF"
  },
  "accessors": [
    {
      "bufferView": 0,
      "byteOffset": 0,
      "componentType": 5123,
      "count": 1479,
      "min": [
        0
      ],
      "max": [
        632
      ],
      "type": "SCALAR"
    },
    {
      "bufferView": 1,
      "byteOffset": 0,
      "componentType": 5126,
      "count": 633,
      "max": [
        1726.726806640625,
        0.10000000149011612,
        -703.04296875
      ],
      "min": [
        1626.421142578125,
        0,
        -825.4264526367188
      ],
      "type": "VEC3"
    },
    {
      "bufferView": 2,
      "byteOffset": 0,
      "componentType": 5126,
      "count": 633,
      "max": [
        0.7802181243896484,
        1,
        0.7802181243896484
      ],
      "min": [
        -0.9837282299995422,
        0,
        -0.77385413646698
      ],
      "type": "VEC3"
    },
    {
      "bufferView": 3,
      "byteOffset": 0,
      "componentType": 5126,
      "count": 633,
      "max": [
        0.999786376953125,
        1,
        0.7875028848648071
      ],
      "min": [
        0.000015259021893143654,
        0.07324330508708954,
        0.00004577706567943096
      ],
      "type": "VEC3"
    }
  ],
  "buffers": [
    {
      "byteLength": 2958,
      "uri": "data:application/octet-stream;base64,"
    },
    {
      "byteLength": 7596,
      "uri": "data:application/octet-stream;base64,"
    },
    {
      "byteLength": 7596,
      "uri": "data:application/octet-stream;base64,"
    },
    {
      "byteLength": 7596,
      "uri": "data:application/octet-stream;base64,"
    }
  ],
  "bufferViews": [
    {
      "buffer": 0,
      "byteOffset": 0,
      "byteLength": 2958
    },
    {
      "buffer": 1,
      "byteOffset": 0,
      "byteLength": 7596
    },
    {
      "buffer": 2,
      "byteOffset": 0,
      "byteLength": 7596
    },
    {
      "buffer": 3,
      "byteOffset": 0,
      "byteLength": 7596
    }
  ],
  "meshes": [
    {
      "primitives": [
        {
          "mode": 4,
          "indices": 0,
          "attributes": {
            "POSITION": 1,
            "NORMAL": 2,
            "COLOR_0": 3
          }
        }
      ]
    }
  ],
  "nodes": [
    {
      "children": [
        1
      ]
    },
    {
      "mesh": 0
    }
  ],
  "scenes": [
    {
      "nodes": [
        0
      ]
    }
  ],
  "scene": 0
}