{
  "asset": {
    "version": "2.0",
    "generator": "COLLADA2GLTF"
  },
  "accessors": [
    {
      "bufferView": 0,
      "byteOffset": 0,
      "componentType": 5123,
      "count": 2946,
      "min": [
        0
      ],
      "max": [
        1920
      ],
      "type": "SCALAR"
    },
    {
      "bufferView": 1,
      "byteOffset": 0,
      "componentType": 5126,
      "count": 1921,
      "max": [
        642.905029296875,
        22.5,
        335.92498779296875
      ],
      "min": [
        414.5530090332031,
        0,
        -331.3900146484375
      ],
      "type": "VEC3"
    },
    {
      "bufferView": 2,
      "byteOffset": 0,
      "componentType": 5126,
      "count": 1921,
      "max": [
        1,
        1,
        1
      ],
      "min": [
        -1,
        0,
        -0.9999977350234985
      ],
      "type": "VEC3"
    },
    {
      "bufferView": 3,
      "byteOffset": 0,
      "componentType": 5126,
      "count": 1921,
      "max": [
        0.999786376953125,
        0.7875181436538696,
        0.26330968737602234
      ],
      "min": [
        0.00004577706567943096,
        0.00003051804378628731,
        0
      ],
      "type": "VEC3"
    }
  ],
  "buffers": [
    {
      "byteLength": 5892,
      "uri": "data:application/octet-stream;base64,"
    },
    {
      "byteLength": 23052,
      "uri": "data:application/octet-stream;base64,"
    },
    {
      "byteLength": 23052,
      "uri": "data:application/octet-stream;base64,"
    },
    {
      "byteLength": 23052,
      "uri": "data:application/octet-stream;base64,"
    }
  ],
  "bufferViews": [
    {
      "buffer": 0,
      "byteOffset": 0,
      "byteLength": 5892
    },
    {
      "buffer": 1,
      "byteOffset": 0,
      "byteLength": 23052
    },
    {
      "buffer": 2,
      "byteOffset": 0,
      "byteLength": 23052
    },
    {
      "buffer": 3,
      "byteOffset": 0,
      "byteLength": 23052
    }
  ],
  "meshes": [
    {
      "primitives": [
        {
          "mode": 4,
          "indices": 0,
          "attributes": {
            "POSITION": 1,
            "NORMAL": 2,
            "COLOR_0": 3
          }
        }
      ]
    }
  ],
  "nodes": [
    {
      "children": [
        1
      ]
    },
    {
      "mesh": 0
    }
  ],
  "scenes": [
    {
      "nodes": [
        0
      ]
    }
  ],
  "scene": 0
}