{
  "asset": {
    "version": "2.0",
    "generator": "COLLADA2GLTF"
  },
  "accessors": [
    {
      "bufferView": 0,
      "byteOffset": 0,
      "componentType": 5123,
      "count": 3141,
      "min": [
        0
      ],
      "max": [
        1074
      ],
      "type": "SCALAR"
    },
    {
      "bufferView": 1,
      "byteOffset": 0,
      "componentType": 5126,
      "count": 1075,
      "max": [
        730.441650390625,
        0.06400000303983688,
        2763.728515625
      ],
      "min": [
        477.0787048339844,
        0,
        2492.620361328125
      ],
      "type": "VEC3"
    },
    {
      "bufferView": 2,
      "byteOffset": 0,
      "componentType": 5126,
      "count": 1075,
      "max": [
        0.9440768361091614,
        1,
        0.9440768361091614
      ],
      "min": [
        -0.9440768361091614,
        0,
        -0.9440768361091614
      ],
      "type": "VEC3"
    },
    {
      "bufferView": 3,
      "byteOffset": 0,
      "componentType": 5126,
      "count": 1075,
      "max": [
        0.07322804629802704,
        0.07324330508708954,
        0.07325856387615204
      ],
      "min": [
        0.07322804629802704,
        0.03309682011604309,
        0.03311207890510559
      ],
      "type": "VEC3"
    }
  ],
  "buffers": [
    {
      "byteLength": 6282,
      "uri": "data:application/octet-stream;base64,"
    },
    {
      "byteLength": 12900,
      "uri": "data:application/octet-stream;base64,"
    },
    {
      "byteLength": 12900,
      "uri": "data:application/octet-stream;base64,"
    },
    {
      "byteLength": 12900,
      "uri": "data:application/octet-stream;base64,"
    }
  ],
  "bufferViews": [
    {
      "buffer": 0,
      "byteOffset": 0,
      "byteLength": 6282
    },
    {
      "buffer": 1,
      "byteOffset": 0,
      "byteLength": 12900
    },
    {
      "buffer": 2,
      "byteOffset": 0,
      "byteLength": 12900
    },
    {
      "buffer": 3,
      "byteOffset": 0,
      "byteLength": 12900
    }
  ],
  "meshes": [
    {
      "primitives": [
        {
          "mode": 4,
          "indices": 0,
          "attributes": {
            "POSITION": 1,
            "NORMAL": 2,
            "COLOR_0": 3
          }
        }
      ]
    }
  ],
  "nodes": [
    {
      "children": [
        1
      ]
    },
    {
      "mesh": 0
    }
  ],
  "scenes": [
    {
      "nodes": [
        0
      ]
    }
  ],
  "scene": 0
}