{
  "asset": {
    "version": "2.0",
    "generator": "COLLADA2GLTF"
  },
  "accessors": [
    {
      "bufferView": 0,
      "byteOffset": 0,
      "componentType": 5123,
      "count": 363,
      "min": [
        0
      ],
      "max": [
        134
      ],
      "type": "SCALAR"
    },
    {
      "bufferView": 1,
      "byteOffset": 0,
      "componentType": 5126,
      "count": 135,
      "max": [
        263.7931213378906,
        0,
        -116.9218978881836
      ],
      "min": [
        138.86990356445312,
        -3,
        -209.16983032226562
      ],
      "type": "VEC3"
    },
    {
      "bufferView": 2,
      "byteOffset": 0,
      "componentType": 5126,
      "count": 135,
      "max": [
        0.7866687178611755,
        1,
        0.7866687178611755
      ],
      "min": [
        -0.7866687178611755,
        -1,
        -0.7866687178611755
      ],
      "type": "VEC3"
    },
    {
      "bufferView": 3,
      "byteOffset": 0,
      "componentType": 5126,
      "count": 135,
      "max": [
        0.21585412323474884,
        0.21585412323474884,
        0.21589989960193634
      ],
      "min": [
        0.21585412323474884,
        0.21585412323474884,
        0.21589989960193634
      ],
      "type": "VEC3"
    }
  ],
  "buffers": [
    {
      "byteLength": 726,
      "uri": "data:application/octet-stream;base64,"
    },
    {
      "byteLength": 1620,
      "uri": "data:application/octet-stream;base64,"
    },
    {
      "byteLength": 1620,
      "uri": "data:application/octet-stream;base64,"
    },
    {
      "byteLength": 1620,
      "uri": "data:application/octet-stream;base64,"
    }
  ],
  "bufferViews": [
    {
      "buffer": 0,
      "byteOffset": 0,
      "byteLength": 726
    },
    {
      "buffer": 1,
      "byteOffset": 0,
      "byteLength": 1620
    },
    {
      "buffer": 2,
      "byteOffset": 0,
      "byteLength": 1620
    },
    {
      "buffer": 3,
      "byteOffset": 0,
      "byteLength": 1620
    }
  ],
  "meshes": [
    {
      "primitives": [
        {
          "mode": 4,
          "indices": 0,
          "attributes": {
            "POSITION": 1,
            "NORMAL": 2,
            "COLOR_0": 3
          }
        }
      ]
    }
  ],
  "nodes": [
    {
      "children": [
        1
      ]
    },
    {
      "mesh": 0
    }
  ],
  "scenes": [
    {
      "nodes": [
        0
      ]
    }
  ],
  "scene": 0
}