{
  "asset": {
    "version": "2.0",
    "generator": "COLLADA2GLTF"
  },
  "accessors": [
    {
      "bufferView": 0,
      "byteOffset": 0,
      "componentType": 5123,
      "count": 4455,
      "min": [
        0
      ],
      "max": [
        1492
      ],
      "type": "SCALAR"
    },
    {
      "bufferView": 1,
      "byteOffset": 0,
      "componentType": 5126,
      "count": 1493,
      "max": [
        76.43107604980469,
        0.06400000303983688,
        2613.55078125
      ],
      "min": [
        35.16211700439453,
        0,
        2597.368408203125
      ],
      "type": "VEC3"
    },
    {
      "bufferView": 2,
      "byteOffset": 0,
      "componentType": 5126,
      "count": 1493,
      "max": [
        0.9440768361091614,
        1,
        0.9440768361091614
      ],
      "min": [
        -0.9440768361091614,
        0,
        -0.9440768361091614
      ],
      "type": "VEC3"
    },
    {
      "bufferView": 3,
      "byteOffset": 0,
      "componentType": 5126,
      "count": 1493,
      "max": [
        0.07322804629802704,
        0.03309682011604309,
        0.03311207890510559
      ],
      "min": [
        0.07322804629802704,
        0.03309682011604309,
        0.03311207890510559
      ],
      "type": "VEC3"
    }
  ],
  "buffers": [
    {
      "byteLength": 8910,
      "uri": "data:application/octet-stream;base64,"
    },
    {
      "byteLength": 17916,
      "uri": "data:application/octet-stream;base64,"
    },
    {
      "byteLength": 17916,
      "uri": "data:application/octet-stream;base64,"
    },
    {
      "byteLength": 17916,
      "uri": "data:application/octet-stream;base64,"
    }
  ],
  "bufferViews": [
    {
      "buffer": 0,
      "byteOffset": 0,
      "byteLength": 8910
    },
    {
      "buffer": 1,
      "byteOffset": 0,
      "byteLength": 17916
    },
    {
      "buffer": 2,
      "byteOffset": 0,
      "byteLength": 17916
    },
    {
      "buffer": 3,
      "byteOffset": 0,
      "byteLength": 17916
    }
  ],
  "meshes": [
    {
      "primitives": [
        {
          "mode": 4,
          "indices": 0,
          "attributes": {
            "POSITION": 1,
            "NORMAL": 2,
            "COLOR_0": 3
          }
        }
      ]
    }
  ],
  "nodes": [
    {
      "children": [
        1
      ]
    },
    {
      "mesh": 0
    }
  ],
  "scenes": [
    {
      "nodes": [
        0
      ]
    }
  ],
  "scene": 0
}