{
  "asset": {
    "version": "2.0",
    "generator": "COLLADA2GLTF"
  },
  "accessors": [
    {
      "bufferView": 0,
      "byteOffset": 0,
      "componentType": 5123,
      "count": 5172,
      "min": [
        0
      ],
      "max": [
        2010
      ],
      "type": "SCALAR"
    },
    {
      "bufferView": 1,
      "byteOffset": 0,
      "componentType": 5126,
      "count": 2011,
      "max": [
        -1070.9393310546875,
        2.299999952316284,
        1429.467041015625
      ],
      "min": [
        -1523.9964599609375,
        -0.20000000298023224,
        840
      ],
      "type": "VEC3"
    },
    {
      "bufferView": 2,
      "byteOffset": 0,
      "componentType": 5126,
      "count": 2011,
      "max": [
        0.9898214340209961,
        1,
        1
      ],
      "min": [
        -0.9898214340209961,
        -1,
        -0.9594929814338684
      ],
      "type": "VEC3"
    },
    {
      "bufferView": 3,
      "byteOffset": 0,
      "componentType": 5126,
      "count": 2011,
      "max": [
        0.999786376953125,
        1,
        0.5776455402374268
      ],
      "min": [
        0.000015259021893143654,
        0.07324330508708954,
        0.00004577706567943096
      ],
      "type": "VEC3"
    }
  ],
  "buffers": [
    {
      "byteLength": 10344,
      "uri": "data:application/octet-stream;base64,"
    },
    {
      "byteLength": 24132,
      "uri": "data:application/octet-stream;base64,"
    },
    {
      "byteLength": 24132,
      "uri": "data:application/octet-stream;base64,"
    },
    {
      "byteLength": 24132,
      "uri": "data:application/octet-stream;base64,"
    }
  ],
  "bufferViews": [
    {
      "buffer": 0,
      "byteOffset": 0,
      "byteLength": 10344
    },
    {
      "buffer": 1,
      "byteOffset": 0,
      "byteLength": 24132
    },
    {
      "buffer": 2,
      "byteOffset": 0,
      "byteLength": 24132
    },
    {
      "buffer": 3,
      "byteOffset": 0,
      "byteLength": 24132
    }
  ],
  "meshes": [
    {
      "primitives": [
        {
          "mode": 4,
          "indices": 0,
          "attributes": {
            "POSITION": 1,
            "NORMAL": 2,
            "COLOR_0": 3
          }
        }
      ]
    }
  ],
  "nodes": [
    {
      "children": [
        1
      ]
    },
    {
      "mesh": 0
    }
  ],
  "scenes": [
    {
      "nodes": [
        0
      ]
    }
  ],
  "scene": 0
}