{
  "asset": {
    "version": "2.0",
    "generator": "COLLADA2GLTF"
  },
  "accessors": [
    {
      "bufferView": 0,
      "byteOffset": 0,
      "componentType": 5123,
      "count": 1326,
      "min": [
        0
      ],
      "max": [
        535
      ],
      "type": "SCALAR"
    },
    {
      "bufferView": 1,
      "byteOffset": 0,
      "componentType": 5126,
      "count": 536,
      "max": [
        -265.1629943847656,
        0.11999999731779099,
        879.0670166015625
      ],
      "min": [
        -510,
        -0.20000000298023224,
        550.4210205078125
      ],
      "type": "VEC3"
    },
    {
      "bufferView": 2,
      "byteOffset": 0,
      "componentType": 5126,
      "count": 536,
      "max": [
        0.8609331250190735,
        1,
        0.6670123934745789
      ],
      "min": [
        -0.8609331250190735,
        0,
        -0.5727320313453674
      ],
      "type": "VEC3"
    },
    {
      "bufferView": 3,
      "byteOffset": 0,
      "componentType": 5126,
      "count": 536,
      "max": [
        0.7872740030288696,
        1,
        1
      ],
      "min": [
        0,
        0.00003051804378628731,
        0.00004577706567943096
      ],
      "type": "VEC3"
    }
  ],
  "buffers": [
    {
      "byteLength": 2652,
      "uri": "data:application/octet-stream;base64,"
    },
    {
      "byteLength": 6432,
      "uri": "data:application/octet-stream;base64,"
    },
    {
      "byteLength": 6432,
      "uri": "data:application/octet-stream;base64,"
    },
    {
      "byteLength": 6432,
      "uri": "data:application/octet-stream;base64,"
    }
  ],
  "bufferViews": [
    {
      "buffer": 0,
      "byteOffset": 0,
      "byteLength": 2652
    },
    {
      "buffer": 1,
      "byteOffset": 0,
      "byteLength": 6432
    },
    {
      "buffer": 2,
      "byteOffset": 0,
      "byteLength": 6432
    },
    {
      "buffer": 3,
      "byteOffset": 0,
      "byteLength": 6432
    }
  ],
  "meshes": [
    {
      "primitives": [
        {
          "mode": 4,
          "indices": 0,
          "attributes": {
            "POSITION": 1,
            "NORMAL": 2,
            "COLOR_0": 3
          }
        }
      ]
    }
  ],
  "nodes": [
    {
      "children": [
        1
      ]
    },
    {
      "mesh": 0
    }
  ],
  "scenes": [
    {
      "nodes": [
        0
      ]
    }
  ],
  "scene": 0
}