{
  "asset": {
    "version": "2.0",
    "generator": "COLLADA2GLTF"
  },
  "accessors": [
    {
      "bufferView": 0,
      "byteOffset": 0,
      "componentType": 5123,
      "count": 1185,
      "min": [
        0
      ],
      "max": [
        427
      ],
      "type": "SCALAR"
    },
    {
      "bufferView": 1,
      "byteOffset": 0,
      "componentType": 5126,
      "count": 428,
      "max": [
        -419.4909973144531,
        0.11999999731779099,
        1524.050048828125
      ],
      "min": [
        -540.72998046875,
        0,
        879.0670166015625
      ],
      "type": "VEC3"
    },
    {
      "bufferView": 2,
      "byteOffset": 0,
      "componentType": 5126,
      "count": 428,
      "max": [
        0.9857632517814636,
        1,
        0.27470871806144714
      ],
      "min": [
        -0.985746443271637,
        0,
        -0.27462759613990784
      ],
      "type": "VEC3"
    },
    {
      "bufferView": 3,
      "byteOffset": 0,
      "componentType": 5126,
      "count": 428,
      "max": [
        0.7872740030288696,
        0.7875028848648071,
        1
      ],
      "min": [
        0,
        0.00003051804378628731,
        0.07325856387615204
      ],
      "type": "VEC3"
    }
  ],
  "buffers": [
    {
      "byteLength": 2370,
      "uri": "data:application/octet-stream;base64,"
    },
    {
      "byteLength": 5136,
      "uri": "data:application/octet-stream;base64,"
    },
    {
      "byteLength": 5136,
      "uri": "data:application/octet-stream;base64,"
    },
    {
      "byteLength": 5136,
      "uri": "data:application/octet-stream;base64,"
    }
  ],
  "bufferViews": [
    {
      "buffer": 0,
      "byteOffset": 0,
      "byteLength": 2370
    },
    {
      "buffer": 1,
      "byteOffset": 0,
      "byteLength": 5136
    },
    {
      "buffer": 2,
      "byteOffset": 0,
      "byteLength": 5136
    },
    {
      "buffer": 3,
      "byteOffset": 0,
      "byteLength": 5136
    }
  ],
  "meshes": [
    {
      "primitives": [
        {
          "mode": 4,
          "indices": 0,
          "attributes": {
            "POSITION": 1,
            "NORMAL": 2,
            "COLOR_0": 3
          }
        }
      ]
    }
  ],
  "nodes": [
    {
      "children": [
        1
      ]
    },
    {
      "mesh": 0
    }
  ],
  "scenes": [
    {
      "nodes": [
        0
      ]
    }
  ],
  "scene": 0
}