{
  "asset": {
    "version": "2.0",
    "generator": "COLLADA2GLTF"
  },
  "accessors": [
    {
      "bufferView": 0,
      "byteOffset": 0,
      "componentType": 5123,
      "count": 1269,
      "min": [
        0
      ],
      "max": [
        683
      ],
      "type": "SCALAR"
    },
    {
      "bufferView": 1,
      "byteOffset": 0,
      "componentType": 5126,
      "count": 684,
      "max": [
        -10479.337890625,
        24.524999618530273,
        -2749.17578125
      ],
      "min": [
        -11127.8076171875,
        12,
        -2948.787109375
      ],
      "type": "VEC3"
    },
    {
      "bufferView": 2,
      "byteOffset": 0,
      "componentType": 5126,
      "count": 684,
      "max": [
        0.9717250466346741,
        0.7055501341819763,
        0.9717250466346741
      ],
      "min": [
        -0.9717250466346741,
        -0.7055501341819763,
        -0.9717250466346741
      ],
      "type": "VEC3"
    },
    {
      "bufferView": 3,
      "byteOffset": 0,
      "componentType": 5126,
      "count": 684,
      "max": [
        0.4480048716068268,
        0.4480048716068268,
        0.4480659067630768
      ],
      "min": [
        0,
        0,
        0
      ],
      "type": "VEC3"
    }
  ],
  "buffers": [
    {
      "byteLength": 2538,
      "uri": "data:application/octet-stream;base64,"
    },
    {
      "byteLength": 8208,
      "uri": "data:application/octet-stream;base64,"
    },
    {
      "byteLength": 8208,
      "uri": "data:application/octet-stream;base64,"
    },
    {
      "byteLength": 8208,
      "uri": "data:application/octet-stream;base64,"
    }
  ],
  "bufferViews": [
    {
      "buffer": 0,
      "byteOffset": 0,
      "byteLength": 2538
    },
    {
      "buffer": 1,
      "byteOffset": 0,
      "byteLength": 8208
    },
    {
      "buffer": 2,
      "byteOffset": 0,
      "byteLength": 8208
    },
    {
      "buffer": 3,
      "byteOffset": 0,
      "byteLength": 8208
    }
  ],
  "meshes": [
    {
      "primitives": [
        {
          "mode": 4,
          "indices": 0,
          "attributes": {
            "POSITION": 1,
            "NORMAL": 2,
            "COLOR_0": 3
          }
        }
      ]
    }
  ],
  "nodes": [
    {
      "children": [
        1
      ]
    },
    {
      "mesh": 0
    }
  ],
  "scenes": [
    {
      "nodes": [
        0
      ]
    }
  ],
  "scene": 0
}