{
  "asset": {
    "version": "2.0",
    "generator": "COLLADA2GLTF"
  },
  "accessors": [
    {
      "bufferView": 0,
      "byteOffset": 0,
      "componentType": 5123,
      "count": 114,
      "min": [
        0
      ],
      "max": [
        97
      ],
      "type": "SCALAR"
    },
    {
      "bufferView": 1,
      "byteOffset": 0,
      "componentType": 5126,
      "count": 98,
      "max": [
        1266.4957275390625,
        2.5,
        -1046.2122802734375
      ],
      "min": [
        1187.9322509765625,
        0,
        -1180.6307373046875
      ],
      "type": "VEC3"
    },
    {
      "bufferView": 2,
      "byteOffset": 0,
      "componentType": 5126,
      "count": 98,
      "max": [
        0.7567667961120605,
        0,
        0.7565966844558716
      ],
      "min": [
        -0.7563464641571045,
        0,
        -0.7563069462776184
      ],
      "type": "VEC3"
    },
    {
      "bufferView": 3,
      "byteOffset": 0,
      "componentType": 5126,
      "count": 98,
      "max": [
        0.999786376953125,
        0.7875181436538696,
        0.26330968737602234
      ],
      "min": [
        0.999786376953125,
        0.7875181436538696,
        0.26330968737602234
      ],
      "type": "VEC3"
    }
  ],
  "buffers": [
    {
      "byteLength": 228,
      "uri": "data:application/octet-stream;base64,"
    },
    {
      "byteLength": 1176,
      "uri": "data:application/octet-stream;base64,"
    },
    {
      "byteLength": 1176,
      "uri": "data:application/octet-stream;base64,"
    },
    {
      "byteLength": 1176,
      "uri": "data:application/octet-stream;base64,"
    }
  ],
  "bufferViews": [
    {
      "buffer": 0,
      "byteOffset": 0,
      "byteLength": 228
    },
    {
      "buffer": 1,
      "byteOffset": 0,
      "byteLength": 1176
    },
    {
      "buffer": 2,
      "byteOffset": 0,
      "byteLength": 1176
    },
    {
      "buffer": 3,
      "byteOffset": 0,
      "byteLength": 1176
    }
  ],
  "meshes": [
    {
      "primitives": [
        {
          "mode": 4,
          "indices": 0,
          "attributes": {
            "POSITION": 1,
            "NORMAL": 2,
            "COLOR_0": 3
          }
        }
      ]
    }
  ],
  "nodes": [
    {
      "children": [
        1
      ]
    },
    {
      "mesh": 0
    }
  ],
  "scenes": [
    {
      "nodes": [
        0
      ]
    }
  ],
  "scene": 0
}