{
  "asset": {
    "version": "2.0",
    "generator": "COLLADA2GLTF"
  },
  "accessors": [
    {
      "bufferView": 0,
      "byteOffset": 0,
      "componentType": 5123,
      "count": 849,
      "min": [
        0
      ],
      "max": [
        402
      ],
      "type": "SCALAR"
    },
    {
      "bufferView": 1,
      "byteOffset": 0,
      "componentType": 5126,
      "count": 403,
      "max": [
        -2433.4765625,
        21.876567840576172,
        1584.1790771484375
      ],
      "min": [
        -2736.50537109375,
        0,
        1332.9053955078125
      ],
      "type": "VEC3"
    },
    {
      "bufferView": 2,
      "byteOffset": 0,
      "componentType": 5126,
      "count": 403,
      "max": [
        1,
        0.7068074345588684,
        1
      ],
      "min": [
        -0.9946953058242798,
        -0.7065204381942749,
        -0.9946953058242798
      ],
      "type": "VEC3"
    },
    {
      "bufferView": 3,
      "byteOffset": 0,
      "componentType": 5126,
      "count": 403,
      "max": [
        0.4480048716068268,
        0.4480048716068268,
        0.4480659067630768
      ],
      "min": [
        0,
        0,
        0
      ],
      "type": "VEC3"
    }
  ],
  "buffers": [
    {
      "byteLength": 1698,
      "uri": "data:application/octet-stream;base64,"
    },
    {
      "byteLength": 4836,
      "uri": "data:application/octet-stream;base64,"
    },
    {
      "byteLength": 4836,
      "uri": "data:application/octet-stream;base64,"
    },
    {
      "byteLength": 4836,
      "uri": "data:application/octet-stream;base64,"
    }
  ],
  "bufferViews": [
    {
      "buffer": 0,
      "byteOffset": 0,
      "byteLength": 1698
    },
    {
      "buffer": 1,
      "byteOffset": 0,
      "byteLength": 4836
    },
    {
      "buffer": 2,
      "byteOffset": 0,
      "byteLength": 4836
    },
    {
      "buffer": 3,
      "byteOffset": 0,
      "byteLength": 4836
    }
  ],
  "meshes": [
    {
      "primitives": [
        {
          "mode": 4,
          "indices": 0,
          "attributes": {
            "POSITION": 1,
            "NORMAL": 2,
            "COLOR_0": 3
          }
        }
      ]
    }
  ],
  "nodes": [
    {
      "children": [
        1
      ]
    },
    {
      "mesh": 0
    }
  ],
  "scenes": [
    {
      "nodes": [
        0
      ]
    }
  ],
  "scene": 0
}