{
  "asset": {
    "version": "2.0",
    "generator": "COLLADA2GLTF"
  },
  "accessors": [
    {
      "bufferView": 0,
      "byteOffset": 0,
      "componentType": 5123,
      "count": 5562,
      "min": [
        0
      ],
      "max": [
        2154
      ],
      "type": "SCALAR"
    },
    {
      "bufferView": 1,
      "byteOffset": 0,
      "componentType": 5126,
      "count": 2155,
      "max": [
        1230,
        3,
        349.670654296875
      ],
      "min": [
        931.3992309570312,
        -0.20000000298023224,
        73.63877868652344
      ],
      "type": "VEC3"
    },
    {
      "bufferView": 2,
      "byteOffset": 0,
      "componentType": 5126,
      "count": 2155,
      "max": [
        1,
        1,
        1
      ],
      "min": [
        -1,
        -1,
        -1
      ],
      "type": "VEC3"
    },
    {
      "bufferView": 3,
      "byteOffset": 0,
      "componentType": 5126,
      "count": 2155,
      "max": [
        0.9549705982208252,
        1,
        0.7875028848648071
      ],
      "min": [
        0,
        0.07324330508708954,
        0.000015259021893143654
      ],
      "type": "VEC3"
    }
  ],
  "buffers": [
    {
      "byteLength": 11124,
      "uri": "data:application/octet-stream;base64,"
    },
    {
      "byteLength": 25860,
      "uri": "data:application/octet-stream;base64,"
    },
    {
      "byteLength": 25860,
      "uri": "data:application/octet-stream;base64,"
    },
    {
      "byteLength": 25860,
      "uri": "data:application/octet-stream;base64,"
    }
  ],
  "bufferViews": [
    {
      "buffer": 0,
      "byteOffset": 0,
      "byteLength": 11124
    },
    {
      "buffer": 1,
      "byteOffset": 0,
      "byteLength": 25860
    },
    {
      "buffer": 2,
      "byteOffset": 0,
      "byteLength": 25860
    },
    {
      "buffer": 3,
      "byteOffset": 0,
      "byteLength": 25860
    }
  ],
  "meshes": [
    {
      "primitives": [
        {
          "mode": 4,
          "indices": 0,
          "attributes": {
            "POSITION": 1,
            "NORMAL": 2,
            "COLOR_0": 3
          }
        }
      ]
    }
  ],
  "nodes": [
    {
      "children": [
        1
      ]
    },
    {
      "mesh": 0
    }
  ],
  "scenes": [
    {
      "nodes": [
        0
      ]
    }
  ],
  "scene": 0
}