{
  "asset": {
    "version": "2.0",
    "generator": "COLLADA2GLTF"
  },
  "accessors": [
    {
      "bufferView": 0,
      "byteOffset": 0,
      "componentType": 5123,
      "count": 909,
      "min": [
        0
      ],
      "max": [
        412
      ],
      "type": "SCALAR"
    },
    {
      "bufferView": 1,
      "byteOffset": 0,
      "componentType": 5126,
      "count": 413,
      "max": [
        -270,
        7.5,
        654.5438842773438
      ],
      "min": [
        -449.41119384765625,
        0,
        407.84698486328125
      ],
      "type": "VEC3"
    },
    {
      "bufferView": 2,
      "byteOffset": 0,
      "componentType": 5126,
      "count": 413,
      "max": [
        0.5829755663871765,
        1,
        0.8378391861915588
      ],
      "min": [
        -0.8376938700675964,
        0,
        -0.8377938270568848
      ],
      "type": "VEC3"
    },
    {
      "bufferView": 3,
      "byteOffset": 0,
      "componentType": 5126,
      "count": 413,
      "max": [
        0.999786376953125,
        1,
        0.26330968737602234
      ],
      "min": [
        0.000015259021893143654,
        0.07324330508708954,
        0.00004577706567943096
      ],
      "type": "VEC3"
    }
  ],
  "buffers": [
    {
      "byteLength": 1818,
      "uri": "data:application/octet-stream;base64,"
    },
    {
      "byteLength": 4956,
      "uri": "data:application/octet-stream;base64,"
    },
    {
      "byteLength": 4956,
      "uri": "data:application/octet-stream;base64,"
    },
    {
      "byteLength": 4956,
      "uri": "data:application/octet-stream;base64,"
    }
  ],
  "bufferViews": [
    {
      "buffer": 0,
      "byteOffset": 0,
      "byteLength": 1818
    },
    {
      "buffer": 1,
      "byteOffset": 0,
      "byteLength": 4956
    },
    {
      "buffer": 2,
      "byteOffset": 0,
      "byteLength": 4956
    },
    {
      "buffer": 3,
      "byteOffset": 0,
      "byteLength": 4956
    }
  ],
  "meshes": [
    {
      "primitives": [
        {
          "mode": 4,
          "indices": 0,
          "attributes": {
            "POSITION": 1,
            "NORMAL": 2,
            "COLOR_0": 3
          }
        }
      ]
    }
  ],
  "nodes": [
    {
      "children": [
        1
      ]
    },
    {
      "mesh": 0
    }
  ],
  "scenes": [
    {
      "nodes": [
        0
      ]
    }
  ],
  "scene": 0
}