{
  "asset": {
    "version": "2.0",
    "generator": "COLLADA2GLTF"
  },
  "accessors": [
    {
      "bufferView": 0,
      "byteOffset": 0,
      "componentType": 5123,
      "count": 2679,
      "min": [
        0
      ],
      "max": [
        989
      ],
      "type": "SCALAR"
    },
    {
      "bufferView": 1,
      "byteOffset": 0,
      "componentType": 5126,
      "count": 990,
      "max": [
        167.91639709472656,
        12.5,
        -1494.200927734375
      ],
      "min": [
        -0.1472373902797699,
        0,
        -1618.6419677734375
      ],
      "type": "VEC3"
    },
    {
      "bufferView": 2,
      "byteOffset": 0,
      "componentType": 5126,
      "count": 990,
      "max": [
        0.8143833875656128,
        0.7070711851119995,
        0.8143833875656128
      ],
      "min": [
        -0.8143833875656128,
        -0.7070711851119995,
        -0.8143833875656128
      ],
      "type": "VEC3"
    },
    {
      "bufferView": 3,
      "byteOffset": 0,
      "componentType": 5126,
      "count": 990,
      "max": [
        0.999786376953125,
        0.7875181436538696,
        0.4480659067630768
      ],
      "min": [
        0,
        0,
        0
      ],
      "type": "VEC3"
    }
  ],
  "buffers": [
    {
      "byteLength": 5358,
      "uri": "data:application/octet-stream;base64,"
    },
    {
      "byteLength": 11880,
      "uri": "data:application/octet-stream;base64,"
    },
    {
      "byteLength": 11880,
      "uri": "data:application/octet-stream;base64,"
    },
    {
      "byteLength": 11880,
      "uri": "data:application/octet-stream;base64,"
    }
  ],
  "bufferViews": [
    {
      "buffer": 0,
      "byteOffset": 0,
      "byteLength": 5358
    },
    {
      "buffer": 1,
      "byteOffset": 0,
      "byteLength": 11880
    },
    {
      "buffer": 2,
      "byteOffset": 0,
      "byteLength": 11880
    },
    {
      "buffer": 3,
      "byteOffset": 0,
      "byteLength": 11880
    }
  ],
  "meshes": [
    {
      "primitives": [
        {
          "mode": 4,
          "indices": 0,
          "attributes": {
            "POSITION": 1,
            "NORMAL": 2,
            "COLOR_0": 3
          }
        }
      ]
    }
  ],
  "nodes": [
    {
      "children": [
        1
      ]
    },
    {
      "mesh": 0
    }
  ],
  "scenes": [
    {
      "nodes": [
        0
      ]
    }
  ],
  "scene": 0
}