{
  "asset": {
    "version": "2.0",
    "generator": "COLLADA2GLTF"
  },
  "accessors": [
    {
      "bufferView": 0,
      "byteOffset": 0,
      "componentType": 5123,
      "count": 1323,
      "min": [
        0
      ],
      "max": [
        459
      ],
      "type": "SCALAR"
    },
    {
      "bufferView": 1,
      "byteOffset": 0,
      "componentType": 5126,
      "count": 460,
      "max": [
        -2933.3505859375,
        0.06400000303983688,
        1349.3607177734375
      ],
      "min": [
        -2946.68310546875,
        0,
        1339.951171875
      ],
      "type": "VEC3"
    },
    {
      "bufferView": 2,
      "byteOffset": 0,
      "componentType": 5126,
      "count": 460,
      "max": [
        0.8316106200218201,
        1,
        0.8316106200218201
      ],
      "min": [
        -0.8316106200218201,
        0,
        -0.8316106200218201
      ],
      "type": "VEC3"
    },
    {
      "bufferView": 3,
      "byteOffset": 0,
      "componentType": 5126,
      "count": 460,
      "max": [
        0.07322804629802704,
        0.03309682011604309,
        0.03311207890510559
      ],
      "min": [
        0.07322804629802704,
        0.03309682011604309,
        0.03311207890510559
      ],
      "type": "VEC3"
    }
  ],
  "buffers": [
    {
      "byteLength": 2646,
      "uri": "data:application/octet-stream;base64,"
    },
    {
      "byteLength": 5520,
      "uri": "data:application/octet-stream;base64,"
    },
    {
      "byteLength": 5520,
      "uri": "data:application/octet-stream;base64,"
    },
    {
      "byteLength": 5520,
      "uri": "data:application/octet-stream;base64,"
    }
  ],
  "bufferViews": [
    {
      "buffer": 0,
      "byteOffset": 0,
      "byteLength": 2646
    },
    {
      "buffer": 1,
      "byteOffset": 0,
      "byteLength": 5520
    },
    {
      "buffer": 2,
      "byteOffset": 0,
      "byteLength": 5520
    },
    {
      "buffer": 3,
      "byteOffset": 0,
      "byteLength": 5520
    }
  ],
  "meshes": [
    {
      "primitives": [
        {
          "mode": 4,
          "indices": 0,
          "attributes": {
            "POSITION": 1,
            "NORMAL": 2,
            "COLOR_0": 3
          }
        }
      ]
    }
  ],
  "nodes": [
    {
      "children": [
        1
      ]
    },
    {
      "mesh": 0
    }
  ],
  "scenes": [
    {
      "nodes": [
        0
      ]
    }
  ],
  "scene": 0
}