{
  "asset": {
    "version": "2.0",
    "generator": "COLLADA2GLTF"
  },
  "accessors": [
    {
      "bufferView": 0,
      "byteOffset": 0,
      "componentType": 5123,
      "count": 2205,
      "min": [
        0
      ],
      "max": [
        912
      ],
      "type": "SCALAR"
    },
    {
      "bufferView": 1,
      "byteOffset": 0,
      "componentType": 5126,
      "count": 913,
      "max": [
        1230,
        7.5,
        423.8659973144531
      ],
      "min": [
        1050,
        0,
        125.42613983154297
      ],
      "type": "VEC3"
    },
    {
      "bufferView": 2,
      "byteOffset": 0,
      "componentType": 5126,
      "count": 913,
      "max": [
        0.9749922156333923,
        1,
        0.9750959873199463
      ],
      "min": [
        -0.9752352237701416,
        0,
        -0.9753405451774597
      ],
      "type": "VEC3"
    },
    {
      "bufferView": 3,
      "byteOffset": 0,
      "componentType": 5126,
      "count": 913,
      "max": [
        0.999786376953125,
        1,
        0.7875028848648071
      ],
      "min": [
        0,
        0.07324330508708954,
        0.000015259021893143654
      ],
      "type": "VEC3"
    }
  ],
  "buffers": [
    {
      "byteLength": 4410,
      "uri": "data:application/octet-stream;base64,"
    },
    {
      "byteLength": 10956,
      "uri": "data:application/octet-stream;base64,"
    },
    {
      "byteLength": 10956,
      "uri": "data:application/octet-stream;base64,"
    },
    {
      "byteLength": 10956,
      "uri": "data:application/octet-stream;base64,"
    }
  ],
  "bufferViews": [
    {
      "buffer": 0,
      "byteOffset": 0,
      "byteLength": 4410
    },
    {
      "buffer": 1,
      "byteOffset": 0,
      "byteLength": 10956
    },
    {
      "buffer": 2,
      "byteOffset": 0,
      "byteLength": 10956
    },
    {
      "buffer": 3,
      "byteOffset": 0,
      "byteLength": 10956
    }
  ],
  "meshes": [
    {
      "primitives": [
        {
          "mode": 4,
          "indices": 0,
          "attributes": {
            "POSITION": 1,
            "NORMAL": 2,
            "COLOR_0": 3
          }
        }
      ]
    }
  ],
  "nodes": [
    {
      "children": [
        1
      ]
    },
    {
      "mesh": 0
    }
  ],
  "scenes": [
    {
      "nodes": [
        0
      ]
    }
  ],
  "scene": 0
}