{
  "asset": {
    "version": "2.0",
    "generator": "COLLADA2GLTF"
  },
  "accessors": [
    {
      "bufferView": 0,
      "byteOffset": 0,
      "componentType": 5123,
      "count": 678,
      "min": [
        0
      ],
      "max": [
        357
      ],
      "type": "SCALAR"
    },
    {
      "bufferView": 1,
      "byteOffset": 0,
      "componentType": 5126,
      "count": 358,
      "max": [
        -1470,
        7.5,
        -338.63543701171875
      ],
      "min": [
        -1737.056640625,
        0,
        -580.2542724609375
      ],
      "type": "VEC3"
    },
    {
      "bufferView": 2,
      "byteOffset": 0,
      "componentType": 5126,
      "count": 358,
      "max": [
        0.8252719640731812,
        1,
        0.8253818154335022
      ],
      "min": [
        -0.8253808617591858,
        0,
        -0.8253393769264221
      ],
      "type": "VEC3"
    },
    {
      "bufferView": 3,
      "byteOffset": 0,
      "componentType": 5126,
      "count": 358,
      "max": [
        0.999786376953125,
        1,
        0.26330968737602234
      ],
      "min": [
        0.000015259021893143654,
        0.07324330508708954,
        0.00004577706567943096
      ],
      "type": "VEC3"
    }
  ],
  "buffers": [
    {
      "byteLength": 1356,
      "uri": "data:application/octet-stream;base64,"
    },
    {
      "byteLength": 4296,
      "uri": "data:application/octet-stream;base64,"
    },
    {
      "byteLength": 4296,
      "uri": "data:application/octet-stream;base64,"
    },
    {
      "byteLength": 4296,
      "uri": "data:application/octet-stream;base64,"
    }
  ],
  "bufferViews": [
    {
      "buffer": 0,
      "byteOffset": 0,
      "byteLength": 1356
    },
    {
      "buffer": 1,
      "byteOffset": 0,
      "byteLength": 4296
    },
    {
      "buffer": 2,
      "byteOffset": 0,
      "byteLength": 4296
    },
    {
      "buffer": 3,
      "byteOffset": 0,
      "byteLength": 4296
    }
  ],
  "meshes": [
    {
      "primitives": [
        {
          "mode": 4,
          "indices": 0,
          "attributes": {
            "POSITION": 1,
            "NORMAL": 2,
            "COLOR_0": 3
          }
        }
      ]
    }
  ],
  "nodes": [
    {
      "children": [
        1
      ]
    },
    {
      "mesh": 0
    }
  ],
  "scenes": [
    {
      "nodes": [
        0
      ]
    }
  ],
  "scene": 0
}