{
  "asset": {
    "version": "2.0",
    "generator": "COLLADA2GLTF"
  },
  "accessors": [
    {
      "bufferView": 0,
      "byteOffset": 0,
      "componentType": 5123,
      "count": 405,
      "min": [
        0
      ],
      "max": [
        154
      ],
      "type": "SCALAR"
    },
    {
      "bufferView": 1,
      "byteOffset": 0,
      "componentType": 5126,
      "count": 155,
      "max": [
        -560.0469360351562,
        0,
        421.204345703125
      ],
      "min": [
        -605.631103515625,
        -3,
        391.2220153808594
      ],
      "type": "VEC3"
    },
    {
      "bufferView": 2,
      "byteOffset": 0,
      "componentType": 5126,
      "count": 155,
      "max": [
        0.8109970688819885,
        1,
        0.8039804697036743
      ],
      "min": [
        -0.8300881385803223,
        -1,
        -0.8109970688819885
      ],
      "type": "VEC3"
    },
    {
      "bufferView": 3,
      "byteOffset": 0,
      "componentType": 5126,
      "count": 155,
      "max": [
        0.21585412323474884,
        0.21585412323474884,
        0.21589989960193634
      ],
      "min": [
        0.21585412323474884,
        0.21585412323474884,
        0.21589989960193634
      ],
      "type": "VEC3"
    }
  ],
  "buffers": [
    {
      "byteLength": 810,
      "uri": "data:application/octet-stream;base64,"
    },
    {
      "byteLength": 1860,
      "uri": "data:application/octet-stream;base64,"
    },
    {
      "byteLength": 1860,
      "uri": "data:application/octet-stream;base64,"
    },
    {
      "byteLength": 1860,
      "uri": "data:application/octet-stream;base64,"
    }
  ],
  "bufferViews": [
    {
      "buffer": 0,
      "byteOffset": 0,
      "byteLength": 810
    },
    {
      "buffer": 1,
      "byteOffset": 0,
      "byteLength": 1860
    },
    {
      "buffer": 2,
      "byteOffset": 0,
      "byteLength": 1860
    },
    {
      "buffer": 3,
      "byteOffset": 0,
      "byteLength": 1860
    }
  ],
  "meshes": [
    {
      "primitives": [
        {
          "mode": 4,
          "indices": 0,
          "attributes": {
            "POSITION": 1,
            "NORMAL": 2,
            "COLOR_0": 3
          }
        }
      ]
    }
  ],
  "nodes": [
    {
      "children": [
        1
      ]
    },
    {
      "mesh": 0
    }
  ],
  "scenes": [
    {
      "nodes": [
        0
      ]
    }
  ],
  "scene": 0
}