{
  "asset": {
    "version": "2.0",
    "generator": "COLLADA2GLTF"
  },
  "accessors": [
    {
      "bufferView": 0,
      "byteOffset": 0,
      "componentType": 5123,
      "count": 1206,
      "min": [
        0
      ],
      "max": [
        629
      ],
      "type": "SCALAR"
    },
    {
      "bufferView": 1,
      "byteOffset": 0,
      "componentType": 5126,
      "count": 630,
      "max": [
        -210,
        0,
        -210
      ],
      "min": [
        -510,
        0,
        -462.5068664550781
      ],
      "type": "VEC3"
    },
    {
      "bufferView": 2,
      "byteOffset": 0,
      "componentType": 5126,
      "count": 630,
      "max": [
        0.8875553011894226,
        1,
        1
      ],
      "min": [
        -0.894390881061554,
        0,
        -0.9999786615371704
      ],
      "type": "VEC3"
    },
    {
      "bufferView": 3,
      "byteOffset": 0,
      "componentType": 5126,
      "count": 630,
      "max": [
        0.999786376953125,
        1,
        0.26330968737602234
      ],
      "min": [
        0.000015259021893143654,
        0.07324330508708954,
        0.00004577706567943096
      ],
      "type": "VEC3"
    }
  ],
  "buffers": [
    {
      "byteLength": 2412,
      "uri": "data:application/octet-stream;base64,"
    },
    {
      "byteLength": 7560,
      "uri": "data:application/octet-stream;base64,"
    },
    {
      "byteLength": 7560,
      "uri": "data:application/octet-stream;base64,"
    },
    {
      "byteLength": 7560,
      "uri": "data:application/octet-stream;base64,"
    }
  ],
  "bufferViews": [
    {
      "buffer": 0,
      "byteOffset": 0,
      "byteLength": 2412
    },
    {
      "buffer": 1,
      "byteOffset": 0,
      "byteLength": 7560
    },
    {
      "buffer": 2,
      "byteOffset": 0,
      "byteLength": 7560
    },
    {
      "buffer": 3,
      "byteOffset": 0,
      "byteLength": 7560
    }
  ],
  "meshes": [
    {
      "primitives": [
        {
          "mode": 4,
          "indices": 0,
          "attributes": {
            "POSITION": 1,
            "NORMAL": 2,
            "COLOR_0": 3
          }
        }
      ]
    }
  ],
  "nodes": [
    {
      "children": [
        1
      ]
    },
    {
      "mesh": 0
    }
  ],
  "scenes": [
    {
      "nodes": [
        0
      ]
    }
  ],
  "scene": 0
}