{
  "asset": {
    "version": "2.0",
    "generator": "COLLADA2GLTF"
  },
  "accessors": [
    {
      "bufferView": 0,
      "byteOffset": 0,
      "componentType": 5123,
      "count": 2832,
      "min": [
        0
      ],
      "max": [
        1278
      ],
      "type": "SCALAR"
    },
    {
      "bufferView": 1,
      "byteOffset": 0,
      "componentType": 5126,
      "count": 1279,
      "max": [
        -1440.46826171875,
        62.5,
        -88.97453308105469
      ],
      "min": [
        -1887.3150634765625,
        0,
        -600.1017456054688
      ],
      "type": "VEC3"
    },
    {
      "bufferView": 2,
      "byteOffset": 0,
      "componentType": 5126,
      "count": 1279,
      "max": [
        0.7692995071411133,
        0.7070836424827576,
        0.7690606117248535
      ],
      "min": [
        -0.7693135142326355,
        -0.7070836424827576,
        -0.769461989402771
      ],
      "type": "VEC3"
    },
    {
      "bufferView": 3,
      "byteOffset": 0,
      "componentType": 5126,
      "count": 1279,
      "max": [
        0.999786376953125,
        0.7875181436538696,
        0.4480659067630768
      ],
      "min": [
        0,
        0,
        0
      ],
      "type": "VEC3"
    }
  ],
  "buffers": [
    {
      "byteLength": 5664,
      "uri": "data:application/octet-stream;base64,"
    },
    {
      "byteLength": 15348,
      "uri": "data:application/octet-stream;base64,"
    },
    {
      "byteLength": 15348,
      "uri": "data:application/octet-stream;base64,"
    },
    {
      "byteLength": 15348,
      "uri": "data:application/octet-stream;base64,"
    }
  ],
  "bufferViews": [
    {
      "buffer": 0,
      "byteOffset": 0,
      "byteLength": 5664
    },
    {
      "buffer": 1,
      "byteOffset": 0,
      "byteLength": 15348
    },
    {
      "buffer": 2,
      "byteOffset": 0,
      "byteLength": 15348
    },
    {
      "buffer": 3,
      "byteOffset": 0,
      "byteLength": 15348
    }
  ],
  "meshes": [
    {
      "primitives": [
        {
          "mode": 4,
          "indices": 0,
          "attributes": {
            "POSITION": 1,
            "NORMAL": 2,
            "COLOR_0": 3
          }
        }
      ]
    }
  ],
  "nodes": [
    {
      "children": [
        1
      ]
    },
    {
      "mesh": 0
    }
  ],
  "scenes": [
    {
      "nodes": [
        0
      ]
    }
  ],
  "scene": 0
}