{
  "asset": {
    "version": "2.0",
    "generator": "COLLADA2GLTF"
  },
  "accessors": [
    {
      "bufferView": 0,
      "byteOffset": 0,
      "componentType": 5123,
      "count": 2877,
      "min": [
        0
      ],
      "max": [
        984
      ],
      "type": "SCALAR"
    },
    {
      "bufferView": 1,
      "byteOffset": 0,
      "componentType": 5126,
      "count": 985,
      "max": [
        839.0092163085938,
        0.06400000303983688,
        2882.0830078125
      ],
      "min": [
        809.928955078125,
        0,
        2870.470947265625
      ],
      "type": "VEC3"
    },
    {
      "bufferView": 2,
      "byteOffset": 0,
      "componentType": 5126,
      "count": 985,
      "max": [
        0.9421535134315491,
        1,
        0.9421535134315491
      ],
      "min": [
        -0.9421535134315491,
        0,
        -0.9421535134315491
      ],
      "type": "VEC3"
    },
    {
      "bufferView": 3,
      "byteOffset": 0,
      "componentType": 5126,
      "count": 985,
      "max": [
        0.07322804629802704,
        0.03309682011604309,
        0.03311207890510559
      ],
      "min": [
        0.07322804629802704,
        0.03309682011604309,
        0.03311207890510559
      ],
      "type": "VEC3"
    }
  ],
  "buffers": [
    {
      "byteLength": 5754,
      "uri": "data:application/octet-stream;base64,"
    },
    {
      "byteLength": 11820,
      "uri": "data:application/octet-stream;base64,"
    },
    {
      "byteLength": 11820,
      "uri": "data:application/octet-stream;base64,"
    },
    {
      "byteLength": 11820,
      "uri": "data:application/octet-stream;base64,"
    }
  ],
  "bufferViews": [
    {
      "buffer": 0,
      "byteOffset": 0,
      "byteLength": 5754
    },
    {
      "buffer": 1,
      "byteOffset": 0,
      "byteLength": 11820
    },
    {
      "buffer": 2,
      "byteOffset": 0,
      "byteLength": 11820
    },
    {
      "buffer": 3,
      "byteOffset": 0,
      "byteLength": 11820
    }
  ],
  "meshes": [
    {
      "primitives": [
        {
          "mode": 4,
          "indices": 0,
          "attributes": {
            "POSITION": 1,
            "NORMAL": 2,
            "COLOR_0": 3
          }
        }
      ]
    }
  ],
  "nodes": [
    {
      "children": [
        1
      ]
    },
    {
      "mesh": 0
    }
  ],
  "scenes": [
    {
      "nodes": [
        0
      ]
    }
  ],
  "scene": 0
}