{
  "asset": {
    "version": "2.0",
    "generator": "COLLADA2GLTF"
  },
  "accessors": [
    {
      "bufferView": 0,
      "byteOffset": 0,
      "componentType": 5123,
      "count": 4758,
      "min": [
        0
      ],
      "max": [
        1843
      ],
      "type": "SCALAR"
    },
    {
      "bufferView": 1,
      "byteOffset": 0,
      "componentType": 5126,
      "count": 1844,
      "max": [
        1590,
        0,
        240
      ],
      "min": [
        990,
        0,
        -270
      ],
      "type": "VEC3"
    },
    {
      "bufferView": 2,
      "byteOffset": 0,
      "componentType": 5126,
      "count": 1844,
      "max": [
        0,
        1,
        0
      ],
      "min": [
        0,
        1,
        0
      ],
      "type": "VEC3"
    },
    {
      "bufferView": 3,
      "byteOffset": 0,
      "componentType": 5126,
      "count": 1844,
      "max": [
        0.07322804629802704,
        1,
        1
      ],
      "min": [
        0,
        0.00003051804378628731,
        0.00004577706567943096
      ],
      "type": "VEC3"
    }
  ],
  "buffers": [
    {
      "byteLength": 9516,
      "uri": "data:application/octet-stream;base64,"
    },
    {
      "byteLength": 22128,
      "uri": "data:application/octet-stream;base64,"
    },
    {
      "byteLength": 22128,
      "uri": "data:application/octet-stream;base64,"
    },
    {
      "byteLength": 22128,
      "uri": "data:application/octet-stream;base64,"
    }
  ],
  "bufferViews": [
    {
      "buffer": 0,
      "byteOffset": 0,
      "byteLength": 9516
    },
    {
      "buffer": 1,
      "byteOffset": 0,
      "byteLength": 22128
    },
    {
      "buffer": 2,
      "byteOffset": 0,
      "byteLength": 22128
    },
    {
      "buffer": 3,
      "byteOffset": 0,
      "byteLength": 22128
    }
  ],
  "meshes": [
    {
      "primitives": [
        {
          "mode": 4,
          "indices": 0,
          "attributes": {
            "POSITION": 1,
            "NORMAL": 2,
            "COLOR_0": 3
          }
        }
      ]
    }
  ],
  "nodes": [
    {
      "children": [
        1
      ]
    },
    {
      "mesh": 0
    }
  ],
  "scenes": [
    {
      "nodes": [
        0
      ]
    }
  ],
  "scene": 0
}