{
  "asset": {
    "version": "2.0",
    "generator": "COLLADA2GLTF"
  },
  "accessors": [
    {
      "bufferView": 0,
      "byteOffset": 0,
      "componentType": 5123,
      "count": 4749,
      "min": [
        0
      ],
      "max": [
        1629
      ],
      "type": "SCALAR"
    },
    {
      "bufferView": 1,
      "byteOffset": 0,
      "componentType": 5126,
      "count": 1630,
      "max": [
        2916.456787109375,
        0.14777499437332153,
        3682.55126953125
      ],
      "min": [
        2603.509033203125,
        0,
        3545.34912109375
      ],
      "type": "VEC3"
    },
    {
      "bufferView": 2,
      "byteOffset": 0,
      "componentType": 5126,
      "count": 1630,
      "max": [
        0.9148479104042053,
        1,
        0.9148479104042053
      ],
      "min": [
        -0.9148479104042053,
        -0.9486833214759827,
        -0.9148479104042053
      ],
      "type": "VEC3"
    },
    {
      "bufferView": 3,
      "byteOffset": 0,
      "componentType": 5126,
      "count": 1630,
      "max": [
        0.5774929523468018,
        0.5776150226593018,
        0.5776455402374268
      ],
      "min": [
        0.07322804629802704,
        0.03309682011604309,
        0.03311207890510559
      ],
      "type": "VEC3"
    }
  ],
  "buffers": [
    {
      "byteLength": 9498,
      "uri": "data:application/octet-stream;base64,"
    },
    {
      "byteLength": 19560,
      "uri": "data:application/octet-stream;base64,"
    },
    {
      "byteLength": 19560,
      "uri": "data:application/octet-stream;base64,"
    },
    {
      "byteLength": 19560,
      "uri": "data:application/octet-stream;base64,"
    }
  ],
  "bufferViews": [
    {
      "buffer": 0,
      "byteOffset": 0,
      "byteLength": 9498
    },
    {
      "buffer": 1,
      "byteOffset": 0,
      "byteLength": 19560
    },
    {
      "buffer": 2,
      "byteOffset": 0,
      "byteLength": 19560
    },
    {
      "buffer": 3,
      "byteOffset": 0,
      "byteLength": 19560
    }
  ],
  "meshes": [
    {
      "primitives": [
        {
          "mode": 4,
          "indices": 0,
          "attributes": {
            "POSITION": 1,
            "NORMAL": 2,
            "COLOR_0": 3
          }
        }
      ]
    }
  ],
  "nodes": [
    {
      "children": [
        1
      ]
    },
    {
      "mesh": 0
    }
  ],
  "scenes": [
    {
      "nodes": [
        0
      ]
    }
  ],
  "scene": 0
}