{
  "asset": {
    "version": "2.0",
    "generator": "COLLADA2GLTF"
  },
  "accessors": [
    {
      "bufferView": 0,
      "byteOffset": 0,
      "componentType": 5123,
      "count": 78,
      "min": [
        0
      ],
      "max": [
        45
      ],
      "type": "SCALAR"
    },
    {
      "bufferView": 1,
      "byteOffset": 0,
      "componentType": 5126,
      "count": 46,
      "max": [
        38.566001892089844,
        7.5,
        -810.7039794921875
      ],
      "min": [
        -33.702999114990234,
        0,
        -1020.364013671875
      ],
      "type": "VEC3"
    },
    {
      "bufferView": 2,
      "byteOffset": 0,
      "componentType": 5126,
      "count": 46,
      "max": [
        0.7491438388824463,
        1,
        0.7370944619178772
      ],
      "min": [
        -0.7372230887413025,
        0,
        -0.7490121722221375
      ],
      "type": "VEC3"
    },
    {
      "bufferView": 3,
      "byteOffset": 0,
      "componentType": 5126,
      "count": 46,
      "max": [
        0.999786376953125,
        0.7875181436538696,
        0.26330968737602234
      ],
      "min": [
        0.6036774516105652,
        0.00003051804378628731,
        0
      ],
      "type": "VEC3"
    }
  ],
  "buffers": [
    {
      "byteLength": 156,
      "uri": "data:application/octet-stream;base64,"
    },
    {
      "byteLength": 552,
      "uri": "data:application/octet-stream;base64,"
    },
    {
      "byteLength": 552,
      "uri": "data:application/octet-stream;base64,"
    },
    {
      "byteLength": 552,
      "uri": "data:application/octet-stream;base64,"
    }
  ],
  "bufferViews": [
    {
      "buffer": 0,
      "byteOffset": 0,
      "byteLength": 156
    },
    {
      "buffer": 1,
      "byteOffset": 0,
      "byteLength": 552
    },
    {
      "buffer": 2,
      "byteOffset": 0,
      "byteLength": 552
    },
    {
      "buffer": 3,
      "byteOffset": 0,
      "byteLength": 552
    }
  ],
  "meshes": [
    {
      "primitives": [
        {
          "mode": 4,
          "indices": 0,
          "attributes": {
            "POSITION": 1,
            "NORMAL": 2,
            "COLOR_0": 3
          }
        }
      ]
    }
  ],
  "nodes": [
    {
      "children": [
        1
      ]
    },
    {
      "mesh": 0
    }
  ],
  "scenes": [
    {
      "nodes": [
        0
      ]
    }
  ],
  "scene": 0
}