{
  "asset": {
    "version": "2.0",
    "generator": "COLLADA2GLTF"
  },
  "accessors": [
    {
      "bufferView": 0,
      "byteOffset": 0,
      "componentType": 5123,
      "count": 2694,
      "min": [
        0
      ],
      "max": [
        919
      ],
      "type": "SCALAR"
    },
    {
      "bufferView": 1,
      "byteOffset": 0,
      "componentType": 5126,
      "count": 920,
      "max": [
        478.1390075683594,
        37.025001525878906,
        5249.841796875
      ],
      "min": [
        -967.2778930664062,
        17.165000915527344,
        4694.31201171875
      ],
      "type": "VEC3"
    },
    {
      "bufferView": 2,
      "byteOffset": 0,
      "componentType": 5126,
      "count": 920,
      "max": [
        0.9014009833335876,
        0.707102358341217,
        0.9319804310798645
      ],
      "min": [
        -0.9014009833335876,
        -0.707102358341217,
        -0.9014009833335876
      ],
      "type": "VEC3"
    },
    {
      "bufferView": 3,
      "byteOffset": 0,
      "componentType": 5126,
      "count": 920,
      "max": [
        0.4480048716068268,
        0.4480048716068268,
        0.4480659067630768
      ],
      "min": [
        0,
        0,
        0
      ],
      "type": "VEC3"
    }
  ],
  "buffers": [
    {
      "byteLength": 5388,
      "uri": "data:application/octet-stream;base64,"
    },
    {
      "byteLength": 11040,
      "uri": "data:application/octet-stream;base64,"
    },
    {
      "byteLength": 11040,
      "uri": "data:application/octet-stream;base64,"
    },
    {
      "byteLength": 11040,
      "uri": "data:application/octet-stream;base64,"
    }
  ],
  "bufferViews": [
    {
      "buffer": 0,
      "byteOffset": 0,
      "byteLength": 5388
    },
    {
      "buffer": 1,
      "byteOffset": 0,
      "byteLength": 11040
    },
    {
      "buffer": 2,
      "byteOffset": 0,
      "byteLength": 11040
    },
    {
      "buffer": 3,
      "byteOffset": 0,
      "byteLength": 11040
    }
  ],
  "meshes": [
    {
      "primitives": [
        {
          "mode": 4,
          "indices": 0,
          "attributes": {
            "POSITION": 1,
            "NORMAL": 2,
            "COLOR_0": 3
          }
        }
      ]
    }
  ],
  "nodes": [
    {
      "children": [
        1
      ]
    },
    {
      "mesh": 0
    }
  ],
  "scenes": [
    {
      "nodes": [
        0
      ]
    }
  ],
  "scene": 0
}