{
  "asset": {
    "version": "2.0",
    "generator": "COLLADA2GLTF"
  },
  "accessors": [
    {
      "bufferView": 0,
      "byteOffset": 0,
      "componentType": 5123,
      "count": 2169,
      "min": [
        0
      ],
      "max": [
        752
      ],
      "type": "SCALAR"
    },
    {
      "bufferView": 1,
      "byteOffset": 0,
      "componentType": 5126,
      "count": 753,
      "max": [
        1682.1424560546875,
        0.06400000303983688,
        3171.03564453125
      ],
      "min": [
        1658.660400390625,
        0,
        3162.126708984375
      ],
      "type": "VEC3"
    },
    {
      "bufferView": 2,
      "byteOffset": 0,
      "componentType": 5126,
      "count": 753,
      "max": [
        0.9472445845603943,
        1,
        0.9472445845603943
      ],
      "min": [
        -0.9472445845603943,
        0,
        -0.9472445845603943
      ],
      "type": "VEC3"
    },
    {
      "bufferView": 3,
      "byteOffset": 0,
      "componentType": 5126,
      "count": 753,
      "max": [
        0.07322804629802704,
        0.03309682011604309,
        0.03311207890510559
      ],
      "min": [
        0.07322804629802704,
        0.03309682011604309,
        0.03311207890510559
      ],
      "type": "VEC3"
    }
  ],
  "buffers": [
    {
      "byteLength": 4338,
      "uri": "data:application/octet-stream;base64,"
    },
    {
      "byteLength": 9036,
      "uri": "data:application/octet-stream;base64,"
    },
    {
      "byteLength": 9036,
      "uri": "data:application/octet-stream;base64,"
    },
    {
      "byteLength": 9036,
      "uri": "data:application/octet-stream;base64,"
    }
  ],
  "bufferViews": [
    {
      "buffer": 0,
      "byteOffset": 0,
      "byteLength": 4338
    },
    {
      "buffer": 1,
      "byteOffset": 0,
      "byteLength": 9036
    },
    {
      "buffer": 2,
      "byteOffset": 0,
      "byteLength": 9036
    },
    {
      "buffer": 3,
      "byteOffset": 0,
      "byteLength": 9036
    }
  ],
  "meshes": [
    {
      "primitives": [
        {
          "mode": 4,
          "indices": 0,
          "attributes": {
            "POSITION": 1,
            "NORMAL": 2,
            "COLOR_0": 3
          }
        }
      ]
    }
  ],
  "nodes": [
    {
      "children": [
        1
      ]
    },
    {
      "mesh": 0
    }
  ],
  "scenes": [
    {
      "nodes": [
        0
      ]
    }
  ],
  "scene": 0
}