{
  "asset": {
    "version": "2.0",
    "generator": "COLLADA2GLTF"
  },
  "accessors": [
    {
      "bufferView": 0,
      "byteOffset": 0,
      "componentType": 5123,
      "count": 4566,
      "min": [
        0
      ],
      "max": [
        1859
      ],
      "type": "SCALAR"
    },
    {
      "bufferView": 1,
      "byteOffset": 0,
      "componentType": 5126,
      "count": 1860,
      "max": [
        -1643.3289794921875,
        0,
        -960
      ],
      "min": [
        -2010,
        -0.20000000298023224,
        -1260
      ],
      "type": "VEC3"
    },
    {
      "bufferView": 2,
      "byteOffset": 0,
      "componentType": 5126,
      "count": 1860,
      "max": [
        0.9999922513961792,
        1,
        0.9985136389732361
      ],
      "min": [
        -0.9999917149543762,
        -1,
        -0.9999920129776001
      ],
      "type": "VEC3"
    },
    {
      "bufferView": 3,
      "byteOffset": 0,
      "componentType": 5126,
      "count": 1860,
      "max": [
        0.21585412323474884,
        1,
        1
      ],
      "min": [
        0,
        0.00003051804378628731,
        0.00004577706567943096
      ],
      "type": "VEC3"
    }
  ],
  "buffers": [
    {
      "byteLength": 9132,
      "uri": "data:application/octet-stream;base64,"
    },
    {
      "byteLength": 22320,
      "uri": "data:application/octet-stream;base64,"
    },
    {
      "byteLength": 22320,
      "uri": "data:application/octet-stream;base64,"
    },
    {
      "byteLength": 22320,
      "uri": "data:application/octet-stream;base64,"
    }
  ],
  "bufferViews": [
    {
      "buffer": 0,
      "byteOffset": 0,
      "byteLength": 9132
    },
    {
      "buffer": 1,
      "byteOffset": 0,
      "byteLength": 22320
    },
    {
      "buffer": 2,
      "byteOffset": 0,
      "byteLength": 22320
    },
    {
      "buffer": 3,
      "byteOffset": 0,
      "byteLength": 22320
    }
  ],
  "meshes": [
    {
      "primitives": [
        {
          "mode": 4,
          "indices": 0,
          "attributes": {
            "POSITION": 1,
            "NORMAL": 2,
            "COLOR_0": 3
          }
        }
      ]
    }
  ],
  "nodes": [
    {
      "children": [
        1
      ]
    },
    {
      "mesh": 0
    }
  ],
  "scenes": [
    {
      "nodes": [
        0
      ]
    }
  ],
  "scene": 0
}