{
  "asset": {
    "version": "2.0",
    "generator": "COLLADA2GLTF"
  },
  "accessors": [
    {
      "bufferView": 0,
      "byteOffset": 0,
      "componentType": 5123,
      "count": 966,
      "min": [
        0
      ],
      "max": [
        417
      ],
      "type": "SCALAR"
    },
    {
      "bufferView": 1,
      "byteOffset": 0,
      "componentType": 5126,
      "count": 418,
      "max": [
        -10732.90234375,
        14.5,
        -2838.195068359375
      ],
      "min": [
        -11127.8076171875,
        9.28499984741211,
        -2948.787109375
      ],
      "type": "VEC3"
    },
    {
      "bufferView": 2,
      "byteOffset": 0,
      "componentType": 5126,
      "count": 418,
      "max": [
        0.9717250466346741,
        0.70658940076828,
        0.9717250466346741
      ],
      "min": [
        -0.9717250466346741,
        -0.7060938477516174,
        -0.9717250466346741
      ],
      "type": "VEC3"
    },
    {
      "bufferView": 3,
      "byteOffset": 0,
      "componentType": 5126,
      "count": 418,
      "max": [
        0.4480048716068268,
        0.4480048716068268,
        0.4480659067630768
      ],
      "min": [
        0,
        0,
        0
      ],
      "type": "VEC3"
    }
  ],
  "buffers": [
    {
      "byteLength": 1932,
      "uri": "data:application/octet-stream;base64,"
    },
    {
      "byteLength": 5016,
      "uri": "data:application/octet-stream;base64,"
    },
    {
      "byteLength": 5016,
      "uri": "data:application/octet-stream;base64,"
    },
    {
      "byteLength": 5016,
      "uri": "data:application/octet-stream;base64,"
    }
  ],
  "bufferViews": [
    {
      "buffer": 0,
      "byteOffset": 0,
      "byteLength": 1932
    },
    {
      "buffer": 1,
      "byteOffset": 0,
      "byteLength": 5016
    },
    {
      "buffer": 2,
      "byteOffset": 0,
      "byteLength": 5016
    },
    {
      "buffer": 3,
      "byteOffset": 0,
      "byteLength": 5016
    }
  ],
  "meshes": [
    {
      "primitives": [
        {
          "mode": 4,
          "indices": 0,
          "attributes": {
            "POSITION": 1,
            "NORMAL": 2,
            "COLOR_0": 3
          }
        }
      ]
    }
  ],
  "nodes": [
    {
      "children": [
        1
      ]
    },
    {
      "mesh": 0
    }
  ],
  "scenes": [
    {
      "nodes": [
        0
      ]
    }
  ],
  "scene": 0
}