{
  "asset": {
    "version": "2.0",
    "generator": "COLLADA2GLTF"
  },
  "accessors": [
    {
      "bufferView": 0,
      "byteOffset": 0,
      "componentType": 5123,
      "count": 4338,
      "min": [
        0
      ],
      "max": [
        1464
      ],
      "type": "SCALAR"
    },
    {
      "bufferView": 1,
      "byteOffset": 0,
      "componentType": 5126,
      "count": 1465,
      "max": [
        -3456.08056640625,
        0.06400000303983688,
        1087.2803955078125
      ],
      "min": [
        -3496.838134765625,
        0,
        1069.2994384765625
      ],
      "type": "VEC3"
    },
    {
      "bufferView": 2,
      "byteOffset": 0,
      "componentType": 5126,
      "count": 1465,
      "max": [
        0.9282659888267517,
        1,
        0.9282659888267517
      ],
      "min": [
        -0.9282659888267517,
        0,
        -0.9282659888267517
      ],
      "type": "VEC3"
    },
    {
      "bufferView": 3,
      "byteOffset": 0,
      "componentType": 5126,
      "count": 1465,
      "max": [
        0.07322804629802704,
        0.03309682011604309,
        0.03311207890510559
      ],
      "min": [
        0.07322804629802704,
        0.03309682011604309,
        0.03311207890510559
      ],
      "type": "VEC3"
    }
  ],
  "buffers": [
    {
      "byteLength": 8676,
      "uri": "data:application/octet-stream;base64,"
    },
    {
      "byteLength": 17580,
      "uri": "data:application/octet-stream;base64,"
    },
    {
      "byteLength": 17580,
      "uri": "data:application/octet-stream;base64,"
    },
    {
      "byteLength": 17580,
      "uri": "data:application/octet-stream;base64,"
    }
  ],
  "bufferViews": [
    {
      "buffer": 0,
      "byteOffset": 0,
      "byteLength": 8676
    },
    {
      "buffer": 1,
      "byteOffset": 0,
      "byteLength": 17580
    },
    {
      "buffer": 2,
      "byteOffset": 0,
      "byteLength": 17580
    },
    {
      "buffer": 3,
      "byteOffset": 0,
      "byteLength": 17580
    }
  ],
  "meshes": [
    {
      "primitives": [
        {
          "mode": 4,
          "indices": 0,
          "attributes": {
            "POSITION": 1,
            "NORMAL": 2,
            "COLOR_0": 3
          }
        }
      ]
    }
  ],
  "nodes": [
    {
      "children": [
        1
      ]
    },
    {
      "mesh": 0
    }
  ],
  "scenes": [
    {
      "nodes": [
        0
      ]
    }
  ],
  "scene": 0
}