{
  "asset": {
    "version": "2.0",
    "generator": "COLLADA2GLTF"
  },
  "accessors": [
    {
      "bufferView": 0,
      "byteOffset": 0,
      "componentType": 5123,
      "count": 4986,
      "min": [
        0
      ],
      "max": [
        2050
      ],
      "type": "SCALAR"
    },
    {
      "bufferView": 1,
      "byteOffset": 0,
      "componentType": 5126,
      "count": 2051,
      "max": [
        598.18701171875,
        5,
        -863.5499877929688
      ],
      "min": [
        90,
        0,
        -1895.656005859375
      ],
      "type": "VEC3"
    },
    {
      "bufferView": 2,
      "byteOffset": 0,
      "componentType": 5126,
      "count": 2051,
      "max": [
        0.9638832807540894,
        1,
        0.9601093530654907
      ],
      "min": [
        -0.9507752060890198,
        0,
        -0.9629843235015869
      ],
      "type": "VEC3"
    },
    {
      "bufferView": 3,
      "byteOffset": 0,
      "componentType": 5126,
      "count": 2051,
      "max": [
        0.999786376953125,
        1,
        1
      ],
      "min": [
        0,
        0.00003051804378628731,
        0.00004577706567943096
      ],
      "type": "VEC3"
    }
  ],
  "buffers": [
    {
      "byteLength": 9972,
      "uri": "data:application/octet-stream;base64,"
    },
    {
      "byteLength": 24612,
      "uri": "data:application/octet-stream;base64,"
    },
    {
      "byteLength": 24612,
      "uri": "data:application/octet-stream;base64,"
    },
    {
      "byteLength": 24612,
      "uri": "data:application/octet-stream;base64,"
    }
  ],
  "bufferViews": [
    {
      "buffer": 0,
      "byteOffset": 0,
      "byteLength": 9972
    },
    {
      "buffer": 1,
      "byteOffset": 0,
      "byteLength": 24612
    },
    {
      "buffer": 2,
      "byteOffset": 0,
      "byteLength": 24612
    },
    {
      "buffer": 3,
      "byteOffset": 0,
      "byteLength": 24612
    }
  ],
  "meshes": [
    {
      "primitives": [
        {
          "mode": 4,
          "indices": 0,
          "attributes": {
            "POSITION": 1,
            "NORMAL": 2,
            "COLOR_0": 3
          }
        }
      ]
    }
  ],
  "nodes": [
    {
      "children": [
        1
      ]
    },
    {
      "mesh": 0
    }
  ],
  "scenes": [
    {
      "nodes": [
        0
      ]
    }
  ],
  "scene": 0
}