{
  "asset": {
    "version": "2.0",
    "generator": "COLLADA2GLTF"
  },
  "accessors": [
    {
      "bufferView": 0,
      "byteOffset": 0,
      "componentType": 5123,
      "count": 1668,
      "min": [
        0
      ],
      "max": [
        697
      ],
      "type": "SCALAR"
    },
    {
      "bufferView": 1,
      "byteOffset": 0,
      "componentType": 5126,
      "count": 698,
      "max": [
        870,
        0,
        -718.16455078125
      ],
      "min": [
        564.976806640625,
        0,
        -960
      ],
      "type": "VEC3"
    },
    {
      "bufferView": 2,
      "byteOffset": 0,
      "componentType": 5126,
      "count": 698,
      "max": [
        0.9999033808708191,
        1,
        0.999900758266449
      ],
      "min": [
        -0.9999029636383057,
        0,
        -0.9999028444290161
      ],
      "type": "VEC3"
    },
    {
      "bufferView": 3,
      "byteOffset": 0,
      "componentType": 5126,
      "count": 698,
      "max": [
        0.999786376953125,
        1,
        1
      ],
      "min": [
        0,
        0.00003051804378628731,
        0.00004577706567943096
      ],
      "type": "VEC3"
    }
  ],
  "buffers": [
    {
      "byteLength": 3336,
      "uri": "data:application/octet-stream;base64,"
    },
    {
      "byteLength": 8376,
      "uri": "data:application/octet-stream;base64,"
    },
    {
      "byteLength": 8376,
      "uri": "data:application/octet-stream;base64,"
    },
    {
      "byteLength": 8376,
      "uri": "data:application/octet-stream;base64,"
    }
  ],
  "bufferViews": [
    {
      "buffer": 0,
      "byteOffset": 0,
      "byteLength": 3336
    },
    {
      "buffer": 1,
      "byteOffset": 0,
      "byteLength": 8376
    },
    {
      "buffer": 2,
      "byteOffset": 0,
      "byteLength": 8376
    },
    {
      "buffer": 3,
      "byteOffset": 0,
      "byteLength": 8376
    }
  ],
  "meshes": [
    {
      "primitives": [
        {
          "mode": 4,
          "indices": 0,
          "attributes": {
            "POSITION": 1,
            "NORMAL": 2,
            "COLOR_0": 3
          }
        }
      ]
    }
  ],
  "nodes": [
    {
      "children": [
        1
      ]
    },
    {
      "mesh": 0
    }
  ],
  "scenes": [
    {
      "nodes": [
        0
      ]
    }
  ],
  "scene": 0
}