{
  "asset": {
    "version": "2.0",
    "generator": "COLLADA2GLTF"
  },
  "accessors": [
    {
      "bufferView": 0,
      "byteOffset": 0,
      "componentType": 5123,
      "count": 2808,
      "min": [
        0
      ],
      "max": [
        1096
      ],
      "type": "SCALAR"
    },
    {
      "bufferView": 1,
      "byteOffset": 0,
      "componentType": 5126,
      "count": 1097,
      "max": [
        -701.9760131835938,
        0,
        39.1558952331543
      ],
      "min": [
        -901.47998046875,
        0,
        -354.70574951171875
      ],
      "type": "VEC3"
    },
    {
      "bufferView": 2,
      "byteOffset": 0,
      "componentType": 5126,
      "count": 1097,
      "max": [
        0,
        1,
        0.3780635893344879
      ],
      "min": [
        -0.9257796406745911,
        0,
        0
      ],
      "type": "VEC3"
    },
    {
      "bufferView": 3,
      "byteOffset": 0,
      "componentType": 5126,
      "count": 1097,
      "max": [
        0.999786376953125,
        1,
        0.26330968737602234
      ],
      "min": [
        0.000015259021893143654,
        0.07324330508708954,
        0.00004577706567943096
      ],
      "type": "VEC3"
    }
  ],
  "buffers": [
    {
      "byteLength": 5616,
      "uri": "data:application/octet-stream;base64,"
    },
    {
      "byteLength": 13164,
      "uri": "data:application/octet-stream;base64,"
    },
    {
      "byteLength": 13164,
      "uri": "data:application/octet-stream;base64,"
    },
    {
      "byteLength": 13164,
      "uri": "data:application/octet-stream;base64,"
    }
  ],
  "bufferViews": [
    {
      "buffer": 0,
      "byteOffset": 0,
      "byteLength": 5616
    },
    {
      "buffer": 1,
      "byteOffset": 0,
      "byteLength": 13164
    },
    {
      "buffer": 2,
      "byteOffset": 0,
      "byteLength": 13164
    },
    {
      "buffer": 3,
      "byteOffset": 0,
      "byteLength": 13164
    }
  ],
  "meshes": [
    {
      "primitives": [
        {
          "mode": 4,
          "indices": 0,
          "attributes": {
            "POSITION": 1,
            "NORMAL": 2,
            "COLOR_0": 3
          }
        }
      ]
    }
  ],
  "nodes": [
    {
      "children": [
        1
      ]
    },
    {
      "mesh": 0
    }
  ],
  "scenes": [
    {
      "nodes": [
        0
      ]
    }
  ],
  "scene": 0
}