{
  "asset": {
    "version": "2.0",
    "generator": "COLLADA2GLTF"
  },
  "accessors": [
    {
      "bufferView": 0,
      "byteOffset": 0,
      "componentType": 5123,
      "count": 1068,
      "min": [
        0
      ],
      "max": [
        403
      ],
      "type": "SCALAR"
    },
    {
      "bufferView": 1,
      "byteOffset": 0,
      "componentType": 5126,
      "count": 404,
      "max": [
        -631.8827514648438,
        0.0010000000474974513,
        777.2667236328125
      ],
      "min": [
        -821.65478515625,
        -3,
        644.5431518554688
      ],
      "type": "VEC3"
    },
    {
      "bufferView": 2,
      "byteOffset": 0,
      "componentType": 5126,
      "count": 404,
      "max": [
        0.8239248394966125,
        1,
        0.8239254355430603
      ],
      "min": [
        -0.8239248394966125,
        -1,
        -0.8239248394966125
      ],
      "type": "VEC3"
    },
    {
      "bufferView": 3,
      "byteOffset": 0,
      "componentType": 5126,
      "count": 404,
      "max": [
        0.7872740030288696,
        0.7875028848648071,
        0.7875028848648071
      ],
      "min": [
        0.07322804629802704,
        0.07324330508708954,
        0.07325856387615204
      ],
      "type": "VEC3"
    }
  ],
  "buffers": [
    {
      "byteLength": 2136,
      "uri": "data:application/octet-stream;base64,"
    },
    {
      "byteLength": 4848,
      "uri": "data:application/octet-stream;base64,"
    },
    {
      "byteLength": 4848,
      "uri": "data:application/octet-stream;base64,"
    },
    {
      "byteLength": 4848,
      "uri": "data:application/octet-stream;base64,"
    }
  ],
  "bufferViews": [
    {
      "buffer": 0,
      "byteOffset": 0,
      "byteLength": 2136
    },
    {
      "buffer": 1,
      "byteOffset": 0,
      "byteLength": 4848
    },
    {
      "buffer": 2,
      "byteOffset": 0,
      "byteLength": 4848
    },
    {
      "buffer": 3,
      "byteOffset": 0,
      "byteLength": 4848
    }
  ],
  "meshes": [
    {
      "primitives": [
        {
          "mode": 4,
          "indices": 0,
          "attributes": {
            "POSITION": 1,
            "NORMAL": 2,
            "COLOR_0": 3
          }
        }
      ]
    }
  ],
  "nodes": [
    {
      "children": [
        1
      ]
    },
    {
      "mesh": 0
    }
  ],
  "scenes": [
    {
      "nodes": [
        0
      ]
    }
  ],
  "scene": 0
}