{
  "asset": {
    "version": "2.0",
    "generator": "COLLADA2GLTF"
  },
  "accessors": [
    {
      "bufferView": 0,
      "byteOffset": 0,
      "componentType": 5123,
      "count": 3294,
      "min": [
        0
      ],
      "max": [
        1321
      ],
      "type": "SCALAR"
    },
    {
      "bufferView": 1,
      "byteOffset": 0,
      "componentType": 5126,
      "count": 1322,
      "max": [
        4174.033203125,
        0.0010000000474974513,
        1376.4639892578125
      ],
      "min": [
        2488.531982421875,
        -0.20000000298023224,
        -6221.998046875
      ],
      "type": "VEC3"
    },
    {
      "bufferView": 2,
      "byteOffset": 0,
      "componentType": 5126,
      "count": 1322,
      "max": [
        0.8354270458221436,
        1,
        0.8354586958885193
      ],
      "min": [
        -0.8353630304336548,
        -1,
        -0.831269383430481
      ],
      "type": "VEC3"
    },
    {
      "bufferView": 3,
      "byteOffset": 0,
      "componentType": 5126,
      "count": 1322,
      "max": [
        0.999786376953125,
        1,
        1
      ],
      "min": [
        0,
        0.00003051804378628731,
        0.00004577706567943096
      ],
      "type": "VEC3"
    }
  ],
  "buffers": [
    {
      "byteLength": 6588,
      "uri": "data:application/octet-stream;base64,"
    },
    {
      "byteLength": 15864,
      "uri": "data:application/octet-stream;base64,"
    },
    {
      "byteLength": 15864,
      "uri": "data:application/octet-stream;base64,"
    },
    {
      "byteLength": 15864,
      "uri": "data:application/octet-stream;base64,"
    }
  ],
  "bufferViews": [
    {
      "buffer": 0,
      "byteOffset": 0,
      "byteLength": 6588
    },
    {
      "buffer": 1,
      "byteOffset": 0,
      "byteLength": 15864
    },
    {
      "buffer": 2,
      "byteOffset": 0,
      "byteLength": 15864
    },
    {
      "buffer": 3,
      "byteOffset": 0,
      "byteLength": 15864
    }
  ],
  "meshes": [
    {
      "primitives": [
        {
          "mode": 4,
          "indices": 0,
          "attributes": {
            "POSITION": 1,
            "NORMAL": 2,
            "COLOR_0": 3
          }
        }
      ]
    }
  ],
  "nodes": [
    {
      "children": [
        1
      ]
    },
    {
      "mesh": 0
    }
  ],
  "scenes": [
    {
      "nodes": [
        0
      ]
    }
  ],
  "scene": 0
}