{
  "asset": {
    "version": "2.0",
    "generator": "COLLADA2GLTF"
  },
  "accessors": [
    {
      "bufferView": 0,
      "byteOffset": 0,
      "componentType": 5123,
      "count": 3486,
      "min": [
        0
      ],
      "max": [
        1331
      ],
      "type": "SCALAR"
    },
    {
      "bufferView": 1,
      "byteOffset": 0,
      "componentType": 5126,
      "count": 1332,
      "max": [
        879.6040649414062,
        7.5,
        608.9537963867188
      ],
      "min": [
        600,
        0,
        246.30474853515625
      ],
      "type": "VEC3"
    },
    {
      "bufferView": 2,
      "byteOffset": 0,
      "componentType": 5126,
      "count": 1332,
      "max": [
        0.9609791040420532,
        1,
        0.9348688721656799
      ],
      "min": [
        -0.9607993960380554,
        0,
        -0.9706019759178162
      ],
      "type": "VEC3"
    },
    {
      "bufferView": 3,
      "byteOffset": 0,
      "componentType": 5126,
      "count": 1332,
      "max": [
        0.999786376953125,
        1,
        0.7875028848648071
      ],
      "min": [
        0.000015259021893143654,
        0.07324330508708954,
        0.00004577706567943096
      ],
      "type": "VEC3"
    }
  ],
  "buffers": [
    {
      "byteLength": 6972,
      "uri": "data:application/octet-stream;base64,"
    },
    {
      "byteLength": 15984,
      "uri": "data:application/octet-stream;base64,"
    },
    {
      "byteLength": 15984,
      "uri": "data:application/octet-stream;base64,"
    },
    {
      "byteLength": 15984,
      "uri": "data:application/octet-stream;base64,"
    }
  ],
  "bufferViews": [
    {
      "buffer": 0,
      "byteOffset": 0,
      "byteLength": 6972
    },
    {
      "buffer": 1,
      "byteOffset": 0,
      "byteLength": 15984
    },
    {
      "buffer": 2,
      "byteOffset": 0,
      "byteLength": 15984
    },
    {
      "buffer": 3,
      "byteOffset": 0,
      "byteLength": 15984
    }
  ],
  "meshes": [
    {
      "primitives": [
        {
          "mode": 4,
          "indices": 0,
          "attributes": {
            "POSITION": 1,
            "NORMAL": 2,
            "COLOR_0": 3
          }
        }
      ]
    }
  ],
  "nodes": [
    {
      "children": [
        1
      ]
    },
    {
      "mesh": 0
    }
  ],
  "scenes": [
    {
      "nodes": [
        0
      ]
    }
  ],
  "scene": 0
}