{
  "asset": {
    "version": "2.0",
    "generator": "COLLADA2GLTF"
  },
  "accessors": [
    {
      "bufferView": 0,
      "byteOffset": 0,
      "componentType": 5123,
      "count": 3219,
      "min": [
        0
      ],
      "max": [
        1360
      ],
      "type": "SCALAR"
    },
    {
      "bufferView": 1,
      "byteOffset": 0,
      "componentType": 5126,
      "count": 1361,
      "max": [
        804.6715698242188,
        7.5,
        419.824462890625
      ],
      "min": [
        396.2108154296875,
        -3,
        -111.52716064453125
      ],
      "type": "VEC3"
    },
    {
      "bufferView": 2,
      "byteOffset": 0,
      "componentType": 5126,
      "count": 1361,
      "max": [
        0.9665658473968506,
        1,
        0.9667272567749023
      ],
      "min": [
        -0.9667056202888489,
        -1,
        -0.9667572379112244
      ],
      "type": "VEC3"
    },
    {
      "bufferView": 3,
      "byteOffset": 0,
      "componentType": 5126,
      "count": 1361,
      "max": [
        0.999786376953125,
        1,
        0.7875028848648071
      ],
      "min": [
        0.000015259021893143654,
        0.07324330508708954,
        0.00004577706567943096
      ],
      "type": "VEC3"
    }
  ],
  "buffers": [
    {
      "byteLength": 6438,
      "uri": "data:application/octet-stream;base64,"
    },
    {
      "byteLength": 16332,
      "uri": "data:application/octet-stream;base64,"
    },
    {
      "byteLength": 16332,
      "uri": "data:application/octet-stream;base64,"
    },
    {
      "byteLength": 16332,
      "uri": "data:application/octet-stream;base64,"
    }
  ],
  "bufferViews": [
    {
      "buffer": 0,
      "byteOffset": 0,
      "byteLength": 6438
    },
    {
      "buffer": 1,
      "byteOffset": 0,
      "byteLength": 16332
    },
    {
      "buffer": 2,
      "byteOffset": 0,
      "byteLength": 16332
    },
    {
      "buffer": 3,
      "byteOffset": 0,
      "byteLength": 16332
    }
  ],
  "meshes": [
    {
      "primitives": [
        {
          "mode": 4,
          "indices": 0,
          "attributes": {
            "POSITION": 1,
            "NORMAL": 2,
            "COLOR_0": 3
          }
        }
      ]
    }
  ],
  "nodes": [
    {
      "children": [
        1
      ]
    },
    {
      "mesh": 0
    }
  ],
  "scenes": [
    {
      "nodes": [
        0
      ]
    }
  ],
  "scene": 0
}