{
  "asset": {
    "version": "2.0",
    "generator": "COLLADA2GLTF"
  },
  "accessors": [
    {
      "bufferView": 0,
      "byteOffset": 0,
      "componentType": 5123,
      "count": 4518,
      "min": [
        0
      ],
      "max": [
        3778
      ],
      "type": "SCALAR"
    },
    {
      "bufferView": 1,
      "byteOffset": 0,
      "componentType": 5126,
      "count": 3779,
      "max": [
        746.6589965820312,
        7.5,
        73.30400085449219
      ],
      "min": [
        411.4079895019531,
        0,
        -297.7489929199219
      ],
      "type": "VEC3"
    },
    {
      "bufferView": 2,
      "byteOffset": 0,
      "componentType": 5126,
      "count": 3779,
      "max": [
        0.99966961145401,
        0,
        0.9997009634971619
      ],
      "min": [
        -0.9996704459190369,
        0,
        -0.9996445775032043
      ],
      "type": "VEC3"
    },
    {
      "bufferView": 3,
      "byteOffset": 0,
      "componentType": 5126,
      "count": 3779,
      "max": [
        0.999786376953125,
        0.7875181436538696,
        0.26330968737602234
      ],
      "min": [
        0.999786376953125,
        0.7875181436538696,
        0.26330968737602234
      ],
      "type": "VEC3"
    }
  ],
  "buffers": [
    {
      "byteLength": 9036,
      "uri": "data:application/octet-stream;base64,"
    },
    {
      "byteLength": 45348,
      "uri": "data:application/octet-stream;base64,"
    },
    {
      "byteLength": 45348,
      "uri": "data:application/octet-stream;base64,"
    },
    {
      "byteLength": 45348,
      "uri": "data:application/octet-stream;base64,"
    }
  ],
  "bufferViews": [
    {
      "buffer": 0,
      "byteOffset": 0,
      "byteLength": 9036
    },
    {
      "buffer": 1,
      "byteOffset": 0,
      "byteLength": 45348
    },
    {
      "buffer": 2,
      "byteOffset": 0,
      "byteLength": 45348
    },
    {
      "buffer": 3,
      "byteOffset": 0,
      "byteLength": 45348
    }
  ],
  "meshes": [
    {
      "primitives": [
        {
          "mode": 4,
          "indices": 0,
          "attributes": {
            "POSITION": 1,
            "NORMAL": 2,
            "COLOR_0": 3
          }
        }
      ]
    }
  ],
  "nodes": [
    {
      "children": [
        1
      ]
    },
    {
      "mesh": 0
    }
  ],
  "scenes": [
    {
      "nodes": [
        0
      ]
    }
  ],
  "scene": 0
}