{
  "asset": {
    "version": "2.0",
    "generator": "COLLADA2GLTF"
  },
  "accessors": [
    {
      "bufferView": 0,
      "byteOffset": 0,
      "componentType": 5123,
      "count": 4413,
      "min": [
        0
      ],
      "max": [
        1807
      ],
      "type": "SCALAR"
    },
    {
      "bufferView": 1,
      "byteOffset": 0,
      "componentType": 5126,
      "count": 1808,
      "max": [
        2490,
        0,
        1434.6903076171875
      ],
      "min": [
        1906.108642578125,
        -0.20000000298023224,
        859.4177856445312
      ],
      "type": "VEC3"
    },
    {
      "bufferView": 2,
      "byteOffset": 0,
      "componentType": 5126,
      "count": 1808,
      "max": [
        0.9355534911155701,
        1,
        0.9192047715187073
      ],
      "min": [
        -0.9354350566864014,
        -1,
        -0.9354265928268433
      ],
      "type": "VEC3"
    },
    {
      "bufferView": 3,
      "byteOffset": 0,
      "componentType": 5126,
      "count": 1808,
      "max": [
        0.999786376953125,
        1,
        0.26330968737602234
      ],
      "min": [
        0.000015259021893143654,
        0.07324330508708954,
        0.00004577706567943096
      ],
      "type": "VEC3"
    }
  ],
  "buffers": [
    {
      "byteLength": 8826,
      "uri": "data:application/octet-stream;base64,"
    },
    {
      "byteLength": 21696,
      "uri": "data:application/octet-stream;base64,"
    },
    {
      "byteLength": 21696,
      "uri": "data:application/octet-stream;base64,"
    },
    {
      "byteLength": 21696,
      "uri": "data:application/octet-stream;base64,"
    }
  ],
  "bufferViews": [
    {
      "buffer": 0,
      "byteOffset": 0,
      "byteLength": 8826
    },
    {
      "buffer": 1,
      "byteOffset": 0,
      "byteLength": 21696
    },
    {
      "buffer": 2,
      "byteOffset": 0,
      "byteLength": 21696
    },
    {
      "buffer": 3,
      "byteOffset": 0,
      "byteLength": 21696
    }
  ],
  "meshes": [
    {
      "primitives": [
        {
          "mode": 4,
          "indices": 0,
          "attributes": {
            "POSITION": 1,
            "NORMAL": 2,
            "COLOR_0": 3
          }
        }
      ]
    }
  ],
  "nodes": [
    {
      "children": [
        1
      ]
    },
    {
      "mesh": 0
    }
  ],
  "scenes": [
    {
      "nodes": [
        0
      ]
    }
  ],
  "scene": 0
}