{
  "asset": {
    "version": "2.0",
    "generator": "COLLADA2GLTF"
  },
  "accessors": [
    {
      "bufferView": 0,
      "byteOffset": 0,
      "componentType": 5123,
      "count": 2589,
      "min": [
        0
      ],
      "max": [
        971
      ],
      "type": "SCALAR"
    },
    {
      "bufferView": 1,
      "byteOffset": 0,
      "componentType": 5126,
      "count": 972,
      "max": [
        -2073.368896484375,
        0.10000000149011612,
        80.66105651855469
      ],
      "min": [
        -2082.462158203125,
        0,
        66.2689437866211
      ],
      "type": "VEC3"
    },
    {
      "bufferView": 2,
      "byteOffset": 0,
      "componentType": 5126,
      "count": 972,
      "max": [
        0.8601113557815552,
        0.9483287930488586,
        0.5101063847541809
      ],
      "min": [
        -0.8601113557815552,
        0,
        -0.8601113557815552
      ],
      "type": "VEC3"
    },
    {
      "bufferView": 3,
      "byteOffset": 0,
      "componentType": 5126,
      "count": 972,
      "max": [
        0.26324865221977234,
        0.26329442858695984,
        0.26329442858695984
      ],
      "min": [
        0.26324865221977234,
        0.26329442858695984,
        0.26329442858695984
      ],
      "type": "VEC3"
    }
  ],
  "buffers": [
    {
      "byteLength": 5178,
      "uri": "data:application/octet-stream;base64,"
    },
    {
      "byteLength": 11664,
      "uri": "data:application/octet-stream;base64,"
    },
    {
      "byteLength": 11664,
      "uri": "data:application/octet-stream;base64,"
    },
    {
      "byteLength": 11664,
      "uri": "data:application/octet-stream;base64,"
    }
  ],
  "bufferViews": [
    {
      "buffer": 0,
      "byteOffset": 0,
      "byteLength": 5178
    },
    {
      "buffer": 1,
      "byteOffset": 0,
      "byteLength": 11664
    },
    {
      "buffer": 2,
      "byteOffset": 0,
      "byteLength": 11664
    },
    {
      "buffer": 3,
      "byteOffset": 0,
      "byteLength": 11664
    }
  ],
  "meshes": [
    {
      "primitives": [
        {
          "mode": 4,
          "indices": 0,
          "attributes": {
            "POSITION": 1,
            "NORMAL": 2,
            "COLOR_0": 3
          }
        }
      ]
    }
  ],
  "nodes": [
    {
      "children": [
        1
      ]
    },
    {
      "mesh": 0
    }
  ],
  "scenes": [
    {
      "nodes": [
        0
      ]
    }
  ],
  "scene": 0
}