{
  "asset": {
    "version": "2.0",
    "generator": "COLLADA2GLTF"
  },
  "accessors": [
    {
      "bufferView": 0,
      "byteOffset": 0,
      "componentType": 5123,
      "count": 1881,
      "min": [
        0
      ],
      "max": [
        778
      ],
      "type": "SCALAR"
    },
    {
      "bufferView": 1,
      "byteOffset": 0,
      "componentType": 5126,
      "count": 779,
      "max": [
        -712.0482788085938,
        0.0010000000474974513,
        685.926025390625
      ],
      "min": [
        -870.8670043945312,
        -0.20000000298023224,
        419.06787109375
      ],
      "type": "VEC3"
    },
    {
      "bufferView": 2,
      "byteOffset": 0,
      "componentType": 5126,
      "count": 779,
      "max": [
        0.8222564458847046,
        1,
        0.8223374485969543
      ],
      "min": [
        -0.8117257356643677,
        -1,
        -0.8223053216934204
      ],
      "type": "VEC3"
    },
    {
      "bufferView": 3,
      "byteOffset": 0,
      "componentType": 5126,
      "count": 779,
      "max": [
        0.7872740030288696,
        1,
        0.7875028848648071
      ],
      "min": [
        0.000015259021893143654,
        0.07324330508708954,
        0.00004577706567943096
      ],
      "type": "VEC3"
    }
  ],
  "buffers": [
    {
      "byteLength": 3762,
      "uri": "data:application/octet-stream;base64,"
    },
    {
      "byteLength": 9348,
      "uri": "data:application/octet-stream;base64,"
    },
    {
      "byteLength": 9348,
      "uri": "data:application/octet-stream;base64,"
    },
    {
      "byteLength": 9348,
      "uri": "data:application/octet-stream;base64,"
    }
  ],
  "bufferViews": [
    {
      "buffer": 0,
      "byteOffset": 0,
      "byteLength": 3762
    },
    {
      "buffer": 1,
      "byteOffset": 0,
      "byteLength": 9348
    },
    {
      "buffer": 2,
      "byteOffset": 0,
      "byteLength": 9348
    },
    {
      "buffer": 3,
      "byteOffset": 0,
      "byteLength": 9348
    }
  ],
  "meshes": [
    {
      "primitives": [
        {
          "mode": 4,
          "indices": 0,
          "attributes": {
            "POSITION": 1,
            "NORMAL": 2,
            "COLOR_0": 3
          }
        }
      ]
    }
  ],
  "nodes": [
    {
      "children": [
        1
      ]
    },
    {
      "mesh": 0
    }
  ],
  "scenes": [
    {
      "nodes": [
        0
      ]
    }
  ],
  "scene": 0
}