{
  "asset": {
    "version": "2.0",
    "generator": "COLLADA2GLTF"
  },
  "accessors": [
    {
      "bufferView": 0,
      "byteOffset": 0,
      "componentType": 5123,
      "count": 3354,
      "min": [
        0
      ],
      "max": [
        1585
      ],
      "type": "SCALAR"
    },
    {
      "bufferView": 1,
      "byteOffset": 0,
      "componentType": 5126,
      "count": 1586,
      "max": [
        -1170.490478515625,
        7.5,
        408.90643310546875
      ],
      "min": [
        -1470,
        0,
        -150
      ],
      "type": "VEC3"
    },
    {
      "bufferView": 2,
      "byteOffset": 0,
      "componentType": 5126,
      "count": 1586,
      "max": [
        0.8444715738296509,
        1,
        0.8430337905883789
      ],
      "min": [
        -0.8565390706062317,
        0,
        -0.9537728428840637
      ],
      "type": "VEC3"
    },
    {
      "bufferView": 3,
      "byteOffset": 0,
      "componentType": 5126,
      "count": 1586,
      "max": [
        0.999786376953125,
        1,
        0.7875028848648071
      ],
      "min": [
        0.000015259021893143654,
        0.07324330508708954,
        0.00004577706567943096
      ],
      "type": "VEC3"
    }
  ],
  "buffers": [
    {
      "byteLength": 6708,
      "uri": "data:application/octet-stream;base64,"
    },
    {
      "byteLength": 19032,
      "uri": "data:application/octet-stream;base64,"
    },
    {
      "byteLength": 19032,
      "uri": "data:application/octet-stream;base64,"
    },
    {
      "byteLength": 19032,
      "uri": "data:application/octet-stream;base64,"
    }
  ],
  "bufferViews": [
    {
      "buffer": 0,
      "byteOffset": 0,
      "byteLength": 6708
    },
    {
      "buffer": 1,
      "byteOffset": 0,
      "byteLength": 19032
    },
    {
      "buffer": 2,
      "byteOffset": 0,
      "byteLength": 19032
    },
    {
      "buffer": 3,
      "byteOffset": 0,
      "byteLength": 19032
    }
  ],
  "meshes": [
    {
      "primitives": [
        {
          "mode": 4,
          "indices": 0,
          "attributes": {
            "POSITION": 1,
            "NORMAL": 2,
            "COLOR_0": 3
          }
        }
      ]
    }
  ],
  "nodes": [
    {
      "children": [
        1
      ]
    },
    {
      "mesh": 0
    }
  ],
  "scenes": [
    {
      "nodes": [
        0
      ]
    }
  ],
  "scene": 0
}