{
  "asset": {
    "version": "2.0",
    "generator": "COLLADA2GLTF"
  },
  "accessors": [
    {
      "bufferView": 0,
      "byteOffset": 0,
      "componentType": 5123,
      "count": 288,
      "min": [
        0
      ],
      "max": [
        103
      ],
      "type": "SCALAR"
    },
    {
      "bufferView": 1,
      "byteOffset": 0,
      "componentType": 5126,
      "count": 104,
      "max": [
        615.1301879882812,
        0,
        -1923.6680908203125
      ],
      "min": [
        567.8781127929688,
        -3,
        -1957.703125
      ],
      "type": "VEC3"
    },
    {
      "bufferView": 2,
      "byteOffset": 0,
      "componentType": 5126,
      "count": 104,
      "max": [
        0.8122959733009338,
        1,
        0.8122959733009338
      ],
      "min": [
        -0.8122959733009338,
        0,
        -0.8122959733009338
      ],
      "type": "VEC3"
    },
    {
      "bufferView": 3,
      "byteOffset": 0,
      "componentType": 5126,
      "count": 104,
      "max": [
        0.21585412323474884,
        0.21585412323474884,
        0.21589989960193634
      ],
      "min": [
        0.21585412323474884,
        0.21585412323474884,
        0.21589989960193634
      ],
      "type": "VEC3"
    }
  ],
  "buffers": [
    {
      "byteLength": 576,
      "uri": "data:application/octet-stream;base64,"
    },
    {
      "byteLength": 1248,
      "uri": "data:application/octet-stream;base64,"
    },
    {
      "byteLength": 1248,
      "uri": "data:application/octet-stream;base64,"
    },
    {
      "byteLength": 1248,
      "uri": "data:application/octet-stream;base64,"
    }
  ],
  "bufferViews": [
    {
      "buffer": 0,
      "byteOffset": 0,
      "byteLength": 576
    },
    {
      "buffer": 1,
      "byteOffset": 0,
      "byteLength": 1248
    },
    {
      "buffer": 2,
      "byteOffset": 0,
      "byteLength": 1248
    },
    {
      "buffer": 3,
      "byteOffset": 0,
      "byteLength": 1248
    }
  ],
  "meshes": [
    {
      "primitives": [
        {
          "mode": 4,
          "indices": 0,
          "attributes": {
            "POSITION": 1,
            "NORMAL": 2,
            "COLOR_0": 3
          }
        }
      ]
    }
  ],
  "nodes": [
    {
      "children": [
        1
      ]
    },
    {
      "mesh": 0
    }
  ],
  "scenes": [
    {
      "nodes": [
        0
      ]
    }
  ],
  "scene": 0
}