{
  "asset": {
    "version": "2.0",
    "generator": "COLLADA2GLTF"
  },
  "accessors": [
    {
      "bufferView": 0,
      "byteOffset": 0,
      "componentType": 5123,
      "count": 10485,
      "min": [
        0
      ],
      "max": [
        3893
      ],
      "type": "SCALAR"
    },
    {
      "bufferView": 1,
      "byteOffset": 0,
      "componentType": 5126,
      "count": 3894,
      "max": [
        -18.820999145507812,
        7.5,
        224.78599548339844
      ],
      "min": [
        -1199.175048828125,
        -3,
        -1322.928955078125
      ],
      "type": "VEC3"
    },
    {
      "bufferView": 2,
      "byteOffset": 0,
      "componentType": 5126,
      "count": 3894,
      "max": [
        0.8433130383491516,
        1,
        0.8434199690818787
      ],
      "min": [
        -0.84329754114151,
        -1,
        -0.8434445858001709
      ],
      "type": "VEC3"
    },
    {
      "bufferView": 3,
      "byteOffset": 0,
      "componentType": 5126,
      "count": 3894,
      "max": [
        0.999786376953125,
        1,
        1
      ],
      "min": [
        0,
        0.00003051804378628731,
        0.00004577706567943096
      ],
      "type": "VEC3"
    }
  ],
  "buffers": [
    {
      "byteLength": 20970,
      "uri": "data:application/octet-stream;base64,"
    },
    {
      "byteLength": 46728,
      "uri": "data:application/octet-stream;base64,"
    },
    {
      "byteLength": 46728,
      "uri": "data:application/octet-stream;base64,"
    },
    {
      "byteLength": 46728,
      "uri": "data:application/octet-stream;base64,"
    }
  ],
  "bufferViews": [
    {
      "buffer": 0,
      "byteOffset": 0,
      "byteLength": 20970
    },
    {
      "buffer": 1,
      "byteOffset": 0,
      "byteLength": 46728
    },
    {
      "buffer": 2,
      "byteOffset": 0,
      "byteLength": 46728
    },
    {
      "buffer": 3,
      "byteOffset": 0,
      "byteLength": 46728
    }
  ],
  "meshes": [
    {
      "primitives": [
        {
          "mode": 4,
          "indices": 0,
          "attributes": {
            "POSITION": 1,
            "NORMAL": 2,
            "COLOR_0": 3
          }
        }
      ]
    }
  ],
  "nodes": [
    {
      "children": [
        1
      ]
    },
    {
      "mesh": 0
    }
  ],
  "scenes": [
    {
      "nodes": [
        0
      ]
    }
  ],
  "scene": 0
}