{
  "asset": {
    "version": "2.0",
    "generator": "COLLADA2GLTF"
  },
  "accessors": [
    {
      "bufferView": 0,
      "byteOffset": 0,
      "componentType": 5123,
      "count": 600,
      "min": [
        0
      ],
      "max": [
        291
      ],
      "type": "SCALAR"
    },
    {
      "bufferView": 1,
      "byteOffset": 0,
      "componentType": 5126,
      "count": 292,
      "max": [
        -1494.25,
        5,
        657.04296875
      ],
      "min": [
        -1606.1400146484375,
        0,
        507.08599853515625
      ],
      "type": "VEC3"
    },
    {
      "bufferView": 2,
      "byteOffset": 0,
      "componentType": 5126,
      "count": 292,
      "max": [
        0.9898214340209961,
        1,
        1
      ],
      "min": [
        -0.9898214340209961,
        -1,
        -0.9594929814338684
      ],
      "type": "VEC3"
    },
    {
      "bufferView": 3,
      "byteOffset": 0,
      "componentType": 5126,
      "count": 292,
      "max": [
        0.999786376953125,
        0.7875181436538696,
        0.5776455402374268
      ],
      "min": [
        0.5774929523468018,
        0.5776150226593018,
        0.003997863736003637
      ],
      "type": "VEC3"
    }
  ],
  "buffers": [
    {
      "byteLength": 1200,
      "uri": "data:application/octet-stream;base64,"
    },
    {
      "byteLength": 3504,
      "uri": "data:application/octet-stream;base64,"
    },
    {
      "byteLength": 3504,
      "uri": "data:application/octet-stream;base64,"
    },
    {
      "byteLength": 3504,
      "uri": "data:application/octet-stream;base64,"
    }
  ],
  "bufferViews": [
    {
      "buffer": 0,
      "byteOffset": 0,
      "byteLength": 1200
    },
    {
      "buffer": 1,
      "byteOffset": 0,
      "byteLength": 3504
    },
    {
      "buffer": 2,
      "byteOffset": 0,
      "byteLength": 3504
    },
    {
      "buffer": 3,
      "byteOffset": 0,
      "byteLength": 3504
    }
  ],
  "meshes": [
    {
      "primitives": [
        {
          "mode": 4,
          "indices": 0,
          "attributes": {
            "POSITION": 1,
            "NORMAL": 2,
            "COLOR_0": 3
          }
        }
      ]
    }
  ],
  "nodes": [
    {
      "children": [
        1
      ]
    },
    {
      "mesh": 0
    }
  ],
  "scenes": [
    {
      "nodes": [
        0
      ]
    }
  ],
  "scene": 0
}