{
  "asset": {
    "version": "2.0",
    "generator": "COLLADA2GLTF"
  },
  "accessors": [
    {
      "bufferView": 0,
      "byteOffset": 0,
      "componentType": 5123,
      "count": 5328,
      "min": [
        0
      ],
      "max": [
        1923
      ],
      "type": "SCALAR"
    },
    {
      "bufferView": 1,
      "byteOffset": 0,
      "componentType": 5126,
      "count": 1924,
      "max": [
        -1818.5452880859375,
        0,
        -1138.2265625
      ],
      "min": [
        -1940.280517578125,
        -3,
        -1189.40576171875
      ],
      "type": "VEC3"
    },
    {
      "bufferView": 2,
      "byteOffset": 0,
      "componentType": 5126,
      "count": 1924,
      "max": [
        0.9999920129776001,
        1,
        0.9999920129776001
      ],
      "min": [
        -0.9999920129776001,
        0,
        -0.9999920129776001
      ],
      "type": "VEC3"
    },
    {
      "bufferView": 3,
      "byteOffset": 0,
      "componentType": 5126,
      "count": 1924,
      "max": [
        0.21585412323474884,
        0.21585412323474884,
        0.21589989960193634
      ],
      "min": [
        0.21585412323474884,
        0.21585412323474884,
        0.21589989960193634
      ],
      "type": "VEC3"
    }
  ],
  "buffers": [
    {
      "byteLength": 10656,
      "uri": "data:application/octet-stream;base64,"
    },
    {
      "byteLength": 23088,
      "uri": "data:application/octet-stream;base64,"
    },
    {
      "byteLength": 23088,
      "uri": "data:application/octet-stream;base64,"
    },
    {
      "byteLength": 23088,
      "uri": "data:application/octet-stream;base64,"
    }
  ],
  "bufferViews": [
    {
      "buffer": 0,
      "byteOffset": 0,
      "byteLength": 10656
    },
    {
      "buffer": 1,
      "byteOffset": 0,
      "byteLength": 23088
    },
    {
      "buffer": 2,
      "byteOffset": 0,
      "byteLength": 23088
    },
    {
      "buffer": 3,
      "byteOffset": 0,
      "byteLength": 23088
    }
  ],
  "meshes": [
    {
      "primitives": [
        {
          "mode": 4,
          "indices": 0,
          "attributes": {
            "POSITION": 1,
            "NORMAL": 2,
            "COLOR_0": 3
          }
        }
      ]
    }
  ],
  "nodes": [
    {
      "children": [
        1
      ]
    },
    {
      "mesh": 0
    }
  ],
  "scenes": [
    {
      "nodes": [
        0
      ]
    }
  ],
  "scene": 0
}