{
  "asset": {
    "version": "2.0",
    "generator": "COLLADA2GLTF"
  },
  "accessors": [
    {
      "bufferView": 0,
      "byteOffset": 0,
      "componentType": 5123,
      "count": 1560,
      "min": [
        0
      ],
      "max": [
        688
      ],
      "type": "SCALAR"
    },
    {
      "bufferView": 1,
      "byteOffset": 0,
      "componentType": 5126,
      "count": 689,
      "max": [
        -870,
        7.5,
        1448.329345703125
      ],
      "min": [
        -1206.958984375,
        0,
        768.031982421875
      ],
      "type": "VEC3"
    },
    {
      "bufferView": 2,
      "byteOffset": 0,
      "componentType": 5126,
      "count": 689,
      "max": [
        0.8462972640991211,
        1,
        0.84625244140625
      ],
      "min": [
        -0.8463035225868225,
        0,
        -0.8462361693382263
      ],
      "type": "VEC3"
    },
    {
      "bufferView": 3,
      "byteOffset": 0,
      "componentType": 5126,
      "count": 689,
      "max": [
        0.999786376953125,
        1,
        0.26330968737602234
      ],
      "min": [
        0.000015259021893143654,
        0.00003051804378628731,
        0
      ],
      "type": "VEC3"
    }
  ],
  "buffers": [
    {
      "byteLength": 3120,
      "uri": "data:application/octet-stream;base64,"
    },
    {
      "byteLength": 8268,
      "uri": "data:application/octet-stream;base64,"
    },
    {
      "byteLength": 8268,
      "uri": "data:application/octet-stream;base64,"
    },
    {
      "byteLength": 8268,
      "uri": "data:application/octet-stream;base64,"
    }
  ],
  "bufferViews": [
    {
      "buffer": 0,
      "byteOffset": 0,
      "byteLength": 3120
    },
    {
      "buffer": 1,
      "byteOffset": 0,
      "byteLength": 8268
    },
    {
      "buffer": 2,
      "byteOffset": 0,
      "byteLength": 8268
    },
    {
      "buffer": 3,
      "byteOffset": 0,
      "byteLength": 8268
    }
  ],
  "meshes": [
    {
      "primitives": [
        {
          "mode": 4,
          "indices": 0,
          "attributes": {
            "POSITION": 1,
            "NORMAL": 2,
            "COLOR_0": 3
          }
        }
      ]
    }
  ],
  "nodes": [
    {
      "children": [
        1
      ]
    },
    {
      "mesh": 0
    }
  ],
  "scenes": [
    {
      "nodes": [
        0
      ]
    }
  ],
  "scene": 0
}