{
  "asset": {
    "version": "2.0",
    "generator": "COLLADA2GLTF"
  },
  "accessors": [
    {
      "bufferView": 0,
      "byteOffset": 0,
      "componentType": 5123,
      "count": 576,
      "min": [
        0
      ],
      "max": [
        207
      ],
      "type": "SCALAR"
    },
    {
      "bufferView": 1,
      "byteOffset": 0,
      "componentType": 5126,
      "count": 208,
      "max": [
        -2522.69189453125,
        0,
        106.22679138183594
      ],
      "min": [
        -2583.272216796875,
        -3,
        49.174217224121094
      ],
      "type": "VEC3"
    },
    {
      "bufferView": 2,
      "byteOffset": 0,
      "componentType": 5126,
      "count": 208,
      "max": [
        0.8552881479263306,
        1,
        0.8552882075309753
      ],
      "min": [
        -0.8552881479263306,
        0,
        -0.8552881479263306
      ],
      "type": "VEC3"
    },
    {
      "bufferView": 3,
      "byteOffset": 0,
      "componentType": 5126,
      "count": 208,
      "max": [
        0.21585412323474884,
        0.21585412323474884,
        0.21589989960193634
      ],
      "min": [
        0.21585412323474884,
        0.21585412323474884,
        0.21589989960193634
      ],
      "type": "VEC3"
    }
  ],
  "buffers": [
    {
      "byteLength": 1152,
      "uri": "data:application/octet-stream;base64,"
    },
    {
      "byteLength": 2496,
      "uri": "data:application/octet-stream;base64,"
    },
    {
      "byteLength": 2496,
      "uri": "data:application/octet-stream;base64,"
    },
    {
      "byteLength": 2496,
      "uri": "data:application/octet-stream;base64,"
    }
  ],
  "bufferViews": [
    {
      "buffer": 0,
      "byteOffset": 0,
      "byteLength": 1152
    },
    {
      "buffer": 1,
      "byteOffset": 0,
      "byteLength": 2496
    },
    {
      "buffer": 2,
      "byteOffset": 0,
      "byteLength": 2496
    },
    {
      "buffer": 3,
      "byteOffset": 0,
      "byteLength": 2496
    }
  ],
  "meshes": [
    {
      "primitives": [
        {
          "mode": 4,
          "indices": 0,
          "attributes": {
            "POSITION": 1,
            "NORMAL": 2,
            "COLOR_0": 3
          }
        }
      ]
    }
  ],
  "nodes": [
    {
      "children": [
        1
      ]
    },
    {
      "mesh": 0
    }
  ],
  "scenes": [
    {
      "nodes": [
        0
      ]
    }
  ],
  "scene": 0
}