{
  "asset": {
    "version": "2.0",
    "generator": "COLLADA2GLTF"
  },
  "accessors": [
    {
      "bufferView": 0,
      "byteOffset": 0,
      "componentType": 5123,
      "count": 225,
      "min": [
        0
      ],
      "max": [
        78
      ],
      "type": "SCALAR"
    },
    {
      "bufferView": 1,
      "byteOffset": 0,
      "componentType": 5126,
      "count": 79,
      "max": [
        -4010.906982421875,
        4.5,
        324.0714416503906
      ],
      "min": [
        -4351.505859375,
        -0.5,
        -139.3861541748047
      ],
      "type": "VEC3"
    },
    {
      "bufferView": 2,
      "byteOffset": 0,
      "componentType": 5126,
      "count": 79,
      "max": [
        0.8816465139389038,
        1,
        0.8816465139389038
      ],
      "min": [
        -0.8816465139389038,
        -0.2873478829860687,
        -0.8816465139389038
      ],
      "type": "VEC3"
    },
    {
      "bufferView": 3,
      "byteOffset": 0,
      "componentType": 5126,
      "count": 79,
      "max": [
        0.4480048716068268,
        0.4480048716068268,
        0.4480659067630768
      ],
      "min": [
        0.07322804629802704,
        0.07324330508708954,
        0.07325856387615204
      ],
      "type": "VEC3"
    }
  ],
  "buffers": [
    {
      "byteLength": 450,
      "uri": "data:application/octet-stream;base64,"
    },
    {
      "byteLength": 948,
      "uri": "data:application/octet-stream;base64,"
    },
    {
      "byteLength": 948,
      "uri": "data:application/octet-stream;base64,"
    },
    {
      "byteLength": 948,
      "uri": "data:application/octet-stream;base64,"
    }
  ],
  "bufferViews": [
    {
      "buffer": 0,
      "byteOffset": 0,
      "byteLength": 450
    },
    {
      "buffer": 1,
      "byteOffset": 0,
      "byteLength": 948
    },
    {
      "buffer": 2,
      "byteOffset": 0,
      "byteLength": 948
    },
    {
      "buffer": 3,
      "byteOffset": 0,
      "byteLength": 948
    }
  ],
  "meshes": [
    {
      "primitives": [
        {
          "mode": 4,
          "indices": 0,
          "attributes": {
            "POSITION": 1,
            "NORMAL": 2,
            "COLOR_0": 3
          }
        }
      ]
    }
  ],
  "nodes": [
    {
      "children": [
        1
      ]
    },
    {
      "mesh": 0
    }
  ],
  "scenes": [
    {
      "nodes": [
        0
      ]
    }
  ],
  "scene": 0
}