{
  "asset": {
    "version": "2.0",
    "generator": "COLLADA2GLTF"
  },
  "accessors": [
    {
      "bufferView": 0,
      "byteOffset": 0,
      "componentType": 5123,
      "count": 3738,
      "min": [
        0
      ],
      "max": [
        1519
      ],
      "type": "SCALAR"
    },
    {
      "bufferView": 1,
      "byteOffset": 0,
      "componentType": 5126,
      "count": 1520,
      "max": [
        -2226.017578125,
        17.165000915527344,
        663.3814697265625
      ],
      "min": [
        -2416.883544921875,
        12,
        350.2858581542969
      ],
      "type": "VEC3"
    },
    {
      "bufferView": 2,
      "byteOffset": 0,
      "componentType": 5126,
      "count": 1520,
      "max": [
        0.856545090675354,
        0.707068920135498,
        0.856545090675354
      ],
      "min": [
        -0.856545090675354,
        -0.707068920135498,
        -0.856545090675354
      ],
      "type": "VEC3"
    },
    {
      "bufferView": 3,
      "byteOffset": 0,
      "componentType": 5126,
      "count": 1520,
      "max": [
        0.4480048716068268,
        0.4480048716068268,
        0.4480659067630768
      ],
      "min": [
        0,
        0,
        0
      ],
      "type": "VEC3"
    }
  ],
  "buffers": [
    {
      "byteLength": 7476,
      "uri": "data:application/octet-stream;base64,"
    },
    {
      "byteLength": 18240,
      "uri": "data:application/octet-stream;base64,"
    },
    {
      "byteLength": 18240,
      "uri": "data:application/octet-stream;base64,"
    },
    {
      "byteLength": 18240,
      "uri": "data:application/octet-stream;base64,"
    }
  ],
  "bufferViews": [
    {
      "buffer": 0,
      "byteOffset": 0,
      "byteLength": 7476
    },
    {
      "buffer": 1,
      "byteOffset": 0,
      "byteLength": 18240
    },
    {
      "buffer": 2,
      "byteOffset": 0,
      "byteLength": 18240
    },
    {
      "buffer": 3,
      "byteOffset": 0,
      "byteLength": 18240
    }
  ],
  "meshes": [
    {
      "primitives": [
        {
          "mode": 4,
          "indices": 0,
          "attributes": {
            "POSITION": 1,
            "NORMAL": 2,
            "COLOR_0": 3
          }
        }
      ]
    }
  ],
  "nodes": [
    {
      "children": [
        1
      ]
    },
    {
      "mesh": 0
    }
  ],
  "scenes": [
    {
      "nodes": [
        0
      ]
    }
  ],
  "scene": 0
}