{
  "asset": {
    "version": "2.0",
    "generator": "COLLADA2GLTF"
  },
  "accessors": [
    {
      "bufferView": 0,
      "byteOffset": 0,
      "componentType": 5123,
      "count": 4464,
      "min": [
        0
      ],
      "max": [
        1495
      ],
      "type": "SCALAR"
    },
    {
      "bufferView": 1,
      "byteOffset": 0,
      "componentType": 5126,
      "count": 1496,
      "max": [
        2043.4285888671875,
        0.06400000303983688,
        3302.716064453125
      ],
      "min": [
        2001.7880859375,
        0,
        3285.751953125
      ],
      "type": "VEC3"
    },
    {
      "bufferView": 2,
      "byteOffset": 0,
      "componentType": 5126,
      "count": 1496,
      "max": [
        0.937562882900238,
        1,
        0.937562882900238
      ],
      "min": [
        -0.937562882900238,
        0,
        -0.937562882900238
      ],
      "type": "VEC3"
    },
    {
      "bufferView": 3,
      "byteOffset": 0,
      "componentType": 5126,
      "count": 1496,
      "max": [
        0.07322804629802704,
        0.03309682011604309,
        0.03311207890510559
      ],
      "min": [
        0.07322804629802704,
        0.03309682011604309,
        0.03311207890510559
      ],
      "type": "VEC3"
    }
  ],
  "buffers": [
    {
      "byteLength": 8928,
      "uri": "data:application/octet-stream;base64,"
    },
    {
      "byteLength": 17952,
      "uri": "data:application/octet-stream;base64,"
    },
    {
      "byteLength": 17952,
      "uri": "data:application/octet-stream;base64,"
    },
    {
      "byteLength": 17952,
      "uri": "data:application/octet-stream;base64,"
    }
  ],
  "bufferViews": [
    {
      "buffer": 0,
      "byteOffset": 0,
      "byteLength": 8928
    },
    {
      "buffer": 1,
      "byteOffset": 0,
      "byteLength": 17952
    },
    {
      "buffer": 2,
      "byteOffset": 0,
      "byteLength": 17952
    },
    {
      "buffer": 3,
      "byteOffset": 0,
      "byteLength": 17952
    }
  ],
  "meshes": [
    {
      "primitives": [
        {
          "mode": 4,
          "indices": 0,
          "attributes": {
            "POSITION": 1,
            "NORMAL": 2,
            "COLOR_0": 3
          }
        }
      ]
    }
  ],
  "nodes": [
    {
      "children": [
        1
      ]
    },
    {
      "mesh": 0
    }
  ],
  "scenes": [
    {
      "nodes": [
        0
      ]
    }
  ],
  "scene": 0
}