{
  "asset": {
    "version": "2.0",
    "generator": "COLLADA2GLTF"
  },
  "accessors": [
    {
      "bufferView": 0,
      "byteOffset": 0,
      "componentType": 5123,
      "count": 4032,
      "min": [
        0
      ],
      "max": [
        1575
      ],
      "type": "SCALAR"
    },
    {
      "bufferView": 1,
      "byteOffset": 0,
      "componentType": 5126,
      "count": 1576,
      "max": [
        723.0859985351562,
        7.5,
        3448.62109375
      ],
      "min": [
        -1260.10595703125,
        0,
        -3976.97509765625
      ],
      "type": "VEC3"
    },
    {
      "bufferView": 2,
      "byteOffset": 0,
      "componentType": 5126,
      "count": 1576,
      "max": [
        0.008663144893944263,
        1,
        0.9999958872795105
      ],
      "min": [
        -0.9999939799308777,
        0,
        -0.9999951124191284
      ],
      "type": "VEC3"
    },
    {
      "bufferView": 3,
      "byteOffset": 0,
      "componentType": 5126,
      "count": 1576,
      "max": [
        0.999786376953125,
        1,
        1
      ],
      "min": [
        0,
        0.00003051804378628731,
        0.00004577706567943096
      ],
      "type": "VEC3"
    }
  ],
  "buffers": [
    {
      "byteLength": 8064,
      "uri": "data:application/octet-stream;base64,"
    },
    {
      "byteLength": 18912,
      "uri": "data:application/octet-stream;base64,"
    },
    {
      "byteLength": 18912,
      "uri": "data:application/octet-stream;base64,"
    },
    {
      "byteLength": 18912,
      "uri": "data:application/octet-stream;base64,"
    }
  ],
  "bufferViews": [
    {
      "buffer": 0,
      "byteOffset": 0,
      "byteLength": 8064
    },
    {
      "buffer": 1,
      "byteOffset": 0,
      "byteLength": 18912
    },
    {
      "buffer": 2,
      "byteOffset": 0,
      "byteLength": 18912
    },
    {
      "buffer": 3,
      "byteOffset": 0,
      "byteLength": 18912
    }
  ],
  "meshes": [
    {
      "primitives": [
        {
          "mode": 4,
          "indices": 0,
          "attributes": {
            "POSITION": 1,
            "NORMAL": 2,
            "COLOR_0": 3
          }
        }
      ]
    }
  ],
  "nodes": [
    {
      "children": [
        1
      ]
    },
    {
      "mesh": 0
    }
  ],
  "scenes": [
    {
      "nodes": [
        0
      ]
    }
  ],
  "scene": 0
}