{
  "asset": {
    "version": "2.0",
    "generator": "COLLADA2GLTF"
  },
  "accessors": [
    {
      "bufferView": 0,
      "byteOffset": 0,
      "componentType": 5123,
      "count": 1431,
      "min": [
        0
      ],
      "max": [
        593
      ],
      "type": "SCALAR"
    },
    {
      "bufferView": 1,
      "byteOffset": 0,
      "componentType": 5126,
      "count": 594,
      "max": [
        -96.84700012207031,
        10,
        -389.8140563964844
      ],
      "min": [
        -266.4419860839844,
        0,
        -721.1539916992188
      ],
      "type": "VEC3"
    },
    {
      "bufferView": 2,
      "byteOffset": 0,
      "componentType": 5126,
      "count": 594,
      "max": [
        1,
        1,
        1
      ],
      "min": [
        -1,
        0,
        -1
      ],
      "type": "VEC3"
    },
    {
      "bufferView": 3,
      "byteOffset": 0,
      "componentType": 5126,
      "count": 594,
      "max": [
        0.999786376953125,
        0.7875181436538696,
        0.26330968737602234
      ],
      "min": [
        0.00004577706567943096,
        0.00003051804378628731,
        0
      ],
      "type": "VEC3"
    }
  ],
  "buffers": [
    {
      "byteLength": 2862,
      "uri": "data:application/octet-stream;base64,"
    },
    {
      "byteLength": 7128,
      "uri": "data:application/octet-stream;base64,"
    },
    {
      "byteLength": 7128,
      "uri": "data:application/octet-stream;base64,"
    },
    {
      "byteLength": 7128,
      "uri": "data:application/octet-stream;base64,"
    }
  ],
  "bufferViews": [
    {
      "buffer": 0,
      "byteOffset": 0,
      "byteLength": 2862
    },
    {
      "buffer": 1,
      "byteOffset": 0,
      "byteLength": 7128
    },
    {
      "buffer": 2,
      "byteOffset": 0,
      "byteLength": 7128
    },
    {
      "buffer": 3,
      "byteOffset": 0,
      "byteLength": 7128
    }
  ],
  "meshes": [
    {
      "primitives": [
        {
          "mode": 4,
          "indices": 0,
          "attributes": {
            "POSITION": 1,
            "NORMAL": 2,
            "COLOR_0": 3
          }
        }
      ]
    }
  ],
  "nodes": [
    {
      "children": [
        1
      ]
    },
    {
      "mesh": 0
    }
  ],
  "scenes": [
    {
      "nodes": [
        0
      ]
    }
  ],
  "scene": 0
}