{
  "asset": {
    "version": "2.0",
    "generator": "COLLADA2GLTF"
  },
  "accessors": [
    {
      "bufferView": 0,
      "byteOffset": 0,
      "componentType": 5123,
      "count": 4401,
      "min": [
        0
      ],
      "max": [
        1960
      ],
      "type": "SCALAR"
    },
    {
      "bufferView": 1,
      "byteOffset": 0,
      "componentType": 5126,
      "count": 1961,
      "max": [
        327.15167236328125,
        7.5,
        -354.05047607421875
      ],
      "min": [
        0,
        0,
        -778.6260375976562
      ],
      "type": "VEC3"
    },
    {
      "bufferView": 2,
      "byteOffset": 0,
      "componentType": 5126,
      "count": 1961,
      "max": [
        0.9999613761901855,
        1,
        0.9999447464942932
      ],
      "min": [
        -0.9999613761901855,
        0,
        -0.9999406337738037
      ],
      "type": "VEC3"
    },
    {
      "bufferView": 3,
      "byteOffset": 0,
      "componentType": 5126,
      "count": 1961,
      "max": [
        0.999786376953125,
        1,
        0.26330968737602234
      ],
      "min": [
        0.000015259021893143654,
        0.07324330508708954,
        0.00004577706567943096
      ],
      "type": "VEC3"
    }
  ],
  "buffers": [
    {
      "byteLength": 8802,
      "uri": "data:application/octet-stream;base64,"
    },
    {
      "byteLength": 23532,
      "uri": "data:application/octet-stream;base64,"
    },
    {
      "byteLength": 23532,
      "uri": "data:application/octet-stream;base64,"
    },
    {
      "byteLength": 23532,
      "uri": "data:application/octet-stream;base64,"
    }
  ],
  "bufferViews": [
    {
      "buffer": 0,
      "byteOffset": 0,
      "byteLength": 8802
    },
    {
      "buffer": 1,
      "byteOffset": 0,
      "byteLength": 23532
    },
    {
      "buffer": 2,
      "byteOffset": 0,
      "byteLength": 23532
    },
    {
      "buffer": 3,
      "byteOffset": 0,
      "byteLength": 23532
    }
  ],
  "meshes": [
    {
      "primitives": [
        {
          "mode": 4,
          "indices": 0,
          "attributes": {
            "POSITION": 1,
            "NORMAL": 2,
            "COLOR_0": 3
          }
        }
      ]
    }
  ],
  "nodes": [
    {
      "children": [
        1
      ]
    },
    {
      "mesh": 0
    }
  ],
  "scenes": [
    {
      "nodes": [
        0
      ]
    }
  ],
  "scene": 0
}