{
  "asset": {
    "version": "2.0",
    "generator": "COLLADA2GLTF"
  },
  "accessors": [
    {
      "bufferView": 0,
      "byteOffset": 0,
      "componentType": 5123,
      "count": 3561,
      "min": [
        0
      ],
      "max": [
        1443
      ],
      "type": "SCALAR"
    },
    {
      "bufferView": 1,
      "byteOffset": 0,
      "componentType": 5126,
      "count": 1444,
      "max": [
        168.9080047607422,
        0.10000000149011612,
        516.10302734375
      ],
      "min": [
        -551.3590087890625,
        0,
        -875.718017578125
      ],
      "type": "VEC3"
    },
    {
      "bufferView": 2,
      "byteOffset": 0,
      "componentType": 5126,
      "count": 1444,
      "max": [
        0.9999974966049194,
        1,
        0.999886155128479
      ],
      "min": [
        -0.9999974370002747,
        0,
        -1
      ],
      "type": "VEC3"
    },
    {
      "bufferView": 3,
      "byteOffset": 0,
      "componentType": 5126,
      "count": 1444,
      "max": [
        0.999786376953125,
        1,
        1
      ],
      "min": [
        0,
        0.00003051804378628731,
        0.000015259021893143654
      ],
      "type": "VEC3"
    }
  ],
  "buffers": [
    {
      "byteLength": 7122,
      "uri": "data:application/octet-stream;base64,"
    },
    {
      "byteLength": 17328,
      "uri": "data:application/octet-stream;base64,"
    },
    {
      "byteLength": 17328,
      "uri": "data:application/octet-stream;base64,"
    },
    {
      "byteLength": 17328,
      "uri": "data:application/octet-stream;base64,"
    }
  ],
  "bufferViews": [
    {
      "buffer": 0,
      "byteOffset": 0,
      "byteLength": 7122
    },
    {
      "buffer": 1,
      "byteOffset": 0,
      "byteLength": 17328
    },
    {
      "buffer": 2,
      "byteOffset": 0,
      "byteLength": 17328
    },
    {
      "buffer": 3,
      "byteOffset": 0,
      "byteLength": 17328
    }
  ],
  "meshes": [
    {
      "primitives": [
        {
          "mode": 4,
          "indices": 0,
          "attributes": {
            "POSITION": 1,
            "NORMAL": 2,
            "COLOR_0": 3
          }
        }
      ]
    }
  ],
  "nodes": [
    {
      "children": [
        1
      ]
    },
    {
      "mesh": 0
    }
  ],
  "scenes": [
    {
      "nodes": [
        0
      ]
    }
  ],
  "scene": 0
}