{
  "asset": {
    "version": "2.0",
    "generator": "COLLADA2GLTF"
  },
  "accessors": [
    {
      "bufferView": 0,
      "byteOffset": 0,
      "componentType": 5123,
      "count": 555,
      "min": [
        0
      ],
      "max": [
        245
      ],
      "type": "SCALAR"
    },
    {
      "bufferView": 1,
      "byteOffset": 0,
      "componentType": 5126,
      "count": 246,
      "max": [
        -1767.0035400390625,
        19.5,
        -94.9966812133789
      ],
      "min": [
        -1899.998779296875,
        14.5,
        -215.07278442382812
      ],
      "type": "VEC3"
    },
    {
      "bufferView": 2,
      "byteOffset": 0,
      "componentType": 5126,
      "count": 246,
      "max": [
        0.7653483748435974,
        0.7062286138534546,
        0.7653483748435974
      ],
      "min": [
        -0.7653483748435974,
        -0.7053886651992798,
        -0.7653483748435974
      ],
      "type": "VEC3"
    },
    {
      "bufferView": 3,
      "byteOffset": 0,
      "componentType": 5126,
      "count": 246,
      "max": [
        0.4480048716068268,
        0.4480048716068268,
        0.4480659067630768
      ],
      "min": [
        0,
        0,
        0
      ],
      "type": "VEC3"
    }
  ],
  "buffers": [
    {
      "byteLength": 1110,
      "uri": "data:application/octet-stream;base64,"
    },
    {
      "byteLength": 2952,
      "uri": "data:application/octet-stream;base64,"
    },
    {
      "byteLength": 2952,
      "uri": "data:application/octet-stream;base64,"
    },
    {
      "byteLength": 2952,
      "uri": "data:application/octet-stream;base64,"
    }
  ],
  "bufferViews": [
    {
      "buffer": 0,
      "byteOffset": 0,
      "byteLength": 1110
    },
    {
      "buffer": 1,
      "byteOffset": 0,
      "byteLength": 2952
    },
    {
      "buffer": 2,
      "byteOffset": 0,
      "byteLength": 2952
    },
    {
      "buffer": 3,
      "byteOffset": 0,
      "byteLength": 2952
    }
  ],
  "meshes": [
    {
      "primitives": [
        {
          "mode": 4,
          "indices": 0,
          "attributes": {
            "POSITION": 1,
            "NORMAL": 2,
            "COLOR_0": 3
          }
        }
      ]
    }
  ],
  "nodes": [
    {
      "children": [
        1
      ]
    },
    {
      "mesh": 0
    }
  ],
  "scenes": [
    {
      "nodes": [
        0
      ]
    }
  ],
  "scene": 0
}