{
  "asset": {
    "version": "2.0",
    "generator": "COLLADA2GLTF"
  },
  "accessors": [
    {
      "bufferView": 0,
      "byteOffset": 0,
      "componentType": 5123,
      "count": 3378,
      "min": [
        0
      ],
      "max": [
        1249
      ],
      "type": "SCALAR"
    },
    {
      "bufferView": 1,
      "byteOffset": 0,
      "componentType": 5126,
      "count": 1250,
      "max": [
        567.8781127929688,
        0,
        -1735.8399658203125
      ],
      "min": [
        -210,
        -1,
        -2403.70703125
      ],
      "type": "VEC3"
    },
    {
      "bufferView": 2,
      "byteOffset": 0,
      "componentType": 5126,
      "count": 1250,
      "max": [
        0.8715320229530334,
        1,
        0.7081953287124634
      ],
      "min": [
        -0.48138874769210815,
        0.4675477147102356,
        -0.7123538255691528
      ],
      "type": "VEC3"
    },
    {
      "bufferView": 3,
      "byteOffset": 0,
      "componentType": 5126,
      "count": 1250,
      "max": [
        0.07322804629802704,
        1,
        1
      ],
      "min": [
        0,
        0.00003051804378628731,
        0.00004577706567943096
      ],
      "type": "VEC3"
    }
  ],
  "buffers": [
    {
      "byteLength": 6756,
      "uri": "data:application/octet-stream;base64,"
    },
    {
      "byteLength": 15000,
      "uri": "data:application/octet-stream;base64,"
    },
    {
      "byteLength": 15000,
      "uri": "data:application/octet-stream;base64,"
    },
    {
      "byteLength": 15000,
      "uri": "data:application/octet-stream;base64,"
    }
  ],
  "bufferViews": [
    {
      "buffer": 0,
      "byteOffset": 0,
      "byteLength": 6756
    },
    {
      "buffer": 1,
      "byteOffset": 0,
      "byteLength": 15000
    },
    {
      "buffer": 2,
      "byteOffset": 0,
      "byteLength": 15000
    },
    {
      "buffer": 3,
      "byteOffset": 0,
      "byteLength": 15000
    }
  ],
  "meshes": [
    {
      "primitives": [
        {
          "mode": 4,
          "indices": 0,
          "attributes": {
            "POSITION": 1,
            "NORMAL": 2,
            "COLOR_0": 3
          }
        }
      ]
    }
  ],
  "nodes": [
    {
      "children": [
        1
      ]
    },
    {
      "mesh": 0
    }
  ],
  "scenes": [
    {
      "nodes": [
        0
      ]
    }
  ],
  "scene": 0
}