{
  "asset": {
    "version": "2.0",
    "generator": "COLLADA2GLTF"
  },
  "accessors": [
    {
      "bufferView": 0,
      "byteOffset": 0,
      "componentType": 5123,
      "count": 81,
      "min": [
        0
      ],
      "max": [
        48
      ],
      "type": "SCALAR"
    },
    {
      "bufferView": 1,
      "byteOffset": 0,
      "componentType": 5126,
      "count": 49,
      "max": [
        480.281005859375,
        7.5,
        196.58900451660156
      ],
      "min": [
        427.1650085449219,
        7.5,
        130.76600646972656
      ],
      "type": "VEC3"
    },
    {
      "bufferView": 2,
      "byteOffset": 0,
      "componentType": 5126,
      "count": 49,
      "max": [
        0.6036489009857178,
        1,
        0.9998043179512024
      ],
      "min": [
        -0.9998146891593933,
        0,
        -0.7977964878082275
      ],
      "type": "VEC3"
    },
    {
      "bufferView": 3,
      "byteOffset": 0,
      "componentType": 5126,
      "count": 49,
      "max": [
        0.999786376953125,
        0.7875181436538696,
        0.26330968737602234
      ],
      "min": [
        0.6036774516105652,
        0.00003051804378628731,
        0
      ],
      "type": "VEC3"
    }
  ],
  "buffers": [
    {
      "byteLength": 162,
      "uri": "data:application/octet-stream;base64,"
    },
    {
      "byteLength": 588,
      "uri": "data:application/octet-stream;base64,"
    },
    {
      "byteLength": 588,
      "uri": "data:application/octet-stream;base64,"
    },
    {
      "byteLength": 588,
      "uri": "data:application/octet-stream;base64,"
    }
  ],
  "bufferViews": [
    {
      "buffer": 0,
      "byteOffset": 0,
      "byteLength": 162
    },
    {
      "buffer": 1,
      "byteOffset": 0,
      "byteLength": 588
    },
    {
      "buffer": 2,
      "byteOffset": 0,
      "byteLength": 588
    },
    {
      "buffer": 3,
      "byteOffset": 0,
      "byteLength": 588
    }
  ],
  "meshes": [
    {
      "primitives": [
        {
          "mode": 4,
          "indices": 0,
          "attributes": {
            "POSITION": 1,
            "NORMAL": 2,
            "COLOR_0": 3
          }
        }
      ]
    }
  ],
  "nodes": [
    {
      "children": [
        1
      ]
    },
    {
      "mesh": 0
    }
  ],
  "scenes": [
    {
      "nodes": [
        0
      ]
    }
  ],
  "scene": 0
}