{
  "asset": {
    "version": "2.0",
    "generator": "COLLADA2GLTF"
  },
  "accessors": [
    {
      "bufferView": 0,
      "byteOffset": 0,
      "componentType": 5123,
      "count": 477,
      "min": [
        0
      ],
      "max": [
        225
      ],
      "type": "SCALAR"
    },
    {
      "bufferView": 1,
      "byteOffset": 0,
      "componentType": 5126,
      "count": 226,
      "max": [
        1320,
        7.5,
        120
      ],
      "min": [
        1159.9229736328125,
        0,
        -127.37693786621094
      ],
      "type": "VEC3"
    },
    {
      "bufferView": 2,
      "byteOffset": 0,
      "componentType": 5126,
      "count": 226,
      "max": [
        0.9672000408172607,
        1,
        0.9671787023544312
      ],
      "min": [
        -0.967153012752533,
        0,
        -0.25419488549232483
      ],
      "type": "VEC3"
    },
    {
      "bufferView": 3,
      "byteOffset": 0,
      "componentType": 5126,
      "count": 226,
      "max": [
        0.999786376953125,
        1,
        1
      ],
      "min": [
        0,
        0.00003051804378628731,
        0.00004577706567943096
      ],
      "type": "VEC3"
    }
  ],
  "buffers": [
    {
      "byteLength": 954,
      "uri": "data:application/octet-stream;base64,"
    },
    {
      "byteLength": 2712,
      "uri": "data:application/octet-stream;base64,"
    },
    {
      "byteLength": 2712,
      "uri": "data:application/octet-stream;base64,"
    },
    {
      "byteLength": 2712,
      "uri": "data:application/octet-stream;base64,"
    }
  ],
  "bufferViews": [
    {
      "buffer": 0,
      "byteOffset": 0,
      "byteLength": 954
    },
    {
      "buffer": 1,
      "byteOffset": 0,
      "byteLength": 2712
    },
    {
      "buffer": 2,
      "byteOffset": 0,
      "byteLength": 2712
    },
    {
      "buffer": 3,
      "byteOffset": 0,
      "byteLength": 2712
    }
  ],
  "meshes": [
    {
      "primitives": [
        {
          "mode": 4,
          "indices": 0,
          "attributes": {
            "POSITION": 1,
            "NORMAL": 2,
            "COLOR_0": 3
          }
        }
      ]
    }
  ],
  "nodes": [
    {
      "children": [
        1
      ]
    },
    {
      "mesh": 0
    }
  ],
  "scenes": [
    {
      "nodes": [
        0
      ]
    }
  ],
  "scene": 0
}