{
  "asset": {
    "version": "2.0",
    "generator": "COLLADA2GLTF"
  },
  "accessors": [
    {
      "bufferView": 0,
      "byteOffset": 0,
      "componentType": 5123,
      "count": 1287,
      "min": [
        0
      ],
      "max": [
        573
      ],
      "type": "SCALAR"
    },
    {
      "bufferView": 1,
      "byteOffset": 0,
      "componentType": 5126,
      "count": 574,
      "max": [
        50.38087844848633,
        0.0010000000474974513,
        205.84963989257812
      ],
      "min": [
        -65.06700134277344,
        -0.20000000298023224,
        -90
      ],
      "type": "VEC3"
    },
    {
      "bufferView": 2,
      "byteOffset": 0,
      "componentType": 5126,
      "count": 574,
      "max": [
        0.8488689661026001,
        1,
        0.848686695098877
      ],
      "min": [
        -0.8486499190330505,
        -1,
        -0.8490342497825623
      ],
      "type": "VEC3"
    },
    {
      "bufferView": 3,
      "byteOffset": 0,
      "componentType": 5126,
      "count": 574,
      "max": [
        0.999786376953125,
        1,
        0.7875028848648071
      ],
      "min": [
        0.000015259021893143654,
        0.07324330508708954,
        0.00004577706567943096
      ],
      "type": "VEC3"
    }
  ],
  "buffers": [
    {
      "byteLength": 2574,
      "uri": "data:application/octet-stream;base64,"
    },
    {
      "byteLength": 6888,
      "uri": "data:application/octet-stream;base64,"
    },
    {
      "byteLength": 6888,
      "uri": "data:application/octet-stream;base64,"
    },
    {
      "byteLength": 6888,
      "uri": "data:application/octet-stream;base64,"
    }
  ],
  "bufferViews": [
    {
      "buffer": 0,
      "byteOffset": 0,
      "byteLength": 2574
    },
    {
      "buffer": 1,
      "byteOffset": 0,
      "byteLength": 6888
    },
    {
      "buffer": 2,
      "byteOffset": 0,
      "byteLength": 6888
    },
    {
      "buffer": 3,
      "byteOffset": 0,
      "byteLength": 6888
    }
  ],
  "meshes": [
    {
      "primitives": [
        {
          "mode": 4,
          "indices": 0,
          "attributes": {
            "POSITION": 1,
            "NORMAL": 2,
            "COLOR_0": 3
          }
        }
      ]
    }
  ],
  "nodes": [
    {
      "children": [
        1
      ]
    },
    {
      "mesh": 0
    }
  ],
  "scenes": [
    {
      "nodes": [
        0
      ]
    }
  ],
  "scene": 0
}