{
  "asset": {
    "version": "2.0",
    "generator": "COLLADA2GLTF"
  },
  "accessors": [
    {
      "bufferView": 0,
      "byteOffset": 0,
      "componentType": 5123,
      "count": 9090,
      "min": [
        0
      ],
      "max": [
        3244
      ],
      "type": "SCALAR"
    },
    {
      "bufferView": 1,
      "byteOffset": 0,
      "componentType": 5126,
      "count": 3245,
      "max": [
        -1500,
        7.5,
        1149.3843994140625
      ],
      "min": [
        -1755.1494140625,
        -3,
        720
      ],
      "type": "VEC3"
    },
    {
      "bufferView": 2,
      "byteOffset": 0,
      "componentType": 5126,
      "count": 3245,
      "max": [
        0.8910137414932251,
        1,
        0.8911789655685425
      ],
      "min": [
        -0.89133220911026,
        -1,
        -0.8912970423698425
      ],
      "type": "VEC3"
    },
    {
      "bufferView": 3,
      "byteOffset": 0,
      "componentType": 5126,
      "count": 3245,
      "max": [
        0.999786376953125,
        1,
        0.7875028848648071
      ],
      "min": [
        0.000015259021893143654,
        0.07324330508708954,
        0.00004577706567943096
      ],
      "type": "VEC3"
    }
  ],
  "buffers": [
    {
      "byteLength": 18180,
      "uri": "data:application/octet-stream;base64,"
    },
    {
      "byteLength": 38940,
      "uri": "data:application/octet-stream;base64,"
    },
    {
      "byteLength": 38940,
      "uri": "data:application/octet-stream;base64,"
    },
    {
      "byteLength": 38940,
      "uri": "data:application/octet-stream;base64,"
    }
  ],
  "bufferViews": [
    {
      "buffer": 0,
      "byteOffset": 0,
      "byteLength": 18180
    },
    {
      "buffer": 1,
      "byteOffset": 0,
      "byteLength": 38940
    },
    {
      "buffer": 2,
      "byteOffset": 0,
      "byteLength": 38940
    },
    {
      "buffer": 3,
      "byteOffset": 0,
      "byteLength": 38940
    }
  ],
  "meshes": [
    {
      "primitives": [
        {
          "mode": 4,
          "indices": 0,
          "attributes": {
            "POSITION": 1,
            "NORMAL": 2,
            "COLOR_0": 3
          }
        }
      ]
    }
  ],
  "nodes": [
    {
      "children": [
        1
      ]
    },
    {
      "mesh": 0
    }
  ],
  "scenes": [
    {
      "nodes": [
        0
      ]
    }
  ],
  "scene": 0
}