{
  "asset": {
    "version": "2.0",
    "generator": "COLLADA2GLTF"
  },
  "accessors": [
    {
      "bufferView": 0,
      "byteOffset": 0,
      "componentType": 5123,
      "count": 1278,
      "min": [
        0
      ],
      "max": [
        437
      ],
      "type": "SCALAR"
    },
    {
      "bufferView": 1,
      "byteOffset": 0,
      "componentType": 5126,
      "count": 438,
      "max": [
        -8713.8828125,
        9.5,
        -2126.9736328125
      ],
      "min": [
        -9579.546875,
        -0.5,
        -2449.045166015625
      ],
      "type": "VEC3"
    },
    {
      "bufferView": 2,
      "byteOffset": 0,
      "componentType": 5126,
      "count": 438,
      "max": [
        0.9449870586395264,
        -0.06651900708675385,
        0.9449870586395264
      ],
      "min": [
        -0.9449870586395264,
        -0.2873478829860687,
        -0.9449870586395264
      ],
      "type": "VEC3"
    },
    {
      "bufferView": 3,
      "byteOffset": 0,
      "componentType": 5126,
      "count": 438,
      "max": [
        0.4480048716068268,
        0.4480048716068268,
        0.4480659067630768
      ],
      "min": [
        0.4480048716068268,
        0.4480048716068268,
        0.4480659067630768
      ],
      "type": "VEC3"
    }
  ],
  "buffers": [
    {
      "byteLength": 2556,
      "uri": "data:application/octet-stream;base64,"
    },
    {
      "byteLength": 5256,
      "uri": "data:application/octet-stream;base64,"
    },
    {
      "byteLength": 5256,
      "uri": "data:application/octet-stream;base64,"
    },
    {
      "byteLength": 5256,
      "uri": "data:application/octet-stream;base64,"
    }
  ],
  "bufferViews": [
    {
      "buffer": 0,
      "byteOffset": 0,
      "byteLength": 2556
    },
    {
      "buffer": 1,
      "byteOffset": 0,
      "byteLength": 5256
    },
    {
      "buffer": 2,
      "byteOffset": 0,
      "byteLength": 5256
    },
    {
      "buffer": 3,
      "byteOffset": 0,
      "byteLength": 5256
    }
  ],
  "meshes": [
    {
      "primitives": [
        {
          "mode": 4,
          "indices": 0,
          "attributes": {
            "POSITION": 1,
            "NORMAL": 2,
            "COLOR_0": 3
          }
        }
      ]
    }
  ],
  "nodes": [
    {
      "children": [
        1
      ]
    },
    {
      "mesh": 0
    }
  ],
  "scenes": [
    {
      "nodes": [
        0
      ]
    }
  ],
  "scene": 0
}