{
  "asset": {
    "version": "2.0",
    "generator": "COLLADA2GLTF"
  },
  "accessors": [
    {
      "bufferView": 0,
      "byteOffset": 0,
      "componentType": 5123,
      "count": 1509,
      "min": [
        0
      ],
      "max": [
        634
      ],
      "type": "SCALAR"
    },
    {
      "bufferView": 1,
      "byteOffset": 0,
      "componentType": 5126,
      "count": 635,
      "max": [
        990,
        0,
        -537.08056640625
      ],
      "min": [
        696.040283203125,
        -0.20000000298023224,
        -777.1826171875
      ],
      "type": "VEC3"
    },
    {
      "bufferView": 2,
      "byteOffset": 0,
      "componentType": 5126,
      "count": 635,
      "max": [
        0.7738656401634216,
        1,
        0.7779269814491272
      ],
      "min": [
        -0.7699275016784668,
        -1,
        -0.7738661170005798
      ],
      "type": "VEC3"
    },
    {
      "bufferView": 3,
      "byteOffset": 0,
      "componentType": 5126,
      "count": 635,
      "max": [
        0.999786376953125,
        1,
        0.26330968737602234
      ],
      "min": [
        0.000015259021893143654,
        0.07324330508708954,
        0.00004577706567943096
      ],
      "type": "VEC3"
    }
  ],
  "buffers": [
    {
      "byteLength": 3018,
      "uri": "data:application/octet-stream;base64,"
    },
    {
      "byteLength": 7620,
      "uri": "data:application/octet-stream;base64,"
    },
    {
      "byteLength": 7620,
      "uri": "data:application/octet-stream;base64,"
    },
    {
      "byteLength": 7620,
      "uri": "data:application/octet-stream;base64,"
    }
  ],
  "bufferViews": [
    {
      "buffer": 0,
      "byteOffset": 0,
      "byteLength": 3018
    },
    {
      "buffer": 1,
      "byteOffset": 0,
      "byteLength": 7620
    },
    {
      "buffer": 2,
      "byteOffset": 0,
      "byteLength": 7620
    },
    {
      "buffer": 3,
      "byteOffset": 0,
      "byteLength": 7620
    }
  ],
  "meshes": [
    {
      "primitives": [
        {
          "mode": 4,
          "indices": 0,
          "attributes": {
            "POSITION": 1,
            "NORMAL": 2,
            "COLOR_0": 3
          }
        }
      ]
    }
  ],
  "nodes": [
    {
      "children": [
        1
      ]
    },
    {
      "mesh": 0
    }
  ],
  "scenes": [
    {
      "nodes": [
        0
      ]
    }
  ],
  "scene": 0
}