{
  "asset": {
    "version": "2.0",
    "generator": "COLLADA2GLTF"
  },
  "accessors": [
    {
      "bufferView": 0,
      "byteOffset": 0,
      "componentType": 5123,
      "count": 66,
      "min": [
        0
      ],
      "max": [
        55
      ],
      "type": "SCALAR"
    },
    {
      "bufferView": 1,
      "byteOffset": 0,
      "componentType": 5126,
      "count": 56,
      "max": [
        -2899.843994140625,
        16,
        1275.0279541015625
      ],
      "min": [
        -2980.85107421875,
        0,
        1207.905029296875
      ],
      "type": "VEC3"
    },
    {
      "bufferView": 2,
      "byteOffset": 0,
      "componentType": 5126,
      "count": 56,
      "max": [
        0.9810202121734619,
        0,
        0.9742206931114197
      ],
      "min": [
        -0.9861682653427124,
        0,
        -0.9882264733314514
      ],
      "type": "VEC3"
    },
    {
      "bufferView": 3,
      "byteOffset": 0,
      "componentType": 5126,
      "count": 56,
      "max": [
        0.999786376953125,
        0.7875181436538696,
        0.26330968737602234
      ],
      "min": [
        0.999786376953125,
        0.7875181436538696,
        0.26330968737602234
      ],
      "type": "VEC3"
    }
  ],
  "buffers": [
    {
      "byteLength": 132,
      "uri": "data:application/octet-stream;base64,"
    },
    {
      "byteLength": 672,
      "uri": "data:application/octet-stream;base64,"
    },
    {
      "byteLength": 672,
      "uri": "data:application/octet-stream;base64,"
    },
    {
      "byteLength": 672,
      "uri": "data:application/octet-stream;base64,"
    }
  ],
  "bufferViews": [
    {
      "buffer": 0,
      "byteOffset": 0,
      "byteLength": 132
    },
    {
      "buffer": 1,
      "byteOffset": 0,
      "byteLength": 672
    },
    {
      "buffer": 2,
      "byteOffset": 0,
      "byteLength": 672
    },
    {
      "buffer": 3,
      "byteOffset": 0,
      "byteLength": 672
    }
  ],
  "meshes": [
    {
      "primitives": [
        {
          "mode": 4,
          "indices": 0,
          "attributes": {
            "POSITION": 1,
            "NORMAL": 2,
            "COLOR_0": 3
          }
        }
      ]
    }
  ],
  "nodes": [
    {
      "children": [
        1
      ]
    },
    {
      "mesh": 0
    }
  ],
  "scenes": [
    {
      "nodes": [
        0
      ]
    }
  ],
  "scene": 0
}