{
  "asset": {
    "version": "2.0",
    "generator": "COLLADA2GLTF"
  },
  "accessors": [
    {
      "bufferView": 0,
      "byteOffset": 0,
      "componentType": 5123,
      "count": 24699,
      "min": [
        0
      ],
      "max": [
        8645
      ],
      "type": "SCALAR"
    },
    {
      "bufferView": 1,
      "byteOffset": 0,
      "componentType": 5126,
      "count": 8646,
      "max": [
        168.9080047607422,
        10,
        308.052001953125
      ],
      "min": [
        -311.11700439453125,
        -3,
        -684.3510131835938
      ],
      "type": "VEC3"
    },
    {
      "bufferView": 2,
      "byteOffset": 0,
      "componentType": 5126,
      "count": 8646,
      "max": [
        1,
        1,
        1
      ],
      "min": [
        -1,
        -1,
        -1
      ],
      "type": "VEC3"
    },
    {
      "bufferView": 3,
      "byteOffset": 0,
      "componentType": 5126,
      "count": 8646,
      "max": [
        0.999786376953125,
        1,
        1
      ],
      "min": [
        0,
        0.00003051804378628731,
        0
      ],
      "type": "VEC3"
    }
  ],
  "buffers": [
    {
      "byteLength": 49398,
      "uri": "data:application/octet-stream;base64,"
    },
    {
      "byteLength": 103752,
      "uri": "data:application/octet-stream;base64,"
    },
    {
      "byteLength": 103752,
      "uri": "data:application/octet-stream;base64,"
    },
    {
      "byteLength": 103752,
      "uri": "data:application/octet-stream;base64,"
    }
  ],
  "bufferViews": [
    {
      "buffer": 0,
      "byteOffset": 0,
      "byteLength": 49398
    },
    {
      "buffer": 1,
      "byteOffset": 0,
      "byteLength": 103752
    },
    {
      "buffer": 2,
      "byteOffset": 0,
      "byteLength": 103752
    },
    {
      "buffer": 3,
      "byteOffset": 0,
      "byteLength": 103752
    }
  ],
  "meshes": [
    {
      "primitives": [
        {
          "mode": 4,
          "indices": 0,
          "attributes": {
            "POSITION": 1,
            "NORMAL": 2,
            "COLOR_0": 3
          }
        }
      ]
    }
  ],
  "nodes": [
    {
      "children": [
        1
      ]
    },
    {
      "mesh": 0
    }
  ],
  "scenes": [
    {
      "nodes": [
        0
      ]
    }
  ],
  "scene": 0
}