{
  "asset": {
    "version": "2.0",
    "generator": "COLLADA2GLTF"
  },
  "accessors": [
    {
      "bufferView": 0,
      "byteOffset": 0,
      "componentType": 5123,
      "count": 168,
      "min": [
        0
      ],
      "max": [
        63
      ],
      "type": "SCALAR"
    },
    {
      "bufferView": 1,
      "byteOffset": 0,
      "componentType": 5126,
      "count": 64,
      "max": [
        285.8833923339844,
        0,
        9.041487693786621
      ],
      "min": [
        237.48764038085938,
        -3,
        -24.430763244628906
      ],
      "type": "VEC3"
    },
    {
      "bufferView": 2,
      "byteOffset": 0,
      "componentType": 5126,
      "count": 64,
      "max": [
        0.793499231338501,
        1,
        0.793499231338501
      ],
      "min": [
        -0.793499231338501,
        0,
        -0.793499231338501
      ],
      "type": "VEC3"
    },
    {
      "bufferView": 3,
      "byteOffset": 0,
      "componentType": 5126,
      "count": 64,
      "max": [
        0.21585412323474884,
        0.21585412323474884,
        0.21589989960193634
      ],
      "min": [
        0.21585412323474884,
        0.21585412323474884,
        0.21589989960193634
      ],
      "type": "VEC3"
    }
  ],
  "buffers": [
    {
      "byteLength": 336,
      "uri": "data:application/octet-stream;base64,"
    },
    {
      "byteLength": 768,
      "uri": "data:application/octet-stream;base64,"
    },
    {
      "byteLength": 768,
      "uri": "data:application/octet-stream;base64,"
    },
    {
      "byteLength": 768,
      "uri": "data:application/octet-stream;base64,"
    }
  ],
  "bufferViews": [
    {
      "buffer": 0,
      "byteOffset": 0,
      "byteLength": 336
    },
    {
      "buffer": 1,
      "byteOffset": 0,
      "byteLength": 768
    },
    {
      "buffer": 2,
      "byteOffset": 0,
      "byteLength": 768
    },
    {
      "buffer": 3,
      "byteOffset": 0,
      "byteLength": 768
    }
  ],
  "meshes": [
    {
      "primitives": [
        {
          "mode": 4,
          "indices": 0,
          "attributes": {
            "POSITION": 1,
            "NORMAL": 2,
            "COLOR_0": 3
          }
        }
      ]
    }
  ],
  "nodes": [
    {
      "children": [
        1
      ]
    },
    {
      "mesh": 0
    }
  ],
  "scenes": [
    {
      "nodes": [
        0
      ]
    }
  ],
  "scene": 0
}