{
  "asset": {
    "version": "2.0",
    "generator": "COLLADA2GLTF"
  },
  "accessors": [
    {
      "bufferView": 0,
      "byteOffset": 0,
      "componentType": 5123,
      "count": 3450,
      "min": [
        0
      ],
      "max": [
        2026
      ],
      "type": "SCALAR"
    },
    {
      "bufferView": 1,
      "byteOffset": 0,
      "componentType": 5126,
      "count": 2027,
      "max": [
        -2398.73291015625,
        13.5,
        1301.228759765625
      ],
      "min": [
        -2752.366943359375,
        -0.5,
        961.605712890625
      ],
      "type": "VEC3"
    },
    {
      "bufferView": 2,
      "byteOffset": 0,
      "componentType": 5126,
      "count": 2027,
      "max": [
        1,
        1,
        1
      ],
      "min": [
        -0.9997288584709167,
        -1,
        -0.9993932247161865
      ],
      "type": "VEC3"
    },
    {
      "bufferView": 3,
      "byteOffset": 0,
      "componentType": 5126,
      "count": 2027,
      "max": [
        0.999786376953125,
        0.7875181436538696,
        0.5776455402374268
      ],
      "min": [
        0.00004577706567943096,
        0.00003051804378628731,
        0
      ],
      "type": "VEC3"
    }
  ],
  "buffers": [
    {
      "byteLength": 6900,
      "uri": "data:application/octet-stream;base64,"
    },
    {
      "byteLength": 24324,
      "uri": "data:application/octet-stream;base64,"
    },
    {
      "byteLength": 24324,
      "uri": "data:application/octet-stream;base64,"
    },
    {
      "byteLength": 24324,
      "uri": "data:application/octet-stream;base64,"
    }
  ],
  "bufferViews": [
    {
      "buffer": 0,
      "byteOffset": 0,
      "byteLength": 6900
    },
    {
      "buffer": 1,
      "byteOffset": 0,
      "byteLength": 24324
    },
    {
      "buffer": 2,
      "byteOffset": 0,
      "byteLength": 24324
    },
    {
      "buffer": 3,
      "byteOffset": 0,
      "byteLength": 24324
    }
  ],
  "meshes": [
    {
      "primitives": [
        {
          "mode": 4,
          "indices": 0,
          "attributes": {
            "POSITION": 1,
            "NORMAL": 2,
            "COLOR_0": 3
          }
        }
      ]
    }
  ],
  "nodes": [
    {
      "children": [
        1
      ]
    },
    {
      "mesh": 0
    }
  ],
  "scenes": [
    {
      "nodes": [
        0
      ]
    }
  ],
  "scene": 0
}