{
  "asset": {
    "version": "2.0",
    "generator": "COLLADA2GLTF"
  },
  "accessors": [
    {
      "bufferView": 0,
      "byteOffset": 0,
      "componentType": 5123,
      "count": 4152,
      "min": [
        0
      ],
      "max": [
        3536
      ],
      "type": "SCALAR"
    },
    {
      "bufferView": 1,
      "byteOffset": 0,
      "componentType": 5126,
      "count": 3537,
      "max": [
        423.8299865722656,
        7.5,
        -287.67401123046875
      ],
      "min": [
        157.56300354003906,
        0,
        -519.7919921875
      ],
      "type": "VEC3"
    },
    {
      "bufferView": 2,
      "byteOffset": 0,
      "componentType": 5126,
      "count": 3537,
      "max": [
        1,
        0,
        1
      ],
      "min": [
        -1,
        0,
        -1
      ],
      "type": "VEC3"
    },
    {
      "bufferView": 3,
      "byteOffset": 0,
      "componentType": 5126,
      "count": 3537,
      "max": [
        0.999786376953125,
        0.7875181436538696,
        0.26330968737602234
      ],
      "min": [
        0.999786376953125,
        0.7875181436538696,
        0.26330968737602234
      ],
      "type": "VEC3"
    }
  ],
  "buffers": [
    {
      "byteLength": 8304,
      "uri": "data:application/octet-stream;base64,"
    },
    {
      "byteLength": 42444,
      "uri": "data:application/octet-stream;base64,"
    },
    {
      "byteLength": 42444,
      "uri": "data:application/octet-stream;base64,"
    },
    {
      "byteLength": 42444,
      "uri": "data:application/octet-stream;base64,"
    }
  ],
  "bufferViews": [
    {
      "buffer": 0,
      "byteOffset": 0,
      "byteLength": 8304
    },
    {
      "buffer": 1,
      "byteOffset": 0,
      "byteLength": 42444
    },
    {
      "buffer": 2,
      "byteOffset": 0,
      "byteLength": 42444
    },
    {
      "buffer": 3,
      "byteOffset": 0,
      "byteLength": 42444
    }
  ],
  "meshes": [
    {
      "primitives": [
        {
          "mode": 4,
          "indices": 0,
          "attributes": {
            "POSITION": 1,
            "NORMAL": 2,
            "COLOR_0": 3
          }
        }
      ]
    }
  ],
  "nodes": [
    {
      "children": [
        1
      ]
    },
    {
      "mesh": 0
    }
  ],
  "scenes": [
    {
      "nodes": [
        0
      ]
    }
  ],
  "scene": 0
}