{
  "asset": {
    "version": "2.0",
    "generator": "COLLADA2GLTF"
  },
  "accessors": [
    {
      "bufferView": 0,
      "byteOffset": 0,
      "componentType": 5123,
      "count": 306,
      "min": [
        0
      ],
      "max": [
        139
      ],
      "type": "SCALAR"
    },
    {
      "bufferView": 1,
      "byteOffset": 0,
      "componentType": 5126,
      "count": 140,
      "max": [
        -757.4539794921875,
        7.5,
        -454.4679870605469
      ],
      "min": [
        -826.5020141601562,
        0,
        -707.427978515625
      ],
      "type": "VEC3"
    },
    {
      "bufferView": 2,
      "byteOffset": 0,
      "componentType": 5126,
      "count": 140,
      "max": [
        0.9730952978134155,
        1,
        0.9727356433868408
      ],
      "min": [
        -0.9726643562316895,
        0,
        -0.9727751612663269
      ],
      "type": "VEC3"
    },
    {
      "bufferView": 3,
      "byteOffset": 0,
      "componentType": 5126,
      "count": 140,
      "max": [
        0.999786376953125,
        0.7875181436538696,
        0.26330968737602234
      ],
      "min": [
        0.6036774516105652,
        0.00003051804378628731,
        0
      ],
      "type": "VEC3"
    }
  ],
  "buffers": [
    {
      "byteLength": 612,
      "uri": "data:application/octet-stream;base64,"
    },
    {
      "byteLength": 1680,
      "uri": "data:application/octet-stream;base64,"
    },
    {
      "byteLength": 1680,
      "uri": "data:application/octet-stream;base64,"
    },
    {
      "byteLength": 1680,
      "uri": "data:application/octet-stream;base64,"
    }
  ],
  "bufferViews": [
    {
      "buffer": 0,
      "byteOffset": 0,
      "byteLength": 612
    },
    {
      "buffer": 1,
      "byteOffset": 0,
      "byteLength": 1680
    },
    {
      "buffer": 2,
      "byteOffset": 0,
      "byteLength": 1680
    },
    {
      "buffer": 3,
      "byteOffset": 0,
      "byteLength": 1680
    }
  ],
  "meshes": [
    {
      "primitives": [
        {
          "mode": 4,
          "indices": 0,
          "attributes": {
            "POSITION": 1,
            "NORMAL": 2,
            "COLOR_0": 3
          }
        }
      ]
    }
  ],
  "nodes": [
    {
      "children": [
        1
      ]
    },
    {
      "mesh": 0
    }
  ],
  "scenes": [
    {
      "nodes": [
        0
      ]
    }
  ],
  "scene": 0
}