{
  "asset": {
    "version": "2.0",
    "generator": "COLLADA2GLTF"
  },
  "accessors": [
    {
      "bufferView": 0,
      "byteOffset": 0,
      "componentType": 5123,
      "count": 678,
      "min": [
        0
      ],
      "max": [
        245
      ],
      "type": "SCALAR"
    },
    {
      "bufferView": 1,
      "byteOffset": 0,
      "componentType": 5126,
      "count": 246,
      "max": [
        -968.4705200195312,
        0,
        1121.0682373046875
      ],
      "min": [
        -1273.8475341796875,
        -3,
        886.89697265625
      ],
      "type": "VEC3"
    },
    {
      "bufferView": 2,
      "byteOffset": 0,
      "componentType": 5126,
      "count": 246,
      "max": [
        0.7964077591896057,
        1,
        0.7964077591896057
      ],
      "min": [
        -0.7964077591896057,
        -1,
        -0.7964078783988953
      ],
      "type": "VEC3"
    },
    {
      "bufferView": 3,
      "byteOffset": 0,
      "componentType": 5126,
      "count": 246,
      "max": [
        0.21585412323474884,
        0.21585412323474884,
        0.21589989960193634
      ],
      "min": [
        0.21585412323474884,
        0.21585412323474884,
        0.21589989960193634
      ],
      "type": "VEC3"
    }
  ],
  "buffers": [
    {
      "byteLength": 1356,
      "uri": "data:application/octet-stream;base64,"
    },
    {
      "byteLength": 2952,
      "uri": "data:application/octet-stream;base64,"
    },
    {
      "byteLength": 2952,
      "uri": "data:application/octet-stream;base64,"
    },
    {
      "byteLength": 2952,
      "uri": "data:application/octet-stream;base64,"
    }
  ],
  "bufferViews": [
    {
      "buffer": 0,
      "byteOffset": 0,
      "byteLength": 1356
    },
    {
      "buffer": 1,
      "byteOffset": 0,
      "byteLength": 2952
    },
    {
      "buffer": 2,
      "byteOffset": 0,
      "byteLength": 2952
    },
    {
      "buffer": 3,
      "byteOffset": 0,
      "byteLength": 2952
    }
  ],
  "meshes": [
    {
      "primitives": [
        {
          "mode": 4,
          "indices": 0,
          "attributes": {
            "POSITION": 1,
            "NORMAL": 2,
            "COLOR_0": 3
          }
        }
      ]
    }
  ],
  "nodes": [
    {
      "children": [
        1
      ]
    },
    {
      "mesh": 0
    }
  ],
  "scenes": [
    {
      "nodes": [
        0
      ]
    }
  ],
  "scene": 0
}