{
  "asset": {
    "version": "2.0",
    "generator": "COLLADA2GLTF"
  },
  "accessors": [
    {
      "bufferView": 0,
      "byteOffset": 0,
      "componentType": 5123,
      "count": 4683,
      "min": [
        0
      ],
      "max": [
        1612
      ],
      "type": "SCALAR"
    },
    {
      "bufferView": 1,
      "byteOffset": 0,
      "componentType": 5126,
      "count": 1613,
      "max": [
        -3207.404541015625,
        0.14777499437332153,
        1186.4302978515625
      ],
      "min": [
        -3322.639892578125,
        0,
        1139.4581298828125
      ],
      "type": "VEC3"
    },
    {
      "bufferView": 2,
      "byteOffset": 0,
      "componentType": 5126,
      "count": 1613,
      "max": [
        0.9282659888267517,
        1,
        0.9282659888267517
      ],
      "min": [
        -0.9282659888267517,
        -0.9486833214759827,
        -0.9282659888267517
      ],
      "type": "VEC3"
    },
    {
      "bufferView": 3,
      "byteOffset": 0,
      "componentType": 5126,
      "count": 1613,
      "max": [
        0.5774929523468018,
        0.5776150226593018,
        0.5776455402374268
      ],
      "min": [
        0.07322804629802704,
        0.03309682011604309,
        0.03311207890510559
      ],
      "type": "VEC3"
    }
  ],
  "buffers": [
    {
      "byteLength": 9366,
      "uri": "data:application/octet-stream;base64,"
    },
    {
      "byteLength": 19356,
      "uri": "data:application/octet-stream;base64,"
    },
    {
      "byteLength": 19356,
      "uri": "data:application/octet-stream;base64,"
    },
    {
      "byteLength": 19356,
      "uri": "data:application/octet-stream;base64,"
    }
  ],
  "bufferViews": [
    {
      "buffer": 0,
      "byteOffset": 0,
      "byteLength": 9366
    },
    {
      "buffer": 1,
      "byteOffset": 0,
      "byteLength": 19356
    },
    {
      "buffer": 2,
      "byteOffset": 0,
      "byteLength": 19356
    },
    {
      "buffer": 3,
      "byteOffset": 0,
      "byteLength": 19356
    }
  ],
  "meshes": [
    {
      "primitives": [
        {
          "mode": 4,
          "indices": 0,
          "attributes": {
            "POSITION": 1,
            "NORMAL": 2,
            "COLOR_0": 3
          }
        }
      ]
    }
  ],
  "nodes": [
    {
      "children": [
        1
      ]
    },
    {
      "mesh": 0
    }
  ],
  "scenes": [
    {
      "nodes": [
        0
      ]
    }
  ],
  "scene": 0
}