{
  "asset": {
    "version": "2.0",
    "generator": "COLLADA2GLTF"
  },
  "accessors": [
    {
      "bufferView": 0,
      "byteOffset": 0,
      "componentType": 5123,
      "count": 1485,
      "min": [
        0
      ],
      "max": [
        772
      ],
      "type": "SCALAR"
    },
    {
      "bufferView": 1,
      "byteOffset": 0,
      "componentType": 5126,
      "count": 773,
      "max": [
        2992.626953125,
        7.5,
        -1608.47705078125
      ],
      "min": [
        2705.009033203125,
        0,
        -1907.0789794921875
      ],
      "type": "VEC3"
    },
    {
      "bufferView": 2,
      "byteOffset": 0,
      "componentType": 5126,
      "count": 773,
      "max": [
        1,
        0,
        0.9991252422332764
      ],
      "min": [
        -1,
        0,
        -0.9991533756256104
      ],
      "type": "VEC3"
    },
    {
      "bufferView": 3,
      "byteOffset": 0,
      "componentType": 5126,
      "count": 773,
      "max": [
        0.999786376953125,
        0.7875181436538696,
        0.26330968737602234
      ],
      "min": [
        0.999786376953125,
        0.7875181436538696,
        0.26330968737602234
      ],
      "type": "VEC3"
    }
  ],
  "buffers": [
    {
      "byteLength": 2970,
      "uri": "data:application/octet-stream;base64,"
    },
    {
      "byteLength": 9276,
      "uri": "data:application/octet-stream;base64,"
    },
    {
      "byteLength": 9276,
      "uri": "data:application/octet-stream;base64,"
    },
    {
      "byteLength": 9276,
      "uri": "data:application/octet-stream;base64,"
    }
  ],
  "bufferViews": [
    {
      "buffer": 0,
      "byteOffset": 0,
      "byteLength": 2970
    },
    {
      "buffer": 1,
      "byteOffset": 0,
      "byteLength": 9276
    },
    {
      "buffer": 2,
      "byteOffset": 0,
      "byteLength": 9276
    },
    {
      "buffer": 3,
      "byteOffset": 0,
      "byteLength": 9276
    }
  ],
  "meshes": [
    {
      "primitives": [
        {
          "mode": 4,
          "indices": 0,
          "attributes": {
            "POSITION": 1,
            "NORMAL": 2,
            "COLOR_0": 3
          }
        }
      ]
    }
  ],
  "nodes": [
    {
      "children": [
        1
      ]
    },
    {
      "mesh": 0
    }
  ],
  "scenes": [
    {
      "nodes": [
        0
      ]
    }
  ],
  "scene": 0
}