{
  "asset": {
    "version": "2.0",
    "generator": "COLLADA2GLTF"
  },
  "accessors": [
    {
      "bufferView": 0,
      "byteOffset": 0,
      "componentType": 5123,
      "count": 549,
      "min": [
        0
      ],
      "max": [
        356
      ],
      "type": "SCALAR"
    },
    {
      "bufferView": 1,
      "byteOffset": 0,
      "componentType": 5126,
      "count": 357,
      "max": [
        -2729.33349609375,
        24.526596069335938,
        1618.239990234375
      ],
      "min": [
        -3059.464111328125,
        0,
        1325.8504638671875
      ],
      "type": "VEC3"
    },
    {
      "bufferView": 2,
      "byteOffset": 0,
      "componentType": 5126,
      "count": 357,
      "max": [
        1,
        1,
        1
      ],
      "min": [
        -0.8344591856002808,
        0,
        -0.8511168956756592
      ],
      "type": "VEC3"
    },
    {
      "bufferView": 3,
      "byteOffset": 0,
      "componentType": 5126,
      "count": 357,
      "max": [
        0.999786376953125,
        0.7875181436538696,
        0.26330968737602234
      ],
      "min": [
        0.00004577706567943096,
        0.00003051804378628731,
        0
      ],
      "type": "VEC3"
    }
  ],
  "buffers": [
    {
      "byteLength": 1098,
      "uri": "data:application/octet-stream;base64,"
    },
    {
      "byteLength": 4284,
      "uri": "data:application/octet-stream;base64,"
    },
    {
      "byteLength": 4284,
      "uri": "data:application/octet-stream;base64,"
    },
    {
      "byteLength": 4284,
      "uri": "data:application/octet-stream;base64,"
    }
  ],
  "bufferViews": [
    {
      "buffer": 0,
      "byteOffset": 0,
      "byteLength": 1098
    },
    {
      "buffer": 1,
      "byteOffset": 0,
      "byteLength": 4284
    },
    {
      "buffer": 2,
      "byteOffset": 0,
      "byteLength": 4284
    },
    {
      "buffer": 3,
      "byteOffset": 0,
      "byteLength": 4284
    }
  ],
  "meshes": [
    {
      "primitives": [
        {
          "mode": 4,
          "indices": 0,
          "attributes": {
            "POSITION": 1,
            "NORMAL": 2,
            "COLOR_0": 3
          }
        }
      ]
    }
  ],
  "nodes": [
    {
      "children": [
        1
      ]
    },
    {
      "mesh": 0
    }
  ],
  "scenes": [
    {
      "nodes": [
        0
      ]
    }
  ],
  "scene": 0
}