{
  "asset": {
    "version": "2.0",
    "generator": "COLLADA2GLTF"
  },
  "accessors": [
    {
      "bufferView": 0,
      "byteOffset": 0,
      "componentType": 5123,
      "count": 111,
      "min": [
        0
      ],
      "max": [
        61
      ],
      "type": "SCALAR"
    },
    {
      "bufferView": 1,
      "byteOffset": 0,
      "componentType": 5126,
      "count": 62,
      "max": [
        -256.8169860839844,
        7.5,
        -272.64599609375
      ],
      "min": [
        -277.86199951171875,
        0,
        -297.281005859375
      ],
      "type": "VEC3"
    },
    {
      "bufferView": 2,
      "byteOffset": 0,
      "componentType": 5126,
      "count": 62,
      "max": [
        0.9508125185966492,
        0,
        0.9512516856193542
      ],
      "min": [
        -0.9508419632911682,
        0,
        -0.9512898325920105
      ],
      "type": "VEC3"
    },
    {
      "bufferView": 3,
      "byteOffset": 0,
      "componentType": 5126,
      "count": 62,
      "max": [
        0.999786376953125,
        0.7875181436538696,
        0.26330968737602234
      ],
      "min": [
        0.999786376953125,
        0.7875181436538696,
        0.26330968737602234
      ],
      "type": "VEC3"
    }
  ],
  "buffers": [
    {
      "byteLength": 222,
      "uri": "data:application/octet-stream;base64,"
    },
    {
      "byteLength": 744,
      "uri": "data:application/octet-stream;base64,"
    },
    {
      "byteLength": 744,
      "uri": "data:application/octet-stream;base64,"
    },
    {
      "byteLength": 744,
      "uri": "data:application/octet-stream;base64,"
    }
  ],
  "bufferViews": [
    {
      "buffer": 0,
      "byteOffset": 0,
      "byteLength": 222
    },
    {
      "buffer": 1,
      "byteOffset": 0,
      "byteLength": 744
    },
    {
      "buffer": 2,
      "byteOffset": 0,
      "byteLength": 744
    },
    {
      "buffer": 3,
      "byteOffset": 0,
      "byteLength": 744
    }
  ],
  "meshes": [
    {
      "primitives": [
        {
          "mode": 4,
          "indices": 0,
          "attributes": {
            "POSITION": 1,
            "NORMAL": 2,
            "COLOR_0": 3
          }
        }
      ]
    }
  ],
  "nodes": [
    {
      "children": [
        1
      ]
    },
    {
      "mesh": 0
    }
  ],
  "scenes": [
    {
      "nodes": [
        0
      ]
    }
  ],
  "scene": 0
}