{
  "asset": {
    "version": "2.0",
    "generator": "COLLADA2GLTF"
  },
  "accessors": [
    {
      "bufferView": 0,
      "byteOffset": 0,
      "componentType": 5123,
      "count": 477,
      "min": [
        0
      ],
      "max": [
        262
      ],
      "type": "SCALAR"
    },
    {
      "bufferView": 1,
      "byteOffset": 0,
      "componentType": 5126,
      "count": 263,
      "max": [
        519.0590209960938,
        7.5,
        -300.40899658203125
      ],
      "min": [
        408.2239990234375,
        0,
        -552.7100219726562
      ],
      "type": "VEC3"
    },
    {
      "bufferView": 2,
      "byteOffset": 0,
      "componentType": 5126,
      "count": 263,
      "max": [
        0.7931731939315796,
        0,
        0.7931309342384338
      ],
      "min": [
        -0.7935088872909546,
        0,
        -0.7940117120742798
      ],
      "type": "VEC3"
    },
    {
      "bufferView": 3,
      "byteOffset": 0,
      "componentType": 5126,
      "count": 263,
      "max": [
        0.999786376953125,
        0.7875181436538696,
        0.26330968737602234
      ],
      "min": [
        0.999786376953125,
        0.7875181436538696,
        0.26330968737602234
      ],
      "type": "VEC3"
    }
  ],
  "buffers": [
    {
      "byteLength": 954,
      "uri": "data:application/octet-stream;base64,"
    },
    {
      "byteLength": 3156,
      "uri": "data:application/octet-stream;base64,"
    },
    {
      "byteLength": 3156,
      "uri": "data:application/octet-stream;base64,"
    },
    {
      "byteLength": 3156,
      "uri": "data:application/octet-stream;base64,"
    }
  ],
  "bufferViews": [
    {
      "buffer": 0,
      "byteOffset": 0,
      "byteLength": 954
    },
    {
      "buffer": 1,
      "byteOffset": 0,
      "byteLength": 3156
    },
    {
      "buffer": 2,
      "byteOffset": 0,
      "byteLength": 3156
    },
    {
      "buffer": 3,
      "byteOffset": 0,
      "byteLength": 3156
    }
  ],
  "meshes": [
    {
      "primitives": [
        {
          "mode": 4,
          "indices": 0,
          "attributes": {
            "POSITION": 1,
            "NORMAL": 2,
            "COLOR_0": 3
          }
        }
      ]
    }
  ],
  "nodes": [
    {
      "children": [
        1
      ]
    },
    {
      "mesh": 0
    }
  ],
  "scenes": [
    {
      "nodes": [
        0
      ]
    }
  ],
  "scene": 0
}