{
  "asset": {
    "version": "2.0",
    "generator": "COLLADA2GLTF"
  },
  "accessors": [
    {
      "bufferView": 0,
      "byteOffset": 0,
      "componentType": 5123,
      "count": 1854,
      "min": [
        0
      ],
      "max": [
        753
      ],
      "type": "SCALAR"
    },
    {
      "bufferView": 1,
      "byteOffset": 0,
      "componentType": 5126,
      "count": 754,
      "max": [
        17.314476013183594,
        0.10000000149011612,
        -291.5929870605469
      ],
      "min": [
        -43.494441986083984,
        -0.20000000298023224,
        -408.02972412109375
      ],
      "type": "VEC3"
    },
    {
      "bufferView": 2,
      "byteOffset": 0,
      "componentType": 5126,
      "count": 754,
      "max": [
        0.9016775488853455,
        1,
        0.8795679211616516
      ],
      "min": [
        -0.9018346071243286,
        -1,
        -0.8722675442695618
      ],
      "type": "VEC3"
    },
    {
      "bufferView": 3,
      "byteOffset": 0,
      "componentType": 5126,
      "count": 754,
      "max": [
        0.7872740030288696,
        1,
        1
      ],
      "min": [
        0,
        0.00003051804378628731,
        0.00004577706567943096
      ],
      "type": "VEC3"
    }
  ],
  "buffers": [
    {
      "byteLength": 3708,
      "uri": "data:application/octet-stream;base64,"
    },
    {
      "byteLength": 9048,
      "uri": "data:application/octet-stream;base64,"
    },
    {
      "byteLength": 9048,
      "uri": "data:application/octet-stream;base64,"
    },
    {
      "byteLength": 9048,
      "uri": "data:application/octet-stream;base64,"
    }
  ],
  "bufferViews": [
    {
      "buffer": 0,
      "byteOffset": 0,
      "byteLength": 3708
    },
    {
      "buffer": 1,
      "byteOffset": 0,
      "byteLength": 9048
    },
    {
      "buffer": 2,
      "byteOffset": 0,
      "byteLength": 9048
    },
    {
      "buffer": 3,
      "byteOffset": 0,
      "byteLength": 9048
    }
  ],
  "meshes": [
    {
      "primitives": [
        {
          "mode": 4,
          "indices": 0,
          "attributes": {
            "POSITION": 1,
            "NORMAL": 2,
            "COLOR_0": 3
          }
        }
      ]
    }
  ],
  "nodes": [
    {
      "children": [
        1
      ]
    },
    {
      "mesh": 0
    }
  ],
  "scenes": [
    {
      "nodes": [
        0
      ]
    }
  ],
  "scene": 0
}