{
  "asset": {
    "version": "2.0",
    "generator": "COLLADA2GLTF"
  },
  "accessors": [
    {
      "bufferView": 0,
      "byteOffset": 0,
      "componentType": 5123,
      "count": 201,
      "min": [
        0
      ],
      "max": [
        101
      ],
      "type": "SCALAR"
    },
    {
      "bufferView": 1,
      "byteOffset": 0,
      "componentType": 5126,
      "count": 102,
      "max": [
        1590.76416015625,
        0,
        601.4435424804688
      ],
      "min": [
        1290,
        0,
        495.1609802246094
      ],
      "type": "VEC3"
    },
    {
      "bufferView": 2,
      "byteOffset": 0,
      "componentType": 5126,
      "count": 102,
      "max": [
        0,
        1,
        0
      ],
      "min": [
        0,
        1,
        0
      ],
      "type": "VEC3"
    },
    {
      "bufferView": 3,
      "byteOffset": 0,
      "componentType": 5126,
      "count": 102,
      "max": [
        0.07322804629802704,
        1,
        0.07325856387615204
      ],
      "min": [
        0.000015259021893143654,
        0.07324330508708954,
        0.00004577706567943096
      ],
      "type": "VEC3"
    }
  ],
  "buffers": [
    {
      "byteLength": 402,
      "uri": "data:application/octet-stream;base64,"
    },
    {
      "byteLength": 1224,
      "uri": "data:application/octet-stream;base64,"
    },
    {
      "byteLength": 1224,
      "uri": "data:application/octet-stream;base64,"
    },
    {
      "byteLength": 1224,
      "uri": "data:application/octet-stream;base64,"
    }
  ],
  "bufferViews": [
    {
      "buffer": 0,
      "byteOffset": 0,
      "byteLength": 402
    },
    {
      "buffer": 1,
      "byteOffset": 0,
      "byteLength": 1224
    },
    {
      "buffer": 2,
      "byteOffset": 0,
      "byteLength": 1224
    },
    {
      "buffer": 3,
      "byteOffset": 0,
      "byteLength": 1224
    }
  ],
  "meshes": [
    {
      "primitives": [
        {
          "mode": 4,
          "indices": 0,
          "attributes": {
            "POSITION": 1,
            "NORMAL": 2,
            "COLOR_0": 3
          }
        }
      ]
    }
  ],
  "nodes": [
    {
      "children": [
        1
      ]
    },
    {
      "mesh": 0
    }
  ],
  "scenes": [
    {
      "nodes": [
        0
      ]
    }
  ],
  "scene": 0
}