{
  "asset": {
    "version": "2.0",
    "generator": "COLLADA2GLTF"
  },
  "accessors": [
    {
      "bufferView": 0,
      "byteOffset": 0,
      "componentType": 5123,
      "count": 2751,
      "min": [
        0
      ],
      "max": [
        1135
      ],
      "type": "SCALAR"
    },
    {
      "bufferView": 1,
      "byteOffset": 0,
      "componentType": 5126,
      "count": 1136,
      "max": [
        1216.662109375,
        7.5,
        118.28604888916016
      ],
      "min": [
        972.4608154296875,
        -0.20000000298023224,
        -180
      ],
      "type": "VEC3"
    },
    {
      "bufferView": 2,
      "byteOffset": 0,
      "componentType": 5126,
      "count": 1136,
      "max": [
        0.9416427612304688,
        1,
        0.9412747621536255
      ],
      "min": [
        -0.9316456913948059,
        -1,
        -0.9412747621536255
      ],
      "type": "VEC3"
    },
    {
      "bufferView": 3,
      "byteOffset": 0,
      "componentType": 5126,
      "count": 1136,
      "max": [
        0.999786376953125,
        1,
        0.7875028848648071
      ],
      "min": [
        0.000015259021893143654,
        0.07324330508708954,
        0.00004577706567943096
      ],
      "type": "VEC3"
    }
  ],
  "buffers": [
    {
      "byteLength": 5502,
      "uri": "data:application/octet-stream;base64,"
    },
    {
      "byteLength": 13632,
      "uri": "data:application/octet-stream;base64,"
    },
    {
      "byteLength": 13632,
      "uri": "data:application/octet-stream;base64,"
    },
    {
      "byteLength": 13632,
      "uri": "data:application/octet-stream;base64,"
    }
  ],
  "bufferViews": [
    {
      "buffer": 0,
      "byteOffset": 0,
      "byteLength": 5502
    },
    {
      "buffer": 1,
      "byteOffset": 0,
      "byteLength": 13632
    },
    {
      "buffer": 2,
      "byteOffset": 0,
      "byteLength": 13632
    },
    {
      "buffer": 3,
      "byteOffset": 0,
      "byteLength": 13632
    }
  ],
  "meshes": [
    {
      "primitives": [
        {
          "mode": 4,
          "indices": 0,
          "attributes": {
            "POSITION": 1,
            "NORMAL": 2,
            "COLOR_0": 3
          }
        }
      ]
    }
  ],
  "nodes": [
    {
      "children": [
        1
      ]
    },
    {
      "mesh": 0
    }
  ],
  "scenes": [
    {
      "nodes": [
        0
      ]
    }
  ],
  "scene": 0
}