{
  "asset": {
    "version": "2.0",
    "generator": "COLLADA2GLTF"
  },
  "accessors": [
    {
      "bufferView": 0,
      "byteOffset": 0,
      "componentType": 5123,
      "count": 4032,
      "min": [
        0
      ],
      "max": [
        1561
      ],
      "type": "SCALAR"
    },
    {
      "bufferView": 1,
      "byteOffset": 0,
      "componentType": 5126,
      "count": 1562,
      "max": [
        3090,
        2.299999952316284,
        1733.98193359375
      ],
      "min": [
        2639.548828125,
        0,
        1140
      ],
      "type": "VEC3"
    },
    {
      "bufferView": 2,
      "byteOffset": 0,
      "componentType": 5126,
      "count": 1562,
      "max": [
        0.9898214340209961,
        1,
        1
      ],
      "min": [
        -0.9898214340209961,
        -1,
        -0.9594929814338684
      ],
      "type": "VEC3"
    },
    {
      "bufferView": 3,
      "byteOffset": 0,
      "componentType": 5126,
      "count": 1562,
      "max": [
        0.9549705982208252,
        1,
        0.7875028848648071
      ],
      "min": [
        0.000015259021893143654,
        0.07324330508708954,
        0.00004577706567943096
      ],
      "type": "VEC3"
    }
  ],
  "buffers": [
    {
      "byteLength": 8064,
      "uri": "data:application/octet-stream;base64,"
    },
    {
      "byteLength": 18744,
      "uri": "data:application/octet-stream;base64,"
    },
    {
      "byteLength": 18744,
      "uri": "data:application/octet-stream;base64,"
    },
    {
      "byteLength": 18744,
      "uri": "data:application/octet-stream;base64,"
    }
  ],
  "bufferViews": [
    {
      "buffer": 0,
      "byteOffset": 0,
      "byteLength": 8064
    },
    {
      "buffer": 1,
      "byteOffset": 0,
      "byteLength": 18744
    },
    {
      "buffer": 2,
      "byteOffset": 0,
      "byteLength": 18744
    },
    {
      "buffer": 3,
      "byteOffset": 0,
      "byteLength": 18744
    }
  ],
  "meshes": [
    {
      "primitives": [
        {
          "mode": 4,
          "indices": 0,
          "attributes": {
            "POSITION": 1,
            "NORMAL": 2,
            "COLOR_0": 3
          }
        }
      ]
    }
  ],
  "nodes": [
    {
      "children": [
        1
      ]
    },
    {
      "mesh": 0
    }
  ],
  "scenes": [
    {
      "nodes": [
        0
      ]
    }
  ],
  "scene": 0
}