{
  "asset": {
    "version": "2.0",
    "generator": "COLLADA2GLTF"
  },
  "accessors": [
    {
      "bufferView": 0,
      "byteOffset": 0,
      "componentType": 5123,
      "count": 5655,
      "min": [
        0
      ],
      "max": [
        2352
      ],
      "type": "SCALAR"
    },
    {
      "bufferView": 1,
      "byteOffset": 0,
      "componentType": 5126,
      "count": 2353,
      "max": [
        2790,
        0.0010000000474974513,
        1140
      ],
      "min": [
        2358.710205078125,
        0,
        648.9696044921875
      ],
      "type": "VEC3"
    },
    {
      "bufferView": 2,
      "byteOffset": 0,
      "componentType": 5126,
      "count": 2353,
      "max": [
        0.9930204749107361,
        1,
        0.8766195774078369
      ],
      "min": [
        -0.8765957355499268,
        0,
        -0.9607011675834656
      ],
      "type": "VEC3"
    },
    {
      "bufferView": 3,
      "byteOffset": 0,
      "componentType": 5126,
      "count": 2353,
      "max": [
        0.999786376953125,
        1,
        0.7875028848648071
      ],
      "min": [
        0.000015259021893143654,
        0.07324330508708954,
        0.00004577706567943096
      ],
      "type": "VEC3"
    }
  ],
  "buffers": [
    {
      "byteLength": 11310,
      "uri": "data:application/octet-stream;base64,"
    },
    {
      "byteLength": 28236,
      "uri": "data:application/octet-stream;base64,"
    },
    {
      "byteLength": 28236,
      "uri": "data:application/octet-stream;base64,"
    },
    {
      "byteLength": 28236,
      "uri": "data:application/octet-stream;base64,"
    }
  ],
  "bufferViews": [
    {
      "buffer": 0,
      "byteOffset": 0,
      "byteLength": 11310
    },
    {
      "buffer": 1,
      "byteOffset": 0,
      "byteLength": 28236
    },
    {
      "buffer": 2,
      "byteOffset": 0,
      "byteLength": 28236
    },
    {
      "buffer": 3,
      "byteOffset": 0,
      "byteLength": 28236
    }
  ],
  "meshes": [
    {
      "primitives": [
        {
          "mode": 4,
          "indices": 0,
          "attributes": {
            "POSITION": 1,
            "NORMAL": 2,
            "COLOR_0": 3
          }
        }
      ]
    }
  ],
  "nodes": [
    {
      "children": [
        1
      ]
    },
    {
      "mesh": 0
    }
  ],
  "scenes": [
    {
      "nodes": [
        0
      ]
    }
  ],
  "scene": 0
}