{
  "asset": {
    "version": "2.0",
    "generator": "COLLADA2GLTF"
  },
  "accessors": [
    {
      "bufferView": 0,
      "byteOffset": 0,
      "componentType": 5123,
      "count": 12813,
      "min": [
        0
      ],
      "max": [
        4869
      ],
      "type": "SCALAR"
    },
    {
      "bufferView": 1,
      "byteOffset": 0,
      "componentType": 5126,
      "count": 4870,
      "max": [
        673.3135375976562,
        7.5,
        -270
      ],
      "min": [
        300,
        0,
        -703.7567138671875
      ],
      "type": "VEC3"
    },
    {
      "bufferView": 2,
      "byteOffset": 0,
      "componentType": 5126,
      "count": 4870,
      "max": [
        0.9976363778114319,
        1,
        0.9998588562011719
      ],
      "min": [
        -0.9970486760139465,
        0,
        -0.9890368580818176
      ],
      "type": "VEC3"
    },
    {
      "bufferView": 3,
      "byteOffset": 0,
      "componentType": 5126,
      "count": 4870,
      "max": [
        0.999786376953125,
        1,
        0.7875028848648071
      ],
      "min": [
        0.000015259021893143654,
        0.07324330508708954,
        0.00004577706567943096
      ],
      "type": "VEC3"
    }
  ],
  "buffers": [
    {
      "byteLength": 25626,
      "uri": "data:application/octet-stream;base64,"
    },
    {
      "byteLength": 58440,
      "uri": "data:application/octet-stream;base64,"
    },
    {
      "byteLength": 58440,
      "uri": "data:application/octet-stream;base64,"
    },
    {
      "byteLength": 58440,
      "uri": "data:application/octet-stream;base64,"
    }
  ],
  "bufferViews": [
    {
      "buffer": 0,
      "byteOffset": 0,
      "byteLength": 25626
    },
    {
      "buffer": 1,
      "byteOffset": 0,
      "byteLength": 58440
    },
    {
      "buffer": 2,
      "byteOffset": 0,
      "byteLength": 58440
    },
    {
      "buffer": 3,
      "byteOffset": 0,
      "byteLength": 58440
    }
  ],
  "meshes": [
    {
      "primitives": [
        {
          "mode": 4,
          "indices": 0,
          "attributes": {
            "POSITION": 1,
            "NORMAL": 2,
            "COLOR_0": 3
          }
        }
      ]
    }
  ],
  "nodes": [
    {
      "children": [
        1
      ]
    },
    {
      "mesh": 0
    }
  ],
  "scenes": [
    {
      "nodes": [
        0
      ]
    }
  ],
  "scene": 0
}