{
  "asset": {
    "version": "2.0",
    "generator": "COLLADA2GLTF"
  },
  "accessors": [
    {
      "bufferView": 0,
      "byteOffset": 0,
      "componentType": 5123,
      "count": 2865,
      "min": [
        0
      ],
      "max": [
        1275
      ],
      "type": "SCALAR"
    },
    {
      "bufferView": 1,
      "byteOffset": 0,
      "componentType": 5126,
      "count": 1276,
      "max": [
        -2065.03076171875,
        30,
        1375.8135986328125
      ],
      "min": [
        -2729.47802734375,
        0,
        1012.2850952148438
      ],
      "type": "VEC3"
    },
    {
      "bufferView": 2,
      "byteOffset": 0,
      "componentType": 5126,
      "count": 1276,
      "max": [
        0.9999632239341736,
        0.707094669342041,
        0.9947241544723511
      ],
      "min": [
        -0.9947241544723511,
        -0.707094669342041,
        -0.9947241544723511
      ],
      "type": "VEC3"
    },
    {
      "bufferView": 3,
      "byteOffset": 0,
      "componentType": 5126,
      "count": 1276,
      "max": [
        0.999786376953125,
        0.7875181436538696,
        0.4480659067630768
      ],
      "min": [
        0,
        0,
        0
      ],
      "type": "VEC3"
    }
  ],
  "buffers": [
    {
      "byteLength": 5730,
      "uri": "data:application/octet-stream;base64,"
    },
    {
      "byteLength": 15312,
      "uri": "data:application/octet-stream;base64,"
    },
    {
      "byteLength": 15312,
      "uri": "data:application/octet-stream;base64,"
    },
    {
      "byteLength": 15312,
      "uri": "data:application/octet-stream;base64,"
    }
  ],
  "bufferViews": [
    {
      "buffer": 0,
      "byteOffset": 0,
      "byteLength": 5730
    },
    {
      "buffer": 1,
      "byteOffset": 0,
      "byteLength": 15312
    },
    {
      "buffer": 2,
      "byteOffset": 0,
      "byteLength": 15312
    },
    {
      "buffer": 3,
      "byteOffset": 0,
      "byteLength": 15312
    }
  ],
  "meshes": [
    {
      "primitives": [
        {
          "mode": 4,
          "indices": 0,
          "attributes": {
            "POSITION": 1,
            "NORMAL": 2,
            "COLOR_0": 3
          }
        }
      ]
    }
  ],
  "nodes": [
    {
      "children": [
        1
      ]
    },
    {
      "mesh": 0
    }
  ],
  "scenes": [
    {
      "nodes": [
        0
      ]
    }
  ],
  "scene": 0
}