{
  "asset": {
    "version": "2.0",
    "generator": "COLLADA2GLTF"
  },
  "accessors": [
    {
      "bufferView": 0,
      "byteOffset": 0,
      "componentType": 5123,
      "count": 4197,
      "min": [
        0
      ],
      "max": [
        1468
      ],
      "type": "SCALAR"
    },
    {
      "bufferView": 1,
      "byteOffset": 0,
      "componentType": 5126,
      "count": 1469,
      "max": [
        4441.48388671875,
        0.0010000000474974513,
        -474.8768615722656
      ],
      "min": [
        3367.976318359375,
        -3,
        -1640.881591796875
      ],
      "type": "VEC3"
    },
    {
      "bufferView": 2,
      "byteOffset": 0,
      "componentType": 5126,
      "count": 1469,
      "max": [
        0.8239991068840027,
        1,
        0.8239984512329102
      ],
      "min": [
        -0.8243516087532043,
        -1,
        -0.8239984512329102
      ],
      "type": "VEC3"
    },
    {
      "bufferView": 3,
      "byteOffset": 0,
      "componentType": 5126,
      "count": 1469,
      "max": [
        0.7872740030288696,
        0.7875028848648071,
        1
      ],
      "min": [
        0,
        0.00003051804378628731,
        0.07325856387615204
      ],
      "type": "VEC3"
    }
  ],
  "buffers": [
    {
      "byteLength": 8394,
      "uri": "data:application/octet-stream;base64,"
    },
    {
      "byteLength": 17628,
      "uri": "data:application/octet-stream;base64,"
    },
    {
      "byteLength": 17628,
      "uri": "data:application/octet-stream;base64,"
    },
    {
      "byteLength": 17628,
      "uri": "data:application/octet-stream;base64,"
    }
  ],
  "bufferViews": [
    {
      "buffer": 0,
      "byteOffset": 0,
      "byteLength": 8394
    },
    {
      "buffer": 1,
      "byteOffset": 0,
      "byteLength": 17628
    },
    {
      "buffer": 2,
      "byteOffset": 0,
      "byteLength": 17628
    },
    {
      "buffer": 3,
      "byteOffset": 0,
      "byteLength": 17628
    }
  ],
  "meshes": [
    {
      "primitives": [
        {
          "mode": 4,
          "indices": 0,
          "attributes": {
            "POSITION": 1,
            "NORMAL": 2,
            "COLOR_0": 3
          }
        }
      ]
    }
  ],
  "nodes": [
    {
      "children": [
        1
      ]
    },
    {
      "mesh": 0
    }
  ],
  "scenes": [
    {
      "nodes": [
        0
      ]
    }
  ],
  "scene": 0
}