{
  "asset": {
    "version": "2.0",
    "generator": "COLLADA2GLTF"
  },
  "accessors": [
    {
      "bufferView": 0,
      "byteOffset": 0,
      "componentType": 5123,
      "count": 21,
      "min": [
        0
      ],
      "max": [
        18
      ],
      "type": "SCALAR"
    },
    {
      "bufferView": 1,
      "byteOffset": 0,
      "componentType": 5126,
      "count": 19,
      "max": [
        -2910,
        0,
        1410
      ],
      "min": [
        -3026.8623046875,
        0,
        1297.327392578125
      ],
      "type": "VEC3"
    },
    {
      "bufferView": 2,
      "byteOffset": 0,
      "componentType": 5126,
      "count": 19,
      "max": [
        0,
        1,
        0
      ],
      "min": [
        0,
        1,
        0
      ],
      "type": "VEC3"
    },
    {
      "bufferView": 3,
      "byteOffset": 0,
      "componentType": 5126,
      "count": 19,
      "max": [
        0.000015259021893143654,
        1,
        0.00004577706567943096
      ],
      "min": [
        0.000015259021893143654,
        1,
        0.00004577706567943096
      ],
      "type": "VEC3"
    }
  ],
  "buffers": [
    {
      "byteLength": 42,
      "uri": "data:application/octet-stream;base64,"
    },
    {
      "byteLength": 228,
      "uri": "data:application/octet-stream;base64,"
    },
    {
      "byteLength": 228,
      "uri": "data:application/octet-stream;base64,"
    },
    {
      "byteLength": 228,
      "uri": "data:application/octet-stream;base64,"
    }
  ],
  "bufferViews": [
    {
      "buffer": 0,
      "byteOffset": 0,
      "byteLength": 42
    },
    {
      "buffer": 1,
      "byteOffset": 0,
      "byteLength": 228
    },
    {
      "buffer": 2,
      "byteOffset": 0,
      "byteLength": 228
    },
    {
      "buffer": 3,
      "byteOffset": 0,
      "byteLength": 228
    }
  ],
  "meshes": [
    {
      "primitives": [
        {
          "mode": 4,
          "indices": 0,
          "attributes": {
            "POSITION": 1,
            "NORMAL": 2,
            "COLOR_0": 3
          }
        }
      ]
    }
  ],
  "nodes": [
    {
      "children": [
        1
      ]
    },
    {
      "mesh": 0
    }
  ],
  "scenes": [
    {
      "nodes": [
        0
      ]
    }
  ],
  "scene": 0
}