{
  "asset": {
    "version": "2.0",
    "generator": "COLLADA2GLTF"
  },
  "accessors": [
    {
      "bufferView": 0,
      "byteOffset": 0,
      "componentType": 5123,
      "count": 1479,
      "min": [
        0
      ],
      "max": [
        956
      ],
      "type": "SCALAR"
    },
    {
      "bufferView": 1,
      "byteOffset": 0,
      "componentType": 5126,
      "count": 957,
      "max": [
        -1934.856201171875,
        0.0010000000474974513,
        452.8019104003906
      ],
      "min": [
        -2062.554931640625,
        -0.20000000298023224,
        366.0481262207031
      ],
      "type": "VEC3"
    },
    {
      "bufferView": 2,
      "byteOffset": 0,
      "componentType": 5126,
      "count": 957,
      "max": [
        0.9217907190322876,
        1,
        0.9217907190322876
      ],
      "min": [
        -0.8832547068595886,
        -1,
        -0.9217907190322876
      ],
      "type": "VEC3"
    },
    {
      "bufferView": 3,
      "byteOffset": 0,
      "componentType": 5126,
      "count": 957,
      "max": [
        0.7872740030288696,
        1,
        0.7875028848648071
      ],
      "min": [
        0.000015259021893143654,
        0.07324330508708954,
        0.00004577706567943096
      ],
      "type": "VEC3"
    }
  ],
  "buffers": [
    {
      "byteLength": 2958,
      "uri": "data:application/octet-stream;base64,"
    },
    {
      "byteLength": 11484,
      "uri": "data:application/octet-stream;base64,"
    },
    {
      "byteLength": 11484,
      "uri": "data:application/octet-stream;base64,"
    },
    {
      "byteLength": 11484,
      "uri": "data:application/octet-stream;base64,"
    }
  ],
  "bufferViews": [
    {
      "buffer": 0,
      "byteOffset": 0,
      "byteLength": 2958
    },
    {
      "buffer": 1,
      "byteOffset": 0,
      "byteLength": 11484
    },
    {
      "buffer": 2,
      "byteOffset": 0,
      "byteLength": 11484
    },
    {
      "buffer": 3,
      "byteOffset": 0,
      "byteLength": 11484
    }
  ],
  "meshes": [
    {
      "primitives": [
        {
          "mode": 4,
          "indices": 0,
          "attributes": {
            "POSITION": 1,
            "NORMAL": 2,
            "COLOR_0": 3
          }
        }
      ]
    }
  ],
  "nodes": [
    {
      "children": [
        1
      ]
    },
    {
      "mesh": 0
    }
  ],
  "scenes": [
    {
      "nodes": [
        0
      ]
    }
  ],
  "scene": 0
}