{
  "asset": {
    "version": "2.0",
    "generator": "COLLADA2GLTF"
  },
  "accessors": [
    {
      "bufferView": 0,
      "byteOffset": 0,
      "componentType": 5123,
      "count": 4386,
      "min": [
        0
      ],
      "max": [
        1674
      ],
      "type": "SCALAR"
    },
    {
      "bufferView": 1,
      "byteOffset": 0,
      "componentType": 5126,
      "count": 1675,
      "max": [
        -1711.919677734375,
        5,
        840
      ],
      "min": [
        -2193.152587890625,
        -0.20000000298023224,
        316.9735107421875
      ],
      "type": "VEC3"
    },
    {
      "bufferView": 2,
      "byteOffset": 0,
      "componentType": 5126,
      "count": 1675,
      "max": [
        0.8690401315689087,
        1,
        0.8690401315689087
      ],
      "min": [
        -0.8832547068595886,
        -1,
        -0.8716089129447937
      ],
      "type": "VEC3"
    },
    {
      "bufferView": 3,
      "byteOffset": 0,
      "componentType": 5126,
      "count": 1675,
      "max": [
        0.999786376953125,
        1,
        0.7875028848648071
      ],
      "min": [
        0.000015259021893143654,
        0.07324330508708954,
        0.00004577706567943096
      ],
      "type": "VEC3"
    }
  ],
  "buffers": [
    {
      "byteLength": 8772,
      "uri": "data:application/octet-stream;base64,"
    },
    {
      "byteLength": 20100,
      "uri": "data:application/octet-stream;base64,"
    },
    {
      "byteLength": 20100,
      "uri": "data:application/octet-stream;base64,"
    },
    {
      "byteLength": 20100,
      "uri": "data:application/octet-stream;base64,"
    }
  ],
  "bufferViews": [
    {
      "buffer": 0,
      "byteOffset": 0,
      "byteLength": 8772
    },
    {
      "buffer": 1,
      "byteOffset": 0,
      "byteLength": 20100
    },
    {
      "buffer": 2,
      "byteOffset": 0,
      "byteLength": 20100
    },
    {
      "buffer": 3,
      "byteOffset": 0,
      "byteLength": 20100
    }
  ],
  "meshes": [
    {
      "primitives": [
        {
          "mode": 4,
          "indices": 0,
          "attributes": {
            "POSITION": 1,
            "NORMAL": 2,
            "COLOR_0": 3
          }
        }
      ]
    }
  ],
  "nodes": [
    {
      "children": [
        1
      ]
    },
    {
      "mesh": 0
    }
  ],
  "scenes": [
    {
      "nodes": [
        0
      ]
    }
  ],
  "scene": 0
}