{
  "asset": {
    "version": "2.0",
    "generator": "COLLADA2GLTF"
  },
  "accessors": [
    {
      "bufferView": 0,
      "byteOffset": 0,
      "componentType": 5123,
      "count": 318,
      "min": [
        0
      ],
      "max": [
        117
      ],
      "type": "SCALAR"
    },
    {
      "bufferView": 1,
      "byteOffset": 0,
      "componentType": 5126,
      "count": 118,
      "max": [
        -378.30828857421875,
        0,
        324.5809020996094
      ],
      "min": [
        -464.329345703125,
        -3,
        265.8358154296875
      ],
      "type": "VEC3"
    },
    {
      "bufferView": 2,
      "byteOffset": 0,
      "componentType": 5126,
      "count": 118,
      "max": [
        0.821669340133667,
        1,
        0.8216753005981445
      ],
      "min": [
        -0.821669340133667,
        -1,
        -0.821669340133667
      ],
      "type": "VEC3"
    },
    {
      "bufferView": 3,
      "byteOffset": 0,
      "componentType": 5126,
      "count": 118,
      "max": [
        0.21585412323474884,
        0.21585412323474884,
        0.21589989960193634
      ],
      "min": [
        0.21585412323474884,
        0.21585412323474884,
        0.21589989960193634
      ],
      "type": "VEC3"
    }
  ],
  "buffers": [
    {
      "byteLength": 636,
      "uri": "data:application/octet-stream;base64,"
    },
    {
      "byteLength": 1416,
      "uri": "data:application/octet-stream;base64,"
    },
    {
      "byteLength": 1416,
      "uri": "data:application/octet-stream;base64,"
    },
    {
      "byteLength": 1416,
      "uri": "data:application/octet-stream;base64,"
    }
  ],
  "bufferViews": [
    {
      "buffer": 0,
      "byteOffset": 0,
      "byteLength": 636
    },
    {
      "buffer": 1,
      "byteOffset": 0,
      "byteLength": 1416
    },
    {
      "buffer": 2,
      "byteOffset": 0,
      "byteLength": 1416
    },
    {
      "buffer": 3,
      "byteOffset": 0,
      "byteLength": 1416
    }
  ],
  "meshes": [
    {
      "primitives": [
        {
          "mode": 4,
          "indices": 0,
          "attributes": {
            "POSITION": 1,
            "NORMAL": 2,
            "COLOR_0": 3
          }
        }
      ]
    }
  ],
  "nodes": [
    {
      "children": [
        1
      ]
    },
    {
      "mesh": 0
    }
  ],
  "scenes": [
    {
      "nodes": [
        0
      ]
    }
  ],
  "scene": 0
}