{
  "asset": {
    "version": "2.0",
    "generator": "COLLADA2GLTF"
  },
  "accessors": [
    {
      "bufferView": 0,
      "byteOffset": 0,
      "componentType": 5123,
      "count": 606,
      "min": [
        0
      ],
      "max": [
        508
      ],
      "type": "SCALAR"
    },
    {
      "bufferView": 1,
      "byteOffset": 0,
      "componentType": 5126,
      "count": 509,
      "max": [
        -1040.9072265625,
        57.5,
        419.94781494140625
      ],
      "min": [
        -1174.93994140625,
        0,
        262.3999938964844
      ],
      "type": "VEC3"
    },
    {
      "bufferView": 2,
      "byteOffset": 0,
      "componentType": 5126,
      "count": 509,
      "max": [
        0.8276045322418213,
        0,
        0.8274677991867065
      ],
      "min": [
        -0.8275505900382996,
        0,
        -0.8276178240776062
      ],
      "type": "VEC3"
    },
    {
      "bufferView": 3,
      "byteOffset": 0,
      "componentType": 5126,
      "count": 509,
      "max": [
        0.999786376953125,
        0.7875181436538696,
        0.26330968737602234
      ],
      "min": [
        0.999786376953125,
        0.7875181436538696,
        0.26330968737602234
      ],
      "type": "VEC3"
    }
  ],
  "buffers": [
    {
      "byteLength": 1212,
      "uri": "data:application/octet-stream;base64,"
    },
    {
      "byteLength": 6108,
      "uri": "data:application/octet-stream;base64,"
    },
    {
      "byteLength": 6108,
      "uri": "data:application/octet-stream;base64,"
    },
    {
      "byteLength": 6108,
      "uri": "data:application/octet-stream;base64,"
    }
  ],
  "bufferViews": [
    {
      "buffer": 0,
      "byteOffset": 0,
      "byteLength": 1212
    },
    {
      "buffer": 1,
      "byteOffset": 0,
      "byteLength": 6108
    },
    {
      "buffer": 2,
      "byteOffset": 0,
      "byteLength": 6108
    },
    {
      "buffer": 3,
      "byteOffset": 0,
      "byteLength": 6108
    }
  ],
  "meshes": [
    {
      "primitives": [
        {
          "mode": 4,
          "indices": 0,
          "attributes": {
            "POSITION": 1,
            "NORMAL": 2,
            "COLOR_0": 3
          }
        }
      ]
    }
  ],
  "nodes": [
    {
      "children": [
        1
      ]
    },
    {
      "mesh": 0
    }
  ],
  "scenes": [
    {
      "nodes": [
        0
      ]
    }
  ],
  "scene": 0
}