{
  "asset": {
    "version": "2.0",
    "generator": "COLLADA2GLTF"
  },
  "accessors": [
    {
      "bufferView": 0,
      "byteOffset": 0,
      "componentType": 5123,
      "count": 2520,
      "min": [
        0
      ],
      "max": [
        965
      ],
      "type": "SCALAR"
    },
    {
      "bufferView": 1,
      "byteOffset": 0,
      "componentType": 5126,
      "count": 966,
      "max": [
        -2050.807861328125,
        0.10000000149011612,
        97.18931579589844
      ],
      "min": [
        -2070.259033203125,
        0,
        83.4446792602539
      ],
      "type": "VEC3"
    },
    {
      "bufferView": 2,
      "byteOffset": 0,
      "componentType": 5126,
      "count": 966,
      "max": [
        0.8599189519882202,
        0.9492644667625427,
        0.834746241569519
      ],
      "min": [
        -0.8599189519882202,
        0,
        -0.8599189519882202
      ],
      "type": "VEC3"
    },
    {
      "bufferView": 3,
      "byteOffset": 0,
      "componentType": 5126,
      "count": 966,
      "max": [
        0.26324865221977234,
        0.26329442858695984,
        0.26329442858695984
      ],
      "min": [
        0.26324865221977234,
        0.26329442858695984,
        0.26329442858695984
      ],
      "type": "VEC3"
    }
  ],
  "buffers": [
    {
      "byteLength": 5040,
      "uri": "data:application/octet-stream;base64,"
    },
    {
      "byteLength": 11592,
      "uri": "data:application/octet-stream;base64,"
    },
    {
      "byteLength": 11592,
      "uri": "data:application/octet-stream;base64,"
    },
    {
      "byteLength": 11592,
      "uri": "data:application/octet-stream;base64,"
    }
  ],
  "bufferViews": [
    {
      "buffer": 0,
      "byteOffset": 0,
      "byteLength": 5040
    },
    {
      "buffer": 1,
      "byteOffset": 0,
      "byteLength": 11592
    },
    {
      "buffer": 2,
      "byteOffset": 0,
      "byteLength": 11592
    },
    {
      "buffer": 3,
      "byteOffset": 0,
      "byteLength": 11592
    }
  ],
  "meshes": [
    {
      "primitives": [
        {
          "mode": 4,
          "indices": 0,
          "attributes": {
            "POSITION": 1,
            "NORMAL": 2,
            "COLOR_0": 3
          }
        }
      ]
    }
  ],
  "nodes": [
    {
      "children": [
        1
      ]
    },
    {
      "mesh": 0
    }
  ],
  "scenes": [
    {
      "nodes": [
        0
      ]
    }
  ],
  "scene": 0
}