{
  "asset": {
    "version": "2.0",
    "generator": "COLLADA2GLTF"
  },
  "accessors": [
    {
      "bufferView": 0,
      "byteOffset": 0,
      "componentType": 5123,
      "count": 5646,
      "min": [
        0
      ],
      "max": [
        2054
      ],
      "type": "SCALAR"
    },
    {
      "bufferView": 1,
      "byteOffset": 0,
      "componentType": 5126,
      "count": 2055,
      "max": [
        4348.3173828125,
        19.5,
        7404.44287109375
      ],
      "min": [
        3489.15087890625,
        7,
        6729.38720703125
      ],
      "type": "VEC3"
    },
    {
      "bufferView": 2,
      "byteOffset": 0,
      "componentType": 5126,
      "count": 2055,
      "max": [
        0.7915204763412476,
        0.7071024179458618,
        0.7915204763412476
      ],
      "min": [
        -0.7915204763412476,
        -0.7071024179458618,
        -0.7915204763412476
      ],
      "type": "VEC3"
    },
    {
      "bufferView": 3,
      "byteOffset": 0,
      "componentType": 5126,
      "count": 2055,
      "max": [
        0.4480048716068268,
        0.4480048716068268,
        0.4480659067630768
      ],
      "min": [
        0,
        0,
        0
      ],
      "type": "VEC3"
    }
  ],
  "buffers": [
    {
      "byteLength": 11292,
      "uri": "data:application/octet-stream;base64,"
    },
    {
      "byteLength": 24660,
      "uri": "data:application/octet-stream;base64,"
    },
    {
      "byteLength": 24660,
      "uri": "data:application/octet-stream;base64,"
    },
    {
      "byteLength": 24660,
      "uri": "data:application/octet-stream;base64,"
    }
  ],
  "bufferViews": [
    {
      "buffer": 0,
      "byteOffset": 0,
      "byteLength": 11292
    },
    {
      "buffer": 1,
      "byteOffset": 0,
      "byteLength": 24660
    },
    {
      "buffer": 2,
      "byteOffset": 0,
      "byteLength": 24660
    },
    {
      "buffer": 3,
      "byteOffset": 0,
      "byteLength": 24660
    }
  ],
  "meshes": [
    {
      "primitives": [
        {
          "mode": 4,
          "indices": 0,
          "attributes": {
            "POSITION": 1,
            "NORMAL": 2,
            "COLOR_0": 3
          }
        }
      ]
    }
  ],
  "nodes": [
    {
      "children": [
        1
      ]
    },
    {
      "mesh": 0
    }
  ],
  "scenes": [
    {
      "nodes": [
        0
      ]
    }
  ],
  "scene": 0
}