{
  "asset": {
    "version": "2.0",
    "generator": "COLLADA2GLTF"
  },
  "accessors": [
    {
      "bufferView": 0,
      "byteOffset": 0,
      "componentType": 5123,
      "count": 1875,
      "min": [
        0
      ],
      "max": [
        822
      ],
      "type": "SCALAR"
    },
    {
      "bufferView": 1,
      "byteOffset": 0,
      "componentType": 5126,
      "count": 823,
      "max": [
        -8845.66796875,
        14.5,
        -2188.53125
      ],
      "min": [
        -9190.546875,
        9.28499984741211,
        -2322.679931640625
      ],
      "type": "VEC3"
    },
    {
      "bufferView": 2,
      "byteOffset": 0,
      "componentType": 5126,
      "count": 823,
      "max": [
        0.9445151090621948,
        0.7065050601959229,
        0.9445151090621948
      ],
      "min": [
        -0.9445151090621948,
        -0.7059289216995239,
        -0.9445151090621948
      ],
      "type": "VEC3"
    },
    {
      "bufferView": 3,
      "byteOffset": 0,
      "componentType": 5126,
      "count": 823,
      "max": [
        0.4480048716068268,
        0.4480048716068268,
        0.4480659067630768
      ],
      "min": [
        0,
        0,
        0
      ],
      "type": "VEC3"
    }
  ],
  "buffers": [
    {
      "byteLength": 3750,
      "uri": "data:application/octet-stream;base64,"
    },
    {
      "byteLength": 9876,
      "uri": "data:application/octet-stream;base64,"
    },
    {
      "byteLength": 9876,
      "uri": "data:application/octet-stream;base64,"
    },
    {
      "byteLength": 9876,
      "uri": "data:application/octet-stream;base64,"
    }
  ],
  "bufferViews": [
    {
      "buffer": 0,
      "byteOffset": 0,
      "byteLength": 3750
    },
    {
      "buffer": 1,
      "byteOffset": 0,
      "byteLength": 9876
    },
    {
      "buffer": 2,
      "byteOffset": 0,
      "byteLength": 9876
    },
    {
      "buffer": 3,
      "byteOffset": 0,
      "byteLength": 9876
    }
  ],
  "meshes": [
    {
      "primitives": [
        {
          "mode": 4,
          "indices": 0,
          "attributes": {
            "POSITION": 1,
            "NORMAL": 2,
            "COLOR_0": 3
          }
        }
      ]
    }
  ],
  "nodes": [
    {
      "children": [
        1
      ]
    },
    {
      "mesh": 0
    }
  ],
  "scenes": [
    {
      "nodes": [
        0
      ]
    }
  ],
  "scene": 0
}