{
  "asset": {
    "version": "2.0",
    "generator": "COLLADA2GLTF"
  },
  "accessors": [
    {
      "bufferView": 0,
      "byteOffset": 0,
      "componentType": 5123,
      "count": 948,
      "min": [
        0
      ],
      "max": [
        355
      ],
      "type": "SCALAR"
    },
    {
      "bufferView": 1,
      "byteOffset": 0,
      "componentType": 5126,
      "count": 356,
      "max": [
        -1775.400146484375,
        12,
        -143.62120056152344
      ],
      "min": [
        -1851.196533203125,
        7,
        -199.59982299804688
      ],
      "type": "VEC3"
    },
    {
      "bufferView": 2,
      "byteOffset": 0,
      "componentType": 5126,
      "count": 356,
      "max": [
        0.7653483748435974,
        0.7070717215538025,
        0.7653483748435974
      ],
      "min": [
        -0.7653483748435974,
        -0.7070717215538025,
        -0.7653483748435974
      ],
      "type": "VEC3"
    },
    {
      "bufferView": 3,
      "byteOffset": 0,
      "componentType": 5126,
      "count": 356,
      "max": [
        0.4480048716068268,
        0.4480048716068268,
        0.4480659067630768
      ],
      "min": [
        0,
        0,
        0
      ],
      "type": "VEC3"
    }
  ],
  "buffers": [
    {
      "byteLength": 1896,
      "uri": "data:application/octet-stream;base64,"
    },
    {
      "byteLength": 4272,
      "uri": "data:application/octet-stream;base64,"
    },
    {
      "byteLength": 4272,
      "uri": "data:application/octet-stream;base64,"
    },
    {
      "byteLength": 4272,
      "uri": "data:application/octet-stream;base64,"
    }
  ],
  "bufferViews": [
    {
      "buffer": 0,
      "byteOffset": 0,
      "byteLength": 1896
    },
    {
      "buffer": 1,
      "byteOffset": 0,
      "byteLength": 4272
    },
    {
      "buffer": 2,
      "byteOffset": 0,
      "byteLength": 4272
    },
    {
      "buffer": 3,
      "byteOffset": 0,
      "byteLength": 4272
    }
  ],
  "meshes": [
    {
      "primitives": [
        {
          "mode": 4,
          "indices": 0,
          "attributes": {
            "POSITION": 1,
            "NORMAL": 2,
            "COLOR_0": 3
          }
        }
      ]
    }
  ],
  "nodes": [
    {
      "children": [
        1
      ]
    },
    {
      "mesh": 0
    }
  ],
  "scenes": [
    {
      "nodes": [
        0
      ]
    }
  ],
  "scene": 0
}