{
  "asset": {
    "version": "2.0",
    "generator": "COLLADA2GLTF"
  },
  "accessors": [
    {
      "bufferView": 0,
      "byteOffset": 0,
      "componentType": 5123,
      "count": 2985,
      "min": [
        0
      ],
      "max": [
        1208
      ],
      "type": "SCALAR"
    },
    {
      "bufferView": 1,
      "byteOffset": 0,
      "componentType": 5126,
      "count": 1209,
      "max": [
        -808.613037109375,
        2.299999952316284,
        -1860
      ],
      "min": [
        -1551.5023193359375,
        0,
        -2305.306640625
      ],
      "type": "VEC3"
    },
    {
      "bufferView": 2,
      "byteOffset": 0,
      "componentType": 5126,
      "count": 1209,
      "max": [
        0.9898214340209961,
        1,
        1
      ],
      "min": [
        -0.9984947443008423,
        -1,
        -1
      ],
      "type": "VEC3"
    },
    {
      "bufferView": 3,
      "byteOffset": 0,
      "componentType": 5126,
      "count": 1209,
      "max": [
        0.999786376953125,
        1,
        0.7875028848648071
      ],
      "min": [
        0.000015259021893143654,
        0.07324330508708954,
        0.00004577706567943096
      ],
      "type": "VEC3"
    }
  ],
  "buffers": [
    {
      "byteLength": 5970,
      "uri": "data:application/octet-stream;base64,"
    },
    {
      "byteLength": 14508,
      "uri": "data:application/octet-stream;base64,"
    },
    {
      "byteLength": 14508,
      "uri": "data:application/octet-stream;base64,"
    },
    {
      "byteLength": 14508,
      "uri": "data:application/octet-stream;base64,"
    }
  ],
  "bufferViews": [
    {
      "buffer": 0,
      "byteOffset": 0,
      "byteLength": 5970
    },
    {
      "buffer": 1,
      "byteOffset": 0,
      "byteLength": 14508
    },
    {
      "buffer": 2,
      "byteOffset": 0,
      "byteLength": 14508
    },
    {
      "buffer": 3,
      "byteOffset": 0,
      "byteLength": 14508
    }
  ],
  "meshes": [
    {
      "primitives": [
        {
          "mode": 4,
          "indices": 0,
          "attributes": {
            "POSITION": 1,
            "NORMAL": 2,
            "COLOR_0": 3
          }
        }
      ]
    }
  ],
  "nodes": [
    {
      "children": [
        1
      ]
    },
    {
      "mesh": 0
    }
  ],
  "scenes": [
    {
      "nodes": [
        0
      ]
    }
  ],
  "scene": 0
}