{
  "asset": {
    "version": "2.0",
    "generator": "COLLADA2GLTF"
  },
  "accessors": [
    {
      "bufferView": 0,
      "byteOffset": 0,
      "componentType": 5123,
      "count": 180,
      "min": [
        0
      ],
      "max": [
        73
      ],
      "type": "SCALAR"
    },
    {
      "bufferView": 1,
      "byteOffset": 0,
      "componentType": 5126,
      "count": 74,
      "max": [
        1563.2174072265625,
        0,
        238.49752807617188
      ],
      "min": [
        1206.6181640625,
        -3,
        130.6204071044922
      ],
      "type": "VEC3"
    },
    {
      "bufferView": 2,
      "byteOffset": 0,
      "componentType": 5126,
      "count": 74,
      "max": [
        0.9629471898078918,
        1,
        0.9629471898078918
      ],
      "min": [
        -0.9629471898078918,
        -1,
        -0.9629690647125244
      ],
      "type": "VEC3"
    },
    {
      "bufferView": 3,
      "byteOffset": 0,
      "componentType": 5126,
      "count": 74,
      "max": [
        0.21585412323474884,
        0.21585412323474884,
        0.21589989960193634
      ],
      "min": [
        0.21585412323474884,
        0.21585412323474884,
        0.21589989960193634
      ],
      "type": "VEC3"
    }
  ],
  "buffers": [
    {
      "byteLength": 360,
      "uri": "data:application/octet-stream;base64,"
    },
    {
      "byteLength": 888,
      "uri": "data:application/octet-stream;base64,"
    },
    {
      "byteLength": 888,
      "uri": "data:application/octet-stream;base64,"
    },
    {
      "byteLength": 888,
      "uri": "data:application/octet-stream;base64,"
    }
  ],
  "bufferViews": [
    {
      "buffer": 0,
      "byteOffset": 0,
      "byteLength": 360
    },
    {
      "buffer": 1,
      "byteOffset": 0,
      "byteLength": 888
    },
    {
      "buffer": 2,
      "byteOffset": 0,
      "byteLength": 888
    },
    {
      "buffer": 3,
      "byteOffset": 0,
      "byteLength": 888
    }
  ],
  "meshes": [
    {
      "primitives": [
        {
          "mode": 4,
          "indices": 0,
          "attributes": {
            "POSITION": 1,
            "NORMAL": 2,
            "COLOR_0": 3
          }
        }
      ]
    }
  ],
  "nodes": [
    {
      "children": [
        1
      ]
    },
    {
      "mesh": 0
    }
  ],
  "scenes": [
    {
      "nodes": [
        0
      ]
    }
  ],
  "scene": 0
}