{
  "asset": {
    "version": "2.0",
    "generator": "COLLADA2GLTF"
  },
  "accessors": [
    {
      "bufferView": 0,
      "byteOffset": 0,
      "componentType": 5123,
      "count": 480,
      "min": [
        0
      ],
      "max": [
        220
      ],
      "type": "SCALAR"
    },
    {
      "bufferView": 1,
      "byteOffset": 0,
      "componentType": 5126,
      "count": 221,
      "max": [
        301.7466735839844,
        0.0010000000474974513,
        -60
      ],
      "min": [
        104.42294311523438,
        0,
        -213.95982360839844
      ],
      "type": "VEC3"
    },
    {
      "bufferView": 2,
      "byteOffset": 0,
      "componentType": 5126,
      "count": 221,
      "max": [
        0.7972730398178101,
        1,
        0.7629366517066956
      ],
      "min": [
        -0.7640663981437683,
        0,
        -0.7972730994224548
      ],
      "type": "VEC3"
    },
    {
      "bufferView": 3,
      "byteOffset": 0,
      "componentType": 5126,
      "count": 221,
      "max": [
        0.999786376953125,
        1,
        0.7875028848648071
      ],
      "min": [
        0.000015259021893143654,
        0.07324330508708954,
        0.00004577706567943096
      ],
      "type": "VEC3"
    }
  ],
  "buffers": [
    {
      "byteLength": 960,
      "uri": "data:application/octet-stream;base64,"
    },
    {
      "byteLength": 2652,
      "uri": "data:application/octet-stream;base64,"
    },
    {
      "byteLength": 2652,
      "uri": "data:application/octet-stream;base64,"
    },
    {
      "byteLength": 2652,
      "uri": "data:application/octet-stream;base64,"
    }
  ],
  "bufferViews": [
    {
      "buffer": 0,
      "byteOffset": 0,
      "byteLength": 960
    },
    {
      "buffer": 1,
      "byteOffset": 0,
      "byteLength": 2652
    },
    {
      "buffer": 2,
      "byteOffset": 0,
      "byteLength": 2652
    },
    {
      "buffer": 3,
      "byteOffset": 0,
      "byteLength": 2652
    }
  ],
  "meshes": [
    {
      "primitives": [
        {
          "mode": 4,
          "indices": 0,
          "attributes": {
            "POSITION": 1,
            "NORMAL": 2,
            "COLOR_0": 3
          }
        }
      ]
    }
  ],
  "nodes": [
    {
      "children": [
        1
      ]
    },
    {
      "mesh": 0
    }
  ],
  "scenes": [
    {
      "nodes": [
        0
      ]
    }
  ],
  "scene": 0
}