{
  "asset": {
    "version": "2.0",
    "generator": "COLLADA2GLTF"
  },
  "accessors": [
    {
      "bufferView": 0,
      "byteOffset": 0,
      "componentType": 5123,
      "count": 651,
      "min": [
        0
      ],
      "max": [
        538
      ],
      "type": "SCALAR"
    },
    {
      "bufferView": 1,
      "byteOffset": 0,
      "componentType": 5126,
      "count": 539,
      "max": [
        -1172.2991943359375,
        87.5,
        -383.7669982910156
      ],
      "min": [
        -1446.2969970703125,
        0,
        -669.0770263671875
      ],
      "type": "VEC3"
    },
    {
      "bufferView": 2,
      "byteOffset": 0,
      "componentType": 5126,
      "count": 539,
      "max": [
        0.8195086121559143,
        1,
        0.8451449871063232
      ],
      "min": [
        -0.819430947303772,
        0,
        -0.8194401264190674
      ],
      "type": "VEC3"
    },
    {
      "bufferView": 3,
      "byteOffset": 0,
      "componentType": 5126,
      "count": 539,
      "max": [
        0.999786376953125,
        0.7875181436538696,
        0.26330968737602234
      ],
      "min": [
        0.6036774516105652,
        0.00003051804378628731,
        0
      ],
      "type": "VEC3"
    }
  ],
  "buffers": [
    {
      "byteLength": 1302,
      "uri": "data:application/octet-stream;base64,"
    },
    {
      "byteLength": 6468,
      "uri": "data:application/octet-stream;base64,"
    },
    {
      "byteLength": 6468,
      "uri": "data:application/octet-stream;base64,"
    },
    {
      "byteLength": 6468,
      "uri": "data:application/octet-stream;base64,"
    }
  ],
  "bufferViews": [
    {
      "buffer": 0,
      "byteOffset": 0,
      "byteLength": 1302
    },
    {
      "buffer": 1,
      "byteOffset": 0,
      "byteLength": 6468
    },
    {
      "buffer": 2,
      "byteOffset": 0,
      "byteLength": 6468
    },
    {
      "buffer": 3,
      "byteOffset": 0,
      "byteLength": 6468
    }
  ],
  "meshes": [
    {
      "primitives": [
        {
          "mode": 4,
          "indices": 0,
          "attributes": {
            "POSITION": 1,
            "NORMAL": 2,
            "COLOR_0": 3
          }
        }
      ]
    }
  ],
  "nodes": [
    {
      "children": [
        1
      ]
    },
    {
      "mesh": 0
    }
  ],
  "scenes": [
    {
      "nodes": [
        0
      ]
    }
  ],
  "scene": 0
}