{
  "asset": {
    "version": "2.0",
    "generator": "COLLADA2GLTF"
  },
  "accessors": [
    {
      "bufferView": 0,
      "byteOffset": 0,
      "componentType": 5123,
      "count": 1218,
      "min": [
        0
      ],
      "max": [
        576
      ],
      "type": "SCALAR"
    },
    {
      "bufferView": 1,
      "byteOffset": 0,
      "componentType": 5126,
      "count": 577,
      "max": [
        231.5377655029297,
        0,
        -750
      ],
      "min": [
        -30,
        0,
        -1064.5606689453125
      ],
      "type": "VEC3"
    },
    {
      "bufferView": 2,
      "byteOffset": 0,
      "componentType": 5126,
      "count": 577,
      "max": [
        0.9116547703742981,
        1,
        0.9115031957626343
      ],
      "min": [
        -0.9109387993812561,
        0,
        -0.9109005928039551
      ],
      "type": "VEC3"
    },
    {
      "bufferView": 3,
      "byteOffset": 0,
      "componentType": 5126,
      "count": 577,
      "max": [
        0.999786376953125,
        1,
        1
      ],
      "min": [
        0,
        0.00003051804378628731,
        0.00004577706567943096
      ],
      "type": "VEC3"
    }
  ],
  "buffers": [
    {
      "byteLength": 2436,
      "uri": "data:application/octet-stream;base64,"
    },
    {
      "byteLength": 6924,
      "uri": "data:application/octet-stream;base64,"
    },
    {
      "byteLength": 6924,
      "uri": "data:application/octet-stream;base64,"
    },
    {
      "byteLength": 6924,
      "uri": "data:application/octet-stream;base64,"
    }
  ],
  "bufferViews": [
    {
      "buffer": 0,
      "byteOffset": 0,
      "byteLength": 2436
    },
    {
      "buffer": 1,
      "byteOffset": 0,
      "byteLength": 6924
    },
    {
      "buffer": 2,
      "byteOffset": 0,
      "byteLength": 6924
    },
    {
      "buffer": 3,
      "byteOffset": 0,
      "byteLength": 6924
    }
  ],
  "meshes": [
    {
      "primitives": [
        {
          "mode": 4,
          "indices": 0,
          "attributes": {
            "POSITION": 1,
            "NORMAL": 2,
            "COLOR_0": 3
          }
        }
      ]
    }
  ],
  "nodes": [
    {
      "children": [
        1
      ]
    },
    {
      "mesh": 0
    }
  ],
  "scenes": [
    {
      "nodes": [
        0
      ]
    }
  ],
  "scene": 0
}