{
  "asset": {
    "version": "2.0",
    "generator": "COLLADA2GLTF"
  },
  "accessors": [
    {
      "bufferView": 0,
      "byteOffset": 0,
      "componentType": 5123,
      "count": 2691,
      "min": [
        0
      ],
      "max": [
        1216
      ],
      "type": "SCALAR"
    },
    {
      "bufferView": 1,
      "byteOffset": 0,
      "componentType": 5126,
      "count": 1217,
      "max": [
        330,
        7.5,
        720
      ],
      "min": [
        34.9226188659668,
        0,
        120
      ],
      "type": "VEC3"
    },
    {
      "bufferView": 2,
      "byteOffset": 0,
      "componentType": 5126,
      "count": 1217,
      "max": [
        0.999075174331665,
        1,
        0.9990332722663879
      ],
      "min": [
        -0.999075174331665,
        0,
        -0.9990332722663879
      ],
      "type": "VEC3"
    },
    {
      "bufferView": 3,
      "byteOffset": 0,
      "componentType": 5126,
      "count": 1217,
      "max": [
        0.999786376953125,
        1,
        0.7875028848648071
      ],
      "min": [
        0.000015259021893143654,
        0.07324330508708954,
        0.00004577706567943096
      ],
      "type": "VEC3"
    }
  ],
  "buffers": [
    {
      "byteLength": 5382,
      "uri": "data:application/octet-stream;base64,"
    },
    {
      "byteLength": 14604,
      "uri": "data:application/octet-stream;base64,"
    },
    {
      "byteLength": 14604,
      "uri": "data:application/octet-stream;base64,"
    },
    {
      "byteLength": 14604,
      "uri": "data:application/octet-stream;base64,"
    }
  ],
  "bufferViews": [
    {
      "buffer": 0,
      "byteOffset": 0,
      "byteLength": 5382
    },
    {
      "buffer": 1,
      "byteOffset": 0,
      "byteLength": 14604
    },
    {
      "buffer": 2,
      "byteOffset": 0,
      "byteLength": 14604
    },
    {
      "buffer": 3,
      "byteOffset": 0,
      "byteLength": 14604
    }
  ],
  "meshes": [
    {
      "primitives": [
        {
          "mode": 4,
          "indices": 0,
          "attributes": {
            "POSITION": 1,
            "NORMAL": 2,
            "COLOR_0": 3
          }
        }
      ]
    }
  ],
  "nodes": [
    {
      "children": [
        1
      ]
    },
    {
      "mesh": 0
    }
  ],
  "scenes": [
    {
      "nodes": [
        0
      ]
    }
  ],
  "scene": 0
}