{
  "asset": {
    "version": "2.0",
    "generator": "COLLADA2GLTF"
  },
  "accessors": [
    {
      "bufferView": 0,
      "byteOffset": 0,
      "componentType": 5123,
      "count": 3459,
      "min": [
        0
      ],
      "max": [
        1479
      ],
      "type": "SCALAR"
    },
    {
      "bufferView": 1,
      "byteOffset": 0,
      "componentType": 5126,
      "count": 1480,
      "max": [
        3090.20166015625,
        1,
        -1260
      ],
      "min": [
        2664.08837890625,
        0,
        -1680
      ],
      "type": "VEC3"
    },
    {
      "bufferView": 2,
      "byteOffset": 0,
      "componentType": 5126,
      "count": 1480,
      "max": [
        1,
        1,
        1
      ],
      "min": [
        -1,
        0,
        -1
      ],
      "type": "VEC3"
    },
    {
      "bufferView": 3,
      "byteOffset": 0,
      "componentType": 5126,
      "count": 1480,
      "max": [
        0.999786376953125,
        1,
        0.32780957221984863
      ],
      "min": [
        0.000015259021893143654,
        0.07324330508708954,
        0.00004577706567943096
      ],
      "type": "VEC3"
    }
  ],
  "buffers": [
    {
      "byteLength": 6918,
      "uri": "data:application/octet-stream;base64,"
    },
    {
      "byteLength": 17760,
      "uri": "data:application/octet-stream;base64,"
    },
    {
      "byteLength": 17760,
      "uri": "data:application/octet-stream;base64,"
    },
    {
      "byteLength": 17760,
      "uri": "data:application/octet-stream;base64,"
    }
  ],
  "bufferViews": [
    {
      "buffer": 0,
      "byteOffset": 0,
      "byteLength": 6918
    },
    {
      "buffer": 1,
      "byteOffset": 0,
      "byteLength": 17760
    },
    {
      "buffer": 2,
      "byteOffset": 0,
      "byteLength": 17760
    },
    {
      "buffer": 3,
      "byteOffset": 0,
      "byteLength": 17760
    }
  ],
  "meshes": [
    {
      "primitives": [
        {
          "mode": 4,
          "indices": 0,
          "attributes": {
            "POSITION": 1,
            "NORMAL": 2,
            "COLOR_0": 3
          }
        }
      ]
    }
  ],
  "nodes": [
    {
      "children": [
        1
      ]
    },
    {
      "mesh": 0
    }
  ],
  "scenes": [
    {
      "nodes": [
        0
      ]
    }
  ],
  "scene": 0
}