{
  "asset": {
    "version": "2.0",
    "generator": "COLLADA2GLTF"
  },
  "accessors": [
    {
      "bufferView": 0,
      "byteOffset": 0,
      "componentType": 5123,
      "count": 1008,
      "min": [
        0
      ],
      "max": [
        365
      ],
      "type": "SCALAR"
    },
    {
      "bufferView": 1,
      "byteOffset": 0,
      "componentType": 5126,
      "count": 366,
      "max": [
        -1070.9393310546875,
        0,
        1291.3602294921875
      ],
      "min": [
        -1385.3585205078125,
        -3,
        1037.9974365234375
      ],
      "type": "VEC3"
    },
    {
      "bufferView": 2,
      "byteOffset": 0,
      "componentType": 5126,
      "count": 366,
      "max": [
        0.7689692378044128,
        1,
        0.7689692378044128
      ],
      "min": [
        -0.7689692378044128,
        0,
        -0.7689692378044128
      ],
      "type": "VEC3"
    },
    {
      "bufferView": 3,
      "byteOffset": 0,
      "componentType": 5126,
      "count": 366,
      "max": [
        0.21585412323474884,
        0.21585412323474884,
        0.21589989960193634
      ],
      "min": [
        0.21585412323474884,
        0.21585412323474884,
        0.21589989960193634
      ],
      "type": "VEC3"
    }
  ],
  "buffers": [
    {
      "byteLength": 2016,
      "uri": "data:application/octet-stream;base64,"
    },
    {
      "byteLength": 4392,
      "uri": "data:application/octet-stream;base64,"
    },
    {
      "byteLength": 4392,
      "uri": "data:application/octet-stream;base64,"
    },
    {
      "byteLength": 4392,
      "uri": "data:application/octet-stream;base64,"
    }
  ],
  "bufferViews": [
    {
      "buffer": 0,
      "byteOffset": 0,
      "byteLength": 2016
    },
    {
      "buffer": 1,
      "byteOffset": 0,
      "byteLength": 4392
    },
    {
      "buffer": 2,
      "byteOffset": 0,
      "byteLength": 4392
    },
    {
      "buffer": 3,
      "byteOffset": 0,
      "byteLength": 4392
    }
  ],
  "meshes": [
    {
      "primitives": [
        {
          "mode": 4,
          "indices": 0,
          "attributes": {
            "POSITION": 1,
            "NORMAL": 2,
            "COLOR_0": 3
          }
        }
      ]
    }
  ],
  "nodes": [
    {
      "children": [
        1
      ]
    },
    {
      "mesh": 0
    }
  ],
  "scenes": [
    {
      "nodes": [
        0
      ]
    }
  ],
  "scene": 0
}