{
  "asset": {
    "version": "2.0",
    "generator": "COLLADA2GLTF"
  },
  "accessors": [
    {
      "bufferView": 0,
      "byteOffset": 0,
      "componentType": 5123,
      "count": 339,
      "min": [
        0
      ],
      "max": [
        234
      ],
      "type": "SCALAR"
    },
    {
      "bufferView": 1,
      "byteOffset": 0,
      "componentType": 5126,
      "count": 235,
      "max": [
        -1087.8841552734375,
        55,
        892.870849609375
      ],
      "min": [
        -1407.81982421875,
        0,
        680.2921142578125
      ],
      "type": "VEC3"
    },
    {
      "bufferView": 2,
      "byteOffset": 0,
      "componentType": 5126,
      "count": 235,
      "max": [
        0.9672691226005554,
        1,
        0.9738932251930237
      ],
      "min": [
        -0.8893871307373047,
        0,
        -0.9020530581474304
      ],
      "type": "VEC3"
    },
    {
      "bufferView": 3,
      "byteOffset": 0,
      "componentType": 5126,
      "count": 235,
      "max": [
        0.999786376953125,
        0.7875181436538696,
        0.26330968737602234
      ],
      "min": [
        0.6036774516105652,
        0.00003051804378628731,
        0
      ],
      "type": "VEC3"
    }
  ],
  "buffers": [
    {
      "byteLength": 678,
      "uri": "data:application/octet-stream;base64,"
    },
    {
      "byteLength": 2820,
      "uri": "data:application/octet-stream;base64,"
    },
    {
      "byteLength": 2820,
      "uri": "data:application/octet-stream;base64,"
    },
    {
      "byteLength": 2820,
      "uri": "data:application/octet-stream;base64,"
    }
  ],
  "bufferViews": [
    {
      "buffer": 0,
      "byteOffset": 0,
      "byteLength": 678
    },
    {
      "buffer": 1,
      "byteOffset": 0,
      "byteLength": 2820
    },
    {
      "buffer": 2,
      "byteOffset": 0,
      "byteLength": 2820
    },
    {
      "buffer": 3,
      "byteOffset": 0,
      "byteLength": 2820
    }
  ],
  "meshes": [
    {
      "primitives": [
        {
          "mode": 4,
          "indices": 0,
          "attributes": {
            "POSITION": 1,
            "NORMAL": 2,
            "COLOR_0": 3
          }
        }
      ]
    }
  ],
  "nodes": [
    {
      "children": [
        1
      ]
    },
    {
      "mesh": 0
    }
  ],
  "scenes": [
    {
      "nodes": [
        0
      ]
    }
  ],
  "scene": 0
}