{
  "asset": {
    "version": "2.0",
    "generator": "COLLADA2GLTF"
  },
  "accessors": [
    {
      "bufferView": 0,
      "byteOffset": 0,
      "componentType": 5123,
      "count": 4623,
      "min": [
        0
      ],
      "max": [
        1852
      ],
      "type": "SCALAR"
    },
    {
      "bufferView": 1,
      "byteOffset": 0,
      "componentType": 5126,
      "count": 1853,
      "max": [
        1890,
        1.0700000524520874,
        1440
      ],
      "min": [
        1290,
        -0.20000000298023224,
        905.7457885742188
      ],
      "type": "VEC3"
    },
    {
      "bufferView": 2,
      "byteOffset": 0,
      "componentType": 5126,
      "count": 1853,
      "max": [
        0.7682798504829407,
        1,
        0.7573559284210205
      ],
      "min": [
        -0.7687665224075317,
        -1,
        -0.7700299620628357
      ],
      "type": "VEC3"
    },
    {
      "bufferView": 3,
      "byteOffset": 0,
      "componentType": 5126,
      "count": 1853,
      "max": [
        0.999847412109375,
        1,
        0.9999847412109375
      ],
      "min": [
        0.000015259021893143654,
        0.00003051804378628731,
        0
      ],
      "type": "VEC3"
    }
  ],
  "buffers": [
    {
      "byteLength": 9246,
      "uri": "data:application/octet-stream;base64,"
    },
    {
      "byteLength": 22236,
      "uri": "data:application/octet-stream;base64,"
    },
    {
      "byteLength": 22236,
      "uri": "data:application/octet-stream;base64,"
    },
    {
      "byteLength": 22236,
      "uri": "data:application/octet-stream;base64,"
    }
  ],
  "bufferViews": [
    {
      "buffer": 0,
      "byteOffset": 0,
      "byteLength": 9246
    },
    {
      "buffer": 1,
      "byteOffset": 0,
      "byteLength": 22236
    },
    {
      "buffer": 2,
      "byteOffset": 0,
      "byteLength": 22236
    },
    {
      "buffer": 3,
      "byteOffset": 0,
      "byteLength": 22236
    }
  ],
  "meshes": [
    {
      "primitives": [
        {
          "mode": 4,
          "indices": 0,
          "attributes": {
            "POSITION": 1,
            "NORMAL": 2,
            "COLOR_0": 3
          }
        }
      ]
    }
  ],
  "nodes": [
    {
      "children": [
        1
      ]
    },
    {
      "mesh": 0
    }
  ],
  "scenes": [
    {
      "nodes": [
        0
      ]
    }
  ],
  "scene": 0
}