{
  "asset": {
    "version": "2.0",
    "generator": "COLLADA2GLTF"
  },
  "accessors": [
    {
      "bufferView": 0,
      "byteOffset": 0,
      "componentType": 5123,
      "count": 444,
      "min": [
        0
      ],
      "max": [
        237
      ],
      "type": "SCALAR"
    },
    {
      "bufferView": 1,
      "byteOffset": 0,
      "componentType": 5126,
      "count": 238,
      "max": [
        -2087.6064453125,
        17.165000915527344,
        143.93629455566406
      ],
      "min": [
        -2119.630126953125,
        12,
        105.923828125
      ],
      "type": "VEC3"
    },
    {
      "bufferView": 2,
      "byteOffset": 0,
      "componentType": 5126,
      "count": 238,
      "max": [
        0.8304159045219421,
        0.7050193548202515,
        0.8304159045219421
      ],
      "min": [
        -0.8304159045219421,
        -0.7050193548202515,
        -0.8304159045219421
      ],
      "type": "VEC3"
    },
    {
      "bufferView": 3,
      "byteOffset": 0,
      "componentType": 5126,
      "count": 238,
      "max": [
        0.4480048716068268,
        0.4480048716068268,
        0.4480659067630768
      ],
      "min": [
        0,
        0,
        0
      ],
      "type": "VEC3"
    }
  ],
  "buffers": [
    {
      "byteLength": 888,
      "uri": "data:application/octet-stream;base64,"
    },
    {
      "byteLength": 2856,
      "uri": "data:application/octet-stream;base64,"
    },
    {
      "byteLength": 2856,
      "uri": "data:application/octet-stream;base64,"
    },
    {
      "byteLength": 2856,
      "uri": "data:application/octet-stream;base64,"
    }
  ],
  "bufferViews": [
    {
      "buffer": 0,
      "byteOffset": 0,
      "byteLength": 888
    },
    {
      "buffer": 1,
      "byteOffset": 0,
      "byteLength": 2856
    },
    {
      "buffer": 2,
      "byteOffset": 0,
      "byteLength": 2856
    },
    {
      "buffer": 3,
      "byteOffset": 0,
      "byteLength": 2856
    }
  ],
  "meshes": [
    {
      "primitives": [
        {
          "mode": 4,
          "indices": 0,
          "attributes": {
            "POSITION": 1,
            "NORMAL": 2,
            "COLOR_0": 3
          }
        }
      ]
    }
  ],
  "nodes": [
    {
      "children": [
        1
      ]
    },
    {
      "mesh": 0
    }
  ],
  "scenes": [
    {
      "nodes": [
        0
      ]
    }
  ],
  "scene": 0
}