{
  "asset": {
    "version": "2.0",
    "generator": "COLLADA2GLTF"
  },
  "accessors": [
    {
      "bufferView": 0,
      "byteOffset": 0,
      "componentType": 5123,
      "count": 3978,
      "min": [
        0
      ],
      "max": [
        1667
      ],
      "type": "SCALAR"
    },
    {
      "bufferView": 1,
      "byteOffset": 0,
      "componentType": 5126,
      "count": 1668,
      "max": [
        1890,
        0.0010000000474974513,
        -660
      ],
      "min": [
        1304.071044921875,
        0,
        -1140
      ],
      "type": "VEC3"
    },
    {
      "bufferView": 2,
      "byteOffset": 0,
      "componentType": 5126,
      "count": 1668,
      "max": [
        0.9368177652359009,
        1,
        0.9998025894165039
      ],
      "min": [
        -0.8678654432296753,
        0,
        -0.9915856122970581
      ],
      "type": "VEC3"
    },
    {
      "bufferView": 3,
      "byteOffset": 0,
      "componentType": 5126,
      "count": 1668,
      "max": [
        0.999786376953125,
        1,
        1
      ],
      "min": [
        0,
        0.000015259021893143654,
        0
      ],
      "type": "VEC3"
    }
  ],
  "buffers": [
    {
      "byteLength": 7956,
      "uri": "data:application/octet-stream;base64,"
    },
    {
      "byteLength": 20016,
      "uri": "data:application/octet-stream;base64,"
    },
    {
      "byteLength": 20016,
      "uri": "data:application/octet-stream;base64,"
    },
    {
      "byteLength": 20016,
      "uri": "data:application/octet-stream;base64,"
    }
  ],
  "bufferViews": [
    {
      "buffer": 0,
      "byteOffset": 0,
      "byteLength": 7956
    },
    {
      "buffer": 1,
      "byteOffset": 0,
      "byteLength": 20016
    },
    {
      "buffer": 2,
      "byteOffset": 0,
      "byteLength": 20016
    },
    {
      "buffer": 3,
      "byteOffset": 0,
      "byteLength": 20016
    }
  ],
  "meshes": [
    {
      "primitives": [
        {
          "mode": 4,
          "indices": 0,
          "attributes": {
            "POSITION": 1,
            "NORMAL": 2,
            "COLOR_0": 3
          }
        }
      ]
    }
  ],
  "nodes": [
    {
      "children": [
        1
      ]
    },
    {
      "mesh": 0
    }
  ],
  "scenes": [
    {
      "nodes": [
        0
      ]
    }
  ],
  "scene": 0
}