{
  "asset": {
    "version": "2.0",
    "generator": "COLLADA2GLTF"
  },
  "accessors": [
    {
      "bufferView": 0,
      "byteOffset": 0,
      "componentType": 5123,
      "count": 1212,
      "min": [
        0
      ],
      "max": [
        458
      ],
      "type": "SCALAR"
    },
    {
      "bufferView": 1,
      "byteOffset": 0,
      "componentType": 5126,
      "count": 459,
      "max": [
        -978.6589965820312,
        7.5,
        1826.9310302734375
      ],
      "min": [
        -1109.0069580078125,
        0,
        1726.9659423828125
      ],
      "type": "VEC3"
    },
    {
      "bufferView": 2,
      "byteOffset": 0,
      "componentType": 5126,
      "count": 459,
      "max": [
        0.9999998807907104,
        1,
        1
      ],
      "min": [
        -1,
        0,
        -1
      ],
      "type": "VEC3"
    },
    {
      "bufferView": 3,
      "byteOffset": 0,
      "componentType": 5126,
      "count": 459,
      "max": [
        0.999786376953125,
        0.7875181436538696,
        0.26330968737602234
      ],
      "min": [
        0.6036774516105652,
        0.00003051804378628731,
        0
      ],
      "type": "VEC3"
    }
  ],
  "buffers": [
    {
      "byteLength": 2424,
      "uri": "data:application/octet-stream;base64,"
    },
    {
      "byteLength": 5508,
      "uri": "data:application/octet-stream;base64,"
    },
    {
      "byteLength": 5508,
      "uri": "data:application/octet-stream;base64,"
    },
    {
      "byteLength": 5508,
      "uri": "data:application/octet-stream;base64,"
    }
  ],
  "bufferViews": [
    {
      "buffer": 0,
      "byteOffset": 0,
      "byteLength": 2424
    },
    {
      "buffer": 1,
      "byteOffset": 0,
      "byteLength": 5508
    },
    {
      "buffer": 2,
      "byteOffset": 0,
      "byteLength": 5508
    },
    {
      "buffer": 3,
      "byteOffset": 0,
      "byteLength": 5508
    }
  ],
  "meshes": [
    {
      "primitives": [
        {
          "mode": 4,
          "indices": 0,
          "attributes": {
            "POSITION": 1,
            "NORMAL": 2,
            "COLOR_0": 3
          }
        }
      ]
    }
  ],
  "nodes": [
    {
      "children": [
        1
      ]
    },
    {
      "mesh": 0
    }
  ],
  "scenes": [
    {
      "nodes": [
        0
      ]
    }
  ],
  "scene": 0
}