{
  "asset": {
    "version": "2.0",
    "generator": "COLLADA2GLTF"
  },
  "accessors": [
    {
      "bufferView": 0,
      "byteOffset": 0,
      "componentType": 5123,
      "count": 5319,
      "min": [
        0
      ],
      "max": [
        2034
      ],
      "type": "SCALAR"
    },
    {
      "bufferView": 1,
      "byteOffset": 0,
      "componentType": 5126,
      "count": 2035,
      "max": [
        -1426.029296875,
        0.0010000000474974513,
        -948.802978515625
      ],
      "min": [
        -1871.198974609375,
        -0.20000000298023224,
        -1260
      ],
      "type": "VEC3"
    },
    {
      "bufferView": 2,
      "byteOffset": 0,
      "componentType": 5126,
      "count": 2035,
      "max": [
        0.9999985694885254,
        1,
        0.9999985694885254
      ],
      "min": [
        -0.9999985694885254,
        -1,
        -0.9982240796089172
      ],
      "type": "VEC3"
    },
    {
      "bufferView": 3,
      "byteOffset": 0,
      "componentType": 5126,
      "count": 2035,
      "max": [
        0.7872740030288696,
        1,
        1
      ],
      "min": [
        0,
        0.00003051804378628731,
        0.00004577706567943096
      ],
      "type": "VEC3"
    }
  ],
  "buffers": [
    {
      "byteLength": 10638,
      "uri": "data:application/octet-stream;base64,"
    },
    {
      "byteLength": 24420,
      "uri": "data:application/octet-stream;base64,"
    },
    {
      "byteLength": 24420,
      "uri": "data:application/octet-stream;base64,"
    },
    {
      "byteLength": 24420,
      "uri": "data:application/octet-stream;base64,"
    }
  ],
  "bufferViews": [
    {
      "buffer": 0,
      "byteOffset": 0,
      "byteLength": 10638
    },
    {
      "buffer": 1,
      "byteOffset": 0,
      "byteLength": 24420
    },
    {
      "buffer": 2,
      "byteOffset": 0,
      "byteLength": 24420
    },
    {
      "buffer": 3,
      "byteOffset": 0,
      "byteLength": 24420
    }
  ],
  "meshes": [
    {
      "primitives": [
        {
          "mode": 4,
          "indices": 0,
          "attributes": {
            "POSITION": 1,
            "NORMAL": 2,
            "COLOR_0": 3
          }
        }
      ]
    }
  ],
  "nodes": [
    {
      "children": [
        1
      ]
    },
    {
      "mesh": 0
    }
  ],
  "scenes": [
    {
      "nodes": [
        0
      ]
    }
  ],
  "scene": 0
}