{
  "asset": {
    "version": "2.0",
    "generator": "COLLADA2GLTF"
  },
  "accessors": [
    {
      "bufferView": 0,
      "byteOffset": 0,
      "componentType": 5123,
      "count": 309,
      "min": [
        0
      ],
      "max": [
        133
      ],
      "type": "SCALAR"
    },
    {
      "bufferView": 1,
      "byteOffset": 0,
      "componentType": 5126,
      "count": 134,
      "max": [
        -2087.748779296875,
        12,
        139.8125
      ],
      "min": [
        -2107.29345703125,
        7,
        94.24423217773438
      ],
      "type": "VEC3"
    },
    {
      "bufferView": 2,
      "byteOffset": 0,
      "componentType": 5126,
      "count": 134,
      "max": [
        0.8304159045219421,
        0.7063603401184082,
        0.8304159045219421
      ],
      "min": [
        -0.8304159045219421,
        -0.7063603401184082,
        -0.8304159045219421
      ],
      "type": "VEC3"
    },
    {
      "bufferView": 3,
      "byteOffset": 0,
      "componentType": 5126,
      "count": 134,
      "max": [
        0.4480048716068268,
        0.4480048716068268,
        0.4480659067630768
      ],
      "min": [
        0,
        0,
        0
      ],
      "type": "VEC3"
    }
  ],
  "buffers": [
    {
      "byteLength": 618,
      "uri": "data:application/octet-stream;base64,"
    },
    {
      "byteLength": 1608,
      "uri": "data:application/octet-stream;base64,"
    },
    {
      "byteLength": 1608,
      "uri": "data:application/octet-stream;base64,"
    },
    {
      "byteLength": 1608,
      "uri": "data:application/octet-stream;base64,"
    }
  ],
  "bufferViews": [
    {
      "buffer": 0,
      "byteOffset": 0,
      "byteLength": 618
    },
    {
      "buffer": 1,
      "byteOffset": 0,
      "byteLength": 1608
    },
    {
      "buffer": 2,
      "byteOffset": 0,
      "byteLength": 1608
    },
    {
      "buffer": 3,
      "byteOffset": 0,
      "byteLength": 1608
    }
  ],
  "meshes": [
    {
      "primitives": [
        {
          "mode": 4,
          "indices": 0,
          "attributes": {
            "POSITION": 1,
            "NORMAL": 2,
            "COLOR_0": 3
          }
        }
      ]
    }
  ],
  "nodes": [
    {
      "children": [
        1
      ]
    },
    {
      "mesh": 0
    }
  ],
  "scenes": [
    {
      "nodes": [
        0
      ]
    }
  ],
  "scene": 0
}