{
  "asset": {
    "version": "2.0",
    "generator": "COLLADA2GLTF"
  },
  "accessors": [
    {
      "bufferView": 0,
      "byteOffset": 0,
      "componentType": 5123,
      "count": 303,
      "min": [
        0
      ],
      "max": [
        140
      ],
      "type": "SCALAR"
    },
    {
      "bufferView": 1,
      "byteOffset": 0,
      "componentType": 5126,
      "count": 141,
      "max": [
        -1049.0284423828125,
        0,
        952.7516479492188
      ],
      "min": [
        -1108.3001708984375,
        0,
        780.82080078125
      ],
      "type": "VEC3"
    },
    {
      "bufferView": 2,
      "byteOffset": 0,
      "componentType": 5126,
      "count": 141,
      "max": [
        0.8441121578216553,
        1,
        0.844292402267456
      ],
      "min": [
        -0.8444367051124573,
        0,
        -0.5361666679382324
      ],
      "type": "VEC3"
    },
    {
      "bufferView": 3,
      "byteOffset": 0,
      "componentType": 5126,
      "count": 141,
      "max": [
        0.999786376953125,
        1,
        0.26330968737602234
      ],
      "min": [
        0.000015259021893143654,
        0.07324330508708954,
        0.00004577706567943096
      ],
      "type": "VEC3"
    }
  ],
  "buffers": [
    {
      "byteLength": 606,
      "uri": "data:application/octet-stream;base64,"
    },
    {
      "byteLength": 1692,
      "uri": "data:application/octet-stream;base64,"
    },
    {
      "byteLength": 1692,
      "uri": "data:application/octet-stream;base64,"
    },
    {
      "byteLength": 1692,
      "uri": "data:application/octet-stream;base64,"
    }
  ],
  "bufferViews": [
    {
      "buffer": 0,
      "byteOffset": 0,
      "byteLength": 606
    },
    {
      "buffer": 1,
      "byteOffset": 0,
      "byteLength": 1692
    },
    {
      "buffer": 2,
      "byteOffset": 0,
      "byteLength": 1692
    },
    {
      "buffer": 3,
      "byteOffset": 0,
      "byteLength": 1692
    }
  ],
  "meshes": [
    {
      "primitives": [
        {
          "mode": 4,
          "indices": 0,
          "attributes": {
            "POSITION": 1,
            "NORMAL": 2,
            "COLOR_0": 3
          }
        }
      ]
    }
  ],
  "nodes": [
    {
      "children": [
        1
      ]
    },
    {
      "mesh": 0
    }
  ],
  "scenes": [
    {
      "nodes": [
        0
      ]
    }
  ],
  "scene": 0
}