{
  "asset": {
    "version": "2.0",
    "generator": "COLLADA2GLTF"
  },
  "accessors": [
    {
      "bufferView": 0,
      "byteOffset": 0,
      "componentType": 5123,
      "count": 1668,
      "min": [
        0
      ],
      "max": [
        669
      ],
      "type": "SCALAR"
    },
    {
      "bufferView": 1,
      "byteOffset": 0,
      "componentType": 5126,
      "count": 670,
      "max": [
        -2097.16455078125,
        12,
        1366.5572509765625
      ],
      "min": [
        -2236.880615234375,
        7,
        1303.385986328125
      ],
      "type": "VEC3"
    },
    {
      "bufferView": 2,
      "byteOffset": 0,
      "componentType": 5126,
      "count": 670,
      "max": [
        0.9947241544723511,
        0.7064793109893799,
        0.9947241544723511
      ],
      "min": [
        -0.9947241544723511,
        -0.7053679823875427,
        -0.9947241544723511
      ],
      "type": "VEC3"
    },
    {
      "bufferView": 3,
      "byteOffset": 0,
      "componentType": 5126,
      "count": 670,
      "max": [
        0.4480048716068268,
        0.4480048716068268,
        0.4480659067630768
      ],
      "min": [
        0,
        0,
        0
      ],
      "type": "VEC3"
    }
  ],
  "buffers": [
    {
      "byteLength": 3336,
      "uri": "data:application/octet-stream;base64,"
    },
    {
      "byteLength": 8040,
      "uri": "data:application/octet-stream;base64,"
    },
    {
      "byteLength": 8040,
      "uri": "data:application/octet-stream;base64,"
    },
    {
      "byteLength": 8040,
      "uri": "data:application/octet-stream;base64,"
    }
  ],
  "bufferViews": [
    {
      "buffer": 0,
      "byteOffset": 0,
      "byteLength": 3336
    },
    {
      "buffer": 1,
      "byteOffset": 0,
      "byteLength": 8040
    },
    {
      "buffer": 2,
      "byteOffset": 0,
      "byteLength": 8040
    },
    {
      "buffer": 3,
      "byteOffset": 0,
      "byteLength": 8040
    }
  ],
  "meshes": [
    {
      "primitives": [
        {
          "mode": 4,
          "indices": 0,
          "attributes": {
            "POSITION": 1,
            "NORMAL": 2,
            "COLOR_0": 3
          }
        }
      ]
    }
  ],
  "nodes": [
    {
      "children": [
        1
      ]
    },
    {
      "mesh": 0
    }
  ],
  "scenes": [
    {
      "nodes": [
        0
      ]
    }
  ],
  "scene": 0
}