{
  "asset": {
    "version": "2.0",
    "generator": "COLLADA2GLTF"
  },
  "accessors": [
    {
      "bufferView": 0,
      "byteOffset": 0,
      "componentType": 5123,
      "count": 1122,
      "min": [
        0
      ],
      "max": [
        403
      ],
      "type": "SCALAR"
    },
    {
      "bufferView": 1,
      "byteOffset": 0,
      "componentType": 5126,
      "count": 404,
      "max": [
        610.8638305664062,
        0.06400000303983688,
        2800.2490234375
      ],
      "min": [
        597.1980590820312,
        0,
        2794.119384765625
      ],
      "type": "VEC3"
    },
    {
      "bufferView": 2,
      "byteOffset": 0,
      "componentType": 5126,
      "count": 404,
      "max": [
        0.9421392679214478,
        1,
        0.9421392679214478
      ],
      "min": [
        -0.9421392679214478,
        0,
        -0.9421392679214478
      ],
      "type": "VEC3"
    },
    {
      "bufferView": 3,
      "byteOffset": 0,
      "componentType": 5126,
      "count": 404,
      "max": [
        0.07322804629802704,
        0.03309682011604309,
        0.03311207890510559
      ],
      "min": [
        0.07322804629802704,
        0.03309682011604309,
        0.03311207890510559
      ],
      "type": "VEC3"
    }
  ],
  "buffers": [
    {
      "byteLength": 2244,
      "uri": "data:application/octet-stream;base64,"
    },
    {
      "byteLength": 4848,
      "uri": "data:application/octet-stream;base64,"
    },
    {
      "byteLength": 4848,
      "uri": "data:application/octet-stream;base64,"
    },
    {
      "byteLength": 4848,
      "uri": "data:application/octet-stream;base64,"
    }
  ],
  "bufferViews": [
    {
      "buffer": 0,
      "byteOffset": 0,
      "byteLength": 2244
    },
    {
      "buffer": 1,
      "byteOffset": 0,
      "byteLength": 4848
    },
    {
      "buffer": 2,
      "byteOffset": 0,
      "byteLength": 4848
    },
    {
      "buffer": 3,
      "byteOffset": 0,
      "byteLength": 4848
    }
  ],
  "meshes": [
    {
      "primitives": [
        {
          "mode": 4,
          "indices": 0,
          "attributes": {
            "POSITION": 1,
            "NORMAL": 2,
            "COLOR_0": 3
          }
        }
      ]
    }
  ],
  "nodes": [
    {
      "children": [
        1
      ]
    },
    {
      "mesh": 0
    }
  ],
  "scenes": [
    {
      "nodes": [
        0
      ]
    }
  ],
  "scene": 0
}