{
  "asset": {
    "version": "2.0",
    "generator": "COLLADA2GLTF"
  },
  "accessors": [
    {
      "bufferView": 0,
      "byteOffset": 0,
      "componentType": 5123,
      "count": 2430,
      "min": [
        0
      ],
      "max": [
        877
      ],
      "type": "SCALAR"
    },
    {
      "bufferView": 1,
      "byteOffset": 0,
      "componentType": 5126,
      "count": 878,
      "max": [
        1753.3624267578125,
        0.14777499437332153,
        3194.723388671875
      ],
      "min": [
        1465.5682373046875,
        0,
        3096.367919921875
      ],
      "type": "VEC3"
    },
    {
      "bufferView": 2,
      "byteOffset": 0,
      "componentType": 5126,
      "count": 878,
      "max": [
        0.9472445845603943,
        1,
        0.9472446441650391
      ],
      "min": [
        -0.9472445845603943,
        -0.9486833214759827,
        -0.9472446441650391
      ],
      "type": "VEC3"
    },
    {
      "bufferView": 3,
      "byteOffset": 0,
      "componentType": 5126,
      "count": 878,
      "max": [
        0.5774929523468018,
        0.5776150226593018,
        0.5776455402374268
      ],
      "min": [
        0.07322804629802704,
        0.03309682011604309,
        0.03311207890510559
      ],
      "type": "VEC3"
    }
  ],
  "buffers": [
    {
      "byteLength": 4860,
      "uri": "data:application/octet-stream;base64,"
    },
    {
      "byteLength": 10536,
      "uri": "data:application/octet-stream;base64,"
    },
    {
      "byteLength": 10536,
      "uri": "data:application/octet-stream;base64,"
    },
    {
      "byteLength": 10536,
      "uri": "data:application/octet-stream;base64,"
    }
  ],
  "bufferViews": [
    {
      "buffer": 0,
      "byteOffset": 0,
      "byteLength": 4860
    },
    {
      "buffer": 1,
      "byteOffset": 0,
      "byteLength": 10536
    },
    {
      "buffer": 2,
      "byteOffset": 0,
      "byteLength": 10536
    },
    {
      "buffer": 3,
      "byteOffset": 0,
      "byteLength": 10536
    }
  ],
  "meshes": [
    {
      "primitives": [
        {
          "mode": 4,
          "indices": 0,
          "attributes": {
            "POSITION": 1,
            "NORMAL": 2,
            "COLOR_0": 3
          }
        }
      ]
    }
  ],
  "nodes": [
    {
      "children": [
        1
      ]
    },
    {
      "mesh": 0
    }
  ],
  "scenes": [
    {
      "nodes": [
        0
      ]
    }
  ],
  "scene": 0
}