{
  "asset": {
    "version": "2.0",
    "generator": "COLLADA2GLTF"
  },
  "accessors": [
    {
      "bufferView": 0,
      "byteOffset": 0,
      "componentType": 5123,
      "count": 1059,
      "min": [
        0
      ],
      "max": [
        599
      ],
      "type": "SCALAR"
    },
    {
      "bufferView": 1,
      "byteOffset": 0,
      "componentType": 5126,
      "count": 600,
      "max": [
        -1200.195068359375,
        7.5,
        -489.3349609375
      ],
      "min": [
        -1470,
        0,
        -780
      ],
      "type": "VEC3"
    },
    {
      "bufferView": 2,
      "byteOffset": 0,
      "componentType": 5126,
      "count": 600,
      "max": [
        0.7574856281280518,
        1,
        0.7584033012390137
      ],
      "min": [
        -0.7610151171684265,
        0,
        -0.7592275738716125
      ],
      "type": "VEC3"
    },
    {
      "bufferView": 3,
      "byteOffset": 0,
      "componentType": 5126,
      "count": 600,
      "max": [
        0.999786376953125,
        1,
        0.26330968737602234
      ],
      "min": [
        0.000015259021893143654,
        0.07324330508708954,
        0.00004577706567943096
      ],
      "type": "VEC3"
    }
  ],
  "buffers": [
    {
      "byteLength": 2118,
      "uri": "data:application/octet-stream;base64,"
    },
    {
      "byteLength": 7200,
      "uri": "data:application/octet-stream;base64,"
    },
    {
      "byteLength": 7200,
      "uri": "data:application/octet-stream;base64,"
    },
    {
      "byteLength": 7200,
      "uri": "data:application/octet-stream;base64,"
    }
  ],
  "bufferViews": [
    {
      "buffer": 0,
      "byteOffset": 0,
      "byteLength": 2118
    },
    {
      "buffer": 1,
      "byteOffset": 0,
      "byteLength": 7200
    },
    {
      "buffer": 2,
      "byteOffset": 0,
      "byteLength": 7200
    },
    {
      "buffer": 3,
      "byteOffset": 0,
      "byteLength": 7200
    }
  ],
  "meshes": [
    {
      "primitives": [
        {
          "mode": 4,
          "indices": 0,
          "attributes": {
            "POSITION": 1,
            "NORMAL": 2,
            "COLOR_0": 3
          }
        }
      ]
    }
  ],
  "nodes": [
    {
      "children": [
        1
      ]
    },
    {
      "mesh": 0
    }
  ],
  "scenes": [
    {
      "nodes": [
        0
      ]
    }
  ],
  "scene": 0
}