{
  "asset": {
    "version": "2.0",
    "generator": "COLLADA2GLTF"
  },
  "accessors": [
    {
      "bufferView": 0,
      "byteOffset": 0,
      "componentType": 5123,
      "count": 2817,
      "min": [
        0
      ],
      "max": [
        991
      ],
      "type": "SCALAR"
    },
    {
      "bufferView": 1,
      "byteOffset": 0,
      "componentType": 5126,
      "count": 992,
      "max": [
        -3930.552978515625,
        0.14777499437332153,
        785.9321899414062
      ],
      "min": [
        -3996.337890625,
        0,
        708.9779052734375
      ],
      "type": "VEC3"
    },
    {
      "bufferView": 2,
      "byteOffset": 0,
      "componentType": 5126,
      "count": 992,
      "max": [
        0.7610180377960205,
        1,
        0.7610119581222534
      ],
      "min": [
        -0.7610180377960205,
        -0.9486833214759827,
        -0.7610119581222534
      ],
      "type": "VEC3"
    },
    {
      "bufferView": 3,
      "byteOffset": 0,
      "componentType": 5126,
      "count": 992,
      "max": [
        0.5774929523468018,
        0.5776150226593018,
        0.5776455402374268
      ],
      "min": [
        0.07322804629802704,
        0.03309682011604309,
        0.03311207890510559
      ],
      "type": "VEC3"
    }
  ],
  "buffers": [
    {
      "byteLength": 5634,
      "uri": "data:application/octet-stream;base64,"
    },
    {
      "byteLength": 11904,
      "uri": "data:application/octet-stream;base64,"
    },
    {
      "byteLength": 11904,
      "uri": "data:application/octet-stream;base64,"
    },
    {
      "byteLength": 11904,
      "uri": "data:application/octet-stream;base64,"
    }
  ],
  "bufferViews": [
    {
      "buffer": 0,
      "byteOffset": 0,
      "byteLength": 5634
    },
    {
      "buffer": 1,
      "byteOffset": 0,
      "byteLength": 11904
    },
    {
      "buffer": 2,
      "byteOffset": 0,
      "byteLength": 11904
    },
    {
      "buffer": 3,
      "byteOffset": 0,
      "byteLength": 11904
    }
  ],
  "meshes": [
    {
      "primitives": [
        {
          "mode": 4,
          "indices": 0,
          "attributes": {
            "POSITION": 1,
            "NORMAL": 2,
            "COLOR_0": 3
          }
        }
      ]
    }
  ],
  "nodes": [
    {
      "children": [
        1
      ]
    },
    {
      "mesh": 0
    }
  ],
  "scenes": [
    {
      "nodes": [
        0
      ]
    }
  ],
  "scene": 0
}