{
  "asset": {
    "version": "2.0",
    "generator": "COLLADA2GLTF"
  },
  "accessors": [
    {
      "bufferView": 0,
      "byteOffset": 0,
      "componentType": 5123,
      "count": 4791,
      "min": [
        0
      ],
      "max": [
        1643
      ],
      "type": "SCALAR"
    },
    {
      "bufferView": 1,
      "byteOffset": 0,
      "componentType": 5126,
      "count": 1644,
      "max": [
        -3509.75341796875,
        0.14777499437332153,
        1064.4495849609375
      ],
      "min": [
        -3658.176513671875,
        0,
        994.4650268554688
      ],
      "type": "VEC3"
    },
    {
      "bufferView": 2,
      "byteOffset": 0,
      "componentType": 5126,
      "count": 1644,
      "max": [
        0.9063517451286316,
        1,
        0.9063551425933838
      ],
      "min": [
        -0.9063517451286316,
        -0.9486833214759827,
        -0.9063551425933838
      ],
      "type": "VEC3"
    },
    {
      "bufferView": 3,
      "byteOffset": 0,
      "componentType": 5126,
      "count": 1644,
      "max": [
        0.5774929523468018,
        0.5776150226593018,
        0.5776455402374268
      ],
      "min": [
        0.07322804629802704,
        0.03309682011604309,
        0.03311207890510559
      ],
      "type": "VEC3"
    }
  ],
  "buffers": [
    {
      "byteLength": 9582,
      "uri": "data:application/octet-stream;base64,"
    },
    {
      "byteLength": 19728,
      "uri": "data:application/octet-stream;base64,"
    },
    {
      "byteLength": 19728,
      "uri": "data:application/octet-stream;base64,"
    },
    {
      "byteLength": 19728,
      "uri": "data:application/octet-stream;base64,"
    }
  ],
  "bufferViews": [
    {
      "buffer": 0,
      "byteOffset": 0,
      "byteLength": 9582
    },
    {
      "buffer": 1,
      "byteOffset": 0,
      "byteLength": 19728
    },
    {
      "buffer": 2,
      "byteOffset": 0,
      "byteLength": 19728
    },
    {
      "buffer": 3,
      "byteOffset": 0,
      "byteLength": 19728
    }
  ],
  "meshes": [
    {
      "primitives": [
        {
          "mode": 4,
          "indices": 0,
          "attributes": {
            "POSITION": 1,
            "NORMAL": 2,
            "COLOR_0": 3
          }
        }
      ]
    }
  ],
  "nodes": [
    {
      "children": [
        1
      ]
    },
    {
      "mesh": 0
    }
  ],
  "scenes": [
    {
      "nodes": [
        0
      ]
    }
  ],
  "scene": 0
}