{
  "asset": {
    "version": "2.0",
    "generator": "COLLADA2GLTF"
  },
  "accessors": [
    {
      "bufferView": 0,
      "byteOffset": 0,
      "componentType": 5123,
      "count": 5250,
      "min": [
        0
      ],
      "max": [
        2373
      ],
      "type": "SCALAR"
    },
    {
      "bufferView": 1,
      "byteOffset": 0,
      "componentType": 5126,
      "count": 2374,
      "max": [
        -9.343000411987305,
        7.5,
        432.0589904785156
      ],
      "min": [
        -1166.427978515625,
        0,
        -1262.5450439453125
      ],
      "type": "VEC3"
    },
    {
      "bufferView": 2,
      "byteOffset": 0,
      "componentType": 5126,
      "count": 2374,
      "max": [
        0.9727321863174438,
        1,
        0.9727356433868408
      ],
      "min": [
        -0.9727358818054199,
        0,
        -0.9728657007217407
      ],
      "type": "VEC3"
    },
    {
      "bufferView": 3,
      "byteOffset": 0,
      "componentType": 5126,
      "count": 2374,
      "max": [
        0.999786376953125,
        1,
        1
      ],
      "min": [
        0,
        0.00003051804378628731,
        0.00004577706567943096
      ],
      "type": "VEC3"
    }
  ],
  "buffers": [
    {
      "byteLength": 10500,
      "uri": "data:application/octet-stream;base64,"
    },
    {
      "byteLength": 28488,
      "uri": "data:application/octet-stream;base64,"
    },
    {
      "byteLength": 28488,
      "uri": "data:application/octet-stream;base64,"
    },
    {
      "byteLength": 28488,
      "uri": "data:application/octet-stream;base64,"
    }
  ],
  "bufferViews": [
    {
      "buffer": 0,
      "byteOffset": 0,
      "byteLength": 10500
    },
    {
      "buffer": 1,
      "byteOffset": 0,
      "byteLength": 28488
    },
    {
      "buffer": 2,
      "byteOffset": 0,
      "byteLength": 28488
    },
    {
      "buffer": 3,
      "byteOffset": 0,
      "byteLength": 28488
    }
  ],
  "meshes": [
    {
      "primitives": [
        {
          "mode": 4,
          "indices": 0,
          "attributes": {
            "POSITION": 1,
            "NORMAL": 2,
            "COLOR_0": 3
          }
        }
      ]
    }
  ],
  "nodes": [
    {
      "children": [
        1
      ]
    },
    {
      "mesh": 0
    }
  ],
  "scenes": [
    {
      "nodes": [
        0
      ]
    }
  ],
  "scene": 0
}