{
  "asset": {
    "version": "2.0",
    "generator": "COLLADA2GLTF"
  },
  "accessors": [
    {
      "bufferView": 0,
      "byteOffset": 0,
      "componentType": 5123,
      "count": 435,
      "min": [
        0
      ],
      "max": [
        158
      ],
      "type": "SCALAR"
    },
    {
      "bufferView": 1,
      "byteOffset": 0,
      "componentType": 5126,
      "count": 159,
      "max": [
        4168.29296875,
        0,
        -474.8768615722656
      ],
      "min": [
        3386.50634765625,
        -3,
        -1622.492431640625
      ],
      "type": "VEC3"
    },
    {
      "bufferView": 2,
      "byteOffset": 0,
      "componentType": 5126,
      "count": 159,
      "max": [
        0.8239984512329102,
        1,
        0.8239984512329102
      ],
      "min": [
        -0.8239984512329102,
        0,
        -0.8239984512329102
      ],
      "type": "VEC3"
    },
    {
      "bufferView": 3,
      "byteOffset": 0,
      "componentType": 5126,
      "count": 159,
      "max": [
        0.21585412323474884,
        0.21585412323474884,
        0.21589989960193634
      ],
      "min": [
        0.21585412323474884,
        0.21585412323474884,
        0.21589989960193634
      ],
      "type": "VEC3"
    }
  ],
  "buffers": [
    {
      "byteLength": 870,
      "uri": "data:application/octet-stream;base64,"
    },
    {
      "byteLength": 1908,
      "uri": "data:application/octet-stream;base64,"
    },
    {
      "byteLength": 1908,
      "uri": "data:application/octet-stream;base64,"
    },
    {
      "byteLength": 1908,
      "uri": "data:application/octet-stream;base64,"
    }
  ],
  "bufferViews": [
    {
      "buffer": 0,
      "byteOffset": 0,
      "byteLength": 870
    },
    {
      "buffer": 1,
      "byteOffset": 0,
      "byteLength": 1908
    },
    {
      "buffer": 2,
      "byteOffset": 0,
      "byteLength": 1908
    },
    {
      "buffer": 3,
      "byteOffset": 0,
      "byteLength": 1908
    }
  ],
  "meshes": [
    {
      "primitives": [
        {
          "mode": 4,
          "indices": 0,
          "attributes": {
            "POSITION": 1,
            "NORMAL": 2,
            "COLOR_0": 3
          }
        }
      ]
    }
  ],
  "nodes": [
    {
      "children": [
        1
      ]
    },
    {
      "mesh": 0
    }
  ],
  "scenes": [
    {
      "nodes": [
        0
      ]
    }
  ],
  "scene": 0
}