{
  "asset": {
    "version": "2.0",
    "generator": "COLLADA2GLTF"
  },
  "accessors": [
    {
      "bufferView": 0,
      "byteOffset": 0,
      "componentType": 5123,
      "count": 6654,
      "min": [
        0
      ],
      "max": [
        2881
      ],
      "type": "SCALAR"
    },
    {
      "bufferView": 1,
      "byteOffset": 0,
      "componentType": 5126,
      "count": 2882,
      "max": [
        527.080322265625,
        7.5,
        -283.90972900390625
      ],
      "min": [
        210.25558471679688,
        0,
        -778.4702758789062
      ],
      "type": "VEC3"
    },
    {
      "bufferView": 2,
      "byteOffset": 0,
      "componentType": 5126,
      "count": 2882,
      "max": [
        0.9976339340209961,
        1,
        0.9998590350151062
      ],
      "min": [
        -0.9970486760139465,
        0,
        -0.9891084432601929
      ],
      "type": "VEC3"
    },
    {
      "bufferView": 3,
      "byteOffset": 0,
      "componentType": 5126,
      "count": 2882,
      "max": [
        0.999786376953125,
        1,
        0.7875028848648071
      ],
      "min": [
        0.000015259021893143654,
        0.07324330508708954,
        0.00004577706567943096
      ],
      "type": "VEC3"
    }
  ],
  "buffers": [
    {
      "byteLength": 13308,
      "uri": "data:application/octet-stream;base64,"
    },
    {
      "byteLength": 34584,
      "uri": "data:application/octet-stream;base64,"
    },
    {
      "byteLength": 34584,
      "uri": "data:application/octet-stream;base64,"
    },
    {
      "byteLength": 34584,
      "uri": "data:application/octet-stream;base64,"
    }
  ],
  "bufferViews": [
    {
      "buffer": 0,
      "byteOffset": 0,
      "byteLength": 13308
    },
    {
      "buffer": 1,
      "byteOffset": 0,
      "byteLength": 34584
    },
    {
      "buffer": 2,
      "byteOffset": 0,
      "byteLength": 34584
    },
    {
      "buffer": 3,
      "byteOffset": 0,
      "byteLength": 34584
    }
  ],
  "meshes": [
    {
      "primitives": [
        {
          "mode": 4,
          "indices": 0,
          "attributes": {
            "POSITION": 1,
            "NORMAL": 2,
            "COLOR_0": 3
          }
        }
      ]
    }
  ],
  "nodes": [
    {
      "children": [
        1
      ]
    },
    {
      "mesh": 0
    }
  ],
  "scenes": [
    {
      "nodes": [
        0
      ]
    }
  ],
  "scene": 0
}