{
  "asset": {
    "version": "2.0",
    "generator": "COLLADA2GLTF"
  },
  "accessors": [
    {
      "bufferView": 0,
      "byteOffset": 0,
      "componentType": 5123,
      "count": 330,
      "min": [
        0
      ],
      "max": [
        174
      ],
      "type": "SCALAR"
    },
    {
      "bufferView": 1,
      "byteOffset": 0,
      "componentType": 5126,
      "count": 175,
      "max": [
        -682.81201171875,
        7.5,
        -42.89099884033203
      ],
      "min": [
        -787.5050048828125,
        0,
        -246.9980010986328
      ],
      "type": "VEC3"
    },
    {
      "bufferView": 2,
      "byteOffset": 0,
      "componentType": 5126,
      "count": 175,
      "max": [
        0.9125470519065857,
        0,
        0.9130235314369202
      ],
      "min": [
        -0.963967502117157,
        0,
        -0.9350746870040894
      ],
      "type": "VEC3"
    },
    {
      "bufferView": 3,
      "byteOffset": 0,
      "componentType": 5126,
      "count": 175,
      "max": [
        0.999786376953125,
        0.7875181436538696,
        0.26330968737602234
      ],
      "min": [
        0.999786376953125,
        0.7875181436538696,
        0.26330968737602234
      ],
      "type": "VEC3"
    }
  ],
  "buffers": [
    {
      "byteLength": 660,
      "uri": "data:application/octet-stream;base64,"
    },
    {
      "byteLength": 2100,
      "uri": "data:application/octet-stream;base64,"
    },
    {
      "byteLength": 2100,
      "uri": "data:application/octet-stream;base64,"
    },
    {
      "byteLength": 2100,
      "uri": "data:application/octet-stream;base64,"
    }
  ],
  "bufferViews": [
    {
      "buffer": 0,
      "byteOffset": 0,
      "byteLength": 660
    },
    {
      "buffer": 1,
      "byteOffset": 0,
      "byteLength": 2100
    },
    {
      "buffer": 2,
      "byteOffset": 0,
      "byteLength": 2100
    },
    {
      "buffer": 3,
      "byteOffset": 0,
      "byteLength": 2100
    }
  ],
  "meshes": [
    {
      "primitives": [
        {
          "mode": 4,
          "indices": 0,
          "attributes": {
            "POSITION": 1,
            "NORMAL": 2,
            "COLOR_0": 3
          }
        }
      ]
    }
  ],
  "nodes": [
    {
      "children": [
        1
      ]
    },
    {
      "mesh": 0
    }
  ],
  "scenes": [
    {
      "nodes": [
        0
      ]
    }
  ],
  "scene": 0
}