{
  "asset": {
    "version": "2.0",
    "generator": "COLLADA2GLTF"
  },
  "accessors": [
    {
      "bufferView": 0,
      "byteOffset": 0,
      "componentType": 5123,
      "count": 1440,
      "min": [
        0
      ],
      "max": [
        506
      ],
      "type": "SCALAR"
    },
    {
      "bufferView": 1,
      "byteOffset": 0,
      "componentType": 5126,
      "count": 507,
      "max": [
        2603.98095703125,
        0.06400000303983688,
        3545.34912109375
      ],
      "min": [
        1752.97216796875,
        0,
        3194.722900390625
      ],
      "type": "VEC3"
    },
    {
      "bufferView": 2,
      "byteOffset": 0,
      "componentType": 5126,
      "count": 507,
      "max": [
        0.9146078824996948,
        1,
        0.9146078824996948
      ],
      "min": [
        -0.9146078824996948,
        0,
        -0.9146078824996948
      ],
      "type": "VEC3"
    },
    {
      "bufferView": 3,
      "byteOffset": 0,
      "componentType": 5126,
      "count": 507,
      "max": [
        0.5774929523468018,
        0.5776150226593018,
        0.5776455402374268
      ],
      "min": [
        0.07322804629802704,
        0.03309682011604309,
        0.03311207890510559
      ],
      "type": "VEC3"
    }
  ],
  "buffers": [
    {
      "byteLength": 2880,
      "uri": "data:application/octet-stream;base64,"
    },
    {
      "byteLength": 6084,
      "uri": "data:application/octet-stream;base64,"
    },
    {
      "byteLength": 6084,
      "uri": "data:application/octet-stream;base64,"
    },
    {
      "byteLength": 6084,
      "uri": "data:application/octet-stream;base64,"
    }
  ],
  "bufferViews": [
    {
      "buffer": 0,
      "byteOffset": 0,
      "byteLength": 2880
    },
    {
      "buffer": 1,
      "byteOffset": 0,
      "byteLength": 6084
    },
    {
      "buffer": 2,
      "byteOffset": 0,
      "byteLength": 6084
    },
    {
      "buffer": 3,
      "byteOffset": 0,
      "byteLength": 6084
    }
  ],
  "meshes": [
    {
      "primitives": [
        {
          "mode": 4,
          "indices": 0,
          "attributes": {
            "POSITION": 1,
            "NORMAL": 2,
            "COLOR_0": 3
          }
        }
      ]
    }
  ],
  "nodes": [
    {
      "children": [
        1
      ]
    },
    {
      "mesh": 0
    }
  ],
  "scenes": [
    {
      "nodes": [
        0
      ]
    }
  ],
  "scene": 0
}