{
  "asset": {
    "version": "2.0",
    "generator": "COLLADA2GLTF"
  },
  "accessors": [
    {
      "bufferView": 0,
      "byteOffset": 0,
      "componentType": 5123,
      "count": 2661,
      "min": [
        0
      ],
      "max": [
        970
      ],
      "type": "SCALAR"
    },
    {
      "bufferView": 1,
      "byteOffset": 0,
      "componentType": 5126,
      "count": 971,
      "max": [
        94.28849029541016,
        0,
        16.763517379760742
      ],
      "min": [
        78.71210479736328,
        -3,
        -115.81047058105469
      ],
      "type": "VEC3"
    },
    {
      "bufferView": 2,
      "byteOffset": 0,
      "componentType": 5126,
      "count": 971,
      "max": [
        0.9997684955596924,
        1,
        0.9997684955596924
      ],
      "min": [
        -0.9997684955596924,
        0,
        -0.9997684955596924
      ],
      "type": "VEC3"
    },
    {
      "bufferView": 3,
      "byteOffset": 0,
      "componentType": 5126,
      "count": 971,
      "max": [
        0.21585412323474884,
        0.21585412323474884,
        0.21589989960193634
      ],
      "min": [
        0.21585412323474884,
        0.21585412323474884,
        0.21589989960193634
      ],
      "type": "VEC3"
    }
  ],
  "buffers": [
    {
      "byteLength": 5322,
      "uri": "data:application/octet-stream;base64,"
    },
    {
      "byteLength": 11652,
      "uri": "data:application/octet-stream;base64,"
    },
    {
      "byteLength": 11652,
      "uri": "data:application/octet-stream;base64,"
    },
    {
      "byteLength": 11652,
      "uri": "data:application/octet-stream;base64,"
    }
  ],
  "bufferViews": [
    {
      "buffer": 0,
      "byteOffset": 0,
      "byteLength": 5322
    },
    {
      "buffer": 1,
      "byteOffset": 0,
      "byteLength": 11652
    },
    {
      "buffer": 2,
      "byteOffset": 0,
      "byteLength": 11652
    },
    {
      "buffer": 3,
      "byteOffset": 0,
      "byteLength": 11652
    }
  ],
  "meshes": [
    {
      "primitives": [
        {
          "mode": 4,
          "indices": 0,
          "attributes": {
            "POSITION": 1,
            "NORMAL": 2,
            "COLOR_0": 3
          }
        }
      ]
    }
  ],
  "nodes": [
    {
      "children": [
        1
      ]
    },
    {
      "mesh": 0
    }
  ],
  "scenes": [
    {
      "nodes": [
        0
      ]
    }
  ],
  "scene": 0
}