{
  "asset": {
    "version": "2.0",
    "generator": "COLLADA2GLTF"
  },
  "accessors": [
    {
      "bufferView": 0,
      "byteOffset": 0,
      "componentType": 5123,
      "count": 2070,
      "min": [
        0
      ],
      "max": [
        813
      ],
      "type": "SCALAR"
    },
    {
      "bufferView": 1,
      "byteOffset": 0,
      "componentType": 5126,
      "count": 814,
      "max": [
        91.04911804199219,
        2,
        -1528.9188232421875
      ],
      "min": [
        -15.1738862991333,
        -0.5,
        -1621.0135498046875
      ],
      "type": "VEC3"
    },
    {
      "bufferView": 2,
      "byteOffset": 0,
      "componentType": 5126,
      "count": 814,
      "max": [
        0.8282598853111267,
        1,
        0.810771644115448
      ],
      "min": [
        -0.8382158875465393,
        -1,
        -0.7817692756652832
      ],
      "type": "VEC3"
    },
    {
      "bufferView": 3,
      "byteOffset": 0,
      "componentType": 5126,
      "count": 814,
      "max": [
        0.999786376953125,
        1,
        0.7875028848648071
      ],
      "min": [
        0.000015259021893143654,
        0.07324330508708954,
        0.00004577706567943096
      ],
      "type": "VEC3"
    }
  ],
  "buffers": [
    {
      "byteLength": 4140,
      "uri": "data:application/octet-stream;base64,"
    },
    {
      "byteLength": 9768,
      "uri": "data:application/octet-stream;base64,"
    },
    {
      "byteLength": 9768,
      "uri": "data:application/octet-stream;base64,"
    },
    {
      "byteLength": 9768,
      "uri": "data:application/octet-stream;base64,"
    }
  ],
  "bufferViews": [
    {
      "buffer": 0,
      "byteOffset": 0,
      "byteLength": 4140
    },
    {
      "buffer": 1,
      "byteOffset": 0,
      "byteLength": 9768
    },
    {
      "buffer": 2,
      "byteOffset": 0,
      "byteLength": 9768
    },
    {
      "buffer": 3,
      "byteOffset": 0,
      "byteLength": 9768
    }
  ],
  "meshes": [
    {
      "primitives": [
        {
          "mode": 4,
          "indices": 0,
          "attributes": {
            "POSITION": 1,
            "NORMAL": 2,
            "COLOR_0": 3
          }
        }
      ]
    }
  ],
  "nodes": [
    {
      "children": [
        1
      ]
    },
    {
      "mesh": 0
    }
  ],
  "scenes": [
    {
      "nodes": [
        0
      ]
    }
  ],
  "scene": 0
}