{
  "asset": {
    "version": "2.0",
    "generator": "COLLADA2GLTF"
  },
  "accessors": [
    {
      "bufferView": 0,
      "byteOffset": 0,
      "componentType": 5123,
      "count": 576,
      "min": [
        0
      ],
      "max": [
        269
      ],
      "type": "SCALAR"
    },
    {
      "bufferView": 1,
      "byteOffset": 0,
      "componentType": 5126,
      "count": 270,
      "max": [
        -182.15199279785156,
        2.299999952316284,
        712.9119873046875
      ],
      "min": [
        -189.5679931640625,
        0,
        637.6199951171875
      ],
      "type": "VEC3"
    },
    {
      "bufferView": 2,
      "byteOffset": 0,
      "componentType": 5126,
      "count": 270,
      "max": [
        0.9898214340209961,
        1,
        1
      ],
      "min": [
        -0.9898214340209961,
        -1,
        -0.9594929814338684
      ],
      "type": "VEC3"
    },
    {
      "bufferView": 3,
      "byteOffset": 0,
      "componentType": 5126,
      "count": 270,
      "max": [
        0.9549705982208252,
        0.7874418497085571,
        0.5776455402374268
      ],
      "min": [
        0.5774929523468018,
        0.5776150226593018,
        0.003997863736003637
      ],
      "type": "VEC3"
    }
  ],
  "buffers": [
    {
      "byteLength": 1152,
      "uri": "data:application/octet-stream;base64,"
    },
    {
      "byteLength": 3240,
      "uri": "data:application/octet-stream;base64,"
    },
    {
      "byteLength": 3240,
      "uri": "data:application/octet-stream;base64,"
    },
    {
      "byteLength": 3240,
      "uri": "data:application/octet-stream;base64,"
    }
  ],
  "bufferViews": [
    {
      "buffer": 0,
      "byteOffset": 0,
      "byteLength": 1152
    },
    {
      "buffer": 1,
      "byteOffset": 0,
      "byteLength": 3240
    },
    {
      "buffer": 2,
      "byteOffset": 0,
      "byteLength": 3240
    },
    {
      "buffer": 3,
      "byteOffset": 0,
      "byteLength": 3240
    }
  ],
  "meshes": [
    {
      "primitives": [
        {
          "mode": 4,
          "indices": 0,
          "attributes": {
            "POSITION": 1,
            "NORMAL": 2,
            "COLOR_0": 3
          }
        }
      ]
    }
  ],
  "nodes": [
    {
      "children": [
        1
      ]
    },
    {
      "mesh": 0
    }
  ],
  "scenes": [
    {
      "nodes": [
        0
      ]
    }
  ],
  "scene": 0
}