{
  "asset": {
    "version": "2.0",
    "generator": "COLLADA2GLTF"
  },
  "accessors": [
    {
      "bufferView": 0,
      "byteOffset": 0,
      "componentType": 5123,
      "count": 312,
      "min": [
        0
      ],
      "max": [
        111
      ],
      "type": "SCALAR"
    },
    {
      "bufferView": 1,
      "byteOffset": 0,
      "componentType": 5126,
      "count": 112,
      "max": [
        679.1500244140625,
        0,
        -622.8287963867188
      ],
      "min": [
        -8.486227989196777,
        0,
        -1357.3433837890625
      ],
      "type": "VEC3"
    },
    {
      "bufferView": 2,
      "byteOffset": 0,
      "componentType": 5126,
      "count": 112,
      "max": [
        0,
        1,
        0
      ],
      "min": [
        0,
        1,
        0
      ],
      "type": "VEC3"
    },
    {
      "bufferView": 3,
      "byteOffset": 0,
      "componentType": 5126,
      "count": 112,
      "max": [
        0.07322804629802704,
        0.07324330508708954,
        0.07325856387615204
      ],
      "min": [
        0.07322804629802704,
        0.07324330508708954,
        0.07325856387615204
      ],
      "type": "VEC3"
    }
  ],
  "buffers": [
    {
      "byteLength": 624,
      "uri": "data:application/octet-stream;base64,"
    },
    {
      "byteLength": 1344,
      "uri": "data:application/octet-stream;base64,"
    },
    {
      "byteLength": 1344,
      "uri": "data:application/octet-stream;base64,"
    },
    {
      "byteLength": 1344,
      "uri": "data:application/octet-stream;base64,"
    }
  ],
  "bufferViews": [
    {
      "buffer": 0,
      "byteOffset": 0,
      "byteLength": 624
    },
    {
      "buffer": 1,
      "byteOffset": 0,
      "byteLength": 1344
    },
    {
      "buffer": 2,
      "byteOffset": 0,
      "byteLength": 1344
    },
    {
      "buffer": 3,
      "byteOffset": 0,
      "byteLength": 1344
    }
  ],
  "meshes": [
    {
      "primitives": [
        {
          "mode": 4,
          "indices": 0,
          "attributes": {
            "POSITION": 1,
            "NORMAL": 2,
            "COLOR_0": 3
          }
        }
      ]
    }
  ],
  "nodes": [
    {
      "children": [
        1
      ]
    },
    {
      "mesh": 0
    }
  ],
  "scenes": [
    {
      "nodes": [
        0
      ]
    }
  ],
  "scene": 0
}