{
  "asset": {
    "version": "2.0",
    "generator": "COLLADA2GLTF"
  },
  "accessors": [
    {
      "bufferView": 0,
      "byteOffset": 0,
      "componentType": 5123,
      "count": 363,
      "min": [
        0
      ],
      "max": [
        128
      ],
      "type": "SCALAR"
    },
    {
      "bufferView": 1,
      "byteOffset": 0,
      "componentType": 5126,
      "count": 129,
      "max": [
        -1246.1156005859375,
        0,
        1567.5560302734375
      ],
      "min": [
        -1420.25390625,
        -3,
        1315.47802734375
      ],
      "type": "VEC3"
    },
    {
      "bufferView": 2,
      "byteOffset": 0,
      "componentType": 5126,
      "count": 129,
      "max": [
        0.8271545767784119,
        1,
        0.8271544575691223
      ],
      "min": [
        -0.8271544575691223,
        -1,
        -0.8271544575691223
      ],
      "type": "VEC3"
    },
    {
      "bufferView": 3,
      "byteOffset": 0,
      "componentType": 5126,
      "count": 129,
      "max": [
        0.21585412323474884,
        0.21585412323474884,
        0.21589989960193634
      ],
      "min": [
        0.07322804629802704,
        0.07324330508708954,
        0.07325856387615204
      ],
      "type": "VEC3"
    }
  ],
  "buffers": [
    {
      "byteLength": 726,
      "uri": "data:application/octet-stream;base64,"
    },
    {
      "byteLength": 1548,
      "uri": "data:application/octet-stream;base64,"
    },
    {
      "byteLength": 1548,
      "uri": "data:application/octet-stream;base64,"
    },
    {
      "byteLength": 1548,
      "uri": "data:application/octet-stream;base64,"
    }
  ],
  "bufferViews": [
    {
      "buffer": 0,
      "byteOffset": 0,
      "byteLength": 726
    },
    {
      "buffer": 1,
      "byteOffset": 0,
      "byteLength": 1548
    },
    {
      "buffer": 2,
      "byteOffset": 0,
      "byteLength": 1548
    },
    {
      "buffer": 3,
      "byteOffset": 0,
      "byteLength": 1548
    }
  ],
  "meshes": [
    {
      "primitives": [
        {
          "mode": 4,
          "indices": 0,
          "attributes": {
            "POSITION": 1,
            "NORMAL": 2,
            "COLOR_0": 3
          }
        }
      ]
    }
  ],
  "nodes": [
    {
      "children": [
        1
      ]
    },
    {
      "mesh": 0
    }
  ],
  "scenes": [
    {
      "nodes": [
        0
      ]
    }
  ],
  "scene": 0
}