{
  "asset": {
    "version": "2.0",
    "generator": "COLLADA2GLTF"
  },
  "accessors": [
    {
      "bufferView": 0,
      "byteOffset": 0,
      "componentType": 5123,
      "count": 138,
      "min": [
        0
      ],
      "max": [
        58
      ],
      "type": "SCALAR"
    },
    {
      "bufferView": 1,
      "byteOffset": 0,
      "componentType": 5126,
      "count": 59,
      "max": [
        -3052.463134765625,
        0.06400000303983688,
        1269.194580078125
      ],
      "min": [
        -3055.791748046875,
        0,
        1266.3211669921875
      ],
      "type": "VEC3"
    },
    {
      "bufferView": 2,
      "byteOffset": 0,
      "componentType": 5126,
      "count": 59,
      "max": [
        0.8316106200218201,
        1,
        0.5553591847419739
      ],
      "min": [
        -0.8316106200218201,
        0,
        -0.8316106200218201
      ],
      "type": "VEC3"
    },
    {
      "bufferView": 3,
      "byteOffset": 0,
      "componentType": 5126,
      "count": 59,
      "max": [
        0.07322804629802704,
        0.03309682011604309,
        0.03311207890510559
      ],
      "min": [
        0.07322804629802704,
        0.03309682011604309,
        0.03311207890510559
      ],
      "type": "VEC3"
    }
  ],
  "buffers": [
    {
      "byteLength": 276,
      "uri": "data:application/octet-stream;base64,"
    },
    {
      "byteLength": 708,
      "uri": "data:application/octet-stream;base64,"
    },
    {
      "byteLength": 708,
      "uri": "data:application/octet-stream;base64,"
    },
    {
      "byteLength": 708,
      "uri": "data:application/octet-stream;base64,"
    }
  ],
  "bufferViews": [
    {
      "buffer": 0,
      "byteOffset": 0,
      "byteLength": 276
    },
    {
      "buffer": 1,
      "byteOffset": 0,
      "byteLength": 708
    },
    {
      "buffer": 2,
      "byteOffset": 0,
      "byteLength": 708
    },
    {
      "buffer": 3,
      "byteOffset": 0,
      "byteLength": 708
    }
  ],
  "meshes": [
    {
      "primitives": [
        {
          "mode": 4,
          "indices": 0,
          "attributes": {
            "POSITION": 1,
            "NORMAL": 2,
            "COLOR_0": 3
          }
        }
      ]
    }
  ],
  "nodes": [
    {
      "children": [
        1
      ]
    },
    {
      "mesh": 0
    }
  ],
  "scenes": [
    {
      "nodes": [
        0
      ]
    }
  ],
  "scene": 0
}