{
  "asset": {
    "version": "2.0",
    "generator": "COLLADA2GLTF"
  },
  "accessors": [
    {
      "bufferView": 0,
      "byteOffset": 0,
      "componentType": 5123,
      "count": 672,
      "min": [
        0
      ],
      "max": [
        261
      ],
      "type": "SCALAR"
    },
    {
      "bufferView": 1,
      "byteOffset": 0,
      "componentType": 5126,
      "count": 262,
      "max": [
        -206.12705993652344,
        0.0010000000474974513,
        456.333740234375
      ],
      "min": [
        -229.14495849609375,
        0,
        149.81033325195312
      ],
      "type": "VEC3"
    },
    {
      "bufferView": 2,
      "byteOffset": 0,
      "componentType": 5126,
      "count": 262,
      "max": [
        0,
        1,
        0
      ],
      "min": [
        0,
        1,
        0
      ],
      "type": "VEC3"
    },
    {
      "bufferView": 3,
      "byteOffset": 0,
      "componentType": 5126,
      "count": 262,
      "max": [
        0.7872740030288696,
        0.7875028848648071,
        0.7875028848648071
      ],
      "min": [
        0.07322804629802704,
        0.07324330508708954,
        0.07325856387615204
      ],
      "type": "VEC3"
    }
  ],
  "buffers": [
    {
      "byteLength": 1344,
      "uri": "data:application/octet-stream;base64,"
    },
    {
      "byteLength": 3144,
      "uri": "data:application/octet-stream;base64,"
    },
    {
      "byteLength": 3144,
      "uri": "data:application/octet-stream;base64,"
    },
    {
      "byteLength": 3144,
      "uri": "data:application/octet-stream;base64,"
    }
  ],
  "bufferViews": [
    {
      "buffer": 0,
      "byteOffset": 0,
      "byteLength": 1344
    },
    {
      "buffer": 1,
      "byteOffset": 0,
      "byteLength": 3144
    },
    {
      "buffer": 2,
      "byteOffset": 0,
      "byteLength": 3144
    },
    {
      "buffer": 3,
      "byteOffset": 0,
      "byteLength": 3144
    }
  ],
  "meshes": [
    {
      "primitives": [
        {
          "mode": 4,
          "indices": 0,
          "attributes": {
            "POSITION": 1,
            "NORMAL": 2,
            "COLOR_0": 3
          }
        }
      ]
    }
  ],
  "nodes": [
    {
      "children": [
        1
      ]
    },
    {
      "mesh": 0
    }
  ],
  "scenes": [
    {
      "nodes": [
        0
      ]
    }
  ],
  "scene": 0
}