{
  "asset": {
    "version": "2.0",
    "generator": "COLLADA2GLTF"
  },
  "accessors": [
    {
      "bufferView": 0,
      "byteOffset": 0,
      "componentType": 5123,
      "count": 969,
      "min": [
        0
      ],
      "max": [
        431
      ],
      "type": "SCALAR"
    },
    {
      "bufferView": 1,
      "byteOffset": 0,
      "componentType": 5126,
      "count": 432,
      "max": [
        -2875.7919921875,
        0,
        1320
      ],
      "min": [
        -3000,
        0,
        1208.0697021484375
      ],
      "type": "VEC3"
    },
    {
      "bufferView": 2,
      "byteOffset": 0,
      "componentType": 5126,
      "count": 432,
      "max": [
        0.9810202121734619,
        1,
        0.9876633286476135
      ],
      "min": [
        -0.9762031435966492,
        0,
        -0.9820559024810791
      ],
      "type": "VEC3"
    },
    {
      "bufferView": 3,
      "byteOffset": 0,
      "componentType": 5126,
      "count": 432,
      "max": [
        0.999786376953125,
        1,
        0.26330968737602234
      ],
      "min": [
        0.000015259021893143654,
        0.07324330508708954,
        0.00004577706567943096
      ],
      "type": "VEC3"
    }
  ],
  "buffers": [
    {
      "byteLength": 1938,
      "uri": "data:application/octet-stream;base64,"
    },
    {
      "byteLength": 5184,
      "uri": "data:application/octet-stream;base64,"
    },
    {
      "byteLength": 5184,
      "uri": "data:application/octet-stream;base64,"
    },
    {
      "byteLength": 5184,
      "uri": "data:application/octet-stream;base64,"
    }
  ],
  "bufferViews": [
    {
      "buffer": 0,
      "byteOffset": 0,
      "byteLength": 1938
    },
    {
      "buffer": 1,
      "byteOffset": 0,
      "byteLength": 5184
    },
    {
      "buffer": 2,
      "byteOffset": 0,
      "byteLength": 5184
    },
    {
      "buffer": 3,
      "byteOffset": 0,
      "byteLength": 5184
    }
  ],
  "meshes": [
    {
      "primitives": [
        {
          "mode": 4,
          "indices": 0,
          "attributes": {
            "POSITION": 1,
            "NORMAL": 2,
            "COLOR_0": 3
          }
        }
      ]
    }
  ],
  "nodes": [
    {
      "children": [
        1
      ]
    },
    {
      "mesh": 0
    }
  ],
  "scenes": [
    {
      "nodes": [
        0
      ]
    }
  ],
  "scene": 0
}