{
  "asset": {
    "version": "2.0",
    "generator": "COLLADA2GLTF"
  },
  "accessors": [
    {
      "bufferView": 0,
      "byteOffset": 0,
      "componentType": 5123,
      "count": 2079,
      "min": [
        0
      ],
      "max": [
        929
      ],
      "type": "SCALAR"
    },
    {
      "bufferView": 1,
      "byteOffset": 0,
      "componentType": 5126,
      "count": 930,
      "max": [
        1530,
        7.5,
        -662.6719970703125
      ],
      "min": [
        1329.9703369140625,
        0,
        -968.8599243164062
      ],
      "type": "VEC3"
    },
    {
      "bufferView": 2,
      "byteOffset": 0,
      "componentType": 5126,
      "count": 930,
      "max": [
        1,
        1,
        1
      ],
      "min": [
        -1,
        -1,
        -1
      ],
      "type": "VEC3"
    },
    {
      "bufferView": 3,
      "byteOffset": 0,
      "componentType": 5126,
      "count": 930,
      "max": [
        0.999786376953125,
        1,
        0.7875028848648071
      ],
      "min": [
        0.000015259021893143654,
        0.07324330508708954,
        0.00004577706567943096
      ],
      "type": "VEC3"
    }
  ],
  "buffers": [
    {
      "byteLength": 4158,
      "uri": "data:application/octet-stream;base64,"
    },
    {
      "byteLength": 11160,
      "uri": "data:application/octet-stream;base64,"
    },
    {
      "byteLength": 11160,
      "uri": "data:application/octet-stream;base64,"
    },
    {
      "byteLength": 11160,
      "uri": "data:application/octet-stream;base64,"
    }
  ],
  "bufferViews": [
    {
      "buffer": 0,
      "byteOffset": 0,
      "byteLength": 4158
    },
    {
      "buffer": 1,
      "byteOffset": 0,
      "byteLength": 11160
    },
    {
      "buffer": 2,
      "byteOffset": 0,
      "byteLength": 11160
    },
    {
      "buffer": 3,
      "byteOffset": 0,
      "byteLength": 11160
    }
  ],
  "meshes": [
    {
      "primitives": [
        {
          "mode": 4,
          "indices": 0,
          "attributes": {
            "POSITION": 1,
            "NORMAL": 2,
            "COLOR_0": 3
          }
        }
      ]
    }
  ],
  "nodes": [
    {
      "children": [
        1
      ]
    },
    {
      "mesh": 0
    }
  ],
  "scenes": [
    {
      "nodes": [
        0
      ]
    }
  ],
  "scene": 0
}