{
  "asset": {
    "version": "2.0",
    "generator": "COLLADA2GLTF"
  },
  "accessors": [
    {
      "bufferView": 0,
      "byteOffset": 0,
      "componentType": 5123,
      "count": 993,
      "min": [
        0
      ],
      "max": [
        431
      ],
      "type": "SCALAR"
    },
    {
      "bufferView": 1,
      "byteOffset": 0,
      "componentType": 5126,
      "count": 432,
      "max": [
        180,
        0.0010000000474974513,
        -133.90805053710938
      ],
      "min": [
        78.03925323486328,
        0,
        -240
      ],
      "type": "VEC3"
    },
    {
      "bufferView": 2,
      "byteOffset": 0,
      "componentType": 5126,
      "count": 432,
      "max": [
        0,
        1,
        0.9856610894203186
      ],
      "min": [
        -0.955794095993042,
        0,
        -0.294036865234375
      ],
      "type": "VEC3"
    },
    {
      "bufferView": 3,
      "byteOffset": 0,
      "componentType": 5126,
      "count": 432,
      "max": [
        0.999786376953125,
        1,
        0.7875028848648071
      ],
      "min": [
        0,
        0.07324330508708954,
        0.000015259021893143654
      ],
      "type": "VEC3"
    }
  ],
  "buffers": [
    {
      "byteLength": 1986,
      "uri": "data:application/octet-stream;base64,"
    },
    {
      "byteLength": 5184,
      "uri": "data:application/octet-stream;base64,"
    },
    {
      "byteLength": 5184,
      "uri": "data:application/octet-stream;base64,"
    },
    {
      "byteLength": 5184,
      "uri": "data:application/octet-stream;base64,"
    }
  ],
  "bufferViews": [
    {
      "buffer": 0,
      "byteOffset": 0,
      "byteLength": 1986
    },
    {
      "buffer": 1,
      "byteOffset": 0,
      "byteLength": 5184
    },
    {
      "buffer": 2,
      "byteOffset": 0,
      "byteLength": 5184
    },
    {
      "buffer": 3,
      "byteOffset": 0,
      "byteLength": 5184
    }
  ],
  "meshes": [
    {
      "primitives": [
        {
          "mode": 4,
          "indices": 0,
          "attributes": {
            "POSITION": 1,
            "NORMAL": 2,
            "COLOR_0": 3
          }
        }
      ]
    }
  ],
  "nodes": [
    {
      "children": [
        1
      ]
    },
    {
      "mesh": 0
    }
  ],
  "scenes": [
    {
      "nodes": [
        0
      ]
    }
  ],
  "scene": 0
}