{
  "asset": {
    "version": "2.0",
    "generator": "COLLADA2GLTF"
  },
  "accessors": [
    {
      "bufferView": 0,
      "byteOffset": 0,
      "componentType": 5123,
      "count": 1032,
      "min": [
        0
      ],
      "max": [
        476
      ],
      "type": "SCALAR"
    },
    {
      "bufferView": 1,
      "byteOffset": 0,
      "componentType": 5126,
      "count": 477,
      "max": [
        198.4246368408203,
        0.0010000000474974513,
        210
      ],
      "min": [
        51.62900161743164,
        -0.20000000298023224,
        -173.65899658203125
      ],
      "type": "VEC3"
    },
    {
      "bufferView": 2,
      "byteOffset": 0,
      "componentType": 5126,
      "count": 477,
      "max": [
        0.8308571577072144,
        1,
        0.8308609127998352
      ],
      "min": [
        -0.8158067464828491,
        -1,
        -0.8309049010276794
      ],
      "type": "VEC3"
    },
    {
      "bufferView": 3,
      "byteOffset": 0,
      "componentType": 5126,
      "count": 477,
      "max": [
        0.7872740030288696,
        1,
        1
      ],
      "min": [
        0,
        0.00003051804378628731,
        0.00004577706567943096
      ],
      "type": "VEC3"
    }
  ],
  "buffers": [
    {
      "byteLength": 2064,
      "uri": "data:application/octet-stream;base64,"
    },
    {
      "byteLength": 5724,
      "uri": "data:application/octet-stream;base64,"
    },
    {
      "byteLength": 5724,
      "uri": "data:application/octet-stream;base64,"
    },
    {
      "byteLength": 5724,
      "uri": "data:application/octet-stream;base64,"
    }
  ],
  "bufferViews": [
    {
      "buffer": 0,
      "byteOffset": 0,
      "byteLength": 2064
    },
    {
      "buffer": 1,
      "byteOffset": 0,
      "byteLength": 5724
    },
    {
      "buffer": 2,
      "byteOffset": 0,
      "byteLength": 5724
    },
    {
      "buffer": 3,
      "byteOffset": 0,
      "byteLength": 5724
    }
  ],
  "meshes": [
    {
      "primitives": [
        {
          "mode": 4,
          "indices": 0,
          "attributes": {
            "POSITION": 1,
            "NORMAL": 2,
            "COLOR_0": 3
          }
        }
      ]
    }
  ],
  "nodes": [
    {
      "children": [
        1
      ]
    },
    {
      "mesh": 0
    }
  ],
  "scenes": [
    {
      "nodes": [
        0
      ]
    }
  ],
  "scene": 0
}