{
  "asset": {
    "version": "2.0",
    "generator": "COLLADA2GLTF"
  },
  "accessors": [
    {
      "bufferView": 0,
      "byteOffset": 0,
      "componentType": 5123,
      "count": 426,
      "min": [
        0
      ],
      "max": [
        309
      ],
      "type": "SCALAR"
    },
    {
      "bufferView": 1,
      "byteOffset": 0,
      "componentType": 5126,
      "count": 310,
      "max": [
        2767.221923828125,
        55,
        -1468.0902099609375
      ],
      "min": [
        2126.5712890625,
        0,
        -2048.78369140625
      ],
      "type": "VEC3"
    },
    {
      "bufferView": 2,
      "byteOffset": 0,
      "componentType": 5126,
      "count": 310,
      "max": [
        0.8337482213973999,
        1,
        0.8565866351127625
      ],
      "min": [
        -0.8449388742446899,
        0,
        -0.8402343392372131
      ],
      "type": "VEC3"
    },
    {
      "bufferView": 3,
      "byteOffset": 0,
      "componentType": 5126,
      "count": 310,
      "max": [
        0.999786376953125,
        0.7875181436538696,
        0.26330968737602234
      ],
      "min": [
        0.6036774516105652,
        0.00003051804378628731,
        0
      ],
      "type": "VEC3"
    }
  ],
  "buffers": [
    {
      "byteLength": 852,
      "uri": "data:application/octet-stream;base64,"
    },
    {
      "byteLength": 3720,
      "uri": "data:application/octet-stream;base64,"
    },
    {
      "byteLength": 3720,
      "uri": "data:application/octet-stream;base64,"
    },
    {
      "byteLength": 3720,
      "uri": "data:application/octet-stream;base64,"
    }
  ],
  "bufferViews": [
    {
      "buffer": 0,
      "byteOffset": 0,
      "byteLength": 852
    },
    {
      "buffer": 1,
      "byteOffset": 0,
      "byteLength": 3720
    },
    {
      "buffer": 2,
      "byteOffset": 0,
      "byteLength": 3720
    },
    {
      "buffer": 3,
      "byteOffset": 0,
      "byteLength": 3720
    }
  ],
  "meshes": [
    {
      "primitives": [
        {
          "mode": 4,
          "indices": 0,
          "attributes": {
            "POSITION": 1,
            "NORMAL": 2,
            "COLOR_0": 3
          }
        }
      ]
    }
  ],
  "nodes": [
    {
      "children": [
        1
      ]
    },
    {
      "mesh": 0
    }
  ],
  "scenes": [
    {
      "nodes": [
        0
      ]
    }
  ],
  "scene": 0
}