{
  "asset": {
    "version": "2.0",
    "generator": "COLLADA2GLTF"
  },
  "accessors": [
    {
      "bufferView": 0,
      "byteOffset": 0,
      "componentType": 5123,
      "count": 5736,
      "min": [
        0
      ],
      "max": [
        2361
      ],
      "type": "SCALAR"
    },
    {
      "bufferView": 1,
      "byteOffset": 0,
      "componentType": 5126,
      "count": 2362,
      "max": [
        -1470.5301513671875,
        7.5,
        1020
      ],
      "min": [
        -1770,
        0,
        525.7589111328125
      ],
      "type": "VEC3"
    },
    {
      "bufferView": 2,
      "byteOffset": 0,
      "componentType": 5126,
      "count": 2362,
      "max": [
        0.8252778649330139,
        1,
        0.8252962231636047
      ],
      "min": [
        -0.8249493837356567,
        0,
        -0.825501561164856
      ],
      "type": "VEC3"
    },
    {
      "bufferView": 3,
      "byteOffset": 0,
      "componentType": 5126,
      "count": 2362,
      "max": [
        0.999847412109375,
        1,
        1
      ],
      "min": [
        0,
        0.00003051804378628731,
        0
      ],
      "type": "VEC3"
    }
  ],
  "buffers": [
    {
      "byteLength": 11472,
      "uri": "data:application/octet-stream;base64,"
    },
    {
      "byteLength": 28344,
      "uri": "data:application/octet-stream;base64,"
    },
    {
      "byteLength": 28344,
      "uri": "data:application/octet-stream;base64,"
    },
    {
      "byteLength": 28344,
      "uri": "data:application/octet-stream;base64,"
    }
  ],
  "bufferViews": [
    {
      "buffer": 0,
      "byteOffset": 0,
      "byteLength": 11472
    },
    {
      "buffer": 1,
      "byteOffset": 0,
      "byteLength": 28344
    },
    {
      "buffer": 2,
      "byteOffset": 0,
      "byteLength": 28344
    },
    {
      "buffer": 3,
      "byteOffset": 0,
      "byteLength": 28344
    }
  ],
  "meshes": [
    {
      "primitives": [
        {
          "mode": 4,
          "indices": 0,
          "attributes": {
            "POSITION": 1,
            "NORMAL": 2,
            "COLOR_0": 3
          }
        }
      ]
    }
  ],
  "nodes": [
    {
      "children": [
        1
      ]
    },
    {
      "mesh": 0
    }
  ],
  "scenes": [
    {
      "nodes": [
        0
      ]
    }
  ],
  "scene": 0
}