{
  "asset": {
    "version": "2.0",
    "generator": "COLLADA2GLTF"
  },
  "accessors": [
    {
      "bufferView": 0,
      "byteOffset": 0,
      "componentType": 5123,
      "count": 69,
      "min": [
        0
      ],
      "max": [
        24
      ],
      "type": "SCALAR"
    },
    {
      "bufferView": 1,
      "byteOffset": 0,
      "componentType": 5126,
      "count": 25,
      "max": [
        1064.06982421875,
        4.5,
        -2270.26708984375
      ],
      "min": [
        1048.8760986328125,
        -0.5,
        -2285.4609375
      ],
      "type": "VEC3"
    },
    {
      "bufferView": 2,
      "byteOffset": 0,
      "componentType": 5126,
      "count": 25,
      "max": [
        0.7991830110549927,
        -0.3162277638912201,
        0.7991830110549927
      ],
      "min": [
        -0.7991830110549927,
        -0.3162277638912201,
        -0.7991830110549927
      ],
      "type": "VEC3"
    },
    {
      "bufferView": 3,
      "byteOffset": 0,
      "componentType": 5126,
      "count": 25,
      "max": [
        0.4480048716068268,
        0.4480048716068268,
        0.4480659067630768
      ],
      "min": [
        0.4480048716068268,
        0.4480048716068268,
        0.4480659067630768
      ],
      "type": "VEC3"
    }
  ],
  "buffers": [
    {
      "byteLength": 138,
      "uri": "data:application/octet-stream;base64,"
    },
    {
      "byteLength": 300,
      "uri": "data:application/octet-stream;base64,"
    },
    {
      "byteLength": 300,
      "uri": "data:application/octet-stream;base64,"
    },
    {
      "byteLength": 300,
      "uri": "data:application/octet-stream;base64,"
    }
  ],
  "bufferViews": [
    {
      "buffer": 0,
      "byteOffset": 0,
      "byteLength": 138
    },
    {
      "buffer": 1,
      "byteOffset": 0,
      "byteLength": 300
    },
    {
      "buffer": 2,
      "byteOffset": 0,
      "byteLength": 300
    },
    {
      "buffer": 3,
      "byteOffset": 0,
      "byteLength": 300
    }
  ],
  "meshes": [
    {
      "primitives": [
        {
          "mode": 4,
          "indices": 0,
          "attributes": {
            "POSITION": 1,
            "NORMAL": 2,
            "COLOR_0": 3
          }
        }
      ]
    }
  ],
  "nodes": [
    {
      "children": [
        1
      ]
    },
    {
      "mesh": 0
    }
  ],
  "scenes": [
    {
      "nodes": [
        0
      ]
    }
  ],
  "scene": 0
}