{
  "asset": {
    "version": "2.0",
    "generator": "COLLADA2GLTF"
  },
  "accessors": [
    {
      "bufferView": 0,
      "byteOffset": 0,
      "componentType": 5123,
      "count": 5034,
      "min": [
        0
      ],
      "max": [
        1740
      ],
      "type": "SCALAR"
    },
    {
      "bufferView": 1,
      "byteOffset": 0,
      "componentType": 5126,
      "count": 1741,
      "max": [
        1069.7559814453125,
        0.14777499437332153,
        2964.258056640625
      ],
      "min": [
        728.5363159179688,
        0,
        2841.4169921875
      ],
      "type": "VEC3"
    },
    {
      "bufferView": 2,
      "byteOffset": 0,
      "componentType": 5126,
      "count": 1741,
      "max": [
        0.9421535134315491,
        1,
        0.9421535134315491
      ],
      "min": [
        -0.9421535134315491,
        -0.9486833214759827,
        -0.9421535134315491
      ],
      "type": "VEC3"
    },
    {
      "bufferView": 3,
      "byteOffset": 0,
      "componentType": 5126,
      "count": 1741,
      "max": [
        0.5774929523468018,
        0.5776150226593018,
        0.5776455402374268
      ],
      "min": [
        0.05127031356096268,
        0.03309682011604309,
        0.03311207890510559
      ],
      "type": "VEC3"
    }
  ],
  "buffers": [
    {
      "byteLength": 10068,
      "uri": "data:application/octet-stream;base64,"
    },
    {
      "byteLength": 20892,
      "uri": "data:application/octet-stream;base64,"
    },
    {
      "byteLength": 20892,
      "uri": "data:application/octet-stream;base64,"
    },
    {
      "byteLength": 20892,
      "uri": "data:application/octet-stream;base64,"
    }
  ],
  "bufferViews": [
    {
      "buffer": 0,
      "byteOffset": 0,
      "byteLength": 10068
    },
    {
      "buffer": 1,
      "byteOffset": 0,
      "byteLength": 20892
    },
    {
      "buffer": 2,
      "byteOffset": 0,
      "byteLength": 20892
    },
    {
      "buffer": 3,
      "byteOffset": 0,
      "byteLength": 20892
    }
  ],
  "meshes": [
    {
      "primitives": [
        {
          "mode": 4,
          "indices": 0,
          "attributes": {
            "POSITION": 1,
            "NORMAL": 2,
            "COLOR_0": 3
          }
        }
      ]
    }
  ],
  "nodes": [
    {
      "children": [
        1
      ]
    },
    {
      "mesh": 0
    }
  ],
  "scenes": [
    {
      "nodes": [
        0
      ]
    }
  ],
  "scene": 0
}