{
  "asset": {
    "version": "2.0",
    "generator": "COLLADA2GLTF"
  },
  "accessors": [
    {
      "bufferView": 0,
      "byteOffset": 0,
      "componentType": 5123,
      "count": 1491,
      "min": [
        0
      ],
      "max": [
        510
      ],
      "type": "SCALAR"
    },
    {
      "bufferView": 1,
      "byteOffset": 0,
      "componentType": 5126,
      "count": 511,
      "max": [
        -7238.900390625,
        9.5,
        -1481.232421875
      ],
      "min": [
        -8513.8857421875,
        -0.5,
        -2042.9608154296875
      ],
      "type": "VEC3"
    },
    {
      "bufferView": 2,
      "byteOffset": 0,
      "componentType": 5126,
      "count": 511,
      "max": [
        0.920342206954956,
        -0.06651900708675385,
        0.920342206954956
      ],
      "min": [
        -0.920342206954956,
        -0.2873478829860687,
        -0.920342206954956
      ],
      "type": "VEC3"
    },
    {
      "bufferView": 3,
      "byteOffset": 0,
      "componentType": 5126,
      "count": 511,
      "max": [
        0.4480048716068268,
        0.4480048716068268,
        0.4480659067630768
      ],
      "min": [
        0.4480048716068268,
        0.4480048716068268,
        0.4480659067630768
      ],
      "type": "VEC3"
    }
  ],
  "buffers": [
    {
      "byteLength": 2982,
      "uri": "data:application/octet-stream;base64,"
    },
    {
      "byteLength": 6132,
      "uri": "data:application/octet-stream;base64,"
    },
    {
      "byteLength": 6132,
      "uri": "data:application/octet-stream;base64,"
    },
    {
      "byteLength": 6132,
      "uri": "data:application/octet-stream;base64,"
    }
  ],
  "bufferViews": [
    {
      "buffer": 0,
      "byteOffset": 0,
      "byteLength": 2982
    },
    {
      "buffer": 1,
      "byteOffset": 0,
      "byteLength": 6132
    },
    {
      "buffer": 2,
      "byteOffset": 0,
      "byteLength": 6132
    },
    {
      "buffer": 3,
      "byteOffset": 0,
      "byteLength": 6132
    }
  ],
  "meshes": [
    {
      "primitives": [
        {
          "mode": 4,
          "indices": 0,
          "attributes": {
            "POSITION": 1,
            "NORMAL": 2,
            "COLOR_0": 3
          }
        }
      ]
    }
  ],
  "nodes": [
    {
      "children": [
        1
      ]
    },
    {
      "mesh": 0
    }
  ],
  "scenes": [
    {
      "nodes": [
        0
      ]
    }
  ],
  "scene": 0
}