{
  "asset": {
    "version": "2.0",
    "generator": "COLLADA2GLTF"
  },
  "accessors": [
    {
      "bufferView": 0,
      "byteOffset": 0,
      "componentType": 5123,
      "count": 2781,
      "min": [
        0
      ],
      "max": [
        1042
      ],
      "type": "SCALAR"
    },
    {
      "bufferView": 1,
      "byteOffset": 0,
      "componentType": 5126,
      "count": 1043,
      "max": [
        6285.83447265625,
        19.5,
        8903.6416015625
      ],
      "min": [
        5700.86376953125,
        12,
        8436.931640625
      ],
      "type": "VEC3"
    },
    {
      "bufferView": 2,
      "byteOffset": 0,
      "componentType": 5126,
      "count": 1043,
      "max": [
        0.7891225814819336,
        0.7071018815040588,
        0.7891225814819336
      ],
      "min": [
        -0.7891225814819336,
        -0.7071017026901245,
        -0.7891225814819336
      ],
      "type": "VEC3"
    },
    {
      "bufferView": 3,
      "byteOffset": 0,
      "componentType": 5126,
      "count": 1043,
      "max": [
        0.4480048716068268,
        0.4480048716068268,
        0.4480659067630768
      ],
      "min": [
        0,
        0,
        0
      ],
      "type": "VEC3"
    }
  ],
  "buffers": [
    {
      "byteLength": 5562,
      "uri": "data:application/octet-stream;base64,"
    },
    {
      "byteLength": 12516,
      "uri": "data:application/octet-stream;base64,"
    },
    {
      "byteLength": 12516,
      "uri": "data:application/octet-stream;base64,"
    },
    {
      "byteLength": 12516,
      "uri": "data:application/octet-stream;base64,"
    }
  ],
  "bufferViews": [
    {
      "buffer": 0,
      "byteOffset": 0,
      "byteLength": 5562
    },
    {
      "buffer": 1,
      "byteOffset": 0,
      "byteLength": 12516
    },
    {
      "buffer": 2,
      "byteOffset": 0,
      "byteLength": 12516
    },
    {
      "buffer": 3,
      "byteOffset": 0,
      "byteLength": 12516
    }
  ],
  "meshes": [
    {
      "primitives": [
        {
          "mode": 4,
          "indices": 0,
          "attributes": {
            "POSITION": 1,
            "NORMAL": 2,
            "COLOR_0": 3
          }
        }
      ]
    }
  ],
  "nodes": [
    {
      "children": [
        1
      ]
    },
    {
      "mesh": 0
    }
  ],
  "scenes": [
    {
      "nodes": [
        0
      ]
    }
  ],
  "scene": 0
}