{
  "asset": {
    "version": "2.0",
    "generator": "COLLADA2GLTF"
  },
  "accessors": [
    {
      "bufferView": 0,
      "byteOffset": 0,
      "componentType": 5123,
      "count": 279,
      "min": [
        0
      ],
      "max": [
        156
      ],
      "type": "SCALAR"
    },
    {
      "bufferView": 1,
      "byteOffset": 0,
      "componentType": 5126,
      "count": 157,
      "max": [
        -148.0290069580078,
        7.5,
        541.2930297851562
      ],
      "min": [
        -321.8110046386719,
        7.5,
        367.4770812988281
      ],
      "type": "VEC3"
    },
    {
      "bufferView": 2,
      "byteOffset": 0,
      "componentType": 5126,
      "count": 157,
      "max": [
        0.835703432559967,
        1,
        0.8356200456619263
      ],
      "min": [
        -0.835739016532898,
        0,
        -0.9545485377311707
      ],
      "type": "VEC3"
    },
    {
      "bufferView": 3,
      "byteOffset": 0,
      "componentType": 5126,
      "count": 157,
      "max": [
        0.999786376953125,
        0.7875181436538696,
        0.26330968737602234
      ],
      "min": [
        0.6036774516105652,
        0.00003051804378628731,
        0
      ],
      "type": "VEC3"
    }
  ],
  "buffers": [
    {
      "byteLength": 558,
      "uri": "data:application/octet-stream;base64,"
    },
    {
      "byteLength": 1884,
      "uri": "data:application/octet-stream;base64,"
    },
    {
      "byteLength": 1884,
      "uri": "data:application/octet-stream;base64,"
    },
    {
      "byteLength": 1884,
      "uri": "data:application/octet-stream;base64,"
    }
  ],
  "bufferViews": [
    {
      "buffer": 0,
      "byteOffset": 0,
      "byteLength": 558
    },
    {
      "buffer": 1,
      "byteOffset": 0,
      "byteLength": 1884
    },
    {
      "buffer": 2,
      "byteOffset": 0,
      "byteLength": 1884
    },
    {
      "buffer": 3,
      "byteOffset": 0,
      "byteLength": 1884
    }
  ],
  "meshes": [
    {
      "primitives": [
        {
          "mode": 4,
          "indices": 0,
          "attributes": {
            "POSITION": 1,
            "NORMAL": 2,
            "COLOR_0": 3
          }
        }
      ]
    }
  ],
  "nodes": [
    {
      "children": [
        1
      ]
    },
    {
      "mesh": 0
    }
  ],
  "scenes": [
    {
      "nodes": [
        0
      ]
    }
  ],
  "scene": 0
}