{
  "asset": {
    "version": "2.0",
    "generator": "COLLADA2GLTF"
  },
  "accessors": [
    {
      "bufferView": 0,
      "byteOffset": 0,
      "componentType": 5123,
      "count": 1035,
      "min": [
        0
      ],
      "max": [
        511
      ],
      "type": "SCALAR"
    },
    {
      "bufferView": 1,
      "byteOffset": 0,
      "componentType": 5126,
      "count": 512,
      "max": [
        649.3089599609375,
        0.0010000000474974513,
        -98.21033477783203
      ],
      "min": [
        577.5126953125,
        0,
        -351.97601318359375
      ],
      "type": "VEC3"
    },
    {
      "bufferView": 2,
      "byteOffset": 0,
      "componentType": 5126,
      "count": 512,
      "max": [
        0.9146086573600769,
        1,
        0.9463604092597961
      ],
      "min": [
        -0.9462706446647644,
        0,
        -0.9459136128425598
      ],
      "type": "VEC3"
    },
    {
      "bufferView": 3,
      "byteOffset": 0,
      "componentType": 5126,
      "count": 512,
      "max": [
        0.999786376953125,
        1,
        0.7875028848648071
      ],
      "min": [
        0.000015259021893143654,
        0.07324330508708954,
        0.00004577706567943096
      ],
      "type": "VEC3"
    }
  ],
  "buffers": [
    {
      "byteLength": 2070,
      "uri": "data:application/octet-stream;base64,"
    },
    {
      "byteLength": 6144,
      "uri": "data:application/octet-stream;base64,"
    },
    {
      "byteLength": 6144,
      "uri": "data:application/octet-stream;base64,"
    },
    {
      "byteLength": 6144,
      "uri": "data:application/octet-stream;base64,"
    }
  ],
  "bufferViews": [
    {
      "buffer": 0,
      "byteOffset": 0,
      "byteLength": 2070
    },
    {
      "buffer": 1,
      "byteOffset": 0,
      "byteLength": 6144
    },
    {
      "buffer": 2,
      "byteOffset": 0,
      "byteLength": 6144
    },
    {
      "buffer": 3,
      "byteOffset": 0,
      "byteLength": 6144
    }
  ],
  "meshes": [
    {
      "primitives": [
        {
          "mode": 4,
          "indices": 0,
          "attributes": {
            "POSITION": 1,
            "NORMAL": 2,
            "COLOR_0": 3
          }
        }
      ]
    }
  ],
  "nodes": [
    {
      "children": [
        1
      ]
    },
    {
      "mesh": 0
    }
  ],
  "scenes": [
    {
      "nodes": [
        0
      ]
    }
  ],
  "scene": 0
}