{
  "asset": {
    "version": "2.0",
    "generator": "COLLADA2GLTF"
  },
  "accessors": [
    {
      "bufferView": 0,
      "byteOffset": 0,
      "componentType": 5123,
      "count": 1209,
      "min": [
        0
      ],
      "max": [
        529
      ],
      "type": "SCALAR"
    },
    {
      "bufferView": 1,
      "byteOffset": 0,
      "componentType": 5126,
      "count": 530,
      "max": [
        2296.435546875,
        0.0010000000474974513,
        886.142333984375
      ],
      "min": [
        2031.77685546875,
        0,
        540
      ],
      "type": "VEC3"
    },
    {
      "bufferView": 2,
      "byteOffset": 0,
      "componentType": 5126,
      "count": 530,
      "max": [
        0.9933120608329773,
        1,
        0.8647075295448303
      ],
      "min": [
        -0.8647604584693909,
        0,
        -0.8871858716011047
      ],
      "type": "VEC3"
    },
    {
      "bufferView": 3,
      "byteOffset": 0,
      "componentType": 5126,
      "count": 530,
      "max": [
        0.999786376953125,
        1,
        0.7875028848648071
      ],
      "min": [
        0.000015259021893143654,
        0.000015259021893143654,
        0
      ],
      "type": "VEC3"
    }
  ],
  "buffers": [
    {
      "byteLength": 2418,
      "uri": "data:application/octet-stream;base64,"
    },
    {
      "byteLength": 6360,
      "uri": "data:application/octet-stream;base64,"
    },
    {
      "byteLength": 6360,
      "uri": "data:application/octet-stream;base64,"
    },
    {
      "byteLength": 6360,
      "uri": "data:application/octet-stream;base64,"
    }
  ],
  "bufferViews": [
    {
      "buffer": 0,
      "byteOffset": 0,
      "byteLength": 2418
    },
    {
      "buffer": 1,
      "byteOffset": 0,
      "byteLength": 6360
    },
    {
      "buffer": 2,
      "byteOffset": 0,
      "byteLength": 6360
    },
    {
      "buffer": 3,
      "byteOffset": 0,
      "byteLength": 6360
    }
  ],
  "meshes": [
    {
      "primitives": [
        {
          "mode": 4,
          "indices": 0,
          "attributes": {
            "POSITION": 1,
            "NORMAL": 2,
            "COLOR_0": 3
          }
        }
      ]
    }
  ],
  "nodes": [
    {
      "children": [
        1
      ]
    },
    {
      "mesh": 0
    }
  ],
  "scenes": [
    {
      "nodes": [
        0
      ]
    }
  ],
  "scene": 0
}