{
  "asset": {
    "version": "2.0",
    "generator": "COLLADA2GLTF"
  },
  "accessors": [
    {
      "bufferView": 0,
      "byteOffset": 0,
      "componentType": 5123,
      "count": 687,
      "min": [
        0
      ],
      "max": [
        261
      ],
      "type": "SCALAR"
    },
    {
      "bufferView": 1,
      "byteOffset": 0,
      "componentType": 5126,
      "count": 262,
      "max": [
        -2111.44970703125,
        17.165000915527344,
        4357.38818359375
      ],
      "min": [
        -2250.383056640625,
        12,
        4191.7275390625
      ],
      "type": "VEC3"
    },
    {
      "bufferView": 2,
      "byteOffset": 0,
      "componentType": 5126,
      "count": 262,
      "max": [
        0.7908377051353455,
        0.7071006298065186,
        0.7908377051353455
      ],
      "min": [
        -0.7908377051353455,
        -0.7071006298065186,
        -0.7908377051353455
      ],
      "type": "VEC3"
    },
    {
      "bufferView": 3,
      "byteOffset": 0,
      "componentType": 5126,
      "count": 262,
      "max": [
        0.4480048716068268,
        0.4480048716068268,
        0.4480659067630768
      ],
      "min": [
        0,
        0,
        0
      ],
      "type": "VEC3"
    }
  ],
  "buffers": [
    {
      "byteLength": 1374,
      "uri": "data:application/octet-stream;base64,"
    },
    {
      "byteLength": 3144,
      "uri": "data:application/octet-stream;base64,"
    },
    {
      "byteLength": 3144,
      "uri": "data:application/octet-stream;base64,"
    },
    {
      "byteLength": 3144,
      "uri": "data:application/octet-stream;base64,"
    }
  ],
  "bufferViews": [
    {
      "buffer": 0,
      "byteOffset": 0,
      "byteLength": 1374
    },
    {
      "buffer": 1,
      "byteOffset": 0,
      "byteLength": 3144
    },
    {
      "buffer": 2,
      "byteOffset": 0,
      "byteLength": 3144
    },
    {
      "buffer": 3,
      "byteOffset": 0,
      "byteLength": 3144
    }
  ],
  "meshes": [
    {
      "primitives": [
        {
          "mode": 4,
          "indices": 0,
          "attributes": {
            "POSITION": 1,
            "NORMAL": 2,
            "COLOR_0": 3
          }
        }
      ]
    }
  ],
  "nodes": [
    {
      "children": [
        1
      ]
    },
    {
      "mesh": 0
    }
  ],
  "scenes": [
    {
      "nodes": [
        0
      ]
    }
  ],
  "scene": 0
}