{
  "asset": {
    "version": "2.0",
    "generator": "COLLADA2GLTF"
  },
  "accessors": [
    {
      "bufferView": 0,
      "byteOffset": 0,
      "componentType": 5123,
      "count": 2547,
      "min": [
        0
      ],
      "max": [
        1023
      ],
      "type": "SCALAR"
    },
    {
      "bufferView": 1,
      "byteOffset": 0,
      "componentType": 5126,
      "count": 1024,
      "max": [
        219.06011962890625,
        0.0010000000474974513,
        133.71600341796875
      ],
      "min": [
        132.732177734375,
        -0.20000000298023224,
        17.668603897094727
      ],
      "type": "VEC3"
    },
    {
      "bufferView": 2,
      "byteOffset": 0,
      "componentType": 5126,
      "count": 1024,
      "max": [
        0.6219062805175781,
        1,
        0.8308080434799194
      ],
      "min": [
        -0.7831023335456848,
        -1,
        -0.8033031225204468
      ],
      "type": "VEC3"
    },
    {
      "bufferView": 3,
      "byteOffset": 0,
      "componentType": 5126,
      "count": 1024,
      "max": [
        0.7872740030288696,
        1,
        0.7875028848648071
      ],
      "min": [
        0.000015259021893143654,
        0.07324330508708954,
        0.00004577706567943096
      ],
      "type": "VEC3"
    }
  ],
  "buffers": [
    {
      "byteLength": 5094,
      "uri": "data:application/octet-stream;base64,"
    },
    {
      "byteLength": 12288,
      "uri": "data:application/octet-stream;base64,"
    },
    {
      "byteLength": 12288,
      "uri": "data:application/octet-stream;base64,"
    },
    {
      "byteLength": 12288,
      "uri": "data:application/octet-stream;base64,"
    }
  ],
  "bufferViews": [
    {
      "buffer": 0,
      "byteOffset": 0,
      "byteLength": 5094
    },
    {
      "buffer": 1,
      "byteOffset": 0,
      "byteLength": 12288
    },
    {
      "buffer": 2,
      "byteOffset": 0,
      "byteLength": 12288
    },
    {
      "buffer": 3,
      "byteOffset": 0,
      "byteLength": 12288
    }
  ],
  "meshes": [
    {
      "primitives": [
        {
          "mode": 4,
          "indices": 0,
          "attributes": {
            "POSITION": 1,
            "NORMAL": 2,
            "COLOR_0": 3
          }
        }
      ]
    }
  ],
  "nodes": [
    {
      "children": [
        1
      ]
    },
    {
      "mesh": 0
    }
  ],
  "scenes": [
    {
      "nodes": [
        0
      ]
    }
  ],
  "scene": 0
}