{
  "asset": {
    "version": "2.0",
    "generator": "COLLADA2GLTF"
  },
  "accessors": [
    {
      "bufferView": 0,
      "byteOffset": 0,
      "componentType": 5123,
      "count": 861,
      "min": [
        0
      ],
      "max": [
        316
      ],
      "type": "SCALAR"
    },
    {
      "bufferView": 1,
      "byteOffset": 0,
      "componentType": 5126,
      "count": 317,
      "max": [
        3045.9638671875,
        0,
        -1973.763427734375
      ],
      "min": [
        2588.759033203125,
        -3,
        -2199.03564453125
      ],
      "type": "VEC3"
    },
    {
      "bufferView": 2,
      "byteOffset": 0,
      "componentType": 5126,
      "count": 317,
      "max": [
        0.8168765306472778,
        1,
        0.8168765306472778
      ],
      "min": [
        -0.8168765306472778,
        0,
        -0.8168765306472778
      ],
      "type": "VEC3"
    },
    {
      "bufferView": 3,
      "byteOffset": 0,
      "componentType": 5126,
      "count": 317,
      "max": [
        0.21585412323474884,
        0.21585412323474884,
        0.21589989960193634
      ],
      "min": [
        0.21585412323474884,
        0.21585412323474884,
        0.21589989960193634
      ],
      "type": "VEC3"
    }
  ],
  "buffers": [
    {
      "byteLength": 1722,
      "uri": "data:application/octet-stream;base64,"
    },
    {
      "byteLength": 3804,
      "uri": "data:application/octet-stream;base64,"
    },
    {
      "byteLength": 3804,
      "uri": "data:application/octet-stream;base64,"
    },
    {
      "byteLength": 3804,
      "uri": "data:application/octet-stream;base64,"
    }
  ],
  "bufferViews": [
    {
      "buffer": 0,
      "byteOffset": 0,
      "byteLength": 1722
    },
    {
      "buffer": 1,
      "byteOffset": 0,
      "byteLength": 3804
    },
    {
      "buffer": 2,
      "byteOffset": 0,
      "byteLength": 3804
    },
    {
      "buffer": 3,
      "byteOffset": 0,
      "byteLength": 3804
    }
  ],
  "meshes": [
    {
      "primitives": [
        {
          "mode": 4,
          "indices": 0,
          "attributes": {
            "POSITION": 1,
            "NORMAL": 2,
            "COLOR_0": 3
          }
        }
      ]
    }
  ],
  "nodes": [
    {
      "children": [
        1
      ]
    },
    {
      "mesh": 0
    }
  ],
  "scenes": [
    {
      "nodes": [
        0
      ]
    }
  ],
  "scene": 0
}