{
  "asset": {
    "version": "2.0",
    "generator": "COLLADA2GLTF"
  },
  "accessors": [
    {
      "bufferView": 0,
      "byteOffset": 0,
      "componentType": 5123,
      "count": 3015,
      "min": [
        0
      ],
      "max": [
        1283
      ],
      "type": "SCALAR"
    },
    {
      "bufferView": 1,
      "byteOffset": 0,
      "componentType": 5126,
      "count": 1284,
      "max": [
        -1861.50732421875,
        14.5,
        143.0780029296875
      ],
      "min": [
        -2107.288818359375,
        9.28499984741211,
        -128.2043914794922
      ],
      "type": "VEC3"
    },
    {
      "bufferView": 2,
      "byteOffset": 0,
      "componentType": 5126,
      "count": 1284,
      "max": [
        0.7625472545623779,
        0.7064003944396973,
        0.7625472545623779
      ],
      "min": [
        -0.7625472545623779,
        -0.7057242393493652,
        -0.7625472545623779
      ],
      "type": "VEC3"
    },
    {
      "bufferView": 3,
      "byteOffset": 0,
      "componentType": 5126,
      "count": 1284,
      "max": [
        0.4480048716068268,
        0.4480048716068268,
        0.4480659067630768
      ],
      "min": [
        0,
        0,
        0
      ],
      "type": "VEC3"
    }
  ],
  "buffers": [
    {
      "byteLength": 6030,
      "uri": "data:application/octet-stream;base64,"
    },
    {
      "byteLength": 15408,
      "uri": "data:application/octet-stream;base64,"
    },
    {
      "byteLength": 15408,
      "uri": "data:application/octet-stream;base64,"
    },
    {
      "byteLength": 15408,
      "uri": "data:application/octet-stream;base64,"
    }
  ],
  "bufferViews": [
    {
      "buffer": 0,
      "byteOffset": 0,
      "byteLength": 6030
    },
    {
      "buffer": 1,
      "byteOffset": 0,
      "byteLength": 15408
    },
    {
      "buffer": 2,
      "byteOffset": 0,
      "byteLength": 15408
    },
    {
      "buffer": 3,
      "byteOffset": 0,
      "byteLength": 15408
    }
  ],
  "meshes": [
    {
      "primitives": [
        {
          "mode": 4,
          "indices": 0,
          "attributes": {
            "POSITION": 1,
            "NORMAL": 2,
            "COLOR_0": 3
          }
        }
      ]
    }
  ],
  "nodes": [
    {
      "children": [
        1
      ]
    },
    {
      "mesh": 0
    }
  ],
  "scenes": [
    {
      "nodes": [
        0
      ]
    }
  ],
  "scene": 0
}