{
  "asset": {
    "version": "2.0",
    "generator": "COLLADA2GLTF"
  },
  "accessors": [
    {
      "bufferView": 0,
      "byteOffset": 0,
      "componentType": 5123,
      "count": 3597,
      "min": [
        0
      ],
      "max": [
        1514
      ],
      "type": "SCALAR"
    },
    {
      "bufferView": 1,
      "byteOffset": 0,
      "componentType": 5126,
      "count": 1515,
      "max": [
        -265.1629943847656,
        7.5,
        1112.4119873046875
      ],
      "min": [
        -1495.5989990234375,
        0,
        -1585.677001953125
      ],
      "type": "VEC3"
    },
    {
      "bufferView": 2,
      "byteOffset": 0,
      "componentType": 5126,
      "count": 1515,
      "max": [
        0.9348746538162231,
        1,
        0.9253650903701782
      ],
      "min": [
        -0.9253819584846497,
        -1,
        -0.9346471428871155
      ],
      "type": "VEC3"
    },
    {
      "bufferView": 3,
      "byteOffset": 0,
      "componentType": 5126,
      "count": 1515,
      "max": [
        0.999786376953125,
        1,
        1
      ],
      "min": [
        0,
        0.00003051804378628731,
        0.00004577706567943096
      ],
      "type": "VEC3"
    }
  ],
  "buffers": [
    {
      "byteLength": 7194,
      "uri": "data:application/octet-stream;base64,"
    },
    {
      "byteLength": 18180,
      "uri": "data:application/octet-stream;base64,"
    },
    {
      "byteLength": 18180,
      "uri": "data:application/octet-stream;base64,"
    },
    {
      "byteLength": 18180,
      "uri": "data:application/octet-stream;base64,"
    }
  ],
  "bufferViews": [
    {
      "buffer": 0,
      "byteOffset": 0,
      "byteLength": 7194
    },
    {
      "buffer": 1,
      "byteOffset": 0,
      "byteLength": 18180
    },
    {
      "buffer": 2,
      "byteOffset": 0,
      "byteLength": 18180
    },
    {
      "buffer": 3,
      "byteOffset": 0,
      "byteLength": 18180
    }
  ],
  "meshes": [
    {
      "primitives": [
        {
          "mode": 4,
          "indices": 0,
          "attributes": {
            "POSITION": 1,
            "NORMAL": 2,
            "COLOR_0": 3
          }
        }
      ]
    }
  ],
  "nodes": [
    {
      "children": [
        1
      ]
    },
    {
      "mesh": 0
    }
  ],
  "scenes": [
    {
      "nodes": [
        0
      ]
    }
  ],
  "scene": 0
}