{
  "asset": {
    "version": "2.0",
    "generator": "COLLADA2GLTF"
  },
  "accessors": [
    {
      "bufferView": 0,
      "byteOffset": 0,
      "componentType": 5123,
      "count": 2880,
      "min": [
        0
      ],
      "max": [
        1047
      ],
      "type": "SCALAR"
    },
    {
      "bufferView": 1,
      "byteOffset": 0,
      "componentType": 5126,
      "count": 1048,
      "max": [
        -840,
        0.10000000149011612,
        -855.6005249023438
      ],
      "min": [
        -1127.2171630859375,
        0,
        -1094.8143310546875
      ],
      "type": "VEC3"
    },
    {
      "bufferView": 2,
      "byteOffset": 0,
      "componentType": 5126,
      "count": 1048,
      "max": [
        0.6510286331176758,
        1,
        0.7590531706809998
      ],
      "min": [
        -0.7590531706809998,
        -1,
        -0.7590531706809998
      ],
      "type": "VEC3"
    },
    {
      "bufferView": 3,
      "byteOffset": 0,
      "componentType": 5126,
      "count": 1048,
      "max": [
        0.7872740030288696,
        1,
        0.7875028848648071
      ],
      "min": [
        0.000015259021893143654,
        0.07324330508708954,
        0.00004577706567943096
      ],
      "type": "VEC3"
    }
  ],
  "buffers": [
    {
      "byteLength": 5760,
      "uri": "data:application/octet-stream;base64,"
    },
    {
      "byteLength": 12576,
      "uri": "data:application/octet-stream;base64,"
    },
    {
      "byteLength": 12576,
      "uri": "data:application/octet-stream;base64,"
    },
    {
      "byteLength": 12576,
      "uri": "data:application/octet-stream;base64,"
    }
  ],
  "bufferViews": [
    {
      "buffer": 0,
      "byteOffset": 0,
      "byteLength": 5760
    },
    {
      "buffer": 1,
      "byteOffset": 0,
      "byteLength": 12576
    },
    {
      "buffer": 2,
      "byteOffset": 0,
      "byteLength": 12576
    },
    {
      "buffer": 3,
      "byteOffset": 0,
      "byteLength": 12576
    }
  ],
  "meshes": [
    {
      "primitives": [
        {
          "mode": 4,
          "indices": 0,
          "attributes": {
            "POSITION": 1,
            "NORMAL": 2,
            "COLOR_0": 3
          }
        }
      ]
    }
  ],
  "nodes": [
    {
      "children": [
        1
      ]
    },
    {
      "mesh": 0
    }
  ],
  "scenes": [
    {
      "nodes": [
        0
      ]
    }
  ],
  "scene": 0
}