{
  "asset": {
    "version": "2.0",
    "generator": "COLLADA2GLTF"
  },
  "accessors": [
    {
      "bufferView": 0,
      "byteOffset": 0,
      "componentType": 5123,
      "count": 1905,
      "min": [
        0
      ],
      "max": [
        712
      ],
      "type": "SCALAR"
    },
    {
      "bufferView": 1,
      "byteOffset": 0,
      "componentType": 5126,
      "count": 713,
      "max": [
        -65.85663604736328,
        0,
        50.6627311706543
      ],
      "min": [
        -116.27344512939453,
        -3,
        -74.53121185302734
      ],
      "type": "VEC3"
    },
    {
      "bufferView": 2,
      "byteOffset": 0,
      "componentType": 5126,
      "count": 713,
      "max": [
        0.9800302386283875,
        1,
        0.9800215363502502
      ],
      "min": [
        -0.9800215363502502,
        -1,
        -0.9800215363502502
      ],
      "type": "VEC3"
    },
    {
      "bufferView": 3,
      "byteOffset": 0,
      "componentType": 5126,
      "count": 713,
      "max": [
        0.21585412323474884,
        0.21585412323474884,
        0.21589989960193634
      ],
      "min": [
        0.21585412323474884,
        0.21585412323474884,
        0.21589989960193634
      ],
      "type": "VEC3"
    }
  ],
  "buffers": [
    {
      "byteLength": 3810,
      "uri": "data:application/octet-stream;base64,"
    },
    {
      "byteLength": 8556,
      "uri": "data:application/octet-stream;base64,"
    },
    {
      "byteLength": 8556,
      "uri": "data:application/octet-stream;base64,"
    },
    {
      "byteLength": 8556,
      "uri": "data:application/octet-stream;base64,"
    }
  ],
  "bufferViews": [
    {
      "buffer": 0,
      "byteOffset": 0,
      "byteLength": 3810
    },
    {
      "buffer": 1,
      "byteOffset": 0,
      "byteLength": 8556
    },
    {
      "buffer": 2,
      "byteOffset": 0,
      "byteLength": 8556
    },
    {
      "buffer": 3,
      "byteOffset": 0,
      "byteLength": 8556
    }
  ],
  "meshes": [
    {
      "primitives": [
        {
          "mode": 4,
          "indices": 0,
          "attributes": {
            "POSITION": 1,
            "NORMAL": 2,
            "COLOR_0": 3
          }
        }
      ]
    }
  ],
  "nodes": [
    {
      "children": [
        1
      ]
    },
    {
      "mesh": 0
    }
  ],
  "scenes": [
    {
      "nodes": [
        0
      ]
    }
  ],
  "scene": 0
}