{
  "asset": {
    "version": "2.0",
    "generator": "COLLADA2GLTF"
  },
  "accessors": [
    {
      "bufferView": 0,
      "byteOffset": 0,
      "componentType": 5123,
      "count": 2505,
      "min": [
        0
      ],
      "max": [
        919
      ],
      "type": "SCALAR"
    },
    {
      "bufferView": 1,
      "byteOffset": 0,
      "componentType": 5126,
      "count": 920,
      "max": [
        -3209.52880859375,
        0.14777499437332153,
        1186.4078369140625
      ],
      "min": [
        -3325.829345703125,
        0,
        1138.8238525390625
      ],
      "type": "VEC3"
    },
    {
      "bufferView": 2,
      "byteOffset": 0,
      "componentType": 5126,
      "count": 920,
      "max": [
        0.9282659888267517,
        1,
        0.9282659888267517
      ],
      "min": [
        -0.9282659888267517,
        -0.9486833214759827,
        -0.9282659888267517
      ],
      "type": "VEC3"
    },
    {
      "bufferView": 3,
      "byteOffset": 0,
      "componentType": 5126,
      "count": 920,
      "max": [
        0.5774929523468018,
        1,
        0.5776455402374268
      ],
      "min": [
        0.000015259021893143654,
        0.03309682011604309,
        0.00004577706567943096
      ],
      "type": "VEC3"
    }
  ],
  "buffers": [
    {
      "byteLength": 5010,
      "uri": "data:application/octet-stream;base64,"
    },
    {
      "byteLength": 11040,
      "uri": "data:application/octet-stream;base64,"
    },
    {
      "byteLength": 11040,
      "uri": "data:application/octet-stream;base64,"
    },
    {
      "byteLength": 11040,
      "uri": "data:application/octet-stream;base64,"
    }
  ],
  "bufferViews": [
    {
      "buffer": 0,
      "byteOffset": 0,
      "byteLength": 5010
    },
    {
      "buffer": 1,
      "byteOffset": 0,
      "byteLength": 11040
    },
    {
      "buffer": 2,
      "byteOffset": 0,
      "byteLength": 11040
    },
    {
      "buffer": 3,
      "byteOffset": 0,
      "byteLength": 11040
    }
  ],
  "meshes": [
    {
      "primitives": [
        {
          "mode": 4,
          "indices": 0,
          "attributes": {
            "POSITION": 1,
            "NORMAL": 2,
            "COLOR_0": 3
          }
        }
      ]
    }
  ],
  "nodes": [
    {
      "children": [
        1
      ]
    },
    {
      "mesh": 0
    }
  ],
  "scenes": [
    {
      "nodes": [
        0
      ]
    }
  ],
  "scene": 0
}