{
  "asset": {
    "version": "2.0",
    "generator": "COLLADA2GLTF"
  },
  "accessors": [
    {
      "bufferView": 0,
      "byteOffset": 0,
      "componentType": 5123,
      "count": 3903,
      "min": [
        0
      ],
      "max": [
        1516
      ],
      "type": "SCALAR"
    },
    {
      "bufferView": 1,
      "byteOffset": 0,
      "componentType": 5126,
      "count": 1517,
      "max": [
        973.0781860351562,
        7.5,
        696.2229614257812
      ],
      "min": [
        690,
        0,
        120
      ],
      "type": "VEC3"
    },
    {
      "bufferView": 2,
      "byteOffset": 0,
      "componentType": 5126,
      "count": 1517,
      "max": [
        0.9302477836608887,
        1,
        1
      ],
      "min": [
        -0.941025972366333,
        0,
        -0.9301562905311584
      ],
      "type": "VEC3"
    },
    {
      "bufferView": 3,
      "byteOffset": 0,
      "componentType": 5126,
      "count": 1517,
      "max": [
        0.999847412109375,
        1,
        0.9999847412109375
      ],
      "min": [
        0.000015259021893143654,
        0.00003051804378628731,
        0
      ],
      "type": "VEC3"
    }
  ],
  "buffers": [
    {
      "byteLength": 7806,
      "uri": "data:application/octet-stream;base64,"
    },
    {
      "byteLength": 18204,
      "uri": "data:application/octet-stream;base64,"
    },
    {
      "byteLength": 18204,
      "uri": "data:application/octet-stream;base64,"
    },
    {
      "byteLength": 18204,
      "uri": "data:application/octet-stream;base64,"
    }
  ],
  "bufferViews": [
    {
      "buffer": 0,
      "byteOffset": 0,
      "byteLength": 7806
    },
    {
      "buffer": 1,
      "byteOffset": 0,
      "byteLength": 18204
    },
    {
      "buffer": 2,
      "byteOffset": 0,
      "byteLength": 18204
    },
    {
      "buffer": 3,
      "byteOffset": 0,
      "byteLength": 18204
    }
  ],
  "meshes": [
    {
      "primitives": [
        {
          "mode": 4,
          "indices": 0,
          "attributes": {
            "POSITION": 1,
            "NORMAL": 2,
            "COLOR_0": 3
          }
        }
      ]
    }
  ],
  "nodes": [
    {
      "children": [
        1
      ]
    },
    {
      "mesh": 0
    }
  ],
  "scenes": [
    {
      "nodes": [
        0
      ]
    }
  ],
  "scene": 0
}