{
  "asset": {
    "version": "2.0",
    "generator": "COLLADA2GLTF"
  },
  "accessors": [
    {
      "bufferView": 0,
      "byteOffset": 0,
      "componentType": 5123,
      "count": 72,
      "min": [
        0
      ],
      "max": [
        25
      ],
      "type": "SCALAR"
    },
    {
      "bufferView": 1,
      "byteOffset": 0,
      "componentType": 5126,
      "count": 26,
      "max": [
        1768.814208984375,
        0,
        -668.8325805664062
      ],
      "min": [
        1765.23388671875,
        -3,
        -671.9158935546875
      ],
      "type": "VEC3"
    },
    {
      "bufferView": 2,
      "byteOffset": 0,
      "componentType": 5126,
      "count": 26,
      "max": [
        0.8035705089569092,
        1,
        0.8035705089569092
      ],
      "min": [
        -0.8035705089569092,
        0,
        -0.8035705089569092
      ],
      "type": "VEC3"
    },
    {
      "bufferView": 3,
      "byteOffset": 0,
      "componentType": 5126,
      "count": 26,
      "max": [
        0.21585412323474884,
        0.21585412323474884,
        0.21589989960193634
      ],
      "min": [
        0.21585412323474884,
        0.21585412323474884,
        0.21589989960193634
      ],
      "type": "VEC3"
    }
  ],
  "buffers": [
    {
      "byteLength": 144,
      "uri": "data:application/octet-stream;base64,"
    },
    {
      "byteLength": 312,
      "uri": "data:application/octet-stream;base64,"
    },
    {
      "byteLength": 312,
      "uri": "data:application/octet-stream;base64,"
    },
    {
      "byteLength": 312,
      "uri": "data:application/octet-stream;base64,"
    }
  ],
  "bufferViews": [
    {
      "buffer": 0,
      "byteOffset": 0,
      "byteLength": 144
    },
    {
      "buffer": 1,
      "byteOffset": 0,
      "byteLength": 312
    },
    {
      "buffer": 2,
      "byteOffset": 0,
      "byteLength": 312
    },
    {
      "buffer": 3,
      "byteOffset": 0,
      "byteLength": 312
    }
  ],
  "meshes": [
    {
      "primitives": [
        {
          "mode": 4,
          "indices": 0,
          "attributes": {
            "POSITION": 1,
            "NORMAL": 2,
            "COLOR_0": 3
          }
        }
      ]
    }
  ],
  "nodes": [
    {
      "children": [
        1
      ]
    },
    {
      "mesh": 0
    }
  ],
  "scenes": [
    {
      "nodes": [
        0
      ]
    }
  ],
  "scene": 0
}