{
  "asset": {
    "version": "2.0",
    "generator": "COLLADA2GLTF"
  },
  "accessors": [
    {
      "bufferView": 0,
      "byteOffset": 0,
      "componentType": 5123,
      "count": 2229,
      "min": [
        0
      ],
      "max": [
        765
      ],
      "type": "SCALAR"
    },
    {
      "bufferView": 1,
      "byteOffset": 0,
      "componentType": 5126,
      "count": 766,
      "max": [
        2083.763916015625,
        0.06400000303983688,
        3317.470947265625
      ],
      "min": [
        2059.87109375,
        0,
        3307.89794921875
      ],
      "type": "VEC3"
    },
    {
      "bufferView": 2,
      "byteOffset": 0,
      "componentType": 5126,
      "count": 766,
      "max": [
        0.937562882900238,
        1,
        0.937562882900238
      ],
      "min": [
        -0.937562882900238,
        0,
        -0.937562882900238
      ],
      "type": "VEC3"
    },
    {
      "bufferView": 3,
      "byteOffset": 0,
      "componentType": 5126,
      "count": 766,
      "max": [
        0.07322804629802704,
        0.03309682011604309,
        0.03311207890510559
      ],
      "min": [
        0.07322804629802704,
        0.03309682011604309,
        0.03311207890510559
      ],
      "type": "VEC3"
    }
  ],
  "buffers": [
    {
      "byteLength": 4458,
      "uri": "data:application/octet-stream;base64,"
    },
    {
      "byteLength": 9192,
      "uri": "data:application/octet-stream;base64,"
    },
    {
      "byteLength": 9192,
      "uri": "data:application/octet-stream;base64,"
    },
    {
      "byteLength": 9192,
      "uri": "data:application/octet-stream;base64,"
    }
  ],
  "bufferViews": [
    {
      "buffer": 0,
      "byteOffset": 0,
      "byteLength": 4458
    },
    {
      "buffer": 1,
      "byteOffset": 0,
      "byteLength": 9192
    },
    {
      "buffer": 2,
      "byteOffset": 0,
      "byteLength": 9192
    },
    {
      "buffer": 3,
      "byteOffset": 0,
      "byteLength": 9192
    }
  ],
  "meshes": [
    {
      "primitives": [
        {
          "mode": 4,
          "indices": 0,
          "attributes": {
            "POSITION": 1,
            "NORMAL": 2,
            "COLOR_0": 3
          }
        }
      ]
    }
  ],
  "nodes": [
    {
      "children": [
        1
      ]
    },
    {
      "mesh": 0
    }
  ],
  "scenes": [
    {
      "nodes": [
        0
      ]
    }
  ],
  "scene": 0
}