{
  "asset": {
    "version": "2.0",
    "generator": "COLLADA2GLTF"
  },
  "accessors": [
    {
      "bufferView": 0,
      "byteOffset": 0,
      "componentType": 5123,
      "count": 633,
      "min": [
        0
      ],
      "max": [
        301
      ],
      "type": "SCALAR"
    },
    {
      "bufferView": 1,
      "byteOffset": 0,
      "componentType": 5126,
      "count": 302,
      "max": [
        97.70664978027344,
        0.11999999731779099,
        135.31900024414062
      ],
      "min": [
        -93.97075653076172,
        0,
        -12.815112113952637
      ],
      "type": "VEC3"
    },
    {
      "bufferView": 2,
      "byteOffset": 0,
      "componentType": 5126,
      "count": 302,
      "max": [
        0.772330641746521,
        1,
        0.7722192406654358
      ],
      "min": [
        -0.772330641746521,
        0,
        -0.7739946842193604
      ],
      "type": "VEC3"
    },
    {
      "bufferView": 3,
      "byteOffset": 0,
      "componentType": 5126,
      "count": 302,
      "max": [
        0.999786376953125,
        1,
        0.7875028848648071
      ],
      "min": [
        0.000015259021893143654,
        0.07324330508708954,
        0.00004577706567943096
      ],
      "type": "VEC3"
    }
  ],
  "buffers": [
    {
      "byteLength": 1266,
      "uri": "data:application/octet-stream;base64,"
    },
    {
      "byteLength": 3624,
      "uri": "data:application/octet-stream;base64,"
    },
    {
      "byteLength": 3624,
      "uri": "data:application/octet-stream;base64,"
    },
    {
      "byteLength": 3624,
      "uri": "data:application/octet-stream;base64,"
    }
  ],
  "bufferViews": [
    {
      "buffer": 0,
      "byteOffset": 0,
      "byteLength": 1266
    },
    {
      "buffer": 1,
      "byteOffset": 0,
      "byteLength": 3624
    },
    {
      "buffer": 2,
      "byteOffset": 0,
      "byteLength": 3624
    },
    {
      "buffer": 3,
      "byteOffset": 0,
      "byteLength": 3624
    }
  ],
  "meshes": [
    {
      "primitives": [
        {
          "mode": 4,
          "indices": 0,
          "attributes": {
            "POSITION": 1,
            "NORMAL": 2,
            "COLOR_0": 3
          }
        }
      ]
    }
  ],
  "nodes": [
    {
      "children": [
        1
      ]
    },
    {
      "mesh": 0
    }
  ],
  "scenes": [
    {
      "nodes": [
        0
      ]
    }
  ],
  "scene": 0
}