{
  "asset": {
    "version": "2.0",
    "generator": "COLLADA2GLTF"
  },
  "accessors": [
    {
      "bufferView": 0,
      "byteOffset": 0,
      "componentType": 5123,
      "count": 4107,
      "min": [
        0
      ],
      "max": [
        1436
      ],
      "type": "SCALAR"
    },
    {
      "bufferView": 1,
      "byteOffset": 0,
      "componentType": 5126,
      "count": 1437,
      "max": [
        -2610.3427734375,
        0.14777499437332153,
        1451.515380859375
      ],
      "min": [
        -2894.551513671875,
        0,
        1312.4852294921875
      ],
      "type": "VEC3"
    },
    {
      "bufferView": 2,
      "byteOffset": 0,
      "componentType": 5126,
      "count": 1437,
      "max": [
        0.830656886100769,
        1,
        0.830656886100769
      ],
      "min": [
        -0.830656886100769,
        -0.9486833214759827,
        -0.830656886100769
      ],
      "type": "VEC3"
    },
    {
      "bufferView": 3,
      "byteOffset": 0,
      "componentType": 5126,
      "count": 1437,
      "max": [
        0.7872740030288696,
        1,
        0.7875028848648071
      ],
      "min": [
        0.000015259021893143654,
        0.000015259021893143654,
        0
      ],
      "type": "VEC3"
    }
  ],
  "buffers": [
    {
      "byteLength": 8214,
      "uri": "data:application/octet-stream;base64,"
    },
    {
      "byteLength": 17244,
      "uri": "data:application/octet-stream;base64,"
    },
    {
      "byteLength": 17244,
      "uri": "data:application/octet-stream;base64,"
    },
    {
      "byteLength": 17244,
      "uri": "data:application/octet-stream;base64,"
    }
  ],
  "bufferViews": [
    {
      "buffer": 0,
      "byteOffset": 0,
      "byteLength": 8214
    },
    {
      "buffer": 1,
      "byteOffset": 0,
      "byteLength": 17244
    },
    {
      "buffer": 2,
      "byteOffset": 0,
      "byteLength": 17244
    },
    {
      "buffer": 3,
      "byteOffset": 0,
      "byteLength": 17244
    }
  ],
  "meshes": [
    {
      "primitives": [
        {
          "mode": 4,
          "indices": 0,
          "attributes": {
            "POSITION": 1,
            "NORMAL": 2,
            "COLOR_0": 3
          }
        }
      ]
    }
  ],
  "nodes": [
    {
      "children": [
        1
      ]
    },
    {
      "mesh": 0
    }
  ],
  "scenes": [
    {
      "nodes": [
        0
      ]
    }
  ],
  "scene": 0
}