{
  "asset": {
    "version": "2.0",
    "generator": "COLLADA2GLTF"
  },
  "accessors": [
    {
      "bufferView": 0,
      "byteOffset": 0,
      "componentType": 5123,
      "count": 1956,
      "min": [
        0
      ],
      "max": [
        829
      ],
      "type": "SCALAR"
    },
    {
      "bufferView": 1,
      "byteOffset": 0,
      "componentType": 5126,
      "count": 830,
      "max": [
        213.35768127441406,
        0.0010000000474974513,
        133.71600341796875
      ],
      "min": [
        -34.79399871826172,
        -0.20000000298023224,
        -390
      ],
      "type": "VEC3"
    },
    {
      "bufferView": 2,
      "byteOffset": 0,
      "componentType": 5126,
      "count": 830,
      "max": [
        0.9506328701972961,
        1,
        0.9506306052207947
      ],
      "min": [
        -0.9506306052207947,
        -1,
        -0.9465979337692261
      ],
      "type": "VEC3"
    },
    {
      "bufferView": 3,
      "byteOffset": 0,
      "componentType": 5126,
      "count": 830,
      "max": [
        0.999786376953125,
        1,
        1
      ],
      "min": [
        0,
        0.00003051804378628731,
        0.00004577706567943096
      ],
      "type": "VEC3"
    }
  ],
  "buffers": [
    {
      "byteLength": 3912,
      "uri": "data:application/octet-stream;base64,"
    },
    {
      "byteLength": 9960,
      "uri": "data:application/octet-stream;base64,"
    },
    {
      "byteLength": 9960,
      "uri": "data:application/octet-stream;base64,"
    },
    {
      "byteLength": 9960,
      "uri": "data:application/octet-stream;base64,"
    }
  ],
  "bufferViews": [
    {
      "buffer": 0,
      "byteOffset": 0,
      "byteLength": 3912
    },
    {
      "buffer": 1,
      "byteOffset": 0,
      "byteLength": 9960
    },
    {
      "buffer": 2,
      "byteOffset": 0,
      "byteLength": 9960
    },
    {
      "buffer": 3,
      "byteOffset": 0,
      "byteLength": 9960
    }
  ],
  "meshes": [
    {
      "primitives": [
        {
          "mode": 4,
          "indices": 0,
          "attributes": {
            "POSITION": 1,
            "NORMAL": 2,
            "COLOR_0": 3
          }
        }
      ]
    }
  ],
  "nodes": [
    {
      "children": [
        1
      ]
    },
    {
      "mesh": 0
    }
  ],
  "scenes": [
    {
      "nodes": [
        0
      ]
    }
  ],
  "scene": 0
}