{
  "asset": {
    "version": "2.0",
    "generator": "COLLADA2GLTF"
  },
  "accessors": [
    {
      "bufferView": 0,
      "byteOffset": 0,
      "componentType": 5123,
      "count": 474,
      "min": [
        0
      ],
      "max": [
        266
      ],
      "type": "SCALAR"
    },
    {
      "bufferView": 1,
      "byteOffset": 0,
      "componentType": 5126,
      "count": 267,
      "max": [
        -377.2340087890625,
        7.5,
        19.826000213623047
      ],
      "min": [
        -479.4739990234375,
        0,
        -246.64100646972656
      ],
      "type": "VEC3"
    },
    {
      "bufferView": 2,
      "byteOffset": 0,
      "componentType": 5126,
      "count": 267,
      "max": [
        0.9996707439422607,
        0,
        0.9996231198310852
      ],
      "min": [
        -0.999646008014679,
        0,
        -0.9996297359466553
      ],
      "type": "VEC3"
    },
    {
      "bufferView": 3,
      "byteOffset": 0,
      "componentType": 5126,
      "count": 267,
      "max": [
        0.999786376953125,
        0.7875181436538696,
        0.26330968737602234
      ],
      "min": [
        0.999786376953125,
        0.7875181436538696,
        0.26330968737602234
      ],
      "type": "VEC3"
    }
  ],
  "buffers": [
    {
      "byteLength": 948,
      "uri": "data:application/octet-stream;base64,"
    },
    {
      "byteLength": 3204,
      "uri": "data:application/octet-stream;base64,"
    },
    {
      "byteLength": 3204,
      "uri": "data:application/octet-stream;base64,"
    },
    {
      "byteLength": 3204,
      "uri": "data:application/octet-stream;base64,"
    }
  ],
  "bufferViews": [
    {
      "buffer": 0,
      "byteOffset": 0,
      "byteLength": 948
    },
    {
      "buffer": 1,
      "byteOffset": 0,
      "byteLength": 3204
    },
    {
      "buffer": 2,
      "byteOffset": 0,
      "byteLength": 3204
    },
    {
      "buffer": 3,
      "byteOffset": 0,
      "byteLength": 3204
    }
  ],
  "meshes": [
    {
      "primitives": [
        {
          "mode": 4,
          "indices": 0,
          "attributes": {
            "POSITION": 1,
            "NORMAL": 2,
            "COLOR_0": 3
          }
        }
      ]
    }
  ],
  "nodes": [
    {
      "children": [
        1
      ]
    },
    {
      "mesh": 0
    }
  ],
  "scenes": [
    {
      "nodes": [
        0
      ]
    }
  ],
  "scene": 0
}