{
  "asset": {
    "version": "2.0",
    "generator": "COLLADA2GLTF"
  },
  "accessors": [
    {
      "bufferView": 0,
      "byteOffset": 0,
      "componentType": 5123,
      "count": 708,
      "min": [
        0
      ],
      "max": [
        318
      ],
      "type": "SCALAR"
    },
    {
      "bufferView": 1,
      "byteOffset": 0,
      "componentType": 5126,
      "count": 319,
      "max": [
        257.67144775390625,
        0.0010000000474974513,
        -1524.95654296875
      ],
      "min": [
        50.363563537597656,
        0,
        -1696.0216064453125
      ],
      "type": "VEC3"
    },
    {
      "bufferView": 2,
      "byteOffset": 0,
      "componentType": 5126,
      "count": 319,
      "max": [
        0.8145526051521301,
        1,
        0.8384870886802673
      ],
      "min": [
        -0.8419127464294434,
        0,
        -0.8331231474876404
      ],
      "type": "VEC3"
    },
    {
      "bufferView": 3,
      "byteOffset": 0,
      "componentType": 5126,
      "count": 319,
      "max": [
        0.999786376953125,
        1,
        0.7875028848648071
      ],
      "min": [
        0.000015259021893143654,
        0.07324330508708954,
        0.00004577706567943096
      ],
      "type": "VEC3"
    }
  ],
  "buffers": [
    {
      "byteLength": 1416,
      "uri": "data:application/octet-stream;base64,"
    },
    {
      "byteLength": 3828,
      "uri": "data:application/octet-stream;base64,"
    },
    {
      "byteLength": 3828,
      "uri": "data:application/octet-stream;base64,"
    },
    {
      "byteLength": 3828,
      "uri": "data:application/octet-stream;base64,"
    }
  ],
  "bufferViews": [
    {
      "buffer": 0,
      "byteOffset": 0,
      "byteLength": 1416
    },
    {
      "buffer": 1,
      "byteOffset": 0,
      "byteLength": 3828
    },
    {
      "buffer": 2,
      "byteOffset": 0,
      "byteLength": 3828
    },
    {
      "buffer": 3,
      "byteOffset": 0,
      "byteLength": 3828
    }
  ],
  "meshes": [
    {
      "primitives": [
        {
          "mode": 4,
          "indices": 0,
          "attributes": {
            "POSITION": 1,
            "NORMAL": 2,
            "COLOR_0": 3
          }
        }
      ]
    }
  ],
  "nodes": [
    {
      "children": [
        1
      ]
    },
    {
      "mesh": 0
    }
  ],
  "scenes": [
    {
      "nodes": [
        0
      ]
    }
  ],
  "scene": 0
}