{
  "asset": {
    "version": "2.0",
    "generator": "COLLADA2GLTF"
  },
  "accessors": [
    {
      "bufferView": 0,
      "byteOffset": 0,
      "componentType": 5123,
      "count": 1566,
      "min": [
        0
      ],
      "max": [
        713
      ],
      "type": "SCALAR"
    },
    {
      "bufferView": 1,
      "byteOffset": 0,
      "componentType": 5126,
      "count": 714,
      "max": [
        -3208.941650390625,
        0.11999999731779099,
        1473.8489990234375
      ],
      "min": [
        -3509.433349609375,
        0,
        1251.6529541015625
      ],
      "type": "VEC3"
    },
    {
      "bufferView": 2,
      "byteOffset": 0,
      "componentType": 5126,
      "count": 714,
      "max": [
        0.8629734516143799,
        1,
        0.8672298192977905
      ],
      "min": [
        -0.8629734516143799,
        0,
        -0.8520827293395996
      ],
      "type": "VEC3"
    },
    {
      "bufferView": 3,
      "byteOffset": 0,
      "componentType": 5126,
      "count": 714,
      "max": [
        0.999786376953125,
        1,
        1
      ],
      "min": [
        0,
        0.00003051804378628731,
        0.00004577706567943096
      ],
      "type": "VEC3"
    }
  ],
  "buffers": [
    {
      "byteLength": 3132,
      "uri": "data:application/octet-stream;base64,"
    },
    {
      "byteLength": 8568,
      "uri": "data:application/octet-stream;base64,"
    },
    {
      "byteLength": 8568,
      "uri": "data:application/octet-stream;base64,"
    },
    {
      "byteLength": 8568,
      "uri": "data:application/octet-stream;base64,"
    }
  ],
  "bufferViews": [
    {
      "buffer": 0,
      "byteOffset": 0,
      "byteLength": 3132
    },
    {
      "buffer": 1,
      "byteOffset": 0,
      "byteLength": 8568
    },
    {
      "buffer": 2,
      "byteOffset": 0,
      "byteLength": 8568
    },
    {
      "buffer": 3,
      "byteOffset": 0,
      "byteLength": 8568
    }
  ],
  "meshes": [
    {
      "primitives": [
        {
          "mode": 4,
          "indices": 0,
          "attributes": {
            "POSITION": 1,
            "NORMAL": 2,
            "COLOR_0": 3
          }
        }
      ]
    }
  ],
  "nodes": [
    {
      "children": [
        1
      ]
    },
    {
      "mesh": 0
    }
  ],
  "scenes": [
    {
      "nodes": [
        0
      ]
    }
  ],
  "scene": 0
}