{
  "asset": {
    "version": "2.0",
    "generator": "COLLADA2GLTF"
  },
  "accessors": [
    {
      "bufferView": 0,
      "byteOffset": 0,
      "componentType": 5123,
      "count": 1806,
      "min": [
        0
      ],
      "max": [
        805
      ],
      "type": "SCALAR"
    },
    {
      "bufferView": 1,
      "byteOffset": 0,
      "componentType": 5126,
      "count": 806,
      "max": [
        -356.3240051269531,
        0.0010000000474974513,
        1605.2049560546875
      ],
      "min": [
        -1706.5679931640625,
        0,
        -2171.962890625
      ],
      "type": "VEC3"
    },
    {
      "bufferView": 2,
      "byteOffset": 0,
      "componentType": 5126,
      "count": 806,
      "max": [
        0.8270400762557983,
        1,
        0.8277897834777832
      ],
      "min": [
        -0.8275089859962463,
        0,
        -0.8285492062568665
      ],
      "type": "VEC3"
    },
    {
      "bufferView": 3,
      "byteOffset": 0,
      "componentType": 5126,
      "count": 806,
      "max": [
        0.999786376953125,
        1,
        1
      ],
      "min": [
        0,
        0.00003051804378628731,
        0.00004577706567943096
      ],
      "type": "VEC3"
    }
  ],
  "buffers": [
    {
      "byteLength": 3612,
      "uri": "data:application/octet-stream;base64,"
    },
    {
      "byteLength": 9672,
      "uri": "data:application/octet-stream;base64,"
    },
    {
      "byteLength": 9672,
      "uri": "data:application/octet-stream;base64,"
    },
    {
      "byteLength": 9672,
      "uri": "data:application/octet-stream;base64,"
    }
  ],
  "bufferViews": [
    {
      "buffer": 0,
      "byteOffset": 0,
      "byteLength": 3612
    },
    {
      "buffer": 1,
      "byteOffset": 0,
      "byteLength": 9672
    },
    {
      "buffer": 2,
      "byteOffset": 0,
      "byteLength": 9672
    },
    {
      "buffer": 3,
      "byteOffset": 0,
      "byteLength": 9672
    }
  ],
  "meshes": [
    {
      "primitives": [
        {
          "mode": 4,
          "indices": 0,
          "attributes": {
            "POSITION": 1,
            "NORMAL": 2,
            "COLOR_0": 3
          }
        }
      ]
    }
  ],
  "nodes": [
    {
      "children": [
        1
      ]
    },
    {
      "mesh": 0
    }
  ],
  "scenes": [
    {
      "nodes": [
        0
      ]
    }
  ],
  "scene": 0
}