{
  "asset": {
    "version": "2.0",
    "generator": "COLLADA2GLTF"
  },
  "accessors": [
    {
      "bufferView": 0,
      "byteOffset": 0,
      "componentType": 5123,
      "count": 171,
      "min": [
        0
      ],
      "max": [
        68
      ],
      "type": "SCALAR"
    },
    {
      "bufferView": 1,
      "byteOffset": 0,
      "componentType": 5126,
      "count": 69,
      "max": [
        -64.00448608398438,
        0,
        291.9491271972656
      ],
      "min": [
        -136.54193115234375,
        -3,
        235.1697998046875
      ],
      "type": "VEC3"
    },
    {
      "bufferView": 2,
      "byteOffset": 0,
      "componentType": 5126,
      "count": 69,
      "max": [
        0.8130469918251038,
        1,
        0.8130470514297485
      ],
      "min": [
        -0.8156347274780273,
        0,
        -0.8156347274780273
      ],
      "type": "VEC3"
    },
    {
      "bufferView": 3,
      "byteOffset": 0,
      "componentType": 5126,
      "count": 69,
      "max": [
        0.21585412323474884,
        0.21585412323474884,
        0.21589989960193634
      ],
      "min": [
        0.21585412323474884,
        0.21585412323474884,
        0.21589989960193634
      ],
      "type": "VEC3"
    }
  ],
  "buffers": [
    {
      "byteLength": 342,
      "uri": "data:application/octet-stream;base64,"
    },
    {
      "byteLength": 828,
      "uri": "data:application/octet-stream;base64,"
    },
    {
      "byteLength": 828,
      "uri": "data:application/octet-stream;base64,"
    },
    {
      "byteLength": 828,
      "uri": "data:application/octet-stream;base64,"
    }
  ],
  "bufferViews": [
    {
      "buffer": 0,
      "byteOffset": 0,
      "byteLength": 342
    },
    {
      "buffer": 1,
      "byteOffset": 0,
      "byteLength": 828
    },
    {
      "buffer": 2,
      "byteOffset": 0,
      "byteLength": 828
    },
    {
      "buffer": 3,
      "byteOffset": 0,
      "byteLength": 828
    }
  ],
  "meshes": [
    {
      "primitives": [
        {
          "mode": 4,
          "indices": 0,
          "attributes": {
            "POSITION": 1,
            "NORMAL": 2,
            "COLOR_0": 3
          }
        }
      ]
    }
  ],
  "nodes": [
    {
      "children": [
        1
      ]
    },
    {
      "mesh": 0
    }
  ],
  "scenes": [
    {
      "nodes": [
        0
      ]
    }
  ],
  "scene": 0
}