{
  "asset": {
    "version": "2.0",
    "generator": "COLLADA2GLTF"
  },
  "accessors": [
    {
      "bufferView": 0,
      "byteOffset": 0,
      "componentType": 5123,
      "count": 3408,
      "min": [
        0
      ],
      "max": [
        1176
      ],
      "type": "SCALAR"
    },
    {
      "bufferView": 1,
      "byteOffset": 0,
      "componentType": 5126,
      "count": 1177,
      "max": [
        -3454.284423828125,
        12,
        140.8473663330078
      ],
      "min": [
        -3679.77490234375,
        7,
        24.71320152282715
      ],
      "type": "VEC3"
    },
    {
      "bufferView": 2,
      "byteOffset": 0,
      "componentType": 5126,
      "count": 1177,
      "max": [
        0.9180713295936584,
        0.707061231136322,
        0.9180713295936584
      ],
      "min": [
        -0.9180713295936584,
        -0.707061231136322,
        -0.9180713295936584
      ],
      "type": "VEC3"
    },
    {
      "bufferView": 3,
      "byteOffset": 0,
      "componentType": 5126,
      "count": 1177,
      "max": [
        0.4480048716068268,
        0.4480048716068268,
        0.4480659067630768
      ],
      "min": [
        0,
        0,
        0
      ],
      "type": "VEC3"
    }
  ],
  "buffers": [
    {
      "byteLength": 6816,
      "uri": "data:application/octet-stream;base64,"
    },
    {
      "byteLength": 14124,
      "uri": "data:application/octet-stream;base64,"
    },
    {
      "byteLength": 14124,
      "uri": "data:application/octet-stream;base64,"
    },
    {
      "byteLength": 14124,
      "uri": "data:application/octet-stream;base64,"
    }
  ],
  "bufferViews": [
    {
      "buffer": 0,
      "byteOffset": 0,
      "byteLength": 6816
    },
    {
      "buffer": 1,
      "byteOffset": 0,
      "byteLength": 14124
    },
    {
      "buffer": 2,
      "byteOffset": 0,
      "byteLength": 14124
    },
    {
      "buffer": 3,
      "byteOffset": 0,
      "byteLength": 14124
    }
  ],
  "meshes": [
    {
      "primitives": [
        {
          "mode": 4,
          "indices": 0,
          "attributes": {
            "POSITION": 1,
            "NORMAL": 2,
            "COLOR_0": 3
          }
        }
      ]
    }
  ],
  "nodes": [
    {
      "children": [
        1
      ]
    },
    {
      "mesh": 0
    }
  ],
  "scenes": [
    {
      "nodes": [
        0
      ]
    }
  ],
  "scene": 0
}