{
  "asset": {
    "version": "2.0",
    "generator": "COLLADA2GLTF"
  },
  "accessors": [
    {
      "bufferView": 0,
      "byteOffset": 0,
      "componentType": 5123,
      "count": 4086,
      "min": [
        0
      ],
      "max": [
        1387
      ],
      "type": "SCALAR"
    },
    {
      "bufferView": 1,
      "byteOffset": 0,
      "componentType": 5126,
      "count": 1388,
      "max": [
        1160.317626953125,
        0.06400000303983688,
        2994.677978515625
      ],
      "min": [
        1119.75,
        0,
        2979.7373046875
      ],
      "type": "VEC3"
    },
    {
      "bufferView": 2,
      "byteOffset": 0,
      "componentType": 5126,
      "count": 1388,
      "max": [
        0.9474396705627441,
        1,
        0.9474396705627441
      ],
      "min": [
        -0.9474396705627441,
        0,
        -0.9474396705627441
      ],
      "type": "VEC3"
    },
    {
      "bufferView": 3,
      "byteOffset": 0,
      "componentType": 5126,
      "count": 1388,
      "max": [
        0.07322804629802704,
        0.03309682011604309,
        0.03311207890510559
      ],
      "min": [
        0.07322804629802704,
        0.03309682011604309,
        0.03311207890510559
      ],
      "type": "VEC3"
    }
  ],
  "buffers": [
    {
      "byteLength": 8172,
      "uri": "data:application/octet-stream;base64,"
    },
    {
      "byteLength": 16656,
      "uri": "data:application/octet-stream;base64,"
    },
    {
      "byteLength": 16656,
      "uri": "data:application/octet-stream;base64,"
    },
    {
      "byteLength": 16656,
      "uri": "data:application/octet-stream;base64,"
    }
  ],
  "bufferViews": [
    {
      "buffer": 0,
      "byteOffset": 0,
      "byteLength": 8172
    },
    {
      "buffer": 1,
      "byteOffset": 0,
      "byteLength": 16656
    },
    {
      "buffer": 2,
      "byteOffset": 0,
      "byteLength": 16656
    },
    {
      "buffer": 3,
      "byteOffset": 0,
      "byteLength": 16656
    }
  ],
  "meshes": [
    {
      "primitives": [
        {
          "mode": 4,
          "indices": 0,
          "attributes": {
            "POSITION": 1,
            "NORMAL": 2,
            "COLOR_0": 3
          }
        }
      ]
    }
  ],
  "nodes": [
    {
      "children": [
        1
      ]
    },
    {
      "mesh": 0
    }
  ],
  "scenes": [
    {
      "nodes": [
        0
      ]
    }
  ],
  "scene": 0
}