{
  "asset": {
    "version": "2.0",
    "generator": "COLLADA2GLTF"
  },
  "accessors": [
    {
      "bufferView": 0,
      "byteOffset": 0,
      "componentType": 5123,
      "count": 1884,
      "min": [
        0
      ],
      "max": [
        1051
      ],
      "type": "SCALAR"
    },
    {
      "bufferView": 1,
      "byteOffset": 0,
      "componentType": 5126,
      "count": 1052,
      "max": [
        -4036.781005859375,
        13.5,
        1996.8397216796875
      ],
      "min": [
        -4154.0439453125,
        -0.5,
        1993.614013671875
      ],
      "type": "VEC3"
    },
    {
      "bufferView": 2,
      "byteOffset": 0,
      "componentType": 5126,
      "count": 1052,
      "max": [
        0.9997288584709167,
        1,
        0.9998407363891602
      ],
      "min": [
        -0.9997288584709167,
        -1,
        -0.9993932247161865
      ],
      "type": "VEC3"
    },
    {
      "bufferView": 3,
      "byteOffset": 0,
      "componentType": 5126,
      "count": 1052,
      "max": [
        0.5774929523468018,
        0.5776150226593018,
        0.5776455402374268
      ],
      "min": [
        0.5774929523468018,
        0.5776150226593018,
        0.5776455402374268
      ],
      "type": "VEC3"
    }
  ],
  "buffers": [
    {
      "byteLength": 3768,
      "uri": "data:application/octet-stream;base64,"
    },
    {
      "byteLength": 12624,
      "uri": "data:application/octet-stream;base64,"
    },
    {
      "byteLength": 12624,
      "uri": "data:application/octet-stream;base64,"
    },
    {
      "byteLength": 12624,
      "uri": "data:application/octet-stream;base64,"
    }
  ],
  "bufferViews": [
    {
      "buffer": 0,
      "byteOffset": 0,
      "byteLength": 3768
    },
    {
      "buffer": 1,
      "byteOffset": 0,
      "byteLength": 12624
    },
    {
      "buffer": 2,
      "byteOffset": 0,
      "byteLength": 12624
    },
    {
      "buffer": 3,
      "byteOffset": 0,
      "byteLength": 12624
    }
  ],
  "meshes": [
    {
      "primitives": [
        {
          "mode": 4,
          "indices": 0,
          "attributes": {
            "POSITION": 1,
            "NORMAL": 2,
            "COLOR_0": 3
          }
        }
      ]
    }
  ],
  "nodes": [
    {
      "children": [
        1
      ]
    },
    {
      "mesh": 0
    }
  ],
  "scenes": [
    {
      "nodes": [
        0
      ]
    }
  ],
  "scene": 0
}