{
  "asset": {
    "version": "2.0",
    "generator": "COLLADA2GLTF"
  },
  "accessors": [
    {
      "bufferView": 0,
      "byteOffset": 0,
      "componentType": 5123,
      "count": 5325,
      "min": [
        0
      ],
      "max": [
        2261
      ],
      "type": "SCALAR"
    },
    {
      "bufferView": 1,
      "byteOffset": 0,
      "componentType": 5126,
      "count": 2262,
      "max": [
        -1380,
        7.5,
        420
      ],
      "min": [
        -1744.0540771484375,
        0,
        -178.9738311767578
      ],
      "type": "VEC3"
    },
    {
      "bufferView": 2,
      "byteOffset": 0,
      "componentType": 5126,
      "count": 2262,
      "max": [
        0.9901955723762512,
        1,
        0.991104245185852
      ],
      "min": [
        -0.9997923374176025,
        -1,
        -0.9969807863235474
      ],
      "type": "VEC3"
    },
    {
      "bufferView": 3,
      "byteOffset": 0,
      "componentType": 5126,
      "count": 2262,
      "max": [
        0.999786376953125,
        1,
        0.7875028848648071
      ],
      "min": [
        0.000015259021893143654,
        0.07324330508708954,
        0.00004577706567943096
      ],
      "type": "VEC3"
    }
  ],
  "buffers": [
    {
      "byteLength": 10650,
      "uri": "data:application/octet-stream;base64,"
    },
    {
      "byteLength": 27144,
      "uri": "data:application/octet-stream;base64,"
    },
    {
      "byteLength": 27144,
      "uri": "data:application/octet-stream;base64,"
    },
    {
      "byteLength": 27144,
      "uri": "data:application/octet-stream;base64,"
    }
  ],
  "bufferViews": [
    {
      "buffer": 0,
      "byteOffset": 0,
      "byteLength": 10650
    },
    {
      "buffer": 1,
      "byteOffset": 0,
      "byteLength": 27144
    },
    {
      "buffer": 2,
      "byteOffset": 0,
      "byteLength": 27144
    },
    {
      "buffer": 3,
      "byteOffset": 0,
      "byteLength": 27144
    }
  ],
  "meshes": [
    {
      "primitives": [
        {
          "mode": 4,
          "indices": 0,
          "attributes": {
            "POSITION": 1,
            "NORMAL": 2,
            "COLOR_0": 3
          }
        }
      ]
    }
  ],
  "nodes": [
    {
      "children": [
        1
      ]
    },
    {
      "mesh": 0
    }
  ],
  "scenes": [
    {
      "nodes": [
        0
      ]
    }
  ],
  "scene": 0
}