{
  "asset": {
    "version": "2.0",
    "generator": "COLLADA2GLTF"
  },
  "accessors": [
    {
      "bufferView": 0,
      "byteOffset": 0,
      "componentType": 5123,
      "count": 4605,
      "min": [
        0
      ],
      "max": [
        1580
      ],
      "type": "SCALAR"
    },
    {
      "bufferView": 1,
      "byteOffset": 0,
      "componentType": 5126,
      "count": 1581,
      "max": [
        -722.4910278320312,
        0.14777499437332153,
        2334.46875
      ],
      "min": [
        -1573.974365234375,
        0,
        2039.4482421875
      ],
      "type": "VEC3"
    },
    {
      "bufferView": 2,
      "byteOffset": 0,
      "componentType": 5126,
      "count": 1581,
      "max": [
        0.9452244639396667,
        1,
        0.9452244639396667
      ],
      "min": [
        -0.9452244639396667,
        -0.9486833214759827,
        -0.9452244639396667
      ],
      "type": "VEC3"
    },
    {
      "bufferView": 3,
      "byteOffset": 0,
      "componentType": 5126,
      "count": 1581,
      "max": [
        0.5774929523468018,
        0.5776150226593018,
        0.5776455402374268
      ],
      "min": [
        0.07322804629802704,
        0.03309682011604309,
        0.03311207890510559
      ],
      "type": "VEC3"
    }
  ],
  "buffers": [
    {
      "byteLength": 9210,
      "uri": "data:application/octet-stream;base64,"
    },
    {
      "byteLength": 18972,
      "uri": "data:application/octet-stream;base64,"
    },
    {
      "byteLength": 18972,
      "uri": "data:application/octet-stream;base64,"
    },
    {
      "byteLength": 18972,
      "uri": "data:application/octet-stream;base64,"
    }
  ],
  "bufferViews": [
    {
      "buffer": 0,
      "byteOffset": 0,
      "byteLength": 9210
    },
    {
      "buffer": 1,
      "byteOffset": 0,
      "byteLength": 18972
    },
    {
      "buffer": 2,
      "byteOffset": 0,
      "byteLength": 18972
    },
    {
      "buffer": 3,
      "byteOffset": 0,
      "byteLength": 18972
    }
  ],
  "meshes": [
    {
      "primitives": [
        {
          "mode": 4,
          "indices": 0,
          "attributes": {
            "POSITION": 1,
            "NORMAL": 2,
            "COLOR_0": 3
          }
        }
      ]
    }
  ],
  "nodes": [
    {
      "children": [
        1
      ]
    },
    {
      "mesh": 0
    }
  ],
  "scenes": [
    {
      "nodes": [
        0
      ]
    }
  ],
  "scene": 0
}