{
  "asset": {
    "version": "2.0",
    "generator": "COLLADA2GLTF"
  },
  "accessors": [
    {
      "bufferView": 0,
      "byteOffset": 0,
      "componentType": 5123,
      "count": 1629,
      "min": [
        0
      ],
      "max": [
        1390
      ],
      "type": "SCALAR"
    },
    {
      "bufferView": 1,
      "byteOffset": 0,
      "componentType": 5126,
      "count": 1391,
      "max": [
        430.6080017089844,
        7.5,
        53.9900016784668
      ],
      "min": [
        256.7760009765625,
        0,
        -117.82099914550781
      ],
      "type": "VEC3"
    },
    {
      "bufferView": 2,
      "byteOffset": 0,
      "componentType": 5126,
      "count": 1391,
      "max": [
        1,
        0,
        1
      ],
      "min": [
        -1,
        0,
        -1
      ],
      "type": "VEC3"
    },
    {
      "bufferView": 3,
      "byteOffset": 0,
      "componentType": 5126,
      "count": 1391,
      "max": [
        0.999786376953125,
        0.7875181436538696,
        0.26330968737602234
      ],
      "min": [
        0.999786376953125,
        0.7875181436538696,
        0.26330968737602234
      ],
      "type": "VEC3"
    }
  ],
  "buffers": [
    {
      "byteLength": 3258,
      "uri": "data:application/octet-stream;base64,"
    },
    {
      "byteLength": 16692,
      "uri": "data:application/octet-stream;base64,"
    },
    {
      "byteLength": 16692,
      "uri": "data:application/octet-stream;base64,"
    },
    {
      "byteLength": 16692,
      "uri": "data:application/octet-stream;base64,"
    }
  ],
  "bufferViews": [
    {
      "buffer": 0,
      "byteOffset": 0,
      "byteLength": 3258
    },
    {
      "buffer": 1,
      "byteOffset": 0,
      "byteLength": 16692
    },
    {
      "buffer": 2,
      "byteOffset": 0,
      "byteLength": 16692
    },
    {
      "buffer": 3,
      "byteOffset": 0,
      "byteLength": 16692
    }
  ],
  "meshes": [
    {
      "primitives": [
        {
          "mode": 4,
          "indices": 0,
          "attributes": {
            "POSITION": 1,
            "NORMAL": 2,
            "COLOR_0": 3
          }
        }
      ]
    }
  ],
  "nodes": [
    {
      "children": [
        1
      ]
    },
    {
      "mesh": 0
    }
  ],
  "scenes": [
    {
      "nodes": [
        0
      ]
    }
  ],
  "scene": 0
}