{
  "asset": {
    "version": "2.0",
    "generator": "COLLADA2GLTF"
  },
  "accessors": [
    {
      "bufferView": 0,
      "byteOffset": 0,
      "componentType": 5123,
      "count": 5412,
      "min": [
        0
      ],
      "max": [
        2105
      ],
      "type": "SCALAR"
    },
    {
      "bufferView": 1,
      "byteOffset": 0,
      "componentType": 5126,
      "count": 2106,
      "max": [
        960,
        2.299999952316284,
        540
      ],
      "min": [
        390,
        0,
        -30
      ],
      "type": "VEC3"
    },
    {
      "bufferView": 2,
      "byteOffset": 0,
      "componentType": 5126,
      "count": 2106,
      "max": [
        0.9992324113845825,
        1,
        1
      ],
      "min": [
        -0.9898214340209961,
        -1,
        -0.984833836555481
      ],
      "type": "VEC3"
    },
    {
      "bufferView": 3,
      "byteOffset": 0,
      "componentType": 5126,
      "count": 2106,
      "max": [
        0.999786376953125,
        1,
        0.7875028848648071
      ],
      "min": [
        0,
        0.07324330508708954,
        0.000015259021893143654
      ],
      "type": "VEC3"
    }
  ],
  "buffers": [
    {
      "byteLength": 10824,
      "uri": "data:application/octet-stream;base64,"
    },
    {
      "byteLength": 25272,
      "uri": "data:application/octet-stream;base64,"
    },
    {
      "byteLength": 25272,
      "uri": "data:application/octet-stream;base64,"
    },
    {
      "byteLength": 25272,
      "uri": "data:application/octet-stream;base64,"
    }
  ],
  "bufferViews": [
    {
      "buffer": 0,
      "byteOffset": 0,
      "byteLength": 10824
    },
    {
      "buffer": 1,
      "byteOffset": 0,
      "byteLength": 25272
    },
    {
      "buffer": 2,
      "byteOffset": 0,
      "byteLength": 25272
    },
    {
      "buffer": 3,
      "byteOffset": 0,
      "byteLength": 25272
    }
  ],
  "meshes": [
    {
      "primitives": [
        {
          "mode": 4,
          "indices": 0,
          "attributes": {
            "POSITION": 1,
            "NORMAL": 2,
            "COLOR_0": 3
          }
        }
      ]
    }
  ],
  "nodes": [
    {
      "children": [
        1
      ]
    },
    {
      "mesh": 0
    }
  ],
  "scenes": [
    {
      "nodes": [
        0
      ]
    }
  ],
  "scene": 0
}