{
  "asset": {
    "version": "2.0",
    "generator": "COLLADA2GLTF"
  },
  "accessors": [
    {
      "bufferView": 0,
      "byteOffset": 0,
      "componentType": 5123,
      "count": 3927,
      "min": [
        0
      ],
      "max": [
        1534
      ],
      "type": "SCALAR"
    },
    {
      "bufferView": 1,
      "byteOffset": 0,
      "componentType": 5126,
      "count": 1535,
      "max": [
        -2910,
        0,
        840
      ],
      "min": [
        -3510.247314453125,
        -0.20000000298023224,
        349.5421142578125
      ],
      "type": "VEC3"
    },
    {
      "bufferView": 2,
      "byteOffset": 0,
      "componentType": 5126,
      "count": 1535,
      "max": [
        0.1465306133031845,
        1,
        0.7864659428596497
      ],
      "min": [
        -0.1465306133031845,
        0.6000000238418579,
        -0.7864660620689392
      ],
      "type": "VEC3"
    },
    {
      "bufferView": 3,
      "byteOffset": 0,
      "componentType": 5126,
      "count": 1535,
      "max": [
        0.07322804629802704,
        1,
        1
      ],
      "min": [
        0,
        0.00003051804378628731,
        0.000015259021893143654
      ],
      "type": "VEC3"
    }
  ],
  "buffers": [
    {
      "byteLength": 7854,
      "uri": "data:application/octet-stream;base64,"
    },
    {
      "byteLength": 18420,
      "uri": "data:application/octet-stream;base64,"
    },
    {
      "byteLength": 18420,
      "uri": "data:application/octet-stream;base64,"
    },
    {
      "byteLength": 18420,
      "uri": "data:application/octet-stream;base64,"
    }
  ],
  "bufferViews": [
    {
      "buffer": 0,
      "byteOffset": 0,
      "byteLength": 7854
    },
    {
      "buffer": 1,
      "byteOffset": 0,
      "byteLength": 18420
    },
    {
      "buffer": 2,
      "byteOffset": 0,
      "byteLength": 18420
    },
    {
      "buffer": 3,
      "byteOffset": 0,
      "byteLength": 18420
    }
  ],
  "meshes": [
    {
      "primitives": [
        {
          "mode": 4,
          "indices": 0,
          "attributes": {
            "POSITION": 1,
            "NORMAL": 2,
            "COLOR_0": 3
          }
        }
      ]
    }
  ],
  "nodes": [
    {
      "children": [
        1
      ]
    },
    {
      "mesh": 0
    }
  ],
  "scenes": [
    {
      "nodes": [
        0
      ]
    }
  ],
  "scene": 0
}