{
  "asset": {
    "version": "2.0",
    "generator": "COLLADA2GLTF"
  },
  "accessors": [
    {
      "bufferView": 0,
      "byteOffset": 0,
      "componentType": 5123,
      "count": 1113,
      "min": [
        0
      ],
      "max": [
        438
      ],
      "type": "SCALAR"
    },
    {
      "bufferView": 1,
      "byteOffset": 0,
      "componentType": 5126,
      "count": 439,
      "max": [
        3041.237548828125,
        0.0010000000474974513,
        -2136.34033203125
      ],
      "min": [
        2749.98193359375,
        -0.20000000298023224,
        -2521.488525390625
      ],
      "type": "VEC3"
    },
    {
      "bufferView": 2,
      "byteOffset": 0,
      "componentType": 5126,
      "count": 439,
      "max": [
        0.8100981712341309,
        1,
        0.8077225685119629
      ],
      "min": [
        -0.8100975751876831,
        -1,
        -0.810097873210907
      ],
      "type": "VEC3"
    },
    {
      "bufferView": 3,
      "byteOffset": 0,
      "componentType": 5126,
      "count": 439,
      "max": [
        0.7872740030288696,
        0.7875028848648071,
        0.7875028848648071
      ],
      "min": [
        0.07322804629802704,
        0.07324330508708954,
        0.07325856387615204
      ],
      "type": "VEC3"
    }
  ],
  "buffers": [
    {
      "byteLength": 2226,
      "uri": "data:application/octet-stream;base64,"
    },
    {
      "byteLength": 5268,
      "uri": "data:application/octet-stream;base64,"
    },
    {
      "byteLength": 5268,
      "uri": "data:application/octet-stream;base64,"
    },
    {
      "byteLength": 5268,
      "uri": "data:application/octet-stream;base64,"
    }
  ],
  "bufferViews": [
    {
      "buffer": 0,
      "byteOffset": 0,
      "byteLength": 2226
    },
    {
      "buffer": 1,
      "byteOffset": 0,
      "byteLength": 5268
    },
    {
      "buffer": 2,
      "byteOffset": 0,
      "byteLength": 5268
    },
    {
      "buffer": 3,
      "byteOffset": 0,
      "byteLength": 5268
    }
  ],
  "meshes": [
    {
      "primitives": [
        {
          "mode": 4,
          "indices": 0,
          "attributes": {
            "POSITION": 1,
            "NORMAL": 2,
            "COLOR_0": 3
          }
        }
      ]
    }
  ],
  "nodes": [
    {
      "children": [
        1
      ]
    },
    {
      "mesh": 0
    }
  ],
  "scenes": [
    {
      "nodes": [
        0
      ]
    }
  ],
  "scene": 0
}