{
  "asset": {
    "version": "2.0",
    "generator": "COLLADA2GLTF"
  },
  "accessors": [
    {
      "bufferView": 0,
      "byteOffset": 0,
      "componentType": 5123,
      "count": 369,
      "min": [
        0
      ],
      "max": [
        206
      ],
      "type": "SCALAR"
    },
    {
      "bufferView": 1,
      "byteOffset": 0,
      "componentType": 5126,
      "count": 207,
      "max": [
        668.4429931640625,
        7.5,
        773.7080078125
      ],
      "min": [
        548.2639770507812,
        0,
        656.3159790039062
      ],
      "type": "VEC3"
    },
    {
      "bufferView": 2,
      "byteOffset": 0,
      "componentType": 5126,
      "count": 207,
      "max": [
        0.9846110939979553,
        1,
        0.9846540093421936
      ],
      "min": [
        -0.9559295177459717,
        0,
        -0.9734925627708435
      ],
      "type": "VEC3"
    },
    {
      "bufferView": 3,
      "byteOffset": 0,
      "componentType": 5126,
      "count": 207,
      "max": [
        0.999786376953125,
        0.7875181436538696,
        0.26330968737602234
      ],
      "min": [
        0.6036774516105652,
        0.00003051804378628731,
        0
      ],
      "type": "VEC3"
    }
  ],
  "buffers": [
    {
      "byteLength": 738,
      "uri": "data:application/octet-stream;base64,"
    },
    {
      "byteLength": 2484,
      "uri": "data:application/octet-stream;base64,"
    },
    {
      "byteLength": 2484,
      "uri": "data:application/octet-stream;base64,"
    },
    {
      "byteLength": 2484,
      "uri": "data:application/octet-stream;base64,"
    }
  ],
  "bufferViews": [
    {
      "buffer": 0,
      "byteOffset": 0,
      "byteLength": 738
    },
    {
      "buffer": 1,
      "byteOffset": 0,
      "byteLength": 2484
    },
    {
      "buffer": 2,
      "byteOffset": 0,
      "byteLength": 2484
    },
    {
      "buffer": 3,
      "byteOffset": 0,
      "byteLength": 2484
    }
  ],
  "meshes": [
    {
      "primitives": [
        {
          "mode": 4,
          "indices": 0,
          "attributes": {
            "POSITION": 1,
            "NORMAL": 2,
            "COLOR_0": 3
          }
        }
      ]
    }
  ],
  "nodes": [
    {
      "children": [
        1
      ]
    },
    {
      "mesh": 0
    }
  ],
  "scenes": [
    {
      "nodes": [
        0
      ]
    }
  ],
  "scene": 0
}