{
  "asset": {
    "version": "2.0",
    "generator": "COLLADA2GLTF"
  },
  "accessors": [
    {
      "bufferView": 0,
      "byteOffset": 0,
      "componentType": 5123,
      "count": 27,
      "min": [
        0
      ],
      "max": [
        22
      ],
      "type": "SCALAR"
    },
    {
      "bufferView": 1,
      "byteOffset": 0,
      "componentType": 5126,
      "count": 23,
      "max": [
        -3334.619873046875,
        0,
        1174.1527099609375
      ],
      "min": [
        -3510,
        0,
        1118.8544921875
      ],
      "type": "VEC3"
    },
    {
      "bufferView": 2,
      "byteOffset": 0,
      "componentType": 5126,
      "count": 23,
      "max": [
        0,
        1,
        0
      ],
      "min": [
        -0.1410805583000183,
        0,
        -0.9899981021881104
      ],
      "type": "VEC3"
    },
    {
      "bufferView": 3,
      "byteOffset": 0,
      "componentType": 5126,
      "count": 23,
      "max": [
        0.999786376953125,
        1,
        0.26330968737602234
      ],
      "min": [
        0.000015259021893143654,
        0.7875181436538696,
        0.00004577706567943096
      ],
      "type": "VEC3"
    }
  ],
  "buffers": [
    {
      "byteLength": 54,
      "uri": "data:application/octet-stream;base64,"
    },
    {
      "byteLength": 276,
      "uri": "data:application/octet-stream;base64,"
    },
    {
      "byteLength": 276,
      "uri": "data:application/octet-stream;base64,"
    },
    {
      "byteLength": 276,
      "uri": "data:application/octet-stream;base64,"
    }
  ],
  "bufferViews": [
    {
      "buffer": 0,
      "byteOffset": 0,
      "byteLength": 54
    },
    {
      "buffer": 1,
      "byteOffset": 0,
      "byteLength": 276
    },
    {
      "buffer": 2,
      "byteOffset": 0,
      "byteLength": 276
    },
    {
      "buffer": 3,
      "byteOffset": 0,
      "byteLength": 276
    }
  ],
  "meshes": [
    {
      "primitives": [
        {
          "mode": 4,
          "indices": 0,
          "attributes": {
            "POSITION": 1,
            "NORMAL": 2,
            "COLOR_0": 3
          }
        }
      ]
    }
  ],
  "nodes": [
    {
      "children": [
        1
      ]
    },
    {
      "mesh": 0
    }
  ],
  "scenes": [
    {
      "nodes": [
        0
      ]
    }
  ],
  "scene": 0
}