{
  "asset": {
    "version": "2.0",
    "generator": "COLLADA2GLTF"
  },
  "accessors": [
    {
      "bufferView": 0,
      "byteOffset": 0,
      "componentType": 5123,
      "count": 4623,
      "min": [
        0
      ],
      "max": [
        1582
      ],
      "type": "SCALAR"
    },
    {
      "bufferView": 1,
      "byteOffset": 0,
      "componentType": 5126,
      "count": 1583,
      "max": [
        729.1566772460938,
        0.14777499437332153,
        2842.51708984375
      ],
      "min": [
        515.09228515625,
        0,
        2765.386474609375
      ],
      "type": "VEC3"
    },
    {
      "bufferView": 2,
      "byteOffset": 0,
      "componentType": 5126,
      "count": 1583,
      "max": [
        0.9421392679214478,
        1,
        0.9421392679214478
      ],
      "min": [
        -0.9421392679214478,
        -0.9486833214759827,
        -0.9421392679214478
      ],
      "type": "VEC3"
    },
    {
      "bufferView": 3,
      "byteOffset": 0,
      "componentType": 5126,
      "count": 1583,
      "max": [
        0.5774929523468018,
        0.5776150226593018,
        0.5776455402374268
      ],
      "min": [
        0.07322804629802704,
        0.03309682011604309,
        0.03311207890510559
      ],
      "type": "VEC3"
    }
  ],
  "buffers": [
    {
      "byteLength": 9246,
      "uri": "data:application/octet-stream;base64,"
    },
    {
      "byteLength": 18996,
      "uri": "data:application/octet-stream;base64,"
    },
    {
      "byteLength": 18996,
      "uri": "data:application/octet-stream;base64,"
    },
    {
      "byteLength": 18996,
      "uri": "data:application/octet-stream;base64,"
    }
  ],
  "bufferViews": [
    {
      "buffer": 0,
      "byteOffset": 0,
      "byteLength": 9246
    },
    {
      "buffer": 1,
      "byteOffset": 0,
      "byteLength": 18996
    },
    {
      "buffer": 2,
      "byteOffset": 0,
      "byteLength": 18996
    },
    {
      "buffer": 3,
      "byteOffset": 0,
      "byteLength": 18996
    }
  ],
  "meshes": [
    {
      "primitives": [
        {
          "mode": 4,
          "indices": 0,
          "attributes": {
            "POSITION": 1,
            "NORMAL": 2,
            "COLOR_0": 3
          }
        }
      ]
    }
  ],
  "nodes": [
    {
      "children": [
        1
      ]
    },
    {
      "mesh": 0
    }
  ],
  "scenes": [
    {
      "nodes": [
        0
      ]
    }
  ],
  "scene": 0
}