{
  "asset": {
    "version": "2.0",
    "generator": "COLLADA2GLTF"
  },
  "accessors": [
    {
      "bufferView": 0,
      "byteOffset": 0,
      "componentType": 5123,
      "count": 1707,
      "min": [
        0
      ],
      "max": [
        800
      ],
      "type": "SCALAR"
    },
    {
      "bufferView": 1,
      "byteOffset": 0,
      "componentType": 5126,
      "count": 801,
      "max": [
        1200.0582275390625,
        7.5,
        622.3684692382812
      ],
      "min": [
        956.1524658203125,
        0,
        399.997802734375
      ],
      "type": "VEC3"
    },
    {
      "bufferView": 2,
      "byteOffset": 0,
      "componentType": 5126,
      "count": 801,
      "max": [
        0.9740220308303833,
        1,
        0.987061619758606
      ],
      "min": [
        -0.8678745627403259,
        0,
        -0.9714764356613159
      ],
      "type": "VEC3"
    },
    {
      "bufferView": 3,
      "byteOffset": 0,
      "componentType": 5126,
      "count": 801,
      "max": [
        0.999786376953125,
        1,
        0.7875028848648071
      ],
      "min": [
        0,
        0.07324330508708954,
        0.000015259021893143654
      ],
      "type": "VEC3"
    }
  ],
  "buffers": [
    {
      "byteLength": 3414,
      "uri": "data:application/octet-stream;base64,"
    },
    {
      "byteLength": 9612,
      "uri": "data:application/octet-stream;base64,"
    },
    {
      "byteLength": 9612,
      "uri": "data:application/octet-stream;base64,"
    },
    {
      "byteLength": 9612,
      "uri": "data:application/octet-stream;base64,"
    }
  ],
  "bufferViews": [
    {
      "buffer": 0,
      "byteOffset": 0,
      "byteLength": 3414
    },
    {
      "buffer": 1,
      "byteOffset": 0,
      "byteLength": 9612
    },
    {
      "buffer": 2,
      "byteOffset": 0,
      "byteLength": 9612
    },
    {
      "buffer": 3,
      "byteOffset": 0,
      "byteLength": 9612
    }
  ],
  "meshes": [
    {
      "primitives": [
        {
          "mode": 4,
          "indices": 0,
          "attributes": {
            "POSITION": 1,
            "NORMAL": 2,
            "COLOR_0": 3
          }
        }
      ]
    }
  ],
  "nodes": [
    {
      "children": [
        1
      ]
    },
    {
      "mesh": 0
    }
  ],
  "scenes": [
    {
      "nodes": [
        0
      ]
    }
  ],
  "scene": 0
}