{
  "asset": {
    "version": "2.0",
    "generator": "COLLADA2GLTF"
  },
  "accessors": [
    {
      "bufferView": 0,
      "byteOffset": 0,
      "componentType": 5123,
      "count": 4584,
      "min": [
        0
      ],
      "max": [
        1773
      ],
      "type": "SCALAR"
    },
    {
      "bufferView": 1,
      "byteOffset": 0,
      "componentType": 5126,
      "count": 1774,
      "max": [
        3390.988037109375,
        0.0010000000474974513,
        2040.96728515625
      ],
      "min": [
        2979.385986328125,
        -0.20000000298023224,
        1444.026611328125
      ],
      "type": "VEC3"
    },
    {
      "bufferView": 2,
      "byteOffset": 0,
      "componentType": 5126,
      "count": 1774,
      "max": [
        0.5580451488494873,
        1,
        0.5732238292694092
      ],
      "min": [
        -0.5580452084541321,
        0.6000000238418579,
        -0.5732237696647644
      ],
      "type": "VEC3"
    },
    {
      "bufferView": 3,
      "byteOffset": 0,
      "componentType": 5126,
      "count": 1774,
      "max": [
        0.7872740030288696,
        1,
        1
      ],
      "min": [
        0,
        0.00003051804378628731,
        0.00004577706567943096
      ],
      "type": "VEC3"
    }
  ],
  "buffers": [
    {
      "byteLength": 9168,
      "uri": "data:application/octet-stream;base64,"
    },
    {
      "byteLength": 21288,
      "uri": "data:application/octet-stream;base64,"
    },
    {
      "byteLength": 21288,
      "uri": "data:application/octet-stream;base64,"
    },
    {
      "byteLength": 21288,
      "uri": "data:application/octet-stream;base64,"
    }
  ],
  "bufferViews": [
    {
      "buffer": 0,
      "byteOffset": 0,
      "byteLength": 9168
    },
    {
      "buffer": 1,
      "byteOffset": 0,
      "byteLength": 21288
    },
    {
      "buffer": 2,
      "byteOffset": 0,
      "byteLength": 21288
    },
    {
      "buffer": 3,
      "byteOffset": 0,
      "byteLength": 21288
    }
  ],
  "meshes": [
    {
      "primitives": [
        {
          "mode": 4,
          "indices": 0,
          "attributes": {
            "POSITION": 1,
            "NORMAL": 2,
            "COLOR_0": 3
          }
        }
      ]
    }
  ],
  "nodes": [
    {
      "children": [
        1
      ]
    },
    {
      "mesh": 0
    }
  ],
  "scenes": [
    {
      "nodes": [
        0
      ]
    }
  ],
  "scene": 0
}