{
  "asset": {
    "version": "2.0",
    "generator": "COLLADA2GLTF"
  },
  "accessors": [
    {
      "bufferView": 0,
      "byteOffset": 0,
      "componentType": 5123,
      "count": 5367,
      "min": [
        0
      ],
      "max": [
        2091
      ],
      "type": "SCALAR"
    },
    {
      "bufferView": 1,
      "byteOffset": 0,
      "componentType": 5126,
      "count": 2092,
      "max": [
        -769.697021484375,
        0,
        1924.1279296875
      ],
      "min": [
        -1141.2354736328125,
        0,
        1530
      ],
      "type": "VEC3"
    },
    {
      "bufferView": 2,
      "byteOffset": 0,
      "componentType": 5126,
      "count": 2092,
      "max": [
        0.9999998807907104,
        1,
        1
      ],
      "min": [
        -1,
        0,
        -1
      ],
      "type": "VEC3"
    },
    {
      "bufferView": 3,
      "byteOffset": 0,
      "componentType": 5126,
      "count": 2092,
      "max": [
        0.999786376953125,
        1,
        1
      ],
      "min": [
        0,
        0.00003051804378628731,
        0.00004577706567943096
      ],
      "type": "VEC3"
    }
  ],
  "buffers": [
    {
      "byteLength": 10734,
      "uri": "data:application/octet-stream;base64,"
    },
    {
      "byteLength": 25104,
      "uri": "data:application/octet-stream;base64,"
    },
    {
      "byteLength": 25104,
      "uri": "data:application/octet-stream;base64,"
    },
    {
      "byteLength": 25104,
      "uri": "data:application/octet-stream;base64,"
    }
  ],
  "bufferViews": [
    {
      "buffer": 0,
      "byteOffset": 0,
      "byteLength": 10734
    },
    {
      "buffer": 1,
      "byteOffset": 0,
      "byteLength": 25104
    },
    {
      "buffer": 2,
      "byteOffset": 0,
      "byteLength": 25104
    },
    {
      "buffer": 3,
      "byteOffset": 0,
      "byteLength": 25104
    }
  ],
  "meshes": [
    {
      "primitives": [
        {
          "mode": 4,
          "indices": 0,
          "attributes": {
            "POSITION": 1,
            "NORMAL": 2,
            "COLOR_0": 3
          }
        }
      ]
    }
  ],
  "nodes": [
    {
      "children": [
        1
      ]
    },
    {
      "mesh": 0
    }
  ],
  "scenes": [
    {
      "nodes": [
        0
      ]
    }
  ],
  "scene": 0
}