{
  "asset": {
    "version": "2.0",
    "generator": "COLLADA2GLTF"
  },
  "accessors": [
    {
      "bufferView": 0,
      "byteOffset": 0,
      "componentType": 5123,
      "count": 858,
      "min": [
        0
      ],
      "max": [
        426
      ],
      "type": "SCALAR"
    },
    {
      "bufferView": 1,
      "byteOffset": 0,
      "componentType": 5126,
      "count": 427,
      "max": [
        -1493.6510009765625,
        7.5,
        -272.8900146484375
      ],
      "min": [
        -1769.7025146484375,
        0,
        -589.121337890625
      ],
      "type": "VEC3"
    },
    {
      "bufferView": 2,
      "byteOffset": 0,
      "componentType": 5126,
      "count": 427,
      "max": [
        0.800487756729126,
        1,
        0.8006731271743774
      ],
      "min": [
        -0.800487756729126,
        0,
        -0.8006731271743774
      ],
      "type": "VEC3"
    },
    {
      "bufferView": 3,
      "byteOffset": 0,
      "componentType": 5126,
      "count": 427,
      "max": [
        0.999786376953125,
        1,
        0.26330968737602234
      ],
      "min": [
        0.000015259021893143654,
        0.07324330508708954,
        0.00004577706567943096
      ],
      "type": "VEC3"
    }
  ],
  "buffers": [
    {
      "byteLength": 1716,
      "uri": "data:application/octet-stream;base64,"
    },
    {
      "byteLength": 5124,
      "uri": "data:application/octet-stream;base64,"
    },
    {
      "byteLength": 5124,
      "uri": "data:application/octet-stream;base64,"
    },
    {
      "byteLength": 5124,
      "uri": "data:application/octet-stream;base64,"
    }
  ],
  "bufferViews": [
    {
      "buffer": 0,
      "byteOffset": 0,
      "byteLength": 1716
    },
    {
      "buffer": 1,
      "byteOffset": 0,
      "byteLength": 5124
    },
    {
      "buffer": 2,
      "byteOffset": 0,
      "byteLength": 5124
    },
    {
      "buffer": 3,
      "byteOffset": 0,
      "byteLength": 5124
    }
  ],
  "meshes": [
    {
      "primitives": [
        {
          "mode": 4,
          "indices": 0,
          "attributes": {
            "POSITION": 1,
            "NORMAL": 2,
            "COLOR_0": 3
          }
        }
      ]
    }
  ],
  "nodes": [
    {
      "children": [
        1
      ]
    },
    {
      "mesh": 0
    }
  ],
  "scenes": [
    {
      "nodes": [
        0
      ]
    }
  ],
  "scene": 0
}