{
  "asset": {
    "version": "2.0",
    "generator": "COLLADA2GLTF"
  },
  "accessors": [
    {
      "bufferView": 0,
      "byteOffset": 0,
      "componentType": 5123,
      "count": 3633,
      "min": [
        0
      ],
      "max": [
        1337
      ],
      "type": "SCALAR"
    },
    {
      "bufferView": 1,
      "byteOffset": 0,
      "componentType": 5126,
      "count": 1338,
      "max": [
        258.09271240234375,
        0.10000000149011612,
        -114.13716125488281
      ],
      "min": [
        100.84227752685547,
        -0.20000000298023224,
        -240
      ],
      "type": "VEC3"
    },
    {
      "bufferView": 2,
      "byteOffset": 0,
      "componentType": 5126,
      "count": 1338,
      "max": [
        0.9912253618240356,
        1,
        0.9759519696235657
      ],
      "min": [
        -0.9772942662239075,
        -1,
        -0.9880260229110718
      ],
      "type": "VEC3"
    },
    {
      "bufferView": 3,
      "byteOffset": 0,
      "componentType": 5126,
      "count": 1338,
      "max": [
        0.999786376953125,
        1,
        0.7875028848648071
      ],
      "min": [
        0,
        0.07324330508708954,
        0.000015259021893143654
      ],
      "type": "VEC3"
    }
  ],
  "buffers": [
    {
      "byteLength": 7266,
      "uri": "data:application/octet-stream;base64,"
    },
    {
      "byteLength": 16056,
      "uri": "data:application/octet-stream;base64,"
    },
    {
      "byteLength": 16056,
      "uri": "data:application/octet-stream;base64,"
    },
    {
      "byteLength": 16056,
      "uri": "data:application/octet-stream;base64,"
    }
  ],
  "bufferViews": [
    {
      "buffer": 0,
      "byteOffset": 0,
      "byteLength": 7266
    },
    {
      "buffer": 1,
      "byteOffset": 0,
      "byteLength": 16056
    },
    {
      "buffer": 2,
      "byteOffset": 0,
      "byteLength": 16056
    },
    {
      "buffer": 3,
      "byteOffset": 0,
      "byteLength": 16056
    }
  ],
  "meshes": [
    {
      "primitives": [
        {
          "mode": 4,
          "indices": 0,
          "attributes": {
            "POSITION": 1,
            "NORMAL": 2,
            "COLOR_0": 3
          }
        }
      ]
    }
  ],
  "nodes": [
    {
      "children": [
        1
      ]
    },
    {
      "mesh": 0
    }
  ],
  "scenes": [
    {
      "nodes": [
        0
      ]
    }
  ],
  "scene": 0
}