{
  "asset": {
    "version": "2.0",
    "generator": "COLLADA2GLTF"
  },
  "accessors": [
    {
      "bufferView": 0,
      "byteOffset": 0,
      "componentType": 5123,
      "count": 1611,
      "min": [
        0
      ],
      "max": [
        602
      ],
      "type": "SCALAR"
    },
    {
      "bufferView": 1,
      "byteOffset": 0,
      "componentType": 5126,
      "count": 603,
      "max": [
        22.28928565979004,
        12.5,
        499.1656799316406
      ],
      "min": [
        -1611.922607421875,
        0,
        62.52799987792969
      ],
      "type": "VEC3"
    },
    {
      "bufferView": 2,
      "byteOffset": 0,
      "componentType": 5126,
      "count": 603,
      "max": [
        0.8829026818275452,
        1,
        0.9000805020332336
      ],
      "min": [
        -0.894390881061554,
        0,
        -0.8918473720550537
      ],
      "type": "VEC3"
    },
    {
      "bufferView": 3,
      "byteOffset": 0,
      "componentType": 5126,
      "count": 603,
      "max": [
        0.999786376953125,
        0.7875181436538696,
        0.7875028848648071
      ],
      "min": [
        0.07322804629802704,
        0.00003051804378628731,
        0
      ],
      "type": "VEC3"
    }
  ],
  "buffers": [
    {
      "byteLength": 3222,
      "uri": "data:application/octet-stream;base64,"
    },
    {
      "byteLength": 7236,
      "uri": "data:application/octet-stream;base64,"
    },
    {
      "byteLength": 7236,
      "uri": "data:application/octet-stream;base64,"
    },
    {
      "byteLength": 7236,
      "uri": "data:application/octet-stream;base64,"
    }
  ],
  "bufferViews": [
    {
      "buffer": 0,
      "byteOffset": 0,
      "byteLength": 3222
    },
    {
      "buffer": 1,
      "byteOffset": 0,
      "byteLength": 7236
    },
    {
      "buffer": 2,
      "byteOffset": 0,
      "byteLength": 7236
    },
    {
      "buffer": 3,
      "byteOffset": 0,
      "byteLength": 7236
    }
  ],
  "meshes": [
    {
      "primitives": [
        {
          "mode": 4,
          "indices": 0,
          "attributes": {
            "POSITION": 1,
            "NORMAL": 2,
            "COLOR_0": 3
          }
        }
      ]
    }
  ],
  "nodes": [
    {
      "children": [
        1
      ]
    },
    {
      "mesh": 0
    }
  ],
  "scenes": [
    {
      "nodes": [
        0
      ]
    }
  ],
  "scene": 0
}