{
  "asset": {
    "version": "2.0",
    "generator": "COLLADA2GLTF"
  },
  "accessors": [
    {
      "bufferView": 0,
      "byteOffset": 0,
      "componentType": 5123,
      "count": 4854,
      "min": [
        0
      ],
      "max": [
        1900
      ],
      "type": "SCALAR"
    },
    {
      "bufferView": 1,
      "byteOffset": 0,
      "componentType": 5126,
      "count": 1901,
      "max": [
        -2880,
        0,
        1984.876220703125
      ],
      "min": [
        -3115.061279296875,
        0,
        1738.5430908203125
      ],
      "type": "VEC3"
    },
    {
      "bufferView": 2,
      "byteOffset": 0,
      "componentType": 5126,
      "count": 1901,
      "max": [
        0.8602522015571594,
        1,
        0.9336176514625549
      ],
      "min": [
        -0.8825684785842896,
        0,
        -0.9105467796325684
      ],
      "type": "VEC3"
    },
    {
      "bufferView": 3,
      "byteOffset": 0,
      "componentType": 5126,
      "count": 1901,
      "max": [
        0.999786376953125,
        1,
        0.26330968737602234
      ],
      "min": [
        0,
        0.07324330508708954,
        0.000015259021893143654
      ],
      "type": "VEC3"
    }
  ],
  "buffers": [
    {
      "byteLength": 9708,
      "uri": "data:application/octet-stream;base64,"
    },
    {
      "byteLength": 22812,
      "uri": "data:application/octet-stream;base64,"
    },
    {
      "byteLength": 22812,
      "uri": "data:application/octet-stream;base64,"
    },
    {
      "byteLength": 22812,
      "uri": "data:application/octet-stream;base64,"
    }
  ],
  "bufferViews": [
    {
      "buffer": 0,
      "byteOffset": 0,
      "byteLength": 9708
    },
    {
      "buffer": 1,
      "byteOffset": 0,
      "byteLength": 22812
    },
    {
      "buffer": 2,
      "byteOffset": 0,
      "byteLength": 22812
    },
    {
      "buffer": 3,
      "byteOffset": 0,
      "byteLength": 22812
    }
  ],
  "meshes": [
    {
      "primitives": [
        {
          "mode": 4,
          "indices": 0,
          "attributes": {
            "POSITION": 1,
            "NORMAL": 2,
            "COLOR_0": 3
          }
        }
      ]
    }
  ],
  "nodes": [
    {
      "children": [
        1
      ]
    },
    {
      "mesh": 0
    }
  ],
  "scenes": [
    {
      "nodes": [
        0
      ]
    }
  ],
  "scene": 0
}