{
  "asset": {
    "version": "2.0",
    "generator": "COLLADA2GLTF"
  },
  "accessors": [
    {
      "bufferView": 0,
      "byteOffset": 0,
      "componentType": 5123,
      "count": 1332,
      "min": [
        0
      ],
      "max": [
        592
      ],
      "type": "SCALAR"
    },
    {
      "bufferView": 1,
      "byteOffset": 0,
      "componentType": 5126,
      "count": 593,
      "max": [
        897.5293579101562,
        0.0010000000474974513,
        -60.183048248291016
      ],
      "min": [
        690,
        0,
        -291.2303771972656
      ],
      "type": "VEC3"
    },
    {
      "bufferView": 2,
      "byteOffset": 0,
      "componentType": 5126,
      "count": 593,
      "max": [
        0,
        1,
        0
      ],
      "min": [
        0,
        1,
        0
      ],
      "type": "VEC3"
    },
    {
      "bufferView": 3,
      "byteOffset": 0,
      "componentType": 5126,
      "count": 593,
      "max": [
        0.7872740030288696,
        1,
        1
      ],
      "min": [
        0,
        0.00003051804378628731,
        0.00004577706567943096
      ],
      "type": "VEC3"
    }
  ],
  "buffers": [
    {
      "byteLength": 2664,
      "uri": "data:application/octet-stream;base64,"
    },
    {
      "byteLength": 7116,
      "uri": "data:application/octet-stream;base64,"
    },
    {
      "byteLength": 7116,
      "uri": "data:application/octet-stream;base64,"
    },
    {
      "byteLength": 7116,
      "uri": "data:application/octet-stream;base64,"
    }
  ],
  "bufferViews": [
    {
      "buffer": 0,
      "byteOffset": 0,
      "byteLength": 2664
    },
    {
      "buffer": 1,
      "byteOffset": 0,
      "byteLength": 7116
    },
    {
      "buffer": 2,
      "byteOffset": 0,
      "byteLength": 7116
    },
    {
      "buffer": 3,
      "byteOffset": 0,
      "byteLength": 7116
    }
  ],
  "meshes": [
    {
      "primitives": [
        {
          "mode": 4,
          "indices": 0,
          "attributes": {
            "POSITION": 1,
            "NORMAL": 2,
            "COLOR_0": 3
          }
        }
      ]
    }
  ],
  "nodes": [
    {
      "children": [
        1
      ]
    },
    {
      "mesh": 0
    }
  ],
  "scenes": [
    {
      "nodes": [
        0
      ]
    }
  ],
  "scene": 0
}