{
  "asset": {
    "version": "2.0",
    "generator": "COLLADA2GLTF"
  },
  "accessors": [
    {
      "bufferView": 0,
      "byteOffset": 0,
      "componentType": 5123,
      "count": 4608,
      "min": [
        0
      ],
      "max": [
        3585
      ],
      "type": "SCALAR"
    },
    {
      "bufferView": 1,
      "byteOffset": 0,
      "componentType": 5126,
      "count": 3586,
      "max": [
        422.4988098144531,
        151,
        1023.9197998046875
      ],
      "min": [
        -1878.65283203125,
        0,
        -1138.3367919921875
      ],
      "type": "VEC3"
    },
    {
      "bufferView": 2,
      "byteOffset": 0,
      "componentType": 5126,
      "count": 3586,
      "max": [
        0.9999812245368958,
        1,
        0.9999945759773254
      ],
      "min": [
        -1,
        0,
        -0.9999622106552124
      ],
      "type": "VEC3"
    },
    {
      "bufferView": 3,
      "byteOffset": 0,
      "componentType": 5126,
      "count": 3586,
      "max": [
        0.999786376953125,
        0.7875181436538696,
        0.26330968737602234
      ],
      "min": [
        0.6036774516105652,
        0.00003051804378628731,
        0
      ],
      "type": "VEC3"
    }
  ],
  "buffers": [
    {
      "byteLength": 9216,
      "uri": "data:application/octet-stream;base64,"
    },
    {
      "byteLength": 43032,
      "uri": "data:application/octet-stream;base64,"
    },
    {
      "byteLength": 43032,
      "uri": "data:application/octet-stream;base64,"
    },
    {
      "byteLength": 43032,
      "uri": "data:application/octet-stream;base64,"
    }
  ],
  "bufferViews": [
    {
      "buffer": 0,
      "byteOffset": 0,
      "byteLength": 9216
    },
    {
      "buffer": 1,
      "byteOffset": 0,
      "byteLength": 43032
    },
    {
      "buffer": 2,
      "byteOffset": 0,
      "byteLength": 43032
    },
    {
      "buffer": 3,
      "byteOffset": 0,
      "byteLength": 43032
    }
  ],
  "meshes": [
    {
      "primitives": [
        {
          "mode": 4,
          "indices": 0,
          "attributes": {
            "POSITION": 1,
            "NORMAL": 2,
            "COLOR_0": 3
          }
        }
      ]
    }
  ],
  "nodes": [
    {
      "children": [
        1
      ]
    },
    {
      "mesh": 0
    }
  ],
  "scenes": [
    {
      "nodes": [
        0
      ]
    }
  ],
  "scene": 0
}