{
  "asset": {
    "version": "2.0",
    "generator": "COLLADA2GLTF"
  },
  "accessors": [
    {
      "bufferView": 0,
      "byteOffset": 0,
      "componentType": 5123,
      "count": 1056,
      "min": [
        0
      ],
      "max": [
        370
      ],
      "type": "SCALAR"
    },
    {
      "bufferView": 1,
      "byteOffset": 0,
      "componentType": 5126,
      "count": 371,
      "max": [
        880.0079956054688,
        0.0010000000474974513,
        2831.7041015625
      ],
      "min": [
        -1428.696044921875,
        0,
        -3442.2548828125
      ],
      "type": "VEC3"
    },
    {
      "bufferView": 2,
      "byteOffset": 0,
      "componentType": 5126,
      "count": 371,
      "max": [
        0,
        1,
        0
      ],
      "min": [
        0,
        1,
        0
      ],
      "type": "VEC3"
    },
    {
      "bufferView": 3,
      "byteOffset": 0,
      "componentType": 5126,
      "count": 371,
      "max": [
        0.7872740030288696,
        0.7875028848648071,
        1
      ],
      "min": [
        0,
        0.00003051804378628731,
        0.07325856387615204
      ],
      "type": "VEC3"
    }
  ],
  "buffers": [
    {
      "byteLength": 2112,
      "uri": "data:application/octet-stream;base64,"
    },
    {
      "byteLength": 4452,
      "uri": "data:application/octet-stream;base64,"
    },
    {
      "byteLength": 4452,
      "uri": "data:application/octet-stream;base64,"
    },
    {
      "byteLength": 4452,
      "uri": "data:application/octet-stream;base64,"
    }
  ],
  "bufferViews": [
    {
      "buffer": 0,
      "byteOffset": 0,
      "byteLength": 2112
    },
    {
      "buffer": 1,
      "byteOffset": 0,
      "byteLength": 4452
    },
    {
      "buffer": 2,
      "byteOffset": 0,
      "byteLength": 4452
    },
    {
      "buffer": 3,
      "byteOffset": 0,
      "byteLength": 4452
    }
  ],
  "meshes": [
    {
      "primitives": [
        {
          "mode": 4,
          "indices": 0,
          "attributes": {
            "POSITION": 1,
            "NORMAL": 2,
            "COLOR_0": 3
          }
        }
      ]
    }
  ],
  "nodes": [
    {
      "children": [
        1
      ]
    },
    {
      "mesh": 0
    }
  ],
  "scenes": [
    {
      "nodes": [
        0
      ]
    }
  ],
  "scene": 0
}