{
  "asset": {
    "version": "2.0",
    "generator": "COLLADA2GLTF"
  },
  "accessors": [
    {
      "bufferView": 0,
      "byteOffset": 0,
      "componentType": 5123,
      "count": 1260,
      "min": [
        0
      ],
      "max": [
        443
      ],
      "type": "SCALAR"
    },
    {
      "bufferView": 1,
      "byteOffset": 0,
      "componentType": 5126,
      "count": 444,
      "max": [
        -2319.593505859375,
        9.28499984741211,
        1356.233154296875
      ],
      "min": [
        -2434.215087890625,
        8.274999618530273,
        1311.4290771484375
      ],
      "type": "VEC3"
    },
    {
      "bufferView": 2,
      "byteOffset": 0,
      "componentType": 5126,
      "count": 444,
      "max": [
        0.1490623950958252,
        0.7070947885513306,
        0.6981447339057922
      ],
      "min": [
        -0.1490623950958252,
        -0.7070947885513306,
        -0.6981447339057922
      ],
      "type": "VEC3"
    },
    {
      "bufferView": 3,
      "byteOffset": 0,
      "componentType": 5126,
      "count": 444,
      "max": [
        0,
        0,
        0
      ],
      "min": [
        0,
        0,
        0
      ],
      "type": "VEC3"
    }
  ],
  "buffers": [
    {
      "byteLength": 2520,
      "uri": "data:application/octet-stream;base64,"
    },
    {
      "byteLength": 5328,
      "uri": "data:application/octet-stream;base64,"
    },
    {
      "byteLength": 5328,
      "uri": "data:application/octet-stream;base64,"
    },
    {
      "byteLength": 5328,
      "uri": "data:application/octet-stream;base64,"
    }
  ],
  "bufferViews": [
    {
      "buffer": 0,
      "byteOffset": 0,
      "byteLength": 2520
    },
    {
      "buffer": 1,
      "byteOffset": 0,
      "byteLength": 5328
    },
    {
      "buffer": 2,
      "byteOffset": 0,
      "byteLength": 5328
    },
    {
      "buffer": 3,
      "byteOffset": 0,
      "byteLength": 5328
    }
  ],
  "meshes": [
    {
      "primitives": [
        {
          "mode": 4,
          "indices": 0,
          "attributes": {
            "POSITION": 1,
            "NORMAL": 2,
            "COLOR_0": 3
          }
        }
      ]
    }
  ],
  "nodes": [
    {
      "children": [
        1
      ]
    },
    {
      "mesh": 0
    }
  ],
  "scenes": [
    {
      "nodes": [
        0
      ]
    }
  ],
  "scene": 0
}