{
  "asset": {
    "version": "2.0",
    "generator": "COLLADA2GLTF"
  },
  "accessors": [
    {
      "bufferView": 0,
      "byteOffset": 0,
      "componentType": 5123,
      "count": 1452,
      "min": [
        0
      ],
      "max": [
        642
      ],
      "type": "SCALAR"
    },
    {
      "bufferView": 1,
      "byteOffset": 0,
      "componentType": 5126,
      "count": 643,
      "max": [
        -1410,
        0.0010000000474974513,
        644.7725219726562
      ],
      "min": [
        -1680,
        0,
        285.6164855957031
      ],
      "type": "VEC3"
    },
    {
      "bufferView": 2,
      "byteOffset": 0,
      "componentType": 5126,
      "count": 643,
      "max": [
        0.9570295810699463,
        1,
        0.8901920914649963
      ],
      "min": [
        -0.8964037895202637,
        0,
        -0.9002426266670227
      ],
      "type": "VEC3"
    },
    {
      "bufferView": 3,
      "byteOffset": 0,
      "componentType": 5126,
      "count": 643,
      "max": [
        0.999786376953125,
        1,
        0.7875028848648071
      ],
      "min": [
        0.000015259021893143654,
        0.07324330508708954,
        0.00004577706567943096
      ],
      "type": "VEC3"
    }
  ],
  "buffers": [
    {
      "byteLength": 2904,
      "uri": "data:application/octet-stream;base64,"
    },
    {
      "byteLength": 7716,
      "uri": "data:application/octet-stream;base64,"
    },
    {
      "byteLength": 7716,
      "uri": "data:application/octet-stream;base64,"
    },
    {
      "byteLength": 7716,
      "uri": "data:application/octet-stream;base64,"
    }
  ],
  "bufferViews": [
    {
      "buffer": 0,
      "byteOffset": 0,
      "byteLength": 2904
    },
    {
      "buffer": 1,
      "byteOffset": 0,
      "byteLength": 7716
    },
    {
      "buffer": 2,
      "byteOffset": 0,
      "byteLength": 7716
    },
    {
      "buffer": 3,
      "byteOffset": 0,
      "byteLength": 7716
    }
  ],
  "meshes": [
    {
      "primitives": [
        {
          "mode": 4,
          "indices": 0,
          "attributes": {
            "POSITION": 1,
            "NORMAL": 2,
            "COLOR_0": 3
          }
        }
      ]
    }
  ],
  "nodes": [
    {
      "children": [
        1
      ]
    },
    {
      "mesh": 0
    }
  ],
  "scenes": [
    {
      "nodes": [
        0
      ]
    }
  ],
  "scene": 0
}