{
  "asset": {
    "version": "2.0",
    "generator": "COLLADA2GLTF"
  },
  "accessors": [
    {
      "bufferView": 0,
      "byteOffset": 0,
      "componentType": 5123,
      "count": 4329,
      "min": [
        0
      ],
      "max": [
        1767
      ],
      "type": "SCALAR"
    },
    {
      "bufferView": 1,
      "byteOffset": 0,
      "componentType": 5126,
      "count": 1768,
      "max": [
        878.499755859375,
        0.0010000000474974513,
        -206.7624053955078
      ],
      "min": [
        600.2824096679688,
        0,
        -642.76513671875
      ],
      "type": "VEC3"
    },
    {
      "bufferView": 2,
      "byteOffset": 0,
      "componentType": 5126,
      "count": 1768,
      "max": [
        0.9146956205368042,
        1,
        0.9138059020042419
      ],
      "min": [
        -0.9140371680259705,
        -1,
        -1
      ],
      "type": "VEC3"
    },
    {
      "bufferView": 3,
      "byteOffset": 0,
      "componentType": 5126,
      "count": 1768,
      "max": [
        0.999786376953125,
        1,
        0.7875028848648071
      ],
      "min": [
        0.000015259021893143654,
        0.07324330508708954,
        0.00004577706567943096
      ],
      "type": "VEC3"
    }
  ],
  "buffers": [
    {
      "byteLength": 8658,
      "uri": "data:application/octet-stream;base64,"
    },
    {
      "byteLength": 21216,
      "uri": "data:application/octet-stream;base64,"
    },
    {
      "byteLength": 21216,
      "uri": "data:application/octet-stream;base64,"
    },
    {
      "byteLength": 21216,
      "uri": "data:application/octet-stream;base64,"
    }
  ],
  "bufferViews": [
    {
      "buffer": 0,
      "byteOffset": 0,
      "byteLength": 8658
    },
    {
      "buffer": 1,
      "byteOffset": 0,
      "byteLength": 21216
    },
    {
      "buffer": 2,
      "byteOffset": 0,
      "byteLength": 21216
    },
    {
      "buffer": 3,
      "byteOffset": 0,
      "byteLength": 21216
    }
  ],
  "meshes": [
    {
      "primitives": [
        {
          "mode": 4,
          "indices": 0,
          "attributes": {
            "POSITION": 1,
            "NORMAL": 2,
            "COLOR_0": 3
          }
        }
      ]
    }
  ],
  "nodes": [
    {
      "children": [
        1
      ]
    },
    {
      "mesh": 0
    }
  ],
  "scenes": [
    {
      "nodes": [
        0
      ]
    }
  ],
  "scene": 0
}