{
  "asset": {
    "version": "2.0",
    "generator": "COLLADA2GLTF"
  },
  "accessors": [
    {
      "bufferView": 0,
      "byteOffset": 0,
      "componentType": 5123,
      "count": 6210,
      "min": [
        0
      ],
      "max": [
        2620
      ],
      "type": "SCALAR"
    },
    {
      "bufferView": 1,
      "byteOffset": 0,
      "componentType": 5126,
      "count": 2621,
      "max": [
        -1391.2999267578125,
        7.5,
        -358.3056640625
      ],
      "min": [
        -1740.4620361328125,
        0,
        -780
      ],
      "type": "VEC3"
    },
    {
      "bufferView": 2,
      "byteOffset": 0,
      "componentType": 5126,
      "count": 2621,
      "max": [
        0.9986824989318848,
        1,
        0.9989392161369324
      ],
      "min": [
        -0.9983683228492737,
        0,
        -0.9997689127922058
      ],
      "type": "VEC3"
    },
    {
      "bufferView": 3,
      "byteOffset": 0,
      "componentType": 5126,
      "count": 2621,
      "max": [
        0.999786376953125,
        1,
        0.7875028848648071
      ],
      "min": [
        0.000015259021893143654,
        0.07324330508708954,
        0.00004577706567943096
      ],
      "type": "VEC3"
    }
  ],
  "buffers": [
    {
      "byteLength": 12420,
      "uri": "data:application/octet-stream;base64,"
    },
    {
      "byteLength": 31452,
      "uri": "data:application/octet-stream;base64,"
    },
    {
      "byteLength": 31452,
      "uri": "data:application/octet-stream;base64,"
    },
    {
      "byteLength": 31452,
      "uri": "data:application/octet-stream;base64,"
    }
  ],
  "bufferViews": [
    {
      "buffer": 0,
      "byteOffset": 0,
      "byteLength": 12420
    },
    {
      "buffer": 1,
      "byteOffset": 0,
      "byteLength": 31452
    },
    {
      "buffer": 2,
      "byteOffset": 0,
      "byteLength": 31452
    },
    {
      "buffer": 3,
      "byteOffset": 0,
      "byteLength": 31452
    }
  ],
  "meshes": [
    {
      "primitives": [
        {
          "mode": 4,
          "indices": 0,
          "attributes": {
            "POSITION": 1,
            "NORMAL": 2,
            "COLOR_0": 3
          }
        }
      ]
    }
  ],
  "nodes": [
    {
      "children": [
        1
      ]
    },
    {
      "mesh": 0
    }
  ],
  "scenes": [
    {
      "nodes": [
        0
      ]
    }
  ],
  "scene": 0
}