{
  "asset": {
    "version": "2.0",
    "generator": "COLLADA2GLTF"
  },
  "accessors": [
    {
      "bufferView": 0,
      "byteOffset": 0,
      "componentType": 5123,
      "count": 489,
      "min": [
        0
      ],
      "max": [
        255
      ],
      "type": "SCALAR"
    },
    {
      "bufferView": 1,
      "byteOffset": 0,
      "componentType": 5126,
      "count": 256,
      "max": [
        -295.72271728515625,
        7.5,
        -817.643798828125
      ],
      "min": [
        -570,
        0,
        -1034.64697265625
      ],
      "type": "VEC3"
    },
    {
      "bufferView": 2,
      "byteOffset": 0,
      "componentType": 5126,
      "count": 256,
      "max": [
        0.8261516690254211,
        1,
        0.7940852046012878
      ],
      "min": [
        -0.8081873655319214,
        0,
        -0.8688399195671082
      ],
      "type": "VEC3"
    },
    {
      "bufferView": 3,
      "byteOffset": 0,
      "componentType": 5126,
      "count": 256,
      "max": [
        0.999786376953125,
        1,
        0.26330968737602234
      ],
      "min": [
        0,
        0.07324330508708954,
        0.000015259021893143654
      ],
      "type": "VEC3"
    }
  ],
  "buffers": [
    {
      "byteLength": 978,
      "uri": "data:application/octet-stream;base64,"
    },
    {
      "byteLength": 3072,
      "uri": "data:application/octet-stream;base64,"
    },
    {
      "byteLength": 3072,
      "uri": "data:application/octet-stream;base64,"
    },
    {
      "byteLength": 3072,
      "uri": "data:application/octet-stream;base64,"
    }
  ],
  "bufferViews": [
    {
      "buffer": 0,
      "byteOffset": 0,
      "byteLength": 978
    },
    {
      "buffer": 1,
      "byteOffset": 0,
      "byteLength": 3072
    },
    {
      "buffer": 2,
      "byteOffset": 0,
      "byteLength": 3072
    },
    {
      "buffer": 3,
      "byteOffset": 0,
      "byteLength": 3072
    }
  ],
  "meshes": [
    {
      "primitives": [
        {
          "mode": 4,
          "indices": 0,
          "attributes": {
            "POSITION": 1,
            "NORMAL": 2,
            "COLOR_0": 3
          }
        }
      ]
    }
  ],
  "nodes": [
    {
      "children": [
        1
      ]
    },
    {
      "mesh": 0
    }
  ],
  "scenes": [
    {
      "nodes": [
        0
      ]
    }
  ],
  "scene": 0
}