{
  "asset": {
    "version": "2.0",
    "generator": "COLLADA2GLTF"
  },
  "accessors": [
    {
      "bufferView": 0,
      "byteOffset": 0,
      "componentType": 5123,
      "count": 2409,
      "min": [
        0
      ],
      "max": [
        984
      ],
      "type": "SCALAR"
    },
    {
      "bufferView": 1,
      "byteOffset": 0,
      "componentType": 5126,
      "count": 985,
      "max": [
        3411.2890625,
        0.0010000000474974513,
        268.4339904785156
      ],
      "min": [
        3017.594970703125,
        0,
        -332.30438232421875
      ],
      "type": "VEC3"
    },
    {
      "bufferView": 2,
      "byteOffset": 0,
      "componentType": 5126,
      "count": 985,
      "max": [
        0,
        1,
        0
      ],
      "min": [
        0,
        1,
        0
      ],
      "type": "VEC3"
    },
    {
      "bufferView": 3,
      "byteOffset": 0,
      "componentType": 5126,
      "count": 985,
      "max": [
        0.7872740030288696,
        1,
        0.7875028848648071
      ],
      "min": [
        0.000015259021893143654,
        0.000015259021893143654,
        0
      ],
      "type": "VEC3"
    }
  ],
  "buffers": [
    {
      "byteLength": 4818,
      "uri": "data:application/octet-stream;base64,"
    },
    {
      "byteLength": 11820,
      "uri": "data:application/octet-stream;base64,"
    },
    {
      "byteLength": 11820,
      "uri": "data:application/octet-stream;base64,"
    },
    {
      "byteLength": 11820,
      "uri": "data:application/octet-stream;base64,"
    }
  ],
  "bufferViews": [
    {
      "buffer": 0,
      "byteOffset": 0,
      "byteLength": 4818
    },
    {
      "buffer": 1,
      "byteOffset": 0,
      "byteLength": 11820
    },
    {
      "buffer": 2,
      "byteOffset": 0,
      "byteLength": 11820
    },
    {
      "buffer": 3,
      "byteOffset": 0,
      "byteLength": 11820
    }
  ],
  "meshes": [
    {
      "primitives": [
        {
          "mode": 4,
          "indices": 0,
          "attributes": {
            "POSITION": 1,
            "NORMAL": 2,
            "COLOR_0": 3
          }
        }
      ]
    }
  ],
  "nodes": [
    {
      "children": [
        1
      ]
    },
    {
      "mesh": 0
    }
  ],
  "scenes": [
    {
      "nodes": [
        0
      ]
    }
  ],
  "scene": 0
}