{
  "asset": {
    "version": "2.0",
    "generator": "COLLADA2GLTF"
  },
  "accessors": [
    {
      "bufferView": 0,
      "byteOffset": 0,
      "componentType": 5123,
      "count": 66,
      "min": [
        0
      ],
      "max": [
        38
      ],
      "type": "SCALAR"
    },
    {
      "bufferView": 1,
      "byteOffset": 0,
      "componentType": 5126,
      "count": 39,
      "max": [
        -1670.0936279296875,
        0,
        2003.9127197265625
      ],
      "min": [
        -1744.313232421875,
        0,
        1933.755859375
      ],
      "type": "VEC3"
    },
    {
      "bufferView": 2,
      "byteOffset": 0,
      "componentType": 5126,
      "count": 39,
      "max": [
        0,
        1,
        0
      ],
      "min": [
        0,
        1,
        0
      ],
      "type": "VEC3"
    },
    {
      "bufferView": 3,
      "byteOffset": 0,
      "componentType": 5126,
      "count": 39,
      "max": [
        0.07322804629802704,
        1,
        0.07325856387615204
      ],
      "min": [
        0.000015259021893143654,
        0.05127031356096268,
        0.00004577706567943096
      ],
      "type": "VEC3"
    }
  ],
  "buffers": [
    {
      "byteLength": 132,
      "uri": "data:application/octet-stream;base64,"
    },
    {
      "byteLength": 468,
      "uri": "data:application/octet-stream;base64,"
    },
    {
      "byteLength": 468,
      "uri": "data:application/octet-stream;base64,"
    },
    {
      "byteLength": 468,
      "uri": "data:application/octet-stream;base64,"
    }
  ],
  "bufferViews": [
    {
      "buffer": 0,
      "byteOffset": 0,
      "byteLength": 132
    },
    {
      "buffer": 1,
      "byteOffset": 0,
      "byteLength": 468
    },
    {
      "buffer": 2,
      "byteOffset": 0,
      "byteLength": 468
    },
    {
      "buffer": 3,
      "byteOffset": 0,
      "byteLength": 468
    }
  ],
  "meshes": [
    {
      "primitives": [
        {
          "mode": 4,
          "indices": 0,
          "attributes": {
            "POSITION": 1,
            "NORMAL": 2,
            "COLOR_0": 3
          }
        }
      ]
    }
  ],
  "nodes": [
    {
      "children": [
        1
      ]
    },
    {
      "mesh": 0
    }
  ],
  "scenes": [
    {
      "nodes": [
        0
      ]
    }
  ],
  "scene": 0
}