{
  "asset": {
    "version": "2.0",
    "generator": "COLLADA2GLTF"
  },
  "accessors": [
    {
      "bufferView": 0,
      "byteOffset": 0,
      "componentType": 5123,
      "count": 174,
      "min": [
        0
      ],
      "max": [
        101
      ],
      "type": "SCALAR"
    },
    {
      "bufferView": 1,
      "byteOffset": 0,
      "componentType": 5126,
      "count": 102,
      "max": [
        -2118.287109375,
        24.524999618530273,
        1360.6826171875
      ],
      "min": [
        -2739.31103515625,
        22.315000534057617,
        1213.460205078125
      ],
      "type": "VEC3"
    },
    {
      "bufferView": 2,
      "byteOffset": 0,
      "componentType": 5126,
      "count": 102,
      "max": [
        0.8345339298248291,
        0.7061262130737305,
        0.7271869778633118
      ],
      "min": [
        -0.4836101531982422,
        -0.7061262130737305,
        -0.8309799432754517
      ],
      "type": "VEC3"
    },
    {
      "bufferView": 3,
      "byteOffset": 0,
      "componentType": 5126,
      "count": 102,
      "max": [
        0.999786376953125,
        0.7875181436538696,
        0.26330968737602234
      ],
      "min": [
        0,
        0,
        0
      ],
      "type": "VEC3"
    }
  ],
  "buffers": [
    {
      "byteLength": 348,
      "uri": "data:application/octet-stream;base64,"
    },
    {
      "byteLength": 1224,
      "uri": "data:application/octet-stream;base64,"
    },
    {
      "byteLength": 1224,
      "uri": "data:application/octet-stream;base64,"
    },
    {
      "byteLength": 1224,
      "uri": "data:application/octet-stream;base64,"
    }
  ],
  "bufferViews": [
    {
      "buffer": 0,
      "byteOffset": 0,
      "byteLength": 348
    },
    {
      "buffer": 1,
      "byteOffset": 0,
      "byteLength": 1224
    },
    {
      "buffer": 2,
      "byteOffset": 0,
      "byteLength": 1224
    },
    {
      "buffer": 3,
      "byteOffset": 0,
      "byteLength": 1224
    }
  ],
  "meshes": [
    {
      "primitives": [
        {
          "mode": 4,
          "indices": 0,
          "attributes": {
            "POSITION": 1,
            "NORMAL": 2,
            "COLOR_0": 3
          }
        }
      ]
    }
  ],
  "nodes": [
    {
      "children": [
        1
      ]
    },
    {
      "mesh": 0
    }
  ],
  "scenes": [
    {
      "nodes": [
        0
      ]
    }
  ],
  "scene": 0
}