{
  "asset": {
    "version": "2.0",
    "generator": "COLLADA2GLTF"
  },
  "accessors": [
    {
      "bufferView": 0,
      "byteOffset": 0,
      "componentType": 5123,
      "count": 3543,
      "min": [
        0
      ],
      "max": [
        1707
      ],
      "type": "SCALAR"
    },
    {
      "bufferView": 1,
      "byteOffset": 0,
      "componentType": 5126,
      "count": 1708,
      "max": [
        1289.361083984375,
        0,
        -1560
      ],
      "min": [
        724.0795288085938,
        0,
        -1951.14404296875
      ],
      "type": "VEC3"
    },
    {
      "bufferView": 2,
      "byteOffset": 0,
      "componentType": 5126,
      "count": 1708,
      "max": [
        0.9536017179489136,
        1,
        0.9899595975875854
      ],
      "min": [
        -0.9961598515510559,
        0,
        -0.9783145189285278
      ],
      "type": "VEC3"
    },
    {
      "bufferView": 3,
      "byteOffset": 0,
      "componentType": 5126,
      "count": 1708,
      "max": [
        0.999786376953125,
        1,
        1
      ],
      "min": [
        0,
        0.00003051804378628731,
        0.00004577706567943096
      ],
      "type": "VEC3"
    }
  ],
  "buffers": [
    {
      "byteLength": 7086,
      "uri": "data:application/octet-stream;base64,"
    },
    {
      "byteLength": 20496,
      "uri": "data:application/octet-stream;base64,"
    },
    {
      "byteLength": 20496,
      "uri": "data:application/octet-stream;base64,"
    },
    {
      "byteLength": 20496,
      "uri": "data:application/octet-stream;base64,"
    }
  ],
  "bufferViews": [
    {
      "buffer": 0,
      "byteOffset": 0,
      "byteLength": 7086
    },
    {
      "buffer": 1,
      "byteOffset": 0,
      "byteLength": 20496
    },
    {
      "buffer": 2,
      "byteOffset": 0,
      "byteLength": 20496
    },
    {
      "buffer": 3,
      "byteOffset": 0,
      "byteLength": 20496
    }
  ],
  "meshes": [
    {
      "primitives": [
        {
          "mode": 4,
          "indices": 0,
          "attributes": {
            "POSITION": 1,
            "NORMAL": 2,
            "COLOR_0": 3
          }
        }
      ]
    }
  ],
  "nodes": [
    {
      "children": [
        1
      ]
    },
    {
      "mesh": 0
    }
  ],
  "scenes": [
    {
      "nodes": [
        0
      ]
    }
  ],
  "scene": 0
}