{
  "asset": {
    "version": "2.0",
    "generator": "COLLADA2GLTF"
  },
  "accessors": [
    {
      "bufferView": 0,
      "byteOffset": 0,
      "componentType": 5123,
      "count": 645,
      "min": [
        0
      ],
      "max": [
        289
      ],
      "type": "SCALAR"
    },
    {
      "bufferView": 1,
      "byteOffset": 0,
      "componentType": 5126,
      "count": 290,
      "max": [
        -5437.76220703125,
        14.5,
        -728.1920776367188
      ],
      "min": [
        -5556.90478515625,
        9.28499984741211,
        -780.4698486328125
      ],
      "type": "VEC3"
    },
    {
      "bufferView": 2,
      "byteOffset": 0,
      "componentType": 5126,
      "count": 290,
      "max": [
        0.9178945422172546,
        0.7066951990127563,
        0.9178945422172546
      ],
      "min": [
        -0.9178945422172546,
        -0.7063007354736328,
        -0.9178945422172546
      ],
      "type": "VEC3"
    },
    {
      "bufferView": 3,
      "byteOffset": 0,
      "componentType": 5126,
      "count": 290,
      "max": [
        0.4480048716068268,
        0.4480048716068268,
        0.4480659067630768
      ],
      "min": [
        0,
        0,
        0
      ],
      "type": "VEC3"
    }
  ],
  "buffers": [
    {
      "byteLength": 1290,
      "uri": "data:application/octet-stream;base64,"
    },
    {
      "byteLength": 3480,
      "uri": "data:application/octet-stream;base64,"
    },
    {
      "byteLength": 3480,
      "uri": "data:application/octet-stream;base64,"
    },
    {
      "byteLength": 3480,
      "uri": "data:application/octet-stream;base64,"
    }
  ],
  "bufferViews": [
    {
      "buffer": 0,
      "byteOffset": 0,
      "byteLength": 1290
    },
    {
      "buffer": 1,
      "byteOffset": 0,
      "byteLength": 3480
    },
    {
      "buffer": 2,
      "byteOffset": 0,
      "byteLength": 3480
    },
    {
      "buffer": 3,
      "byteOffset": 0,
      "byteLength": 3480
    }
  ],
  "meshes": [
    {
      "primitives": [
        {
          "mode": 4,
          "indices": 0,
          "attributes": {
            "POSITION": 1,
            "NORMAL": 2,
            "COLOR_0": 3
          }
        }
      ]
    }
  ],
  "nodes": [
    {
      "children": [
        1
      ]
    },
    {
      "mesh": 0
    }
  ],
  "scenes": [
    {
      "nodes": [
        0
      ]
    }
  ],
  "scene": 0
}