{
  "asset": {
    "version": "2.0",
    "generator": "COLLADA2GLTF"
  },
  "accessors": [
    {
      "bufferView": 0,
      "byteOffset": 0,
      "componentType": 5123,
      "count": 2976,
      "min": [
        0
      ],
      "max": [
        1299
      ],
      "type": "SCALAR"
    },
    {
      "bufferView": 1,
      "byteOffset": 0,
      "componentType": 5126,
      "count": 1300,
      "max": [
        156.70700073242188,
        0.10000000149011612,
        308.83099365234375
      ],
      "min": [
        -1009.4970092773438,
        0,
        -1178.491943359375
      ],
      "type": "VEC3"
    },
    {
      "bufferView": 2,
      "byteOffset": 0,
      "componentType": 5126,
      "count": 1300,
      "max": [
        1,
        1,
        0.9995259046554565
      ],
      "min": [
        -1,
        0,
        -0.9994465708732605
      ],
      "type": "VEC3"
    },
    {
      "bufferView": 3,
      "byteOffset": 0,
      "componentType": 5126,
      "count": 1300,
      "max": [
        0.999786376953125,
        1,
        1
      ],
      "min": [
        0,
        0.00003051804378628731,
        0.00004577706567943096
      ],
      "type": "VEC3"
    }
  ],
  "buffers": [
    {
      "byteLength": 5952,
      "uri": "data:application/octet-stream;base64,"
    },
    {
      "byteLength": 15600,
      "uri": "data:application/octet-stream;base64,"
    },
    {
      "byteLength": 15600,
      "uri": "data:application/octet-stream;base64,"
    },
    {
      "byteLength": 15600,
      "uri": "data:application/octet-stream;base64,"
    }
  ],
  "bufferViews": [
    {
      "buffer": 0,
      "byteOffset": 0,
      "byteLength": 5952
    },
    {
      "buffer": 1,
      "byteOffset": 0,
      "byteLength": 15600
    },
    {
      "buffer": 2,
      "byteOffset": 0,
      "byteLength": 15600
    },
    {
      "buffer": 3,
      "byteOffset": 0,
      "byteLength": 15600
    }
  ],
  "meshes": [
    {
      "primitives": [
        {
          "mode": 4,
          "indices": 0,
          "attributes": {
            "POSITION": 1,
            "NORMAL": 2,
            "COLOR_0": 3
          }
        }
      ]
    }
  ],
  "nodes": [
    {
      "children": [
        1
      ]
    },
    {
      "mesh": 0
    }
  ],
  "scenes": [
    {
      "nodes": [
        0
      ]
    }
  ],
  "scene": 0
}