{
  "asset": {
    "version": "2.0",
    "generator": "COLLADA2GLTF"
  },
  "accessors": [
    {
      "bufferView": 0,
      "byteOffset": 0,
      "componentType": 5123,
      "count": 279,
      "min": [
        0
      ],
      "max": [
        210
      ],
      "type": "SCALAR"
    },
    {
      "bufferView": 1,
      "byteOffset": 0,
      "componentType": 5126,
      "count": 211,
      "max": [
        -2731.42724609375,
        55,
        1818.605712890625
      ],
      "min": [
        -3216.162841796875,
        0,
        1575.7757568359375
      ],
      "type": "VEC3"
    },
    {
      "bufferView": 2,
      "byteOffset": 0,
      "componentType": 5126,
      "count": 211,
      "max": [
        1,
        0,
        1
      ],
      "min": [
        -0.9992043375968933,
        0,
        -0.9957076907157898
      ],
      "type": "VEC3"
    },
    {
      "bufferView": 3,
      "byteOffset": 0,
      "componentType": 5126,
      "count": 211,
      "max": [
        0.999786376953125,
        0.7875181436538696,
        0.26330968737602234
      ],
      "min": [
        0.00004577706567943096,
        0.21403829753398895,
        0
      ],
      "type": "VEC3"
    }
  ],
  "buffers": [
    {
      "byteLength": 558,
      "uri": "data:application/octet-stream;base64,"
    },
    {
      "byteLength": 2532,
      "uri": "data:application/octet-stream;base64,"
    },
    {
      "byteLength": 2532,
      "uri": "data:application/octet-stream;base64,"
    },
    {
      "byteLength": 2532,
      "uri": "data:application/octet-stream;base64,"
    }
  ],
  "bufferViews": [
    {
      "buffer": 0,
      "byteOffset": 0,
      "byteLength": 558
    },
    {
      "buffer": 1,
      "byteOffset": 0,
      "byteLength": 2532
    },
    {
      "buffer": 2,
      "byteOffset": 0,
      "byteLength": 2532
    },
    {
      "buffer": 3,
      "byteOffset": 0,
      "byteLength": 2532
    }
  ],
  "meshes": [
    {
      "primitives": [
        {
          "mode": 4,
          "indices": 0,
          "attributes": {
            "POSITION": 1,
            "NORMAL": 2,
            "COLOR_0": 3
          }
        }
      ]
    }
  ],
  "nodes": [
    {
      "children": [
        1
      ]
    },
    {
      "mesh": 0
    }
  ],
  "scenes": [
    {
      "nodes": [
        0
      ]
    }
  ],
  "scene": 0
}