{
  "asset": {
    "version": "2.0",
    "generator": "COLLADA2GLTF"
  },
  "accessors": [
    {
      "bufferView": 0,
      "byteOffset": 0,
      "componentType": 5123,
      "count": 651,
      "min": [
        0
      ],
      "max": [
        353
      ],
      "type": "SCALAR"
    },
    {
      "bufferView": 1,
      "byteOffset": 0,
      "componentType": 5126,
      "count": 354,
      "max": [
        1530,
        7.5,
        120
      ],
      "min": [
        1265.53564453125,
        0,
        -180
      ],
      "type": "VEC3"
    },
    {
      "bufferView": 2,
      "byteOffset": 0,
      "componentType": 5126,
      "count": 354,
      "max": [
        0.9832984209060669,
        1,
        0.9771296977996826
      ],
      "min": [
        -0.9772568345069885,
        0,
        -0.9792969226837158
      ],
      "type": "VEC3"
    },
    {
      "bufferView": 3,
      "byteOffset": 0,
      "componentType": 5126,
      "count": 354,
      "max": [
        0.999786376953125,
        1,
        0.26330968737602234
      ],
      "min": [
        0.000015259021893143654,
        0.07324330508708954,
        0.00004577706567943096
      ],
      "type": "VEC3"
    }
  ],
  "buffers": [
    {
      "byteLength": 1302,
      "uri": "data:application/octet-stream;base64,"
    },
    {
      "byteLength": 4248,
      "uri": "data:application/octet-stream;base64,"
    },
    {
      "byteLength": 4248,
      "uri": "data:application/octet-stream;base64,"
    },
    {
      "byteLength": 4248,
      "uri": "data:application/octet-stream;base64,"
    }
  ],
  "bufferViews": [
    {
      "buffer": 0,
      "byteOffset": 0,
      "byteLength": 1302
    },
    {
      "buffer": 1,
      "byteOffset": 0,
      "byteLength": 4248
    },
    {
      "buffer": 2,
      "byteOffset": 0,
      "byteLength": 4248
    },
    {
      "buffer": 3,
      "byteOffset": 0,
      "byteLength": 4248
    }
  ],
  "meshes": [
    {
      "primitives": [
        {
          "mode": 4,
          "indices": 0,
          "attributes": {
            "POSITION": 1,
            "NORMAL": 2,
            "COLOR_0": 3
          }
        }
      ]
    }
  ],
  "nodes": [
    {
      "children": [
        1
      ]
    },
    {
      "mesh": 0
    }
  ],
  "scenes": [
    {
      "nodes": [
        0
      ]
    }
  ],
  "scene": 0
}