{
  "asset": {
    "version": "2.0",
    "generator": "COLLADA2GLTF"
  },
  "accessors": [
    {
      "bufferView": 0,
      "byteOffset": 0,
      "componentType": 5123,
      "count": 2556,
      "min": [
        0
      ],
      "max": [
        952
      ],
      "type": "SCALAR"
    },
    {
      "bufferView": 1,
      "byteOffset": 0,
      "componentType": 5126,
      "count": 953,
      "max": [
        516.5713500976562,
        19.5,
        5280.30712890625
      ],
      "min": [
        -140.27618408203125,
        12,
        4992.39501953125
      ],
      "type": "VEC3"
    },
    {
      "bufferView": 2,
      "byteOffset": 0,
      "componentType": 5126,
      "count": 953,
      "max": [
        0.928589940071106,
        0.7071016430854797,
        0.928589940071106
      ],
      "min": [
        -0.928589940071106,
        -0.7071016430854797,
        -0.928589940071106
      ],
      "type": "VEC3"
    },
    {
      "bufferView": 3,
      "byteOffset": 0,
      "componentType": 5126,
      "count": 953,
      "max": [
        0.4480048716068268,
        0.4480048716068268,
        0.4480659067630768
      ],
      "min": [
        0,
        0,
        0
      ],
      "type": "VEC3"
    }
  ],
  "buffers": [
    {
      "byteLength": 5112,
      "uri": "data:application/octet-stream;base64,"
    },
    {
      "byteLength": 11436,
      "uri": "data:application/octet-stream;base64,"
    },
    {
      "byteLength": 11436,
      "uri": "data:application/octet-stream;base64,"
    },
    {
      "byteLength": 11436,
      "uri": "data:application/octet-stream;base64,"
    }
  ],
  "bufferViews": [
    {
      "buffer": 0,
      "byteOffset": 0,
      "byteLength": 5112
    },
    {
      "buffer": 1,
      "byteOffset": 0,
      "byteLength": 11436
    },
    {
      "buffer": 2,
      "byteOffset": 0,
      "byteLength": 11436
    },
    {
      "buffer": 3,
      "byteOffset": 0,
      "byteLength": 11436
    }
  ],
  "meshes": [
    {
      "primitives": [
        {
          "mode": 4,
          "indices": 0,
          "attributes": {
            "POSITION": 1,
            "NORMAL": 2,
            "COLOR_0": 3
          }
        }
      ]
    }
  ],
  "nodes": [
    {
      "children": [
        1
      ]
    },
    {
      "mesh": 0
    }
  ],
  "scenes": [
    {
      "nodes": [
        0
      ]
    }
  ],
  "scene": 0
}