{
  "asset": {
    "version": "2.0",
    "generator": "COLLADA2GLTF"
  },
  "accessors": [
    {
      "bufferView": 0,
      "byteOffset": 0,
      "componentType": 5123,
      "count": 657,
      "min": [
        0
      ],
      "max": [
        259
      ],
      "type": "SCALAR"
    },
    {
      "bufferView": 1,
      "byteOffset": 0,
      "componentType": 5126,
      "count": 260,
      "max": [
        919.8779907226562,
        7.5,
        -1015.9244384765625
      ],
      "min": [
        636.2820434570312,
        0,
        -1306.0946044921875
      ],
      "type": "VEC3"
    },
    {
      "bufferView": 2,
      "byteOffset": 0,
      "componentType": 5126,
      "count": 260,
      "max": [
        0.8958384990692139,
        1,
        0.4443798065185547
      ],
      "min": [
        -0.8957183361053467,
        0,
        -0.8958194255828857
      ],
      "type": "VEC3"
    },
    {
      "bufferView": 3,
      "byteOffset": 0,
      "componentType": 5126,
      "count": 260,
      "max": [
        0.999786376953125,
        0.7875181436538696,
        0.7875028848648071
      ],
      "min": [
        0.07322804629802704,
        0.07324330508708954,
        0.07325856387615204
      ],
      "type": "VEC3"
    }
  ],
  "buffers": [
    {
      "byteLength": 1314,
      "uri": "data:application/octet-stream;base64,"
    },
    {
      "byteLength": 3120,
      "uri": "data:application/octet-stream;base64,"
    },
    {
      "byteLength": 3120,
      "uri": "data:application/octet-stream;base64,"
    },
    {
      "byteLength": 3120,
      "uri": "data:application/octet-stream;base64,"
    }
  ],
  "bufferViews": [
    {
      "buffer": 0,
      "byteOffset": 0,
      "byteLength": 1314
    },
    {
      "buffer": 1,
      "byteOffset": 0,
      "byteLength": 3120
    },
    {
      "buffer": 2,
      "byteOffset": 0,
      "byteLength": 3120
    },
    {
      "buffer": 3,
      "byteOffset": 0,
      "byteLength": 3120
    }
  ],
  "meshes": [
    {
      "primitives": [
        {
          "mode": 4,
          "indices": 0,
          "attributes": {
            "POSITION": 1,
            "NORMAL": 2,
            "COLOR_0": 3
          }
        }
      ]
    }
  ],
  "nodes": [
    {
      "children": [
        1
      ]
    },
    {
      "mesh": 0
    }
  ],
  "scenes": [
    {
      "nodes": [
        0
      ]
    }
  ],
  "scene": 0
}