{
  "asset": {
    "version": "2.0",
    "generator": "COLLADA2GLTF"
  },
  "accessors": [
    {
      "bufferView": 0,
      "byteOffset": 0,
      "componentType": 5123,
      "count": 4854,
      "min": [
        0
      ],
      "max": [
        1787
      ],
      "type": "SCALAR"
    },
    {
      "bufferView": 1,
      "byteOffset": 0,
      "componentType": 5126,
      "count": 1788,
      "max": [
        1464.1270751953125,
        19.5,
        -2282.287353515625
      ],
      "min": [
        1067.44140625,
        12,
        -2495.233642578125
      ],
      "type": "VEC3"
    },
    {
      "bufferView": 2,
      "byteOffset": 0,
      "componentType": 5126,
      "count": 1788,
      "max": [
        0.8729280233383179,
        0.7070847749710083,
        0.8729280233383179
      ],
      "min": [
        -0.8729280233383179,
        -0.7070847749710083,
        -0.8729280233383179
      ],
      "type": "VEC3"
    },
    {
      "bufferView": 3,
      "byteOffset": 0,
      "componentType": 5126,
      "count": 1788,
      "max": [
        0.4480048716068268,
        0.4480048716068268,
        0.4480659067630768
      ],
      "min": [
        0,
        0,
        0
      ],
      "type": "VEC3"
    }
  ],
  "buffers": [
    {
      "byteLength": 9708,
      "uri": "data:application/octet-stream;base64,"
    },
    {
      "byteLength": 21456,
      "uri": "data:application/octet-stream;base64,"
    },
    {
      "byteLength": 21456,
      "uri": "data:application/octet-stream;base64,"
    },
    {
      "byteLength": 21456,
      "uri": "data:application/octet-stream;base64,"
    }
  ],
  "bufferViews": [
    {
      "buffer": 0,
      "byteOffset": 0,
      "byteLength": 9708
    },
    {
      "buffer": 1,
      "byteOffset": 0,
      "byteLength": 21456
    },
    {
      "buffer": 2,
      "byteOffset": 0,
      "byteLength": 21456
    },
    {
      "buffer": 3,
      "byteOffset": 0,
      "byteLength": 21456
    }
  ],
  "meshes": [
    {
      "primitives": [
        {
          "mode": 4,
          "indices": 0,
          "attributes": {
            "POSITION": 1,
            "NORMAL": 2,
            "COLOR_0": 3
          }
        }
      ]
    }
  ],
  "nodes": [
    {
      "children": [
        1
      ]
    },
    {
      "mesh": 0
    }
  ],
  "scenes": [
    {
      "nodes": [
        0
      ]
    }
  ],
  "scene": 0
}