{
  "asset": {
    "version": "2.0",
    "generator": "COLLADA2GLTF"
  },
  "accessors": [
    {
      "bufferView": 0,
      "byteOffset": 0,
      "componentType": 5123,
      "count": 429,
      "min": [
        0
      ],
      "max": [
        156
      ],
      "type": "SCALAR"
    },
    {
      "bufferView": 1,
      "byteOffset": 0,
      "componentType": 5126,
      "count": 157,
      "max": [
        2570.38671875,
        0,
        -1730.078369140625
      ],
      "min": [
        2263.916259765625,
        -3,
        -1956.8262939453125
      ],
      "type": "VEC3"
    },
    {
      "bufferView": 2,
      "byteOffset": 0,
      "componentType": 5126,
      "count": 157,
      "max": [
        0.8006652593612671,
        1,
        0.8006652593612671
      ],
      "min": [
        -0.8006652593612671,
        0,
        -0.8006652593612671
      ],
      "type": "VEC3"
    },
    {
      "bufferView": 3,
      "byteOffset": 0,
      "componentType": 5126,
      "count": 157,
      "max": [
        0.21585412323474884,
        0.21585412323474884,
        0.21589989960193634
      ],
      "min": [
        0.21585412323474884,
        0.21585412323474884,
        0.21589989960193634
      ],
      "type": "VEC3"
    }
  ],
  "buffers": [
    {
      "byteLength": 858,
      "uri": "data:application/octet-stream;base64,"
    },
    {
      "byteLength": 1884,
      "uri": "data:application/octet-stream;base64,"
    },
    {
      "byteLength": 1884,
      "uri": "data:application/octet-stream;base64,"
    },
    {
      "byteLength": 1884,
      "uri": "data:application/octet-stream;base64,"
    }
  ],
  "bufferViews": [
    {
      "buffer": 0,
      "byteOffset": 0,
      "byteLength": 858
    },
    {
      "buffer": 1,
      "byteOffset": 0,
      "byteLength": 1884
    },
    {
      "buffer": 2,
      "byteOffset": 0,
      "byteLength": 1884
    },
    {
      "buffer": 3,
      "byteOffset": 0,
      "byteLength": 1884
    }
  ],
  "meshes": [
    {
      "primitives": [
        {
          "mode": 4,
          "indices": 0,
          "attributes": {
            "POSITION": 1,
            "NORMAL": 2,
            "COLOR_0": 3
          }
        }
      ]
    }
  ],
  "nodes": [
    {
      "children": [
        1
      ]
    },
    {
      "mesh": 0
    }
  ],
  "scenes": [
    {
      "nodes": [
        0
      ]
    }
  ],
  "scene": 0
}