{
  "asset": {
    "version": "2.0",
    "generator": "COLLADA2GLTF"
  },
  "accessors": [
    {
      "bufferView": 0,
      "byteOffset": 0,
      "componentType": 5123,
      "count": 5346,
      "min": [
        0
      ],
      "max": [
        3047
      ],
      "type": "SCALAR"
    },
    {
      "bufferView": 1,
      "byteOffset": 0,
      "componentType": 5126,
      "count": 3048,
      "max": [
        1435.2054443359375,
        82.5,
        -1663.9410400390625
      ],
      "min": [
        474.3016357421875,
        0,
        -2488.654541015625
      ],
      "type": "VEC3"
    },
    {
      "bufferView": 2,
      "byteOffset": 0,
      "componentType": 5126,
      "count": 3048,
      "max": [
        0.9536017179489136,
        0.7068930268287659,
        0.9900304079055786
      ],
      "min": [
        -0.9961647987365723,
        -0.7065134644508362,
        -0.9783145189285278
      ],
      "type": "VEC3"
    },
    {
      "bufferView": 3,
      "byteOffset": 0,
      "componentType": 5126,
      "count": 3048,
      "max": [
        0.999786376953125,
        0.7875181436538696,
        0.4480659067630768
      ],
      "min": [
        0,
        0,
        0
      ],
      "type": "VEC3"
    }
  ],
  "buffers": [
    {
      "byteLength": 10692,
      "uri": "data:application/octet-stream;base64,"
    },
    {
      "byteLength": 36576,
      "uri": "data:application/octet-stream;base64,"
    },
    {
      "byteLength": 36576,
      "uri": "data:application/octet-stream;base64,"
    },
    {
      "byteLength": 36576,
      "uri": "data:application/octet-stream;base64,"
    }
  ],
  "bufferViews": [
    {
      "buffer": 0,
      "byteOffset": 0,
      "byteLength": 10692
    },
    {
      "buffer": 1,
      "byteOffset": 0,
      "byteLength": 36576
    },
    {
      "buffer": 2,
      "byteOffset": 0,
      "byteLength": 36576
    },
    {
      "buffer": 3,
      "byteOffset": 0,
      "byteLength": 36576
    }
  ],
  "meshes": [
    {
      "primitives": [
        {
          "mode": 4,
          "indices": 0,
          "attributes": {
            "POSITION": 1,
            "NORMAL": 2,
            "COLOR_0": 3
          }
        }
      ]
    }
  ],
  "nodes": [
    {
      "children": [
        1
      ]
    },
    {
      "mesh": 0
    }
  ],
  "scenes": [
    {
      "nodes": [
        0
      ]
    }
  ],
  "scene": 0
}