{
  "asset": {
    "version": "2.0",
    "generator": "COLLADA2GLTF"
  },
  "accessors": [
    {
      "bufferView": 0,
      "byteOffset": 0,
      "componentType": 5123,
      "count": 3489,
      "min": [
        0
      ],
      "max": [
        1371
      ],
      "type": "SCALAR"
    },
    {
      "bufferView": 1,
      "byteOffset": 0,
      "componentType": 5126,
      "count": 1372,
      "max": [
        -231.529296875,
        7.5,
        -814.15673828125
      ],
      "min": [
        -343.12493896484375,
        -0.20000000298023224,
        -1041.16650390625
      ],
      "type": "VEC3"
    },
    {
      "bufferView": 2,
      "byteOffset": 0,
      "componentType": 5126,
      "count": 1372,
      "max": [
        0.9492672681808472,
        1,
        0.9393957853317261
      ],
      "min": [
        -0.9489405155181885,
        -1,
        -0.8946529626846313
      ],
      "type": "VEC3"
    },
    {
      "bufferView": 3,
      "byteOffset": 0,
      "componentType": 5126,
      "count": 1372,
      "max": [
        0.999786376953125,
        1,
        0.7875028848648071
      ],
      "min": [
        0.000015259021893143654,
        0.07324330508708954,
        0.00004577706567943096
      ],
      "type": "VEC3"
    }
  ],
  "buffers": [
    {
      "byteLength": 6978,
      "uri": "data:application/octet-stream;base64,"
    },
    {
      "byteLength": 16464,
      "uri": "data:application/octet-stream;base64,"
    },
    {
      "byteLength": 16464,
      "uri": "data:application/octet-stream;base64,"
    },
    {
      "byteLength": 16464,
      "uri": "data:application/octet-stream;base64,"
    }
  ],
  "bufferViews": [
    {
      "buffer": 0,
      "byteOffset": 0,
      "byteLength": 6978
    },
    {
      "buffer": 1,
      "byteOffset": 0,
      "byteLength": 16464
    },
    {
      "buffer": 2,
      "byteOffset": 0,
      "byteLength": 16464
    },
    {
      "buffer": 3,
      "byteOffset": 0,
      "byteLength": 16464
    }
  ],
  "meshes": [
    {
      "primitives": [
        {
          "mode": 4,
          "indices": 0,
          "attributes": {
            "POSITION": 1,
            "NORMAL": 2,
            "COLOR_0": 3
          }
        }
      ]
    }
  ],
  "nodes": [
    {
      "children": [
        1
      ]
    },
    {
      "mesh": 0
    }
  ],
  "scenes": [
    {
      "nodes": [
        0
      ]
    }
  ],
  "scene": 0
}