{
  "asset": {
    "version": "2.0",
    "generator": "COLLADA2GLTF"
  },
  "accessors": [
    {
      "bufferView": 0,
      "byteOffset": 0,
      "componentType": 5123,
      "count": 2673,
      "min": [
        0
      ],
      "max": [
        1155
      ],
      "type": "SCALAR"
    },
    {
      "bufferView": 1,
      "byteOffset": 0,
      "componentType": 5126,
      "count": 1156,
      "max": [
        -2284.865478515625,
        14.5,
        691.0924682617188
      ],
      "min": [
        -2453.110107421875,
        9.28499984741211,
        448.83197021484375
      ],
      "type": "VEC3"
    },
    {
      "bufferView": 2,
      "byteOffset": 0,
      "componentType": 5126,
      "count": 1156,
      "max": [
        0.856545090675354,
        0.70616215467453,
        0.856545090675354
      ],
      "min": [
        -0.856545090675354,
        -0.705258846282959,
        -0.856545090675354
      ],
      "type": "VEC3"
    },
    {
      "bufferView": 3,
      "byteOffset": 0,
      "componentType": 5126,
      "count": 1156,
      "max": [
        0.4480048716068268,
        0.4480048716068268,
        0.4480659067630768
      ],
      "min": [
        0,
        0,
        0
      ],
      "type": "VEC3"
    }
  ],
  "buffers": [
    {
      "byteLength": 5346,
      "uri": "data:application/octet-stream;base64,"
    },
    {
      "byteLength": 13872,
      "uri": "data:application/octet-stream;base64,"
    },
    {
      "byteLength": 13872,
      "uri": "data:application/octet-stream;base64,"
    },
    {
      "byteLength": 13872,
      "uri": "data:application/octet-stream;base64,"
    }
  ],
  "bufferViews": [
    {
      "buffer": 0,
      "byteOffset": 0,
      "byteLength": 5346
    },
    {
      "buffer": 1,
      "byteOffset": 0,
      "byteLength": 13872
    },
    {
      "buffer": 2,
      "byteOffset": 0,
      "byteLength": 13872
    },
    {
      "buffer": 3,
      "byteOffset": 0,
      "byteLength": 13872
    }
  ],
  "meshes": [
    {
      "primitives": [
        {
          "mode": 4,
          "indices": 0,
          "attributes": {
            "POSITION": 1,
            "NORMAL": 2,
            "COLOR_0": 3
          }
        }
      ]
    }
  ],
  "nodes": [
    {
      "children": [
        1
      ]
    },
    {
      "mesh": 0
    }
  ],
  "scenes": [
    {
      "nodes": [
        0
      ]
    }
  ],
  "scene": 0
}