{
  "asset": {
    "version": "2.0",
    "generator": "COLLADA2GLTF"
  },
  "accessors": [
    {
      "bufferView": 0,
      "byteOffset": 0,
      "componentType": 5123,
      "count": 216,
      "min": [
        0
      ],
      "max": [
        77
      ],
      "type": "SCALAR"
    },
    {
      "bufferView": 1,
      "byteOffset": 0,
      "componentType": 5126,
      "count": 78,
      "max": [
        -1114.1090087890625,
        14.324999809265137,
        -723.8319702148438
      ],
      "min": [
        -1162.59326171875,
        9.28499984741211,
        -766.8804931640625
      ],
      "type": "VEC3"
    },
    {
      "bufferView": 2,
      "byteOffset": 0,
      "componentType": 5126,
      "count": 78,
      "max": [
        0.49317094683647156,
        0.7065280675888062,
        0.5803776383399963
      ],
      "min": [
        -0.49317094683647156,
        -0.7059746980667114,
        -0.5900558233261108
      ],
      "type": "VEC3"
    },
    {
      "bufferView": 3,
      "byteOffset": 0,
      "componentType": 5126,
      "count": 78,
      "max": [
        0,
        0,
        0
      ],
      "min": [
        0,
        0,
        0
      ],
      "type": "VEC3"
    }
  ],
  "buffers": [
    {
      "byteLength": 432,
      "uri": "data:application/octet-stream;base64,"
    },
    {
      "byteLength": 936,
      "uri": "data:application/octet-stream;base64,"
    },
    {
      "byteLength": 936,
      "uri": "data:application/octet-stream;base64,"
    },
    {
      "byteLength": 936,
      "uri": "data:application/octet-stream;base64,"
    }
  ],
  "bufferViews": [
    {
      "buffer": 0,
      "byteOffset": 0,
      "byteLength": 432
    },
    {
      "buffer": 1,
      "byteOffset": 0,
      "byteLength": 936
    },
    {
      "buffer": 2,
      "byteOffset": 0,
      "byteLength": 936
    },
    {
      "buffer": 3,
      "byteOffset": 0,
      "byteLength": 936
    }
  ],
  "meshes": [
    {
      "primitives": [
        {
          "mode": 4,
          "indices": 0,
          "attributes": {
            "POSITION": 1,
            "NORMAL": 2,
            "COLOR_0": 3
          }
        }
      ]
    }
  ],
  "nodes": [
    {
      "children": [
        1
      ]
    },
    {
      "mesh": 0
    }
  ],
  "scenes": [
    {
      "nodes": [
        0
      ]
    }
  ],
  "scene": 0
}