{
  "asset": {
    "version": "2.0",
    "generator": "COLLADA2GLTF"
  },
  "accessors": [
    {
      "bufferView": 0,
      "byteOffset": 0,
      "componentType": 5123,
      "count": 2478,
      "min": [
        0
      ],
      "max": [
        1459
      ],
      "type": "SCALAR"
    },
    {
      "bufferView": 1,
      "byteOffset": 0,
      "componentType": 5126,
      "count": 1460,
      "max": [
        -2013.0201416015625,
        0.0010000000474974513,
        240
      ],
      "min": [
        -2166.32177734375,
        -0.20000000298023224,
        -31.23352813720703
      ],
      "type": "VEC3"
    },
    {
      "bufferView": 2,
      "byteOffset": 0,
      "componentType": 5126,
      "count": 1460,
      "max": [
        0.8601113557815552,
        1,
        0.834746241569519
      ],
      "min": [
        -0.8601113557815552,
        -1,
        -0.8601113557815552
      ],
      "type": "VEC3"
    },
    {
      "bufferView": 3,
      "byteOffset": 0,
      "componentType": 5126,
      "count": 1460,
      "max": [
        0.7872740030288696,
        1,
        0.7875028848648071
      ],
      "min": [
        0.000015259021893143654,
        0.07324330508708954,
        0.00004577706567943096
      ],
      "type": "VEC3"
    }
  ],
  "buffers": [
    {
      "byteLength": 4956,
      "uri": "data:application/octet-stream;base64,"
    },
    {
      "byteLength": 17520,
      "uri": "data:application/octet-stream;base64,"
    },
    {
      "byteLength": 17520,
      "uri": "data:application/octet-stream;base64,"
    },
    {
      "byteLength": 17520,
      "uri": "data:application/octet-stream;base64,"
    }
  ],
  "bufferViews": [
    {
      "buffer": 0,
      "byteOffset": 0,
      "byteLength": 4956
    },
    {
      "buffer": 1,
      "byteOffset": 0,
      "byteLength": 17520
    },
    {
      "buffer": 2,
      "byteOffset": 0,
      "byteLength": 17520
    },
    {
      "buffer": 3,
      "byteOffset": 0,
      "byteLength": 17520
    }
  ],
  "meshes": [
    {
      "primitives": [
        {
          "mode": 4,
          "indices": 0,
          "attributes": {
            "POSITION": 1,
            "NORMAL": 2,
            "COLOR_0": 3
          }
        }
      ]
    }
  ],
  "nodes": [
    {
      "children": [
        1
      ]
    },
    {
      "mesh": 0
    }
  ],
  "scenes": [
    {
      "nodes": [
        0
      ]
    }
  ],
  "scene": 0
}