{
  "asset": {
    "version": "2.0",
    "generator": "COLLADA2GLTF"
  },
  "accessors": [
    {
      "bufferView": 0,
      "byteOffset": 0,
      "componentType": 5123,
      "count": 2526,
      "min": [
        0
      ],
      "max": [
        997
      ],
      "type": "SCALAR"
    },
    {
      "bufferView": 1,
      "byteOffset": 0,
      "componentType": 5126,
      "count": 998,
      "max": [
        1622.873779296875,
        0.0010000000474974513,
        -1144.486572265625
      ],
      "min": [
        1407.0540771484375,
        -0.20000000298023224,
        -1401.904052734375
      ],
      "type": "VEC3"
    },
    {
      "bufferView": 2,
      "byteOffset": 0,
      "componentType": 5126,
      "count": 998,
      "max": [
        0.7644797563552856,
        1,
        0.7655780911445618
      ],
      "min": [
        -0.7653475999832153,
        -1,
        -0.7655779123306274
      ],
      "type": "VEC3"
    },
    {
      "bufferView": 3,
      "byteOffset": 0,
      "componentType": 5126,
      "count": 998,
      "max": [
        0.7872740030288696,
        1,
        0.7875028848648071
      ],
      "min": [
        0.000015259021893143654,
        0.07324330508708954,
        0.00004577706567943096
      ],
      "type": "VEC3"
    }
  ],
  "buffers": [
    {
      "byteLength": 5052,
      "uri": "data:application/octet-stream;base64,"
    },
    {
      "byteLength": 11976,
      "uri": "data:application/octet-stream;base64,"
    },
    {
      "byteLength": 11976,
      "uri": "data:application/octet-stream;base64,"
    },
    {
      "byteLength": 11976,
      "uri": "data:application/octet-stream;base64,"
    }
  ],
  "bufferViews": [
    {
      "buffer": 0,
      "byteOffset": 0,
      "byteLength": 5052
    },
    {
      "buffer": 1,
      "byteOffset": 0,
      "byteLength": 11976
    },
    {
      "buffer": 2,
      "byteOffset": 0,
      "byteLength": 11976
    },
    {
      "buffer": 3,
      "byteOffset": 0,
      "byteLength": 11976
    }
  ],
  "meshes": [
    {
      "primitives": [
        {
          "mode": 4,
          "indices": 0,
          "attributes": {
            "POSITION": 1,
            "NORMAL": 2,
            "COLOR_0": 3
          }
        }
      ]
    }
  ],
  "nodes": [
    {
      "children": [
        1
      ]
    },
    {
      "mesh": 0
    }
  ],
  "scenes": [
    {
      "nodes": [
        0
      ]
    }
  ],
  "scene": 0
}