{
  "asset": {
    "version": "2.0",
    "generator": "COLLADA2GLTF"
  },
  "accessors": [
    {
      "bufferView": 0,
      "byteOffset": 0,
      "componentType": 5123,
      "count": 5151,
      "min": [
        0
      ],
      "max": [
        2043
      ],
      "type": "SCALAR"
    },
    {
      "bufferView": 1,
      "byteOffset": 0,
      "componentType": 5126,
      "count": 2044,
      "max": [
        -2310,
        0,
        -970.3637084960938
      ],
      "min": [
        -2826.8681640625,
        0,
        -1410
      ],
      "type": "VEC3"
    },
    {
      "bufferView": 2,
      "byteOffset": 0,
      "componentType": 5126,
      "count": 2044,
      "max": [
        0.9935507774353027,
        1,
        0.9934733510017395
      ],
      "min": [
        -0.9937446713447571,
        0,
        -0.9986345171928406
      ],
      "type": "VEC3"
    },
    {
      "bufferView": 3,
      "byteOffset": 0,
      "componentType": 5126,
      "count": 2044,
      "max": [
        0.999786376953125,
        1,
        0.26330968737602234
      ],
      "min": [
        0.000015259021893143654,
        0.07324330508708954,
        0.00004577706567943096
      ],
      "type": "VEC3"
    }
  ],
  "buffers": [
    {
      "byteLength": 10302,
      "uri": "data:application/octet-stream;base64,"
    },
    {
      "byteLength": 24528,
      "uri": "data:application/octet-stream;base64,"
    },
    {
      "byteLength": 24528,
      "uri": "data:application/octet-stream;base64,"
    },
    {
      "byteLength": 24528,
      "uri": "data:application/octet-stream;base64,"
    }
  ],
  "bufferViews": [
    {
      "buffer": 0,
      "byteOffset": 0,
      "byteLength": 10302
    },
    {
      "buffer": 1,
      "byteOffset": 0,
      "byteLength": 24528
    },
    {
      "buffer": 2,
      "byteOffset": 0,
      "byteLength": 24528
    },
    {
      "buffer": 3,
      "byteOffset": 0,
      "byteLength": 24528
    }
  ],
  "meshes": [
    {
      "primitives": [
        {
          "mode": 4,
          "indices": 0,
          "attributes": {
            "POSITION": 1,
            "NORMAL": 2,
            "COLOR_0": 3
          }
        }
      ]
    }
  ],
  "nodes": [
    {
      "children": [
        1
      ]
    },
    {
      "mesh": 0
    }
  ],
  "scenes": [
    {
      "nodes": [
        0
      ]
    }
  ],
  "scene": 0
}