{
  "asset": {
    "version": "2.0",
    "generator": "COLLADA2GLTF"
  },
  "accessors": [
    {
      "bufferView": 0,
      "byteOffset": 0,
      "componentType": 5123,
      "count": 1674,
      "min": [
        0
      ],
      "max": [
        710
      ],
      "type": "SCALAR"
    },
    {
      "bufferView": 1,
      "byteOffset": 0,
      "componentType": 5126,
      "count": 711,
      "max": [
        -553.8427734375,
        0,
        -1109.782470703125
      ],
      "min": [
        -810.866455078125,
        0,
        -1338.858642578125
      ],
      "type": "VEC3"
    },
    {
      "bufferView": 2,
      "byteOffset": 0,
      "componentType": 5126,
      "count": 711,
      "max": [
        0.8924358487129211,
        1,
        0.9005723595619202
      ],
      "min": [
        -0.9046107530593872,
        0,
        -0.9894004464149475
      ],
      "type": "VEC3"
    },
    {
      "bufferView": 3,
      "byteOffset": 0,
      "componentType": 5126,
      "count": 711,
      "max": [
        0.999786376953125,
        1,
        0.26330968737602234
      ],
      "min": [
        0.000015259021893143654,
        0.07324330508708954,
        0.00004577706567943096
      ],
      "type": "VEC3"
    }
  ],
  "buffers": [
    {
      "byteLength": 3348,
      "uri": "data:application/octet-stream;base64,"
    },
    {
      "byteLength": 8532,
      "uri": "data:application/octet-stream;base64,"
    },
    {
      "byteLength": 8532,
      "uri": "data:application/octet-stream;base64,"
    },
    {
      "byteLength": 8532,
      "uri": "data:application/octet-stream;base64,"
    }
  ],
  "bufferViews": [
    {
      "buffer": 0,
      "byteOffset": 0,
      "byteLength": 3348
    },
    {
      "buffer": 1,
      "byteOffset": 0,
      "byteLength": 8532
    },
    {
      "buffer": 2,
      "byteOffset": 0,
      "byteLength": 8532
    },
    {
      "buffer": 3,
      "byteOffset": 0,
      "byteLength": 8532
    }
  ],
  "meshes": [
    {
      "primitives": [
        {
          "mode": 4,
          "indices": 0,
          "attributes": {
            "POSITION": 1,
            "NORMAL": 2,
            "COLOR_0": 3
          }
        }
      ]
    }
  ],
  "nodes": [
    {
      "children": [
        1
      ]
    },
    {
      "mesh": 0
    }
  ],
  "scenes": [
    {
      "nodes": [
        0
      ]
    }
  ],
  "scene": 0
}