{
  "asset": {
    "version": "2.0",
    "generator": "COLLADA2GLTF"
  },
  "accessors": [
    {
      "bufferView": 0,
      "byteOffset": 0,
      "componentType": 5123,
      "count": 201,
      "min": [
        0
      ],
      "max": [
        156
      ],
      "type": "SCALAR"
    },
    {
      "bufferView": 1,
      "byteOffset": 0,
      "componentType": 5126,
      "count": 157,
      "max": [
        -2583.912109375,
        90,
        1015.27001953125
      ],
      "min": [
        -2764.248046875,
        0,
        772.817138671875
      ],
      "type": "VEC3"
    },
    {
      "bufferView": 2,
      "byteOffset": 0,
      "componentType": 5126,
      "count": 157,
      "max": [
        0.8630154132843018,
        1,
        0.9136388897895813
      ],
      "min": [
        -0.9489525556564331,
        0,
        -0.9963940978050232
      ],
      "type": "VEC3"
    },
    {
      "bufferView": 3,
      "byteOffset": 0,
      "componentType": 5126,
      "count": 157,
      "max": [
        0.999786376953125,
        0.7875181436538696,
        0.26330968737602234
      ],
      "min": [
        0.6036774516105652,
        0.00003051804378628731,
        0
      ],
      "type": "VEC3"
    }
  ],
  "buffers": [
    {
      "byteLength": 402,
      "uri": "data:application/octet-stream;base64,"
    },
    {
      "byteLength": 1884,
      "uri": "data:application/octet-stream;base64,"
    },
    {
      "byteLength": 1884,
      "uri": "data:application/octet-stream;base64,"
    },
    {
      "byteLength": 1884,
      "uri": "data:application/octet-stream;base64,"
    }
  ],
  "bufferViews": [
    {
      "buffer": 0,
      "byteOffset": 0,
      "byteLength": 402
    },
    {
      "buffer": 1,
      "byteOffset": 0,
      "byteLength": 1884
    },
    {
      "buffer": 2,
      "byteOffset": 0,
      "byteLength": 1884
    },
    {
      "buffer": 3,
      "byteOffset": 0,
      "byteLength": 1884
    }
  ],
  "meshes": [
    {
      "primitives": [
        {
          "mode": 4,
          "indices": 0,
          "attributes": {
            "POSITION": 1,
            "NORMAL": 2,
            "COLOR_0": 3
          }
        }
      ]
    }
  ],
  "nodes": [
    {
      "children": [
        1
      ]
    },
    {
      "mesh": 0
    }
  ],
  "scenes": [
    {
      "nodes": [
        0
      ]
    }
  ],
  "scene": 0
}