{
  "asset": {
    "version": "2.0",
    "generator": "COLLADA2GLTF"
  },
  "accessors": [
    {
      "bufferView": 0,
      "byteOffset": 0,
      "componentType": 5123,
      "count": 243,
      "min": [
        0
      ],
      "max": [
        132
      ],
      "type": "SCALAR"
    },
    {
      "bufferView": 1,
      "byteOffset": 0,
      "componentType": 5126,
      "count": 133,
      "max": [
        -1355.900390625,
        19.5,
        4524.09033203125
      ],
      "min": [
        -1492.550537109375,
        12,
        4463.29638671875
      ],
      "type": "VEC3"
    },
    {
      "bufferView": 2,
      "byteOffset": 0,
      "componentType": 5126,
      "count": 133,
      "max": [
        0.9304949641227722,
        0.706877589225769,
        0.9304949641227722
      ],
      "min": [
        -0.9304949641227722,
        -0.7067265510559082,
        -0.6720983982086182
      ],
      "type": "VEC3"
    },
    {
      "bufferView": 3,
      "byteOffset": 0,
      "componentType": 5126,
      "count": 133,
      "max": [
        0.4480048716068268,
        0.4480048716068268,
        0.4480659067630768
      ],
      "min": [
        0,
        0,
        0
      ],
      "type": "VEC3"
    }
  ],
  "buffers": [
    {
      "byteLength": 486,
      "uri": "data:application/octet-stream;base64,"
    },
    {
      "byteLength": 1596,
      "uri": "data:application/octet-stream;base64,"
    },
    {
      "byteLength": 1596,
      "uri": "data:application/octet-stream;base64,"
    },
    {
      "byteLength": 1596,
      "uri": "data:application/octet-stream;base64,"
    }
  ],
  "bufferViews": [
    {
      "buffer": 0,
      "byteOffset": 0,
      "byteLength": 486
    },
    {
      "buffer": 1,
      "byteOffset": 0,
      "byteLength": 1596
    },
    {
      "buffer": 2,
      "byteOffset": 0,
      "byteLength": 1596
    },
    {
      "buffer": 3,
      "byteOffset": 0,
      "byteLength": 1596
    }
  ],
  "meshes": [
    {
      "primitives": [
        {
          "mode": 4,
          "indices": 0,
          "attributes": {
            "POSITION": 1,
            "NORMAL": 2,
            "COLOR_0": 3
          }
        }
      ]
    }
  ],
  "nodes": [
    {
      "children": [
        1
      ]
    },
    {
      "mesh": 0
    }
  ],
  "scenes": [
    {
      "nodes": [
        0
      ]
    }
  ],
  "scene": 0
}