{
  "asset": {
    "version": "2.0",
    "generator": "COLLADA2GLTF"
  },
  "accessors": [
    {
      "bufferView": 0,
      "byteOffset": 0,
      "componentType": 5123,
      "count": 4569,
      "min": [
        0
      ],
      "max": [
        1915
      ],
      "type": "SCALAR"
    },
    {
      "bufferView": 1,
      "byteOffset": 0,
      "componentType": 5126,
      "count": 1916,
      "max": [
        -265.1629943847656,
        7.5,
        1112.4119873046875
      ],
      "min": [
        -1588.300048828125,
        0,
        -1757.071044921875
      ],
      "type": "VEC3"
    },
    {
      "bufferView": 2,
      "byteOffset": 0,
      "componentType": 5126,
      "count": 1916,
      "max": [
        0.9212193489074707,
        1,
        0.920918345451355
      ],
      "min": [
        -0.9210572242736816,
        0,
        -0.921187162399292
      ],
      "type": "VEC3"
    },
    {
      "bufferView": 3,
      "byteOffset": 0,
      "componentType": 5126,
      "count": 1916,
      "max": [
        0.999786376953125,
        1,
        1
      ],
      "min": [
        0,
        0.00003051804378628731,
        0.00004577706567943096
      ],
      "type": "VEC3"
    }
  ],
  "buffers": [
    {
      "byteLength": 9138,
      "uri": "data:application/octet-stream;base64,"
    },
    {
      "byteLength": 22992,
      "uri": "data:application/octet-stream;base64,"
    },
    {
      "byteLength": 22992,
      "uri": "data:application/octet-stream;base64,"
    },
    {
      "byteLength": 22992,
      "uri": "data:application/octet-stream;base64,"
    }
  ],
  "bufferViews": [
    {
      "buffer": 0,
      "byteOffset": 0,
      "byteLength": 9138
    },
    {
      "buffer": 1,
      "byteOffset": 0,
      "byteLength": 22992
    },
    {
      "buffer": 2,
      "byteOffset": 0,
      "byteLength": 22992
    },
    {
      "buffer": 3,
      "byteOffset": 0,
      "byteLength": 22992
    }
  ],
  "meshes": [
    {
      "primitives": [
        {
          "mode": 4,
          "indices": 0,
          "attributes": {
            "POSITION": 1,
            "NORMAL": 2,
            "COLOR_0": 3
          }
        }
      ]
    }
  ],
  "nodes": [
    {
      "children": [
        1
      ]
    },
    {
      "mesh": 0
    }
  ],
  "scenes": [
    {
      "nodes": [
        0
      ]
    }
  ],
  "scene": 0
}