{
  "asset": {
    "version": "2.0",
    "generator": "COLLADA2GLTF"
  },
  "accessors": [
    {
      "bufferView": 0,
      "byteOffset": 0,
      "componentType": 5123,
      "count": 1695,
      "min": [
        0
      ],
      "max": [
        747
      ],
      "type": "SCALAR"
    },
    {
      "bufferView": 1,
      "byteOffset": 0,
      "componentType": 5126,
      "count": 748,
      "max": [
        -3444.270263671875,
        14.5,
        160.001708984375
      ],
      "min": [
        -3716.482177734375,
        9.28499984741211,
        -1.0434575080871582
      ],
      "type": "VEC3"
    },
    {
      "bufferView": 2,
      "byteOffset": 0,
      "componentType": 5126,
      "count": 748,
      "max": [
        0.9180713295936584,
        0.7061560750007629,
        0.9180713295936584
      ],
      "min": [
        -0.9180713295936584,
        -0.7055371999740601,
        -0.9180713295936584
      ],
      "type": "VEC3"
    },
    {
      "bufferView": 3,
      "byteOffset": 0,
      "componentType": 5126,
      "count": 748,
      "max": [
        0.4480048716068268,
        0.4480048716068268,
        0.4480659067630768
      ],
      "min": [
        0,
        0,
        0
      ],
      "type": "VEC3"
    }
  ],
  "buffers": [
    {
      "byteLength": 3390,
      "uri": "data:application/octet-stream;base64,"
    },
    {
      "byteLength": 8976,
      "uri": "data:application/octet-stream;base64,"
    },
    {
      "byteLength": 8976,
      "uri": "data:application/octet-stream;base64,"
    },
    {
      "byteLength": 8976,
      "uri": "data:application/octet-stream;base64,"
    }
  ],
  "bufferViews": [
    {
      "buffer": 0,
      "byteOffset": 0,
      "byteLength": 3390
    },
    {
      "buffer": 1,
      "byteOffset": 0,
      "byteLength": 8976
    },
    {
      "buffer": 2,
      "byteOffset": 0,
      "byteLength": 8976
    },
    {
      "buffer": 3,
      "byteOffset": 0,
      "byteLength": 8976
    }
  ],
  "meshes": [
    {
      "primitives": [
        {
          "mode": 4,
          "indices": 0,
          "attributes": {
            "POSITION": 1,
            "NORMAL": 2,
            "COLOR_0": 3
          }
        }
      ]
    }
  ],
  "nodes": [
    {
      "children": [
        1
      ]
    },
    {
      "mesh": 0
    }
  ],
  "scenes": [
    {
      "nodes": [
        0
      ]
    }
  ],
  "scene": 0
}