{
  "asset": {
    "version": "2.0",
    "generator": "COLLADA2GLTF"
  },
  "accessors": [
    {
      "bufferView": 0,
      "byteOffset": 0,
      "componentType": 5123,
      "count": 396,
      "min": [
        0
      ],
      "max": [
        295
      ],
      "type": "SCALAR"
    },
    {
      "bufferView": 1,
      "byteOffset": 0,
      "componentType": 5126,
      "count": 296,
      "max": [
        -192.9862060546875,
        82.5,
        -1311.74560546875
      ],
      "min": [
        -771.3298950195312,
        0,
        -1577.48388671875
      ],
      "type": "VEC3"
    },
    {
      "bufferView": 2,
      "byteOffset": 0,
      "componentType": 5126,
      "count": 296,
      "max": [
        0.8914399743080139,
        0.7055556774139404,
        0.9256284236907959
      ],
      "min": [
        -0.9015028476715088,
        -0.7055556774139404,
        -0.9081427454948425
      ],
      "type": "VEC3"
    },
    {
      "bufferView": 3,
      "byteOffset": 0,
      "componentType": 5126,
      "count": 296,
      "max": [
        0.999786376953125,
        0.7875181436538696,
        0.26330968737602234
      ],
      "min": [
        0,
        0,
        0
      ],
      "type": "VEC3"
    }
  ],
  "buffers": [
    {
      "byteLength": 792,
      "uri": "data:application/octet-stream;base64,"
    },
    {
      "byteLength": 3552,
      "uri": "data:application/octet-stream;base64,"
    },
    {
      "byteLength": 3552,
      "uri": "data:application/octet-stream;base64,"
    },
    {
      "byteLength": 3552,
      "uri": "data:application/octet-stream;base64,"
    }
  ],
  "bufferViews": [
    {
      "buffer": 0,
      "byteOffset": 0,
      "byteLength": 792
    },
    {
      "buffer": 1,
      "byteOffset": 0,
      "byteLength": 3552
    },
    {
      "buffer": 2,
      "byteOffset": 0,
      "byteLength": 3552
    },
    {
      "buffer": 3,
      "byteOffset": 0,
      "byteLength": 3552
    }
  ],
  "meshes": [
    {
      "primitives": [
        {
          "mode": 4,
          "indices": 0,
          "attributes": {
            "POSITION": 1,
            "NORMAL": 2,
            "COLOR_0": 3
          }
        }
      ]
    }
  ],
  "nodes": [
    {
      "children": [
        1
      ]
    },
    {
      "mesh": 0
    }
  ],
  "scenes": [
    {
      "nodes": [
        0
      ]
    }
  ],
  "scene": 0
}