{
  "asset": {
    "version": "2.0",
    "generator": "COLLADA2GLTF"
  },
  "accessors": [
    {
      "bufferView": 0,
      "byteOffset": 0,
      "componentType": 5123,
      "count": 282,
      "min": [
        0
      ],
      "max": [
        101
      ],
      "type": "SCALAR"
    },
    {
      "bufferView": 1,
      "byteOffset": 0,
      "componentType": 5126,
      "count": 102,
      "max": [
        -1399.3251953125,
        0,
        1341.516357421875
      ],
      "min": [
        -1441.9066162109375,
        -3,
        1306.8577880859375
      ],
      "type": "VEC3"
    },
    {
      "bufferView": 2,
      "byteOffset": 0,
      "componentType": 5126,
      "count": 102,
      "max": [
        0.7720198035240173,
        1,
        0.7720198035240173
      ],
      "min": [
        -0.7720198035240173,
        0,
        -0.7720198035240173
      ],
      "type": "VEC3"
    },
    {
      "bufferView": 3,
      "byteOffset": 0,
      "componentType": 5126,
      "count": 102,
      "max": [
        0.21585412323474884,
        0.21585412323474884,
        0.21589989960193634
      ],
      "min": [
        0.21585412323474884,
        0.21585412323474884,
        0.21589989960193634
      ],
      "type": "VEC3"
    }
  ],
  "buffers": [
    {
      "byteLength": 564,
      "uri": "data:application/octet-stream;base64,"
    },
    {
      "byteLength": 1224,
      "uri": "data:application/octet-stream;base64,"
    },
    {
      "byteLength": 1224,
      "uri": "data:application/octet-stream;base64,"
    },
    {
      "byteLength": 1224,
      "uri": "data:application/octet-stream;base64,"
    }
  ],
  "bufferViews": [
    {
      "buffer": 0,
      "byteOffset": 0,
      "byteLength": 564
    },
    {
      "buffer": 1,
      "byteOffset": 0,
      "byteLength": 1224
    },
    {
      "buffer": 2,
      "byteOffset": 0,
      "byteLength": 1224
    },
    {
      "buffer": 3,
      "byteOffset": 0,
      "byteLength": 1224
    }
  ],
  "meshes": [
    {
      "primitives": [
        {
          "mode": 4,
          "indices": 0,
          "attributes": {
            "POSITION": 1,
            "NORMAL": 2,
            "COLOR_0": 3
          }
        }
      ]
    }
  ],
  "nodes": [
    {
      "children": [
        1
      ]
    },
    {
      "mesh": 0
    }
  ],
  "scenes": [
    {
      "nodes": [
        0
      ]
    }
  ],
  "scene": 0
}