{
  "asset": {
    "version": "2.0",
    "generator": "COLLADA2GLTF"
  },
  "accessors": [
    {
      "bufferView": 0,
      "byteOffset": 0,
      "componentType": 5123,
      "count": 3747,
      "min": [
        0
      ],
      "max": [
        1432
      ],
      "type": "SCALAR"
    },
    {
      "bufferView": 1,
      "byteOffset": 0,
      "componentType": 5126,
      "count": 1433,
      "max": [
        -2940,
        0,
        -90
      ],
      "min": [
        -3499.785888671875,
        0,
        -498.33563232421875
      ],
      "type": "VEC3"
    },
    {
      "bufferView": 2,
      "byteOffset": 0,
      "componentType": 5126,
      "count": 1433,
      "max": [
        0,
        1,
        0
      ],
      "min": [
        0,
        1,
        0
      ],
      "type": "VEC3"
    },
    {
      "bufferView": 3,
      "byteOffset": 0,
      "componentType": 5126,
      "count": 1433,
      "max": [
        0.07322804629802704,
        1,
        1
      ],
      "min": [
        0,
        0.00003051804378628731,
        0.00004577706567943096
      ],
      "type": "VEC3"
    }
  ],
  "buffers": [
    {
      "byteLength": 7494,
      "uri": "data:application/octet-stream;base64,"
    },
    {
      "byteLength": 17196,
      "uri": "data:application/octet-stream;base64,"
    },
    {
      "byteLength": 17196,
      "uri": "data:application/octet-stream;base64,"
    },
    {
      "byteLength": 17196,
      "uri": "data:application/octet-stream;base64,"
    }
  ],
  "bufferViews": [
    {
      "buffer": 0,
      "byteOffset": 0,
      "byteLength": 7494
    },
    {
      "buffer": 1,
      "byteOffset": 0,
      "byteLength": 17196
    },
    {
      "buffer": 2,
      "byteOffset": 0,
      "byteLength": 17196
    },
    {
      "buffer": 3,
      "byteOffset": 0,
      "byteLength": 17196
    }
  ],
  "meshes": [
    {
      "primitives": [
        {
          "mode": 4,
          "indices": 0,
          "attributes": {
            "POSITION": 1,
            "NORMAL": 2,
            "COLOR_0": 3
          }
        }
      ]
    }
  ],
  "nodes": [
    {
      "children": [
        1
      ]
    },
    {
      "mesh": 0
    }
  ],
  "scenes": [
    {
      "nodes": [
        0
      ]
    }
  ],
  "scene": 0
}