{
  "asset": {
    "version": "2.0",
    "generator": "COLLADA2GLTF"
  },
  "accessors": [
    {
      "bufferView": 0,
      "byteOffset": 0,
      "componentType": 5123,
      "count": 3708,
      "min": [
        0
      ],
      "max": [
        1412
      ],
      "type": "SCALAR"
    },
    {
      "bufferView": 1,
      "byteOffset": 0,
      "componentType": 5126,
      "count": 1413,
      "max": [
        1542.87646484375,
        0.10000000149011612,
        466.9819641113281
      ],
      "min": [
        1520.4747314453125,
        0,
        453.6722412109375
      ],
      "type": "VEC3"
    },
    {
      "bufferView": 2,
      "byteOffset": 0,
      "componentType": 5126,
      "count": 1413,
      "max": [
        0.5030820369720459,
        0.9491164684295654,
        0.8642517924308777
      ],
      "min": [
        -0.8642517924308777,
        0,
        -0.8642517924308777
      ],
      "type": "VEC3"
    },
    {
      "bufferView": 3,
      "byteOffset": 0,
      "componentType": 5126,
      "count": 1413,
      "max": [
        0.26324865221977234,
        0.26329442858695984,
        0.26329442858695984
      ],
      "min": [
        0.26324865221977234,
        0.26329442858695984,
        0.26329442858695984
      ],
      "type": "VEC3"
    }
  ],
  "buffers": [
    {
      "byteLength": 7416,
      "uri": "data:application/octet-stream;base64,"
    },
    {
      "byteLength": 16956,
      "uri": "data:application/octet-stream;base64,"
    },
    {
      "byteLength": 16956,
      "uri": "data:application/octet-stream;base64,"
    },
    {
      "byteLength": 16956,
      "uri": "data:application/octet-stream;base64,"
    }
  ],
  "bufferViews": [
    {
      "buffer": 0,
      "byteOffset": 0,
      "byteLength": 7416
    },
    {
      "buffer": 1,
      "byteOffset": 0,
      "byteLength": 16956
    },
    {
      "buffer": 2,
      "byteOffset": 0,
      "byteLength": 16956
    },
    {
      "buffer": 3,
      "byteOffset": 0,
      "byteLength": 16956
    }
  ],
  "meshes": [
    {
      "primitives": [
        {
          "mode": 4,
          "indices": 0,
          "attributes": {
            "POSITION": 1,
            "NORMAL": 2,
            "COLOR_0": 3
          }
        }
      ]
    }
  ],
  "nodes": [
    {
      "children": [
        1
      ]
    },
    {
      "mesh": 0
    }
  ],
  "scenes": [
    {
      "nodes": [
        0
      ]
    }
  ],
  "scene": 0
}