{
  "asset": {
    "version": "2.0",
    "generator": "COLLADA2GLTF"
  },
  "accessors": [
    {
      "bufferView": 0,
      "byteOffset": 0,
      "componentType": 5123,
      "count": 3126,
      "min": [
        0
      ],
      "max": [
        1248
      ],
      "type": "SCALAR"
    },
    {
      "bufferView": 1,
      "byteOffset": 0,
      "componentType": 5126,
      "count": 1249,
      "max": [
        -2010,
        0.0010000000474974513,
        -1859.2532958984375
      ],
      "min": [
        -2482.742431640625,
        0,
        -2259.88818359375
      ],
      "type": "VEC3"
    },
    {
      "bufferView": 2,
      "byteOffset": 0,
      "componentType": 5126,
      "count": 1249,
      "max": [
        0.9821056127548218,
        1,
        0.9415948390960693
      ],
      "min": [
        -0.9813928008079529,
        -1,
        -0.9752432703971863
      ],
      "type": "VEC3"
    },
    {
      "bufferView": 3,
      "byteOffset": 0,
      "componentType": 5126,
      "count": 1249,
      "max": [
        0.999786376953125,
        1,
        0.7875028848648071
      ],
      "min": [
        0.000015259021893143654,
        0.07324330508708954,
        0.00004577706567943096
      ],
      "type": "VEC3"
    }
  ],
  "buffers": [
    {
      "byteLength": 6252,
      "uri": "data:application/octet-stream;base64,"
    },
    {
      "byteLength": 14988,
      "uri": "data:application/octet-stream;base64,"
    },
    {
      "byteLength": 14988,
      "uri": "data:application/octet-stream;base64,"
    },
    {
      "byteLength": 14988,
      "uri": "data:application/octet-stream;base64,"
    }
  ],
  "bufferViews": [
    {
      "buffer": 0,
      "byteOffset": 0,
      "byteLength": 6252
    },
    {
      "buffer": 1,
      "byteOffset": 0,
      "byteLength": 14988
    },
    {
      "buffer": 2,
      "byteOffset": 0,
      "byteLength": 14988
    },
    {
      "buffer": 3,
      "byteOffset": 0,
      "byteLength": 14988
    }
  ],
  "meshes": [
    {
      "primitives": [
        {
          "mode": 4,
          "indices": 0,
          "attributes": {
            "POSITION": 1,
            "NORMAL": 2,
            "COLOR_0": 3
          }
        }
      ]
    }
  ],
  "nodes": [
    {
      "children": [
        1
      ]
    },
    {
      "mesh": 0
    }
  ],
  "scenes": [
    {
      "nodes": [
        0
      ]
    }
  ],
  "scene": 0
}