{
  "asset": {
    "version": "2.0",
    "generator": "COLLADA2GLTF"
  },
  "accessors": [
    {
      "bufferView": 0,
      "byteOffset": 0,
      "componentType": 5123,
      "count": 2112,
      "min": [
        0
      ],
      "max": [
        1373
      ],
      "type": "SCALAR"
    },
    {
      "bufferView": 1,
      "byteOffset": 0,
      "componentType": 5126,
      "count": 1374,
      "max": [
        -176.71200561523438,
        135,
        265.4169921875
      ],
      "min": [
        -1189.3135986328125,
        0,
        -1032.1988525390625
      ],
      "type": "VEC3"
    },
    {
      "bufferView": 2,
      "byteOffset": 0,
      "componentType": 5126,
      "count": 1374,
      "max": [
        0.9988058805465698,
        1,
        0.9973313212394714
      ],
      "min": [
        -1,
        0,
        -1
      ],
      "type": "VEC3"
    },
    {
      "bufferView": 3,
      "byteOffset": 0,
      "componentType": 5126,
      "count": 1374,
      "max": [
        0.999786376953125,
        0.7875181436538696,
        0.7875028848648071
      ],
      "min": [
        0.6036774516105652,
        0.00003051804378628731,
        0
      ],
      "type": "VEC3"
    }
  ],
  "buffers": [
    {
      "byteLength": 4224,
      "uri": "data:application/octet-stream;base64,"
    },
    {
      "byteLength": 16488,
      "uri": "data:application/octet-stream;base64,"
    },
    {
      "byteLength": 16488,
      "uri": "data:application/octet-stream;base64,"
    },
    {
      "byteLength": 16488,
      "uri": "data:application/octet-stream;base64,"
    }
  ],
  "bufferViews": [
    {
      "buffer": 0,
      "byteOffset": 0,
      "byteLength": 4224
    },
    {
      "buffer": 1,
      "byteOffset": 0,
      "byteLength": 16488
    },
    {
      "buffer": 2,
      "byteOffset": 0,
      "byteLength": 16488
    },
    {
      "buffer": 3,
      "byteOffset": 0,
      "byteLength": 16488
    }
  ],
  "meshes": [
    {
      "primitives": [
        {
          "mode": 4,
          "indices": 0,
          "attributes": {
            "POSITION": 1,
            "NORMAL": 2,
            "COLOR_0": 3
          }
        }
      ]
    }
  ],
  "nodes": [
    {
      "children": [
        1
      ]
    },
    {
      "mesh": 0
    }
  ],
  "scenes": [
    {
      "nodes": [
        0
      ]
    }
  ],
  "scene": 0
}