{
  "asset": {
    "version": "2.0",
    "generator": "COLLADA2GLTF"
  },
  "accessors": [
    {
      "bufferView": 0,
      "byteOffset": 0,
      "componentType": 5123,
      "count": 3375,
      "min": [
        0
      ],
      "max": [
        1141
      ],
      "type": "SCALAR"
    },
    {
      "bufferView": 1,
      "byteOffset": 0,
      "componentType": 5126,
      "count": 1142,
      "max": [
        -3815.31689453125,
        0.06400000303983688,
        891.666259765625
      ],
      "min": [
        -3996.35498046875,
        0,
        709.736083984375
      ],
      "type": "VEC3"
    },
    {
      "bufferView": 2,
      "byteOffset": 0,
      "componentType": 5126,
      "count": 1142,
      "max": [
        0.734276294708252,
        1,
        0.734276294708252
      ],
      "min": [
        -0.734276294708252,
        0,
        -0.734276294708252
      ],
      "type": "VEC3"
    },
    {
      "bufferView": 3,
      "byteOffset": 0,
      "componentType": 5126,
      "count": 1142,
      "max": [
        0.5774929523468018,
        0.5776150226593018,
        0.5776455402374268
      ],
      "min": [
        0.07322804629802704,
        0.03309682011604309,
        0.03311207890510559
      ],
      "type": "VEC3"
    }
  ],
  "buffers": [
    {
      "byteLength": 6750,
      "uri": "data:application/octet-stream;base64,"
    },
    {
      "byteLength": 13704,
      "uri": "data:application/octet-stream;base64,"
    },
    {
      "byteLength": 13704,
      "uri": "data:application/octet-stream;base64,"
    },
    {
      "byteLength": 13704,
      "uri": "data:application/octet-stream;base64,"
    }
  ],
  "bufferViews": [
    {
      "buffer": 0,
      "byteOffset": 0,
      "byteLength": 6750
    },
    {
      "buffer": 1,
      "byteOffset": 0,
      "byteLength": 13704
    },
    {
      "buffer": 2,
      "byteOffset": 0,
      "byteLength": 13704
    },
    {
      "buffer": 3,
      "byteOffset": 0,
      "byteLength": 13704
    }
  ],
  "meshes": [
    {
      "primitives": [
        {
          "mode": 4,
          "indices": 0,
          "attributes": {
            "POSITION": 1,
            "NORMAL": 2,
            "COLOR_0": 3
          }
        }
      ]
    }
  ],
  "nodes": [
    {
      "children": [
        1
      ]
    },
    {
      "mesh": 0
    }
  ],
  "scenes": [
    {
      "nodes": [
        0
      ]
    }
  ],
  "scene": 0
}