{
  "asset": {
    "version": "2.0",
    "generator": "COLLADA2GLTF"
  },
  "accessors": [
    {
      "bufferView": 0,
      "byteOffset": 0,
      "componentType": 5123,
      "count": 534,
      "min": [
        0
      ],
      "max": [
        214
      ],
      "type": "SCALAR"
    },
    {
      "bufferView": 1,
      "byteOffset": 0,
      "componentType": 5126,
      "count": 215,
      "max": [
        -2048.985595703125,
        0.10000000149011612,
        88.65036010742188
      ],
      "min": [
        -2051.808349609375,
        0,
        84.58367919921875
      ],
      "type": "VEC3"
    },
    {
      "bufferView": 2,
      "byteOffset": 0,
      "componentType": 5126,
      "count": 215,
      "max": [
        0.834746241569519,
        0.9489557147026062,
        0.834746241569519
      ],
      "min": [
        -0.834746241569519,
        0,
        -0.5506348013877869
      ],
      "type": "VEC3"
    },
    {
      "bufferView": 3,
      "byteOffset": 0,
      "componentType": 5126,
      "count": 215,
      "max": [
        0.26324865221977234,
        0.26329442858695984,
        0.26329442858695984
      ],
      "min": [
        0.26324865221977234,
        0.26329442858695984,
        0.26329442858695984
      ],
      "type": "VEC3"
    }
  ],
  "buffers": [
    {
      "byteLength": 1068,
      "uri": "data:application/octet-stream;base64,"
    },
    {
      "byteLength": 2580,
      "uri": "data:application/octet-stream;base64,"
    },
    {
      "byteLength": 2580,
      "uri": "data:application/octet-stream;base64,"
    },
    {
      "byteLength": 2580,
      "uri": "data:application/octet-stream;base64,"
    }
  ],
  "bufferViews": [
    {
      "buffer": 0,
      "byteOffset": 0,
      "byteLength": 1068
    },
    {
      "buffer": 1,
      "byteOffset": 0,
      "byteLength": 2580
    },
    {
      "buffer": 2,
      "byteOffset": 0,
      "byteLength": 2580
    },
    {
      "buffer": 3,
      "byteOffset": 0,
      "byteLength": 2580
    }
  ],
  "meshes": [
    {
      "primitives": [
        {
          "mode": 4,
          "indices": 0,
          "attributes": {
            "POSITION": 1,
            "NORMAL": 2,
            "COLOR_0": 3
          }
        }
      ]
    }
  ],
  "nodes": [
    {
      "children": [
        1
      ]
    },
    {
      "mesh": 0
    }
  ],
  "scenes": [
    {
      "nodes": [
        0
      ]
    }
  ],
  "scene": 0
}