{
  "asset": {
    "version": "2.0",
    "generator": "COLLADA2GLTF"
  },
  "accessors": [
    {
      "bufferView": 0,
      "byteOffset": 0,
      "componentType": 5123,
      "count": 1500,
      "min": [
        0
      ],
      "max": [
        567
      ],
      "type": "SCALAR"
    },
    {
      "bufferView": 1,
      "byteOffset": 0,
      "componentType": 5126,
      "count": 568,
      "max": [
        -2062.157470703125,
        0.10000000149011612,
        83.95510864257812
      ],
      "min": [
        -2067.94775390625,
        0,
        75.39803314208984
      ],
      "type": "VEC3"
    },
    {
      "bufferView": 2,
      "byteOffset": 0,
      "componentType": 5126,
      "count": 568,
      "max": [
        0.8599189519882202,
        0.9492644667625427,
        0.510430634021759
      ],
      "min": [
        -0.8599189519882202,
        0,
        -0.8599189519882202
      ],
      "type": "VEC3"
    },
    {
      "bufferView": 3,
      "byteOffset": 0,
      "componentType": 5126,
      "count": 568,
      "max": [
        0.26324865221977234,
        0.26329442858695984,
        0.26329442858695984
      ],
      "min": [
        0.26324865221977234,
        0.26329442858695984,
        0.26329442858695984
      ],
      "type": "VEC3"
    }
  ],
  "buffers": [
    {
      "byteLength": 3000,
      "uri": "data:application/octet-stream;base64,"
    },
    {
      "byteLength": 6816,
      "uri": "data:application/octet-stream;base64,"
    },
    {
      "byteLength": 6816,
      "uri": "data:application/octet-stream;base64,"
    },
    {
      "byteLength": 6816,
      "uri": "data:application/octet-stream;base64,"
    }
  ],
  "bufferViews": [
    {
      "buffer": 0,
      "byteOffset": 0,
      "byteLength": 3000
    },
    {
      "buffer": 1,
      "byteOffset": 0,
      "byteLength": 6816
    },
    {
      "buffer": 2,
      "byteOffset": 0,
      "byteLength": 6816
    },
    {
      "buffer": 3,
      "byteOffset": 0,
      "byteLength": 6816
    }
  ],
  "meshes": [
    {
      "primitives": [
        {
          "mode": 4,
          "indices": 0,
          "attributes": {
            "POSITION": 1,
            "NORMAL": 2,
            "COLOR_0": 3
          }
        }
      ]
    }
  ],
  "nodes": [
    {
      "children": [
        1
      ]
    },
    {
      "mesh": 0
    }
  ],
  "scenes": [
    {
      "nodes": [
        0
      ]
    }
  ],
  "scene": 0
}