{
  "asset": {
    "version": "2.0",
    "generator": "COLLADA2GLTF"
  },
  "accessors": [
    {
      "bufferView": 0,
      "byteOffset": 0,
      "componentType": 5123,
      "count": 1386,
      "min": [
        0
      ],
      "max": [
        484
      ],
      "type": "SCALAR"
    },
    {
      "bufferView": 1,
      "byteOffset": 0,
      "componentType": 5126,
      "count": 485,
      "max": [
        -509.64703369140625,
        10,
        -866.5957641601562
      ],
      "min": [
        -646.5877685546875,
        0,
        -1007.739013671875
      ],
      "type": "VEC3"
    },
    {
      "bufferView": 2,
      "byteOffset": 0,
      "componentType": 5126,
      "count": 485,
      "max": [
        1,
        1,
        1
      ],
      "min": [
        -1,
        0,
        -1
      ],
      "type": "VEC3"
    },
    {
      "bufferView": 3,
      "byteOffset": 0,
      "componentType": 5126,
      "count": 485,
      "max": [
        0.999786376953125,
        0.7875181436538696,
        0.26330968737602234
      ],
      "min": [
        0.00004577706567943096,
        0.00003051804378628731,
        0
      ],
      "type": "VEC3"
    }
  ],
  "buffers": [
    {
      "byteLength": 2772,
      "uri": "data:application/octet-stream;base64,"
    },
    {
      "byteLength": 5820,
      "uri": "data:application/octet-stream;base64,"
    },
    {
      "byteLength": 5820,
      "uri": "data:application/octet-stream;base64,"
    },
    {
      "byteLength": 5820,
      "uri": "data:application/octet-stream;base64,"
    }
  ],
  "bufferViews": [
    {
      "buffer": 0,
      "byteOffset": 0,
      "byteLength": 2772
    },
    {
      "buffer": 1,
      "byteOffset": 0,
      "byteLength": 5820
    },
    {
      "buffer": 2,
      "byteOffset": 0,
      "byteLength": 5820
    },
    {
      "buffer": 3,
      "byteOffset": 0,
      "byteLength": 5820
    }
  ],
  "meshes": [
    {
      "primitives": [
        {
          "mode": 4,
          "indices": 0,
          "attributes": {
            "POSITION": 1,
            "NORMAL": 2,
            "COLOR_0": 3
          }
        }
      ]
    }
  ],
  "nodes": [
    {
      "children": [
        1
      ]
    },
    {
      "mesh": 0
    }
  ],
  "scenes": [
    {
      "nodes": [
        0
      ]
    }
  ],
  "scene": 0
}