{
  "asset": {
    "version": "2.0",
    "generator": "COLLADA2GLTF"
  },
  "accessors": [
    {
      "bufferView": 0,
      "byteOffset": 0,
      "componentType": 5123,
      "count": 2823,
      "min": [
        0
      ],
      "max": [
        1137
      ],
      "type": "SCALAR"
    },
    {
      "bufferView": 1,
      "byteOffset": 0,
      "componentType": 5126,
      "count": 1138,
      "max": [
        600,
        0.0010000000474974513,
        -90
      ],
      "min": [
        514.5355834960938,
        -0.20000000298023224,
        -344.2718505859375
      ],
      "type": "VEC3"
    },
    {
      "bufferView": 2,
      "byteOffset": 0,
      "componentType": 5126,
      "count": 1138,
      "max": [
        0.7836495637893677,
        1,
        0.8861541152000427
      ],
      "min": [
        -0.885558545589447,
        -1,
        -0.7836247682571411
      ],
      "type": "VEC3"
    },
    {
      "bufferView": 3,
      "byteOffset": 0,
      "componentType": 5126,
      "count": 1138,
      "max": [
        0.999786376953125,
        1,
        0.7875028848648071
      ],
      "min": [
        0.000015259021893143654,
        0.07324330508708954,
        0.00004577706567943096
      ],
      "type": "VEC3"
    }
  ],
  "buffers": [
    {
      "byteLength": 5646,
      "uri": "data:application/octet-stream;base64,"
    },
    {
      "byteLength": 13656,
      "uri": "data:application/octet-stream;base64,"
    },
    {
      "byteLength": 13656,
      "uri": "data:application/octet-stream;base64,"
    },
    {
      "byteLength": 13656,
      "uri": "data:application/octet-stream;base64,"
    }
  ],
  "bufferViews": [
    {
      "buffer": 0,
      "byteOffset": 0,
      "byteLength": 5646
    },
    {
      "buffer": 1,
      "byteOffset": 0,
      "byteLength": 13656
    },
    {
      "buffer": 2,
      "byteOffset": 0,
      "byteLength": 13656
    },
    {
      "buffer": 3,
      "byteOffset": 0,
      "byteLength": 13656
    }
  ],
  "meshes": [
    {
      "primitives": [
        {
          "mode": 4,
          "indices": 0,
          "attributes": {
            "POSITION": 1,
            "NORMAL": 2,
            "COLOR_0": 3
          }
        }
      ]
    }
  ],
  "nodes": [
    {
      "children": [
        1
      ]
    },
    {
      "mesh": 0
    }
  ],
  "scenes": [
    {
      "nodes": [
        0
      ]
    }
  ],
  "scene": 0
}