{
  "asset": {
    "version": "2.0",
    "generator": "COLLADA2GLTF"
  },
  "accessors": [
    {
      "bufferView": 0,
      "byteOffset": 0,
      "componentType": 5123,
      "count": 1227,
      "min": [
        0
      ],
      "max": [
        649
      ],
      "type": "SCALAR"
    },
    {
      "bufferView": 1,
      "byteOffset": 0,
      "componentType": 5126,
      "count": 650,
      "max": [
        -108.23699951171875,
        0,
        849.1680297851562
      ],
      "min": [
        -1042.2440185546875,
        0,
        -1238.8759765625
      ],
      "type": "VEC3"
    },
    {
      "bufferView": 2,
      "byteOffset": 0,
      "componentType": 5126,
      "count": 650,
      "max": [
        0.9991245269775391,
        1,
        0.9996231198310852
      ],
      "min": [
        -0.9991652965545654,
        -1,
        -0.9991968274116516
      ],
      "type": "VEC3"
    },
    {
      "bufferView": 3,
      "byteOffset": 0,
      "componentType": 5126,
      "count": 650,
      "max": [
        0.999786376953125,
        1,
        1
      ],
      "min": [
        0,
        0.00003051804378628731,
        0.00004577706567943096
      ],
      "type": "VEC3"
    }
  ],
  "buffers": [
    {
      "byteLength": 2454,
      "uri": "data:application/octet-stream;base64,"
    },
    {
      "byteLength": 7800,
      "uri": "data:application/octet-stream;base64,"
    },
    {
      "byteLength": 7800,
      "uri": "data:application/octet-stream;base64,"
    },
    {
      "byteLength": 7800,
      "uri": "data:application/octet-stream;base64,"
    }
  ],
  "bufferViews": [
    {
      "buffer": 0,
      "byteOffset": 0,
      "byteLength": 2454
    },
    {
      "buffer": 1,
      "byteOffset": 0,
      "byteLength": 7800
    },
    {
      "buffer": 2,
      "byteOffset": 0,
      "byteLength": 7800
    },
    {
      "buffer": 3,
      "byteOffset": 0,
      "byteLength": 7800
    }
  ],
  "meshes": [
    {
      "primitives": [
        {
          "mode": 4,
          "indices": 0,
          "attributes": {
            "POSITION": 1,
            "NORMAL": 2,
            "COLOR_0": 3
          }
        }
      ]
    }
  ],
  "nodes": [
    {
      "children": [
        1
      ]
    },
    {
      "mesh": 0
    }
  ],
  "scenes": [
    {
      "nodes": [
        0
      ]
    }
  ],
  "scene": 0
}