{
  "asset": {
    "version": "2.0",
    "generator": "COLLADA2GLTF"
  },
  "accessors": [
    {
      "bufferView": 0,
      "byteOffset": 0,
      "componentType": 5123,
      "count": 3558,
      "min": [
        0
      ],
      "max": [
        1445
      ],
      "type": "SCALAR"
    },
    {
      "bufferView": 1,
      "byteOffset": 0,
      "componentType": 5126,
      "count": 1446,
      "max": [
        2786.62158203125,
        0.0010000000474974513,
        -660
      ],
      "min": [
        2327.793212890625,
        0,
        -1080
      ],
      "type": "VEC3"
    },
    {
      "bufferView": 2,
      "byteOffset": 0,
      "componentType": 5126,
      "count": 1446,
      "max": [
        0.9847073554992676,
        1,
        0.9846108555793762
      ],
      "min": [
        -0.9847249984741211,
        0,
        -0.9847701191902161
      ],
      "type": "VEC3"
    },
    {
      "bufferView": 3,
      "byteOffset": 0,
      "componentType": 5126,
      "count": 1446,
      "max": [
        0.999786376953125,
        1,
        1
      ],
      "min": [
        0,
        0.00003051804378628731,
        0.00004577706567943096
      ],
      "type": "VEC3"
    }
  ],
  "buffers": [
    {
      "byteLength": 7116,
      "uri": "data:application/octet-stream;base64,"
    },
    {
      "byteLength": 17352,
      "uri": "data:application/octet-stream;base64,"
    },
    {
      "byteLength": 17352,
      "uri": "data:application/octet-stream;base64,"
    },
    {
      "byteLength": 17352,
      "uri": "data:application/octet-stream;base64,"
    }
  ],
  "bufferViews": [
    {
      "buffer": 0,
      "byteOffset": 0,
      "byteLength": 7116
    },
    {
      "buffer": 1,
      "byteOffset": 0,
      "byteLength": 17352
    },
    {
      "buffer": 2,
      "byteOffset": 0,
      "byteLength": 17352
    },
    {
      "buffer": 3,
      "byteOffset": 0,
      "byteLength": 17352
    }
  ],
  "meshes": [
    {
      "primitives": [
        {
          "mode": 4,
          "indices": 0,
          "attributes": {
            "POSITION": 1,
            "NORMAL": 2,
            "COLOR_0": 3
          }
        }
      ]
    }
  ],
  "nodes": [
    {
      "children": [
        1
      ]
    },
    {
      "mesh": 0
    }
  ],
  "scenes": [
    {
      "nodes": [
        0
      ]
    }
  ],
  "scene": 0
}