{
  "asset": {
    "version": "2.0",
    "generator": "COLLADA2GLTF"
  },
  "accessors": [
    {
      "bufferView": 0,
      "byteOffset": 0,
      "componentType": 5123,
      "count": 1368,
      "min": [
        0
      ],
      "max": [
        499
      ],
      "type": "SCALAR"
    },
    {
      "bufferView": 1,
      "byteOffset": 0,
      "componentType": 5126,
      "count": 500,
      "max": [
        3363.634521484375,
        0,
        -1641.8809814453125
      ],
      "min": [
        3160.468994140625,
        -3,
        -1974.701171875
      ],
      "type": "VEC3"
    },
    {
      "bufferView": 2,
      "byteOffset": 0,
      "componentType": 5126,
      "count": 500,
      "max": [
        0.9069802165031433,
        1,
        0.9069802165031433
      ],
      "min": [
        -0.9069802165031433,
        0,
        -0.9069802165031433
      ],
      "type": "VEC3"
    },
    {
      "bufferView": 3,
      "byteOffset": 0,
      "componentType": 5126,
      "count": 500,
      "max": [
        0.21585412323474884,
        0.21585412323474884,
        0.21589989960193634
      ],
      "min": [
        0.21585412323474884,
        0.21585412323474884,
        0.21589989960193634
      ],
      "type": "VEC3"
    }
  ],
  "buffers": [
    {
      "byteLength": 2736,
      "uri": "data:application/octet-stream;base64,"
    },
    {
      "byteLength": 6000,
      "uri": "data:application/octet-stream;base64,"
    },
    {
      "byteLength": 6000,
      "uri": "data:application/octet-stream;base64,"
    },
    {
      "byteLength": 6000,
      "uri": "data:application/octet-stream;base64,"
    }
  ],
  "bufferViews": [
    {
      "buffer": 0,
      "byteOffset": 0,
      "byteLength": 2736
    },
    {
      "buffer": 1,
      "byteOffset": 0,
      "byteLength": 6000
    },
    {
      "buffer": 2,
      "byteOffset": 0,
      "byteLength": 6000
    },
    {
      "buffer": 3,
      "byteOffset": 0,
      "byteLength": 6000
    }
  ],
  "meshes": [
    {
      "primitives": [
        {
          "mode": 4,
          "indices": 0,
          "attributes": {
            "POSITION": 1,
            "NORMAL": 2,
            "COLOR_0": 3
          }
        }
      ]
    }
  ],
  "nodes": [
    {
      "children": [
        1
      ]
    },
    {
      "mesh": 0
    }
  ],
  "scenes": [
    {
      "nodes": [
        0
      ]
    }
  ],
  "scene": 0
}