{
  "asset": {
    "version": "2.0",
    "generator": "COLLADA2GLTF"
  },
  "accessors": [
    {
      "bufferView": 0,
      "byteOffset": 0,
      "componentType": 5123,
      "count": 552,
      "min": [
        0
      ],
      "max": [
        270
      ],
      "type": "SCALAR"
    },
    {
      "bufferView": 1,
      "byteOffset": 0,
      "componentType": 5126,
      "count": 271,
      "max": [
        -300,
        7.5,
        709.333740234375
      ],
      "min": [
        -570,
        0,
        419.2313537597656
      ],
      "type": "VEC3"
    },
    {
      "bufferView": 2,
      "byteOffset": 0,
      "componentType": 5126,
      "count": 271,
      "max": [
        0.5656914114952087,
        1,
        0.8353427648544312
      ],
      "min": [
        -0.8353397250175476,
        0,
        0
      ],
      "type": "VEC3"
    },
    {
      "bufferView": 3,
      "byteOffset": 0,
      "componentType": 5126,
      "count": 271,
      "max": [
        0.999786376953125,
        1,
        0.26330968737602234
      ],
      "min": [
        0.000015259021893143654,
        0.07324330508708954,
        0.00004577706567943096
      ],
      "type": "VEC3"
    }
  ],
  "buffers": [
    {
      "byteLength": 1104,
      "uri": "data:application/octet-stream;base64,"
    },
    {
      "byteLength": 3252,
      "uri": "data:application/octet-stream;base64,"
    },
    {
      "byteLength": 3252,
      "uri": "data:application/octet-stream;base64,"
    },
    {
      "byteLength": 3252,
      "uri": "data:application/octet-stream;base64,"
    }
  ],
  "bufferViews": [
    {
      "buffer": 0,
      "byteOffset": 0,
      "byteLength": 1104
    },
    {
      "buffer": 1,
      "byteOffset": 0,
      "byteLength": 3252
    },
    {
      "buffer": 2,
      "byteOffset": 0,
      "byteLength": 3252
    },
    {
      "buffer": 3,
      "byteOffset": 0,
      "byteLength": 3252
    }
  ],
  "meshes": [
    {
      "primitives": [
        {
          "mode": 4,
          "indices": 0,
          "attributes": {
            "POSITION": 1,
            "NORMAL": 2,
            "COLOR_0": 3
          }
        }
      ]
    }
  ],
  "nodes": [
    {
      "children": [
        1
      ]
    },
    {
      "mesh": 0
    }
  ],
  "scenes": [
    {
      "nodes": [
        0
      ]
    }
  ],
  "scene": 0
}