{
  "asset": {
    "version": "2.0",
    "generator": "COLLADA2GLTF"
  },
  "accessors": [
    {
      "bufferView": 0,
      "byteOffset": 0,
      "componentType": 5123,
      "count": 1899,
      "min": [
        0
      ],
      "max": [
        815
      ],
      "type": "SCALAR"
    },
    {
      "bufferView": 1,
      "byteOffset": 0,
      "componentType": 5126,
      "count": 816,
      "max": [
        -9142.7314453125,
        14.5,
        -2285.088623046875
      ],
      "min": [
        -9427.58203125,
        9.28499984741211,
        -2403.654296875
      ],
      "type": "VEC3"
    },
    {
      "bufferView": 2,
      "byteOffset": 0,
      "componentType": 5126,
      "count": 816,
      "max": [
        0.9449870586395264,
        0.7066150903701782,
        0.9449870586395264
      ],
      "min": [
        -0.9449870586395264,
        -0.7061440944671631,
        -0.9449870586395264
      ],
      "type": "VEC3"
    },
    {
      "bufferView": 3,
      "byteOffset": 0,
      "componentType": 5126,
      "count": 816,
      "max": [
        0.4480048716068268,
        0.4480048716068268,
        0.4480659067630768
      ],
      "min": [
        0,
        0,
        0
      ],
      "type": "VEC3"
    }
  ],
  "buffers": [
    {
      "byteLength": 3798,
      "uri": "data:application/octet-stream;base64,"
    },
    {
      "byteLength": 9792,
      "uri": "data:application/octet-stream;base64,"
    },
    {
      "byteLength": 9792,
      "uri": "data:application/octet-stream;base64,"
    },
    {
      "byteLength": 9792,
      "uri": "data:application/octet-stream;base64,"
    }
  ],
  "bufferViews": [
    {
      "buffer": 0,
      "byteOffset": 0,
      "byteLength": 3798
    },
    {
      "buffer": 1,
      "byteOffset": 0,
      "byteLength": 9792
    },
    {
      "buffer": 2,
      "byteOffset": 0,
      "byteLength": 9792
    },
    {
      "buffer": 3,
      "byteOffset": 0,
      "byteLength": 9792
    }
  ],
  "meshes": [
    {
      "primitives": [
        {
          "mode": 4,
          "indices": 0,
          "attributes": {
            "POSITION": 1,
            "NORMAL": 2,
            "COLOR_0": 3
          }
        }
      ]
    }
  ],
  "nodes": [
    {
      "children": [
        1
      ]
    },
    {
      "mesh": 0
    }
  ],
  "scenes": [
    {
      "nodes": [
        0
      ]
    }
  ],
  "scene": 0
}