{
  "asset": {
    "version": "2.0",
    "generator": "COLLADA2GLTF"
  },
  "accessors": [
    {
      "bufferView": 0,
      "byteOffset": 0,
      "componentType": 5123,
      "count": 351,
      "min": [
        0
      ],
      "max": [
        126
      ],
      "type": "SCALAR"
    },
    {
      "bufferView": 1,
      "byteOffset": 0,
      "componentType": 5126,
      "count": 127,
      "max": [
        -134.48707580566406,
        0,
        317.1929626464844
      ],
      "min": [
        -174.1913299560547,
        -3,
        288.0350341796875
      ],
      "type": "VEC3"
    },
    {
      "bufferView": 2,
      "byteOffset": 0,
      "componentType": 5126,
      "count": 127,
      "max": [
        0.8182193040847778,
        1,
        0.8182193040847778
      ],
      "min": [
        -0.8182193040847778,
        0,
        -0.8182193040847778
      ],
      "type": "VEC3"
    },
    {
      "bufferView": 3,
      "byteOffset": 0,
      "componentType": 5126,
      "count": 127,
      "max": [
        0.21585412323474884,
        0.21585412323474884,
        0.21589989960193634
      ],
      "min": [
        0.21585412323474884,
        0.21585412323474884,
        0.21589989960193634
      ],
      "type": "VEC3"
    }
  ],
  "buffers": [
    {
      "byteLength": 702,
      "uri": "data:application/octet-stream;base64,"
    },
    {
      "byteLength": 1524,
      "uri": "data:application/octet-stream;base64,"
    },
    {
      "byteLength": 1524,
      "uri": "data:application/octet-stream;base64,"
    },
    {
      "byteLength": 1524,
      "uri": "data:application/octet-stream;base64,"
    }
  ],
  "bufferViews": [
    {
      "buffer": 0,
      "byteOffset": 0,
      "byteLength": 702
    },
    {
      "buffer": 1,
      "byteOffset": 0,
      "byteLength": 1524
    },
    {
      "buffer": 2,
      "byteOffset": 0,
      "byteLength": 1524
    },
    {
      "buffer": 3,
      "byteOffset": 0,
      "byteLength": 1524
    }
  ],
  "meshes": [
    {
      "primitives": [
        {
          "mode": 4,
          "indices": 0,
          "attributes": {
            "POSITION": 1,
            "NORMAL": 2,
            "COLOR_0": 3
          }
        }
      ]
    }
  ],
  "nodes": [
    {
      "children": [
        1
      ]
    },
    {
      "mesh": 0
    }
  ],
  "scenes": [
    {
      "nodes": [
        0
      ]
    }
  ],
  "scene": 0
}