{
  "asset": {
    "version": "2.0",
    "generator": "COLLADA2GLTF"
  },
  "accessors": [
    {
      "bufferView": 0,
      "byteOffset": 0,
      "componentType": 5123,
      "count": 4701,
      "min": [
        0
      ],
      "max": [
        1818
      ],
      "type": "SCALAR"
    },
    {
      "bufferView": 1,
      "byteOffset": 0,
      "componentType": 5126,
      "count": 1819,
      "max": [
        1582.029541015625,
        0.0010000000474974513,
        1740
      ],
      "min": [
        990.042236328125,
        0,
        1140.720458984375
      ],
      "type": "VEC3"
    },
    {
      "bufferView": 2,
      "byteOffset": 0,
      "componentType": 5126,
      "count": 1819,
      "max": [
        0.932251513004303,
        1,
        0.9324576258659363
      ],
      "min": [
        -0.932231605052948,
        -1,
        -0.9322769641876221
      ],
      "type": "VEC3"
    },
    {
      "bufferView": 3,
      "byteOffset": 0,
      "componentType": 5126,
      "count": 1819,
      "max": [
        0.999786376953125,
        1,
        0.7875028848648071
      ],
      "min": [
        0.000015259021893143654,
        0.07324330508708954,
        0.00004577706567943096
      ],
      "type": "VEC3"
    }
  ],
  "buffers": [
    {
      "byteLength": 9402,
      "uri": "data:application/octet-stream;base64,"
    },
    {
      "byteLength": 21828,
      "uri": "data:application/octet-stream;base64,"
    },
    {
      "byteLength": 21828,
      "uri": "data:application/octet-stream;base64,"
    },
    {
      "byteLength": 21828,
      "uri": "data:application/octet-stream;base64,"
    }
  ],
  "bufferViews": [
    {
      "buffer": 0,
      "byteOffset": 0,
      "byteLength": 9402
    },
    {
      "buffer": 1,
      "byteOffset": 0,
      "byteLength": 21828
    },
    {
      "buffer": 2,
      "byteOffset": 0,
      "byteLength": 21828
    },
    {
      "buffer": 3,
      "byteOffset": 0,
      "byteLength": 21828
    }
  ],
  "meshes": [
    {
      "primitives": [
        {
          "mode": 4,
          "indices": 0,
          "attributes": {
            "POSITION": 1,
            "NORMAL": 2,
            "COLOR_0": 3
          }
        }
      ]
    }
  ],
  "nodes": [
    {
      "children": [
        1
      ]
    },
    {
      "mesh": 0
    }
  ],
  "scenes": [
    {
      "nodes": [
        0
      ]
    }
  ],
  "scene": 0
}