{
  "asset": {
    "version": "2.0",
    "generator": "COLLADA2GLTF"
  },
  "accessors": [
    {
      "bufferView": 0,
      "byteOffset": 0,
      "componentType": 5123,
      "count": 1659,
      "min": [
        0
      ],
      "max": [
        979
      ],
      "type": "SCALAR"
    },
    {
      "bufferView": 1,
      "byteOffset": 0,
      "componentType": 5126,
      "count": 980,
      "max": [
        -58.99399948120117,
        7.5,
        54.25699996948242
      ],
      "min": [
        -229.50900268554688,
        7.5,
        -116.4520034790039
      ],
      "type": "VEC3"
    },
    {
      "bufferView": 2,
      "byteOffset": 0,
      "componentType": 5126,
      "count": 980,
      "max": [
        0.9986841082572937,
        1,
        0.998684823513031
      ],
      "min": [
        -0.9986420273780823,
        0,
        -0.998680830001831
      ],
      "type": "VEC3"
    },
    {
      "bufferView": 3,
      "byteOffset": 0,
      "componentType": 5126,
      "count": 980,
      "max": [
        0.999786376953125,
        0.7875181436538696,
        0.26330968737602234
      ],
      "min": [
        0.6036774516105652,
        0.00003051804378628731,
        0
      ],
      "type": "VEC3"
    }
  ],
  "buffers": [
    {
      "byteLength": 3318,
      "uri": "data:application/octet-stream;base64,"
    },
    {
      "byteLength": 11760,
      "uri": "data:application/octet-stream;base64,"
    },
    {
      "byteLength": 11760,
      "uri": "data:application/octet-stream;base64,"
    },
    {
      "byteLength": 11760,
      "uri": "data:application/octet-stream;base64,"
    }
  ],
  "bufferViews": [
    {
      "buffer": 0,
      "byteOffset": 0,
      "byteLength": 3318
    },
    {
      "buffer": 1,
      "byteOffset": 0,
      "byteLength": 11760
    },
    {
      "buffer": 2,
      "byteOffset": 0,
      "byteLength": 11760
    },
    {
      "buffer": 3,
      "byteOffset": 0,
      "byteLength": 11760
    }
  ],
  "meshes": [
    {
      "primitives": [
        {
          "mode": 4,
          "indices": 0,
          "attributes": {
            "POSITION": 1,
            "NORMAL": 2,
            "COLOR_0": 3
          }
        }
      ]
    }
  ],
  "nodes": [
    {
      "children": [
        1
      ]
    },
    {
      "mesh": 0
    }
  ],
  "scenes": [
    {
      "nodes": [
        0
      ]
    }
  ],
  "scene": 0
}