{
  "asset": {
    "version": "2.0",
    "generator": "COLLADA2GLTF"
  },
  "accessors": [
    {
      "bufferView": 0,
      "byteOffset": 0,
      "componentType": 5123,
      "count": 468,
      "min": [
        0
      ],
      "max": [
        243
      ],
      "type": "SCALAR"
    },
    {
      "bufferView": 1,
      "byteOffset": 0,
      "componentType": 5126,
      "count": 244,
      "max": [
        -1749.98876953125,
        0.0010000000474974513,
        -687.70947265625
      ],
      "min": [
        -1861.5533447265625,
        0,
        -883.9346923828125
      ],
      "type": "VEC3"
    },
    {
      "bufferView": 2,
      "byteOffset": 0,
      "componentType": 5126,
      "count": 244,
      "max": [
        0.021498095244169235,
        1,
        0.9989365339279175
      ],
      "min": [
        -0.9983628392219543,
        0,
        -0.9997689127922058
      ],
      "type": "VEC3"
    },
    {
      "bufferView": 3,
      "byteOffset": 0,
      "componentType": 5126,
      "count": 244,
      "max": [
        0.999786376953125,
        1,
        0.7875028848648071
      ],
      "min": [
        0.000015259021893143654,
        0.07324330508708954,
        0.00004577706567943096
      ],
      "type": "VEC3"
    }
  ],
  "buffers": [
    {
      "byteLength": 936,
      "uri": "data:application/octet-stream;base64,"
    },
    {
      "byteLength": 2928,
      "uri": "data:application/octet-stream;base64,"
    },
    {
      "byteLength": 2928,
      "uri": "data:application/octet-stream;base64,"
    },
    {
      "byteLength": 2928,
      "uri": "data:application/octet-stream;base64,"
    }
  ],
  "bufferViews": [
    {
      "buffer": 0,
      "byteOffset": 0,
      "byteLength": 936
    },
    {
      "buffer": 1,
      "byteOffset": 0,
      "byteLength": 2928
    },
    {
      "buffer": 2,
      "byteOffset": 0,
      "byteLength": 2928
    },
    {
      "buffer": 3,
      "byteOffset": 0,
      "byteLength": 2928
    }
  ],
  "meshes": [
    {
      "primitives": [
        {
          "mode": 4,
          "indices": 0,
          "attributes": {
            "POSITION": 1,
            "NORMAL": 2,
            "COLOR_0": 3
          }
        }
      ]
    }
  ],
  "nodes": [
    {
      "children": [
        1
      ]
    },
    {
      "mesh": 0
    }
  ],
  "scenes": [
    {
      "nodes": [
        0
      ]
    }
  ],
  "scene": 0
}