{
  "asset": {
    "version": "2.0",
    "generator": "COLLADA2GLTF"
  },
  "accessors": [
    {
      "bufferView": 0,
      "byteOffset": 0,
      "componentType": 5123,
      "count": 432,
      "min": [
        0
      ],
      "max": [
        248
      ],
      "type": "SCALAR"
    },
    {
      "bufferView": 1,
      "byteOffset": 0,
      "componentType": 5126,
      "count": 249,
      "max": [
        -1439.964599609375,
        17,
        -438.5240173339844
      ],
      "min": [
        -1484.914794921875,
        12,
        -483.80780029296875
      ],
      "type": "VEC3"
    },
    {
      "bufferView": 2,
      "byteOffset": 0,
      "componentType": 5126,
      "count": 249,
      "max": [
        0.761488139629364,
        0.7054216265678406,
        0.761488139629364
      ],
      "min": [
        -0.761488139629364,
        -0.7054216265678406,
        -0.761488139629364
      ],
      "type": "VEC3"
    },
    {
      "bufferView": 3,
      "byteOffset": 0,
      "componentType": 5126,
      "count": 249,
      "max": [
        0.4480048716068268,
        0.4480048716068268,
        0.4480659067630768
      ],
      "min": [
        0,
        0,
        0
      ],
      "type": "VEC3"
    }
  ],
  "buffers": [
    {
      "byteLength": 864,
      "uri": "data:application/octet-stream;base64,"
    },
    {
      "byteLength": 2988,
      "uri": "data:application/octet-stream;base64,"
    },
    {
      "byteLength": 2988,
      "uri": "data:application/octet-stream;base64,"
    },
    {
      "byteLength": 2988,
      "uri": "data:application/octet-stream;base64,"
    }
  ],
  "bufferViews": [
    {
      "buffer": 0,
      "byteOffset": 0,
      "byteLength": 864
    },
    {
      "buffer": 1,
      "byteOffset": 0,
      "byteLength": 2988
    },
    {
      "buffer": 2,
      "byteOffset": 0,
      "byteLength": 2988
    },
    {
      "buffer": 3,
      "byteOffset": 0,
      "byteLength": 2988
    }
  ],
  "meshes": [
    {
      "primitives": [
        {
          "mode": 4,
          "indices": 0,
          "attributes": {
            "POSITION": 1,
            "NORMAL": 2,
            "COLOR_0": 3
          }
        }
      ]
    }
  ],
  "nodes": [
    {
      "children": [
        1
      ]
    },
    {
      "mesh": 0
    }
  ],
  "scenes": [
    {
      "nodes": [
        0
      ]
    }
  ],
  "scene": 0
}