{
  "asset": {
    "version": "2.0",
    "generator": "COLLADA2GLTF"
  },
  "accessors": [
    {
      "bufferView": 0,
      "byteOffset": 0,
      "componentType": 5123,
      "count": 1377,
      "min": [
        0
      ],
      "max": [
        588
      ],
      "type": "SCALAR"
    },
    {
      "bufferView": 1,
      "byteOffset": 0,
      "componentType": 5126,
      "count": 589,
      "max": [
        -8503.787109375,
        14.5,
        -2026.97900390625
      ],
      "min": [
        -8779.9375,
        9.28499984741211,
        -2168.170166015625
      ],
      "type": "VEC3"
    },
    {
      "bufferView": 2,
      "byteOffset": 0,
      "componentType": 5126,
      "count": 589,
      "max": [
        0.9102832078933716,
        0.7066295742988586,
        0.9102832078933716
      ],
      "min": [
        -0.9102832078933716,
        -0.7061724066734314,
        -0.9102832078933716
      ],
      "type": "VEC3"
    },
    {
      "bufferView": 3,
      "byteOffset": 0,
      "componentType": 5126,
      "count": 589,
      "max": [
        0.4480048716068268,
        0.4480048716068268,
        0.4480659067630768
      ],
      "min": [
        0,
        0,
        0
      ],
      "type": "VEC3"
    }
  ],
  "buffers": [
    {
      "byteLength": 2754,
      "uri": "data:application/octet-stream;base64,"
    },
    {
      "byteLength": 7068,
      "uri": "data:application/octet-stream;base64,"
    },
    {
      "byteLength": 7068,
      "uri": "data:application/octet-stream;base64,"
    },
    {
      "byteLength": 7068,
      "uri": "data:application/octet-stream;base64,"
    }
  ],
  "bufferViews": [
    {
      "buffer": 0,
      "byteOffset": 0,
      "byteLength": 2754
    },
    {
      "buffer": 1,
      "byteOffset": 0,
      "byteLength": 7068
    },
    {
      "buffer": 2,
      "byteOffset": 0,
      "byteLength": 7068
    },
    {
      "buffer": 3,
      "byteOffset": 0,
      "byteLength": 7068
    }
  ],
  "meshes": [
    {
      "primitives": [
        {
          "mode": 4,
          "indices": 0,
          "attributes": {
            "POSITION": 1,
            "NORMAL": 2,
            "COLOR_0": 3
          }
        }
      ]
    }
  ],
  "nodes": [
    {
      "children": [
        1
      ]
    },
    {
      "mesh": 0
    }
  ],
  "scenes": [
    {
      "nodes": [
        0
      ]
    }
  ],
  "scene": 0
}