{
  "asset": {
    "version": "2.0",
    "generator": "COLLADA2GLTF"
  },
  "accessors": [
    {
      "bufferView": 0,
      "byteOffset": 0,
      "componentType": 5123,
      "count": 2118,
      "min": [
        0
      ],
      "max": [
        1136
      ],
      "type": "SCALAR"
    },
    {
      "bufferView": 1,
      "byteOffset": 0,
      "componentType": 5126,
      "count": 1137,
      "max": [
        -2728.930908203125,
        21.596656799316406,
        1937.85986328125
      ],
      "min": [
        -3101.614990234375,
        0,
        1583.844970703125
      ],
      "type": "VEC3"
    },
    {
      "bufferView": 2,
      "byteOffset": 0,
      "componentType": 5126,
      "count": 1137,
      "max": [
        1,
        1,
        1
      ],
      "min": [
        -0.9971328377723694,
        0,
        -0.9105467796325684
      ],
      "type": "VEC3"
    },
    {
      "bufferView": 3,
      "byteOffset": 0,
      "componentType": 5126,
      "count": 1137,
      "max": [
        0.999786376953125,
        0.7875181436538696,
        0.26330968737602234
      ],
      "min": [
        0.00004577706567943096,
        0.00003051804378628731,
        0
      ],
      "type": "VEC3"
    }
  ],
  "buffers": [
    {
      "byteLength": 4236,
      "uri": "data:application/octet-stream;base64,"
    },
    {
      "byteLength": 13644,
      "uri": "data:application/octet-stream;base64,"
    },
    {
      "byteLength": 13644,
      "uri": "data:application/octet-stream;base64,"
    },
    {
      "byteLength": 13644,
      "uri": "data:application/octet-stream;base64,"
    }
  ],
  "bufferViews": [
    {
      "buffer": 0,
      "byteOffset": 0,
      "byteLength": 4236
    },
    {
      "buffer": 1,
      "byteOffset": 0,
      "byteLength": 13644
    },
    {
      "buffer": 2,
      "byteOffset": 0,
      "byteLength": 13644
    },
    {
      "buffer": 3,
      "byteOffset": 0,
      "byteLength": 13644
    }
  ],
  "meshes": [
    {
      "primitives": [
        {
          "mode": 4,
          "indices": 0,
          "attributes": {
            "POSITION": 1,
            "NORMAL": 2,
            "COLOR_0": 3
          }
        }
      ]
    }
  ],
  "nodes": [
    {
      "children": [
        1
      ]
    },
    {
      "mesh": 0
    }
  ],
  "scenes": [
    {
      "nodes": [
        0
      ]
    }
  ],
  "scene": 0
}