{
  "asset": {
    "version": "2.0",
    "generator": "COLLADA2GLTF"
  },
  "accessors": [
    {
      "bufferView": 0,
      "byteOffset": 0,
      "componentType": 5123,
      "count": 615,
      "min": [
        0
      ],
      "max": [
        218
      ],
      "type": "SCALAR"
    },
    {
      "bufferView": 1,
      "byteOffset": 0,
      "componentType": 5126,
      "count": 219,
      "max": [
        -785.6380004882812,
        0.0010000000474974513,
        5396.07080078125
      ],
      "min": [
        -2066.010009765625,
        -3,
        -2794.655029296875
      ],
      "type": "VEC3"
    },
    {
      "bufferView": 2,
      "byteOffset": 0,
      "componentType": 5126,
      "count": 219,
      "max": [
        0.8472266793251038,
        1,
        0.8472266793251038
      ],
      "min": [
        -0.8472331166267395,
        -1,
        -0.8472266793251038
      ],
      "type": "VEC3"
    },
    {
      "bufferView": 3,
      "byteOffset": 0,
      "componentType": 5126,
      "count": 219,
      "max": [
        0.7872740030288696,
        0.7875028848648071,
        1
      ],
      "min": [
        0,
        0.00003051804378628731,
        0.07325856387615204
      ],
      "type": "VEC3"
    }
  ],
  "buffers": [
    {
      "byteLength": 1230,
      "uri": "data:application/octet-stream;base64,"
    },
    {
      "byteLength": 2628,
      "uri": "data:application/octet-stream;base64,"
    },
    {
      "byteLength": 2628,
      "uri": "data:application/octet-stream;base64,"
    },
    {
      "byteLength": 2628,
      "uri": "data:application/octet-stream;base64,"
    }
  ],
  "bufferViews": [
    {
      "buffer": 0,
      "byteOffset": 0,
      "byteLength": 1230
    },
    {
      "buffer": 1,
      "byteOffset": 0,
      "byteLength": 2628
    },
    {
      "buffer": 2,
      "byteOffset": 0,
      "byteLength": 2628
    },
    {
      "buffer": 3,
      "byteOffset": 0,
      "byteLength": 2628
    }
  ],
  "meshes": [
    {
      "primitives": [
        {
          "mode": 4,
          "indices": 0,
          "attributes": {
            "POSITION": 1,
            "NORMAL": 2,
            "COLOR_0": 3
          }
        }
      ]
    }
  ],
  "nodes": [
    {
      "children": [
        1
      ]
    },
    {
      "mesh": 0
    }
  ],
  "scenes": [
    {
      "nodes": [
        0
      ]
    }
  ],
  "scene": 0
}