{
  "asset": {
    "version": "2.0",
    "generator": "COLLADA2GLTF"
  },
  "accessors": [
    {
      "bufferView": 0,
      "byteOffset": 0,
      "componentType": 5123,
      "count": 2931,
      "min": [
        0
      ],
      "max": [
        1193
      ],
      "type": "SCALAR"
    },
    {
      "bufferView": 1,
      "byteOffset": 0,
      "componentType": 5126,
      "count": 1194,
      "max": [
        -252.7950439453125,
        2.299999952316284,
        632.6370239257812
      ],
      "min": [
        -510,
        -0.20000000298023224,
        356.0294189453125
      ],
      "type": "VEC3"
    },
    {
      "bufferView": 2,
      "byteOffset": 0,
      "componentType": 5126,
      "count": 1194,
      "max": [
        0.9898214340209961,
        1,
        1
      ],
      "min": [
        -0.9898214340209961,
        -1,
        -0.9594929814338684
      ],
      "type": "VEC3"
    },
    {
      "bufferView": 3,
      "byteOffset": 0,
      "componentType": 5126,
      "count": 1194,
      "max": [
        0.999847412109375,
        1,
        0.9999847412109375
      ],
      "min": [
        0.000015259021893143654,
        0.00003051804378628731,
        0
      ],
      "type": "VEC3"
    }
  ],
  "buffers": [
    {
      "byteLength": 5862,
      "uri": "data:application/octet-stream;base64,"
    },
    {
      "byteLength": 14328,
      "uri": "data:application/octet-stream;base64,"
    },
    {
      "byteLength": 14328,
      "uri": "data:application/octet-stream;base64,"
    },
    {
      "byteLength": 14328,
      "uri": "data:application/octet-stream;base64,"
    }
  ],
  "bufferViews": [
    {
      "buffer": 0,
      "byteOffset": 0,
      "byteLength": 5862
    },
    {
      "buffer": 1,
      "byteOffset": 0,
      "byteLength": 14328
    },
    {
      "buffer": 2,
      "byteOffset": 0,
      "byteLength": 14328
    },
    {
      "buffer": 3,
      "byteOffset": 0,
      "byteLength": 14328
    }
  ],
  "meshes": [
    {
      "primitives": [
        {
          "mode": 4,
          "indices": 0,
          "attributes": {
            "POSITION": 1,
            "NORMAL": 2,
            "COLOR_0": 3
          }
        }
      ]
    }
  ],
  "nodes": [
    {
      "children": [
        1
      ]
    },
    {
      "mesh": 0
    }
  ],
  "scenes": [
    {
      "nodes": [
        0
      ]
    }
  ],
  "scene": 0
}