{
  "asset": {
    "version": "2.0",
    "generator": "COLLADA2GLTF"
  },
  "accessors": [
    {
      "bufferView": 0,
      "byteOffset": 0,
      "componentType": 5123,
      "count": 603,
      "min": [
        0
      ],
      "max": [
        332
      ],
      "type": "SCALAR"
    },
    {
      "bufferView": 1,
      "byteOffset": 0,
      "componentType": 5126,
      "count": 333,
      "max": [
        1475.489990234375,
        7.5,
        -52.08599853515625
      ],
      "min": [
        1317.1810302734375,
        0,
        -397.8609924316406
      ],
      "type": "VEC3"
    },
    {
      "bufferView": 2,
      "byteOffset": 0,
      "componentType": 5126,
      "count": 333,
      "max": [
        0.9846063256263733,
        1,
        0.9846141338348389
      ],
      "min": [
        -0.9845180511474609,
        0,
        -0.9845883846282959
      ],
      "type": "VEC3"
    },
    {
      "bufferView": 3,
      "byteOffset": 0,
      "componentType": 5126,
      "count": 333,
      "max": [
        0.999786376953125,
        0.7875181436538696,
        0.26330968737602234
      ],
      "min": [
        0.6036774516105652,
        0.00003051804378628731,
        0
      ],
      "type": "VEC3"
    }
  ],
  "buffers": [
    {
      "byteLength": 1206,
      "uri": "data:application/octet-stream;base64,"
    },
    {
      "byteLength": 3996,
      "uri": "data:application/octet-stream;base64,"
    },
    {
      "byteLength": 3996,
      "uri": "data:application/octet-stream;base64,"
    },
    {
      "byteLength": 3996,
      "uri": "data:application/octet-stream;base64,"
    }
  ],
  "bufferViews": [
    {
      "buffer": 0,
      "byteOffset": 0,
      "byteLength": 1206
    },
    {
      "buffer": 1,
      "byteOffset": 0,
      "byteLength": 3996
    },
    {
      "buffer": 2,
      "byteOffset": 0,
      "byteLength": 3996
    },
    {
      "buffer": 3,
      "byteOffset": 0,
      "byteLength": 3996
    }
  ],
  "meshes": [
    {
      "primitives": [
        {
          "mode": 4,
          "indices": 0,
          "attributes": {
            "POSITION": 1,
            "NORMAL": 2,
            "COLOR_0": 3
          }
        }
      ]
    }
  ],
  "nodes": [
    {
      "children": [
        1
      ]
    },
    {
      "mesh": 0
    }
  ],
  "scenes": [
    {
      "nodes": [
        0
      ]
    }
  ],
  "scene": 0
}