{
  "asset": {
    "version": "2.0",
    "generator": "COLLADA2GLTF"
  },
  "accessors": [
    {
      "bufferView": 0,
      "byteOffset": 0,
      "componentType": 5123,
      "count": 198,
      "min": [
        0
      ],
      "max": [
        106
      ],
      "type": "SCALAR"
    },
    {
      "bufferView": 1,
      "byteOffset": 0,
      "componentType": 5126,
      "count": 107,
      "max": [
        839.5089721679688,
        7.5,
        205.33900451660156
      ],
      "min": [
        740.697998046875,
        0,
        109.13700103759766
      ],
      "type": "VEC3"
    },
    {
      "bufferView": 2,
      "byteOffset": 0,
      "componentType": 5126,
      "count": 107,
      "max": [
        0.9665798544883728,
        0,
        0.9667272567749023
      ],
      "min": [
        -0.9527959227561951,
        0,
        -0.9667572379112244
      ],
      "type": "VEC3"
    },
    {
      "bufferView": 3,
      "byteOffset": 0,
      "componentType": 5126,
      "count": 107,
      "max": [
        0.999786376953125,
        0.7875181436538696,
        0.26330968737602234
      ],
      "min": [
        0.999786376953125,
        0.7875181436538696,
        0.26330968737602234
      ],
      "type": "VEC3"
    }
  ],
  "buffers": [
    {
      "byteLength": 396,
      "uri": "data:application/octet-stream;base64,"
    },
    {
      "byteLength": 1284,
      "uri": "data:application/octet-stream;base64,"
    },
    {
      "byteLength": 1284,
      "uri": "data:application/octet-stream;base64,"
    },
    {
      "byteLength": 1284,
      "uri": "data:application/octet-stream;base64,"
    }
  ],
  "bufferViews": [
    {
      "buffer": 0,
      "byteOffset": 0,
      "byteLength": 396
    },
    {
      "buffer": 1,
      "byteOffset": 0,
      "byteLength": 1284
    },
    {
      "buffer": 2,
      "byteOffset": 0,
      "byteLength": 1284
    },
    {
      "buffer": 3,
      "byteOffset": 0,
      "byteLength": 1284
    }
  ],
  "meshes": [
    {
      "primitives": [
        {
          "mode": 4,
          "indices": 0,
          "attributes": {
            "POSITION": 1,
            "NORMAL": 2,
            "COLOR_0": 3
          }
        }
      ]
    }
  ],
  "nodes": [
    {
      "children": [
        1
      ]
    },
    {
      "mesh": 0
    }
  ],
  "scenes": [
    {
      "nodes": [
        0
      ]
    }
  ],
  "scene": 0
}