{
  "asset": {
    "version": "2.0",
    "generator": "COLLADA2GLTF"
  },
  "accessors": [
    {
      "bufferView": 0,
      "byteOffset": 0,
      "componentType": 5123,
      "count": 6270,
      "min": [
        0
      ],
      "max": [
        2948
      ],
      "type": "SCALAR"
    },
    {
      "bufferView": 1,
      "byteOffset": 0,
      "componentType": 5126,
      "count": 2949,
      "max": [
        1244.4239501953125,
        7.5,
        -330
      ],
      "min": [
        930,
        0,
        -780
      ],
      "type": "VEC3"
    },
    {
      "bufferView": 2,
      "byteOffset": 0,
      "componentType": 5126,
      "count": 2949,
      "max": [
        1,
        1,
        1
      ],
      "min": [
        -1,
        -1,
        -1
      ],
      "type": "VEC3"
    },
    {
      "bufferView": 3,
      "byteOffset": 0,
      "componentType": 5126,
      "count": 2949,
      "max": [
        0.999786376953125,
        1,
        0.7875028848648071
      ],
      "min": [
        0.000015259021893143654,
        0.000015259021893143654,
        0
      ],
      "type": "VEC3"
    }
  ],
  "buffers": [
    {
      "byteLength": 12540,
      "uri": "data:application/octet-stream;base64,"
    },
    {
      "byteLength": 35388,
      "uri": "data:application/octet-stream;base64,"
    },
    {
      "byteLength": 35388,
      "uri": "data:application/octet-stream;base64,"
    },
    {
      "byteLength": 35388,
      "uri": "data:application/octet-stream;base64,"
    }
  ],
  "bufferViews": [
    {
      "buffer": 0,
      "byteOffset": 0,
      "byteLength": 12540
    },
    {
      "buffer": 1,
      "byteOffset": 0,
      "byteLength": 35388
    },
    {
      "buffer": 2,
      "byteOffset": 0,
      "byteLength": 35388
    },
    {
      "buffer": 3,
      "byteOffset": 0,
      "byteLength": 35388
    }
  ],
  "meshes": [
    {
      "primitives": [
        {
          "mode": 4,
          "indices": 0,
          "attributes": {
            "POSITION": 1,
            "NORMAL": 2,
            "COLOR_0": 3
          }
        }
      ]
    }
  ],
  "nodes": [
    {
      "children": [
        1
      ]
    },
    {
      "mesh": 0
    }
  ],
  "scenes": [
    {
      "nodes": [
        0
      ]
    }
  ],
  "scene": 0
}