{
  "asset": {
    "version": "2.0",
    "generator": "COLLADA2GLTF"
  },
  "accessors": [
    {
      "bufferView": 0,
      "byteOffset": 0,
      "componentType": 5123,
      "count": 5496,
      "min": [
        0
      ],
      "max": [
        2129
      ],
      "type": "SCALAR"
    },
    {
      "bufferView": 1,
      "byteOffset": 0,
      "componentType": 5126,
      "count": 2130,
      "max": [
        213.25453186035156,
        17.165000915527344,
        -1387.406005859375
      ],
      "min": [
        -217.19166564941406,
        12,
        -1657.979248046875
      ],
      "type": "VEC3"
    },
    {
      "bufferView": 2,
      "byteOffset": 0,
      "componentType": 5126,
      "count": 2130,
      "max": [
        0.8661056756973267,
        0.7070840001106262,
        0.8661056756973267
      ],
      "min": [
        -0.8661056756973267,
        -0.7070840001106262,
        -0.8661056756973267
      ],
      "type": "VEC3"
    },
    {
      "bufferView": 3,
      "byteOffset": 0,
      "componentType": 5126,
      "count": 2130,
      "max": [
        0.4480048716068268,
        0.4480048716068268,
        0.4480659067630768
      ],
      "min": [
        0,
        0,
        0
      ],
      "type": "VEC3"
    }
  ],
  "buffers": [
    {
      "byteLength": 10992,
      "uri": "data:application/octet-stream;base64,"
    },
    {
      "byteLength": 25560,
      "uri": "data:application/octet-stream;base64,"
    },
    {
      "byteLength": 25560,
      "uri": "data:application/octet-stream;base64,"
    },
    {
      "byteLength": 25560,
      "uri": "data:application/octet-stream;base64,"
    }
  ],
  "bufferViews": [
    {
      "buffer": 0,
      "byteOffset": 0,
      "byteLength": 10992
    },
    {
      "buffer": 1,
      "byteOffset": 0,
      "byteLength": 25560
    },
    {
      "buffer": 2,
      "byteOffset": 0,
      "byteLength": 25560
    },
    {
      "buffer": 3,
      "byteOffset": 0,
      "byteLength": 25560
    }
  ],
  "meshes": [
    {
      "primitives": [
        {
          "mode": 4,
          "indices": 0,
          "attributes": {
            "POSITION": 1,
            "NORMAL": 2,
            "COLOR_0": 3
          }
        }
      ]
    }
  ],
  "nodes": [
    {
      "children": [
        1
      ]
    },
    {
      "mesh": 0
    }
  ],
  "scenes": [
    {
      "nodes": [
        0
      ]
    }
  ],
  "scene": 0
}