{
  "asset": {
    "version": "2.0",
    "generator": "COLLADA2GLTF"
  },
  "accessors": [
    {
      "bufferView": 0,
      "byteOffset": 0,
      "componentType": 5123,
      "count": 327,
      "min": [
        0
      ],
      "max": [
        170
      ],
      "type": "SCALAR"
    },
    {
      "bufferView": 1,
      "byteOffset": 0,
      "componentType": 5126,
      "count": 171,
      "max": [
        501.27587890625,
        0.0010000000474974513,
        19.349910736083984
      ],
      "min": [
        436.703369140625,
        0,
        -68.47018432617188
      ],
      "type": "VEC3"
    },
    {
      "bufferView": 2,
      "byteOffset": 0,
      "componentType": 5126,
      "count": 171,
      "max": [
        0,
        1,
        0
      ],
      "min": [
        0,
        1,
        0
      ],
      "type": "VEC3"
    },
    {
      "bufferView": 3,
      "byteOffset": 0,
      "componentType": 5126,
      "count": 171,
      "max": [
        0.7872740030288696,
        0.7875028848648071,
        0.7875028848648071
      ],
      "min": [
        0.07322804629802704,
        0.07324330508708954,
        0.07325856387615204
      ],
      "type": "VEC3"
    }
  ],
  "buffers": [
    {
      "byteLength": 654,
      "uri": "data:application/octet-stream;base64,"
    },
    {
      "byteLength": 2052,
      "uri": "data:application/octet-stream;base64,"
    },
    {
      "byteLength": 2052,
      "uri": "data:application/octet-stream;base64,"
    },
    {
      "byteLength": 2052,
      "uri": "data:application/octet-stream;base64,"
    }
  ],
  "bufferViews": [
    {
      "buffer": 0,
      "byteOffset": 0,
      "byteLength": 654
    },
    {
      "buffer": 1,
      "byteOffset": 0,
      "byteLength": 2052
    },
    {
      "buffer": 2,
      "byteOffset": 0,
      "byteLength": 2052
    },
    {
      "buffer": 3,
      "byteOffset": 0,
      "byteLength": 2052
    }
  ],
  "meshes": [
    {
      "primitives": [
        {
          "mode": 4,
          "indices": 0,
          "attributes": {
            "POSITION": 1,
            "NORMAL": 2,
            "COLOR_0": 3
          }
        }
      ]
    }
  ],
  "nodes": [
    {
      "children": [
        1
      ]
    },
    {
      "mesh": 0
    }
  ],
  "scenes": [
    {
      "nodes": [
        0
      ]
    }
  ],
  "scene": 0
}