{
  "asset": {
    "version": "2.0",
    "generator": "COLLADA2GLTF"
  },
  "accessors": [
    {
      "bufferView": 0,
      "byteOffset": 0,
      "componentType": 5123,
      "count": 705,
      "min": [
        0
      ],
      "max": [
        257
      ],
      "type": "SCALAR"
    },
    {
      "bufferView": 1,
      "byteOffset": 0,
      "componentType": 5126,
      "count": 258,
      "max": [
        2404.81005859375,
        0.06400000303983688,
        3458.720458984375
      ],
      "min": [
        2395.30126953125,
        0,
        3453.641357421875
      ],
      "type": "VEC3"
    },
    {
      "bufferView": 2,
      "byteOffset": 0,
      "componentType": 5126,
      "count": 258,
      "max": [
        0.9146078824996948,
        1,
        0.9146078824996948
      ],
      "min": [
        -0.9146078824996948,
        0,
        -0.9146078824996948
      ],
      "type": "VEC3"
    },
    {
      "bufferView": 3,
      "byteOffset": 0,
      "componentType": 5126,
      "count": 258,
      "max": [
        0.07322804629802704,
        0.03309682011604309,
        0.03311207890510559
      ],
      "min": [
        0.07322804629802704,
        0.03309682011604309,
        0.03311207890510559
      ],
      "type": "VEC3"
    }
  ],
  "buffers": [
    {
      "byteLength": 1410,
      "uri": "data:application/octet-stream;base64,"
    },
    {
      "byteLength": 3096,
      "uri": "data:application/octet-stream;base64,"
    },
    {
      "byteLength": 3096,
      "uri": "data:application/octet-stream;base64,"
    },
    {
      "byteLength": 3096,
      "uri": "data:application/octet-stream;base64,"
    }
  ],
  "bufferViews": [
    {
      "buffer": 0,
      "byteOffset": 0,
      "byteLength": 1410
    },
    {
      "buffer": 1,
      "byteOffset": 0,
      "byteLength": 3096
    },
    {
      "buffer": 2,
      "byteOffset": 0,
      "byteLength": 3096
    },
    {
      "buffer": 3,
      "byteOffset": 0,
      "byteLength": 3096
    }
  ],
  "meshes": [
    {
      "primitives": [
        {
          "mode": 4,
          "indices": 0,
          "attributes": {
            "POSITION": 1,
            "NORMAL": 2,
            "COLOR_0": 3
          }
        }
      ]
    }
  ],
  "nodes": [
    {
      "children": [
        1
      ]
    },
    {
      "mesh": 0
    }
  ],
  "scenes": [
    {
      "nodes": [
        0
      ]
    }
  ],
  "scene": 0
}