{
  "asset": {
    "version": "2.0",
    "generator": "COLLADA2GLTF"
  },
  "accessors": [
    {
      "bufferView": 0,
      "byteOffset": 0,
      "componentType": 5123,
      "count": 1578,
      "min": [
        0
      ],
      "max": [
        644
      ],
      "type": "SCALAR"
    },
    {
      "bufferView": 1,
      "byteOffset": 0,
      "componentType": 5126,
      "count": 645,
      "max": [
        1858.710693359375,
        0.0010000000474974513,
        1467.5877685546875
      ],
      "min": [
        1583.5999755859375,
        -0.20000000298023224,
        1142.4241943359375
      ],
      "type": "VEC3"
    },
    {
      "bufferView": 2,
      "byteOffset": 0,
      "componentType": 5126,
      "count": 645,
      "max": [
        0.7422944903373718,
        1,
        0.7573559284210205
      ],
      "min": [
        -0.7573568224906921,
        -1,
        -0.7573577165603638
      ],
      "type": "VEC3"
    },
    {
      "bufferView": 3,
      "byteOffset": 0,
      "componentType": 5126,
      "count": 645,
      "max": [
        0.7872740030288696,
        1,
        0.7875028848648071
      ],
      "min": [
        0.000015259021893143654,
        0.07324330508708954,
        0.00004577706567943096
      ],
      "type": "VEC3"
    }
  ],
  "buffers": [
    {
      "byteLength": 3156,
      "uri": "data:application/octet-stream;base64,"
    },
    {
      "byteLength": 7740,
      "uri": "data:application/octet-stream;base64,"
    },
    {
      "byteLength": 7740,
      "uri": "data:application/octet-stream;base64,"
    },
    {
      "byteLength": 7740,
      "uri": "data:application/octet-stream;base64,"
    }
  ],
  "bufferViews": [
    {
      "buffer": 0,
      "byteOffset": 0,
      "byteLength": 3156
    },
    {
      "buffer": 1,
      "byteOffset": 0,
      "byteLength": 7740
    },
    {
      "buffer": 2,
      "byteOffset": 0,
      "byteLength": 7740
    },
    {
      "buffer": 3,
      "byteOffset": 0,
      "byteLength": 7740
    }
  ],
  "meshes": [
    {
      "primitives": [
        {
          "mode": 4,
          "indices": 0,
          "attributes": {
            "POSITION": 1,
            "NORMAL": 2,
            "COLOR_0": 3
          }
        }
      ]
    }
  ],
  "nodes": [
    {
      "children": [
        1
      ]
    },
    {
      "mesh": 0
    }
  ],
  "scenes": [
    {
      "nodes": [
        0
      ]
    }
  ],
  "scene": 0
}