{
  "asset": {
    "version": "2.0",
    "generator": "COLLADA2GLTF"
  },
  "accessors": [
    {
      "bufferView": 0,
      "byteOffset": 0,
      "componentType": 5123,
      "count": 336,
      "min": [
        0
      ],
      "max": [
        184
      ],
      "type": "SCALAR"
    },
    {
      "bufferView": 1,
      "byteOffset": 0,
      "componentType": 5126,
      "count": 185,
      "max": [
        -176.27706909179688,
        0.0010000000474974513,
        -443.8479919433594
      ],
      "min": [
        -324.7640075683594,
        -0.20000000298023224,
        -663.5330200195312
      ],
      "type": "VEC3"
    },
    {
      "bufferView": 2,
      "byteOffset": 0,
      "componentType": 5126,
      "count": 185,
      "max": [
        0.8600796461105347,
        1,
        0.8595151305198669
      ],
      "min": [
        -0.8600796461105347,
        -1,
        -0.8600796461105347
      ],
      "type": "VEC3"
    },
    {
      "bufferView": 3,
      "byteOffset": 0,
      "componentType": 5126,
      "count": 185,
      "max": [
        0.999786376953125,
        1,
        1
      ],
      "min": [
        0,
        0.00003051804378628731,
        0.00004577706567943096
      ],
      "type": "VEC3"
    }
  ],
  "buffers": [
    {
      "byteLength": 672,
      "uri": "data:application/octet-stream;base64,"
    },
    {
      "byteLength": 2220,
      "uri": "data:application/octet-stream;base64,"
    },
    {
      "byteLength": 2220,
      "uri": "data:application/octet-stream;base64,"
    },
    {
      "byteLength": 2220,
      "uri": "data:application/octet-stream;base64,"
    }
  ],
  "bufferViews": [
    {
      "buffer": 0,
      "byteOffset": 0,
      "byteLength": 672
    },
    {
      "buffer": 1,
      "byteOffset": 0,
      "byteLength": 2220
    },
    {
      "buffer": 2,
      "byteOffset": 0,
      "byteLength": 2220
    },
    {
      "buffer": 3,
      "byteOffset": 0,
      "byteLength": 2220
    }
  ],
  "meshes": [
    {
      "primitives": [
        {
          "mode": 4,
          "indices": 0,
          "attributes": {
            "POSITION": 1,
            "NORMAL": 2,
            "COLOR_0": 3
          }
        }
      ]
    }
  ],
  "nodes": [
    {
      "children": [
        1
      ]
    },
    {
      "mesh": 0
    }
  ],
  "scenes": [
    {
      "nodes": [
        0
      ]
    }
  ],
  "scene": 0
}