{
  "asset": {
    "version": "2.0",
    "generator": "COLLADA2GLTF"
  },
  "accessors": [
    {
      "bufferView": 0,
      "byteOffset": 0,
      "componentType": 5123,
      "count": 1914,
      "min": [
        0
      ],
      "max": [
        654
      ],
      "type": "SCALAR"
    },
    {
      "bufferView": 1,
      "byteOffset": 0,
      "componentType": 5126,
      "count": 655,
      "max": [
        1772.163818359375,
        37.025001525878906,
        -2474.578857421875
      ],
      "min": [
        1413.0579833984375,
        17.165000915527344,
        -2738.6533203125
      ],
      "type": "VEC3"
    },
    {
      "bufferView": 2,
      "byteOffset": 0,
      "componentType": 5126,
      "count": 655,
      "max": [
        0.7822227478027344,
        0.7070753574371338,
        0.8087591528892517
      ],
      "min": [
        -0.7822227478027344,
        -0.7070753574371338,
        -0.7822227478027344
      ],
      "type": "VEC3"
    },
    {
      "bufferView": 3,
      "byteOffset": 0,
      "componentType": 5126,
      "count": 655,
      "max": [
        0.4480048716068268,
        0.4480048716068268,
        0.4480659067630768
      ],
      "min": [
        0,
        0,
        0
      ],
      "type": "VEC3"
    }
  ],
  "buffers": [
    {
      "byteLength": 3828,
      "uri": "data:application/octet-stream;base64,"
    },
    {
      "byteLength": 7860,
      "uri": "data:application/octet-stream;base64,"
    },
    {
      "byteLength": 7860,
      "uri": "data:application/octet-stream;base64,"
    },
    {
      "byteLength": 7860,
      "uri": "data:application/octet-stream;base64,"
    }
  ],
  "bufferViews": [
    {
      "buffer": 0,
      "byteOffset": 0,
      "byteLength": 3828
    },
    {
      "buffer": 1,
      "byteOffset": 0,
      "byteLength": 7860
    },
    {
      "buffer": 2,
      "byteOffset": 0,
      "byteLength": 7860
    },
    {
      "buffer": 3,
      "byteOffset": 0,
      "byteLength": 7860
    }
  ],
  "meshes": [
    {
      "primitives": [
        {
          "mode": 4,
          "indices": 0,
          "attributes": {
            "POSITION": 1,
            "NORMAL": 2,
            "COLOR_0": 3
          }
        }
      ]
    }
  ],
  "nodes": [
    {
      "children": [
        1
      ]
    },
    {
      "mesh": 0
    }
  ],
  "scenes": [
    {
      "nodes": [
        0
      ]
    }
  ],
  "scene": 0
}