{
  "asset": {
    "version": "2.0",
    "generator": "COLLADA2GLTF"
  },
  "accessors": [
    {
      "bufferView": 0,
      "byteOffset": 0,
      "componentType": 5123,
      "count": 27,
      "min": [
        0
      ],
      "max": [
        24
      ],
      "type": "SCALAR"
    },
    {
      "bufferView": 1,
      "byteOffset": 0,
      "componentType": 5126,
      "count": 25,
      "max": [
        -1820.5262451171875,
        0,
        1955.2606201171875
      ],
      "min": [
        -2010,
        0,
        1886.59912109375
      ],
      "type": "VEC3"
    },
    {
      "bufferView": 2,
      "byteOffset": 0,
      "componentType": 5126,
      "count": 25,
      "max": [
        0,
        1,
        0
      ],
      "min": [
        0,
        1,
        0
      ],
      "type": "VEC3"
    },
    {
      "bufferView": 3,
      "byteOffset": 0,
      "componentType": 5126,
      "count": 25,
      "max": [
        0.05127031356096268,
        1,
        0.05128557235002518
      ],
      "min": [
        0.000015259021893143654,
        0.05127031356096268,
        0.00004577706567943096
      ],
      "type": "VEC3"
    }
  ],
  "buffers": [
    {
      "byteLength": 54,
      "uri": "data:application/octet-stream;base64,"
    },
    {
      "byteLength": 300,
      "uri": "data:application/octet-stream;base64,"
    },
    {
      "byteLength": 300,
      "uri": "data:application/octet-stream;base64,"
    },
    {
      "byteLength": 300,
      "uri": "data:application/octet-stream;base64,"
    }
  ],
  "bufferViews": [
    {
      "buffer": 0,
      "byteOffset": 0,
      "byteLength": 54
    },
    {
      "buffer": 1,
      "byteOffset": 0,
      "byteLength": 300
    },
    {
      "buffer": 2,
      "byteOffset": 0,
      "byteLength": 300
    },
    {
      "buffer": 3,
      "byteOffset": 0,
      "byteLength": 300
    }
  ],
  "meshes": [
    {
      "primitives": [
        {
          "mode": 4,
          "indices": 0,
          "attributes": {
            "POSITION": 1,
            "NORMAL": 2,
            "COLOR_0": 3
          }
        }
      ]
    }
  ],
  "nodes": [
    {
      "children": [
        1
      ]
    },
    {
      "mesh": 0
    }
  ],
  "scenes": [
    {
      "nodes": [
        0
      ]
    }
  ],
  "scene": 0
}