{
  "asset": {
    "version": "2.0",
    "generator": "COLLADA2GLTF"
  },
  "accessors": [
    {
      "bufferView": 0,
      "byteOffset": 0,
      "componentType": 5123,
      "count": 117,
      "min": [
        0
      ],
      "max": [
        78
      ],
      "type": "SCALAR"
    },
    {
      "bufferView": 1,
      "byteOffset": 0,
      "componentType": 5126,
      "count": 79,
      "max": [
        -2019.2191162109375,
        0.0010000000474974513,
        1870.549072265625
      ],
      "min": [
        -2121.595703125,
        -0.20000000298023224,
        1800
      ],
      "type": "VEC3"
    },
    {
      "bufferView": 2,
      "byteOffset": 0,
      "componentType": 5126,
      "count": 79,
      "max": [
        0.7846018671989441,
        1,
        0.7895392775535583
      ],
      "min": [
        -0.7895392775535583,
        -1,
        -0.7895392775535583
      ],
      "type": "VEC3"
    },
    {
      "bufferView": 3,
      "byteOffset": 0,
      "componentType": 5126,
      "count": 79,
      "max": [
        0.7872740030288696,
        1,
        0.7875028848648071
      ],
      "min": [
        0.000015259021893143654,
        0.07324330508708954,
        0.00004577706567943096
      ],
      "type": "VEC3"
    }
  ],
  "buffers": [
    {
      "byteLength": 234,
      "uri": "data:application/octet-stream;base64,"
    },
    {
      "byteLength": 948,
      "uri": "data:application/octet-stream;base64,"
    },
    {
      "byteLength": 948,
      "uri": "data:application/octet-stream;base64,"
    },
    {
      "byteLength": 948,
      "uri": "data:application/octet-stream;base64,"
    }
  ],
  "bufferViews": [
    {
      "buffer": 0,
      "byteOffset": 0,
      "byteLength": 234
    },
    {
      "buffer": 1,
      "byteOffset": 0,
      "byteLength": 948
    },
    {
      "buffer": 2,
      "byteOffset": 0,
      "byteLength": 948
    },
    {
      "buffer": 3,
      "byteOffset": 0,
      "byteLength": 948
    }
  ],
  "meshes": [
    {
      "primitives": [
        {
          "mode": 4,
          "indices": 0,
          "attributes": {
            "POSITION": 1,
            "NORMAL": 2,
            "COLOR_0": 3
          }
        }
      ]
    }
  ],
  "nodes": [
    {
      "children": [
        1
      ]
    },
    {
      "mesh": 0
    }
  ],
  "scenes": [
    {
      "nodes": [
        0
      ]
    }
  ],
  "scene": 0
}