{
  "asset": {
    "version": "2.0",
    "generator": "COLLADA2GLTF"
  },
  "accessors": [
    {
      "bufferView": 0,
      "byteOffset": 0,
      "componentType": 5123,
      "count": 336,
      "min": [
        0
      ],
      "max": [
        131
      ],
      "type": "SCALAR"
    },
    {
      "bufferView": 1,
      "byteOffset": 0,
      "componentType": 5126,
      "count": 132,
      "max": [
        -613.5248413085938,
        0,
        517.824462890625
      ],
      "min": [
        -728.856201171875,
        -3,
        434.86688232421875
      ],
      "type": "VEC3"
    },
    {
      "bufferView": 2,
      "byteOffset": 0,
      "componentType": 5126,
      "count": 132,
      "max": [
        0.8317577838897705,
        1,
        0.8317577838897705
      ],
      "min": [
        -0.8317577838897705,
        -1,
        -0.8317580223083496
      ],
      "type": "VEC3"
    },
    {
      "bufferView": 3,
      "byteOffset": 0,
      "componentType": 5126,
      "count": 132,
      "max": [
        0.21585412323474884,
        0.21585412323474884,
        0.21589989960193634
      ],
      "min": [
        0.21585412323474884,
        0.21585412323474884,
        0.21589989960193634
      ],
      "type": "VEC3"
    }
  ],
  "buffers": [
    {
      "byteLength": 672,
      "uri": "data:application/octet-stream;base64,"
    },
    {
      "byteLength": 1584,
      "uri": "data:application/octet-stream;base64,"
    },
    {
      "byteLength": 1584,
      "uri": "data:application/octet-stream;base64,"
    },
    {
      "byteLength": 1584,
      "uri": "data:application/octet-stream;base64,"
    }
  ],
  "bufferViews": [
    {
      "buffer": 0,
      "byteOffset": 0,
      "byteLength": 672
    },
    {
      "buffer": 1,
      "byteOffset": 0,
      "byteLength": 1584
    },
    {
      "buffer": 2,
      "byteOffset": 0,
      "byteLength": 1584
    },
    {
      "buffer": 3,
      "byteOffset": 0,
      "byteLength": 1584
    }
  ],
  "meshes": [
    {
      "primitives": [
        {
          "mode": 4,
          "indices": 0,
          "attributes": {
            "POSITION": 1,
            "NORMAL": 2,
            "COLOR_0": 3
          }
        }
      ]
    }
  ],
  "nodes": [
    {
      "children": [
        1
      ]
    },
    {
      "mesh": 0
    }
  ],
  "scenes": [
    {
      "nodes": [
        0
      ]
    }
  ],
  "scene": 0
}