{
  "asset": {
    "version": "2.0",
    "generator": "COLLADA2GLTF"
  },
  "accessors": [
    {
      "bufferView": 0,
      "byteOffset": 0,
      "componentType": 5123,
      "count": 2508,
      "min": [
        0
      ],
      "max": [
        1209
      ],
      "type": "SCALAR"
    },
    {
      "bufferView": 1,
      "byteOffset": 0,
      "componentType": 5126,
      "count": 1210,
      "max": [
        108.12000274658203,
        10,
        107.5009994506836
      ],
      "min": [
        -179.91000366210938,
        0,
        -89.76899719238281
      ],
      "type": "VEC3"
    },
    {
      "bufferView": 2,
      "byteOffset": 0,
      "componentType": 5126,
      "count": 1210,
      "max": [
        1,
        1,
        1
      ],
      "min": [
        -1,
        0,
        -1
      ],
      "type": "VEC3"
    }
  ],
  "buffers": [
    {
      "byteLength": 5016,
      "uri": "data:application/octet-stream;base64,"
    },
    {
      "byteLength": 14520,
      "uri": "data:application/octet-stream;base64,"
    },
    {
      "byteLength": 14520,
      "uri": "data:application/octet-stream;base64,"
    }
  ],
  "bufferViews": [
    {
      "buffer": 0,
      "byteOffset": 0,
      "byteLength": 5016
    },
    {
      "buffer": 1,
      "byteOffset": 0,
      "byteLength": 14520
    },
    {
      "buffer": 2,
      "byteOffset": 0,
      "byteLength": 14520
    }
  ],
  "meshes": [
    {
      "primitives": [
        {
          "mode": 4,
          "indices": 0,
          "attributes": {
            "POSITION": 1,
            "NORMAL": 2
          }
        }
      ]
    }
  ],
  "nodes": [
    {
      "children": [
        1
      ]
    },
    {
      "mesh": 0
    }
  ],
  "scenes": [
    {
      "nodes": [
        0
      ]
    }
  ],
  "scene": 0
}