{
  "asset": {
    "version": "2.0",
    "generator": "COLLADA2GLTF"
  },
  "accessors": [
    {
      "bufferView": 0,
      "byteOffset": 0,
      "componentType": 5123,
      "count": 2130,
      "min": [
        0
      ],
      "max": [
        842
      ],
      "type": "SCALAR"
    },
    {
      "bufferView": 1,
      "byteOffset": 0,
      "componentType": 5126,
      "count": 843,
      "max": [
        690,
        0.0010000000474974513,
        -840
      ],
      "min": [
        450,
        0,
        -1110
      ],
      "type": "VEC3"
    },
    {
      "bufferView": 2,
      "byteOffset": 0,
      "componentType": 5126,
      "count": 843,
      "max": [
        0,
        1,
        0
      ],
      "min": [
        0,
        1,
        0
      ],
      "type": "VEC3"
    },
    {
      "bufferView": 3,
      "byteOffset": 0,
      "componentType": 5126,
      "count": 843,
      "max": [
        0.7872740030288696,
        1,
        1
      ],
      "min": [
        0,
        0.00003051804378628731,
        0.00004577706567943096
      ],
      "type": "VEC3"
    }
  ],
  "buffers": [
    {
      "byteLength": 4260,
      "uri": "data:application/octet-stream;base64,"
    },
    {
      "byteLength": 10116,
      "uri": "data:application/octet-stream;base64,"
    },
    {
      "byteLength": 10116,
      "uri": "data:application/octet-stream;base64,"
    },
    {
      "byteLength": 10116,
      "uri": "data:application/octet-stream;base64,"
    }
  ],
  "bufferViews": [
    {
      "buffer": 0,
      "byteOffset": 0,
      "byteLength": 4260
    },
    {
      "buffer": 1,
      "byteOffset": 0,
      "byteLength": 10116
    },
    {
      "buffer": 2,
      "byteOffset": 0,
      "byteLength": 10116
    },
    {
      "buffer": 3,
      "byteOffset": 0,
      "byteLength": 10116
    }
  ],
  "meshes": [
    {
      "primitives": [
        {
          "mode": 4,
          "indices": 0,
          "attributes": {
            "POSITION": 1,
            "NORMAL": 2,
            "COLOR_0": 3
          }
        }
      ]
    }
  ],
  "nodes": [
    {
      "children": [
        1
      ]
    },
    {
      "mesh": 0
    }
  ],
  "scenes": [
    {
      "nodes": [
        0
      ]
    }
  ],
  "scene": 0
}