{
  "asset": {
    "version": "2.0",
    "generator": "COLLADA2GLTF"
  },
  "accessors": [
    {
      "bufferView": 0,
      "byteOffset": 0,
      "componentType": 5123,
      "count": 786,
      "min": [
        0
      ],
      "max": [
        321
      ],
      "type": "SCALAR"
    },
    {
      "bufferView": 1,
      "byteOffset": 0,
      "componentType": 5126,
      "count": 322,
      "max": [
        -2278.061767578125,
        0.0010000000474974513,
        2177.119873046875
      ],
      "min": [
        -2480.409423828125,
        -0.20000000298023224,
        2021.400146484375
      ],
      "type": "VEC3"
    },
    {
      "bufferView": 2,
      "byteOffset": 0,
      "componentType": 5126,
      "count": 322,
      "max": [
        0.7782773375511169,
        1,
        0.7796563506126404
      ],
      "min": [
        -0.7796562314033508,
        -1,
        -0.7796568274497986
      ],
      "type": "VEC3"
    },
    {
      "bufferView": 3,
      "byteOffset": 0,
      "componentType": 5126,
      "count": 322,
      "max": [
        0.7872740030288696,
        1,
        0.7875028848648071
      ],
      "min": [
        0.000015259021893143654,
        0.07324330508708954,
        0.00004577706567943096
      ],
      "type": "VEC3"
    }
  ],
  "buffers": [
    {
      "byteLength": 1572,
      "uri": "data:application/octet-stream;base64,"
    },
    {
      "byteLength": 3864,
      "uri": "data:application/octet-stream;base64,"
    },
    {
      "byteLength": 3864,
      "uri": "data:application/octet-stream;base64,"
    },
    {
      "byteLength": 3864,
      "uri": "data:application/octet-stream;base64,"
    }
  ],
  "bufferViews": [
    {
      "buffer": 0,
      "byteOffset": 0,
      "byteLength": 1572
    },
    {
      "buffer": 1,
      "byteOffset": 0,
      "byteLength": 3864
    },
    {
      "buffer": 2,
      "byteOffset": 0,
      "byteLength": 3864
    },
    {
      "buffer": 3,
      "byteOffset": 0,
      "byteLength": 3864
    }
  ],
  "meshes": [
    {
      "primitives": [
        {
          "mode": 4,
          "indices": 0,
          "attributes": {
            "POSITION": 1,
            "NORMAL": 2,
            "COLOR_0": 3
          }
        }
      ]
    }
  ],
  "nodes": [
    {
      "children": [
        1
      ]
    },
    {
      "mesh": 0
    }
  ],
  "scenes": [
    {
      "nodes": [
        0
      ]
    }
  ],
  "scene": 0
}