{
  "asset": {
    "version": "2.0",
    "generator": "COLLADA2GLTF"
  },
  "accessors": [
    {
      "bufferView": 0,
      "byteOffset": 0,
      "componentType": 5123,
      "count": 33,
      "min": [
        0
      ],
      "max": [
        21
      ],
      "type": "SCALAR"
    },
    {
      "bufferView": 1,
      "byteOffset": 0,
      "componentType": 5126,
      "count": 22,
      "max": [
        1604.740966796875,
        0,
        490.76165771484375
      ],
      "min": [
        1560,
        0,
        323.2947692871094
      ],
      "type": "VEC3"
    },
    {
      "bufferView": 2,
      "byteOffset": 0,
      "componentType": 5126,
      "count": 22,
      "max": [
        0,
        1,
        0
      ],
      "min": [
        0,
        1,
        0
      ],
      "type": "VEC3"
    },
    {
      "bufferView": 3,
      "byteOffset": 0,
      "componentType": 5126,
      "count": 22,
      "max": [
        0.000015259021893143654,
        1,
        0.00004577706567943096
      ],
      "min": [
        0.000015259021893143654,
        1,
        0.00004577706567943096
      ],
      "type": "VEC3"
    }
  ],
  "buffers": [
    {
      "byteLength": 66,
      "uri": "data:application/octet-stream;base64,"
    },
    {
      "byteLength": 264,
      "uri": "data:application/octet-stream;base64,"
    },
    {
      "byteLength": 264,
      "uri": "data:application/octet-stream;base64,"
    },
    {
      "byteLength": 264,
      "uri": "data:application/octet-stream;base64,"
    }
  ],
  "bufferViews": [
    {
      "buffer": 0,
      "byteOffset": 0,
      "byteLength": 66
    },
    {
      "buffer": 1,
      "byteOffset": 0,
      "byteLength": 264
    },
    {
      "buffer": 2,
      "byteOffset": 0,
      "byteLength": 264
    },
    {
      "buffer": 3,
      "byteOffset": 0,
      "byteLength": 264
    }
  ],
  "meshes": [
    {
      "primitives": [
        {
          "mode": 4,
          "indices": 0,
          "attributes": {
            "POSITION": 1,
            "NORMAL": 2,
            "COLOR_0": 3
          }
        }
      ]
    }
  ],
  "nodes": [
    {
      "children": [
        1
      ]
    },
    {
      "mesh": 0
    }
  ],
  "scenes": [
    {
      "nodes": [
        0
      ]
    }
  ],
  "scene": 0
}