{
  "asset": {
    "version": "2.0",
    "generator": "COLLADA2GLTF"
  },
  "accessors": [
    {
      "bufferView": 0,
      "byteOffset": 0,
      "componentType": 5123,
      "count": 234,
      "min": [
        0
      ],
      "max": [
        197
      ],
      "type": "SCALAR"
    },
    {
      "bufferView": 1,
      "byteOffset": 0,
      "componentType": 5126,
      "count": 198,
      "max": [
        -2259.6123046875,
        5,
        860.9009399414062
      ],
      "min": [
        -2420.500732421875,
        0,
        718.3502197265625
      ],
      "type": "VEC3"
    },
    {
      "bufferView": 2,
      "byteOffset": 0,
      "componentType": 5126,
      "count": 198,
      "max": [
        0.9615902900695801,
        0,
        0.9599690437316895
      ],
      "min": [
        -0.9408586621284485,
        0,
        -0.9802665114402771
      ],
      "type": "VEC3"
    },
    {
      "bufferView": 3,
      "byteOffset": 0,
      "componentType": 5126,
      "count": 198,
      "max": [
        0.999786376953125,
        0.7875181436538696,
        0.26330968737602234
      ],
      "min": [
        0.999786376953125,
        0.7875181436538696,
        0.26330968737602234
      ],
      "type": "VEC3"
    }
  ],
  "buffers": [
    {
      "byteLength": 468,
      "uri": "data:application/octet-stream;base64,"
    },
    {
      "byteLength": 2376,
      "uri": "data:application/octet-stream;base64,"
    },
    {
      "byteLength": 2376,
      "uri": "data:application/octet-stream;base64,"
    },
    {
      "byteLength": 2376,
      "uri": "data:application/octet-stream;base64,"
    }
  ],
  "bufferViews": [
    {
      "buffer": 0,
      "byteOffset": 0,
      "byteLength": 468
    },
    {
      "buffer": 1,
      "byteOffset": 0,
      "byteLength": 2376
    },
    {
      "buffer": 2,
      "byteOffset": 0,
      "byteLength": 2376
    },
    {
      "buffer": 3,
      "byteOffset": 0,
      "byteLength": 2376
    }
  ],
  "meshes": [
    {
      "primitives": [
        {
          "mode": 4,
          "indices": 0,
          "attributes": {
            "POSITION": 1,
            "NORMAL": 2,
            "COLOR_0": 3
          }
        }
      ]
    }
  ],
  "nodes": [
    {
      "children": [
        1
      ]
    },
    {
      "mesh": 0
    }
  ],
  "scenes": [
    {
      "nodes": [
        0
      ]
    }
  ],
  "scene": 0
}