{
  "asset": {
    "version": "2.0",
    "generator": "COLLADA2GLTF"
  },
  "accessors": [
    {
      "bufferView": 0,
      "byteOffset": 0,
      "componentType": 5123,
      "count": 1137,
      "min": [
        0
      ],
      "max": [
        483
      ],
      "type": "SCALAR"
    },
    {
      "bufferView": 1,
      "byteOffset": 0,
      "componentType": 5126,
      "count": 484,
      "max": [
        -10494.8935546875,
        14.5,
        -2762.26953125
      ],
      "min": [
        -10777.21484375,
        9.28499984741211,
        -2874.0546875
      ],
      "type": "VEC3"
    },
    {
      "bufferView": 2,
      "byteOffset": 0,
      "componentType": 5126,
      "count": 484,
      "max": [
        0.9409627318382263,
        0.70662522315979,
        0.9409627318382263
      ],
      "min": [
        -0.9409627318382263,
        -0.7061638832092285,
        -0.9409627318382263
      ],
      "type": "VEC3"
    },
    {
      "bufferView": 3,
      "byteOffset": 0,
      "componentType": 5126,
      "count": 484,
      "max": [
        0.4480048716068268,
        0.4480048716068268,
        0.4480659067630768
      ],
      "min": [
        0,
        0,
        0
      ],
      "type": "VEC3"
    }
  ],
  "buffers": [
    {
      "byteLength": 2274,
      "uri": "data:application/octet-stream;base64,"
    },
    {
      "byteLength": 5808,
      "uri": "data:application/octet-stream;base64,"
    },
    {
      "byteLength": 5808,
      "uri": "data:application/octet-stream;base64,"
    },
    {
      "byteLength": 5808,
      "uri": "data:application/octet-stream;base64,"
    }
  ],
  "bufferViews": [
    {
      "buffer": 0,
      "byteOffset": 0,
      "byteLength": 2274
    },
    {
      "buffer": 1,
      "byteOffset": 0,
      "byteLength": 5808
    },
    {
      "buffer": 2,
      "byteOffset": 0,
      "byteLength": 5808
    },
    {
      "buffer": 3,
      "byteOffset": 0,
      "byteLength": 5808
    }
  ],
  "meshes": [
    {
      "primitives": [
        {
          "mode": 4,
          "indices": 0,
          "attributes": {
            "POSITION": 1,
            "NORMAL": 2,
            "COLOR_0": 3
          }
        }
      ]
    }
  ],
  "nodes": [
    {
      "children": [
        1
      ]
    },
    {
      "mesh": 0
    }
  ],
  "scenes": [
    {
      "nodes": [
        0
      ]
    }
  ],
  "scene": 0
}