{
  "asset": {
    "version": "2.0",
    "generator": "COLLADA2GLTF"
  },
  "accessors": [
    {
      "bufferView": 0,
      "byteOffset": 0,
      "componentType": 5123,
      "count": 3198,
      "min": [
        0
      ],
      "max": [
        1192
      ],
      "type": "SCALAR"
    },
    {
      "bufferView": 1,
      "byteOffset": 0,
      "componentType": 5126,
      "count": 1193,
      "max": [
        306.5904235839844,
        0.10000000149011612,
        -49.86104202270508
      ],
      "min": [
        200.49404907226562,
        0,
        -147.90101623535156
      ],
      "type": "VEC3"
    },
    {
      "bufferView": 2,
      "byteOffset": 0,
      "componentType": 5126,
      "count": 1193,
      "max": [
        0.9337565302848816,
        1,
        0.9291316866874695
      ],
      "min": [
        -0.3697490394115448,
        -1,
        -0.9291316866874695
      ],
      "type": "VEC3"
    },
    {
      "bufferView": 3,
      "byteOffset": 0,
      "componentType": 5126,
      "count": 1193,
      "max": [
        0.7872740030288696,
        1,
        0.7875028848648071
      ],
      "min": [
        0.000015259021893143654,
        0.07324330508708954,
        0.00004577706567943096
      ],
      "type": "VEC3"
    }
  ],
  "buffers": [
    {
      "byteLength": 6396,
      "uri": "data:application/octet-stream;base64,"
    },
    {
      "byteLength": 14316,
      "uri": "data:application/octet-stream;base64,"
    },
    {
      "byteLength": 14316,
      "uri": "data:application/octet-stream;base64,"
    },
    {
      "byteLength": 14316,
      "uri": "data:application/octet-stream;base64,"
    }
  ],
  "bufferViews": [
    {
      "buffer": 0,
      "byteOffset": 0,
      "byteLength": 6396
    },
    {
      "buffer": 1,
      "byteOffset": 0,
      "byteLength": 14316
    },
    {
      "buffer": 2,
      "byteOffset": 0,
      "byteLength": 14316
    },
    {
      "buffer": 3,
      "byteOffset": 0,
      "byteLength": 14316
    }
  ],
  "meshes": [
    {
      "primitives": [
        {
          "mode": 4,
          "indices": 0,
          "attributes": {
            "POSITION": 1,
            "NORMAL": 2,
            "COLOR_0": 3
          }
        }
      ]
    }
  ],
  "nodes": [
    {
      "children": [
        1
      ]
    },
    {
      "mesh": 0
    }
  ],
  "scenes": [
    {
      "nodes": [
        0
      ]
    }
  ],
  "scene": 0
}