{
  "asset": {
    "version": "2.0",
    "generator": "COLLADA2GLTF"
  },
  "accessors": [
    {
      "bufferView": 0,
      "byteOffset": 0,
      "componentType": 5123,
      "count": 981,
      "min": [
        0
      ],
      "max": [
        560
      ],
      "type": "SCALAR"
    },
    {
      "bufferView": 1,
      "byteOffset": 0,
      "componentType": 5126,
      "count": 561,
      "max": [
        -2146.342041015625,
        13.5,
        1304.6993408203125
      ],
      "min": [
        -2432.464111328125,
        -0.5,
        970.4550170898438
      ],
      "type": "VEC3"
    },
    {
      "bufferView": 2,
      "byteOffset": 0,
      "componentType": 5126,
      "count": 561,
      "max": [
        0.9997288584709167,
        1,
        0.9998407363891602
      ],
      "min": [
        -0.9997288584709167,
        -1,
        -0.9993932247161865
      ],
      "type": "VEC3"
    },
    {
      "bufferView": 3,
      "byteOffset": 0,
      "componentType": 5126,
      "count": 561,
      "max": [
        0.999786376953125,
        0.7875181436538696,
        0.5776455402374268
      ],
      "min": [
        0.4480048716068268,
        0.00003051804378628731,
        0
      ],
      "type": "VEC3"
    }
  ],
  "buffers": [
    {
      "byteLength": 1962,
      "uri": "data:application/octet-stream;base64,"
    },
    {
      "byteLength": 6732,
      "uri": "data:application/octet-stream;base64,"
    },
    {
      "byteLength": 6732,
      "uri": "data:application/octet-stream;base64,"
    },
    {
      "byteLength": 6732,
      "uri": "data:application/octet-stream;base64,"
    }
  ],
  "bufferViews": [
    {
      "buffer": 0,
      "byteOffset": 0,
      "byteLength": 1962
    },
    {
      "buffer": 1,
      "byteOffset": 0,
      "byteLength": 6732
    },
    {
      "buffer": 2,
      "byteOffset": 0,
      "byteLength": 6732
    },
    {
      "buffer": 3,
      "byteOffset": 0,
      "byteLength": 6732
    }
  ],
  "meshes": [
    {
      "primitives": [
        {
          "mode": 4,
          "indices": 0,
          "attributes": {
            "POSITION": 1,
            "NORMAL": 2,
            "COLOR_0": 3
          }
        }
      ]
    }
  ],
  "nodes": [
    {
      "children": [
        1
      ]
    },
    {
      "mesh": 0
    }
  ],
  "scenes": [
    {
      "nodes": [
        0
      ]
    }
  ],
  "scene": 0
}