{
  "asset": {
    "version": "2.0",
    "generator": "COLLADA2GLTF"
  },
  "accessors": [
    {
      "bufferView": 0,
      "byteOffset": 0,
      "componentType": 5123,
      "count": 4410,
      "min": [
        0
      ],
      "max": [
        1630
      ],
      "type": "SCALAR"
    },
    {
      "bufferView": 1,
      "byteOffset": 0,
      "componentType": 5126,
      "count": 1631,
      "max": [
        268.2588806152344,
        0.10000000149011612,
        -131.35939025878906
      ],
      "min": [
        153.99407958984375,
        -0.20000000298023224,
        -240
      ],
      "type": "VEC3"
    },
    {
      "bufferView": 2,
      "byteOffset": 0,
      "componentType": 5126,
      "count": 1631,
      "max": [
        0.9795881509780884,
        1,
        0.9795881509780884
      ],
      "min": [
        -0.9795881509780884,
        -1,
        -0.9736454486846924
      ],
      "type": "VEC3"
    },
    {
      "bufferView": 3,
      "byteOffset": 0,
      "componentType": 5126,
      "count": 1631,
      "max": [
        0.7872740030288696,
        1,
        0.7875028848648071
      ],
      "min": [
        0,
        0.07324330508708954,
        0.000015259021893143654
      ],
      "type": "VEC3"
    }
  ],
  "buffers": [
    {
      "byteLength": 8820,
      "uri": "data:application/octet-stream;base64,"
    },
    {
      "byteLength": 19572,
      "uri": "data:application/octet-stream;base64,"
    },
    {
      "byteLength": 19572,
      "uri": "data:application/octet-stream;base64,"
    },
    {
      "byteLength": 19572,
      "uri": "data:application/octet-stream;base64,"
    }
  ],
  "bufferViews": [
    {
      "buffer": 0,
      "byteOffset": 0,
      "byteLength": 8820
    },
    {
      "buffer": 1,
      "byteOffset": 0,
      "byteLength": 19572
    },
    {
      "buffer": 2,
      "byteOffset": 0,
      "byteLength": 19572
    },
    {
      "buffer": 3,
      "byteOffset": 0,
      "byteLength": 19572
    }
  ],
  "meshes": [
    {
      "primitives": [
        {
          "mode": 4,
          "indices": 0,
          "attributes": {
            "POSITION": 1,
            "NORMAL": 2,
            "COLOR_0": 3
          }
        }
      ]
    }
  ],
  "nodes": [
    {
      "children": [
        1
      ]
    },
    {
      "mesh": 0
    }
  ],
  "scenes": [
    {
      "nodes": [
        0
      ]
    }
  ],
  "scene": 0
}