{
  "asset": {
    "version": "2.0",
    "generator": "COLLADA2GLTF"
  },
  "accessors": [
    {
      "bufferView": 0,
      "byteOffset": 0,
      "componentType": 5123,
      "count": 3249,
      "min": [
        0
      ],
      "max": [
        1319
      ],
      "type": "SCALAR"
    },
    {
      "bufferView": 1,
      "byteOffset": 0,
      "componentType": 5126,
      "count": 1320,
      "max": [
        -2310,
        4.5,
        839.47314453125
      ],
      "min": [
        -2910,
        -0.5,
        240
      ],
      "type": "VEC3"
    },
    {
      "bufferView": 2,
      "byteOffset": 0,
      "componentType": 5126,
      "count": 1320,
      "max": [
        0.8577262759208679,
        1,
        0.8041515350341797
      ],
      "min": [
        -0.857729971408844,
        -0.2873478829860687,
        -0.8041515350341797
      ],
      "type": "VEC3"
    },
    {
      "bufferView": 3,
      "byteOffset": 0,
      "componentType": 5126,
      "count": 1320,
      "max": [
        0.7872740030288696,
        1,
        0.7875028848648071
      ],
      "min": [
        0.000015259021893143654,
        0.07324330508708954,
        0.00004577706567943096
      ],
      "type": "VEC3"
    }
  ],
  "buffers": [
    {
      "byteLength": 6498,
      "uri": "data:application/octet-stream;base64,"
    },
    {
      "byteLength": 15840,
      "uri": "data:application/octet-stream;base64,"
    },
    {
      "byteLength": 15840,
      "uri": "data:application/octet-stream;base64,"
    },
    {
      "byteLength": 15840,
      "uri": "data:application/octet-stream;base64,"
    }
  ],
  "bufferViews": [
    {
      "buffer": 0,
      "byteOffset": 0,
      "byteLength": 6498
    },
    {
      "buffer": 1,
      "byteOffset": 0,
      "byteLength": 15840
    },
    {
      "buffer": 2,
      "byteOffset": 0,
      "byteLength": 15840
    },
    {
      "buffer": 3,
      "byteOffset": 0,
      "byteLength": 15840
    }
  ],
  "meshes": [
    {
      "primitives": [
        {
          "mode": 4,
          "indices": 0,
          "attributes": {
            "POSITION": 1,
            "NORMAL": 2,
            "COLOR_0": 3
          }
        }
      ]
    }
  ],
  "nodes": [
    {
      "children": [
        1
      ]
    },
    {
      "mesh": 0
    }
  ],
  "scenes": [
    {
      "nodes": [
        0
      ]
    }
  ],
  "scene": 0
}