{
  "asset": {
    "version": "2.0",
    "generator": "COLLADA2GLTF"
  },
  "accessors": [
    {
      "bufferView": 0,
      "byteOffset": 0,
      "componentType": 5123,
      "count": 423,
      "min": [
        0
      ],
      "max": [
        142
      ],
      "type": "SCALAR"
    },
    {
      "bufferView": 1,
      "byteOffset": 0,
      "componentType": 5126,
      "count": 143,
      "max": [
        -1409.5943603515625,
        0,
        444.79302978515625
      ],
      "min": [
        -1613.6446533203125,
        0,
        352.0924072265625
      ],
      "type": "VEC3"
    },
    {
      "bufferView": 2,
      "byteOffset": 0,
      "componentType": 5126,
      "count": 143,
      "max": [
        0,
        1,
        0
      ],
      "min": [
        0,
        1,
        0
      ],
      "type": "VEC3"
    },
    {
      "bufferView": 3,
      "byteOffset": 0,
      "componentType": 5126,
      "count": 143,
      "max": [
        0.7872740030288696,
        0.7875028848648071,
        0.7875028848648071
      ],
      "min": [
        0.07322804629802704,
        0.07324330508708954,
        0.07325856387615204
      ],
      "type": "VEC3"
    }
  ],
  "buffers": [
    {
      "byteLength": 846,
      "uri": "data:application/octet-stream;base64,"
    },
    {
      "byteLength": 1716,
      "uri": "data:application/octet-stream;base64,"
    },
    {
      "byteLength": 1716,
      "uri": "data:application/octet-stream;base64,"
    },
    {
      "byteLength": 1716,
      "uri": "data:application/octet-stream;base64,"
    }
  ],
  "bufferViews": [
    {
      "buffer": 0,
      "byteOffset": 0,
      "byteLength": 846
    },
    {
      "buffer": 1,
      "byteOffset": 0,
      "byteLength": 1716
    },
    {
      "buffer": 2,
      "byteOffset": 0,
      "byteLength": 1716
    },
    {
      "buffer": 3,
      "byteOffset": 0,
      "byteLength": 1716
    }
  ],
  "meshes": [
    {
      "primitives": [
        {
          "mode": 4,
          "indices": 0,
          "attributes": {
            "POSITION": 1,
            "NORMAL": 2,
            "COLOR_0": 3
          }
        }
      ]
    }
  ],
  "nodes": [
    {
      "children": [
        1
      ]
    },
    {
      "mesh": 0
    }
  ],
  "scenes": [
    {
      "nodes": [
        0
      ]
    }
  ],
  "scene": 0
}