{
  "asset": {
    "version": "2.0",
    "generator": "COLLADA2GLTF"
  },
  "accessors": [
    {
      "bufferView": 0,
      "byteOffset": 0,
      "componentType": 5123,
      "count": 2901,
      "min": [
        0
      ],
      "max": [
        1254
      ],
      "type": "SCALAR"
    },
    {
      "bufferView": 1,
      "byteOffset": 0,
      "componentType": 5126,
      "count": 1255,
      "max": [
        -300,
        0,
        127.44657897949219
      ],
      "min": [
        -600,
        0,
        -388.6876525878906
      ],
      "type": "VEC3"
    },
    {
      "bufferView": 2,
      "byteOffset": 0,
      "componentType": 5126,
      "count": 1255,
      "max": [
        0.9996707439422607,
        1,
        0.9985426068305969
      ],
      "min": [
        -0.999646008014679,
        0,
        -0.9996297359466553
      ],
      "type": "VEC3"
    },
    {
      "bufferView": 3,
      "byteOffset": 0,
      "componentType": 5126,
      "count": 1255,
      "max": [
        0.999786376953125,
        1,
        0.26330968737602234
      ],
      "min": [
        0.000015259021893143654,
        0.07324330508708954,
        0.00004577706567943096
      ],
      "type": "VEC3"
    }
  ],
  "buffers": [
    {
      "byteLength": 5802,
      "uri": "data:application/octet-stream;base64,"
    },
    {
      "byteLength": 15060,
      "uri": "data:application/octet-stream;base64,"
    },
    {
      "byteLength": 15060,
      "uri": "data:application/octet-stream;base64,"
    },
    {
      "byteLength": 15060,
      "uri": "data:application/octet-stream;base64,"
    }
  ],
  "bufferViews": [
    {
      "buffer": 0,
      "byteOffset": 0,
      "byteLength": 5802
    },
    {
      "buffer": 1,
      "byteOffset": 0,
      "byteLength": 15060
    },
    {
      "buffer": 2,
      "byteOffset": 0,
      "byteLength": 15060
    },
    {
      "buffer": 3,
      "byteOffset": 0,
      "byteLength": 15060
    }
  ],
  "meshes": [
    {
      "primitives": [
        {
          "mode": 4,
          "indices": 0,
          "attributes": {
            "POSITION": 1,
            "NORMAL": 2,
            "COLOR_0": 3
          }
        }
      ]
    }
  ],
  "nodes": [
    {
      "children": [
        1
      ]
    },
    {
      "mesh": 0
    }
  ],
  "scenes": [
    {
      "nodes": [
        0
      ]
    }
  ],
  "scene": 0
}