{
  "asset": {
    "version": "2.0",
    "generator": "COLLADA2GLTF"
  },
  "accessors": [
    {
      "bufferView": 0,
      "byteOffset": 0,
      "componentType": 5123,
      "count": 246,
      "min": [
        0
      ],
      "max": [
        205
      ],
      "type": "SCALAR"
    },
    {
      "bufferView": 1,
      "byteOffset": 0,
      "componentType": 5126,
      "count": 206,
      "max": [
        -888.3812255859375,
        20,
        1224.8148193359375
      ],
      "min": [
        -952.2057495117188,
        0,
        1166.4639892578125
      ],
      "type": "VEC3"
    },
    {
      "bufferView": 2,
      "byteOffset": 0,
      "componentType": 5126,
      "count": 206,
      "max": [
        0.9933552742004395,
        0,
        0.9944244027137756
      ],
      "min": [
        -0.9946549534797668,
        0,
        -0.9873326420783997
      ],
      "type": "VEC3"
    },
    {
      "bufferView": 3,
      "byteOffset": 0,
      "componentType": 5126,
      "count": 206,
      "max": [
        0.999786376953125,
        0.7875181436538696,
        0.26330968737602234
      ],
      "min": [
        0.999786376953125,
        0.7875181436538696,
        0.26330968737602234
      ],
      "type": "VEC3"
    }
  ],
  "buffers": [
    {
      "byteLength": 492,
      "uri": "data:application/octet-stream;base64,"
    },
    {
      "byteLength": 2472,
      "uri": "data:application/octet-stream;base64,"
    },
    {
      "byteLength": 2472,
      "uri": "data:application/octet-stream;base64,"
    },
    {
      "byteLength": 2472,
      "uri": "data:application/octet-stream;base64,"
    }
  ],
  "bufferViews": [
    {
      "buffer": 0,
      "byteOffset": 0,
      "byteLength": 492
    },
    {
      "buffer": 1,
      "byteOffset": 0,
      "byteLength": 2472
    },
    {
      "buffer": 2,
      "byteOffset": 0,
      "byteLength": 2472
    },
    {
      "buffer": 3,
      "byteOffset": 0,
      "byteLength": 2472
    }
  ],
  "meshes": [
    {
      "primitives": [
        {
          "mode": 4,
          "indices": 0,
          "attributes": {
            "POSITION": 1,
            "NORMAL": 2,
            "COLOR_0": 3
          }
        }
      ]
    }
  ],
  "nodes": [
    {
      "children": [
        1
      ]
    },
    {
      "mesh": 0
    }
  ],
  "scenes": [
    {
      "nodes": [
        0
      ]
    }
  ],
  "scene": 0
}