{
  "asset": {
    "version": "2.0",
    "generator": "COLLADA2GLTF"
  },
  "accessors": [
    {
      "bufferView": 0,
      "byteOffset": 0,
      "componentType": 5123,
      "count": 3888,
      "min": [
        0
      ],
      "max": [
        1527
      ],
      "type": "SCALAR"
    },
    {
      "bufferView": 1,
      "byteOffset": 0,
      "componentType": 5126,
      "count": 1528,
      "max": [
        -870,
        7.5,
        756.6070556640625
      ],
      "min": [
        -1170,
        -0.20000000298023224,
        420
      ],
      "type": "VEC3"
    },
    {
      "bufferView": 2,
      "byteOffset": 0,
      "componentType": 5126,
      "count": 1528,
      "max": [
        1,
        1,
        1
      ],
      "min": [
        -1,
        -1,
        -1
      ],
      "type": "VEC3"
    },
    {
      "bufferView": 3,
      "byteOffset": 0,
      "componentType": 5126,
      "count": 1528,
      "max": [
        0.999786376953125,
        1,
        0.7875028848648071
      ],
      "min": [
        0.000015259021893143654,
        0.07324330508708954,
        0.00004577706567943096
      ],
      "type": "VEC3"
    }
  ],
  "buffers": [
    {
      "byteLength": 7776,
      "uri": "data:application/octet-stream;base64,"
    },
    {
      "byteLength": 18336,
      "uri": "data:application/octet-stream;base64,"
    },
    {
      "byteLength": 18336,
      "uri": "data:application/octet-stream;base64,"
    },
    {
      "byteLength": 18336,
      "uri": "data:application/octet-stream;base64,"
    }
  ],
  "bufferViews": [
    {
      "buffer": 0,
      "byteOffset": 0,
      "byteLength": 7776
    },
    {
      "buffer": 1,
      "byteOffset": 0,
      "byteLength": 18336
    },
    {
      "buffer": 2,
      "byteOffset": 0,
      "byteLength": 18336
    },
    {
      "buffer": 3,
      "byteOffset": 0,
      "byteLength": 18336
    }
  ],
  "meshes": [
    {
      "primitives": [
        {
          "mode": 4,
          "indices": 0,
          "attributes": {
            "POSITION": 1,
            "NORMAL": 2,
            "COLOR_0": 3
          }
        }
      ]
    }
  ],
  "nodes": [
    {
      "children": [
        1
      ]
    },
    {
      "mesh": 0
    }
  ],
  "scenes": [
    {
      "nodes": [
        0
      ]
    }
  ],
  "scene": 0
}