{
  "asset": {
    "version": "2.0",
    "generator": "COLLADA2GLTF"
  },
  "accessors": [
    {
      "bufferView": 0,
      "byteOffset": 0,
      "componentType": 5123,
      "count": 642,
      "min": [
        0
      ],
      "max": [
        243
      ],
      "type": "SCALAR"
    },
    {
      "bufferView": 1,
      "byteOffset": 0,
      "componentType": 5126,
      "count": 244,
      "max": [
        -207.66587829589844,
        9.5,
        -1319.37451171875
      ],
      "min": [
        -742.7138671875,
        0,
        -1608.208984375
      ],
      "type": "VEC3"
    },
    {
      "bufferView": 2,
      "byteOffset": 0,
      "componentType": 5126,
      "count": 244,
      "max": [
        1,
        1,
        1
      ],
      "min": [
        -1,
        -0.2873478829860687,
        -1
      ],
      "type": "VEC3"
    },
    {
      "bufferView": 3,
      "byteOffset": 0,
      "componentType": 5126,
      "count": 244,
      "max": [
        0.999786376953125,
        0.7875181436538696,
        0.4480659067630768
      ],
      "min": [
        0.4480048716068268,
        0.00003051804378628731,
        0
      ],
      "type": "VEC3"
    }
  ],
  "buffers": [
    {
      "byteLength": 1284,
      "uri": "data:application/octet-stream;base64,"
    },
    {
      "byteLength": 2928,
      "uri": "data:application/octet-stream;base64,"
    },
    {
      "byteLength": 2928,
      "uri": "data:application/octet-stream;base64,"
    },
    {
      "byteLength": 2928,
      "uri": "data:application/octet-stream;base64,"
    }
  ],
  "bufferViews": [
    {
      "buffer": 0,
      "byteOffset": 0,
      "byteLength": 1284
    },
    {
      "buffer": 1,
      "byteOffset": 0,
      "byteLength": 2928
    },
    {
      "buffer": 2,
      "byteOffset": 0,
      "byteLength": 2928
    },
    {
      "buffer": 3,
      "byteOffset": 0,
      "byteLength": 2928
    }
  ],
  "meshes": [
    {
      "primitives": [
        {
          "mode": 4,
          "indices": 0,
          "attributes": {
            "POSITION": 1,
            "NORMAL": 2,
            "COLOR_0": 3
          }
        }
      ]
    }
  ],
  "nodes": [
    {
      "children": [
        1
      ]
    },
    {
      "mesh": 0
    }
  ],
  "scenes": [
    {
      "nodes": [
        0
      ]
    }
  ],
  "scene": 0
}