{
  "asset": {
    "version": "2.0",
    "generator": "COLLADA2GLTF"
  },
  "accessors": [
    {
      "bufferView": 0,
      "byteOffset": 0,
      "componentType": 5123,
      "count": 1194,
      "min": [
        0
      ],
      "max": [
        509
      ],
      "type": "SCALAR"
    },
    {
      "bufferView": 1,
      "byteOffset": 0,
      "componentType": 5126,
      "count": 510,
      "max": [
        -9378.859375,
        14.5,
        -2366.830322265625
      ],
      "min": [
        -9724.8828125,
        9.28499984741211,
        -2505.41357421875
      ],
      "type": "VEC3"
    },
    {
      "bufferView": 2,
      "byteOffset": 0,
      "componentType": 5126,
      "count": 510,
      "max": [
        0.9439839124679565,
        0.7066150903701782,
        0.9439839124679565
      ],
      "min": [
        -0.9439839124679565,
        -0.7061440944671631,
        -0.9439839124679565
      ],
      "type": "VEC3"
    },
    {
      "bufferView": 3,
      "byteOffset": 0,
      "componentType": 5126,
      "count": 510,
      "max": [
        0.4480048716068268,
        0.4480048716068268,
        0.4480659067630768
      ],
      "min": [
        0,
        0,
        0
      ],
      "type": "VEC3"
    }
  ],
  "buffers": [
    {
      "byteLength": 2388,
      "uri": "data:application/octet-stream;base64,"
    },
    {
      "byteLength": 6120,
      "uri": "data:application/octet-stream;base64,"
    },
    {
      "byteLength": 6120,
      "uri": "data:application/octet-stream;base64,"
    },
    {
      "byteLength": 6120,
      "uri": "data:application/octet-stream;base64,"
    }
  ],
  "bufferViews": [
    {
      "buffer": 0,
      "byteOffset": 0,
      "byteLength": 2388
    },
    {
      "buffer": 1,
      "byteOffset": 0,
      "byteLength": 6120
    },
    {
      "buffer": 2,
      "byteOffset": 0,
      "byteLength": 6120
    },
    {
      "buffer": 3,
      "byteOffset": 0,
      "byteLength": 6120
    }
  ],
  "meshes": [
    {
      "primitives": [
        {
          "mode": 4,
          "indices": 0,
          "attributes": {
            "POSITION": 1,
            "NORMAL": 2,
            "COLOR_0": 3
          }
        }
      ]
    }
  ],
  "nodes": [
    {
      "children": [
        1
      ]
    },
    {
      "mesh": 0
    }
  ],
  "scenes": [
    {
      "nodes": [
        0
      ]
    }
  ],
  "scene": 0
}