{
  "asset": {
    "version": "2.0",
    "generator": "COLLADA2GLTF"
  },
  "accessors": [
    {
      "bufferView": 0,
      "byteOffset": 0,
      "componentType": 5123,
      "count": 1923,
      "min": [
        0
      ],
      "max": [
        795
      ],
      "type": "SCALAR"
    },
    {
      "bufferView": 1,
      "byteOffset": 0,
      "componentType": 5126,
      "count": 796,
      "max": [
        -98.77937316894531,
        0.11999999731779099,
        319.34332275390625
      ],
      "min": [
        -460.278564453125,
        0,
        25.11745834350586
      ],
      "type": "VEC3"
    },
    {
      "bufferView": 2,
      "byteOffset": 0,
      "componentType": 5126,
      "count": 796,
      "max": [
        0.796606719493866,
        1,
        0.7966060638427734
      ],
      "min": [
        -0.796392560005188,
        0,
        -0.7966740727424622
      ],
      "type": "VEC3"
    },
    {
      "bufferView": 3,
      "byteOffset": 0,
      "componentType": 5126,
      "count": 796,
      "max": [
        0.999786376953125,
        1,
        0.7875028848648071
      ],
      "min": [
        0.000015259021893143654,
        0.07324330508708954,
        0.00004577706567943096
      ],
      "type": "VEC3"
    }
  ],
  "buffers": [
    {
      "byteLength": 3846,
      "uri": "data:application/octet-stream;base64,"
    },
    {
      "byteLength": 9552,
      "uri": "data:application/octet-stream;base64,"
    },
    {
      "byteLength": 9552,
      "uri": "data:application/octet-stream;base64,"
    },
    {
      "byteLength": 9552,
      "uri": "data:application/octet-stream;base64,"
    }
  ],
  "bufferViews": [
    {
      "buffer": 0,
      "byteOffset": 0,
      "byteLength": 3846
    },
    {
      "buffer": 1,
      "byteOffset": 0,
      "byteLength": 9552
    },
    {
      "buffer": 2,
      "byteOffset": 0,
      "byteLength": 9552
    },
    {
      "buffer": 3,
      "byteOffset": 0,
      "byteLength": 9552
    }
  ],
  "meshes": [
    {
      "primitives": [
        {
          "mode": 4,
          "indices": 0,
          "attributes": {
            "POSITION": 1,
            "NORMAL": 2,
            "COLOR_0": 3
          }
        }
      ]
    }
  ],
  "nodes": [
    {
      "children": [
        1
      ]
    },
    {
      "mesh": 0
    }
  ],
  "scenes": [
    {
      "nodes": [
        0
      ]
    }
  ],
  "scene": 0
}