{
  "asset": {
    "version": "2.0",
    "generator": "COLLADA2GLTF"
  },
  "accessors": [
    {
      "bufferView": 0,
      "byteOffset": 0,
      "componentType": 5123,
      "count": 4674,
      "min": [
        0
      ],
      "max": [
        1603
      ],
      "type": "SCALAR"
    },
    {
      "bufferView": 1,
      "byteOffset": 0,
      "componentType": 5126,
      "count": 1604,
      "max": [
        -3322.20556640625,
        0.14777499437332153,
        1140.5418701171875
      ],
      "min": [
        -3496.102294921875,
        0,
        1069.966796875
      ],
      "type": "VEC3"
    },
    {
      "bufferView": 2,
      "byteOffset": 0,
      "componentType": 5126,
      "count": 1604,
      "max": [
        0.9282659888267517,
        1,
        0.9282664060592651
      ],
      "min": [
        -0.9282659888267517,
        -0.9486833214759827,
        -0.9282664060592651
      ],
      "type": "VEC3"
    },
    {
      "bufferView": 3,
      "byteOffset": 0,
      "componentType": 5126,
      "count": 1604,
      "max": [
        0.5774929523468018,
        0.5776150226593018,
        0.5776455402374268
      ],
      "min": [
        0.07322804629802704,
        0.03309682011604309,
        0.03311207890510559
      ],
      "type": "VEC3"
    }
  ],
  "buffers": [
    {
      "byteLength": 9348,
      "uri": "data:application/octet-stream;base64,"
    },
    {
      "byteLength": 19248,
      "uri": "data:application/octet-stream;base64,"
    },
    {
      "byteLength": 19248,
      "uri": "data:application/octet-stream;base64,"
    },
    {
      "byteLength": 19248,
      "uri": "data:application/octet-stream;base64,"
    }
  ],
  "bufferViews": [
    {
      "buffer": 0,
      "byteOffset": 0,
      "byteLength": 9348
    },
    {
      "buffer": 1,
      "byteOffset": 0,
      "byteLength": 19248
    },
    {
      "buffer": 2,
      "byteOffset": 0,
      "byteLength": 19248
    },
    {
      "buffer": 3,
      "byteOffset": 0,
      "byteLength": 19248
    }
  ],
  "meshes": [
    {
      "primitives": [
        {
          "mode": 4,
          "indices": 0,
          "attributes": {
            "POSITION": 1,
            "NORMAL": 2,
            "COLOR_0": 3
          }
        }
      ]
    }
  ],
  "nodes": [
    {
      "children": [
        1
      ]
    },
    {
      "mesh": 0
    }
  ],
  "scenes": [
    {
      "nodes": [
        0
      ]
    }
  ],
  "scene": 0
}