{
  "asset": {
    "version": "2.0",
    "generator": "COLLADA2GLTF"
  },
  "accessors": [
    {
      "bufferView": 0,
      "byteOffset": 0,
      "componentType": 5123,
      "count": 2400,
      "min": [
        0
      ],
      "max": [
        853
      ],
      "type": "SCALAR"
    },
    {
      "bufferView": 1,
      "byteOffset": 0,
      "componentType": 5126,
      "count": 854,
      "max": [
        -3815.31689453125,
        0.14777499437332153,
        892.5817260742188
      ],
      "min": [
        -3931.39892578125,
        0,
        785.12353515625
      ],
      "type": "VEC3"
    },
    {
      "bufferView": 2,
      "byteOffset": 0,
      "componentType": 5126,
      "count": 854,
      "max": [
        0.734276294708252,
        1,
        0.7342804670333862
      ],
      "min": [
        -0.734276294708252,
        -0.9486833214759827,
        -0.7342804670333862
      ],
      "type": "VEC3"
    },
    {
      "bufferView": 3,
      "byteOffset": 0,
      "componentType": 5126,
      "count": 854,
      "max": [
        0.5774929523468018,
        0.5776150226593018,
        0.5776455402374268
      ],
      "min": [
        0.07322804629802704,
        0.03309682011604309,
        0.03311207890510559
      ],
      "type": "VEC3"
    }
  ],
  "buffers": [
    {
      "byteLength": 4800,
      "uri": "data:application/octet-stream;base64,"
    },
    {
      "byteLength": 10248,
      "uri": "data:application/octet-stream;base64,"
    },
    {
      "byteLength": 10248,
      "uri": "data:application/octet-stream;base64,"
    },
    {
      "byteLength": 10248,
      "uri": "data:application/octet-stream;base64,"
    }
  ],
  "bufferViews": [
    {
      "buffer": 0,
      "byteOffset": 0,
      "byteLength": 4800
    },
    {
      "buffer": 1,
      "byteOffset": 0,
      "byteLength": 10248
    },
    {
      "buffer": 2,
      "byteOffset": 0,
      "byteLength": 10248
    },
    {
      "buffer": 3,
      "byteOffset": 0,
      "byteLength": 10248
    }
  ],
  "meshes": [
    {
      "primitives": [
        {
          "mode": 4,
          "indices": 0,
          "attributes": {
            "POSITION": 1,
            "NORMAL": 2,
            "COLOR_0": 3
          }
        }
      ]
    }
  ],
  "nodes": [
    {
      "children": [
        1
      ]
    },
    {
      "mesh": 0
    }
  ],
  "scenes": [
    {
      "nodes": [
        0
      ]
    }
  ],
  "scene": 0
}