{
  "asset": {
    "version": "2.0",
    "generator": "COLLADA2GLTF"
  },
  "accessors": [
    {
      "bufferView": 0,
      "byteOffset": 0,
      "componentType": 5123,
      "count": 375,
      "min": [
        0
      ],
      "max": [
        254
      ],
      "type": "SCALAR"
    },
    {
      "bufferView": 1,
      "byteOffset": 0,
      "componentType": 5126,
      "count": 255,
      "max": [
        5239.671875,
        0,
        -630.6589965820312
      ],
      "min": [
        2356.625,
        0,
        -6174.11279296875
      ],
      "type": "VEC3"
    },
    {
      "bufferView": 2,
      "byteOffset": 0,
      "componentType": 5126,
      "count": 255,
      "max": [
        0,
        1,
        0
      ],
      "min": [
        0,
        1,
        0
      ],
      "type": "VEC3"
    },
    {
      "bufferView": 3,
      "byteOffset": 0,
      "componentType": 5126,
      "count": 255,
      "max": [
        0,
        0.00003051804378628731,
        1
      ],
      "min": [
        0,
        0.00003051804378628731,
        1
      ],
      "type": "VEC3"
    }
  ],
  "buffers": [
    {
      "byteLength": 750,
      "uri": "data:application/octet-stream;base64,"
    },
    {
      "byteLength": 3060,
      "uri": "data:application/octet-stream;base64,"
    },
    {
      "byteLength": 3060,
      "uri": "data:application/octet-stream;base64,"
    },
    {
      "byteLength": 3060,
      "uri": "data:application/octet-stream;base64,"
    }
  ],
  "bufferViews": [
    {
      "buffer": 0,
      "byteOffset": 0,
      "byteLength": 750
    },
    {
      "buffer": 1,
      "byteOffset": 0,
      "byteLength": 3060
    },
    {
      "buffer": 2,
      "byteOffset": 0,
      "byteLength": 3060
    },
    {
      "buffer": 3,
      "byteOffset": 0,
      "byteLength": 3060
    }
  ],
  "meshes": [
    {
      "primitives": [
        {
          "mode": 4,
          "indices": 0,
          "attributes": {
            "POSITION": 1,
            "NORMAL": 2,
            "COLOR_0": 3
          }
        }
      ]
    }
  ],
  "nodes": [
    {
      "children": [
        1
      ]
    },
    {
      "mesh": 0
    }
  ],
  "scenes": [
    {
      "nodes": [
        0
      ]
    }
  ],
  "scene": 0
}