{
  "asset": {
    "version": "2.0",
    "generator": "COLLADA2GLTF"
  },
  "accessors": [
    {
      "bufferView": 0,
      "byteOffset": 0,
      "componentType": 5123,
      "count": 2361,
      "min": [
        0
      ],
      "max": [
        1062
      ],
      "type": "SCALAR"
    },
    {
      "bufferView": 1,
      "byteOffset": 0,
      "componentType": 5126,
      "count": 1063,
      "max": [
        1530,
        7.5,
        64.10687255859375
      ],
      "min": [
        1230,
        0,
        -480
      ],
      "type": "VEC3"
    },
    {
      "bufferView": 2,
      "byteOffset": 0,
      "componentType": 5126,
      "count": 1063,
      "max": [
        0.9846063256263733,
        1,
        0.9846141338348389
      ],
      "min": [
        -0.9845180511474609,
        0,
        -0.9845883846282959
      ],
      "type": "VEC3"
    },
    {
      "bufferView": 3,
      "byteOffset": 0,
      "componentType": 5126,
      "count": 1063,
      "max": [
        0.999786376953125,
        1,
        0.26330968737602234
      ],
      "min": [
        0.000015259021893143654,
        0.07324330508708954,
        0.00004577706567943096
      ],
      "type": "VEC3"
    }
  ],
  "buffers": [
    {
      "byteLength": 4722,
      "uri": "data:application/octet-stream;base64,"
    },
    {
      "byteLength": 12756,
      "uri": "data:application/octet-stream;base64,"
    },
    {
      "byteLength": 12756,
      "uri": "data:application/octet-stream;base64,"
    },
    {
      "byteLength": 12756,
      "uri": "data:application/octet-stream;base64,"
    }
  ],
  "bufferViews": [
    {
      "buffer": 0,
      "byteOffset": 0,
      "byteLength": 4722
    },
    {
      "buffer": 1,
      "byteOffset": 0,
      "byteLength": 12756
    },
    {
      "buffer": 2,
      "byteOffset": 0,
      "byteLength": 12756
    },
    {
      "buffer": 3,
      "byteOffset": 0,
      "byteLength": 12756
    }
  ],
  "meshes": [
    {
      "primitives": [
        {
          "mode": 4,
          "indices": 0,
          "attributes": {
            "POSITION": 1,
            "NORMAL": 2,
            "COLOR_0": 3
          }
        }
      ]
    }
  ],
  "nodes": [
    {
      "children": [
        1
      ]
    },
    {
      "mesh": 0
    }
  ],
  "scenes": [
    {
      "nodes": [
        0
      ]
    }
  ],
  "scene": 0
}