{
  "asset": {
    "version": "2.0",
    "generator": "COLLADA2GLTF"
  },
  "accessors": [
    {
      "bufferView": 0,
      "byteOffset": 0,
      "componentType": 5123,
      "count": 1431,
      "min": [
        0
      ],
      "max": [
        1052
      ],
      "type": "SCALAR"
    },
    {
      "bufferView": 1,
      "byteOffset": 0,
      "componentType": 5126,
      "count": 1053,
      "max": [
        416.6217956542969,
        135,
        302.9429931640625
      ],
      "min": [
        -331.59100341796875,
        0,
        -229.94400024414062
      ],
      "type": "VEC3"
    },
    {
      "bufferView": 2,
      "byteOffset": 0,
      "componentType": 5126,
      "count": 1053,
      "max": [
        0.9988058805465698,
        1,
        0.9973313212394714
      ],
      "min": [
        -1,
        0,
        -1
      ],
      "type": "VEC3"
    },
    {
      "bufferView": 3,
      "byteOffset": 0,
      "componentType": 5126,
      "count": 1053,
      "max": [
        0.999786376953125,
        0.7875181436538696,
        0.26330968737602234
      ],
      "min": [
        0.6036774516105652,
        0.00003051804378628731,
        0
      ],
      "type": "VEC3"
    }
  ],
  "buffers": [
    {
      "byteLength": 2862,
      "uri": "data:application/octet-stream;base64,"
    },
    {
      "byteLength": 12636,
      "uri": "data:application/octet-stream;base64,"
    },
    {
      "byteLength": 12636,
      "uri": "data:application/octet-stream;base64,"
    },
    {
      "byteLength": 12636,
      "uri": "data:application/octet-stream;base64,"
    }
  ],
  "bufferViews": [
    {
      "buffer": 0,
      "byteOffset": 0,
      "byteLength": 2862
    },
    {
      "buffer": 1,
      "byteOffset": 0,
      "byteLength": 12636
    },
    {
      "buffer": 2,
      "byteOffset": 0,
      "byteLength": 12636
    },
    {
      "buffer": 3,
      "byteOffset": 0,
      "byteLength": 12636
    }
  ],
  "meshes": [
    {
      "primitives": [
        {
          "mode": 4,
          "indices": 0,
          "attributes": {
            "POSITION": 1,
            "NORMAL": 2,
            "COLOR_0": 3
          }
        }
      ]
    }
  ],
  "nodes": [
    {
      "children": [
        1
      ]
    },
    {
      "mesh": 0
    }
  ],
  "scenes": [
    {
      "nodes": [
        0
      ]
    }
  ],
  "scene": 0
}