{
  "asset": {
    "version": "2.0",
    "generator": "COLLADA2GLTF"
  },
  "accessors": [
    {
      "bufferView": 0,
      "byteOffset": 0,
      "componentType": 5123,
      "count": 2064,
      "min": [
        0
      ],
      "max": [
        881
      ],
      "type": "SCALAR"
    },
    {
      "bufferView": 1,
      "byteOffset": 0,
      "componentType": 5126,
      "count": 882,
      "max": [
        -2864.040283203125,
        2.299999952316284,
        1130.1136474609375
      ],
      "min": [
        -3150.237548828125,
        0,
        840
      ],
      "type": "VEC3"
    },
    {
      "bufferView": 2,
      "byteOffset": 0,
      "componentType": 5126,
      "count": 882,
      "max": [
        0.9898214340209961,
        1,
        1
      ],
      "min": [
        -0.9898214340209961,
        0,
        -0.9594929814338684
      ],
      "type": "VEC3"
    },
    {
      "bufferView": 3,
      "byteOffset": 0,
      "componentType": 5126,
      "count": 882,
      "max": [
        0.999786376953125,
        1,
        0.5776455402374268
      ],
      "min": [
        0,
        0.07324330508708954,
        0.000015259021893143654
      ],
      "type": "VEC3"
    }
  ],
  "buffers": [
    {
      "byteLength": 4128,
      "uri": "data:application/octet-stream;base64,"
    },
    {
      "byteLength": 10584,
      "uri": "data:application/octet-stream;base64,"
    },
    {
      "byteLength": 10584,
      "uri": "data:application/octet-stream;base64,"
    },
    {
      "byteLength": 10584,
      "uri": "data:application/octet-stream;base64,"
    }
  ],
  "bufferViews": [
    {
      "buffer": 0,
      "byteOffset": 0,
      "byteLength": 4128
    },
    {
      "buffer": 1,
      "byteOffset": 0,
      "byteLength": 10584
    },
    {
      "buffer": 2,
      "byteOffset": 0,
      "byteLength": 10584
    },
    {
      "buffer": 3,
      "byteOffset": 0,
      "byteLength": 10584
    }
  ],
  "meshes": [
    {
      "primitives": [
        {
          "mode": 4,
          "indices": 0,
          "attributes": {
            "POSITION": 1,
            "NORMAL": 2,
            "COLOR_0": 3
          }
        }
      ]
    }
  ],
  "nodes": [
    {
      "children": [
        1
      ]
    },
    {
      "mesh": 0
    }
  ],
  "scenes": [
    {
      "nodes": [
        0
      ]
    }
  ],
  "scene": 0
}