{
  "asset": {
    "version": "2.0",
    "generator": "COLLADA2GLTF"
  },
  "accessors": [
    {
      "bufferView": 0,
      "byteOffset": 0,
      "componentType": 5123,
      "count": 3483,
      "min": [
        0
      ],
      "max": [
        1199
      ],
      "type": "SCALAR"
    },
    {
      "bufferView": 1,
      "byteOffset": 0,
      "componentType": 5126,
      "count": 1200,
      "max": [
        -3714.181640625,
        12,
        20.51123046875
      ],
      "min": [
        -4027.86669921875,
        7,
        -130.60183715820312
      ],
      "type": "VEC3"
    },
    {
      "bufferView": 2,
      "byteOffset": 0,
      "componentType": 5126,
      "count": 1200,
      "max": [
        0.9183183908462524,
        0.7070873379707336,
        0.9183183908462524
      ],
      "min": [
        -0.9183183908462524,
        -0.7070873379707336,
        -0.9183183908462524
      ],
      "type": "VEC3"
    },
    {
      "bufferView": 3,
      "byteOffset": 0,
      "componentType": 5126,
      "count": 1200,
      "max": [
        0.4480048716068268,
        0.4480048716068268,
        0.4480659067630768
      ],
      "min": [
        0,
        0,
        0
      ],
      "type": "VEC3"
    }
  ],
  "buffers": [
    {
      "byteLength": 6966,
      "uri": "data:application/octet-stream;base64,"
    },
    {
      "byteLength": 14400,
      "uri": "data:application/octet-stream;base64,"
    },
    {
      "byteLength": 14400,
      "uri": "data:application/octet-stream;base64,"
    },
    {
      "byteLength": 14400,
      "uri": "data:application/octet-stream;base64,"
    }
  ],
  "bufferViews": [
    {
      "buffer": 0,
      "byteOffset": 0,
      "byteLength": 6966
    },
    {
      "buffer": 1,
      "byteOffset": 0,
      "byteLength": 14400
    },
    {
      "buffer": 2,
      "byteOffset": 0,
      "byteLength": 14400
    },
    {
      "buffer": 3,
      "byteOffset": 0,
      "byteLength": 14400
    }
  ],
  "meshes": [
    {
      "primitives": [
        {
          "mode": 4,
          "indices": 0,
          "attributes": {
            "POSITION": 1,
            "NORMAL": 2,
            "COLOR_0": 3
          }
        }
      ]
    }
  ],
  "nodes": [
    {
      "children": [
        1
      ]
    },
    {
      "mesh": 0
    }
  ],
  "scenes": [
    {
      "nodes": [
        0
      ]
    }
  ],
  "scene": 0
}