{
  "asset": {
    "version": "2.0",
    "generator": "COLLADA2GLTF"
  },
  "accessors": [
    {
      "bufferView": 0,
      "byteOffset": 0,
      "componentType": 5123,
      "count": 1059,
      "min": [
        0
      ],
      "max": [
        373
      ],
      "type": "SCALAR"
    },
    {
      "bufferView": 1,
      "byteOffset": 0,
      "componentType": 5126,
      "count": 374,
      "max": [
        -1246.1156005859375,
        0.0010000000474974513,
        1573.653564453125
      ],
      "min": [
        -1474.9013671875,
        -3,
        1234.4300537109375
      ],
      "type": "VEC3"
    },
    {
      "bufferView": 2,
      "byteOffset": 0,
      "componentType": 5126,
      "count": 374,
      "max": [
        0.8271545767784119,
        1,
        0.8271544575691223
      ],
      "min": [
        -0.8271544575691223,
        -1,
        -0.8271544575691223
      ],
      "type": "VEC3"
    },
    {
      "bufferView": 3,
      "byteOffset": 0,
      "componentType": 5126,
      "count": 374,
      "max": [
        0.7872740030288696,
        0.7875028848648071,
        0.7875028848648071
      ],
      "min": [
        0.07322804629802704,
        0.07324330508708954,
        0.07325856387615204
      ],
      "type": "VEC3"
    }
  ],
  "buffers": [
    {
      "byteLength": 2118,
      "uri": "data:application/octet-stream;base64,"
    },
    {
      "byteLength": 4488,
      "uri": "data:application/octet-stream;base64,"
    },
    {
      "byteLength": 4488,
      "uri": "data:application/octet-stream;base64,"
    },
    {
      "byteLength": 4488,
      "uri": "data:application/octet-stream;base64,"
    }
  ],
  "bufferViews": [
    {
      "buffer": 0,
      "byteOffset": 0,
      "byteLength": 2118
    },
    {
      "buffer": 1,
      "byteOffset": 0,
      "byteLength": 4488
    },
    {
      "buffer": 2,
      "byteOffset": 0,
      "byteLength": 4488
    },
    {
      "buffer": 3,
      "byteOffset": 0,
      "byteLength": 4488
    }
  ],
  "meshes": [
    {
      "primitives": [
        {
          "mode": 4,
          "indices": 0,
          "attributes": {
            "POSITION": 1,
            "NORMAL": 2,
            "COLOR_0": 3
          }
        }
      ]
    }
  ],
  "nodes": [
    {
      "children": [
        1
      ]
    },
    {
      "mesh": 0
    }
  ],
  "scenes": [
    {
      "nodes": [
        0
      ]
    }
  ],
  "scene": 0
}