{
  "asset": {
    "version": "2.0",
    "generator": "COLLADA2GLTF"
  },
  "accessors": [
    {
      "bufferView": 0,
      "byteOffset": 0,
      "componentType": 5123,
      "count": 3441,
      "min": [
        0
      ],
      "max": [
        1350
      ],
      "type": "SCALAR"
    },
    {
      "bufferView": 1,
      "byteOffset": 0,
      "componentType": 5126,
      "count": 1351,
      "max": [
        2790,
        0.0010000000474974513,
        539.5717163085938
      ],
      "min": [
        2340,
        0,
        -46.136024475097656
      ],
      "type": "VEC3"
    },
    {
      "bufferView": 2,
      "byteOffset": 0,
      "componentType": 5126,
      "count": 1351,
      "max": [
        0.6343442797660828,
        1,
        0
      ],
      "min": [
        0,
        0,
        -0.7730506658554077
      ],
      "type": "VEC3"
    },
    {
      "bufferView": 3,
      "byteOffset": 0,
      "componentType": 5126,
      "count": 1351,
      "max": [
        0.999786376953125,
        1,
        0.26330968737602234
      ],
      "min": [
        0.000015259021893143654,
        0.07324330508708954,
        0.00004577706567943096
      ],
      "type": "VEC3"
    }
  ],
  "buffers": [
    {
      "byteLength": 6882,
      "uri": "data:application/octet-stream;base64,"
    },
    {
      "byteLength": 16212,
      "uri": "data:application/octet-stream;base64,"
    },
    {
      "byteLength": 16212,
      "uri": "data:application/octet-stream;base64,"
    },
    {
      "byteLength": 16212,
      "uri": "data:application/octet-stream;base64,"
    }
  ],
  "bufferViews": [
    {
      "buffer": 0,
      "byteOffset": 0,
      "byteLength": 6882
    },
    {
      "buffer": 1,
      "byteOffset": 0,
      "byteLength": 16212
    },
    {
      "buffer": 2,
      "byteOffset": 0,
      "byteLength": 16212
    },
    {
      "buffer": 3,
      "byteOffset": 0,
      "byteLength": 16212
    }
  ],
  "meshes": [
    {
      "primitives": [
        {
          "mode": 4,
          "indices": 0,
          "attributes": {
            "POSITION": 1,
            "NORMAL": 2,
            "COLOR_0": 3
          }
        }
      ]
    }
  ],
  "nodes": [
    {
      "children": [
        1
      ]
    },
    {
      "mesh": 0
    }
  ],
  "scenes": [
    {
      "nodes": [
        0
      ]
    }
  ],
  "scene": 0
}