{
  "asset": {
    "version": "2.0",
    "generator": "COLLADA2GLTF"
  },
  "accessors": [
    {
      "bufferView": 0,
      "byteOffset": 0,
      "componentType": 5123,
      "count": 1074,
      "min": [
        0
      ],
      "max": [
        406
      ],
      "type": "SCALAR"
    },
    {
      "bufferView": 1,
      "byteOffset": 0,
      "componentType": 5126,
      "count": 407,
      "max": [
        393.3519592285156,
        0,
        -273.14605712890625
      ],
      "min": [
        339.4234924316406,
        -3,
        -327.0051574707031
      ],
      "type": "VEC3"
    },
    {
      "bufferView": 2,
      "byteOffset": 0,
      "componentType": 5126,
      "count": 407,
      "max": [
        0.7836573123931885,
        1,
        0.7836326360702515
      ],
      "min": [
        -0.7836326360702515,
        -1,
        -0.7836326360702515
      ],
      "type": "VEC3"
    },
    {
      "bufferView": 3,
      "byteOffset": 0,
      "componentType": 5126,
      "count": 407,
      "max": [
        0.21585412323474884,
        0.21585412323474884,
        0.21589989960193634
      ],
      "min": [
        0.21585412323474884,
        0.21585412323474884,
        0.21589989960193634
      ],
      "type": "VEC3"
    }
  ],
  "buffers": [
    {
      "byteLength": 2148,
      "uri": "data:application/octet-stream;base64,"
    },
    {
      "byteLength": 4884,
      "uri": "data:application/octet-stream;base64,"
    },
    {
      "byteLength": 4884,
      "uri": "data:application/octet-stream;base64,"
    },
    {
      "byteLength": 4884,
      "uri": "data:application/octet-stream;base64,"
    }
  ],
  "bufferViews": [
    {
      "buffer": 0,
      "byteOffset": 0,
      "byteLength": 2148
    },
    {
      "buffer": 1,
      "byteOffset": 0,
      "byteLength": 4884
    },
    {
      "buffer": 2,
      "byteOffset": 0,
      "byteLength": 4884
    },
    {
      "buffer": 3,
      "byteOffset": 0,
      "byteLength": 4884
    }
  ],
  "meshes": [
    {
      "primitives": [
        {
          "mode": 4,
          "indices": 0,
          "attributes": {
            "POSITION": 1,
            "NORMAL": 2,
            "COLOR_0": 3
          }
        }
      ]
    }
  ],
  "nodes": [
    {
      "children": [
        1
      ]
    },
    {
      "mesh": 0
    }
  ],
  "scenes": [
    {
      "nodes": [
        0
      ]
    }
  ],
  "scene": 0
}