{
  "asset": {
    "version": "2.0",
    "generator": "COLLADA2GLTF"
  },
  "accessors": [
    {
      "bufferView": 0,
      "byteOffset": 0,
      "componentType": 5123,
      "count": 3705,
      "min": [
        0
      ],
      "max": [
        1542
      ],
      "type": "SCALAR"
    },
    {
      "bufferView": 1,
      "byteOffset": 0,
      "componentType": 5126,
      "count": 1543,
      "max": [
        -450,
        0.0010000000474974513,
        839.0991821289062
      ],
      "min": [
        -841.8660278320312,
        -0.20000000298023224,
        270
      ],
      "type": "VEC3"
    },
    {
      "bufferView": 2,
      "byteOffset": 0,
      "componentType": 5126,
      "count": 1543,
      "max": [
        0.8936368227005005,
        1,
        0.893651008605957
      ],
      "min": [
        -0.8934717178344727,
        -1,
        -0.8938734531402588
      ],
      "type": "VEC3"
    },
    {
      "bufferView": 3,
      "byteOffset": 0,
      "componentType": 5126,
      "count": 1543,
      "max": [
        0.999786376953125,
        1,
        1
      ],
      "min": [
        0,
        0.00003051804378628731,
        0.00004577706567943096
      ],
      "type": "VEC3"
    }
  ],
  "buffers": [
    {
      "byteLength": 7410,
      "uri": "data:application/octet-stream;base64,"
    },
    {
      "byteLength": 18516,
      "uri": "data:application/octet-stream;base64,"
    },
    {
      "byteLength": 18516,
      "uri": "data:application/octet-stream;base64,"
    },
    {
      "byteLength": 18516,
      "uri": "data:application/octet-stream;base64,"
    }
  ],
  "bufferViews": [
    {
      "buffer": 0,
      "byteOffset": 0,
      "byteLength": 7410
    },
    {
      "buffer": 1,
      "byteOffset": 0,
      "byteLength": 18516
    },
    {
      "buffer": 2,
      "byteOffset": 0,
      "byteLength": 18516
    },
    {
      "buffer": 3,
      "byteOffset": 0,
      "byteLength": 18516
    }
  ],
  "meshes": [
    {
      "primitives": [
        {
          "mode": 4,
          "indices": 0,
          "attributes": {
            "POSITION": 1,
            "NORMAL": 2,
            "COLOR_0": 3
          }
        }
      ]
    }
  ],
  "nodes": [
    {
      "children": [
        1
      ]
    },
    {
      "mesh": 0
    }
  ],
  "scenes": [
    {
      "nodes": [
        0
      ]
    }
  ],
  "scene": 0
}