{
  "asset": {
    "version": "2.0",
    "generator": "COLLADA2GLTF"
  },
  "accessors": [
    {
      "bufferView": 0,
      "byteOffset": 0,
      "componentType": 5123,
      "count": 1065,
      "min": [
        0
      ],
      "max": [
        364
      ],
      "type": "SCALAR"
    },
    {
      "bufferView": 1,
      "byteOffset": 0,
      "componentType": 5126,
      "count": 365,
      "max": [
        8165.4169921875,
        9.5,
        10298.0205078125
      ],
      "min": [
        7029.384765625,
        -0.5,
        9468.431640625
      ],
      "type": "VEC3"
    },
    {
      "bufferView": 2,
      "byteOffset": 0,
      "componentType": 5126,
      "count": 365,
      "max": [
        0.8038501143455505,
        -0.04440061375498772,
        0.8038501143455505
      ],
      "min": [
        -0.8464967608451843,
        -0.3162277638912201,
        -0.8038501143455505
      ],
      "type": "VEC3"
    },
    {
      "bufferView": 3,
      "byteOffset": 0,
      "componentType": 5126,
      "count": 365,
      "max": [
        0.4480048716068268,
        0.4480048716068268,
        0.4480659067630768
      ],
      "min": [
        0.4480048716068268,
        0.4480048716068268,
        0.4480659067630768
      ],
      "type": "VEC3"
    }
  ],
  "buffers": [
    {
      "byteLength": 2130,
      "uri": "data:application/octet-stream;base64,"
    },
    {
      "byteLength": 4380,
      "uri": "data:application/octet-stream;base64,"
    },
    {
      "byteLength": 4380,
      "uri": "data:application/octet-stream;base64,"
    },
    {
      "byteLength": 4380,
      "uri": "data:application/octet-stream;base64,"
    }
  ],
  "bufferViews": [
    {
      "buffer": 0,
      "byteOffset": 0,
      "byteLength": 2130
    },
    {
      "buffer": 1,
      "byteOffset": 0,
      "byteLength": 4380
    },
    {
      "buffer": 2,
      "byteOffset": 0,
      "byteLength": 4380
    },
    {
      "buffer": 3,
      "byteOffset": 0,
      "byteLength": 4380
    }
  ],
  "meshes": [
    {
      "primitives": [
        {
          "mode": 4,
          "indices": 0,
          "attributes": {
            "POSITION": 1,
            "NORMAL": 2,
            "COLOR_0": 3
          }
        }
      ]
    }
  ],
  "nodes": [
    {
      "children": [
        1
      ]
    },
    {
      "mesh": 0
    }
  ],
  "scenes": [
    {
      "nodes": [
        0
      ]
    }
  ],
  "scene": 0
}