{
  "asset": {
    "version": "2.0",
    "generator": "COLLADA2GLTF"
  },
  "accessors": [
    {
      "bufferView": 0,
      "byteOffset": 0,
      "componentType": 5123,
      "count": 1974,
      "min": [
        0
      ],
      "max": [
        748
      ],
      "type": "SCALAR"
    },
    {
      "bufferView": 1,
      "byteOffset": 0,
      "componentType": 5126,
      "count": 749,
      "max": [
        -1965.5147705078125,
        9.5,
        116.8398208618164
      ],
      "min": [
        -2094.2958984375,
        7,
        -16.590415954589844
      ],
      "type": "VEC3"
    },
    {
      "bufferView": 2,
      "byteOffset": 0,
      "componentType": 5126,
      "count": 749,
      "max": [
        0.7625472545623779,
        0.7070779204368591,
        0.7625472545623779
      ],
      "min": [
        -0.7625472545623779,
        -0.7070778012275696,
        -0.7625472545623779
      ],
      "type": "VEC3"
    },
    {
      "bufferView": 3,
      "byteOffset": 0,
      "componentType": 5126,
      "count": 749,
      "max": [
        0.4480048716068268,
        0.4480048716068268,
        0.4480659067630768
      ],
      "min": [
        0,
        0,
        0
      ],
      "type": "VEC3"
    }
  ],
  "buffers": [
    {
      "byteLength": 3948,
      "uri": "data:application/octet-stream;base64,"
    },
    {
      "byteLength": 8988,
      "uri": "data:application/octet-stream;base64,"
    },
    {
      "byteLength": 8988,
      "uri": "data:application/octet-stream;base64,"
    },
    {
      "byteLength": 8988,
      "uri": "data:application/octet-stream;base64,"
    }
  ],
  "bufferViews": [
    {
      "buffer": 0,
      "byteOffset": 0,
      "byteLength": 3948
    },
    {
      "buffer": 1,
      "byteOffset": 0,
      "byteLength": 8988
    },
    {
      "buffer": 2,
      "byteOffset": 0,
      "byteLength": 8988
    },
    {
      "buffer": 3,
      "byteOffset": 0,
      "byteLength": 8988
    }
  ],
  "meshes": [
    {
      "primitives": [
        {
          "mode": 4,
          "indices": 0,
          "attributes": {
            "POSITION": 1,
            "NORMAL": 2,
            "COLOR_0": 3
          }
        }
      ]
    }
  ],
  "nodes": [
    {
      "children": [
        1
      ]
    },
    {
      "mesh": 0
    }
  ],
  "scenes": [
    {
      "nodes": [
        0
      ]
    }
  ],
  "scene": 0
}