{
  "asset": {
    "version": "2.0",
    "generator": "COLLADA2GLTF"
  },
  "accessors": [
    {
      "bufferView": 0,
      "byteOffset": 0,
      "componentType": 5123,
      "count": 1197,
      "min": [
        0
      ],
      "max": [
        519
      ],
      "type": "SCALAR"
    },
    {
      "bufferView": 1,
      "byteOffset": 0,
      "componentType": 5126,
      "count": 520,
      "max": [
        -2104.760986328125,
        22.699447631835938,
        1982.5635986328125
      ],
      "min": [
        -2737.40478515625,
        0,
        1574.8179931640625
      ],
      "type": "VEC3"
    },
    {
      "bufferView": 2,
      "byteOffset": 0,
      "componentType": 5126,
      "count": 520,
      "max": [
        1,
        1,
        1
      ],
      "min": [
        -1,
        -0.3162277638912201,
        -1
      ],
      "type": "VEC3"
    },
    {
      "bufferView": 3,
      "byteOffset": 0,
      "componentType": 5126,
      "count": 520,
      "max": [
        0.999786376953125,
        0.7875181436538696,
        0.4480659067630768
      ],
      "min": [
        0.00004577706567943096,
        0.00003051804378628731,
        0
      ],
      "type": "VEC3"
    }
  ],
  "buffers": [
    {
      "byteLength": 2394,
      "uri": "data:application/octet-stream;base64,"
    },
    {
      "byteLength": 6240,
      "uri": "data:application/octet-stream;base64,"
    },
    {
      "byteLength": 6240,
      "uri": "data:application/octet-stream;base64,"
    },
    {
      "byteLength": 6240,
      "uri": "data:application/octet-stream;base64,"
    }
  ],
  "bufferViews": [
    {
      "buffer": 0,
      "byteOffset": 0,
      "byteLength": 2394
    },
    {
      "buffer": 1,
      "byteOffset": 0,
      "byteLength": 6240
    },
    {
      "buffer": 2,
      "byteOffset": 0,
      "byteLength": 6240
    },
    {
      "buffer": 3,
      "byteOffset": 0,
      "byteLength": 6240
    }
  ],
  "meshes": [
    {
      "primitives": [
        {
          "mode": 4,
          "indices": 0,
          "attributes": {
            "POSITION": 1,
            "NORMAL": 2,
            "COLOR_0": 3
          }
        }
      ]
    }
  ],
  "nodes": [
    {
      "children": [
        1
      ]
    },
    {
      "mesh": 0
    }
  ],
  "scenes": [
    {
      "nodes": [
        0
      ]
    }
  ],
  "scene": 0
}