{
  "asset": {
    "version": "2.0",
    "generator": "COLLADA2GLTF"
  },
  "accessors": [
    {
      "bufferView": 0,
      "byteOffset": 0,
      "componentType": 5123,
      "count": 5031,
      "min": [
        0
      ],
      "max": [
        1804
      ],
      "type": "SCALAR"
    },
    {
      "bufferView": 1,
      "byteOffset": 0,
      "componentType": 5126,
      "count": 1805,
      "max": [
        260.3838195800781,
        0.10000000149011612,
        -20.57817268371582
      ],
      "min": [
        89.44038391113281,
        -0.20000000298023224,
        -213.31126403808594
      ],
      "type": "VEC3"
    },
    {
      "bufferView": 2,
      "byteOffset": 0,
      "componentType": 5126,
      "count": 1805,
      "max": [
        0.9853269457817078,
        1,
        0.9851454496383667
      ],
      "min": [
        -0.7838003635406494,
        -1,
        -0.9851454496383667
      ],
      "type": "VEC3"
    },
    {
      "bufferView": 3,
      "byteOffset": 0,
      "componentType": 5126,
      "count": 1805,
      "max": [
        0.7872740030288696,
        1,
        0.7875028848648071
      ],
      "min": [
        0.000015259021893143654,
        0.07324330508708954,
        0.00004577706567943096
      ],
      "type": "VEC3"
    }
  ],
  "buffers": [
    {
      "byteLength": 10062,
      "uri": "data:application/octet-stream;base64,"
    },
    {
      "byteLength": 21660,
      "uri": "data:application/octet-stream;base64,"
    },
    {
      "byteLength": 21660,
      "uri": "data:application/octet-stream;base64,"
    },
    {
      "byteLength": 21660,
      "uri": "data:application/octet-stream;base64,"
    }
  ],
  "bufferViews": [
    {
      "buffer": 0,
      "byteOffset": 0,
      "byteLength": 10062
    },
    {
      "buffer": 1,
      "byteOffset": 0,
      "byteLength": 21660
    },
    {
      "buffer": 2,
      "byteOffset": 0,
      "byteLength": 21660
    },
    {
      "buffer": 3,
      "byteOffset": 0,
      "byteLength": 21660
    }
  ],
  "meshes": [
    {
      "primitives": [
        {
          "mode": 4,
          "indices": 0,
          "attributes": {
            "POSITION": 1,
            "NORMAL": 2,
            "COLOR_0": 3
          }
        }
      ]
    }
  ],
  "nodes": [
    {
      "children": [
        1
      ]
    },
    {
      "mesh": 0
    }
  ],
  "scenes": [
    {
      "nodes": [
        0
      ]
    }
  ],
  "scene": 0
}