{
  "asset": {
    "version": "2.0",
    "generator": "COLLADA2GLTF"
  },
  "accessors": [
    {
      "bufferView": 0,
      "byteOffset": 0,
      "componentType": 5123,
      "count": 4449,
      "min": [
        0
      ],
      "max": [
        2450
      ],
      "type": "SCALAR"
    },
    {
      "bufferView": 1,
      "byteOffset": 0,
      "componentType": 5126,
      "count": 2451,
      "max": [
        894.6170043945312,
        7.5,
        -14.260000228881836
      ],
      "min": [
        738.9869995117188,
        0,
        -524.5349731445312
      ],
      "type": "VEC3"
    },
    {
      "bufferView": 2,
      "byteOffset": 0,
      "componentType": 5126,
      "count": 2451,
      "max": [
        1,
        1,
        1
      ],
      "min": [
        -1,
        0,
        -1
      ],
      "type": "VEC3"
    },
    {
      "bufferView": 3,
      "byteOffset": 0,
      "componentType": 5126,
      "count": 2451,
      "max": [
        0.999786376953125,
        0.7875181436538696,
        0.26330968737602234
      ],
      "min": [
        0.6036774516105652,
        0.00003051804378628731,
        0
      ],
      "type": "VEC3"
    }
  ],
  "buffers": [
    {
      "byteLength": 8898,
      "uri": "data:application/octet-stream;base64,"
    },
    {
      "byteLength": 29412,
      "uri": "data:application/octet-stream;base64,"
    },
    {
      "byteLength": 29412,
      "uri": "data:application/octet-stream;base64,"
    },
    {
      "byteLength": 29412,
      "uri": "data:application/octet-stream;base64,"
    }
  ],
  "bufferViews": [
    {
      "buffer": 0,
      "byteOffset": 0,
      "byteLength": 8898
    },
    {
      "buffer": 1,
      "byteOffset": 0,
      "byteLength": 29412
    },
    {
      "buffer": 2,
      "byteOffset": 0,
      "byteLength": 29412
    },
    {
      "buffer": 3,
      "byteOffset": 0,
      "byteLength": 29412
    }
  ],
  "meshes": [
    {
      "primitives": [
        {
          "mode": 4,
          "indices": 0,
          "attributes": {
            "POSITION": 1,
            "NORMAL": 2,
            "COLOR_0": 3
          }
        }
      ]
    }
  ],
  "nodes": [
    {
      "children": [
        1
      ]
    },
    {
      "mesh": 0
    }
  ],
  "scenes": [
    {
      "nodes": [
        0
      ]
    }
  ],
  "scene": 0
}