{
  "asset": {
    "version": "2.0",
    "generator": "COLLADA2GLTF"
  },
  "accessors": [
    {
      "bufferView": 0,
      "byteOffset": 0,
      "componentType": 5123,
      "count": 4821,
      "min": [
        0
      ],
      "max": [
        1899
      ],
      "type": "SCALAR"
    },
    {
      "bufferView": 1,
      "byteOffset": 0,
      "componentType": 5126,
      "count": 1900,
      "max": [
        -2611.246337890625,
        0.0010000000474974513,
        235.25204467773438
      ],
      "min": [
        -3208.902099609375,
        0,
        -267.7468566894531
      ],
      "type": "VEC3"
    },
    {
      "bufferView": 2,
      "byteOffset": 0,
      "componentType": 5126,
      "count": 1900,
      "max": [
        0.7914348244667053,
        1,
        0.7915130257606506
      ],
      "min": [
        -0.7914640307426453,
        -1,
        -0.7916353940963745
      ],
      "type": "VEC3"
    },
    {
      "bufferView": 3,
      "byteOffset": 0,
      "componentType": 5126,
      "count": 1900,
      "max": [
        0.999786376953125,
        1,
        0.7875028848648071
      ],
      "min": [
        0.000015259021893143654,
        0.07324330508708954,
        0.00004577706567943096
      ],
      "type": "VEC3"
    }
  ],
  "buffers": [
    {
      "byteLength": 9642,
      "uri": "data:application/octet-stream;base64,"
    },
    {
      "byteLength": 22800,
      "uri": "data:application/octet-stream;base64,"
    },
    {
      "byteLength": 22800,
      "uri": "data:application/octet-stream;base64,"
    },
    {
      "byteLength": 22800,
      "uri": "data:application/octet-stream;base64,"
    }
  ],
  "bufferViews": [
    {
      "buffer": 0,
      "byteOffset": 0,
      "byteLength": 9642
    },
    {
      "buffer": 1,
      "byteOffset": 0,
      "byteLength": 22800
    },
    {
      "buffer": 2,
      "byteOffset": 0,
      "byteLength": 22800
    },
    {
      "buffer": 3,
      "byteOffset": 0,
      "byteLength": 22800
    }
  ],
  "meshes": [
    {
      "primitives": [
        {
          "mode": 4,
          "indices": 0,
          "attributes": {
            "POSITION": 1,
            "NORMAL": 2,
            "COLOR_0": 3
          }
        }
      ]
    }
  ],
  "nodes": [
    {
      "children": [
        1
      ]
    },
    {
      "mesh": 0
    }
  ],
  "scenes": [
    {
      "nodes": [
        0
      ]
    }
  ],
  "scene": 0
}