{
  "asset": {
    "version": "2.0",
    "generator": "COLLADA2GLTF"
  },
  "accessors": [
    {
      "bufferView": 0,
      "byteOffset": 0,
      "componentType": 5123,
      "count": 2823,
      "min": [
        0
      ],
      "max": [
        1216
      ],
      "type": "SCALAR"
    },
    {
      "bufferView": 1,
      "byteOffset": 0,
      "componentType": 5126,
      "count": 1217,
      "max": [
        -2230.0380859375,
        30,
        1012.2860107421875
      ],
      "min": [
        -2738.55419921875,
        0,
        352.6811218261719
      ],
      "type": "VEC3"
    },
    {
      "bufferView": 2,
      "byteOffset": 0,
      "componentType": 5126,
      "count": 1217,
      "max": [
        0.856545090675354,
        0.707068920135498,
        0.856545090675354
      ],
      "min": [
        -0.856545090675354,
        -0.707068920135498,
        -0.9594630002975464
      ],
      "type": "VEC3"
    },
    {
      "bufferView": 3,
      "byteOffset": 0,
      "componentType": 5126,
      "count": 1217,
      "max": [
        0.999786376953125,
        0.7875181436538696,
        0.4480659067630768
      ],
      "min": [
        0,
        0,
        0
      ],
      "type": "VEC3"
    }
  ],
  "buffers": [
    {
      "byteLength": 5646,
      "uri": "data:application/octet-stream;base64,"
    },
    {
      "byteLength": 14604,
      "uri": "data:application/octet-stream;base64,"
    },
    {
      "byteLength": 14604,
      "uri": "data:application/octet-stream;base64,"
    },
    {
      "byteLength": 14604,
      "uri": "data:application/octet-stream;base64,"
    }
  ],
  "bufferViews": [
    {
      "buffer": 0,
      "byteOffset": 0,
      "byteLength": 5646
    },
    {
      "buffer": 1,
      "byteOffset": 0,
      "byteLength": 14604
    },
    {
      "buffer": 2,
      "byteOffset": 0,
      "byteLength": 14604
    },
    {
      "buffer": 3,
      "byteOffset": 0,
      "byteLength": 14604
    }
  ],
  "meshes": [
    {
      "primitives": [
        {
          "mode": 4,
          "indices": 0,
          "attributes": {
            "POSITION": 1,
            "NORMAL": 2,
            "COLOR_0": 3
          }
        }
      ]
    }
  ],
  "nodes": [
    {
      "children": [
        1
      ]
    },
    {
      "mesh": 0
    }
  ],
  "scenes": [
    {
      "nodes": [
        0
      ]
    }
  ],
  "scene": 0
}