{
  "asset": {
    "version": "2.0",
    "generator": "COLLADA2GLTF"
  },
  "accessors": [
    {
      "bufferView": 0,
      "byteOffset": 0,
      "componentType": 5123,
      "count": 147,
      "min": [
        0
      ],
      "max": [
        107
      ],
      "type": "SCALAR"
    },
    {
      "bufferView": 1,
      "byteOffset": 0,
      "componentType": 5126,
      "count": 108,
      "max": [
        463.4179992675781,
        10,
        -153.60922241210938
      ],
      "min": [
        358.5899963378906,
        0,
        -331.91400146484375
      ],
      "type": "VEC3"
    },
    {
      "bufferView": 2,
      "byteOffset": 0,
      "componentType": 5126,
      "count": 108,
      "max": [
        0.7786738872528076,
        0,
        0.781617283821106
      ],
      "min": [
        -0.7815480828285217,
        0,
        -0.781617283821106
      ],
      "type": "VEC3"
    },
    {
      "bufferView": 3,
      "byteOffset": 0,
      "componentType": 5126,
      "count": 108,
      "max": [
        0.999786376953125,
        0.7875181436538696,
        0.26330968737602234
      ],
      "min": [
        0.999786376953125,
        0.7875181436538696,
        0.26330968737602234
      ],
      "type": "VEC3"
    }
  ],
  "buffers": [
    {
      "byteLength": 294,
      "uri": "data:application/octet-stream;base64,"
    },
    {
      "byteLength": 1296,
      "uri": "data:application/octet-stream;base64,"
    },
    {
      "byteLength": 1296,
      "uri": "data:application/octet-stream;base64,"
    },
    {
      "byteLength": 1296,
      "uri": "data:application/octet-stream;base64,"
    }
  ],
  "bufferViews": [
    {
      "buffer": 0,
      "byteOffset": 0,
      "byteLength": 294
    },
    {
      "buffer": 1,
      "byteOffset": 0,
      "byteLength": 1296
    },
    {
      "buffer": 2,
      "byteOffset": 0,
      "byteLength": 1296
    },
    {
      "buffer": 3,
      "byteOffset": 0,
      "byteLength": 1296
    }
  ],
  "meshes": [
    {
      "primitives": [
        {
          "mode": 4,
          "indices": 0,
          "attributes": {
            "POSITION": 1,
            "NORMAL": 2,
            "COLOR_0": 3
          }
        }
      ]
    }
  ],
  "nodes": [
    {
      "children": [
        1
      ]
    },
    {
      "mesh": 0
    }
  ],
  "scenes": [
    {
      "nodes": [
        0
      ]
    }
  ],
  "scene": 0
}