{
  "asset": {
    "version": "2.0",
    "generator": "COLLADA2GLTF"
  },
  "accessors": [
    {
      "bufferView": 0,
      "byteOffset": 0,
      "componentType": 5123,
      "count": 4221,
      "min": [
        0
      ],
      "max": [
        1974
      ],
      "type": "SCALAR"
    },
    {
      "bufferView": 1,
      "byteOffset": 0,
      "componentType": 5126,
      "count": 1975,
      "max": [
        930,
        7.5,
        -21.15919303894043
      ],
      "min": [
        630,
        0,
        -480
      ],
      "type": "VEC3"
    },
    {
      "bufferView": 2,
      "byteOffset": 0,
      "componentType": 5126,
      "count": 1975,
      "max": [
        0.9999898672103882,
        1,
        0.9676681160926819
      ],
      "min": [
        -0.9999884366989136,
        0,
        -0.9999845027923584
      ],
      "type": "VEC3"
    },
    {
      "bufferView": 3,
      "byteOffset": 0,
      "componentType": 5126,
      "count": 1975,
      "max": [
        0.999786376953125,
        1,
        0.26330968737602234
      ],
      "min": [
        0.000015259021893143654,
        0.07324330508708954,
        0.00004577706567943096
      ],
      "type": "VEC3"
    }
  ],
  "buffers": [
    {
      "byteLength": 8442,
      "uri": "data:application/octet-stream;base64,"
    },
    {
      "byteLength": 23700,
      "uri": "data:application/octet-stream;base64,"
    },
    {
      "byteLength": 23700,
      "uri": "data:application/octet-stream;base64,"
    },
    {
      "byteLength": 23700,
      "uri": "data:application/octet-stream;base64,"
    }
  ],
  "bufferViews": [
    {
      "buffer": 0,
      "byteOffset": 0,
      "byteLength": 8442
    },
    {
      "buffer": 1,
      "byteOffset": 0,
      "byteLength": 23700
    },
    {
      "buffer": 2,
      "byteOffset": 0,
      "byteLength": 23700
    },
    {
      "buffer": 3,
      "byteOffset": 0,
      "byteLength": 23700
    }
  ],
  "meshes": [
    {
      "primitives": [
        {
          "mode": 4,
          "indices": 0,
          "attributes": {
            "POSITION": 1,
            "NORMAL": 2,
            "COLOR_0": 3
          }
        }
      ]
    }
  ],
  "nodes": [
    {
      "children": [
        1
      ]
    },
    {
      "mesh": 0
    }
  ],
  "scenes": [
    {
      "nodes": [
        0
      ]
    }
  ],
  "scene": 0
}