{
  "asset": {
    "version": "2.0",
    "generator": "COLLADA2GLTF"
  },
  "accessors": [
    {
      "bufferView": 0,
      "byteOffset": 0,
      "componentType": 5123,
      "count": 2217,
      "min": [
        0
      ],
      "max": [
        929
      ],
      "type": "SCALAR"
    },
    {
      "bufferView": 1,
      "byteOffset": 0,
      "componentType": 5126,
      "count": 930,
      "max": [
        198.47096252441406,
        2.299999952316284,
        689.3525390625
      ],
      "min": [
        -108.23699951171875,
        0,
        259.3389892578125
      ],
      "type": "VEC3"
    },
    {
      "bufferView": 2,
      "byteOffset": 0,
      "componentType": 5126,
      "count": 930,
      "max": [
        0.9898214340209961,
        1,
        1
      ],
      "min": [
        -0.9898214340209961,
        0,
        -0.9594929814338684
      ],
      "type": "VEC3"
    },
    {
      "bufferView": 3,
      "byteOffset": 0,
      "componentType": 5126,
      "count": 930,
      "max": [
        0.999786376953125,
        1,
        1
      ],
      "min": [
        0,
        0.00003051804378628731,
        0.00004577706567943096
      ],
      "type": "VEC3"
    }
  ],
  "buffers": [
    {
      "byteLength": 4434,
      "uri": "data:application/octet-stream;base64,"
    },
    {
      "byteLength": 11160,
      "uri": "data:application/octet-stream;base64,"
    },
    {
      "byteLength": 11160,
      "uri": "data:application/octet-stream;base64,"
    },
    {
      "byteLength": 11160,
      "uri": "data:application/octet-stream;base64,"
    }
  ],
  "bufferViews": [
    {
      "buffer": 0,
      "byteOffset": 0,
      "byteLength": 4434
    },
    {
      "buffer": 1,
      "byteOffset": 0,
      "byteLength": 11160
    },
    {
      "buffer": 2,
      "byteOffset": 0,
      "byteLength": 11160
    },
    {
      "buffer": 3,
      "byteOffset": 0,
      "byteLength": 11160
    }
  ],
  "meshes": [
    {
      "primitives": [
        {
          "mode": 4,
          "indices": 0,
          "attributes": {
            "POSITION": 1,
            "NORMAL": 2,
            "COLOR_0": 3
          }
        }
      ]
    }
  ],
  "nodes": [
    {
      "children": [
        1
      ]
    },
    {
      "mesh": 0
    }
  ],
  "scenes": [
    {
      "nodes": [
        0
      ]
    }
  ],
  "scene": 0
}