{
  "asset": {
    "version": "2.0",
    "generator": "COLLADA2GLTF"
  },
  "accessors": [
    {
      "bufferView": 0,
      "byteOffset": 0,
      "componentType": 5123,
      "count": 4620,
      "min": [
        0
      ],
      "max": [
        1771
      ],
      "type": "SCALAR"
    },
    {
      "bufferView": 1,
      "byteOffset": 0,
      "componentType": 5126,
      "count": 1772,
      "max": [
        -1889.2373046875,
        0.0010000000474974513,
        -960
      ],
      "min": [
        -2227.8896484375,
        -0.20000000298023224,
        -1258.9423828125
      ],
      "type": "VEC3"
    },
    {
      "bufferView": 2,
      "byteOffset": 0,
      "componentType": 5126,
      "count": 1772,
      "max": [
        0.6346477270126343,
        1,
        0.7728499174118042
      ],
      "min": [
        -0.7728257775306702,
        -1,
        -0.8220296502113342
      ],
      "type": "VEC3"
    },
    {
      "bufferView": 3,
      "byteOffset": 0,
      "componentType": 5126,
      "count": 1772,
      "max": [
        0.7872740030288696,
        1,
        1
      ],
      "min": [
        0,
        0.00003051804378628731,
        0.00004577706567943096
      ],
      "type": "VEC3"
    }
  ],
  "buffers": [
    {
      "byteLength": 9240,
      "uri": "data:application/octet-stream;base64,"
    },
    {
      "byteLength": 21264,
      "uri": "data:application/octet-stream;base64,"
    },
    {
      "byteLength": 21264,
      "uri": "data:application/octet-stream;base64,"
    },
    {
      "byteLength": 21264,
      "uri": "data:application/octet-stream;base64,"
    }
  ],
  "bufferViews": [
    {
      "buffer": 0,
      "byteOffset": 0,
      "byteLength": 9240
    },
    {
      "buffer": 1,
      "byteOffset": 0,
      "byteLength": 21264
    },
    {
      "buffer": 2,
      "byteOffset": 0,
      "byteLength": 21264
    },
    {
      "buffer": 3,
      "byteOffset": 0,
      "byteLength": 21264
    }
  ],
  "meshes": [
    {
      "primitives": [
        {
          "mode": 4,
          "indices": 0,
          "attributes": {
            "POSITION": 1,
            "NORMAL": 2,
            "COLOR_0": 3
          }
        }
      ]
    }
  ],
  "nodes": [
    {
      "children": [
        1
      ]
    },
    {
      "mesh": 0
    }
  ],
  "scenes": [
    {
      "nodes": [
        0
      ]
    }
  ],
  "scene": 0
}