{
  "asset": {
    "version": "2.0",
    "generator": "COLLADA2GLTF"
  },
  "accessors": [
    {
      "bufferView": 0,
      "byteOffset": 0,
      "componentType": 5123,
      "count": 3903,
      "min": [
        0
      ],
      "max": [
        1608
      ],
      "type": "SCALAR"
    },
    {
      "bufferView": 1,
      "byteOffset": 0,
      "componentType": 5126,
      "count": 1609,
      "max": [
        1569.031982421875,
        7.5,
        677.9439697265625
      ],
      "min": [
        1230,
        0,
        192.1123504638672
      ],
      "type": "VEC3"
    },
    {
      "bufferView": 2,
      "byteOffset": 0,
      "componentType": 5126,
      "count": 1609,
      "max": [
        0.9701234102249146,
        1,
        0.9699522256851196
      ],
      "min": [
        -0.9698116183280945,
        0,
        -0.9700261354446411
      ],
      "type": "VEC3"
    },
    {
      "bufferView": 3,
      "byteOffset": 0,
      "componentType": 5126,
      "count": 1609,
      "max": [
        0.999847412109375,
        1,
        0.9999847412109375
      ],
      "min": [
        0,
        0.00003051804378628731,
        0
      ],
      "type": "VEC3"
    }
  ],
  "buffers": [
    {
      "byteLength": 7806,
      "uri": "data:application/octet-stream;base64,"
    },
    {
      "byteLength": 19308,
      "uri": "data:application/octet-stream;base64,"
    },
    {
      "byteLength": 19308,
      "uri": "data:application/octet-stream;base64,"
    },
    {
      "byteLength": 19308,
      "uri": "data:application/octet-stream;base64,"
    }
  ],
  "bufferViews": [
    {
      "buffer": 0,
      "byteOffset": 0,
      "byteLength": 7806
    },
    {
      "buffer": 1,
      "byteOffset": 0,
      "byteLength": 19308
    },
    {
      "buffer": 2,
      "byteOffset": 0,
      "byteLength": 19308
    },
    {
      "buffer": 3,
      "byteOffset": 0,
      "byteLength": 19308
    }
  ],
  "meshes": [
    {
      "primitives": [
        {
          "mode": 4,
          "indices": 0,
          "attributes": {
            "POSITION": 1,
            "NORMAL": 2,
            "COLOR_0": 3
          }
        }
      ]
    }
  ],
  "nodes": [
    {
      "children": [
        1
      ]
    },
    {
      "mesh": 0
    }
  ],
  "scenes": [
    {
      "nodes": [
        0
      ]
    }
  ],
  "scene": 0
}