{
  "asset": {
    "version": "2.0",
    "generator": "COLLADA2GLTF"
  },
  "accessors": [
    {
      "bufferView": 0,
      "byteOffset": 0,
      "componentType": 5123,
      "count": 2412,
      "min": [
        0
      ],
      "max": [
        1041
      ],
      "type": "SCALAR"
    },
    {
      "bufferView": 1,
      "byteOffset": 0,
      "componentType": 5126,
      "count": 1042,
      "max": [
        -2910,
        0.11999999731779099,
        1140
      ],
      "min": [
        -3510,
        0,
        562.305908203125
      ],
      "type": "VEC3"
    },
    {
      "bufferView": 2,
      "byteOffset": 0,
      "componentType": 5126,
      "count": 1042,
      "max": [
        0.8953307867050171,
        1,
        0.8941478729248047
      ],
      "min": [
        -0.8988710045814514,
        0,
        -0.9070903062820435
      ],
      "type": "VEC3"
    },
    {
      "bufferView": 3,
      "byteOffset": 0,
      "componentType": 5126,
      "count": 1042,
      "max": [
        0.999786376953125,
        1,
        0.26330968737602234
      ],
      "min": [
        0,
        0.07324330508708954,
        0.000015259021893143654
      ],
      "type": "VEC3"
    }
  ],
  "buffers": [
    {
      "byteLength": 4824,
      "uri": "data:application/octet-stream;base64,"
    },
    {
      "byteLength": 12504,
      "uri": "data:application/octet-stream;base64,"
    },
    {
      "byteLength": 12504,
      "uri": "data:application/octet-stream;base64,"
    },
    {
      "byteLength": 12504,
      "uri": "data:application/octet-stream;base64,"
    }
  ],
  "bufferViews": [
    {
      "buffer": 0,
      "byteOffset": 0,
      "byteLength": 4824
    },
    {
      "buffer": 1,
      "byteOffset": 0,
      "byteLength": 12504
    },
    {
      "buffer": 2,
      "byteOffset": 0,
      "byteLength": 12504
    },
    {
      "buffer": 3,
      "byteOffset": 0,
      "byteLength": 12504
    }
  ],
  "meshes": [
    {
      "primitives": [
        {
          "mode": 4,
          "indices": 0,
          "attributes": {
            "POSITION": 1,
            "NORMAL": 2,
            "COLOR_0": 3
          }
        }
      ]
    }
  ],
  "nodes": [
    {
      "children": [
        1
      ]
    },
    {
      "mesh": 0
    }
  ],
  "scenes": [
    {
      "nodes": [
        0
      ]
    }
  ],
  "scene": 0
}