{
  "asset": {
    "version": "2.0",
    "generator": "COLLADA2GLTF"
  },
  "accessors": [
    {
      "bufferView": 0,
      "byteOffset": 0,
      "componentType": 5123,
      "count": 831,
      "min": [
        0
      ],
      "max": [
        516
      ],
      "type": "SCALAR"
    },
    {
      "bufferView": 1,
      "byteOffset": 0,
      "componentType": 5126,
      "count": 517,
      "max": [
        239.67999267578125,
        10,
        -282.08599853515625
      ],
      "min": [
        3.2939999103546143,
        0,
        -524.0230102539062
      ],
      "type": "VEC3"
    },
    {
      "bufferView": 2,
      "byteOffset": 0,
      "componentType": 5126,
      "count": 517,
      "max": [
        1,
        1,
        1
      ],
      "min": [
        -0.9999993443489075,
        0,
        -0.9999998807907104
      ],
      "type": "VEC3"
    },
    {
      "bufferView": 3,
      "byteOffset": 0,
      "componentType": 5126,
      "count": 517,
      "max": [
        0.999786376953125,
        0.7875181436538696,
        0.26330968737602234
      ],
      "min": [
        0.00004577706567943096,
        0.00003051804378628731,
        0
      ],
      "type": "VEC3"
    }
  ],
  "buffers": [
    {
      "byteLength": 1662,
      "uri": "data:application/octet-stream;base64,"
    },
    {
      "byteLength": 6204,
      "uri": "data:application/octet-stream;base64,"
    },
    {
      "byteLength": 6204,
      "uri": "data:application/octet-stream;base64,"
    },
    {
      "byteLength": 6204,
      "uri": "data:application/octet-stream;base64,"
    }
  ],
  "bufferViews": [
    {
      "buffer": 0,
      "byteOffset": 0,
      "byteLength": 1662
    },
    {
      "buffer": 1,
      "byteOffset": 0,
      "byteLength": 6204
    },
    {
      "buffer": 2,
      "byteOffset": 0,
      "byteLength": 6204
    },
    {
      "buffer": 3,
      "byteOffset": 0,
      "byteLength": 6204
    }
  ],
  "meshes": [
    {
      "primitives": [
        {
          "mode": 4,
          "indices": 0,
          "attributes": {
            "POSITION": 1,
            "NORMAL": 2,
            "COLOR_0": 3
          }
        }
      ]
    }
  ],
  "nodes": [
    {
      "children": [
        1
      ]
    },
    {
      "mesh": 0
    }
  ],
  "scenes": [
    {
      "nodes": [
        0
      ]
    }
  ],
  "scene": 0
}