{
  "asset": {
    "version": "2.0",
    "generator": "COLLADA2GLTF"
  },
  "accessors": [
    {
      "bufferView": 0,
      "byteOffset": 0,
      "componentType": 5123,
      "count": 4035,
      "min": [
        0
      ],
      "max": [
        1565
      ],
      "type": "SCALAR"
    },
    {
      "bufferView": 1,
      "byteOffset": 0,
      "componentType": 5126,
      "count": 1566,
      "max": [
        -28.59000015258789,
        7.5,
        2318.06689453125
      ],
      "min": [
        -2159.375,
        -3,
        -2554.64501953125
      ],
      "type": "VEC3"
    },
    {
      "bufferView": 2,
      "byteOffset": 0,
      "componentType": 5126,
      "count": 1566,
      "max": [
        0.822321355342865,
        1,
        0.823918342590332
      ],
      "min": [
        -0.822321355342865,
        -1,
        -0.822321355342865
      ],
      "type": "VEC3"
    },
    {
      "bufferView": 3,
      "byteOffset": 0,
      "componentType": 5126,
      "count": 1566,
      "max": [
        0.999786376953125,
        1,
        1
      ],
      "min": [
        0,
        0.000015259021893143654,
        0
      ],
      "type": "VEC3"
    }
  ],
  "buffers": [
    {
      "byteLength": 8070,
      "uri": "data:application/octet-stream;base64,"
    },
    {
      "byteLength": 18792,
      "uri": "data:application/octet-stream;base64,"
    },
    {
      "byteLength": 18792,
      "uri": "data:application/octet-stream;base64,"
    },
    {
      "byteLength": 18792,
      "uri": "data:application/octet-stream;base64,"
    }
  ],
  "bufferViews": [
    {
      "buffer": 0,
      "byteOffset": 0,
      "byteLength": 8070
    },
    {
      "buffer": 1,
      "byteOffset": 0,
      "byteLength": 18792
    },
    {
      "buffer": 2,
      "byteOffset": 0,
      "byteLength": 18792
    },
    {
      "buffer": 3,
      "byteOffset": 0,
      "byteLength": 18792
    }
  ],
  "meshes": [
    {
      "primitives": [
        {
          "mode": 4,
          "indices": 0,
          "attributes": {
            "POSITION": 1,
            "NORMAL": 2,
            "COLOR_0": 3
          }
        }
      ]
    }
  ],
  "nodes": [
    {
      "children": [
        1
      ]
    },
    {
      "mesh": 0
    }
  ],
  "scenes": [
    {
      "nodes": [
        0
      ]
    }
  ],
  "scene": 0
}