{
  "asset": {
    "version": "2.0",
    "generator": "COLLADA2GLTF"
  },
  "accessors": [
    {
      "bufferView": 0,
      "byteOffset": 0,
      "componentType": 5123,
      "count": 1347,
      "min": [
        0
      ],
      "max": [
        762
      ],
      "type": "SCALAR"
    },
    {
      "bufferView": 1,
      "byteOffset": 0,
      "componentType": 5126,
      "count": 763,
      "max": [
        -1804.28564453125,
        0.0010000000474974513,
        -94.53417205810547
      ],
      "min": [
        -2205.7275390625,
        0,
        -360
      ],
      "type": "VEC3"
    },
    {
      "bufferView": 2,
      "byteOffset": 0,
      "componentType": 5126,
      "count": 763,
      "max": [
        0.7884209752082825,
        1,
        0.788199782371521
      ],
      "min": [
        -0.7882363200187683,
        0,
        -0.7876772284507751
      ],
      "type": "VEC3"
    },
    {
      "bufferView": 3,
      "byteOffset": 0,
      "componentType": 5126,
      "count": 763,
      "max": [
        0.999786376953125,
        1,
        0.7875028848648071
      ],
      "min": [
        0.000015259021893143654,
        0.07324330508708954,
        0.00004577706567943096
      ],
      "type": "VEC3"
    }
  ],
  "buffers": [
    {
      "byteLength": 2694,
      "uri": "data:application/octet-stream;base64,"
    },
    {
      "byteLength": 9156,
      "uri": "data:application/octet-stream;base64,"
    },
    {
      "byteLength": 9156,
      "uri": "data:application/octet-stream;base64,"
    },
    {
      "byteLength": 9156,
      "uri": "data:application/octet-stream;base64,"
    }
  ],
  "bufferViews": [
    {
      "buffer": 0,
      "byteOffset": 0,
      "byteLength": 2694
    },
    {
      "buffer": 1,
      "byteOffset": 0,
      "byteLength": 9156
    },
    {
      "buffer": 2,
      "byteOffset": 0,
      "byteLength": 9156
    },
    {
      "buffer": 3,
      "byteOffset": 0,
      "byteLength": 9156
    }
  ],
  "meshes": [
    {
      "primitives": [
        {
          "mode": 4,
          "indices": 0,
          "attributes": {
            "POSITION": 1,
            "NORMAL": 2,
            "COLOR_0": 3
          }
        }
      ]
    }
  ],
  "nodes": [
    {
      "children": [
        1
      ]
    },
    {
      "mesh": 0
    }
  ],
  "scenes": [
    {
      "nodes": [
        0
      ]
    }
  ],
  "scene": 0
}