{
  "asset": {
    "version": "2.0",
    "generator": "COLLADA2GLTF"
  },
  "accessors": [
    {
      "bufferView": 0,
      "byteOffset": 0,
      "componentType": 5123,
      "count": 2790,
      "min": [
        0
      ],
      "max": [
        1236
      ],
      "type": "SCALAR"
    },
    {
      "bufferView": 1,
      "byteOffset": 0,
      "componentType": 5126,
      "count": 1237,
      "max": [
        138.10499572753906,
        0.0010000000474974513,
        698.3699951171875
      ],
      "min": [
        -1009.4970092773438,
        0,
        -1178.491943359375
      ],
      "type": "VEC3"
    },
    {
      "bufferView": 2,
      "byteOffset": 0,
      "componentType": 5126,
      "count": 1237,
      "max": [
        0.9999885559082031,
        1,
        0.999957799911499
      ],
      "min": [
        -1,
        0,
        -0.9999903440475464
      ],
      "type": "VEC3"
    },
    {
      "bufferView": 3,
      "byteOffset": 0,
      "componentType": 5126,
      "count": 1237,
      "max": [
        0.999786376953125,
        1,
        1
      ],
      "min": [
        0,
        0.00003051804378628731,
        0.000015259021893143654
      ],
      "type": "VEC3"
    }
  ],
  "buffers": [
    {
      "byteLength": 5580,
      "uri": "data:application/octet-stream;base64,"
    },
    {
      "byteLength": 14844,
      "uri": "data:application/octet-stream;base64,"
    },
    {
      "byteLength": 14844,
      "uri": "data:application/octet-stream;base64,"
    },
    {
      "byteLength": 14844,
      "uri": "data:application/octet-stream;base64,"
    }
  ],
  "bufferViews": [
    {
      "buffer": 0,
      "byteOffset": 0,
      "byteLength": 5580
    },
    {
      "buffer": 1,
      "byteOffset": 0,
      "byteLength": 14844
    },
    {
      "buffer": 2,
      "byteOffset": 0,
      "byteLength": 14844
    },
    {
      "buffer": 3,
      "byteOffset": 0,
      "byteLength": 14844
    }
  ],
  "meshes": [
    {
      "primitives": [
        {
          "mode": 4,
          "indices": 0,
          "attributes": {
            "POSITION": 1,
            "NORMAL": 2,
            "COLOR_0": 3
          }
        }
      ]
    }
  ],
  "nodes": [
    {
      "children": [
        1
      ]
    },
    {
      "mesh": 0
    }
  ],
  "scenes": [
    {
      "nodes": [
        0
      ]
    }
  ],
  "scene": 0
}