{
  "asset": {
    "version": "2.0",
    "generator": "COLLADA2GLTF"
  },
  "accessors": [
    {
      "bufferView": 0,
      "byteOffset": 0,
      "componentType": 5123,
      "count": 696,
      "min": [
        0
      ],
      "max": [
        345
      ],
      "type": "SCALAR"
    },
    {
      "bufferView": 1,
      "byteOffset": 0,
      "componentType": 5126,
      "count": 346,
      "max": [
        328.8724060058594,
        7.5,
        -182.705078125
      ],
      "min": [
        30,
        0,
        -472.4797668457031
      ],
      "type": "VEC3"
    },
    {
      "bufferView": 2,
      "byteOffset": 0,
      "componentType": 5126,
      "count": 346,
      "max": [
        0.9989266991615295,
        1,
        0.9989683032035828
      ],
      "min": [
        -0.9989787936210632,
        0,
        -0.9989657998085022
      ],
      "type": "VEC3"
    },
    {
      "bufferView": 3,
      "byteOffset": 0,
      "componentType": 5126,
      "count": 346,
      "max": [
        0.999786376953125,
        1,
        0.26330968737602234
      ],
      "min": [
        0.000015259021893143654,
        0.07324330508708954,
        0.00004577706567943096
      ],
      "type": "VEC3"
    }
  ],
  "buffers": [
    {
      "byteLength": 1392,
      "uri": "data:application/octet-stream;base64,"
    },
    {
      "byteLength": 4152,
      "uri": "data:application/octet-stream;base64,"
    },
    {
      "byteLength": 4152,
      "uri": "data:application/octet-stream;base64,"
    },
    {
      "byteLength": 4152,
      "uri": "data:application/octet-stream;base64,"
    }
  ],
  "bufferViews": [
    {
      "buffer": 0,
      "byteOffset": 0,
      "byteLength": 1392
    },
    {
      "buffer": 1,
      "byteOffset": 0,
      "byteLength": 4152
    },
    {
      "buffer": 2,
      "byteOffset": 0,
      "byteLength": 4152
    },
    {
      "buffer": 3,
      "byteOffset": 0,
      "byteLength": 4152
    }
  ],
  "meshes": [
    {
      "primitives": [
        {
          "mode": 4,
          "indices": 0,
          "attributes": {
            "POSITION": 1,
            "NORMAL": 2,
            "COLOR_0": 3
          }
        }
      ]
    }
  ],
  "nodes": [
    {
      "children": [
        1
      ]
    },
    {
      "mesh": 0
    }
  ],
  "scenes": [
    {
      "nodes": [
        0
      ]
    }
  ],
  "scene": 0
}