{
  "asset": {
    "version": "2.0",
    "generator": "COLLADA2GLTF"
  },
  "accessors": [
    {
      "bufferView": 0,
      "byteOffset": 0,
      "componentType": 5123,
      "count": 9768,
      "min": [
        0
      ],
      "max": [
        3721
      ],
      "type": "SCALAR"
    },
    {
      "bufferView": 1,
      "byteOffset": 0,
      "componentType": 5126,
      "count": 3722,
      "max": [
        -278.3543701171875,
        7.5,
        -609.4505615234375
      ],
      "min": [
        -570,
        -3,
        -1046.061279296875
      ],
      "type": "VEC3"
    },
    {
      "bufferView": 2,
      "byteOffset": 0,
      "componentType": 5126,
      "count": 3722,
      "max": [
        0.8261516690254211,
        1,
        0.7940852046012878
      ],
      "min": [
        -0.8081873655319214,
        -1,
        -0.8688399195671082
      ],
      "type": "VEC3"
    },
    {
      "bufferView": 3,
      "byteOffset": 0,
      "componentType": 5126,
      "count": 3722,
      "max": [
        0.999786376953125,
        1,
        1
      ],
      "min": [
        0,
        0.00003051804378628731,
        0.000015259021893143654
      ],
      "type": "VEC3"
    }
  ],
  "buffers": [
    {
      "byteLength": 19536,
      "uri": "data:application/octet-stream;base64,"
    },
    {
      "byteLength": 44664,
      "uri": "data:application/octet-stream;base64,"
    },
    {
      "byteLength": 44664,
      "uri": "data:application/octet-stream;base64,"
    },
    {
      "byteLength": 44664,
      "uri": "data:application/octet-stream;base64,"
    }
  ],
  "bufferViews": [
    {
      "buffer": 0,
      "byteOffset": 0,
      "byteLength": 19536
    },
    {
      "buffer": 1,
      "byteOffset": 0,
      "byteLength": 44664
    },
    {
      "buffer": 2,
      "byteOffset": 0,
      "byteLength": 44664
    },
    {
      "buffer": 3,
      "byteOffset": 0,
      "byteLength": 44664
    }
  ],
  "meshes": [
    {
      "primitives": [
        {
          "mode": 4,
          "indices": 0,
          "attributes": {
            "POSITION": 1,
            "NORMAL": 2,
            "COLOR_0": 3
          }
        }
      ]
    }
  ],
  "nodes": [
    {
      "children": [
        1
      ]
    },
    {
      "mesh": 0
    }
  ],
  "scenes": [
    {
      "nodes": [
        0
      ]
    }
  ],
  "scene": 0
}