{
  "asset": {
    "version": "2.0",
    "generator": "COLLADA2GLTF"
  },
  "accessors": [
    {
      "bufferView": 0,
      "byteOffset": 0,
      "componentType": 5123,
      "count": 2220,
      "min": [
        0
      ],
      "max": [
        885
      ],
      "type": "SCALAR"
    },
    {
      "bufferView": 1,
      "byteOffset": 0,
      "componentType": 5126,
      "count": 886,
      "max": [
        2997.45703125,
        0.0010000000474974513,
        1350
      ],
      "min": [
        2685.35546875,
        0,
        1140
      ],
      "type": "VEC3"
    },
    {
      "bufferView": 2,
      "byteOffset": 0,
      "componentType": 5126,
      "count": 886,
      "max": [
        0.9986996054649353,
        1,
        0.9986861348152161
      ],
      "min": [
        -0.9986829161643982,
        0,
        -0.9986721873283386
      ],
      "type": "VEC3"
    },
    {
      "bufferView": 3,
      "byteOffset": 0,
      "componentType": 5126,
      "count": 886,
      "max": [
        0.999786376953125,
        1,
        0.7875028848648071
      ],
      "min": [
        0.000015259021893143654,
        0.07324330508708954,
        0.00004577706567943096
      ],
      "type": "VEC3"
    }
  ],
  "buffers": [
    {
      "byteLength": 4440,
      "uri": "data:application/octet-stream;base64,"
    },
    {
      "byteLength": 10632,
      "uri": "data:application/octet-stream;base64,"
    },
    {
      "byteLength": 10632,
      "uri": "data:application/octet-stream;base64,"
    },
    {
      "byteLength": 10632,
      "uri": "data:application/octet-stream;base64,"
    }
  ],
  "bufferViews": [
    {
      "buffer": 0,
      "byteOffset": 0,
      "byteLength": 4440
    },
    {
      "buffer": 1,
      "byteOffset": 0,
      "byteLength": 10632
    },
    {
      "buffer": 2,
      "byteOffset": 0,
      "byteLength": 10632
    },
    {
      "buffer": 3,
      "byteOffset": 0,
      "byteLength": 10632
    }
  ],
  "meshes": [
    {
      "primitives": [
        {
          "mode": 4,
          "indices": 0,
          "attributes": {
            "POSITION": 1,
            "NORMAL": 2,
            "COLOR_0": 3
          }
        }
      ]
    }
  ],
  "nodes": [
    {
      "children": [
        1
      ]
    },
    {
      "mesh": 0
    }
  ],
  "scenes": [
    {
      "nodes": [
        0
      ]
    }
  ],
  "scene": 0
}