{
  "asset": {
    "version": "2.0",
    "generator": "COLLADA2GLTF"
  },
  "accessors": [
    {
      "bufferView": 0,
      "byteOffset": 0,
      "componentType": 5123,
      "count": 1017,
      "min": [
        0
      ],
      "max": [
        422
      ],
      "type": "SCALAR"
    },
    {
      "bufferView": 1,
      "byteOffset": 0,
      "componentType": 5126,
      "count": 423,
      "max": [
        90.03424835205078,
        0.0010000000474974513,
        183.68011474609375
      ],
      "min": [
        -57.265380859375,
        -0.20000000298023224,
        36.90840530395508
      ],
      "type": "VEC3"
    },
    {
      "bufferView": 2,
      "byteOffset": 0,
      "componentType": 5126,
      "count": 423,
      "max": [
        0.7524465918540955,
        1,
        0.7525911331176758
      ],
      "min": [
        -0.7514804601669312,
        -1,
        -0.7534903287887573
      ],
      "type": "VEC3"
    },
    {
      "bufferView": 3,
      "byteOffset": 0,
      "componentType": 5126,
      "count": 423,
      "max": [
        0.999786376953125,
        1,
        0.7875028848648071
      ],
      "min": [
        0.000015259021893143654,
        0.07324330508708954,
        0.00004577706567943096
      ],
      "type": "VEC3"
    }
  ],
  "buffers": [
    {
      "byteLength": 2034,
      "uri": "data:application/octet-stream;base64,"
    },
    {
      "byteLength": 5076,
      "uri": "data:application/octet-stream;base64,"
    },
    {
      "byteLength": 5076,
      "uri": "data:application/octet-stream;base64,"
    },
    {
      "byteLength": 5076,
      "uri": "data:application/octet-stream;base64,"
    }
  ],
  "bufferViews": [
    {
      "buffer": 0,
      "byteOffset": 0,
      "byteLength": 2034
    },
    {
      "buffer": 1,
      "byteOffset": 0,
      "byteLength": 5076
    },
    {
      "buffer": 2,
      "byteOffset": 0,
      "byteLength": 5076
    },
    {
      "buffer": 3,
      "byteOffset": 0,
      "byteLength": 5076
    }
  ],
  "meshes": [
    {
      "primitives": [
        {
          "mode": 4,
          "indices": 0,
          "attributes": {
            "POSITION": 1,
            "NORMAL": 2,
            "COLOR_0": 3
          }
        }
      ]
    }
  ],
  "nodes": [
    {
      "children": [
        1
      ]
    },
    {
      "mesh": 0
    }
  ],
  "scenes": [
    {
      "nodes": [
        0
      ]
    }
  ],
  "scene": 0
}