{
  "asset": {
    "version": "2.0",
    "generator": "COLLADA2GLTF"
  },
  "accessors": [
    {
      "bufferView": 0,
      "byteOffset": 0,
      "componentType": 5123,
      "count": 309,
      "min": [
        0
      ],
      "max": [
        174
      ],
      "type": "SCALAR"
    },
    {
      "bufferView": 1,
      "byteOffset": 0,
      "componentType": 5126,
      "count": 175,
      "max": [
        -81.33100128173828,
        12.5,
        637.6599731445312
      ],
      "min": [
        -173.74099731445312,
        0,
        573.24072265625
      ],
      "type": "VEC3"
    },
    {
      "bufferView": 2,
      "byteOffset": 0,
      "componentType": 5126,
      "count": 175,
      "max": [
        0.9551708102226257,
        1,
        0.9550031423568726
      ],
      "min": [
        -0.9554733037948608,
        0,
        -0.9550366997718811
      ],
      "type": "VEC3"
    },
    {
      "bufferView": 3,
      "byteOffset": 0,
      "componentType": 5126,
      "count": 175,
      "max": [
        0.999786376953125,
        0.7875181436538696,
        0.26330968737602234
      ],
      "min": [
        0.6036774516105652,
        0.00003051804378628731,
        0
      ],
      "type": "VEC3"
    }
  ],
  "buffers": [
    {
      "byteLength": 618,
      "uri": "data:application/octet-stream;base64,"
    },
    {
      "byteLength": 2100,
      "uri": "data:application/octet-stream;base64,"
    },
    {
      "byteLength": 2100,
      "uri": "data:application/octet-stream;base64,"
    },
    {
      "byteLength": 2100,
      "uri": "data:application/octet-stream;base64,"
    }
  ],
  "bufferViews": [
    {
      "buffer": 0,
      "byteOffset": 0,
      "byteLength": 618
    },
    {
      "buffer": 1,
      "byteOffset": 0,
      "byteLength": 2100
    },
    {
      "buffer": 2,
      "byteOffset": 0,
      "byteLength": 2100
    },
    {
      "buffer": 3,
      "byteOffset": 0,
      "byteLength": 2100
    }
  ],
  "meshes": [
    {
      "primitives": [
        {
          "mode": 4,
          "indices": 0,
          "attributes": {
            "POSITION": 1,
            "NORMAL": 2,
            "COLOR_0": 3
          }
        }
      ]
    }
  ],
  "nodes": [
    {
      "children": [
        1
      ]
    },
    {
      "mesh": 0
    }
  ],
  "scenes": [
    {
      "nodes": [
        0
      ]
    }
  ],
  "scene": 0
}