{
  "asset": {
    "version": "2.0",
    "generator": "COLLADA2GLTF"
  },
  "accessors": [
    {
      "bufferView": 0,
      "byteOffset": 0,
      "componentType": 5123,
      "count": 4647,
      "min": [
        0
      ],
      "max": [
        2214
      ],
      "type": "SCALAR"
    },
    {
      "bufferView": 1,
      "byteOffset": 0,
      "componentType": 5126,
      "count": 2215,
      "max": [
        455.4272766113281,
        7.5,
        366.3303527832031
      ],
      "min": [
        231.36756896972656,
        0,
        -100.0111312866211
      ],
      "type": "VEC3"
    },
    {
      "bufferView": 2,
      "byteOffset": 0,
      "componentType": 5126,
      "count": 2215,
      "max": [
        0.9999971389770508,
        1,
        0.9999977350234985
      ],
      "min": [
        -1,
        0,
        -0.9999977350234985
      ],
      "type": "VEC3"
    },
    {
      "bufferView": 3,
      "byteOffset": 0,
      "componentType": 5126,
      "count": 2215,
      "max": [
        0.999786376953125,
        1,
        1
      ],
      "min": [
        0,
        0.00003051804378628731,
        0.00004577706567943096
      ],
      "type": "VEC3"
    }
  ],
  "buffers": [
    {
      "byteLength": 9294,
      "uri": "data:application/octet-stream;base64,"
    },
    {
      "byteLength": 26580,
      "uri": "data:application/octet-stream;base64,"
    },
    {
      "byteLength": 26580,
      "uri": "data:application/octet-stream;base64,"
    },
    {
      "byteLength": 26580,
      "uri": "data:application/octet-stream;base64,"
    }
  ],
  "bufferViews": [
    {
      "buffer": 0,
      "byteOffset": 0,
      "byteLength": 9294
    },
    {
      "buffer": 1,
      "byteOffset": 0,
      "byteLength": 26580
    },
    {
      "buffer": 2,
      "byteOffset": 0,
      "byteLength": 26580
    },
    {
      "buffer": 3,
      "byteOffset": 0,
      "byteLength": 26580
    }
  ],
  "meshes": [
    {
      "primitives": [
        {
          "mode": 4,
          "indices": 0,
          "attributes": {
            "POSITION": 1,
            "NORMAL": 2,
            "COLOR_0": 3
          }
        }
      ]
    }
  ],
  "nodes": [
    {
      "children": [
        1
      ]
    },
    {
      "mesh": 0
    }
  ],
  "scenes": [
    {
      "nodes": [
        0
      ]
    }
  ],
  "scene": 0
}