{
  "asset": {
    "version": "2.0",
    "generator": "COLLADA2GLTF"
  },
  "accessors": [
    {
      "bufferView": 0,
      "byteOffset": 0,
      "componentType": 5123,
      "count": 3933,
      "min": [
        0
      ],
      "max": [
        1485
      ],
      "type": "SCALAR"
    },
    {
      "bufferView": 1,
      "byteOffset": 0,
      "componentType": 5126,
      "count": 1486,
      "max": [
        2790,
        0.0010000000474974513,
        -360
      ],
      "min": [
        2275.697509765625,
        0,
        -843.383544921875
      ],
      "type": "VEC3"
    },
    {
      "bufferView": 2,
      "byteOffset": 0,
      "componentType": 5126,
      "count": 1486,
      "max": [
        0.9999678730964661,
        1,
        0.9999110698699951
      ],
      "min": [
        -0.9999624490737915,
        0,
        -0.9999143481254578
      ],
      "type": "VEC3"
    },
    {
      "bufferView": 3,
      "byteOffset": 0,
      "componentType": 5126,
      "count": 1486,
      "max": [
        0.999786376953125,
        1,
        1
      ],
      "min": [
        0,
        0.00003051804378628731,
        0.00004577706567943096
      ],
      "type": "VEC3"
    }
  ],
  "buffers": [
    {
      "byteLength": 7866,
      "uri": "data:application/octet-stream;base64,"
    },
    {
      "byteLength": 17832,
      "uri": "data:application/octet-stream;base64,"
    },
    {
      "byteLength": 17832,
      "uri": "data:application/octet-stream;base64,"
    },
    {
      "byteLength": 17832,
      "uri": "data:application/octet-stream;base64,"
    }
  ],
  "bufferViews": [
    {
      "buffer": 0,
      "byteOffset": 0,
      "byteLength": 7866
    },
    {
      "buffer": 1,
      "byteOffset": 0,
      "byteLength": 17832
    },
    {
      "buffer": 2,
      "byteOffset": 0,
      "byteLength": 17832
    },
    {
      "buffer": 3,
      "byteOffset": 0,
      "byteLength": 17832
    }
  ],
  "meshes": [
    {
      "primitives": [
        {
          "mode": 4,
          "indices": 0,
          "attributes": {
            "POSITION": 1,
            "NORMAL": 2,
            "COLOR_0": 3
          }
        }
      ]
    }
  ],
  "nodes": [
    {
      "children": [
        1
      ]
    },
    {
      "mesh": 0
    }
  ],
  "scenes": [
    {
      "nodes": [
        0
      ]
    }
  ],
  "scene": 0
}