{
  "asset": {
    "version": "2.0",
    "generator": "COLLADA2GLTF"
  },
  "accessors": [
    {
      "bufferView": 0,
      "byteOffset": 0,
      "componentType": 5123,
      "count": 1041,
      "min": [
        0
      ],
      "max": [
        461
      ],
      "type": "SCALAR"
    },
    {
      "bufferView": 1,
      "byteOffset": 0,
      "componentType": 5126,
      "count": 462,
      "max": [
        240,
        0.0010000000474974513,
        -26.434701919555664
      ],
      "min": [
        55.36899948120117,
        0,
        -150
      ],
      "type": "VEC3"
    },
    {
      "bufferView": 2,
      "byteOffset": 0,
      "componentType": 5126,
      "count": 462,
      "max": [
        1,
        1,
        1
      ],
      "min": [
        -1,
        0,
        -1
      ],
      "type": "VEC3"
    }
  ],
  "buffers": [
    {
      "byteLength": 2082,
      "uri": "data:application/octet-stream;base64,"
    },
    {
      "byteLength": 5544,
      "uri": "data:application/octet-stream;base64,"
    },
    {
      "byteLength": 5544,
      "uri": "data:application/octet-stream;base64,"
    }
  ],
  "bufferViews": [
    {
      "buffer": 0,
      "byteOffset": 0,
      "byteLength": 2082
    },
    {
      "buffer": 1,
      "byteOffset": 0,
      "byteLength": 5544
    },
    {
      "buffer": 2,
      "byteOffset": 0,
      "byteLength": 5544
    }
  ],
  "meshes": [
    {
      "primitives": [
        {
          "mode": 4,
          "indices": 0,
          "attributes": {
            "POSITION": 1,
            "NORMAL": 2
          }
        }
      ]
    }
  ],
  "nodes": [
    {
      "children": [
        1
      ]
    },
    {
      "mesh": 0
    }
  ],
  "scenes": [
    {
      "nodes": [
        0
      ]
    }
  ],
  "scene": 0
}