{
  "asset": {
    "version": "2.0",
    "generator": "COLLADA2GLTF"
  },
  "accessors": [
    {
      "bufferView": 0,
      "byteOffset": 0,
      "componentType": 5123,
      "count": 4809,
      "min": [
        0
      ],
      "max": [
        1616
      ],
      "type": "SCALAR"
    },
    {
      "bufferView": 1,
      "byteOffset": 0,
      "componentType": 5126,
      "count": 1617,
      "max": [
        -2121.8330078125,
        0.14777499437332153,
        1848.4754638671875
      ],
      "min": [
        -2174.938232421875,
        0,
        1827.865234375
      ],
      "type": "VEC3"
    },
    {
      "bufferView": 2,
      "byteOffset": 0,
      "componentType": 5126,
      "count": 1617,
      "max": [
        0.9377452731132507,
        1,
        0.9377453923225403
      ],
      "min": [
        -0.9377452731132507,
        -0.9486833214759827,
        -0.9377453923225403
      ],
      "type": "VEC3"
    },
    {
      "bufferView": 3,
      "byteOffset": 0,
      "componentType": 5126,
      "count": 1617,
      "max": [
        0.5774929523468018,
        0.5776150226593018,
        0.5776455402374268
      ],
      "min": [
        0.07322804629802704,
        0.03309682011604309,
        0.03311207890510559
      ],
      "type": "VEC3"
    }
  ],
  "buffers": [
    {
      "byteLength": 9618,
      "uri": "data:application/octet-stream;base64,"
    },
    {
      "byteLength": 19404,
      "uri": "data:application/octet-stream;base64,"
    },
    {
      "byteLength": 19404,
      "uri": "data:application/octet-stream;base64,"
    },
    {
      "byteLength": 19404,
      "uri": "data:application/octet-stream;base64,"
    }
  ],
  "bufferViews": [
    {
      "buffer": 0,
      "byteOffset": 0,
      "byteLength": 9618
    },
    {
      "buffer": 1,
      "byteOffset": 0,
      "byteLength": 19404
    },
    {
      "buffer": 2,
      "byteOffset": 0,
      "byteLength": 19404
    },
    {
      "buffer": 3,
      "byteOffset": 0,
      "byteLength": 19404
    }
  ],
  "meshes": [
    {
      "primitives": [
        {
          "mode": 4,
          "indices": 0,
          "attributes": {
            "POSITION": 1,
            "NORMAL": 2,
            "COLOR_0": 3
          }
        }
      ]
    }
  ],
  "nodes": [
    {
      "children": [
        1
      ]
    },
    {
      "mesh": 0
    }
  ],
  "scenes": [
    {
      "nodes": [
        0
      ]
    }
  ],
  "scene": 0
}