{
  "asset": {
    "version": "2.0",
    "generator": "COLLADA2GLTF"
  },
  "accessors": [
    {
      "bufferView": 0,
      "byteOffset": 0,
      "componentType": 5123,
      "count": 717,
      "min": [
        0
      ],
      "max": [
        244
      ],
      "type": "SCALAR"
    },
    {
      "bufferView": 1,
      "byteOffset": 0,
      "componentType": 5126,
      "count": 245,
      "max": [
        6908.2939453125,
        37.025001525878906,
        9377.97265625
      ],
      "min": [
        6615.4765625,
        19.325000762939453,
        9153.8310546875
      ],
      "type": "VEC3"
    },
    {
      "bufferView": 2,
      "byteOffset": 0,
      "componentType": 5126,
      "count": 245,
      "max": [
        0.7667155861854553,
        0.7071005702018738,
        0.7927259206771851
      ],
      "min": [
        -0.7667155861854553,
        -0.7071005702018738,
        -0.7667155861854553
      ],
      "type": "VEC3"
    },
    {
      "bufferView": 3,
      "byteOffset": 0,
      "componentType": 5126,
      "count": 245,
      "max": [
        0.4480048716068268,
        0.4480048716068268,
        0.4480659067630768
      ],
      "min": [
        0,
        0,
        0
      ],
      "type": "VEC3"
    }
  ],
  "buffers": [
    {
      "byteLength": 1434,
      "uri": "data:application/octet-stream;base64,"
    },
    {
      "byteLength": 2940,
      "uri": "data:application/octet-stream;base64,"
    },
    {
      "byteLength": 2940,
      "uri": "data:application/octet-stream;base64,"
    },
    {
      "byteLength": 2940,
      "uri": "data:application/octet-stream;base64,"
    }
  ],
  "bufferViews": [
    {
      "buffer": 0,
      "byteOffset": 0,
      "byteLength": 1434
    },
    {
      "buffer": 1,
      "byteOffset": 0,
      "byteLength": 2940
    },
    {
      "buffer": 2,
      "byteOffset": 0,
      "byteLength": 2940
    },
    {
      "buffer": 3,
      "byteOffset": 0,
      "byteLength": 2940
    }
  ],
  "meshes": [
    {
      "primitives": [
        {
          "mode": 4,
          "indices": 0,
          "attributes": {
            "POSITION": 1,
            "NORMAL": 2,
            "COLOR_0": 3
          }
        }
      ]
    }
  ],
  "nodes": [
    {
      "children": [
        1
      ]
    },
    {
      "mesh": 0
    }
  ],
  "scenes": [
    {
      "nodes": [
        0
      ]
    }
  ],
  "scene": 0
}