{
  "asset": {
    "version": "2.0",
    "generator": "COLLADA2GLTF"
  },
  "accessors": [
    {
      "bufferView": 0,
      "byteOffset": 0,
      "componentType": 5123,
      "count": 1503,
      "min": [
        0
      ],
      "max": [
        734
      ],
      "type": "SCALAR"
    },
    {
      "bufferView": 1,
      "byteOffset": 0,
      "componentType": 5126,
      "count": 735,
      "max": [
        111.61199951171875,
        7.5,
        150
      ],
      "min": [
        -205.87576293945312,
        0,
        -102.9554672241211
      ],
      "type": "VEC3"
    },
    {
      "bufferView": 2,
      "byteOffset": 0,
      "componentType": 5126,
      "count": 735,
      "max": [
        0.9999988079071045,
        1,
        1
      ],
      "min": [
        -1,
        0,
        -1
      ],
      "type": "VEC3"
    },
    {
      "bufferView": 3,
      "byteOffset": 0,
      "componentType": 5126,
      "count": 735,
      "max": [
        0.999786376953125,
        1,
        0.26330968737602234
      ],
      "min": [
        0,
        0.07324330508708954,
        0.000015259021893143654
      ],
      "type": "VEC3"
    }
  ],
  "buffers": [
    {
      "byteLength": 3006,
      "uri": "data:application/octet-stream;base64,"
    },
    {
      "byteLength": 8820,
      "uri": "data:application/octet-stream;base64,"
    },
    {
      "byteLength": 8820,
      "uri": "data:application/octet-stream;base64,"
    },
    {
      "byteLength": 8820,
      "uri": "data:application/octet-stream;base64,"
    }
  ],
  "bufferViews": [
    {
      "buffer": 0,
      "byteOffset": 0,
      "byteLength": 3006
    },
    {
      "buffer": 1,
      "byteOffset": 0,
      "byteLength": 8820
    },
    {
      "buffer": 2,
      "byteOffset": 0,
      "byteLength": 8820
    },
    {
      "buffer": 3,
      "byteOffset": 0,
      "byteLength": 8820
    }
  ],
  "meshes": [
    {
      "primitives": [
        {
          "mode": 4,
          "indices": 0,
          "attributes": {
            "POSITION": 1,
            "NORMAL": 2,
            "COLOR_0": 3
          }
        }
      ]
    }
  ],
  "nodes": [
    {
      "children": [
        1
      ]
    },
    {
      "mesh": 0
    }
  ],
  "scenes": [
    {
      "nodes": [
        0
      ]
    }
  ],
  "scene": 0
}