{
  "asset": {
    "version": "2.0",
    "generator": "COLLADA2GLTF"
  },
  "accessors": [
    {
      "bufferView": 0,
      "byteOffset": 0,
      "componentType": 5123,
      "count": 573,
      "min": [
        0
      ],
      "max": [
        352
      ],
      "type": "SCALAR"
    },
    {
      "bufferView": 1,
      "byteOffset": 0,
      "componentType": 5126,
      "count": 353,
      "max": [
        -1372.3310546875,
        15,
        708.4788818359375
      ],
      "min": [
        -1441.2388916015625,
        0,
        639.2831420898438
      ],
      "type": "VEC3"
    },
    {
      "bufferView": 2,
      "byteOffset": 0,
      "componentType": 5126,
      "count": 353,
      "max": [
        0.9040184617042542,
        1,
        0.9243630766868591
      ],
      "min": [
        -0.891502857208252,
        0,
        -0.9020530581474304
      ],
      "type": "VEC3"
    },
    {
      "bufferView": 3,
      "byteOffset": 0,
      "componentType": 5126,
      "count": 353,
      "max": [
        0.999786376953125,
        0.7875181436538696,
        0.26330968737602234
      ],
      "min": [
        0.6036774516105652,
        0.00003051804378628731,
        0
      ],
      "type": "VEC3"
    }
  ],
  "buffers": [
    {
      "byteLength": 1146,
      "uri": "data:application/octet-stream;base64,"
    },
    {
      "byteLength": 4236,
      "uri": "data:application/octet-stream;base64,"
    },
    {
      "byteLength": 4236,
      "uri": "data:application/octet-stream;base64,"
    },
    {
      "byteLength": 4236,
      "uri": "data:application/octet-stream;base64,"
    }
  ],
  "bufferViews": [
    {
      "buffer": 0,
      "byteOffset": 0,
      "byteLength": 1146
    },
    {
      "buffer": 1,
      "byteOffset": 0,
      "byteLength": 4236
    },
    {
      "buffer": 2,
      "byteOffset": 0,
      "byteLength": 4236
    },
    {
      "buffer": 3,
      "byteOffset": 0,
      "byteLength": 4236
    }
  ],
  "meshes": [
    {
      "primitives": [
        {
          "mode": 4,
          "indices": 0,
          "attributes": {
            "POSITION": 1,
            "NORMAL": 2,
            "COLOR_0": 3
          }
        }
      ]
    }
  ],
  "nodes": [
    {
      "children": [
        1
      ]
    },
    {
      "mesh": 0
    }
  ],
  "scenes": [
    {
      "nodes": [
        0
      ]
    }
  ],
  "scene": 0
}