{
  "asset": {
    "version": "2.0",
    "generator": "COLLADA2GLTF"
  },
  "accessors": [
    {
      "bufferView": 0,
      "byteOffset": 0,
      "componentType": 5123,
      "count": 345,
      "min": [
        0
      ],
      "max": [
        180
      ],
      "type": "SCALAR"
    },
    {
      "bufferView": 1,
      "byteOffset": 0,
      "componentType": 5126,
      "count": 181,
      "max": [
        -1698.220947265625,
        7.5,
        -791.0999755859375
      ],
      "min": [
        -1754.6929931640625,
        0,
        -970.5670166015625
      ],
      "type": "VEC3"
    },
    {
      "bufferView": 2,
      "byteOffset": 0,
      "componentType": 5126,
      "count": 181,
      "max": [
        0.9986824989318848,
        1,
        0.9989444613456726
      ],
      "min": [
        -0.9983679056167603,
        0,
        -0.9997665882110596
      ],
      "type": "VEC3"
    },
    {
      "bufferView": 3,
      "byteOffset": 0,
      "componentType": 5126,
      "count": 181,
      "max": [
        0.999786376953125,
        0.7875181436538696,
        0.26330968737602234
      ],
      "min": [
        0.6036774516105652,
        0.00003051804378628731,
        0
      ],
      "type": "VEC3"
    }
  ],
  "buffers": [
    {
      "byteLength": 690,
      "uri": "data:application/octet-stream;base64,"
    },
    {
      "byteLength": 2172,
      "uri": "data:application/octet-stream;base64,"
    },
    {
      "byteLength": 2172,
      "uri": "data:application/octet-stream;base64,"
    },
    {
      "byteLength": 2172,
      "uri": "data:application/octet-stream;base64,"
    }
  ],
  "bufferViews": [
    {
      "buffer": 0,
      "byteOffset": 0,
      "byteLength": 690
    },
    {
      "buffer": 1,
      "byteOffset": 0,
      "byteLength": 2172
    },
    {
      "buffer": 2,
      "byteOffset": 0,
      "byteLength": 2172
    },
    {
      "buffer": 3,
      "byteOffset": 0,
      "byteLength": 2172
    }
  ],
  "meshes": [
    {
      "primitives": [
        {
          "mode": 4,
          "indices": 0,
          "attributes": {
            "POSITION": 1,
            "NORMAL": 2,
            "COLOR_0": 3
          }
        }
      ]
    }
  ],
  "nodes": [
    {
      "children": [
        1
      ]
    },
    {
      "mesh": 0
    }
  ],
  "scenes": [
    {
      "nodes": [
        0
      ]
    }
  ],
  "scene": 0
}