{
  "asset": {
    "version": "2.0",
    "generator": "COLLADA2GLTF"
  },
  "accessors": [
    {
      "bufferView": 0,
      "byteOffset": 0,
      "componentType": 5123,
      "count": 705,
      "min": [
        0
      ],
      "max": [
        440
      ],
      "type": "SCALAR"
    },
    {
      "bufferView": 1,
      "byteOffset": 0,
      "componentType": 5126,
      "count": 441,
      "max": [
        792.286865234375,
        67.5,
        103.56095886230469
      ],
      "min": [
        432.313232421875,
        0,
        -499.3207702636719
      ],
      "type": "VEC3"
    },
    {
      "bufferView": 2,
      "byteOffset": 0,
      "componentType": 5126,
      "count": 441,
      "max": [
        0.9976363778114319,
        1,
        0.9998588562011719
      ],
      "min": [
        -0.9970486760139465,
        0,
        -0.9890368580818176
      ],
      "type": "VEC3"
    },
    {
      "bufferView": 3,
      "byteOffset": 0,
      "componentType": 5126,
      "count": 441,
      "max": [
        0.999786376953125,
        0.7875181436538696,
        0.26330968737602234
      ],
      "min": [
        0.6036774516105652,
        0.00003051804378628731,
        0
      ],
      "type": "VEC3"
    }
  ],
  "buffers": [
    {
      "byteLength": 1410,
      "uri": "data:application/octet-stream;base64,"
    },
    {
      "byteLength": 5292,
      "uri": "data:application/octet-stream;base64,"
    },
    {
      "byteLength": 5292,
      "uri": "data:application/octet-stream;base64,"
    },
    {
      "byteLength": 5292,
      "uri": "data:application/octet-stream;base64,"
    }
  ],
  "bufferViews": [
    {
      "buffer": 0,
      "byteOffset": 0,
      "byteLength": 1410
    },
    {
      "buffer": 1,
      "byteOffset": 0,
      "byteLength": 5292
    },
    {
      "buffer": 2,
      "byteOffset": 0,
      "byteLength": 5292
    },
    {
      "buffer": 3,
      "byteOffset": 0,
      "byteLength": 5292
    }
  ],
  "meshes": [
    {
      "primitives": [
        {
          "mode": 4,
          "indices": 0,
          "attributes": {
            "POSITION": 1,
            "NORMAL": 2,
            "COLOR_0": 3
          }
        }
      ]
    }
  ],
  "nodes": [
    {
      "children": [
        1
      ]
    },
    {
      "mesh": 0
    }
  ],
  "scenes": [
    {
      "nodes": [
        0
      ]
    }
  ],
  "scene": 0
}