{
  "asset": {
    "version": "2.0",
    "generator": "COLLADA2GLTF"
  },
  "accessors": [
    {
      "bufferView": 0,
      "byteOffset": 0,
      "componentType": 5123,
      "count": 1011,
      "min": [
        0
      ],
      "max": [
        539
      ],
      "type": "SCALAR"
    },
    {
      "bufferView": 1,
      "byteOffset": 0,
      "componentType": 5126,
      "count": 540,
      "max": [
        577.6973876953125,
        0.0010000000474974513,
        -109.98470306396484
      ],
      "min": [
        379.17144775390625,
        -0.20000000298023224,
        -341.5107727050781
      ],
      "type": "VEC3"
    },
    {
      "bufferView": 2,
      "byteOffset": 0,
      "componentType": 5126,
      "count": 540,
      "max": [
        0.9257493615150452,
        1,
        0.9258280992507935
      ],
      "min": [
        -0.9253165125846863,
        -1,
        -0.9255347847938538
      ],
      "type": "VEC3"
    },
    {
      "bufferView": 3,
      "byteOffset": 0,
      "componentType": 5126,
      "count": 540,
      "max": [
        0.999786376953125,
        1,
        0.7875028848648071
      ],
      "min": [
        0.000015259021893143654,
        0.07324330508708954,
        0.00004577706567943096
      ],
      "type": "VEC3"
    }
  ],
  "buffers": [
    {
      "byteLength": 2022,
      "uri": "data:application/octet-stream;base64,"
    },
    {
      "byteLength": 6480,
      "uri": "data:application/octet-stream;base64,"
    },
    {
      "byteLength": 6480,
      "uri": "data:application/octet-stream;base64,"
    },
    {
      "byteLength": 6480,
      "uri": "data:application/octet-stream;base64,"
    }
  ],
  "bufferViews": [
    {
      "buffer": 0,
      "byteOffset": 0,
      "byteLength": 2022
    },
    {
      "buffer": 1,
      "byteOffset": 0,
      "byteLength": 6480
    },
    {
      "buffer": 2,
      "byteOffset": 0,
      "byteLength": 6480
    },
    {
      "buffer": 3,
      "byteOffset": 0,
      "byteLength": 6480
    }
  ],
  "meshes": [
    {
      "primitives": [
        {
          "mode": 4,
          "indices": 0,
          "attributes": {
            "POSITION": 1,
            "NORMAL": 2,
            "COLOR_0": 3
          }
        }
      ]
    }
  ],
  "nodes": [
    {
      "children": [
        1
      ]
    },
    {
      "mesh": 0
    }
  ],
  "scenes": [
    {
      "nodes": [
        0
      ]
    }
  ],
  "scene": 0
}