{
  "asset": {
    "version": "2.0",
    "generator": "COLLADA2GLTF"
  },
  "accessors": [
    {
      "bufferView": 0,
      "byteOffset": 0,
      "componentType": 5123,
      "count": 123,
      "min": [
        0
      ],
      "max": [
        98
      ],
      "type": "SCALAR"
    },
    {
      "bufferView": 1,
      "byteOffset": 0,
      "componentType": 5126,
      "count": 99,
      "max": [
        -2010,
        0,
        152.88795471191406
      ],
      "min": [
        -2076.115966796875,
        -0.20000000298023224,
        30.29339599609375
      ],
      "type": "VEC3"
    },
    {
      "bufferView": 2,
      "byteOffset": 0,
      "componentType": 5126,
      "count": 99,
      "max": [
        0.834746241569519,
        1,
        0.834746241569519
      ],
      "min": [
        -0.834746241569519,
        0,
        -0.6003966927528381
      ],
      "type": "VEC3"
    },
    {
      "bufferView": 3,
      "byteOffset": 0,
      "componentType": 5126,
      "count": 99,
      "max": [
        0.26324865221977234,
        1,
        0.26329442858695984
      ],
      "min": [
        0.000015259021893143654,
        0.07324330508708954,
        0.00004577706567943096
      ],
      "type": "VEC3"
    }
  ],
  "buffers": [
    {
      "byteLength": 246,
      "uri": "data:application/octet-stream;base64,"
    },
    {
      "byteLength": 1188,
      "uri": "data:application/octet-stream;base64,"
    },
    {
      "byteLength": 1188,
      "uri": "data:application/octet-stream;base64,"
    },
    {
      "byteLength": 1188,
      "uri": "data:application/octet-stream;base64,"
    }
  ],
  "bufferViews": [
    {
      "buffer": 0,
      "byteOffset": 0,
      "byteLength": 246
    },
    {
      "buffer": 1,
      "byteOffset": 0,
      "byteLength": 1188
    },
    {
      "buffer": 2,
      "byteOffset": 0,
      "byteLength": 1188
    },
    {
      "buffer": 3,
      "byteOffset": 0,
      "byteLength": 1188
    }
  ],
  "meshes": [
    {
      "primitives": [
        {
          "mode": 4,
          "indices": 0,
          "attributes": {
            "POSITION": 1,
            "NORMAL": 2,
            "COLOR_0": 3
          }
        }
      ]
    }
  ],
  "nodes": [
    {
      "children": [
        1
      ]
    },
    {
      "mesh": 0
    }
  ],
  "scenes": [
    {
      "nodes": [
        0
      ]
    }
  ],
  "scene": 0
}