{
  "asset": {
    "version": "2.0",
    "generator": "COLLADA2GLTF"
  },
  "accessors": [
    {
      "bufferView": 0,
      "byteOffset": 0,
      "componentType": 5123,
      "count": 4581,
      "min": [
        0
      ],
      "max": [
        1588
      ],
      "type": "SCALAR"
    },
    {
      "bufferView": 1,
      "byteOffset": 0,
      "componentType": 5126,
      "count": 1589,
      "max": [
        5242.6240234375,
        0.0010000000474974513,
        1180.1669921875
      ],
      "min": [
        4044.360107421875,
        -3,
        -814.6669921875
      ],
      "type": "VEC3"
    },
    {
      "bufferView": 2,
      "byteOffset": 0,
      "componentType": 5126,
      "count": 1589,
      "max": [
        0.9579325318336487,
        1,
        0.9579325318336487
      ],
      "min": [
        -0.9579325318336487,
        -1,
        -0.9579330682754517
      ],
      "type": "VEC3"
    },
    {
      "bufferView": 3,
      "byteOffset": 0,
      "componentType": 5126,
      "count": 1589,
      "max": [
        0.7872740030288696,
        0.7875028848648071,
        1
      ],
      "min": [
        0,
        0.00003051804378628731,
        0.07325856387615204
      ],
      "type": "VEC3"
    }
  ],
  "buffers": [
    {
      "byteLength": 9162,
      "uri": "data:application/octet-stream;base64,"
    },
    {
      "byteLength": 19068,
      "uri": "data:application/octet-stream;base64,"
    },
    {
      "byteLength": 19068,
      "uri": "data:application/octet-stream;base64,"
    },
    {
      "byteLength": 19068,
      "uri": "data:application/octet-stream;base64,"
    }
  ],
  "bufferViews": [
    {
      "buffer": 0,
      "byteOffset": 0,
      "byteLength": 9162
    },
    {
      "buffer": 1,
      "byteOffset": 0,
      "byteLength": 19068
    },
    {
      "buffer": 2,
      "byteOffset": 0,
      "byteLength": 19068
    },
    {
      "buffer": 3,
      "byteOffset": 0,
      "byteLength": 19068
    }
  ],
  "meshes": [
    {
      "primitives": [
        {
          "mode": 4,
          "indices": 0,
          "attributes": {
            "POSITION": 1,
            "NORMAL": 2,
            "COLOR_0": 3
          }
        }
      ]
    }
  ],
  "nodes": [
    {
      "children": [
        1
      ]
    },
    {
      "mesh": 0
    }
  ],
  "scenes": [
    {
      "nodes": [
        0
      ]
    }
  ],
  "scene": 0
}