{
  "asset": {
    "version": "2.0",
    "generator": "COLLADA2GLTF"
  },
  "accessors": [
    {
      "bufferView": 0,
      "byteOffset": 0,
      "componentType": 5123,
      "count": 270,
      "min": [
        0
      ],
      "max": [
        129
      ],
      "type": "SCALAR"
    },
    {
      "bufferView": 1,
      "byteOffset": 0,
      "componentType": 5126,
      "count": 130,
      "max": [
        -2251.28515625,
        0.14777499437332153,
        1797.927001953125
      ],
      "min": [
        -2309.78125,
        0,
        1768.1748046875
      ],
      "type": "VEC3"
    },
    {
      "bufferView": 2,
      "byteOffset": 0,
      "componentType": 5126,
      "count": 130,
      "max": [
        0.8917480707168579,
        1,
        0.8917437791824341
      ],
      "min": [
        -0.8917480707168579,
        -0.9486833214759827,
        -0.8917480707168579
      ],
      "type": "VEC3"
    },
    {
      "bufferView": 3,
      "byteOffset": 0,
      "componentType": 5126,
      "count": 130,
      "max": [
        0.5774929523468018,
        0.5776150226593018,
        0.5776455402374268
      ],
      "min": [
        0.07322804629802704,
        0.03309682011604309,
        0.03311207890510559
      ],
      "type": "VEC3"
    }
  ],
  "buffers": [
    {
      "byteLength": 540,
      "uri": "data:application/octet-stream;base64,"
    },
    {
      "byteLength": 1560,
      "uri": "data:application/octet-stream;base64,"
    },
    {
      "byteLength": 1560,
      "uri": "data:application/octet-stream;base64,"
    },
    {
      "byteLength": 1560,
      "uri": "data:application/octet-stream;base64,"
    }
  ],
  "bufferViews": [
    {
      "buffer": 0,
      "byteOffset": 0,
      "byteLength": 540
    },
    {
      "buffer": 1,
      "byteOffset": 0,
      "byteLength": 1560
    },
    {
      "buffer": 2,
      "byteOffset": 0,
      "byteLength": 1560
    },
    {
      "buffer": 3,
      "byteOffset": 0,
      "byteLength": 1560
    }
  ],
  "meshes": [
    {
      "primitives": [
        {
          "mode": 4,
          "indices": 0,
          "attributes": {
            "POSITION": 1,
            "NORMAL": 2,
            "COLOR_0": 3
          }
        }
      ]
    }
  ],
  "nodes": [
    {
      "children": [
        1
      ]
    },
    {
      "mesh": 0
    }
  ],
  "scenes": [
    {
      "nodes": [
        0
      ]
    }
  ],
  "scene": 0
}