{
  "asset": {
    "version": "2.0",
    "generator": "COLLADA2GLTF"
  },
  "accessors": [
    {
      "bufferView": 0,
      "byteOffset": 0,
      "componentType": 5123,
      "count": 4743,
      "min": [
        0
      ],
      "max": [
        1653
      ],
      "type": "SCALAR"
    },
    {
      "bufferView": 1,
      "byteOffset": 0,
      "componentType": 5126,
      "count": 1654,
      "max": [
        -2089.43310546875,
        17.165000915527344,
        4250.9990234375
      ],
      "min": [
        -2372.175537109375,
        12,
        3910.917236328125
      ],
      "type": "VEC3"
    },
    {
      "bufferView": 2,
      "byteOffset": 0,
      "componentType": 5126,
      "count": 1654,
      "max": [
        0.9603802561759949,
        0.7071006298065186,
        0.9603802561759949
      ],
      "min": [
        -0.9603802561759949,
        -0.7071006298065186,
        -0.9603802561759949
      ],
      "type": "VEC3"
    },
    {
      "bufferView": 3,
      "byteOffset": 0,
      "componentType": 5126,
      "count": 1654,
      "max": [
        0.4480048716068268,
        0.4480048716068268,
        0.4480659067630768
      ],
      "min": [
        0,
        0,
        0
      ],
      "type": "VEC3"
    }
  ],
  "buffers": [
    {
      "byteLength": 9486,
      "uri": "data:application/octet-stream;base64,"
    },
    {
      "byteLength": 19848,
      "uri": "data:application/octet-stream;base64,"
    },
    {
      "byteLength": 19848,
      "uri": "data:application/octet-stream;base64,"
    },
    {
      "byteLength": 19848,
      "uri": "data:application/octet-stream;base64,"
    }
  ],
  "bufferViews": [
    {
      "buffer": 0,
      "byteOffset": 0,
      "byteLength": 9486
    },
    {
      "buffer": 1,
      "byteOffset": 0,
      "byteLength": 19848
    },
    {
      "buffer": 2,
      "byteOffset": 0,
      "byteLength": 19848
    },
    {
      "buffer": 3,
      "byteOffset": 0,
      "byteLength": 19848
    }
  ],
  "meshes": [
    {
      "primitives": [
        {
          "mode": 4,
          "indices": 0,
          "attributes": {
            "POSITION": 1,
            "NORMAL": 2,
            "COLOR_0": 3
          }
        }
      ]
    }
  ],
  "nodes": [
    {
      "children": [
        1
      ]
    },
    {
      "mesh": 0
    }
  ],
  "scenes": [
    {
      "nodes": [
        0
      ]
    }
  ],
  "scene": 0
}