{
  "asset": {
    "version": "2.0",
    "generator": "COLLADA2GLTF"
  },
  "accessors": [
    {
      "bufferView": 0,
      "byteOffset": 0,
      "componentType": 5123,
      "count": 3144,
      "min": [
        0
      ],
      "max": [
        1188
      ],
      "type": "SCALAR"
    },
    {
      "bufferView": 1,
      "byteOffset": 0,
      "componentType": 5126,
      "count": 1189,
      "max": [
        3730.64111328125,
        2.299999952316284,
        1781.406005859375
      ],
      "min": [
        3328.454833984375,
        0,
        1201.4979248046875
      ],
      "type": "VEC3"
    },
    {
      "bufferView": 2,
      "byteOffset": 0,
      "componentType": 5126,
      "count": 1189,
      "max": [
        0.9898214340209961,
        1,
        1
      ],
      "min": [
        -0.9898214340209961,
        -1,
        -0.9594929814338684
      ],
      "type": "VEC3"
    },
    {
      "bufferView": 3,
      "byteOffset": 0,
      "componentType": 5126,
      "count": 1189,
      "max": [
        0.9549705982208252,
        1,
        1
      ],
      "min": [
        0,
        0.00003051804378628731,
        0.000015259021893143654
      ],
      "type": "VEC3"
    }
  ],
  "buffers": [
    {
      "byteLength": 6288,
      "uri": "data:application/octet-stream;base64,"
    },
    {
      "byteLength": 14268,
      "uri": "data:application/octet-stream;base64,"
    },
    {
      "byteLength": 14268,
      "uri": "data:application/octet-stream;base64,"
    },
    {
      "byteLength": 14268,
      "uri": "data:application/octet-stream;base64,"
    }
  ],
  "bufferViews": [
    {
      "buffer": 0,
      "byteOffset": 0,
      "byteLength": 6288
    },
    {
      "buffer": 1,
      "byteOffset": 0,
      "byteLength": 14268
    },
    {
      "buffer": 2,
      "byteOffset": 0,
      "byteLength": 14268
    },
    {
      "buffer": 3,
      "byteOffset": 0,
      "byteLength": 14268
    }
  ],
  "meshes": [
    {
      "primitives": [
        {
          "mode": 4,
          "indices": 0,
          "attributes": {
            "POSITION": 1,
            "NORMAL": 2,
            "COLOR_0": 3
          }
        }
      ]
    }
  ],
  "nodes": [
    {
      "children": [
        1
      ]
    },
    {
      "mesh": 0
    }
  ],
  "scenes": [
    {
      "nodes": [
        0
      ]
    }
  ],
  "scene": 0
}