{
  "asset": {
    "version": "2.0",
    "generator": "COLLADA2GLTF"
  },
  "accessors": [
    {
      "bufferView": 0,
      "byteOffset": 0,
      "componentType": 5123,
      "count": 1377,
      "min": [
        0
      ],
      "max": [
        573
      ],
      "type": "SCALAR"
    },
    {
      "bufferView": 1,
      "byteOffset": 0,
      "componentType": 5126,
      "count": 574,
      "max": [
        -1329.489013671875,
        0.0010000000474974513,
        -488.384033203125
      ],
      "min": [
        -1486.3116455078125,
        0,
        -660
      ],
      "type": "VEC3"
    },
    {
      "bufferView": 2,
      "byteOffset": 0,
      "componentType": 5126,
      "count": 574,
      "max": [
        0.7691800594329834,
        1,
        0
      ],
      "min": [
        -0.6389727592468262,
        0,
        -0.7692293524742126
      ],
      "type": "VEC3"
    },
    {
      "bufferView": 3,
      "byteOffset": 0,
      "componentType": 5126,
      "count": 574,
      "max": [
        0.999786376953125,
        1,
        0.7875028848648071
      ],
      "min": [
        0.000015259021893143654,
        0.07324330508708954,
        0.00004577706567943096
      ],
      "type": "VEC3"
    }
  ],
  "buffers": [
    {
      "byteLength": 2754,
      "uri": "data:application/octet-stream;base64,"
    },
    {
      "byteLength": 6888,
      "uri": "data:application/octet-stream;base64,"
    },
    {
      "byteLength": 6888,
      "uri": "data:application/octet-stream;base64,"
    },
    {
      "byteLength": 6888,
      "uri": "data:application/octet-stream;base64,"
    }
  ],
  "bufferViews": [
    {
      "buffer": 0,
      "byteOffset": 0,
      "byteLength": 2754
    },
    {
      "buffer": 1,
      "byteOffset": 0,
      "byteLength": 6888
    },
    {
      "buffer": 2,
      "byteOffset": 0,
      "byteLength": 6888
    },
    {
      "buffer": 3,
      "byteOffset": 0,
      "byteLength": 6888
    }
  ],
  "meshes": [
    {
      "primitives": [
        {
          "mode": 4,
          "indices": 0,
          "attributes": {
            "POSITION": 1,
            "NORMAL": 2,
            "COLOR_0": 3
          }
        }
      ]
    }
  ],
  "nodes": [
    {
      "children": [
        1
      ]
    },
    {
      "mesh": 0
    }
  ],
  "scenes": [
    {
      "nodes": [
        0
      ]
    }
  ],
  "scene": 0
}