{
  "asset": {
    "version": "2.0",
    "generator": "COLLADA2GLTF"
  },
  "accessors": [
    {
      "bufferView": 0,
      "byteOffset": 0,
      "componentType": 5123,
      "count": 225,
      "min": [
        0
      ],
      "max": [
        110
      ],
      "type": "SCALAR"
    },
    {
      "bufferView": 1,
      "byteOffset": 0,
      "componentType": 5126,
      "count": 111,
      "max": [
        -649.6618041992188,
        4.5,
        -1071.43701171875
      ],
      "min": [
        -752.9119873046875,
        -0.5,
        -1136.313232421875
      ],
      "type": "VEC3"
    },
    {
      "bufferView": 2,
      "byteOffset": 0,
      "componentType": 5126,
      "count": 111,
      "max": [
        0.9898214340209961,
        1,
        1
      ],
      "min": [
        -0.9898214340209961,
        -1,
        -0.9594929814338684
      ],
      "type": "VEC3"
    },
    {
      "bufferView": 3,
      "byteOffset": 0,
      "componentType": 5126,
      "count": 111,
      "max": [
        0.9549705982208252,
        0.7874418497085571,
        0.5776455402374268
      ],
      "min": [
        0.4480048716068268,
        0.4480048716068268,
        0.003997863736003637
      ],
      "type": "VEC3"
    }
  ],
  "buffers": [
    {
      "byteLength": 450,
      "uri": "data:application/octet-stream;base64,"
    },
    {
      "byteLength": 1332,
      "uri": "data:application/octet-stream;base64,"
    },
    {
      "byteLength": 1332,
      "uri": "data:application/octet-stream;base64,"
    },
    {
      "byteLength": 1332,
      "uri": "data:application/octet-stream;base64,"
    }
  ],
  "bufferViews": [
    {
      "buffer": 0,
      "byteOffset": 0,
      "byteLength": 450
    },
    {
      "buffer": 1,
      "byteOffset": 0,
      "byteLength": 1332
    },
    {
      "buffer": 2,
      "byteOffset": 0,
      "byteLength": 1332
    },
    {
      "buffer": 3,
      "byteOffset": 0,
      "byteLength": 1332
    }
  ],
  "meshes": [
    {
      "primitives": [
        {
          "mode": 4,
          "indices": 0,
          "attributes": {
            "POSITION": 1,
            "NORMAL": 2,
            "COLOR_0": 3
          }
        }
      ]
    }
  ],
  "nodes": [
    {
      "children": [
        1
      ]
    },
    {
      "mesh": 0
    }
  ],
  "scenes": [
    {
      "nodes": [
        0
      ]
    }
  ],
  "scene": 0
}