{
  "asset": {
    "version": "2.0",
    "generator": "COLLADA2GLTF"
  },
  "accessors": [
    {
      "bufferView": 0,
      "byteOffset": 0,
      "componentType": 5123,
      "count": 639,
      "min": [
        0
      ],
      "max": [
        218
      ],
      "type": "SCALAR"
    },
    {
      "bufferView": 1,
      "byteOffset": 0,
      "componentType": 5126,
      "count": 219,
      "max": [
        1475.3787841796875,
        9.5,
        5651.634765625
      ],
      "min": [
        635.4568481445312,
        -0.5,
        5311.15185546875
      ],
      "type": "VEC3"
    },
    {
      "bufferView": 2,
      "byteOffset": 0,
      "componentType": 5126,
      "count": 219,
      "max": [
        0.8822645545005798,
        -0.04440061375498772,
        0.8822645545005798
      ],
      "min": [
        -0.9290713667869568,
        -0.3162277638912201,
        -0.8822645545005798
      ],
      "type": "VEC3"
    },
    {
      "bufferView": 3,
      "byteOffset": 0,
      "componentType": 5126,
      "count": 219,
      "max": [
        0.4480048716068268,
        0.4480048716068268,
        0.4480659067630768
      ],
      "min": [
        0.4480048716068268,
        0.4480048716068268,
        0.4480659067630768
      ],
      "type": "VEC3"
    }
  ],
  "buffers": [
    {
      "byteLength": 1278,
      "uri": "data:application/octet-stream;base64,"
    },
    {
      "byteLength": 2628,
      "uri": "data:application/octet-stream;base64,"
    },
    {
      "byteLength": 2628,
      "uri": "data:application/octet-stream;base64,"
    },
    {
      "byteLength": 2628,
      "uri": "data:application/octet-stream;base64,"
    }
  ],
  "bufferViews": [
    {
      "buffer": 0,
      "byteOffset": 0,
      "byteLength": 1278
    },
    {
      "buffer": 1,
      "byteOffset": 0,
      "byteLength": 2628
    },
    {
      "buffer": 2,
      "byteOffset": 0,
      "byteLength": 2628
    },
    {
      "buffer": 3,
      "byteOffset": 0,
      "byteLength": 2628
    }
  ],
  "meshes": [
    {
      "primitives": [
        {
          "mode": 4,
          "indices": 0,
          "attributes": {
            "POSITION": 1,
            "NORMAL": 2,
            "COLOR_0": 3
          }
        }
      ]
    }
  ],
  "nodes": [
    {
      "children": [
        1
      ]
    },
    {
      "mesh": 0
    }
  ],
  "scenes": [
    {
      "nodes": [
        0
      ]
    }
  ],
  "scene": 0
}