{
  "asset": {
    "version": "2.0",
    "generator": "COLLADA2GLTF"
  },
  "accessors": [
    {
      "bufferView": 0,
      "byteOffset": 0,
      "componentType": 5123,
      "count": 3477,
      "min": [
        0
      ],
      "max": [
        1185
      ],
      "type": "SCALAR"
    },
    {
      "bufferView": 1,
      "byteOffset": 0,
      "componentType": 5126,
      "count": 1186,
      "max": [
        -3207.44189453125,
        0.06400000303983688,
        1185.5477294921875
      ],
      "min": [
        -3496.110595703125,
        0,
        1070.06005859375
      ],
      "type": "VEC3"
    },
    {
      "bufferView": 2,
      "byteOffset": 0,
      "componentType": 5126,
      "count": 1186,
      "max": [
        0.9282659888267517,
        1,
        0.9282659888267517
      ],
      "min": [
        -0.9282659888267517,
        0,
        -0.9282659888267517
      ],
      "type": "VEC3"
    },
    {
      "bufferView": 3,
      "byteOffset": 0,
      "componentType": 5126,
      "count": 1186,
      "max": [
        0.5774929523468018,
        0.5776150226593018,
        0.5776455402374268
      ],
      "min": [
        0.07322804629802704,
        0.03309682011604309,
        0.03311207890510559
      ],
      "type": "VEC3"
    }
  ],
  "buffers": [
    {
      "byteLength": 6954,
      "uri": "data:application/octet-stream;base64,"
    },
    {
      "byteLength": 14232,
      "uri": "data:application/octet-stream;base64,"
    },
    {
      "byteLength": 14232,
      "uri": "data:application/octet-stream;base64,"
    },
    {
      "byteLength": 14232,
      "uri": "data:application/octet-stream;base64,"
    }
  ],
  "bufferViews": [
    {
      "buffer": 0,
      "byteOffset": 0,
      "byteLength": 6954
    },
    {
      "buffer": 1,
      "byteOffset": 0,
      "byteLength": 14232
    },
    {
      "buffer": 2,
      "byteOffset": 0,
      "byteLength": 14232
    },
    {
      "buffer": 3,
      "byteOffset": 0,
      "byteLength": 14232
    }
  ],
  "meshes": [
    {
      "primitives": [
        {
          "mode": 4,
          "indices": 0,
          "attributes": {
            "POSITION": 1,
            "NORMAL": 2,
            "COLOR_0": 3
          }
        }
      ]
    }
  ],
  "nodes": [
    {
      "children": [
        1
      ]
    },
    {
      "mesh": 0
    }
  ],
  "scenes": [
    {
      "nodes": [
        0
      ]
    }
  ],
  "scene": 0
}