{
  "asset": {
    "version": "2.0",
    "generator": "COLLADA2GLTF"
  },
  "accessors": [
    {
      "bufferView": 0,
      "byteOffset": 0,
      "componentType": 5123,
      "count": 213,
      "min": [
        0
      ],
      "max": [
        118
      ],
      "type": "SCALAR"
    },
    {
      "bufferView": 1,
      "byteOffset": 0,
      "componentType": 5126,
      "count": 119,
      "max": [
        -779.0250244140625,
        7.5,
        365.614013671875
      ],
      "min": [
        -870.9869995117188,
        7.5,
        -219.81300354003906
      ],
      "type": "VEC3"
    },
    {
      "bufferView": 2,
      "byteOffset": 0,
      "componentType": 5126,
      "count": 119,
      "max": [
        0.8270400762557983,
        1,
        0.8277897834777832
      ],
      "min": [
        -0.963967502117157,
        0,
        -0.8285492062568665
      ],
      "type": "VEC3"
    },
    {
      "bufferView": 3,
      "byteOffset": 0,
      "componentType": 5126,
      "count": 119,
      "max": [
        0.999786376953125,
        0.7875181436538696,
        0.26330968737602234
      ],
      "min": [
        0.6036774516105652,
        0.00003051804378628731,
        0
      ],
      "type": "VEC3"
    }
  ],
  "buffers": [
    {
      "byteLength": 426,
      "uri": "data:application/octet-stream;base64,"
    },
    {
      "byteLength": 1428,
      "uri": "data:application/octet-stream;base64,"
    },
    {
      "byteLength": 1428,
      "uri": "data:application/octet-stream;base64,"
    },
    {
      "byteLength": 1428,
      "uri": "data:application/octet-stream;base64,"
    }
  ],
  "bufferViews": [
    {
      "buffer": 0,
      "byteOffset": 0,
      "byteLength": 426
    },
    {
      "buffer": 1,
      "byteOffset": 0,
      "byteLength": 1428
    },
    {
      "buffer": 2,
      "byteOffset": 0,
      "byteLength": 1428
    },
    {
      "buffer": 3,
      "byteOffset": 0,
      "byteLength": 1428
    }
  ],
  "meshes": [
    {
      "primitives": [
        {
          "mode": 4,
          "indices": 0,
          "attributes": {
            "POSITION": 1,
            "NORMAL": 2,
            "COLOR_0": 3
          }
        }
      ]
    }
  ],
  "nodes": [
    {
      "children": [
        1
      ]
    },
    {
      "mesh": 0
    }
  ],
  "scenes": [
    {
      "nodes": [
        0
      ]
    }
  ],
  "scene": 0
}