{
  "asset": {
    "version": "2.0",
    "generator": "COLLADA2GLTF"
  },
  "accessors": [
    {
      "bufferView": 0,
      "byteOffset": 0,
      "componentType": 5123,
      "count": 1122,
      "min": [
        0
      ],
      "max": [
        486
      ],
      "type": "SCALAR"
    },
    {
      "bufferView": 1,
      "byteOffset": 0,
      "componentType": 5126,
      "count": 487,
      "max": [
        -4001.67578125,
        14.5,
        -101.8517837524414
      ],
      "min": [
        -4154.44189453125,
        7,
        -163.01834106445312
      ],
      "type": "VEC3"
    },
    {
      "bufferView": 2,
      "byteOffset": 0,
      "componentType": 5126,
      "count": 487,
      "max": [
        0.9184272885322571,
        0.7069621086120605,
        0.9184272885322571
      ],
      "min": [
        -0.9184272885322571,
        -0.7067050933837891,
        -0.9184272885322571
      ],
      "type": "VEC3"
    },
    {
      "bufferView": 3,
      "byteOffset": 0,
      "componentType": 5126,
      "count": 487,
      "max": [
        0.4480048716068268,
        0.4480048716068268,
        0.4480659067630768
      ],
      "min": [
        0,
        0,
        0
      ],
      "type": "VEC3"
    }
  ],
  "buffers": [
    {
      "byteLength": 2244,
      "uri": "data:application/octet-stream;base64,"
    },
    {
      "byteLength": 5844,
      "uri": "data:application/octet-stream;base64,"
    },
    {
      "byteLength": 5844,
      "uri": "data:application/octet-stream;base64,"
    },
    {
      "byteLength": 5844,
      "uri": "data:application/octet-stream;base64,"
    }
  ],
  "bufferViews": [
    {
      "buffer": 0,
      "byteOffset": 0,
      "byteLength": 2244
    },
    {
      "buffer": 1,
      "byteOffset": 0,
      "byteLength": 5844
    },
    {
      "buffer": 2,
      "byteOffset": 0,
      "byteLength": 5844
    },
    {
      "buffer": 3,
      "byteOffset": 0,
      "byteLength": 5844
    }
  ],
  "meshes": [
    {
      "primitives": [
        {
          "mode": 4,
          "indices": 0,
          "attributes": {
            "POSITION": 1,
            "NORMAL": 2,
            "COLOR_0": 3
          }
        }
      ]
    }
  ],
  "nodes": [
    {
      "children": [
        1
      ]
    },
    {
      "mesh": 0
    }
  ],
  "scenes": [
    {
      "nodes": [
        0
      ]
    }
  ],
  "scene": 0
}