{
  "asset": {
    "version": "2.0",
    "generator": "COLLADA2GLTF"
  },
  "accessors": [
    {
      "bufferView": 0,
      "byteOffset": 0,
      "componentType": 5123,
      "count": 99,
      "min": [
        0
      ],
      "max": [
        54
      ],
      "type": "SCALAR"
    },
    {
      "bufferView": 1,
      "byteOffset": 0,
      "componentType": 5126,
      "count": 55,
      "max": [
        3371.714599609375,
        2.299999952316284,
        -1596.906982421875
      ],
      "min": [
        3371.615478515625,
        0,
        -1597.0050048828125
      ],
      "type": "VEC3"
    },
    {
      "bufferView": 2,
      "byteOffset": 0,
      "componentType": 5126,
      "count": 55,
      "max": [
        0.9898214340209961,
        0,
        1
      ],
      "min": [
        -0.9898214340209961,
        0,
        -0.9594929814338684
      ],
      "type": "VEC3"
    },
    {
      "bufferView": 3,
      "byteOffset": 0,
      "componentType": 5126,
      "count": 55,
      "max": [
        0.5774929523468018,
        0.5776150226593018,
        0.5776455402374268
      ],
      "min": [
        0.5774929523468018,
        0.5776150226593018,
        0.5776455402374268
      ],
      "type": "VEC3"
    }
  ],
  "buffers": [
    {
      "byteLength": 198,
      "uri": "data:application/octet-stream;base64,"
    },
    {
      "byteLength": 660,
      "uri": "data:application/octet-stream;base64,"
    },
    {
      "byteLength": 660,
      "uri": "data:application/octet-stream;base64,"
    },
    {
      "byteLength": 660,
      "uri": "data:application/octet-stream;base64,"
    }
  ],
  "bufferViews": [
    {
      "buffer": 0,
      "byteOffset": 0,
      "byteLength": 198
    },
    {
      "buffer": 1,
      "byteOffset": 0,
      "byteLength": 660
    },
    {
      "buffer": 2,
      "byteOffset": 0,
      "byteLength": 660
    },
    {
      "buffer": 3,
      "byteOffset": 0,
      "byteLength": 660
    }
  ],
  "meshes": [
    {
      "primitives": [
        {
          "mode": 4,
          "indices": 0,
          "attributes": {
            "POSITION": 1,
            "NORMAL": 2,
            "COLOR_0": 3
          }
        }
      ]
    }
  ],
  "nodes": [
    {
      "children": [
        1
      ]
    },
    {
      "mesh": 0
    }
  ],
  "scenes": [
    {
      "nodes": [
        0
      ]
    }
  ],
  "scene": 0
}