{
  "asset": {
    "version": "2.0",
    "generator": "COLLADA2GLTF"
  },
  "accessors": [
    {
      "bufferView": 0,
      "byteOffset": 0,
      "componentType": 5123,
      "count": 4488,
      "min": [
        0
      ],
      "max": [
        1764
      ],
      "type": "SCALAR"
    },
    {
      "bufferView": 1,
      "byteOffset": 0,
      "componentType": 5126,
      "count": 1765,
      "max": [
        -1131.506591796875,
        17.165000915527344,
        -451.5977783203125
      ],
      "min": [
        -1469.390380859375,
        12,
        -740.2063598632812
      ],
      "type": "VEC3"
    },
    {
      "bufferView": 2,
      "byteOffset": 0,
      "componentType": 5126,
      "count": 1765,
      "max": [
        0.7696943283081055,
        0.707085907459259,
        0.7696943283081055
      ],
      "min": [
        -0.7696943283081055,
        -0.707085907459259,
        -0.7696943283081055
      ],
      "type": "VEC3"
    },
    {
      "bufferView": 3,
      "byteOffset": 0,
      "componentType": 5126,
      "count": 1765,
      "max": [
        0.4480048716068268,
        0.4480048716068268,
        0.4480659067630768
      ],
      "min": [
        0,
        0,
        0
      ],
      "type": "VEC3"
    }
  ],
  "buffers": [
    {
      "byteLength": 8976,
      "uri": "data:application/octet-stream;base64,"
    },
    {
      "byteLength": 21180,
      "uri": "data:application/octet-stream;base64,"
    },
    {
      "byteLength": 21180,
      "uri": "data:application/octet-stream;base64,"
    },
    {
      "byteLength": 21180,
      "uri": "data:application/octet-stream;base64,"
    }
  ],
  "bufferViews": [
    {
      "buffer": 0,
      "byteOffset": 0,
      "byteLength": 8976
    },
    {
      "buffer": 1,
      "byteOffset": 0,
      "byteLength": 21180
    },
    {
      "buffer": 2,
      "byteOffset": 0,
      "byteLength": 21180
    },
    {
      "buffer": 3,
      "byteOffset": 0,
      "byteLength": 21180
    }
  ],
  "meshes": [
    {
      "primitives": [
        {
          "mode": 4,
          "indices": 0,
          "attributes": {
            "POSITION": 1,
            "NORMAL": 2,
            "COLOR_0": 3
          }
        }
      ]
    }
  ],
  "nodes": [
    {
      "children": [
        1
      ]
    },
    {
      "mesh": 0
    }
  ],
  "scenes": [
    {
      "nodes": [
        0
      ]
    }
  ],
  "scene": 0
}