{
  "asset": {
    "version": "2.0",
    "generator": "COLLADA2GLTF"
  },
  "accessors": [
    {
      "bufferView": 0,
      "byteOffset": 0,
      "componentType": 5123,
      "count": 366,
      "min": [
        0
      ],
      "max": [
        139
      ],
      "type": "SCALAR"
    },
    {
      "bufferView": 1,
      "byteOffset": 0,
      "componentType": 5126,
      "count": 140,
      "max": [
        -1828.67041015625,
        14.5,
        4344.1396484375
      ],
      "min": [
        -2079.620361328125,
        7,
        4162.66748046875
      ],
      "type": "VEC3"
    },
    {
      "bufferView": 2,
      "byteOffset": 0,
      "componentType": 5126,
      "count": 140,
      "max": [
        0.8777109384536743,
        -0.04440061375498772,
        0.8777109384536743
      ],
      "min": [
        -0.8777109384536743,
        -0.3162277638912201,
        -0.8777109384536743
      ],
      "type": "VEC3"
    },
    {
      "bufferView": 3,
      "byteOffset": 0,
      "componentType": 5126,
      "count": 140,
      "max": [
        0.4480048716068268,
        0.4480048716068268,
        0.4480659067630768
      ],
      "min": [
        0.4480048716068268,
        0.4480048716068268,
        0.4480659067630768
      ],
      "type": "VEC3"
    }
  ],
  "buffers": [
    {
      "byteLength": 732,
      "uri": "data:application/octet-stream;base64,"
    },
    {
      "byteLength": 1680,
      "uri": "data:application/octet-stream;base64,"
    },
    {
      "byteLength": 1680,
      "uri": "data:application/octet-stream;base64,"
    },
    {
      "byteLength": 1680,
      "uri": "data:application/octet-stream;base64,"
    }
  ],
  "bufferViews": [
    {
      "buffer": 0,
      "byteOffset": 0,
      "byteLength": 732
    },
    {
      "buffer": 1,
      "byteOffset": 0,
      "byteLength": 1680
    },
    {
      "buffer": 2,
      "byteOffset": 0,
      "byteLength": 1680
    },
    {
      "buffer": 3,
      "byteOffset": 0,
      "byteLength": 1680
    }
  ],
  "meshes": [
    {
      "primitives": [
        {
          "mode": 4,
          "indices": 0,
          "attributes": {
            "POSITION": 1,
            "NORMAL": 2,
            "COLOR_0": 3
          }
        }
      ]
    }
  ],
  "nodes": [
    {
      "children": [
        1
      ]
    },
    {
      "mesh": 0
    }
  ],
  "scenes": [
    {
      "nodes": [
        0
      ]
    }
  ],
  "scene": 0
}