{
  "asset": {
    "version": "2.0",
    "generator": "COLLADA2GLTF"
  },
  "accessors": [
    {
      "bufferView": 0,
      "byteOffset": 0,
      "componentType": 5123,
      "count": 3111,
      "min": [
        0
      ],
      "max": [
        1278
      ],
      "type": "SCALAR"
    },
    {
      "bufferView": 1,
      "byteOffset": 0,
      "componentType": 5126,
      "count": 1279,
      "max": [
        -419.4909973144531,
        7.5,
        1282.6629638671875
      ],
      "min": [
        -1588.300048828125,
        0,
        -1757.071044921875
      ],
      "type": "VEC3"
    },
    {
      "bufferView": 2,
      "byteOffset": 0,
      "componentType": 5126,
      "count": 1279,
      "max": [
        0.9348746538162231,
        1,
        0.9347720146179199
      ],
      "min": [
        -0.934360146522522,
        0,
        -0.9346471428871155
      ],
      "type": "VEC3"
    },
    {
      "bufferView": 3,
      "byteOffset": 0,
      "componentType": 5126,
      "count": 1279,
      "max": [
        0.999786376953125,
        1,
        1
      ],
      "min": [
        0,
        0.00003051804378628731,
        0.00004577706567943096
      ],
      "type": "VEC3"
    }
  ],
  "buffers": [
    {
      "byteLength": 6222,
      "uri": "data:application/octet-stream;base64,"
    },
    {
      "byteLength": 15348,
      "uri": "data:application/octet-stream;base64,"
    },
    {
      "byteLength": 15348,
      "uri": "data:application/octet-stream;base64,"
    },
    {
      "byteLength": 15348,
      "uri": "data:application/octet-stream;base64,"
    }
  ],
  "bufferViews": [
    {
      "buffer": 0,
      "byteOffset": 0,
      "byteLength": 6222
    },
    {
      "buffer": 1,
      "byteOffset": 0,
      "byteLength": 15348
    },
    {
      "buffer": 2,
      "byteOffset": 0,
      "byteLength": 15348
    },
    {
      "buffer": 3,
      "byteOffset": 0,
      "byteLength": 15348
    }
  ],
  "meshes": [
    {
      "primitives": [
        {
          "mode": 4,
          "indices": 0,
          "attributes": {
            "POSITION": 1,
            "NORMAL": 2,
            "COLOR_0": 3
          }
        }
      ]
    }
  ],
  "nodes": [
    {
      "children": [
        1
      ]
    },
    {
      "mesh": 0
    }
  ],
  "scenes": [
    {
      "nodes": [
        0
      ]
    }
  ],
  "scene": 0
}