{
  "asset": {
    "version": "2.0",
    "generator": "COLLADA2GLTF"
  },
  "accessors": [
    {
      "bufferView": 0,
      "byteOffset": 0,
      "componentType": 5123,
      "count": 2943,
      "min": [
        0
      ],
      "max": [
        1154
      ],
      "type": "SCALAR"
    },
    {
      "bufferView": 1,
      "byteOffset": 0,
      "componentType": 5126,
      "count": 1155,
      "max": [
        429.2069396972656,
        0.10000000149011612,
        -51.64316177368164
      ],
      "min": [
        339.1457214355469,
        -0.20000000298023224,
        -150
      ],
      "type": "VEC3"
    },
    {
      "bufferView": 2,
      "byteOffset": 0,
      "componentType": 5126,
      "count": 1155,
      "max": [
        0.6299471259117126,
        1,
        0.9736360907554626
      ],
      "min": [
        -0.9698564410209656,
        -1,
        -0.9736360907554626
      ],
      "type": "VEC3"
    },
    {
      "bufferView": 3,
      "byteOffset": 0,
      "componentType": 5126,
      "count": 1155,
      "max": [
        0.7872740030288696,
        1,
        0.7875028848648071
      ],
      "min": [
        0,
        0.07324330508708954,
        0.000015259021893143654
      ],
      "type": "VEC3"
    }
  ],
  "buffers": [
    {
      "byteLength": 5886,
      "uri": "data:application/octet-stream;base64,"
    },
    {
      "byteLength": 13860,
      "uri": "data:application/octet-stream;base64,"
    },
    {
      "byteLength": 13860,
      "uri": "data:application/octet-stream;base64,"
    },
    {
      "byteLength": 13860,
      "uri": "data:application/octet-stream;base64,"
    }
  ],
  "bufferViews": [
    {
      "buffer": 0,
      "byteOffset": 0,
      "byteLength": 5886
    },
    {
      "buffer": 1,
      "byteOffset": 0,
      "byteLength": 13860
    },
    {
      "buffer": 2,
      "byteOffset": 0,
      "byteLength": 13860
    },
    {
      "buffer": 3,
      "byteOffset": 0,
      "byteLength": 13860
    }
  ],
  "meshes": [
    {
      "primitives": [
        {
          "mode": 4,
          "indices": 0,
          "attributes": {
            "POSITION": 1,
            "NORMAL": 2,
            "COLOR_0": 3
          }
        }
      ]
    }
  ],
  "nodes": [
    {
      "children": [
        1
      ]
    },
    {
      "mesh": 0
    }
  ],
  "scenes": [
    {
      "nodes": [
        0
      ]
    }
  ],
  "scene": 0
}