{
  "asset": {
    "version": "2.0",
    "generator": "COLLADA2GLTF"
  },
  "accessors": [
    {
      "bufferView": 0,
      "byteOffset": 0,
      "componentType": 5123,
      "count": 2712,
      "min": [
        0
      ],
      "max": [
        1007
      ],
      "type": "SCALAR"
    },
    {
      "bufferView": 1,
      "byteOffset": 0,
      "componentType": 5126,
      "count": 1008,
      "max": [
        -2085.86767578125,
        9.5,
        1373.3658447265625
      ],
      "min": [
        -2237.059814453125,
        7,
        1304.5201416015625
      ],
      "type": "VEC3"
    },
    {
      "bufferView": 2,
      "byteOffset": 0,
      "componentType": 5126,
      "count": 1008,
      "max": [
        0.9947241544723511,
        0.7070369720458984,
        0.9947241544723511
      ],
      "min": [
        -0.9947241544723511,
        -0.7070369720458984,
        -0.9947241544723511
      ],
      "type": "VEC3"
    },
    {
      "bufferView": 3,
      "byteOffset": 0,
      "componentType": 5126,
      "count": 1008,
      "max": [
        0.4480048716068268,
        0.4480048716068268,
        0.4480659067630768
      ],
      "min": [
        0,
        0,
        0
      ],
      "type": "VEC3"
    }
  ],
  "buffers": [
    {
      "byteLength": 5424,
      "uri": "data:application/octet-stream;base64,"
    },
    {
      "byteLength": 12096,
      "uri": "data:application/octet-stream;base64,"
    },
    {
      "byteLength": 12096,
      "uri": "data:application/octet-stream;base64,"
    },
    {
      "byteLength": 12096,
      "uri": "data:application/octet-stream;base64,"
    }
  ],
  "bufferViews": [
    {
      "buffer": 0,
      "byteOffset": 0,
      "byteLength": 5424
    },
    {
      "buffer": 1,
      "byteOffset": 0,
      "byteLength": 12096
    },
    {
      "buffer": 2,
      "byteOffset": 0,
      "byteLength": 12096
    },
    {
      "buffer": 3,
      "byteOffset": 0,
      "byteLength": 12096
    }
  ],
  "meshes": [
    {
      "primitives": [
        {
          "mode": 4,
          "indices": 0,
          "attributes": {
            "POSITION": 1,
            "NORMAL": 2,
            "COLOR_0": 3
          }
        }
      ]
    }
  ],
  "nodes": [
    {
      "children": [
        1
      ]
    },
    {
      "mesh": 0
    }
  ],
  "scenes": [
    {
      "nodes": [
        0
      ]
    }
  ],
  "scene": 0
}