{
  "asset": {
    "version": "2.0",
    "generator": "COLLADA2GLTF"
  },
  "accessors": [
    {
      "bufferView": 0,
      "byteOffset": 0,
      "componentType": 5123,
      "count": 1686,
      "min": [
        0
      ],
      "max": [
        781
      ],
      "type": "SCALAR"
    },
    {
      "bufferView": 1,
      "byteOffset": 0,
      "componentType": 5126,
      "count": 782,
      "max": [
        -872.92138671875,
        7.5,
        776.4685668945312
      ],
      "min": [
        -1170,
        -0.20000000298023224,
        434.9425354003906
      ],
      "type": "VEC3"
    },
    {
      "bufferView": 2,
      "byteOffset": 0,
      "componentType": 5126,
      "count": 782,
      "max": [
        0.8132357001304626,
        1,
        0.8137648701667786
      ],
      "min": [
        -0.8140009045600891,
        -1,
        -0.8208670616149902
      ],
      "type": "VEC3"
    },
    {
      "bufferView": 3,
      "byteOffset": 0,
      "componentType": 5126,
      "count": 782,
      "max": [
        0.999786376953125,
        1,
        0.7875028848648071
      ],
      "min": [
        0.000015259021893143654,
        0.07324330508708954,
        0.00004577706567943096
      ],
      "type": "VEC3"
    }
  ],
  "buffers": [
    {
      "byteLength": 3372,
      "uri": "data:application/octet-stream;base64,"
    },
    {
      "byteLength": 9384,
      "uri": "data:application/octet-stream;base64,"
    },
    {
      "byteLength": 9384,
      "uri": "data:application/octet-stream;base64,"
    },
    {
      "byteLength": 9384,
      "uri": "data:application/octet-stream;base64,"
    }
  ],
  "bufferViews": [
    {
      "buffer": 0,
      "byteOffset": 0,
      "byteLength": 3372
    },
    {
      "buffer": 1,
      "byteOffset": 0,
      "byteLength": 9384
    },
    {
      "buffer": 2,
      "byteOffset": 0,
      "byteLength": 9384
    },
    {
      "buffer": 3,
      "byteOffset": 0,
      "byteLength": 9384
    }
  ],
  "meshes": [
    {
      "primitives": [
        {
          "mode": 4,
          "indices": 0,
          "attributes": {
            "POSITION": 1,
            "NORMAL": 2,
            "COLOR_0": 3
          }
        }
      ]
    }
  ],
  "nodes": [
    {
      "children": [
        1
      ]
    },
    {
      "mesh": 0
    }
  ],
  "scenes": [
    {
      "nodes": [
        0
      ]
    }
  ],
  "scene": 0
}