{
  "asset": {
    "version": "2.0",
    "generator": "COLLADA2GLTF"
  },
  "accessors": [
    {
      "bufferView": 0,
      "byteOffset": 0,
      "componentType": 5123,
      "count": 105,
      "min": [
        0
      ],
      "max": [
        56
      ],
      "type": "SCALAR"
    },
    {
      "bufferView": 1,
      "byteOffset": 0,
      "componentType": 5126,
      "count": 57,
      "max": [
        -579.0650024414062,
        7.5,
        14.036999702453613
      ],
      "min": [
        -674.1339721679688,
        0,
        -124.56700134277344
      ],
      "type": "VEC3"
    },
    {
      "bufferView": 2,
      "byteOffset": 0,
      "componentType": 5126,
      "count": 57,
      "max": [
        0.9968320727348328,
        0,
        0.9967929720878601
      ],
      "min": [
        -0.9968320727348328,
        0,
        -0.9967929720878601
      ],
      "type": "VEC3"
    },
    {
      "bufferView": 3,
      "byteOffset": 0,
      "componentType": 5126,
      "count": 57,
      "max": [
        0.999786376953125,
        0.7875181436538696,
        0.26330968737602234
      ],
      "min": [
        0.999786376953125,
        0.7875181436538696,
        0.26330968737602234
      ],
      "type": "VEC3"
    }
  ],
  "buffers": [
    {
      "byteLength": 210,
      "uri": "data:application/octet-stream;base64,"
    },
    {
      "byteLength": 684,
      "uri": "data:application/octet-stream;base64,"
    },
    {
      "byteLength": 684,
      "uri": "data:application/octet-stream;base64,"
    },
    {
      "byteLength": 684,
      "uri": "data:application/octet-stream;base64,"
    }
  ],
  "bufferViews": [
    {
      "buffer": 0,
      "byteOffset": 0,
      "byteLength": 210
    },
    {
      "buffer": 1,
      "byteOffset": 0,
      "byteLength": 684
    },
    {
      "buffer": 2,
      "byteOffset": 0,
      "byteLength": 684
    },
    {
      "buffer": 3,
      "byteOffset": 0,
      "byteLength": 684
    }
  ],
  "meshes": [
    {
      "primitives": [
        {
          "mode": 4,
          "indices": 0,
          "attributes": {
            "POSITION": 1,
            "NORMAL": 2,
            "COLOR_0": 3
          }
        }
      ]
    }
  ],
  "nodes": [
    {
      "children": [
        1
      ]
    },
    {
      "mesh": 0
    }
  ],
  "scenes": [
    {
      "nodes": [
        0
      ]
    }
  ],
  "scene": 0
}