{
  "asset": {
    "version": "2.0",
    "generator": "COLLADA2GLTF"
  },
  "accessors": [
    {
      "bufferView": 0,
      "byteOffset": 0,
      "componentType": 5123,
      "count": 5226,
      "min": [
        0
      ],
      "max": [
        1825
      ],
      "type": "SCALAR"
    },
    {
      "bufferView": 1,
      "byteOffset": 0,
      "componentType": 5126,
      "count": 1826,
      "max": [
        -2363.098876953125,
        0.14777499437332153,
        1740.5111083984375
      ],
      "min": [
        -2438.2578125,
        0,
        1694.373046875
      ],
      "type": "VEC3"
    },
    {
      "bufferView": 2,
      "byteOffset": 0,
      "componentType": 5126,
      "count": 1826,
      "max": [
        0.8755258321762085,
        1,
        0.8755301833152771
      ],
      "min": [
        -0.8755258321762085,
        -0.9486833214759827,
        -0.8755301833152771
      ],
      "type": "VEC3"
    },
    {
      "bufferView": 3,
      "byteOffset": 0,
      "componentType": 5126,
      "count": 1826,
      "max": [
        0.5774929523468018,
        0.5776150226593018,
        0.5776455402374268
      ],
      "min": [
        0.07322804629802704,
        0.03309682011604309,
        0.03311207890510559
      ],
      "type": "VEC3"
    }
  ],
  "buffers": [
    {
      "byteLength": 10452,
      "uri": "data:application/octet-stream;base64,"
    },
    {
      "byteLength": 21912,
      "uri": "data:application/octet-stream;base64,"
    },
    {
      "byteLength": 21912,
      "uri": "data:application/octet-stream;base64,"
    },
    {
      "byteLength": 21912,
      "uri": "data:application/octet-stream;base64,"
    }
  ],
  "bufferViews": [
    {
      "buffer": 0,
      "byteOffset": 0,
      "byteLength": 10452
    },
    {
      "buffer": 1,
      "byteOffset": 0,
      "byteLength": 21912
    },
    {
      "buffer": 2,
      "byteOffset": 0,
      "byteLength": 21912
    },
    {
      "buffer": 3,
      "byteOffset": 0,
      "byteLength": 21912
    }
  ],
  "meshes": [
    {
      "primitives": [
        {
          "mode": 4,
          "indices": 0,
          "attributes": {
            "POSITION": 1,
            "NORMAL": 2,
            "COLOR_0": 3
          }
        }
      ]
    }
  ],
  "nodes": [
    {
      "children": [
        1
      ]
    },
    {
      "mesh": 0
    }
  ],
  "scenes": [
    {
      "nodes": [
        0
      ]
    }
  ],
  "scene": 0
}