{
  "asset": {
    "version": "2.0",
    "generator": "COLLADA2GLTF"
  },
  "accessors": [
    {
      "bufferView": 0,
      "byteOffset": 0,
      "componentType": 5123,
      "count": 1362,
      "min": [
        0
      ],
      "max": [
        558
      ],
      "type": "SCALAR"
    },
    {
      "bufferView": 1,
      "byteOffset": 0,
      "componentType": 5126,
      "count": 559,
      "max": [
        3090,
        0.0010000000474974513,
        539.5717163085938
      ],
      "min": [
        2632.173583984375,
        0,
        -60
      ],
      "type": "VEC3"
    },
    {
      "bufferView": 2,
      "byteOffset": 0,
      "componentType": 5126,
      "count": 559,
      "max": [
        0,
        1,
        0
      ],
      "min": [
        0,
        1,
        0
      ],
      "type": "VEC3"
    },
    {
      "bufferView": 3,
      "byteOffset": 0,
      "componentType": 5126,
      "count": 559,
      "max": [
        0.7872740030288696,
        1,
        0.7875028848648071
      ],
      "min": [
        0.000015259021893143654,
        0.07324330508708954,
        0.00004577706567943096
      ],
      "type": "VEC3"
    }
  ],
  "buffers": [
    {
      "byteLength": 2724,
      "uri": "data:application/octet-stream;base64,"
    },
    {
      "byteLength": 6708,
      "uri": "data:application/octet-stream;base64,"
    },
    {
      "byteLength": 6708,
      "uri": "data:application/octet-stream;base64,"
    },
    {
      "byteLength": 6708,
      "uri": "data:application/octet-stream;base64,"
    }
  ],
  "bufferViews": [
    {
      "buffer": 0,
      "byteOffset": 0,
      "byteLength": 2724
    },
    {
      "buffer": 1,
      "byteOffset": 0,
      "byteLength": 6708
    },
    {
      "buffer": 2,
      "byteOffset": 0,
      "byteLength": 6708
    },
    {
      "buffer": 3,
      "byteOffset": 0,
      "byteLength": 6708
    }
  ],
  "meshes": [
    {
      "primitives": [
        {
          "mode": 4,
          "indices": 0,
          "attributes": {
            "POSITION": 1,
            "NORMAL": 2,
            "COLOR_0": 3
          }
        }
      ]
    }
  ],
  "nodes": [
    {
      "children": [
        1
      ]
    },
    {
      "mesh": 0
    }
  ],
  "scenes": [
    {
      "nodes": [
        0
      ]
    }
  ],
  "scene": 0
}