{
  "asset": {
    "version": "2.0",
    "generator": "COLLADA2GLTF"
  },
  "accessors": [
    {
      "bufferView": 0,
      "byteOffset": 0,
      "componentType": 5123,
      "count": 936,
      "min": [
        0
      ],
      "max": [
        435
      ],
      "type": "SCALAR"
    },
    {
      "bufferView": 1,
      "byteOffset": 0,
      "componentType": 5126,
      "count": 436,
      "max": [
        -243.5469970703125,
        10,
        -715.4630126953125
      ],
      "min": [
        -367.6106262207031,
        0,
        -927.6400146484375
      ],
      "type": "VEC3"
    },
    {
      "bufferView": 2,
      "byteOffset": 0,
      "componentType": 5126,
      "count": 436,
      "max": [
        1,
        1,
        1
      ],
      "min": [
        -0.8282659649848938,
        0,
        -0.8000478744506836
      ],
      "type": "VEC3"
    },
    {
      "bufferView": 3,
      "byteOffset": 0,
      "componentType": 5126,
      "count": 436,
      "max": [
        0.999786376953125,
        0.7875181436538696,
        0.26330968737602234
      ],
      "min": [
        0.00004577706567943096,
        0.00003051804378628731,
        0
      ],
      "type": "VEC3"
    }
  ],
  "buffers": [
    {
      "byteLength": 1872,
      "uri": "data:application/octet-stream;base64,"
    },
    {
      "byteLength": 5232,
      "uri": "data:application/octet-stream;base64,"
    },
    {
      "byteLength": 5232,
      "uri": "data:application/octet-stream;base64,"
    },
    {
      "byteLength": 5232,
      "uri": "data:application/octet-stream;base64,"
    }
  ],
  "bufferViews": [
    {
      "buffer": 0,
      "byteOffset": 0,
      "byteLength": 1872
    },
    {
      "buffer": 1,
      "byteOffset": 0,
      "byteLength": 5232
    },
    {
      "buffer": 2,
      "byteOffset": 0,
      "byteLength": 5232
    },
    {
      "buffer": 3,
      "byteOffset": 0,
      "byteLength": 5232
    }
  ],
  "meshes": [
    {
      "primitives": [
        {
          "mode": 4,
          "indices": 0,
          "attributes": {
            "POSITION": 1,
            "NORMAL": 2,
            "COLOR_0": 3
          }
        }
      ]
    }
  ],
  "nodes": [
    {
      "children": [
        1
      ]
    },
    {
      "mesh": 0
    }
  ],
  "scenes": [
    {
      "nodes": [
        0
      ]
    }
  ],
  "scene": 0
}