{
  "asset": {
    "version": "2.0",
    "generator": "COLLADA2GLTF"
  },
  "accessors": [
    {
      "bufferView": 0,
      "byteOffset": 0,
      "componentType": 5123,
      "count": 1755,
      "min": [
        0
      ],
      "max": [
        696
      ],
      "type": "SCALAR"
    },
    {
      "bufferView": 1,
      "byteOffset": 0,
      "componentType": 5126,
      "count": 697,
      "max": [
        1171.1011962890625,
        2.299999952316284,
        204.99240112304688
      ],
      "min": [
        927.9525756835938,
        0,
        -30.253089904785156
      ],
      "type": "VEC3"
    },
    {
      "bufferView": 2,
      "byteOffset": 0,
      "componentType": 5126,
      "count": 697,
      "max": [
        0.9898214340209961,
        1,
        1
      ],
      "min": [
        -0.9898214340209961,
        0,
        -0.9594929814338684
      ],
      "type": "VEC3"
    },
    {
      "bufferView": 3,
      "byteOffset": 0,
      "componentType": 5126,
      "count": 697,
      "max": [
        0.7872740030288696,
        1,
        0.7875028848648071
      ],
      "min": [
        0.000015259021893143654,
        0.07324330508708954,
        0.00004577706567943096
      ],
      "type": "VEC3"
    }
  ],
  "buffers": [
    {
      "byteLength": 3510,
      "uri": "data:application/octet-stream;base64,"
    },
    {
      "byteLength": 8364,
      "uri": "data:application/octet-stream;base64,"
    },
    {
      "byteLength": 8364,
      "uri": "data:application/octet-stream;base64,"
    },
    {
      "byteLength": 8364,
      "uri": "data:application/octet-stream;base64,"
    }
  ],
  "bufferViews": [
    {
      "buffer": 0,
      "byteOffset": 0,
      "byteLength": 3510
    },
    {
      "buffer": 1,
      "byteOffset": 0,
      "byteLength": 8364
    },
    {
      "buffer": 2,
      "byteOffset": 0,
      "byteLength": 8364
    },
    {
      "buffer": 3,
      "byteOffset": 0,
      "byteLength": 8364
    }
  ],
  "meshes": [
    {
      "primitives": [
        {
          "mode": 4,
          "indices": 0,
          "attributes": {
            "POSITION": 1,
            "NORMAL": 2,
            "COLOR_0": 3
          }
        }
      ]
    }
  ],
  "nodes": [
    {
      "children": [
        1
      ]
    },
    {
      "mesh": 0
    }
  ],
  "scenes": [
    {
      "nodes": [
        0
      ]
    }
  ],
  "scene": 0
}