{
  "asset": {
    "version": "2.0",
    "generator": "COLLADA2GLTF"
  },
  "accessors": [
    {
      "bufferView": 0,
      "byteOffset": 0,
      "componentType": 5123,
      "count": 1794,
      "min": [
        0
      ],
      "max": [
        702
      ],
      "type": "SCALAR"
    },
    {
      "bufferView": 1,
      "byteOffset": 0,
      "componentType": 5126,
      "count": 703,
      "max": [
        -128.9858856201172,
        0,
        -1859.1290283203125
      ],
      "min": [
        -811.386962890625,
        -1,
        -2616.513671875
      ],
      "type": "VEC3"
    },
    {
      "bufferView": 2,
      "byteOffset": 0,
      "componentType": 5126,
      "count": 703,
      "max": [
        0.44291695952415466,
        1,
        0.6523089408874512
      ],
      "min": [
        -0.4642765522003174,
        0.599116325378418,
        -0.6785956025123596
      ],
      "type": "VEC3"
    },
    {
      "bufferView": 3,
      "byteOffset": 0,
      "componentType": 5126,
      "count": 703,
      "max": [
        0.26324865221977234,
        1,
        1
      ],
      "min": [
        0,
        0.00003051804378628731,
        0.00004577706567943096
      ],
      "type": "VEC3"
    }
  ],
  "buffers": [
    {
      "byteLength": 3588,
      "uri": "data:application/octet-stream;base64,"
    },
    {
      "byteLength": 8436,
      "uri": "data:application/octet-stream;base64,"
    },
    {
      "byteLength": 8436,
      "uri": "data:application/octet-stream;base64,"
    },
    {
      "byteLength": 8436,
      "uri": "data:application/octet-stream;base64,"
    }
  ],
  "bufferViews": [
    {
      "buffer": 0,
      "byteOffset": 0,
      "byteLength": 3588
    },
    {
      "buffer": 1,
      "byteOffset": 0,
      "byteLength": 8436
    },
    {
      "buffer": 2,
      "byteOffset": 0,
      "byteLength": 8436
    },
    {
      "buffer": 3,
      "byteOffset": 0,
      "byteLength": 8436
    }
  ],
  "meshes": [
    {
      "primitives": [
        {
          "mode": 4,
          "indices": 0,
          "attributes": {
            "POSITION": 1,
            "NORMAL": 2,
            "COLOR_0": 3
          }
        }
      ]
    }
  ],
  "nodes": [
    {
      "children": [
        1
      ]
    },
    {
      "mesh": 0
    }
  ],
  "scenes": [
    {
      "nodes": [
        0
      ]
    }
  ],
  "scene": 0
}