{
  "asset": {
    "version": "2.0",
    "generator": "COLLADA2GLTF"
  },
  "accessors": [
    {
      "bufferView": 0,
      "byteOffset": 0,
      "componentType": 5123,
      "count": 1038,
      "min": [
        0
      ],
      "max": [
        355
      ],
      "type": "SCALAR"
    },
    {
      "bufferView": 1,
      "byteOffset": 0,
      "componentType": 5126,
      "count": 356,
      "max": [
        1743.42919921875,
        0.0010000000474974513,
        2729.317626953125
      ],
      "min": [
        1564.940185546875,
        0,
        2105.093994140625
      ],
      "type": "VEC3"
    },
    {
      "bufferView": 2,
      "byteOffset": 0,
      "componentType": 5126,
      "count": 356,
      "max": [
        0,
        1,
        0
      ],
      "min": [
        0,
        1,
        0
      ],
      "type": "VEC3"
    },
    {
      "bufferView": 3,
      "byteOffset": 0,
      "componentType": 5126,
      "count": 356,
      "max": [
        0.7872740030288696,
        0.7875028848648071,
        0.7875028848648071
      ],
      "min": [
        0.07322804629802704,
        0.07324330508708954,
        0.07325856387615204
      ],
      "type": "VEC3"
    }
  ],
  "buffers": [
    {
      "byteLength": 2076,
      "uri": "data:application/octet-stream;base64,"
    },
    {
      "byteLength": 4272,
      "uri": "data:application/octet-stream;base64,"
    },
    {
      "byteLength": 4272,
      "uri": "data:application/octet-stream;base64,"
    },
    {
      "byteLength": 4272,
      "uri": "data:application/octet-stream;base64,"
    }
  ],
  "bufferViews": [
    {
      "buffer": 0,
      "byteOffset": 0,
      "byteLength": 2076
    },
    {
      "buffer": 1,
      "byteOffset": 0,
      "byteLength": 4272
    },
    {
      "buffer": 2,
      "byteOffset": 0,
      "byteLength": 4272
    },
    {
      "buffer": 3,
      "byteOffset": 0,
      "byteLength": 4272
    }
  ],
  "meshes": [
    {
      "primitives": [
        {
          "mode": 4,
          "indices": 0,
          "attributes": {
            "POSITION": 1,
            "NORMAL": 2,
            "COLOR_0": 3
          }
        }
      ]
    }
  ],
  "nodes": [
    {
      "children": [
        1
      ]
    },
    {
      "mesh": 0
    }
  ],
  "scenes": [
    {
      "nodes": [
        0
      ]
    }
  ],
  "scene": 0
}