{
  "asset": {
    "version": "2.0",
    "generator": "COLLADA2GLTF"
  },
  "accessors": [
    {
      "bufferView": 0,
      "byteOffset": 0,
      "componentType": 5123,
      "count": 4527,
      "min": [
        0
      ],
      "max": [
        1777
      ],
      "type": "SCALAR"
    },
    {
      "bufferView": 1,
      "byteOffset": 0,
      "componentType": 5126,
      "count": 1778,
      "max": [
        1525.8441162109375,
        7.5,
        -240
      ],
      "min": [
        1230,
        0,
        -576.6421508789062
      ],
      "type": "VEC3"
    },
    {
      "bufferView": 2,
      "byteOffset": 0,
      "componentType": 5126,
      "count": 1778,
      "max": [
        0.9773129224777222,
        1,
        0.9692409634590149
      ],
      "min": [
        -0.9623945951461792,
        0,
        -0.9524767398834229
      ],
      "type": "VEC3"
    },
    {
      "bufferView": 3,
      "byteOffset": 0,
      "componentType": 5126,
      "count": 1778,
      "max": [
        0.999786376953125,
        1,
        0.7875028848648071
      ],
      "min": [
        0.000015259021893143654,
        0.07324330508708954,
        0.00004577706567943096
      ],
      "type": "VEC3"
    }
  ],
  "buffers": [
    {
      "byteLength": 9054,
      "uri": "data:application/octet-stream;base64,"
    },
    {
      "byteLength": 21336,
      "uri": "data:application/octet-stream;base64,"
    },
    {
      "byteLength": 21336,
      "uri": "data:application/octet-stream;base64,"
    },
    {
      "byteLength": 21336,
      "uri": "data:application/octet-stream;base64,"
    }
  ],
  "bufferViews": [
    {
      "buffer": 0,
      "byteOffset": 0,
      "byteLength": 9054
    },
    {
      "buffer": 1,
      "byteOffset": 0,
      "byteLength": 21336
    },
    {
      "buffer": 2,
      "byteOffset": 0,
      "byteLength": 21336
    },
    {
      "buffer": 3,
      "byteOffset": 0,
      "byteLength": 21336
    }
  ],
  "meshes": [
    {
      "primitives": [
        {
          "mode": 4,
          "indices": 0,
          "attributes": {
            "POSITION": 1,
            "NORMAL": 2,
            "COLOR_0": 3
          }
        }
      ]
    }
  ],
  "nodes": [
    {
      "children": [
        1
      ]
    },
    {
      "mesh": 0
    }
  ],
  "scenes": [
    {
      "nodes": [
        0
      ]
    }
  ],
  "scene": 0
}