{
  "asset": {
    "version": "2.0",
    "generator": "COLLADA2GLTF"
  },
  "accessors": [
    {
      "bufferView": 0,
      "byteOffset": 0,
      "componentType": 5123,
      "count": 5892,
      "min": [
        0
      ],
      "max": [
        2130
      ],
      "type": "SCALAR"
    },
    {
      "bufferView": 1,
      "byteOffset": 0,
      "componentType": 5126,
      "count": 2131,
      "max": [
        369.7891845703125,
        7.5,
        -10.325919151306152
      ],
      "min": [
        207.79542541503906,
        -0.20000000298023224,
        -270.09234619140625
      ],
      "type": "VEC3"
    },
    {
      "bufferView": 2,
      "byteOffset": 0,
      "componentType": 5126,
      "count": 2131,
      "max": [
        0.7467913031578064,
        1,
        0.981290340423584
      ],
      "min": [
        -0.9846120476722717,
        -1,
        -0.981290340423584
      ],
      "type": "VEC3"
    },
    {
      "bufferView": 3,
      "byteOffset": 0,
      "componentType": 5126,
      "count": 2131,
      "max": [
        0.999786376953125,
        1,
        0.7875028848648071
      ],
      "min": [
        0.000015259021893143654,
        0.000015259021893143654,
        0
      ],
      "type": "VEC3"
    }
  ],
  "buffers": [
    {
      "byteLength": 11784,
      "uri": "data:application/octet-stream;base64,"
    },
    {
      "byteLength": 25572,
      "uri": "data:application/octet-stream;base64,"
    },
    {
      "byteLength": 25572,
      "uri": "data:application/octet-stream;base64,"
    },
    {
      "byteLength": 25572,
      "uri": "data:application/octet-stream;base64,"
    }
  ],
  "bufferViews": [
    {
      "buffer": 0,
      "byteOffset": 0,
      "byteLength": 11784
    },
    {
      "buffer": 1,
      "byteOffset": 0,
      "byteLength": 25572
    },
    {
      "buffer": 2,
      "byteOffset": 0,
      "byteLength": 25572
    },
    {
      "buffer": 3,
      "byteOffset": 0,
      "byteLength": 25572
    }
  ],
  "meshes": [
    {
      "primitives": [
        {
          "mode": 4,
          "indices": 0,
          "attributes": {
            "POSITION": 1,
            "NORMAL": 2,
            "COLOR_0": 3
          }
        }
      ]
    }
  ],
  "nodes": [
    {
      "children": [
        1
      ]
    },
    {
      "mesh": 0
    }
  ],
  "scenes": [
    {
      "nodes": [
        0
      ]
    }
  ],
  "scene": 0
}