{
  "asset": {
    "version": "2.0",
    "generator": "COLLADA2GLTF"
  },
  "accessors": [
    {
      "bufferView": 0,
      "byteOffset": 0,
      "componentType": 5123,
      "count": 5526,
      "min": [
        0
      ],
      "max": [
        1853
      ],
      "type": "SCALAR"
    },
    {
      "bufferView": 1,
      "byteOffset": 0,
      "componentType": 5126,
      "count": 1854,
      "max": [
        -1828.570068359375,
        -0.5,
        1245.1058349609375
      ],
      "min": [
        -2003.927978515625,
        -0.5,
        1175.4820556640625
      ],
      "type": "VEC3"
    },
    {
      "bufferView": 2,
      "byteOffset": 0,
      "componentType": 5126,
      "count": 1854,
      "max": [
        0,
        -1,
        0
      ],
      "min": [
        0,
        -1,
        0
      ],
      "type": "VEC3"
    },
    {
      "bufferView": 3,
      "byteOffset": 0,
      "componentType": 5126,
      "count": 1854,
      "max": [
        0.5774929523468018,
        0.5776150226593018,
        0.5776455402374268
      ],
      "min": [
        0.5774929523468018,
        0.5776150226593018,
        0.5776455402374268
      ],
      "type": "VEC3"
    }
  ],
  "buffers": [
    {
      "byteLength": 11052,
      "uri": "data:application/octet-stream;base64,"
    },
    {
      "byteLength": 22248,
      "uri": "data:application/octet-stream;base64,"
    },
    {
      "byteLength": 22248,
      "uri": "data:application/octet-stream;base64,"
    },
    {
      "byteLength": 22248,
      "uri": "data:application/octet-stream;base64,"
    }
  ],
  "bufferViews": [
    {
      "buffer": 0,
      "byteOffset": 0,
      "byteLength": 11052
    },
    {
      "buffer": 1,
      "byteOffset": 0,
      "byteLength": 22248
    },
    {
      "buffer": 2,
      "byteOffset": 0,
      "byteLength": 22248
    },
    {
      "buffer": 3,
      "byteOffset": 0,
      "byteLength": 22248
    }
  ],
  "meshes": [
    {
      "primitives": [
        {
          "mode": 4,
          "indices": 0,
          "attributes": {
            "POSITION": 1,
            "NORMAL": 2,
            "COLOR_0": 3
          }
        }
      ]
    }
  ],
  "nodes": [
    {
      "children": [
        1
      ]
    },
    {
      "mesh": 0
    }
  ],
  "scenes": [
    {
      "nodes": [
        0
      ]
    }
  ],
  "scene": 0
}