{
  "asset": {
    "version": "2.0",
    "generator": "COLLADA2GLTF"
  },
  "accessors": [
    {
      "bufferView": 0,
      "byteOffset": 0,
      "componentType": 5123,
      "count": 2391,
      "min": [
        0
      ],
      "max": [
        890
      ],
      "type": "SCALAR"
    },
    {
      "bufferView": 1,
      "byteOffset": 0,
      "componentType": 5126,
      "count": 891,
      "max": [
        -229.21136474609375,
        0,
        -534.340576171875
      ],
      "min": [
        -311.6400451660156,
        -3,
        -726.2029418945312
      ],
      "type": "VEC3"
    },
    {
      "bufferView": 2,
      "byteOffset": 0,
      "componentType": 5126,
      "count": 891,
      "max": [
        0.99321049451828,
        1,
        0.99321049451828
      ],
      "min": [
        -0.99321049451828,
        -1,
        -0.99321049451828
      ],
      "type": "VEC3"
    },
    {
      "bufferView": 3,
      "byteOffset": 0,
      "componentType": 5126,
      "count": 891,
      "max": [
        0.21585412323474884,
        0.21585412323474884,
        0.21589989960193634
      ],
      "min": [
        0.21585412323474884,
        0.21585412323474884,
        0.21589989960193634
      ],
      "type": "VEC3"
    }
  ],
  "buffers": [
    {
      "byteLength": 4782,
      "uri": "data:application/octet-stream;base64,"
    },
    {
      "byteLength": 10692,
      "uri": "data:application/octet-stream;base64,"
    },
    {
      "byteLength": 10692,
      "uri": "data:application/octet-stream;base64,"
    },
    {
      "byteLength": 10692,
      "uri": "data:application/octet-stream;base64,"
    }
  ],
  "bufferViews": [
    {
      "buffer": 0,
      "byteOffset": 0,
      "byteLength": 4782
    },
    {
      "buffer": 1,
      "byteOffset": 0,
      "byteLength": 10692
    },
    {
      "buffer": 2,
      "byteOffset": 0,
      "byteLength": 10692
    },
    {
      "buffer": 3,
      "byteOffset": 0,
      "byteLength": 10692
    }
  ],
  "meshes": [
    {
      "primitives": [
        {
          "mode": 4,
          "indices": 0,
          "attributes": {
            "POSITION": 1,
            "NORMAL": 2,
            "COLOR_0": 3
          }
        }
      ]
    }
  ],
  "nodes": [
    {
      "children": [
        1
      ]
    },
    {
      "mesh": 0
    }
  ],
  "scenes": [
    {
      "nodes": [
        0
      ]
    }
  ],
  "scene": 0
}