{
  "asset": {
    "version": "2.0",
    "generator": "COLLADA2GLTF"
  },
  "accessors": [
    {
      "bufferView": 0,
      "byteOffset": 0,
      "componentType": 5123,
      "count": 897,
      "min": [
        0
      ],
      "max": [
        332
      ],
      "type": "SCALAR"
    },
    {
      "bufferView": 1,
      "byteOffset": 0,
      "componentType": 5126,
      "count": 333,
      "max": [
        -971.427001953125,
        3,
        183.08740234375
      ],
      "min": [
        -1138.4368896484375,
        0,
        -224.00616455078125
      ],
      "type": "VEC3"
    },
    {
      "bufferView": 2,
      "byteOffset": 0,
      "componentType": 5126,
      "count": 333,
      "max": [
        1,
        1,
        1
      ],
      "min": [
        -1,
        -1,
        -1
      ],
      "type": "VEC3"
    },
    {
      "bufferView": 3,
      "byteOffset": 0,
      "componentType": 5126,
      "count": 333,
      "max": [
        0.9549705982208252,
        0.7874418497085571,
        0.5776455402374268
      ],
      "min": [
        0.07322804629802704,
        0.07324330508708954,
        0.003997863736003637
      ],
      "type": "VEC3"
    }
  ],
  "buffers": [
    {
      "byteLength": 1794,
      "uri": "data:application/octet-stream;base64,"
    },
    {
      "byteLength": 3996,
      "uri": "data:application/octet-stream;base64,"
    },
    {
      "byteLength": 3996,
      "uri": "data:application/octet-stream;base64,"
    },
    {
      "byteLength": 3996,
      "uri": "data:application/octet-stream;base64,"
    }
  ],
  "bufferViews": [
    {
      "buffer": 0,
      "byteOffset": 0,
      "byteLength": 1794
    },
    {
      "buffer": 1,
      "byteOffset": 0,
      "byteLength": 3996
    },
    {
      "buffer": 2,
      "byteOffset": 0,
      "byteLength": 3996
    },
    {
      "buffer": 3,
      "byteOffset": 0,
      "byteLength": 3996
    }
  ],
  "meshes": [
    {
      "primitives": [
        {
          "mode": 4,
          "indices": 0,
          "attributes": {
            "POSITION": 1,
            "NORMAL": 2,
            "COLOR_0": 3
          }
        }
      ]
    }
  ],
  "nodes": [
    {
      "children": [
        1
      ]
    },
    {
      "mesh": 0
    }
  ],
  "scenes": [
    {
      "nodes": [
        0
      ]
    }
  ],
  "scene": 0
}