{
  "asset": {
    "version": "2.0",
    "generator": "COLLADA2GLTF"
  },
  "accessors": [
    {
      "bufferView": 0,
      "byteOffset": 0,
      "componentType": 5123,
      "count": 1791,
      "min": [
        0
      ],
      "max": [
        651
      ],
      "type": "SCALAR"
    },
    {
      "bufferView": 1,
      "byteOffset": 0,
      "componentType": 5126,
      "count": 652,
      "max": [
        -2609.650390625,
        0.14777499437332153,
        1572.0811767578125
      ],
      "min": [
        -2638.757080078125,
        0,
        1549.8763427734375
      ],
      "type": "VEC3"
    },
    {
      "bufferView": 2,
      "byteOffset": 0,
      "componentType": 5126,
      "count": 652,
      "max": [
        0.8008418679237366,
        1,
        0.8008449077606201
      ],
      "min": [
        -0.8008418679237366,
        -0.9486833214759827,
        -0.8008449077606201
      ],
      "type": "VEC3"
    },
    {
      "bufferView": 3,
      "byteOffset": 0,
      "componentType": 5126,
      "count": 652,
      "max": [
        0.5774929523468018,
        0.5776150226593018,
        0.5776455402374268
      ],
      "min": [
        0.07322804629802704,
        0.03309682011604309,
        0.03311207890510559
      ],
      "type": "VEC3"
    }
  ],
  "buffers": [
    {
      "byteLength": 3582,
      "uri": "data:application/octet-stream;base64,"
    },
    {
      "byteLength": 7824,
      "uri": "data:application/octet-stream;base64,"
    },
    {
      "byteLength": 7824,
      "uri": "data:application/octet-stream;base64,"
    },
    {
      "byteLength": 7824,
      "uri": "data:application/octet-stream;base64,"
    }
  ],
  "bufferViews": [
    {
      "buffer": 0,
      "byteOffset": 0,
      "byteLength": 3582
    },
    {
      "buffer": 1,
      "byteOffset": 0,
      "byteLength": 7824
    },
    {
      "buffer": 2,
      "byteOffset": 0,
      "byteLength": 7824
    },
    {
      "buffer": 3,
      "byteOffset": 0,
      "byteLength": 7824
    }
  ],
  "meshes": [
    {
      "primitives": [
        {
          "mode": 4,
          "indices": 0,
          "attributes": {
            "POSITION": 1,
            "NORMAL": 2,
            "COLOR_0": 3
          }
        }
      ]
    }
  ],
  "nodes": [
    {
      "children": [
        1
      ]
    },
    {
      "mesh": 0
    }
  ],
  "scenes": [
    {
      "nodes": [
        0
      ]
    }
  ],
  "scene": 0
}