{
  "asset": {
    "version": "2.0",
    "generator": "COLLADA2GLTF"
  },
  "accessors": [
    {
      "bufferView": 0,
      "byteOffset": 0,
      "componentType": 5123,
      "count": 732,
      "min": [
        0
      ],
      "max": [
        377
      ],
      "type": "SCALAR"
    },
    {
      "bufferView": 1,
      "byteOffset": 0,
      "componentType": 5126,
      "count": 378,
      "max": [
        36.95600128173828,
        7.5,
        -366.1340026855469
      ],
      "min": [
        -115.6100082397461,
        0,
        -608.072021484375
      ],
      "type": "VEC3"
    },
    {
      "bufferView": 2,
      "byteOffset": 0,
      "componentType": 5126,
      "count": 378,
      "max": [
        0.9999997019767761,
        1,
        0.9999998807907104
      ],
      "min": [
        -0.9999993443489075,
        0,
        -0.9999998807907104
      ],
      "type": "VEC3"
    },
    {
      "bufferView": 3,
      "byteOffset": 0,
      "componentType": 5126,
      "count": 378,
      "max": [
        0.999786376953125,
        0.7875181436538696,
        0.26330968737602234
      ],
      "min": [
        0.6036774516105652,
        0.00003051804378628731,
        0
      ],
      "type": "VEC3"
    }
  ],
  "buffers": [
    {
      "byteLength": 1464,
      "uri": "data:application/octet-stream;base64,"
    },
    {
      "byteLength": 4536,
      "uri": "data:application/octet-stream;base64,"
    },
    {
      "byteLength": 4536,
      "uri": "data:application/octet-stream;base64,"
    },
    {
      "byteLength": 4536,
      "uri": "data:application/octet-stream;base64,"
    }
  ],
  "bufferViews": [
    {
      "buffer": 0,
      "byteOffset": 0,
      "byteLength": 1464
    },
    {
      "buffer": 1,
      "byteOffset": 0,
      "byteLength": 4536
    },
    {
      "buffer": 2,
      "byteOffset": 0,
      "byteLength": 4536
    },
    {
      "buffer": 3,
      "byteOffset": 0,
      "byteLength": 4536
    }
  ],
  "meshes": [
    {
      "primitives": [
        {
          "mode": 4,
          "indices": 0,
          "attributes": {
            "POSITION": 1,
            "NORMAL": 2,
            "COLOR_0": 3
          }
        }
      ]
    }
  ],
  "nodes": [
    {
      "children": [
        1
      ]
    },
    {
      "mesh": 0
    }
  ],
  "scenes": [
    {
      "nodes": [
        0
      ]
    }
  ],
  "scene": 0
}