{
  "asset": {
    "version": "2.0",
    "generator": "COLLADA2GLTF"
  },
  "accessors": [
    {
      "bufferView": 0,
      "byteOffset": 0,
      "componentType": 5123,
      "count": 729,
      "min": [
        0
      ],
      "max": [
        411
      ],
      "type": "SCALAR"
    },
    {
      "bufferView": 1,
      "byteOffset": 0,
      "componentType": 5126,
      "count": 412,
      "max": [
        -1391.2999267578125,
        7.5,
        -493.74200439453125
      ],
      "min": [
        -1539.419677734375,
        0,
        -750
      ],
      "type": "VEC3"
    },
    {
      "bufferView": 2,
      "byteOffset": 0,
      "componentType": 5126,
      "count": 412,
      "max": [
        0.9986824989318848,
        1,
        0.7488340139389038
      ],
      "min": [
        -0.7492355704307556,
        0,
        -0.9997689127922058
      ],
      "type": "VEC3"
    },
    {
      "bufferView": 3,
      "byteOffset": 0,
      "componentType": 5126,
      "count": 412,
      "max": [
        0.999786376953125,
        1,
        0.26330968737602234
      ],
      "min": [
        0.000015259021893143654,
        0.07324330508708954,
        0.00004577706567943096
      ],
      "type": "VEC3"
    }
  ],
  "buffers": [
    {
      "byteLength": 1458,
      "uri": "data:application/octet-stream;base64,"
    },
    {
      "byteLength": 4944,
      "uri": "data:application/octet-stream;base64,"
    },
    {
      "byteLength": 4944,
      "uri": "data:application/octet-stream;base64,"
    },
    {
      "byteLength": 4944,
      "uri": "data:application/octet-stream;base64,"
    }
  ],
  "bufferViews": [
    {
      "buffer": 0,
      "byteOffset": 0,
      "byteLength": 1458
    },
    {
      "buffer": 1,
      "byteOffset": 0,
      "byteLength": 4944
    },
    {
      "buffer": 2,
      "byteOffset": 0,
      "byteLength": 4944
    },
    {
      "buffer": 3,
      "byteOffset": 0,
      "byteLength": 4944
    }
  ],
  "meshes": [
    {
      "primitives": [
        {
          "mode": 4,
          "indices": 0,
          "attributes": {
            "POSITION": 1,
            "NORMAL": 2,
            "COLOR_0": 3
          }
        }
      ]
    }
  ],
  "nodes": [
    {
      "children": [
        1
      ]
    },
    {
      "mesh": 0
    }
  ],
  "scenes": [
    {
      "nodes": [
        0
      ]
    }
  ],
  "scene": 0
}