{
  "asset": {
    "version": "2.0",
    "generator": "COLLADA2GLTF"
  },
  "accessors": [
    {
      "bufferView": 0,
      "byteOffset": 0,
      "componentType": 5123,
      "count": 1743,
      "min": [
        0
      ],
      "max": [
        779
      ],
      "type": "SCALAR"
    },
    {
      "bufferView": 1,
      "byteOffset": 0,
      "componentType": 5126,
      "count": 780,
      "max": [
        -1080,
        7.5,
        330.11456298828125
      ],
      "min": [
        -1189.3135986328125,
        0,
        81.39086151123047
      ],
      "type": "VEC3"
    },
    {
      "bufferView": 2,
      "byteOffset": 0,
      "componentType": 5126,
      "count": 780,
      "max": [
        0.8173580765724182,
        1,
        0.8312785625457764
      ],
      "min": [
        -0.8095844984054565,
        0,
        -0.8174365758895874
      ],
      "type": "VEC3"
    },
    {
      "bufferView": 3,
      "byteOffset": 0,
      "componentType": 5126,
      "count": 780,
      "max": [
        0.999786376953125,
        1,
        0.7875028848648071
      ],
      "min": [
        0.000015259021893143654,
        0.07324330508708954,
        0.00004577706567943096
      ],
      "type": "VEC3"
    }
  ],
  "buffers": [
    {
      "byteLength": 3486,
      "uri": "data:application/octet-stream;base64,"
    },
    {
      "byteLength": 9360,
      "uri": "data:application/octet-stream;base64,"
    },
    {
      "byteLength": 9360,
      "uri": "data:application/octet-stream;base64,"
    },
    {
      "byteLength": 9360,
      "uri": "data:application/octet-stream;base64,"
    }
  ],
  "bufferViews": [
    {
      "buffer": 0,
      "byteOffset": 0,
      "byteLength": 3486
    },
    {
      "buffer": 1,
      "byteOffset": 0,
      "byteLength": 9360
    },
    {
      "buffer": 2,
      "byteOffset": 0,
      "byteLength": 9360
    },
    {
      "buffer": 3,
      "byteOffset": 0,
      "byteLength": 9360
    }
  ],
  "meshes": [
    {
      "primitives": [
        {
          "mode": 4,
          "indices": 0,
          "attributes": {
            "POSITION": 1,
            "NORMAL": 2,
            "COLOR_0": 3
          }
        }
      ]
    }
  ],
  "nodes": [
    {
      "children": [
        1
      ]
    },
    {
      "mesh": 0
    }
  ],
  "scenes": [
    {
      "nodes": [
        0
      ]
    }
  ],
  "scene": 0
}