{
  "asset": {
    "version": "2.0",
    "generator": "COLLADA2GLTF"
  },
  "accessors": [
    {
      "bufferView": 0,
      "byteOffset": 0,
      "componentType": 5123,
      "count": 1986,
      "min": [
        0
      ],
      "max": [
        669
      ],
      "type": "SCALAR"
    },
    {
      "bufferView": 1,
      "byteOffset": 0,
      "componentType": 5126,
      "count": 670,
      "max": [
        -2817.422607421875,
        0,
        1488.71875
      ],
      "min": [
        -2986.69287109375,
        -3,
        1370.488037109375
      ],
      "type": "VEC3"
    },
    {
      "bufferView": 2,
      "byteOffset": 0,
      "componentType": 5126,
      "count": 670,
      "max": [
        0.8059847354888916,
        1,
        0.8059847354888916
      ],
      "min": [
        -0.8059847354888916,
        -1,
        -0.8059847354888916
      ],
      "type": "VEC3"
    },
    {
      "bufferView": 3,
      "byteOffset": 0,
      "componentType": 5126,
      "count": 670,
      "max": [
        0.5774929523468018,
        0.5776150226593018,
        0.5776455402374268
      ],
      "min": [
        0.21585412323474884,
        0.21585412323474884,
        0.21589989960193634
      ],
      "type": "VEC3"
    }
  ],
  "buffers": [
    {
      "byteLength": 3972,
      "uri": "data:application/octet-stream;base64,"
    },
    {
      "byteLength": 8040,
      "uri": "data:application/octet-stream;base64,"
    },
    {
      "byteLength": 8040,
      "uri": "data:application/octet-stream;base64,"
    },
    {
      "byteLength": 8040,
      "uri": "data:application/octet-stream;base64,"
    }
  ],
  "bufferViews": [
    {
      "buffer": 0,
      "byteOffset": 0,
      "byteLength": 3972
    },
    {
      "buffer": 1,
      "byteOffset": 0,
      "byteLength": 8040
    },
    {
      "buffer": 2,
      "byteOffset": 0,
      "byteLength": 8040
    },
    {
      "buffer": 3,
      "byteOffset": 0,
      "byteLength": 8040
    }
  ],
  "meshes": [
    {
      "primitives": [
        {
          "mode": 4,
          "indices": 0,
          "attributes": {
            "POSITION": 1,
            "NORMAL": 2,
            "COLOR_0": 3
          }
        }
      ]
    }
  ],
  "nodes": [
    {
      "children": [
        1
      ]
    },
    {
      "mesh": 0
    }
  ],
  "scenes": [
    {
      "nodes": [
        0
      ]
    }
  ],
  "scene": 0
}