{
  "asset": {
    "version": "2.0",
    "generator": "COLLADA2GLTF"
  },
  "accessors": [
    {
      "bufferView": 0,
      "byteOffset": 0,
      "componentType": 5123,
      "count": 2664,
      "min": [
        0
      ],
      "max": [
        1543
      ],
      "type": "SCALAR"
    },
    {
      "bufferView": 1,
      "byteOffset": 0,
      "componentType": 5126,
      "count": 1544,
      "max": [
        1576.093505859375,
        0.10000000149011612,
        -1560
      ],
      "min": [
        996.2570190429688,
        0,
        -1948.127197265625
      ],
      "type": "VEC3"
    },
    {
      "bufferView": 2,
      "byteOffset": 0,
      "componentType": 5126,
      "count": 1544,
      "max": [
        0.9960812330245972,
        1,
        0.9986953735351562
      ],
      "min": [
        -0.9981880784034729,
        0,
        -0.9993138313293457
      ],
      "type": "VEC3"
    },
    {
      "bufferView": 3,
      "byteOffset": 0,
      "componentType": 5126,
      "count": 1544,
      "max": [
        0.999786376953125,
        1,
        1
      ],
      "min": [
        0,
        0.00003051804378628731,
        0.00004577706567943096
      ],
      "type": "VEC3"
    }
  ],
  "buffers": [
    {
      "byteLength": 5328,
      "uri": "data:application/octet-stream;base64,"
    },
    {
      "byteLength": 18528,
      "uri": "data:application/octet-stream;base64,"
    },
    {
      "byteLength": 18528,
      "uri": "data:application/octet-stream;base64,"
    },
    {
      "byteLength": 18528,
      "uri": "data:application/octet-stream;base64,"
    }
  ],
  "bufferViews": [
    {
      "buffer": 0,
      "byteOffset": 0,
      "byteLength": 5328
    },
    {
      "buffer": 1,
      "byteOffset": 0,
      "byteLength": 18528
    },
    {
      "buffer": 2,
      "byteOffset": 0,
      "byteLength": 18528
    },
    {
      "buffer": 3,
      "byteOffset": 0,
      "byteLength": 18528
    }
  ],
  "meshes": [
    {
      "primitives": [
        {
          "mode": 4,
          "indices": 0,
          "attributes": {
            "POSITION": 1,
            "NORMAL": 2,
            "COLOR_0": 3
          }
        }
      ]
    }
  ],
  "nodes": [
    {
      "children": [
        1
      ]
    },
    {
      "mesh": 0
    }
  ],
  "scenes": [
    {
      "nodes": [
        0
      ]
    }
  ],
  "scene": 0
}