{
  "asset": {
    "version": "2.0",
    "generator": "COLLADA2GLTF"
  },
  "accessors": [
    {
      "bufferView": 0,
      "byteOffset": 0,
      "componentType": 5123,
      "count": 1125,
      "min": [
        0
      ],
      "max": [
        595
      ],
      "type": "SCALAR"
    },
    {
      "bufferView": 1,
      "byteOffset": 0,
      "componentType": 5126,
      "count": 596,
      "max": [
        -2072.494873046875,
        14.5,
        1777.17724609375
      ],
      "min": [
        -2090.3798828125,
        -0.5,
        1685.60400390625
      ],
      "type": "VEC3"
    },
    {
      "bufferView": 2,
      "byteOffset": 0,
      "componentType": 5126,
      "count": 596,
      "max": [
        0.9997288584709167,
        1,
        0.9998407363891602
      ],
      "min": [
        -0.9997288584709167,
        -1,
        -0.9993932247161865
      ],
      "type": "VEC3"
    },
    {
      "bufferView": 3,
      "byteOffset": 0,
      "componentType": 5126,
      "count": 596,
      "max": [
        0.5774929523468018,
        0.5776150226593018,
        0.5776455402374268
      ],
      "min": [
        0.4480048716068268,
        0.4480048716068268,
        0.4480659067630768
      ],
      "type": "VEC3"
    }
  ],
  "buffers": [
    {
      "byteLength": 2250,
      "uri": "data:application/octet-stream;base64,"
    },
    {
      "byteLength": 7152,
      "uri": "data:application/octet-stream;base64,"
    },
    {
      "byteLength": 7152,
      "uri": "data:application/octet-stream;base64,"
    },
    {
      "byteLength": 7152,
      "uri": "data:application/octet-stream;base64,"
    }
  ],
  "bufferViews": [
    {
      "buffer": 0,
      "byteOffset": 0,
      "byteLength": 2250
    },
    {
      "buffer": 1,
      "byteOffset": 0,
      "byteLength": 7152
    },
    {
      "buffer": 2,
      "byteOffset": 0,
      "byteLength": 7152
    },
    {
      "buffer": 3,
      "byteOffset": 0,
      "byteLength": 7152
    }
  ],
  "meshes": [
    {
      "primitives": [
        {
          "mode": 4,
          "indices": 0,
          "attributes": {
            "POSITION": 1,
            "NORMAL": 2,
            "COLOR_0": 3
          }
        }
      ]
    }
  ],
  "nodes": [
    {
      "children": [
        1
      ]
    },
    {
      "mesh": 0
    }
  ],
  "scenes": [
    {
      "nodes": [
        0
      ]
    }
  ],
  "scene": 0
}