{
  "asset": {
    "version": "2.0",
    "generator": "COLLADA2GLTF"
  },
  "accessors": [
    {
      "bufferView": 0,
      "byteOffset": 0,
      "componentType": 5123,
      "count": 9309,
      "min": [
        0
      ],
      "max": [
        3216
      ],
      "type": "SCALAR"
    },
    {
      "bufferView": 1,
      "byteOffset": 0,
      "componentType": 5126,
      "count": 3217,
      "max": [
        436.66925048828125,
        7.5,
        -1016.2748413085938
      ],
      "min": [
        -120.77535247802734,
        -3,
        -1694.8994140625
      ],
      "type": "VEC3"
    },
    {
      "bufferView": 2,
      "byteOffset": 0,
      "componentType": 5126,
      "count": 3217,
      "max": [
        0.9214382767677307,
        1,
        0.9214382767677307
      ],
      "min": [
        -0.9214382767677307,
        -1,
        -0.921444296836853
      ],
      "type": "VEC3"
    },
    {
      "bufferView": 3,
      "byteOffset": 0,
      "componentType": 5126,
      "count": 3217,
      "max": [
        0.999786376953125,
        0.7875181436538696,
        0.7875028848648071
      ],
      "min": [
        0.07322804629802704,
        0.07324330508708954,
        0.07325856387615204
      ],
      "type": "VEC3"
    }
  ],
  "buffers": [
    {
      "byteLength": 18618,
      "uri": "data:application/octet-stream;base64,"
    },
    {
      "byteLength": 38604,
      "uri": "data:application/octet-stream;base64,"
    },
    {
      "byteLength": 38604,
      "uri": "data:application/octet-stream;base64,"
    },
    {
      "byteLength": 38604,
      "uri": "data:application/octet-stream;base64,"
    }
  ],
  "bufferViews": [
    {
      "buffer": 0,
      "byteOffset": 0,
      "byteLength": 18618
    },
    {
      "buffer": 1,
      "byteOffset": 0,
      "byteLength": 38604
    },
    {
      "buffer": 2,
      "byteOffset": 0,
      "byteLength": 38604
    },
    {
      "buffer": 3,
      "byteOffset": 0,
      "byteLength": 38604
    }
  ],
  "meshes": [
    {
      "primitives": [
        {
          "mode": 4,
          "indices": 0,
          "attributes": {
            "POSITION": 1,
            "NORMAL": 2,
            "COLOR_0": 3
          }
        }
      ]
    }
  ],
  "nodes": [
    {
      "children": [
        1
      ]
    },
    {
      "mesh": 0
    }
  ],
  "scenes": [
    {
      "nodes": [
        0
      ]
    }
  ],
  "scene": 0
}