{
  "asset": {
    "version": "2.0",
    "generator": "COLLADA2GLTF"
  },
  "accessors": [
    {
      "bufferView": 0,
      "byteOffset": 0,
      "componentType": 5123,
      "count": 72,
      "min": [
        0
      ],
      "max": [
        41
      ],
      "type": "SCALAR"
    },
    {
      "bufferView": 1,
      "byteOffset": 0,
      "componentType": 5126,
      "count": 42,
      "max": [
        -1722.2572021484375,
        12.5,
        1027.870849609375
      ],
      "min": [
        -1771.082763671875,
        0,
        986.4271850585938
      ],
      "type": "VEC3"
    },
    {
      "bufferView": 2,
      "byteOffset": 0,
      "componentType": 5126,
      "count": 42,
      "max": [
        0.7915817499160767,
        1,
        0.7920261025428772
      ],
      "min": [
        -0.7920305728912354,
        0,
        -0.7919480204582214
      ],
      "type": "VEC3"
    },
    {
      "bufferView": 3,
      "byteOffset": 0,
      "componentType": 5126,
      "count": 42,
      "max": [
        0.999786376953125,
        0.7875181436538696,
        0.26330968737602234
      ],
      "min": [
        0.6036774516105652,
        0.00003051804378628731,
        0
      ],
      "type": "VEC3"
    }
  ],
  "buffers": [
    {
      "byteLength": 144,
      "uri": "data:application/octet-stream;base64,"
    },
    {
      "byteLength": 504,
      "uri": "data:application/octet-stream;base64,"
    },
    {
      "byteLength": 504,
      "uri": "data:application/octet-stream;base64,"
    },
    {
      "byteLength": 504,
      "uri": "data:application/octet-stream;base64,"
    }
  ],
  "bufferViews": [
    {
      "buffer": 0,
      "byteOffset": 0,
      "byteLength": 144
    },
    {
      "buffer": 1,
      "byteOffset": 0,
      "byteLength": 504
    },
    {
      "buffer": 2,
      "byteOffset": 0,
      "byteLength": 504
    },
    {
      "buffer": 3,
      "byteOffset": 0,
      "byteLength": 504
    }
  ],
  "meshes": [
    {
      "primitives": [
        {
          "mode": 4,
          "indices": 0,
          "attributes": {
            "POSITION": 1,
            "NORMAL": 2,
            "COLOR_0": 3
          }
        }
      ]
    }
  ],
  "nodes": [
    {
      "children": [
        1
      ]
    },
    {
      "mesh": 0
    }
  ],
  "scenes": [
    {
      "nodes": [
        0
      ]
    }
  ],
  "scene": 0
}