{
  "asset": {
    "version": "2.0",
    "generator": "COLLADA2GLTF"
  },
  "accessors": [
    {
      "bufferView": 0,
      "byteOffset": 0,
      "componentType": 5123,
      "count": 426,
      "min": [
        0
      ],
      "max": [
        145
      ],
      "type": "SCALAR"
    },
    {
      "bufferView": 1,
      "byteOffset": 0,
      "componentType": 5126,
      "count": 146,
      "max": [
        3462.826171875,
        9.5,
        6718.97216796875
      ],
      "min": [
        3053.549560546875,
        -0.5,
        6398.57177734375
      ],
      "type": "VEC3"
    },
    {
      "bufferView": 2,
      "byteOffset": 0,
      "componentType": 5126,
      "count": 146,
      "max": [
        0.7522162795066833,
        -0.04440061375498772,
        0.7522162795066833
      ],
      "min": [
        -0.7921236753463745,
        -0.3162277638912201,
        -0.7522162795066833
      ],
      "type": "VEC3"
    },
    {
      "bufferView": 3,
      "byteOffset": 0,
      "componentType": 5126,
      "count": 146,
      "max": [
        0.4480048716068268,
        0.4480048716068268,
        0.4480659067630768
      ],
      "min": [
        0.4480048716068268,
        0.4480048716068268,
        0.4480659067630768
      ],
      "type": "VEC3"
    }
  ],
  "buffers": [
    {
      "byteLength": 852,
      "uri": "data:application/octet-stream;base64,"
    },
    {
      "byteLength": 1752,
      "uri": "data:application/octet-stream;base64,"
    },
    {
      "byteLength": 1752,
      "uri": "data:application/octet-stream;base64,"
    },
    {
      "byteLength": 1752,
      "uri": "data:application/octet-stream;base64,"
    }
  ],
  "bufferViews": [
    {
      "buffer": 0,
      "byteOffset": 0,
      "byteLength": 852
    },
    {
      "buffer": 1,
      "byteOffset": 0,
      "byteLength": 1752
    },
    {
      "buffer": 2,
      "byteOffset": 0,
      "byteLength": 1752
    },
    {
      "buffer": 3,
      "byteOffset": 0,
      "byteLength": 1752
    }
  ],
  "meshes": [
    {
      "primitives": [
        {
          "mode": 4,
          "indices": 0,
          "attributes": {
            "POSITION": 1,
            "NORMAL": 2,
            "COLOR_0": 3
          }
        }
      ]
    }
  ],
  "nodes": [
    {
      "children": [
        1
      ]
    },
    {
      "mesh": 0
    }
  ],
  "scenes": [
    {
      "nodes": [
        0
      ]
    }
  ],
  "scene": 0
}