{
  "asset": {
    "version": "2.0",
    "generator": "COLLADA2GLTF"
  },
  "accessors": [
    {
      "bufferView": 0,
      "byteOffset": 0,
      "componentType": 5123,
      "count": 978,
      "min": [
        0
      ],
      "max": [
        559
      ],
      "type": "SCALAR"
    },
    {
      "bufferView": 1,
      "byteOffset": 0,
      "componentType": 5126,
      "count": 560,
      "max": [
        -1169.9410400390625,
        7.5,
        -712.60498046875
      ],
      "min": [
        -1318.43896484375,
        0,
        -1024.782958984375
      ],
      "type": "VEC3"
    },
    {
      "bufferView": 2,
      "byteOffset": 0,
      "componentType": 5126,
      "count": 560,
      "max": [
        0.8752613663673401,
        1,
        0.8761385083198547
      ],
      "min": [
        -0.8751277327537537,
        0,
        -0.8744382858276367
      ],
      "type": "VEC3"
    },
    {
      "bufferView": 3,
      "byteOffset": 0,
      "componentType": 5126,
      "count": 560,
      "max": [
        0.999786376953125,
        0.7875181436538696,
        0.26330968737602234
      ],
      "min": [
        0.6036774516105652,
        0.00003051804378628731,
        0
      ],
      "type": "VEC3"
    }
  ],
  "buffers": [
    {
      "byteLength": 1956,
      "uri": "data:application/octet-stream;base64,"
    },
    {
      "byteLength": 6720,
      "uri": "data:application/octet-stream;base64,"
    },
    {
      "byteLength": 6720,
      "uri": "data:application/octet-stream;base64,"
    },
    {
      "byteLength": 6720,
      "uri": "data:application/octet-stream;base64,"
    }
  ],
  "bufferViews": [
    {
      "buffer": 0,
      "byteOffset": 0,
      "byteLength": 1956
    },
    {
      "buffer": 1,
      "byteOffset": 0,
      "byteLength": 6720
    },
    {
      "buffer": 2,
      "byteOffset": 0,
      "byteLength": 6720
    },
    {
      "buffer": 3,
      "byteOffset": 0,
      "byteLength": 6720
    }
  ],
  "meshes": [
    {
      "primitives": [
        {
          "mode": 4,
          "indices": 0,
          "attributes": {
            "POSITION": 1,
            "NORMAL": 2,
            "COLOR_0": 3
          }
        }
      ]
    }
  ],
  "nodes": [
    {
      "children": [
        1
      ]
    },
    {
      "mesh": 0
    }
  ],
  "scenes": [
    {
      "nodes": [
        0
      ]
    }
  ],
  "scene": 0
}