{
  "asset": {
    "version": "2.0",
    "generator": "COLLADA2GLTF"
  },
  "accessors": [
    {
      "bufferView": 0,
      "byteOffset": 0,
      "componentType": 5123,
      "count": 2505,
      "min": [
        0
      ],
      "max": [
        954
      ],
      "type": "SCALAR"
    },
    {
      "bufferView": 1,
      "byteOffset": 0,
      "componentType": 5126,
      "count": 955,
      "max": [
        3457.680908203125,
        0.10000000149011612,
        -1471.318603515625
      ],
      "min": [
        3446.98681640625,
        0,
        -1486.2418212890625
      ],
      "type": "VEC3"
    },
    {
      "bufferView": 2,
      "byteOffset": 0,
      "componentType": 5126,
      "count": 955,
      "max": [
        0.8140479922294617,
        0.9498637914657593,
        0.8140302300453186
      ],
      "min": [
        -0.8140479922294617,
        0,
        -0.8140479922294617
      ],
      "type": "VEC3"
    },
    {
      "bufferView": 3,
      "byteOffset": 0,
      "componentType": 5126,
      "count": 955,
      "max": [
        0.07322804629802704,
        0.07324330508708954,
        0.07325856387615204
      ],
      "min": [
        0.07322804629802704,
        0.07324330508708954,
        0.07325856387615204
      ],
      "type": "VEC3"
    }
  ],
  "buffers": [
    {
      "byteLength": 5010,
      "uri": "data:application/octet-stream;base64,"
    },
    {
      "byteLength": 11460,
      "uri": "data:application/octet-stream;base64,"
    },
    {
      "byteLength": 11460,
      "uri": "data:application/octet-stream;base64,"
    },
    {
      "byteLength": 11460,
      "uri": "data:application/octet-stream;base64,"
    }
  ],
  "bufferViews": [
    {
      "buffer": 0,
      "byteOffset": 0,
      "byteLength": 5010
    },
    {
      "buffer": 1,
      "byteOffset": 0,
      "byteLength": 11460
    },
    {
      "buffer": 2,
      "byteOffset": 0,
      "byteLength": 11460
    },
    {
      "buffer": 3,
      "byteOffset": 0,
      "byteLength": 11460
    }
  ],
  "meshes": [
    {
      "primitives": [
        {
          "mode": 4,
          "indices": 0,
          "attributes": {
            "POSITION": 1,
            "NORMAL": 2,
            "COLOR_0": 3
          }
        }
      ]
    }
  ],
  "nodes": [
    {
      "children": [
        1
      ]
    },
    {
      "mesh": 0
    }
  ],
  "scenes": [
    {
      "nodes": [
        0
      ]
    }
  ],
  "scene": 0
}