{
  "asset": {
    "version": "2.0",
    "generator": "COLLADA2GLTF"
  },
  "accessors": [
    {
      "bufferView": 0,
      "byteOffset": 0,
      "componentType": 5123,
      "count": 4146,
      "min": [
        0
      ],
      "max": [
        1444
      ],
      "type": "SCALAR"
    },
    {
      "bufferView": 1,
      "byteOffset": 0,
      "componentType": 5126,
      "count": 1445,
      "max": [
        515.4729614257812,
        0.14777499437332153,
        2766.487548828125
      ],
      "min": [
        -9.017643928527832,
        0,
        2582.3388671875
      ],
      "type": "VEC3"
    },
    {
      "bufferView": 2,
      "byteOffset": 0,
      "componentType": 5126,
      "count": 1445,
      "max": [
        0.9440768361091614,
        1,
        0.9440768361091614
      ],
      "min": [
        -0.9440768361091614,
        -0.9486833214759827,
        -0.9440768361091614
      ],
      "type": "VEC3"
    },
    {
      "bufferView": 3,
      "byteOffset": 0,
      "componentType": 5126,
      "count": 1445,
      "max": [
        0.5774929523468018,
        0.5776150226593018,
        0.5776455402374268
      ],
      "min": [
        0.07322804629802704,
        0.03309682011604309,
        0.03311207890510559
      ],
      "type": "VEC3"
    }
  ],
  "buffers": [
    {
      "byteLength": 8292,
      "uri": "data:application/octet-stream;base64,"
    },
    {
      "byteLength": 17340,
      "uri": "data:application/octet-stream;base64,"
    },
    {
      "byteLength": 17340,
      "uri": "data:application/octet-stream;base64,"
    },
    {
      "byteLength": 17340,
      "uri": "data:application/octet-stream;base64,"
    }
  ],
  "bufferViews": [
    {
      "buffer": 0,
      "byteOffset": 0,
      "byteLength": 8292
    },
    {
      "buffer": 1,
      "byteOffset": 0,
      "byteLength": 17340
    },
    {
      "buffer": 2,
      "byteOffset": 0,
      "byteLength": 17340
    },
    {
      "buffer": 3,
      "byteOffset": 0,
      "byteLength": 17340
    }
  ],
  "meshes": [
    {
      "primitives": [
        {
          "mode": 4,
          "indices": 0,
          "attributes": {
            "POSITION": 1,
            "NORMAL": 2,
            "COLOR_0": 3
          }
        }
      ]
    }
  ],
  "nodes": [
    {
      "children": [
        1
      ]
    },
    {
      "mesh": 0
    }
  ],
  "scenes": [
    {
      "nodes": [
        0
      ]
    }
  ],
  "scene": 0
}