{
  "asset": {
    "version": "2.0",
    "generator": "COLLADA2GLTF"
  },
  "accessors": [
    {
      "bufferView": 0,
      "byteOffset": 0,
      "componentType": 5123,
      "count": 2490,
      "min": [
        0
      ],
      "max": [
        1319
      ],
      "type": "SCALAR"
    },
    {
      "bufferView": 1,
      "byteOffset": 0,
      "componentType": 5126,
      "count": 1320,
      "max": [
        1636.406005859375,
        12.5,
        -689.114990234375
      ],
      "min": [
        1440.7159423828125,
        0,
        -1036.5169677734375
      ],
      "type": "VEC3"
    },
    {
      "bufferView": 2,
      "byteOffset": 0,
      "componentType": 5126,
      "count": 1320,
      "max": [
        0.9999843835830688,
        1,
        0.9999868869781494
      ],
      "min": [
        -0.999985933303833,
        0,
        -0.9999868869781494
      ],
      "type": "VEC3"
    },
    {
      "bufferView": 3,
      "byteOffset": 0,
      "componentType": 5126,
      "count": 1320,
      "max": [
        0.999786376953125,
        0.7875181436538696,
        0.26330968737602234
      ],
      "min": [
        0.6036774516105652,
        0.00003051804378628731,
        0
      ],
      "type": "VEC3"
    }
  ],
  "buffers": [
    {
      "byteLength": 4980,
      "uri": "data:application/octet-stream;base64,"
    },
    {
      "byteLength": 15840,
      "uri": "data:application/octet-stream;base64,"
    },
    {
      "byteLength": 15840,
      "uri": "data:application/octet-stream;base64,"
    },
    {
      "byteLength": 15840,
      "uri": "data:application/octet-stream;base64,"
    }
  ],
  "bufferViews": [
    {
      "buffer": 0,
      "byteOffset": 0,
      "byteLength": 4980
    },
    {
      "buffer": 1,
      "byteOffset": 0,
      "byteLength": 15840
    },
    {
      "buffer": 2,
      "byteOffset": 0,
      "byteLength": 15840
    },
    {
      "buffer": 3,
      "byteOffset": 0,
      "byteLength": 15840
    }
  ],
  "meshes": [
    {
      "primitives": [
        {
          "mode": 4,
          "indices": 0,
          "attributes": {
            "POSITION": 1,
            "NORMAL": 2,
            "COLOR_0": 3
          }
        }
      ]
    }
  ],
  "nodes": [
    {
      "children": [
        1
      ]
    },
    {
      "mesh": 0
    }
  ],
  "scenes": [
    {
      "nodes": [
        0
      ]
    }
  ],
  "scene": 0
}