{
  "asset": {
    "version": "2.0",
    "generator": "COLLADA2GLTF"
  },
  "accessors": [
    {
      "bufferView": 0,
      "byteOffset": 0,
      "componentType": 5123,
      "count": 609,
      "min": [
        0
      ],
      "max": [
        290
      ],
      "type": "SCALAR"
    },
    {
      "bufferView": 1,
      "byteOffset": 0,
      "componentType": 5126,
      "count": 291,
      "max": [
        -2034.1513671875,
        4.5,
        115.85297393798828
      ],
      "min": [
        -2091.097900390625,
        -0.5,
        42.420310974121094
      ],
      "type": "VEC3"
    },
    {
      "bufferView": 2,
      "byteOffset": 0,
      "componentType": 5126,
      "count": 291,
      "max": [
        0.9898214340209961,
        1,
        1
      ],
      "min": [
        -0.9898214340209961,
        -1,
        -0.9594929814338684
      ],
      "type": "VEC3"
    },
    {
      "bufferView": 3,
      "byteOffset": 0,
      "componentType": 5126,
      "count": 291,
      "max": [
        0.9549705982208252,
        0.7874418497085571,
        0.5776455402374268
      ],
      "min": [
        0.4480048716068268,
        0.4480048716068268,
        0.003997863736003637
      ],
      "type": "VEC3"
    }
  ],
  "buffers": [
    {
      "byteLength": 1218,
      "uri": "data:application/octet-stream;base64,"
    },
    {
      "byteLength": 3492,
      "uri": "data:application/octet-stream;base64,"
    },
    {
      "byteLength": 3492,
      "uri": "data:application/octet-stream;base64,"
    },
    {
      "byteLength": 3492,
      "uri": "data:application/octet-stream;base64,"
    }
  ],
  "bufferViews": [
    {
      "buffer": 0,
      "byteOffset": 0,
      "byteLength": 1218
    },
    {
      "buffer": 1,
      "byteOffset": 0,
      "byteLength": 3492
    },
    {
      "buffer": 2,
      "byteOffset": 0,
      "byteLength": 3492
    },
    {
      "buffer": 3,
      "byteOffset": 0,
      "byteLength": 3492
    }
  ],
  "meshes": [
    {
      "primitives": [
        {
          "mode": 4,
          "indices": 0,
          "attributes": {
            "POSITION": 1,
            "NORMAL": 2,
            "COLOR_0": 3
          }
        }
      ]
    }
  ],
  "nodes": [
    {
      "children": [
        1
      ]
    },
    {
      "mesh": 0
    }
  ],
  "scenes": [
    {
      "nodes": [
        0
      ]
    }
  ],
  "scene": 0
}