{
  "asset": {
    "version": "2.0",
    "generator": "COLLADA2GLTF"
  },
  "accessors": [
    {
      "bufferView": 0,
      "byteOffset": 0,
      "componentType": 5123,
      "count": 81,
      "min": [
        0
      ],
      "max": [
        64
      ],
      "type": "SCALAR"
    },
    {
      "bufferView": 1,
      "byteOffset": 0,
      "componentType": 5126,
      "count": 65,
      "max": [
        -3082.206298828125,
        12.5,
        1310.47900390625
      ],
      "min": [
        -3287.178466796875,
        12.5,
        1271.72021484375
      ],
      "type": "VEC3"
    },
    {
      "bufferView": 2,
      "byteOffset": 0,
      "componentType": 5126,
      "count": 65,
      "max": [
        0.8231288194656372,
        1,
        0.866240918636322
      ],
      "min": [
        -0.8335374593734741,
        0,
        -0.8324496746063232
      ],
      "type": "VEC3"
    },
    {
      "bufferView": 3,
      "byteOffset": 0,
      "componentType": 5126,
      "count": 65,
      "max": [
        0.999786376953125,
        0.7875181436538696,
        0.26330968737602234
      ],
      "min": [
        0.6036774516105652,
        0.00003051804378628731,
        0
      ],
      "type": "VEC3"
    }
  ],
  "buffers": [
    {
      "byteLength": 162,
      "uri": "data:application/octet-stream;base64,"
    },
    {
      "byteLength": 780,
      "uri": "data:application/octet-stream;base64,"
    },
    {
      "byteLength": 780,
      "uri": "data:application/octet-stream;base64,"
    },
    {
      "byteLength": 780,
      "uri": "data:application/octet-stream;base64,"
    }
  ],
  "bufferViews": [
    {
      "buffer": 0,
      "byteOffset": 0,
      "byteLength": 162
    },
    {
      "buffer": 1,
      "byteOffset": 0,
      "byteLength": 780
    },
    {
      "buffer": 2,
      "byteOffset": 0,
      "byteLength": 780
    },
    {
      "buffer": 3,
      "byteOffset": 0,
      "byteLength": 780
    }
  ],
  "meshes": [
    {
      "primitives": [
        {
          "mode": 4,
          "indices": 0,
          "attributes": {
            "POSITION": 1,
            "NORMAL": 2,
            "COLOR_0": 3
          }
        }
      ]
    }
  ],
  "nodes": [
    {
      "children": [
        1
      ]
    },
    {
      "mesh": 0
    }
  ],
  "scenes": [
    {
      "nodes": [
        0
      ]
    }
  ],
  "scene": 0
}