{
  "asset": {
    "version": "2.0",
    "generator": "COLLADA2GLTF"
  },
  "accessors": [
    {
      "bufferView": 0,
      "byteOffset": 0,
      "componentType": 5123,
      "count": 2496,
      "min": [
        0
      ],
      "max": [
        1146
      ],
      "type": "SCALAR"
    },
    {
      "bufferView": 1,
      "byteOffset": 0,
      "componentType": 5126,
      "count": 1147,
      "max": [
        630,
        7.5,
        -270
      ],
      "min": [
        421.57293701171875,
        0,
        -697.498779296875
      ],
      "type": "VEC3"
    },
    {
      "bufferView": 2,
      "byteOffset": 0,
      "componentType": 5126,
      "count": 1147,
      "max": [
        0.9146800637245178,
        1,
        0.9137549996376038
      ],
      "min": [
        -0.9140371680259705,
        0,
        -1
      ],
      "type": "VEC3"
    },
    {
      "bufferView": 3,
      "byteOffset": 0,
      "componentType": 5126,
      "count": 1147,
      "max": [
        0.999786376953125,
        1,
        0.7875028848648071
      ],
      "min": [
        0.000015259021893143654,
        0.07324330508708954,
        0.00004577706567943096
      ],
      "type": "VEC3"
    }
  ],
  "buffers": [
    {
      "byteLength": 4992,
      "uri": "data:application/octet-stream;base64,"
    },
    {
      "byteLength": 13764,
      "uri": "data:application/octet-stream;base64,"
    },
    {
      "byteLength": 13764,
      "uri": "data:application/octet-stream;base64,"
    },
    {
      "byteLength": 13764,
      "uri": "data:application/octet-stream;base64,"
    }
  ],
  "bufferViews": [
    {
      "buffer": 0,
      "byteOffset": 0,
      "byteLength": 4992
    },
    {
      "buffer": 1,
      "byteOffset": 0,
      "byteLength": 13764
    },
    {
      "buffer": 2,
      "byteOffset": 0,
      "byteLength": 13764
    },
    {
      "buffer": 3,
      "byteOffset": 0,
      "byteLength": 13764
    }
  ],
  "meshes": [
    {
      "primitives": [
        {
          "mode": 4,
          "indices": 0,
          "attributes": {
            "POSITION": 1,
            "NORMAL": 2,
            "COLOR_0": 3
          }
        }
      ]
    }
  ],
  "nodes": [
    {
      "children": [
        1
      ]
    },
    {
      "mesh": 0
    }
  ],
  "scenes": [
    {
      "nodes": [
        0
      ]
    }
  ],
  "scene": 0
}