{
  "asset": {
    "version": "2.0",
    "generator": "COLLADA2GLTF"
  },
  "accessors": [
    {
      "bufferView": 0,
      "byteOffset": 0,
      "componentType": 5123,
      "count": 1110,
      "min": [
        0
      ],
      "max": [
        473
      ],
      "type": "SCALAR"
    },
    {
      "bufferView": 1,
      "byteOffset": 0,
      "componentType": 5126,
      "count": 474,
      "max": [
        -798.9819946289062,
        0.0010000000474974513,
        -799.873291015625
      ],
      "min": [
        -944.9668579101562,
        -0.20000000298023224,
        -1049.144775390625
      ],
      "type": "VEC3"
    },
    {
      "bufferView": 2,
      "byteOffset": 0,
      "componentType": 5126,
      "count": 474,
      "max": [
        0.8037267923355103,
        1,
        0.5949984788894653
      ],
      "min": [
        -0.8249111175537109,
        -1,
        -0.8249112963676453
      ],
      "type": "VEC3"
    },
    {
      "bufferView": 3,
      "byteOffset": 0,
      "componentType": 5126,
      "count": 474,
      "max": [
        0.999786376953125,
        1,
        0.7875028848648071
      ],
      "min": [
        0.000015259021893143654,
        0.07324330508708954,
        0.00004577706567943096
      ],
      "type": "VEC3"
    }
  ],
  "buffers": [
    {
      "byteLength": 2220,
      "uri": "data:application/octet-stream;base64,"
    },
    {
      "byteLength": 5688,
      "uri": "data:application/octet-stream;base64,"
    },
    {
      "byteLength": 5688,
      "uri": "data:application/octet-stream;base64,"
    },
    {
      "byteLength": 5688,
      "uri": "data:application/octet-stream;base64,"
    }
  ],
  "bufferViews": [
    {
      "buffer": 0,
      "byteOffset": 0,
      "byteLength": 2220
    },
    {
      "buffer": 1,
      "byteOffset": 0,
      "byteLength": 5688
    },
    {
      "buffer": 2,
      "byteOffset": 0,
      "byteLength": 5688
    },
    {
      "buffer": 3,
      "byteOffset": 0,
      "byteLength": 5688
    }
  ],
  "meshes": [
    {
      "primitives": [
        {
          "mode": 4,
          "indices": 0,
          "attributes": {
            "POSITION": 1,
            "NORMAL": 2,
            "COLOR_0": 3
          }
        }
      ]
    }
  ],
  "nodes": [
    {
      "children": [
        1
      ]
    },
    {
      "mesh": 0
    }
  ],
  "scenes": [
    {
      "nodes": [
        0
      ]
    }
  ],
  "scene": 0
}