{
  "asset": {
    "version": "2.0",
    "generator": "COLLADA2GLTF"
  },
  "accessors": [
    {
      "bufferView": 0,
      "byteOffset": 0,
      "componentType": 5123,
      "count": 1863,
      "min": [
        0
      ],
      "max": [
        707
      ],
      "type": "SCALAR"
    },
    {
      "bufferView": 1,
      "byteOffset": 0,
      "componentType": 5126,
      "count": 708,
      "max": [
        1286.382568359375,
        0,
        644.4497680664062
      ],
      "min": [
        929.4080200195312,
        0,
        244.63780212402344
      ],
      "type": "VEC3"
    },
    {
      "bufferView": 2,
      "byteOffset": 0,
      "componentType": 5126,
      "count": 708,
      "max": [
        0,
        1,
        0
      ],
      "min": [
        0,
        1,
        0
      ],
      "type": "VEC3"
    },
    {
      "bufferView": 3,
      "byteOffset": 0,
      "componentType": 5126,
      "count": 708,
      "max": [
        0.26324865221977234,
        1,
        0.26329442858695984
      ],
      "min": [
        0.000015259021893143654,
        0.07324330508708954,
        0.00004577706567943096
      ],
      "type": "VEC3"
    }
  ],
  "buffers": [
    {
      "byteLength": 3726,
      "uri": "data:application/octet-stream;base64,"
    },
    {
      "byteLength": 8496,
      "uri": "data:application/octet-stream;base64,"
    },
    {
      "byteLength": 8496,
      "uri": "data:application/octet-stream;base64,"
    },
    {
      "byteLength": 8496,
      "uri": "data:application/octet-stream;base64,"
    }
  ],
  "bufferViews": [
    {
      "buffer": 0,
      "byteOffset": 0,
      "byteLength": 3726
    },
    {
      "buffer": 1,
      "byteOffset": 0,
      "byteLength": 8496
    },
    {
      "buffer": 2,
      "byteOffset": 0,
      "byteLength": 8496
    },
    {
      "buffer": 3,
      "byteOffset": 0,
      "byteLength": 8496
    }
  ],
  "meshes": [
    {
      "primitives": [
        {
          "mode": 4,
          "indices": 0,
          "attributes": {
            "POSITION": 1,
            "NORMAL": 2,
            "COLOR_0": 3
          }
        }
      ]
    }
  ],
  "nodes": [
    {
      "children": [
        1
      ]
    },
    {
      "mesh": 0
    }
  ],
  "scenes": [
    {
      "nodes": [
        0
      ]
    }
  ],
  "scene": 0
}