{
  "asset": {
    "version": "2.0",
    "generator": "COLLADA2GLTF"
  },
  "accessors": [
    {
      "bufferView": 0,
      "byteOffset": 0,
      "componentType": 5123,
      "count": 3189,
      "min": [
        0
      ],
      "max": [
        1204
      ],
      "type": "SCALAR"
    },
    {
      "bufferView": 1,
      "byteOffset": 0,
      "componentType": 5126,
      "count": 1205,
      "max": [
        -1729.7593994140625,
        0.10000000149011612,
        -232.5489959716797
      ],
      "min": [
        -1745.072265625,
        0,
        -255.03741455078125
      ],
      "type": "VEC3"
    },
    {
      "bufferView": 2,
      "byteOffset": 0,
      "componentType": 5126,
      "count": 1205,
      "max": [
        0.7628419399261475,
        0.948823094367981,
        0.7628419399261475
      ],
      "min": [
        -0.7041903138160706,
        0,
        -0.7628419399261475
      ],
      "type": "VEC3"
    },
    {
      "bufferView": 3,
      "byteOffset": 0,
      "componentType": 5126,
      "count": 1205,
      "max": [
        0.26324865221977234,
        0.26329442858695984,
        0.26329442858695984
      ],
      "min": [
        0.26324865221977234,
        0.26329442858695984,
        0.26329442858695984
      ],
      "type": "VEC3"
    }
  ],
  "buffers": [
    {
      "byteLength": 6378,
      "uri": "data:application/octet-stream;base64,"
    },
    {
      "byteLength": 14460,
      "uri": "data:application/octet-stream;base64,"
    },
    {
      "byteLength": 14460,
      "uri": "data:application/octet-stream;base64,"
    },
    {
      "byteLength": 14460,
      "uri": "data:application/octet-stream;base64,"
    }
  ],
  "bufferViews": [
    {
      "buffer": 0,
      "byteOffset": 0,
      "byteLength": 6378
    },
    {
      "buffer": 1,
      "byteOffset": 0,
      "byteLength": 14460
    },
    {
      "buffer": 2,
      "byteOffset": 0,
      "byteLength": 14460
    },
    {
      "buffer": 3,
      "byteOffset": 0,
      "byteLength": 14460
    }
  ],
  "meshes": [
    {
      "primitives": [
        {
          "mode": 4,
          "indices": 0,
          "attributes": {
            "POSITION": 1,
            "NORMAL": 2,
            "COLOR_0": 3
          }
        }
      ]
    }
  ],
  "nodes": [
    {
      "children": [
        1
      ]
    },
    {
      "mesh": 0
    }
  ],
  "scenes": [
    {
      "nodes": [
        0
      ]
    }
  ],
  "scene": 0
}