{
  "asset": {
    "version": "2.0",
    "generator": "COLLADA2GLTF"
  },
  "accessors": [
    {
      "bufferView": 0,
      "byteOffset": 0,
      "componentType": 5123,
      "count": 4734,
      "min": [
        0
      ],
      "max": [
        1602
      ],
      "type": "SCALAR"
    },
    {
      "bufferView": 1,
      "byteOffset": 0,
      "componentType": 5126,
      "count": 1603,
      "max": [
        -2506.602783203125,
        0.06400000303983688,
        1649.0771484375
      ],
      "min": [
        -2638.7705078125,
        0,
        1549.9569091796875
      ],
      "type": "VEC3"
    },
    {
      "bufferView": 2,
      "byteOffset": 0,
      "componentType": 5126,
      "count": 1603,
      "max": [
        0.8008418679237366,
        1,
        0.8008418679237366
      ],
      "min": [
        -0.8008418679237366,
        0,
        -0.8008418679237366
      ],
      "type": "VEC3"
    },
    {
      "bufferView": 3,
      "byteOffset": 0,
      "componentType": 5126,
      "count": 1603,
      "max": [
        0.5774929523468018,
        0.5776150226593018,
        0.5776455402374268
      ],
      "min": [
        0.07322804629802704,
        0.03309682011604309,
        0.03311207890510559
      ],
      "type": "VEC3"
    }
  ],
  "buffers": [
    {
      "byteLength": 9468,
      "uri": "data:application/octet-stream;base64,"
    },
    {
      "byteLength": 19236,
      "uri": "data:application/octet-stream;base64,"
    },
    {
      "byteLength": 19236,
      "uri": "data:application/octet-stream;base64,"
    },
    {
      "byteLength": 19236,
      "uri": "data:application/octet-stream;base64,"
    }
  ],
  "bufferViews": [
    {
      "buffer": 0,
      "byteOffset": 0,
      "byteLength": 9468
    },
    {
      "buffer": 1,
      "byteOffset": 0,
      "byteLength": 19236
    },
    {
      "buffer": 2,
      "byteOffset": 0,
      "byteLength": 19236
    },
    {
      "buffer": 3,
      "byteOffset": 0,
      "byteLength": 19236
    }
  ],
  "meshes": [
    {
      "primitives": [
        {
          "mode": 4,
          "indices": 0,
          "attributes": {
            "POSITION": 1,
            "NORMAL": 2,
            "COLOR_0": 3
          }
        }
      ]
    }
  ],
  "nodes": [
    {
      "children": [
        1
      ]
    },
    {
      "mesh": 0
    }
  ],
  "scenes": [
    {
      "nodes": [
        0
      ]
    }
  ],
  "scene": 0
}