{
  "asset": {
    "version": "2.0",
    "generator": "COLLADA2GLTF"
  },
  "accessors": [
    {
      "bufferView": 0,
      "byteOffset": 0,
      "componentType": 5123,
      "count": 3147,
      "min": [
        0
      ],
      "max": [
        1106
      ],
      "type": "SCALAR"
    },
    {
      "bufferView": 1,
      "byteOffset": 0,
      "componentType": 5126,
      "count": 1107,
      "max": [
        -2437.624755859375,
        0.14777499437332153,
        1695.3541259765625
      ],
      "min": [
        -2507.2646484375,
        0,
        1648.204833984375
      ],
      "type": "VEC3"
    },
    {
      "bufferView": 2,
      "byteOffset": 0,
      "componentType": 5126,
      "count": 1107,
      "max": [
        0.83103346824646,
        1,
        0.8310341835021973
      ],
      "min": [
        -0.83103346824646,
        -0.9486833214759827,
        -0.8310341835021973
      ],
      "type": "VEC3"
    },
    {
      "bufferView": 3,
      "byteOffset": 0,
      "componentType": 5126,
      "count": 1107,
      "max": [
        0.5774929523468018,
        0.5776150226593018,
        0.5776455402374268
      ],
      "min": [
        0.07322804629802704,
        0.03309682011604309,
        0.03311207890510559
      ],
      "type": "VEC3"
    }
  ],
  "buffers": [
    {
      "byteLength": 6294,
      "uri": "data:application/octet-stream;base64,"
    },
    {
      "byteLength": 13284,
      "uri": "data:application/octet-stream;base64,"
    },
    {
      "byteLength": 13284,
      "uri": "data:application/octet-stream;base64,"
    },
    {
      "byteLength": 13284,
      "uri": "data:application/octet-stream;base64,"
    }
  ],
  "bufferViews": [
    {
      "buffer": 0,
      "byteOffset": 0,
      "byteLength": 6294
    },
    {
      "buffer": 1,
      "byteOffset": 0,
      "byteLength": 13284
    },
    {
      "buffer": 2,
      "byteOffset": 0,
      "byteLength": 13284
    },
    {
      "buffer": 3,
      "byteOffset": 0,
      "byteLength": 13284
    }
  ],
  "meshes": [
    {
      "primitives": [
        {
          "mode": 4,
          "indices": 0,
          "attributes": {
            "POSITION": 1,
            "NORMAL": 2,
            "COLOR_0": 3
          }
        }
      ]
    }
  ],
  "nodes": [
    {
      "children": [
        1
      ]
    },
    {
      "mesh": 0
    }
  ],
  "scenes": [
    {
      "nodes": [
        0
      ]
    }
  ],
  "scene": 0
}