{
  "asset": {
    "version": "2.0",
    "generator": "COLLADA2GLTF"
  },
  "accessors": [
    {
      "bufferView": 0,
      "byteOffset": 0,
      "componentType": 5123,
      "count": 1266,
      "min": [
        0
      ],
      "max": [
        824
      ],
      "type": "SCALAR"
    },
    {
      "bufferView": 1,
      "byteOffset": 0,
      "componentType": 5126,
      "count": 825,
      "max": [
        2778.46875,
        55,
        -1468.0902099609375
      ],
      "min": [
        2126.5712890625,
        0,
        -2098.23876953125
      ],
      "type": "VEC3"
    },
    {
      "bufferView": 2,
      "byteOffset": 0,
      "componentType": 5126,
      "count": 825,
      "max": [
        1,
        1,
        1
      ],
      "min": [
        -0.8449388742446899,
        0,
        -0.8402343392372131
      ],
      "type": "VEC3"
    },
    {
      "bufferView": 3,
      "byteOffset": 0,
      "componentType": 5126,
      "count": 825,
      "max": [
        0.999786376953125,
        0.7875181436538696,
        0.26330968737602234
      ],
      "min": [
        0.00004577706567943096,
        0.00003051804378628731,
        0
      ],
      "type": "VEC3"
    }
  ],
  "buffers": [
    {
      "byteLength": 2532,
      "uri": "data:application/octet-stream;base64,"
    },
    {
      "byteLength": 9900,
      "uri": "data:application/octet-stream;base64,"
    },
    {
      "byteLength": 9900,
      "uri": "data:application/octet-stream;base64,"
    },
    {
      "byteLength": 9900,
      "uri": "data:application/octet-stream;base64,"
    }
  ],
  "bufferViews": [
    {
      "buffer": 0,
      "byteOffset": 0,
      "byteLength": 2532
    },
    {
      "buffer": 1,
      "byteOffset": 0,
      "byteLength": 9900
    },
    {
      "buffer": 2,
      "byteOffset": 0,
      "byteLength": 9900
    },
    {
      "buffer": 3,
      "byteOffset": 0,
      "byteLength": 9900
    }
  ],
  "meshes": [
    {
      "primitives": [
        {
          "mode": 4,
          "indices": 0,
          "attributes": {
            "POSITION": 1,
            "NORMAL": 2,
            "COLOR_0": 3
          }
        }
      ]
    }
  ],
  "nodes": [
    {
      "children": [
        1
      ]
    },
    {
      "mesh": 0
    }
  ],
  "scenes": [
    {
      "nodes": [
        0
      ]
    }
  ],
  "scene": 0
}