{
  "asset": {
    "version": "2.0",
    "generator": "COLLADA2GLTF"
  },
  "accessors": [
    {
      "bufferView": 0,
      "byteOffset": 0,
      "componentType": 5123,
      "count": 1239,
      "min": [
        0
      ],
      "max": [
        734
      ],
      "type": "SCALAR"
    },
    {
      "bufferView": 1,
      "byteOffset": 0,
      "componentType": 5126,
      "count": 735,
      "max": [
        463.4179992675781,
        10,
        335.92498779296875
      ],
      "min": [
        232.18699645996094,
        0,
        -331.91400146484375
      ],
      "type": "VEC3"
    },
    {
      "bufferView": 2,
      "byteOffset": 0,
      "componentType": 5126,
      "count": 735,
      "max": [
        1,
        1,
        1
      ],
      "min": [
        -0.9989743232727051,
        0,
        -0.9989708065986633
      ],
      "type": "VEC3"
    },
    {
      "bufferView": 3,
      "byteOffset": 0,
      "componentType": 5126,
      "count": 735,
      "max": [
        0.999786376953125,
        0.7875181436538696,
        0.26330968737602234
      ],
      "min": [
        0.00004577706567943096,
        0.00003051804378628731,
        0
      ],
      "type": "VEC3"
    }
  ],
  "buffers": [
    {
      "byteLength": 2478,
      "uri": "data:application/octet-stream;base64,"
    },
    {
      "byteLength": 8820,
      "uri": "data:application/octet-stream;base64,"
    },
    {
      "byteLength": 8820,
      "uri": "data:application/octet-stream;base64,"
    },
    {
      "byteLength": 8820,
      "uri": "data:application/octet-stream;base64,"
    }
  ],
  "bufferViews": [
    {
      "buffer": 0,
      "byteOffset": 0,
      "byteLength": 2478
    },
    {
      "buffer": 1,
      "byteOffset": 0,
      "byteLength": 8820
    },
    {
      "buffer": 2,
      "byteOffset": 0,
      "byteLength": 8820
    },
    {
      "buffer": 3,
      "byteOffset": 0,
      "byteLength": 8820
    }
  ],
  "meshes": [
    {
      "primitives": [
        {
          "mode": 4,
          "indices": 0,
          "attributes": {
            "POSITION": 1,
            "NORMAL": 2,
            "COLOR_0": 3
          }
        }
      ]
    }
  ],
  "nodes": [
    {
      "children": [
        1
      ]
    },
    {
      "mesh": 0
    }
  ],
  "scenes": [
    {
      "nodes": [
        0
      ]
    }
  ],
  "scene": 0
}